G04 Layer_Color=65535*
%FSLAX44Y44*%
%MOMM*%
G71*
G01*
G75*
%ADD36C,0.2540*%
%ADD48C,0.2000*%
%ADD49C,0.1016*%
%ADD50C,0.1270*%
D36*
X856530Y782210D02*
G03*
X856530Y782210I-500J0D01*
G01*
X620310Y968900D02*
G03*
X620310Y968900I-500J0D01*
G01*
X1172760Y779670D02*
G03*
X1172760Y779670I-500J0D01*
G01*
X1026710D02*
G03*
X1026710Y779670I-500J0D01*
G01*
X1758230D02*
G03*
X1758230Y779670I-500J0D01*
G01*
X1612180D02*
G03*
X1612180Y779670I-500J0D01*
G01*
X1466130D02*
G03*
X1466130Y779670I-500J0D01*
G01*
X1317540D02*
G03*
X1317540Y779670I-500J0D01*
G01*
X318770Y819150D02*
G03*
X318770Y819150I-1270J0D01*
G01*
X1670558Y757047D02*
X1689862D01*
X1670558Y723773D02*
Y757047D01*
Y723773D02*
X1689862D01*
Y757047D01*
X1787652Y705993D02*
Y739267D01*
X1768348Y705993D02*
X1787652D01*
X1768348D02*
Y739267D01*
X1787652D01*
X1770888Y629793D02*
X1790192D01*
Y663067D01*
X1770888D02*
X1790192D01*
X1770888Y629793D02*
Y663067D01*
X1525143Y685038D02*
X1558417D01*
X1525143D02*
Y704342D01*
X1558417D01*
Y685038D02*
Y704342D01*
X790448Y660273D02*
X809752D01*
Y693547D01*
X790448D02*
X809752D01*
X790448Y660273D02*
Y693547D01*
X771398Y733933D02*
X790702D01*
Y767207D01*
X771398D02*
X790702D01*
X771398Y733933D02*
Y767207D01*
X743458D02*
X762762D01*
X743458Y733933D02*
Y767207D01*
Y733933D02*
X762762D01*
Y767207D01*
X876427Y1058418D02*
Y1077722D01*
X843153D02*
X876427D01*
X843153Y1058418D02*
Y1077722D01*
Y1058418D02*
X876427D01*
X870458Y633603D02*
X889762D01*
Y666877D01*
X870458D02*
X889762D01*
X870458Y633603D02*
Y666877D01*
X537718Y942467D02*
X557022D01*
X537718Y909193D02*
Y942467D01*
Y909193D02*
X557022D01*
Y942467D01*
X538988Y857377D02*
X558292D01*
X538988Y824103D02*
Y857377D01*
Y824103D02*
X558292D01*
Y857377D01*
X537718Y983107D02*
X557022D01*
X537718Y949833D02*
Y983107D01*
Y949833D02*
X557022D01*
Y983107D01*
X496697Y914908D02*
Y934212D01*
X463423D02*
X496697D01*
X463423Y914908D02*
Y934212D01*
Y914908D02*
X496697D01*
X625983Y818388D02*
Y837692D01*
Y818388D02*
X659257D01*
Y837692D01*
X625983D02*
X659257D01*
X1085088Y757047D02*
X1104392D01*
X1085088Y723773D02*
Y757047D01*
Y723773D02*
X1104392D01*
Y757047D01*
X1087628Y675767D02*
X1106932D01*
X1087628Y642493D02*
Y675767D01*
Y642493D02*
X1106932D01*
Y675767D01*
X1085088Y806577D02*
X1104392D01*
X1085088Y773303D02*
Y806577D01*
Y773303D02*
X1104392D01*
Y806577D01*
X1182497Y1058418D02*
Y1077722D01*
X1149223D02*
X1182497D01*
X1149223Y1058418D02*
Y1077722D01*
Y1058418D02*
X1182497D01*
X1180338Y663067D02*
X1199642D01*
X1180338Y629793D02*
Y663067D01*
Y629793D02*
X1199642D01*
Y663067D01*
X941578Y757047D02*
X960882D01*
X941578Y723773D02*
Y757047D01*
Y723773D02*
X960882D01*
Y757047D01*
X941578Y674497D02*
X960882D01*
X941578Y641223D02*
Y674497D01*
Y641223D02*
X960882D01*
Y674497D01*
X941578Y806196D02*
X960882D01*
X941578Y772922D02*
Y806196D01*
Y772922D02*
X960882D01*
Y806196D01*
X1036447Y1058418D02*
Y1077722D01*
X1003173D02*
X1036447D01*
X1003173Y1058418D02*
Y1077722D01*
Y1058418D02*
X1036447D01*
X1033018Y663067D02*
X1052322D01*
X1033018Y629793D02*
Y663067D01*
Y629793D02*
X1052322D01*
Y663067D01*
X1670558Y675767D02*
X1689862D01*
X1670558Y642493D02*
Y675767D01*
Y642493D02*
X1689862D01*
Y675767D01*
X1670558Y806577D02*
X1689862D01*
X1670558Y773303D02*
Y806577D01*
Y773303D02*
X1689862D01*
Y806577D01*
X1769237Y1058418D02*
Y1077722D01*
X1735963D02*
X1769237D01*
X1735963Y1058418D02*
Y1077722D01*
Y1058418D02*
X1769237D01*
X1524508Y757047D02*
X1543812D01*
X1524508Y723773D02*
Y757047D01*
Y723773D02*
X1543812D01*
Y757047D01*
X1524508Y675767D02*
X1543812D01*
X1524508Y642493D02*
Y675767D01*
Y642493D02*
X1543812D01*
Y675767D01*
X1524508Y806577D02*
X1543812D01*
X1524508Y773303D02*
Y806577D01*
Y773303D02*
X1543812D01*
Y806577D01*
X1623187Y1058418D02*
Y1077722D01*
X1589913D02*
X1623187D01*
X1589913Y1058418D02*
Y1077722D01*
Y1058418D02*
X1623187D01*
X1624838Y629793D02*
X1644142D01*
Y663067D01*
X1624838D02*
X1644142D01*
X1624838Y629793D02*
Y663067D01*
X1378458Y757047D02*
X1397762D01*
X1378458Y723773D02*
Y757047D01*
Y723773D02*
X1397762D01*
Y757047D01*
X1379728Y675767D02*
X1399032D01*
X1379728Y642493D02*
Y675767D01*
Y642493D02*
X1399032D01*
Y675767D01*
X1378458Y806577D02*
X1397762D01*
X1378458Y773303D02*
Y806577D01*
Y773303D02*
X1397762D01*
Y806577D01*
X1475867Y1058418D02*
Y1077722D01*
X1442593D02*
X1475867D01*
X1442593Y1058418D02*
Y1077722D01*
Y1058418D02*
X1475867D01*
X1476248Y629793D02*
X1495552D01*
Y663067D01*
X1476248D02*
X1495552D01*
X1476248Y629793D02*
Y663067D01*
X1229868Y757047D02*
X1249172D01*
X1229868Y723773D02*
Y757047D01*
Y723773D02*
X1249172D01*
Y757047D01*
X1229868Y675767D02*
X1249172D01*
X1229868Y642493D02*
Y675767D01*
Y642493D02*
X1249172D01*
Y675767D01*
X1229868Y806577D02*
X1249172D01*
X1229868Y773303D02*
Y806577D01*
Y773303D02*
X1249172D01*
Y806577D01*
X1328547Y1058418D02*
Y1077722D01*
X1295273D02*
X1328547D01*
X1295273Y1058418D02*
Y1077722D01*
Y1058418D02*
X1328547D01*
X1325118Y629793D02*
X1344422D01*
Y663067D01*
X1325118D02*
X1344422D01*
X1325118Y629793D02*
Y663067D01*
X346837Y880618D02*
Y899922D01*
X313563D02*
X346837D01*
X313563Y880618D02*
Y899922D01*
Y880618D02*
X346837D01*
X377063Y823468D02*
Y842772D01*
Y823468D02*
X410337D01*
Y842772D01*
X377063D02*
X410337D01*
X350393Y880618D02*
Y899922D01*
Y880618D02*
X383667D01*
Y899922D01*
X350393D02*
X383667D01*
X313563Y903478D02*
Y922782D01*
Y903478D02*
X346837D01*
Y922782D01*
X313563D02*
X346837D01*
X288798Y885063D02*
X308102D01*
Y918337D01*
X288798D02*
X308102D01*
X288798Y885063D02*
Y918337D01*
X268478Y982853D02*
X287782D01*
Y1016127D01*
X268478D02*
X287782D01*
X268478Y982853D02*
Y1016127D01*
X862076Y962660D02*
Y985520D01*
Y962660D02*
X908304D01*
Y985520D01*
X862076D02*
X908304D01*
X862076Y1022350D02*
Y1045210D01*
Y1022350D02*
X908304D01*
Y1045210D01*
X862076D02*
X908304D01*
X866140Y806704D02*
X889000D01*
X866140Y760476D02*
Y806704D01*
Y760476D02*
X889000D01*
Y806704D01*
X496824Y982980D02*
Y1005840D01*
X450596D02*
X496824D01*
X450596Y982980D02*
Y1005840D01*
Y982980D02*
X496824D01*
Y1012190D02*
Y1035050D01*
X450596D02*
X496824D01*
X450596Y1012190D02*
Y1035050D01*
Y1012190D02*
X496824D01*
X635000Y985774D02*
X657860D01*
X635000Y939546D02*
Y985774D01*
Y939546D02*
X657860D01*
Y985774D01*
X1166876Y1022350D02*
Y1045210D01*
Y1022350D02*
X1213104D01*
Y1045210D01*
X1166876D02*
X1213104D01*
X1166876Y961390D02*
Y984250D01*
Y961390D02*
X1213104D01*
Y984250D01*
X1166876D02*
X1213104D01*
X1179830Y805434D02*
X1202690D01*
X1179830Y759206D02*
Y805434D01*
Y759206D02*
X1202690D01*
Y805434D01*
X1019556Y961390D02*
Y984250D01*
Y961390D02*
X1065784D01*
Y984250D01*
X1019556D02*
X1065784D01*
X1019556Y1022350D02*
Y1045210D01*
Y1022350D02*
X1065784D01*
Y1045210D01*
X1019556D02*
X1065784D01*
X1033780Y805434D02*
X1056640D01*
X1033780Y759206D02*
Y805434D01*
Y759206D02*
X1056640D01*
Y805434D01*
X1752346Y1022350D02*
Y1045210D01*
Y1022350D02*
X1798574D01*
Y1045210D01*
X1752346D02*
X1798574D01*
X1752346Y962660D02*
Y985520D01*
Y962660D02*
X1798574D01*
Y985520D01*
X1752346D02*
X1798574D01*
X1767840Y805434D02*
X1790700D01*
X1767840Y759206D02*
Y805434D01*
Y759206D02*
X1790700D01*
Y805434D01*
X1606296Y962660D02*
Y985520D01*
Y962660D02*
X1652524D01*
Y985520D01*
X1606296D02*
X1652524D01*
X1606296Y1022350D02*
Y1045210D01*
Y1022350D02*
X1652524D01*
Y1045210D01*
X1606296D02*
X1652524D01*
X1621790Y805434D02*
X1644650D01*
X1621790Y759206D02*
Y805434D01*
Y759206D02*
X1644650D01*
Y805434D01*
X1458976Y1022350D02*
Y1045210D01*
Y1022350D02*
X1505204D01*
Y1045210D01*
X1458976D02*
X1505204D01*
X1460246Y962660D02*
Y985520D01*
Y962660D02*
X1506474D01*
Y985520D01*
X1460246D02*
X1506474D01*
X1475740Y805434D02*
X1498600D01*
X1475740Y759206D02*
Y805434D01*
Y759206D02*
X1498600D01*
Y805434D01*
X1312926Y962660D02*
Y985520D01*
Y962660D02*
X1359154D01*
Y985520D01*
X1312926D02*
X1359154D01*
X1312926Y1022350D02*
Y1045210D01*
Y1022350D02*
X1359154D01*
Y1045210D01*
X1312926D02*
X1359154D01*
X1324610Y805434D02*
X1347470D01*
X1324610Y759206D02*
Y805434D01*
Y759206D02*
X1347470D01*
Y805434D01*
X469646Y750570D02*
Y773430D01*
Y750570D02*
X515874D01*
Y773430D01*
X469646D02*
X515874D01*
X280416Y956310D02*
Y979170D01*
Y956310D02*
X326644D01*
Y979170D01*
X280416D02*
X326644D01*
X280416Y929640D02*
Y952500D01*
Y929640D02*
X326644D01*
Y952500D01*
X280416D02*
X326644D01*
X275844Y956310D02*
Y979170D01*
X229616D02*
X275844D01*
X229616Y956310D02*
Y979170D01*
Y956310D02*
X275844D01*
Y929640D02*
Y952500D01*
X229616D02*
X275844D01*
X229616Y929640D02*
Y952500D01*
Y929640D02*
X275844D01*
Y902970D02*
Y925830D01*
X229616D02*
X275844D01*
X229616Y902970D02*
Y925830D01*
Y902970D02*
X275844D01*
Y876300D02*
Y899160D01*
X229616D02*
X275844D01*
X229616Y876300D02*
Y899160D01*
Y876300D02*
X275844D01*
X833882Y660273D02*
Y693547D01*
X814578Y660273D02*
X833882D01*
X814578D02*
Y693547D01*
X833882D01*
X887222Y708533D02*
Y741807D01*
X867918Y708533D02*
X887222D01*
X867918D02*
Y741807D01*
X887222D01*
X792353Y699008D02*
X825627D01*
X792353D02*
Y718312D01*
X825627D01*
Y699008D02*
Y718312D01*
X583692Y862203D02*
Y895477D01*
X564388Y862203D02*
X583692D01*
X564388D02*
Y895477D01*
X583692D01*
X618363Y930402D02*
X651637D01*
Y911098D02*
Y930402D01*
X618363Y911098D02*
X651637D01*
X618363D02*
Y930402D01*
X558292Y862203D02*
Y895477D01*
X538988Y862203D02*
X558292D01*
X538988D02*
Y895477D01*
X558292D01*
X1132332Y642493D02*
Y675767D01*
X1113028Y642493D02*
X1132332D01*
X1113028D02*
Y675767D01*
X1132332D01*
X1198372Y705993D02*
Y739267D01*
X1179068Y705993D02*
X1198372D01*
X1179068D02*
Y739267D01*
X1198372D01*
X1086993Y682498D02*
X1120267D01*
X1086993D02*
Y701802D01*
X1120267D01*
Y682498D02*
Y701802D01*
X986282Y641223D02*
Y674497D01*
X966978Y641223D02*
X986282D01*
X966978D02*
Y674497D01*
X986282D01*
X1051052Y705993D02*
Y739267D01*
X1031748Y705993D02*
X1051052D01*
X1031748D02*
Y739267D01*
X1051052D01*
X940943Y679958D02*
X974217D01*
X940943D02*
Y699262D01*
X974217D01*
Y679958D02*
Y699262D01*
X1715262Y642493D02*
Y675767D01*
X1695958Y642493D02*
X1715262D01*
X1695958D02*
Y675767D01*
X1715262D01*
X1672463Y682498D02*
X1705737D01*
X1672463D02*
Y701802D01*
X1705737D01*
Y682498D02*
Y701802D01*
X1570482Y642493D02*
Y675767D01*
X1551178Y642493D02*
X1570482D01*
X1551178D02*
Y675767D01*
X1570482D01*
X1641602Y705993D02*
Y739267D01*
X1622298Y705993D02*
X1641602D01*
X1622298D02*
Y739267D01*
X1641602D01*
X1424432Y642493D02*
Y675767D01*
X1405128Y642493D02*
X1424432D01*
X1405128D02*
Y675767D01*
X1424432D01*
X1493012Y705993D02*
Y739267D01*
X1473708Y705993D02*
X1493012D01*
X1473708D02*
Y739267D01*
X1493012D01*
X1379093Y682498D02*
X1412367D01*
X1379093D02*
Y701802D01*
X1412367D01*
Y682498D02*
Y701802D01*
X1274572Y642493D02*
Y675767D01*
X1255268Y642493D02*
X1274572D01*
X1255268D02*
Y675767D01*
X1274572D01*
X1343152Y705993D02*
Y739267D01*
X1323848Y705993D02*
X1343152D01*
X1323848D02*
Y739267D01*
X1343152D01*
X1229233Y682498D02*
X1262507D01*
X1229233D02*
Y701802D01*
X1262507D01*
Y682498D02*
Y701802D01*
X414528Y827913D02*
Y861187D01*
X433832D01*
Y827913D02*
Y861187D01*
X414528Y827913D02*
X433832D01*
X377063Y866902D02*
X410337D01*
Y847598D02*
Y866902D01*
X377063Y847598D02*
X410337D01*
X377063D02*
Y866902D01*
X358013Y798322D02*
X391287D01*
Y779018D02*
Y798322D01*
X358013Y779018D02*
X391287D01*
X358013D02*
Y798322D01*
D48*
X849630Y765885D02*
G03*
X849630Y759535I0J-3175D01*
G01*
X613410Y952575D02*
G03*
X613410Y946225I0J-3175D01*
G01*
X1165860Y763345D02*
G03*
X1165860Y756995I0J-3175D01*
G01*
X1019810Y763345D02*
G03*
X1019810Y756995I0J-3175D01*
G01*
X1751330Y763345D02*
G03*
X1751330Y756995I0J-3175D01*
G01*
X1605280Y763345D02*
G03*
X1605280Y756995I0J-3175D01*
G01*
X1459230Y763345D02*
G03*
X1459230Y756995I0J-3175D01*
G01*
X1310640Y763345D02*
G03*
X1310640Y756995I0J-3175D01*
G01*
X323140Y836635D02*
G03*
X323140Y839885I0J1625D01*
G01*
X1379960Y1231900D02*
X1408960D01*
X1394460Y1234840D02*
X1411460D01*
Y1157840D02*
Y1234840D01*
X1377460Y1157840D02*
X1411460D01*
X1377460D02*
Y1234840D01*
X1394460D01*
X1527280Y1231900D02*
X1556280D01*
X1541780Y1234840D02*
X1558780D01*
Y1157840D02*
Y1234840D01*
X1524780Y1157840D02*
X1558780D01*
X1524780D02*
Y1234840D01*
X1541780D01*
X1673330Y1231900D02*
X1702330D01*
X1687830Y1234840D02*
X1704830D01*
Y1157840D02*
Y1234840D01*
X1670830Y1157840D02*
X1704830D01*
X1670830D02*
Y1234840D01*
X1687830D01*
X1694180Y1053460D02*
X1719180D01*
Y1138560D01*
X1669180D02*
X1719180D01*
X1669180Y1053460D02*
Y1138560D01*
Y1053460D02*
X1694180D01*
X798830Y777360D02*
X849630D01*
X798830Y748060D02*
Y777360D01*
Y748060D02*
X849630D01*
Y759535D01*
Y765885D02*
Y777360D01*
X613410Y952575D02*
Y964050D01*
Y934750D02*
Y946225D01*
X562610Y934750D02*
X613410D01*
X562610D02*
Y964050D01*
X613410D01*
X1115060Y774820D02*
X1165860D01*
X1115060Y745520D02*
Y774820D01*
Y745520D02*
X1165860D01*
Y756995D01*
Y763345D02*
Y774820D01*
X1019810Y763345D02*
Y774820D01*
Y745520D02*
Y756995D01*
X969010Y745520D02*
X1019810D01*
X969010D02*
Y774820D01*
X1019810D01*
X1700530D02*
X1751330D01*
X1700530Y745520D02*
Y774820D01*
Y745520D02*
X1751330D01*
Y756995D01*
Y763345D02*
Y774820D01*
X1605280Y763345D02*
Y774820D01*
Y745520D02*
Y756995D01*
X1554480Y745520D02*
X1605280D01*
X1554480D02*
Y774820D01*
X1605280D01*
X1408430D02*
X1459230D01*
X1408430Y745520D02*
Y774820D01*
Y745520D02*
X1459230D01*
Y756995D01*
Y763345D02*
Y774820D01*
X1310640Y763345D02*
Y774820D01*
Y745520D02*
Y756995D01*
X1259840Y745520D02*
X1310640D01*
X1259840D02*
Y774820D01*
X1310640D01*
X329520Y1249750D02*
Y1261000D01*
X324520Y1253500D02*
X329520Y1249750D01*
X334520Y1253500D01*
X287020Y1249500D02*
X292020Y1253250D01*
X282020D02*
X287020Y1249500D01*
Y1260750D01*
X753700Y1249750D02*
Y1261000D01*
X748700Y1253500D02*
X753700Y1249750D01*
X758700Y1253500D01*
X711200Y1249500D02*
X716200Y1253250D01*
X706200D02*
X711200Y1249500D01*
Y1260750D01*
X902290Y1249750D02*
Y1261000D01*
X897290Y1253500D02*
X902290Y1249750D01*
X907290Y1253500D01*
X859790Y1249500D02*
X864790Y1253250D01*
X854790D02*
X859790Y1249500D01*
Y1260750D01*
X1781130Y1249750D02*
Y1261000D01*
X1776130Y1253500D02*
X1781130Y1249750D01*
X1786130Y1253500D01*
X1738630Y1249500D02*
X1743630Y1253250D01*
X1733630D02*
X1738630Y1249500D01*
Y1260750D01*
X1637620Y1249750D02*
Y1261000D01*
X1632620Y1253500D02*
X1637620Y1249750D01*
X1642620Y1253500D01*
X1595120Y1249500D02*
X1600120Y1253250D01*
X1590120D02*
X1595120Y1249500D01*
Y1260750D01*
X1490300Y1249750D02*
Y1261000D01*
X1485300Y1253500D02*
X1490300Y1249750D01*
X1495300Y1253500D01*
X1447800Y1249500D02*
X1452800Y1253250D01*
X1442800D02*
X1447800Y1249500D01*
Y1260750D01*
X1342980Y1249750D02*
Y1261000D01*
X1337980Y1253500D02*
X1342980Y1249750D01*
X1347980Y1253500D01*
X1300480Y1249500D02*
X1305480Y1253250D01*
X1295480D02*
X1300480Y1249500D01*
Y1260750D01*
X478110Y1249750D02*
Y1261000D01*
X473110Y1253500D02*
X478110Y1249750D01*
X483110Y1253500D01*
X435610Y1249500D02*
X440610Y1253250D01*
X430610D02*
X435610Y1249500D01*
Y1260750D01*
X1195660Y1249750D02*
Y1261000D01*
X1190660Y1253500D02*
X1195660Y1249750D01*
X1200660Y1253500D01*
X1153160Y1249500D02*
X1158160Y1253250D01*
X1148160D02*
X1153160Y1249500D01*
Y1260750D01*
X1049610Y1249750D02*
Y1261000D01*
X1044610Y1253500D02*
X1049610Y1249750D01*
X1054610Y1253500D01*
X1007110Y1249500D02*
X1012110Y1253250D01*
X1002110D02*
X1007110Y1249500D01*
Y1260750D01*
X836300Y1040110D02*
X845800Y1030610D01*
X779800Y1040110D02*
X836300D01*
X845800Y1018110D02*
Y1030610D01*
X779800Y1018110D02*
Y1040110D01*
Y974110D02*
Y996860D01*
Y974110D02*
X836050D01*
X845800Y983860D01*
Y996860D01*
X843800Y1042360D02*
X853300D01*
X848550Y1037860D02*
Y1046860D01*
X502290Y1108690D02*
X511790Y1099190D01*
X445790Y1108690D02*
X502290D01*
X511790Y1086690D02*
Y1099190D01*
X445790Y1086690D02*
Y1108690D01*
Y1042690D02*
Y1065440D01*
Y1042690D02*
X502040D01*
X511790Y1052440D01*
Y1065440D01*
X509790Y1110940D02*
X519290D01*
X514540Y1106440D02*
Y1115440D01*
X1139830Y1038840D02*
X1149330Y1029340D01*
X1083330Y1038840D02*
X1139830D01*
X1149330Y1016840D02*
Y1029340D01*
X1083330Y1016840D02*
Y1038840D01*
Y972840D02*
Y995590D01*
Y972840D02*
X1139580D01*
X1149330Y982590D01*
Y995590D01*
X1147330Y1041090D02*
X1156830D01*
X1152080Y1036590D02*
Y1045590D01*
X995050Y1040110D02*
X1004550Y1030610D01*
X938550Y1040110D02*
X995050D01*
X1004550Y1018110D02*
Y1030610D01*
X938550Y1018110D02*
Y1040110D01*
Y974110D02*
Y996860D01*
Y974110D02*
X994800D01*
X1004550Y983860D01*
Y996860D01*
X1002550Y1042360D02*
X1012050D01*
X1007300Y1037860D02*
Y1046860D01*
X1727840Y1038840D02*
X1737340Y1029340D01*
X1671340Y1038840D02*
X1727840D01*
X1737340Y1016840D02*
Y1029340D01*
X1671340Y1016840D02*
Y1038840D01*
Y972840D02*
Y995590D01*
Y972840D02*
X1727590D01*
X1737340Y982590D01*
Y995590D01*
X1735340Y1041090D02*
X1744840D01*
X1740090Y1036590D02*
Y1045590D01*
X1581790Y1038840D02*
X1591290Y1029340D01*
X1525290Y1038840D02*
X1581790D01*
X1591290Y1016840D02*
Y1029340D01*
X1525290Y1016840D02*
Y1038840D01*
Y972840D02*
Y995590D01*
Y972840D02*
X1581540D01*
X1591290Y982590D01*
Y995590D01*
X1589290Y1041090D02*
X1598790D01*
X1594040Y1036590D02*
Y1045590D01*
X1434470Y1038840D02*
X1443970Y1029340D01*
X1377970Y1038840D02*
X1434470D01*
X1443970Y1016840D02*
Y1029340D01*
X1377970Y1016840D02*
Y1038840D01*
Y972840D02*
Y995590D01*
Y972840D02*
X1434220D01*
X1443970Y982590D01*
Y995590D01*
X1441970Y1041090D02*
X1451470D01*
X1446720Y1036590D02*
Y1045590D01*
X1285880Y1038840D02*
X1295380Y1029340D01*
X1229380Y1038840D02*
X1285880D01*
X1295380Y1016840D02*
Y1029340D01*
X1229380Y1016840D02*
Y1038840D01*
Y972840D02*
Y995590D01*
Y972840D02*
X1285630D01*
X1295380Y982590D01*
Y995590D01*
X1293380Y1041090D02*
X1302880D01*
X1298130Y1036590D02*
Y1045590D01*
X445790Y719460D02*
X455290Y728960D01*
X445790Y662960D02*
Y719460D01*
X455290Y728960D02*
X467790D01*
X445790Y662960D02*
X467790D01*
X489040D02*
X511790D01*
Y719210D01*
X502040Y728960D02*
X511790Y719210D01*
X489040Y728960D02*
X502040D01*
X443540Y726960D02*
Y736460D01*
X439040Y731710D02*
X448040D01*
X286390Y868660D02*
X295890Y859160D01*
X229890Y868660D02*
X286390D01*
X295890Y846660D02*
Y859160D01*
X229890Y846660D02*
Y868660D01*
Y802660D02*
Y825410D01*
Y802660D02*
X286140D01*
X295890Y812410D01*
Y825410D01*
X293890Y870910D02*
X303390D01*
X298640Y866410D02*
Y875410D01*
X779550Y825270D02*
X909550D01*
X779550D02*
Y955270D01*
X909550D01*
Y825270D02*
Y955270D01*
X665710Y995450D02*
Y1125450D01*
X535710Y995450D02*
X665710D01*
X535710D02*
Y1125450D01*
X665710D01*
X1084350Y825270D02*
X1214350D01*
X1084350D02*
Y955270D01*
X1214350D01*
Y825270D02*
Y955270D01*
X938300Y825270D02*
X1068300D01*
X938300D02*
Y955270D01*
X1068300D01*
Y825270D02*
Y955270D01*
X1669820Y825270D02*
X1799820D01*
X1669820D02*
Y955270D01*
X1799820D01*
Y825270D02*
Y955270D01*
X1523770Y825270D02*
X1653770D01*
X1523770D02*
Y955270D01*
X1653770D01*
Y825270D02*
Y955270D01*
X1377720Y825270D02*
X1507720D01*
X1377720D02*
Y955270D01*
X1507720D01*
Y825270D02*
Y955270D01*
X1230400Y825270D02*
X1360400D01*
X1230400D02*
Y955270D01*
X1360400D01*
Y825270D02*
Y955270D01*
X432030Y604290D02*
Y734290D01*
X302030Y604290D02*
X432030D01*
X302030D02*
Y734290D01*
X432030D01*
X864870Y633290D02*
Y705290D01*
X839470Y633290D02*
Y705290D01*
Y633290D02*
X844420D01*
X839470Y705290D02*
X844420D01*
X859920D02*
X864870D01*
X859920Y633290D02*
X864870D01*
X618490Y816170D02*
Y888170D01*
X593090Y816170D02*
Y888170D01*
Y816170D02*
X598040D01*
X593090Y888170D02*
X598040D01*
X613540D02*
X618490D01*
X613540Y816170D02*
X618490D01*
X1173480Y629480D02*
Y701480D01*
X1148080Y629480D02*
Y701480D01*
Y629480D02*
X1153030D01*
X1148080Y701480D02*
X1153030D01*
X1168530D02*
X1173480D01*
X1168530Y629480D02*
X1173480D01*
X1026160D02*
Y701480D01*
X1000760Y629480D02*
Y701480D01*
Y629480D02*
X1005710D01*
X1000760Y701480D02*
X1005710D01*
X1021210D02*
X1026160D01*
X1021210Y629480D02*
X1026160D01*
X1761490D02*
Y701480D01*
X1736090Y629480D02*
Y701480D01*
Y629480D02*
X1741040D01*
X1736090Y701480D02*
X1741040D01*
X1756540D02*
X1761490D01*
X1756540Y629480D02*
X1761490D01*
X1615440D02*
Y701480D01*
X1590040Y629480D02*
Y701480D01*
Y629480D02*
X1594990D01*
X1590040Y701480D02*
X1594990D01*
X1610490D02*
X1615440D01*
X1610490Y629480D02*
X1615440D01*
X1469390D02*
Y701480D01*
X1443990Y629480D02*
Y701480D01*
Y629480D02*
X1448940D01*
X1443990Y701480D02*
X1448940D01*
X1464440D02*
X1469390D01*
X1464440Y629480D02*
X1469390D01*
X1318260D02*
Y701480D01*
X1292860Y629480D02*
Y701480D01*
Y629480D02*
X1297810D01*
X1292860Y701480D02*
X1297810D01*
X1313310D02*
X1318260D01*
X1313310Y629480D02*
X1318260D01*
X360240Y768350D02*
X432240D01*
X360240Y742950D02*
X432240D01*
Y747900D01*
X360240Y742950D02*
Y747900D01*
Y763400D02*
Y768350D01*
X432240Y763400D02*
Y768350D01*
X755650Y1101830D02*
Y1130830D01*
X758590Y1099330D02*
Y1116330D01*
X681590Y1099330D02*
X758590D01*
X681590D02*
Y1133330D01*
X758590D01*
Y1116330D02*
Y1133330D01*
X403860Y1105640D02*
Y1134640D01*
X406800Y1103140D02*
Y1120140D01*
X329800Y1103140D02*
X406800D01*
X329800D02*
Y1137140D01*
X406800D01*
Y1120140D02*
Y1137140D01*
X793220Y1230630D02*
X822220D01*
X807720Y1233570D02*
X824720D01*
Y1156570D02*
Y1233570D01*
X790720Y1156570D02*
X824720D01*
X790720D02*
Y1233570D01*
X807720D01*
X389360Y1089660D02*
X418360D01*
X403860Y1092600D02*
X420860D01*
Y1015600D02*
Y1092600D01*
X386860Y1015600D02*
X420860D01*
X386860D02*
Y1092600D01*
X403860D01*
X1086590Y1231900D02*
X1115590D01*
X1101090Y1234840D02*
X1118090D01*
Y1157840D02*
Y1234840D01*
X1084090Y1157840D02*
X1118090D01*
X1084090D02*
Y1234840D01*
X1101090D01*
X940540Y1231900D02*
X969540D01*
X955040Y1234840D02*
X972040D01*
Y1157840D02*
Y1234840D01*
X938040Y1157840D02*
X972040D01*
X938040D02*
Y1234840D01*
X955040D01*
X1232640Y1231900D02*
X1261640D01*
X1247140Y1234840D02*
X1264140D01*
Y1157840D02*
Y1234840D01*
X1230140Y1157840D02*
X1264140D01*
X1230140D02*
Y1234840D01*
X1247140D01*
X214100Y1153160D02*
X243100D01*
X228600Y1156100D02*
X245600D01*
Y1079100D02*
Y1156100D01*
X211600Y1079100D02*
X245600D01*
X211600D02*
Y1156100D01*
X228600D01*
X260350Y753850D02*
Y782850D01*
X257410Y768350D02*
Y785350D01*
X334410D01*
Y751350D02*
Y785350D01*
X257410Y751350D02*
X334410D01*
X257410D02*
Y768350D01*
X807720Y1053460D02*
X832720D01*
Y1138560D01*
X782720D02*
X832720D01*
X782720Y1053460D02*
Y1138560D01*
Y1053460D02*
X807720D01*
X415290Y920110D02*
X440290D01*
Y1005210D01*
X390290D02*
X440290D01*
X390290Y920110D02*
Y1005210D01*
Y920110D02*
X415290D01*
X1108710Y1053460D02*
X1133710D01*
Y1138560D01*
X1083710D02*
X1133710D01*
X1083710Y1053460D02*
Y1138560D01*
Y1053460D02*
X1108710D01*
X963930D02*
X988930D01*
Y1138560D01*
X938930D02*
X988930D01*
X938930Y1053460D02*
Y1138560D01*
Y1053460D02*
X963930D01*
X1549400D02*
X1574400D01*
Y1138560D01*
X1524400D02*
X1574400D01*
X1524400Y1053460D02*
Y1138560D01*
Y1053460D02*
X1549400D01*
X1402080D02*
X1427080D01*
Y1138560D01*
X1377080D02*
X1427080D01*
X1377080Y1053460D02*
Y1138560D01*
Y1053460D02*
X1402080D01*
X1254760D02*
X1279760D01*
Y1138560D01*
X1229760D02*
X1279760D01*
X1229760Y1053460D02*
Y1138560D01*
Y1053460D02*
X1254760D01*
X278130Y1021710D02*
X303130D01*
Y1106810D01*
X253130D02*
X303130D01*
X253130Y1021710D02*
Y1106810D01*
Y1021710D02*
X278130D01*
X323140Y826360D02*
Y836635D01*
Y839885D02*
Y850160D01*
X368640D01*
Y826360D02*
Y850160D01*
X323140Y826360D02*
X368640D01*
X766520Y648060D02*
Y718460D01*
X740520D02*
X766520D01*
X714770Y648060D02*
X748270D01*
X696520D02*
Y718460D01*
X722770D01*
X595630Y1263650D02*
X655630D01*
Y1133650D02*
Y1263650D01*
X535630D02*
X595630D01*
X535630Y1133650D02*
Y1263650D01*
Y1133650D02*
X595630D01*
X655630D01*
D49*
X798830Y748060D02*
Y777360D01*
X562610Y934750D02*
Y964050D01*
X1115060Y745520D02*
Y774820D01*
X969010Y745520D02*
Y774820D01*
X1700530Y745520D02*
Y774820D01*
X1554480Y745520D02*
Y774820D01*
X1408430Y745520D02*
Y774820D01*
X1259840Y745520D02*
Y774820D01*
D50*
X264470Y1238750D02*
X275590D01*
X340360D02*
X351520D01*
X264470Y1166750D02*
X351520D01*
X325120Y1143750D02*
Y1157750D01*
X325020Y1143750D02*
X325120D01*
X290830D02*
Y1157750D01*
Y1143750D02*
X291020D01*
X290830D02*
X291020D01*
X325020D01*
X260020Y1263250D02*
X356020D01*
X260020Y1157750D02*
X356020D01*
Y1263250D01*
X260020Y1157750D02*
Y1263250D01*
X264470Y1166750D02*
Y1238750D01*
X351520Y1166750D02*
Y1238750D01*
X688650D02*
X699770D01*
X764540D02*
X775700D01*
X688650Y1166750D02*
X775700D01*
X749300Y1143750D02*
Y1157750D01*
X749200Y1143750D02*
X749300D01*
X715010D02*
Y1157750D01*
Y1143750D02*
X715200D01*
X715010D02*
X715200D01*
X749200D01*
X684200Y1263250D02*
X780200D01*
X684200Y1157750D02*
X780200D01*
Y1263250D01*
X684200Y1157750D02*
Y1263250D01*
X688650Y1166750D02*
Y1238750D01*
X775700Y1166750D02*
Y1238750D01*
X837240D02*
X848360D01*
X913130D02*
X924290D01*
X837240Y1166750D02*
X924290D01*
X897890Y1143750D02*
Y1157750D01*
X897790Y1143750D02*
X897890D01*
X863600D02*
Y1157750D01*
Y1143750D02*
X863790D01*
X863600D02*
X863790D01*
X897790D01*
X832790Y1263250D02*
X928790D01*
X832790Y1157750D02*
X928790D01*
Y1263250D01*
X832790Y1157750D02*
Y1263250D01*
X837240Y1166750D02*
Y1238750D01*
X924290Y1166750D02*
Y1238750D01*
X1716080D02*
X1727200D01*
X1791970D02*
X1803130D01*
X1716080Y1166750D02*
X1803130D01*
X1776730Y1143750D02*
Y1157750D01*
X1776630Y1143750D02*
X1776730D01*
X1742440D02*
Y1157750D01*
Y1143750D02*
X1742630D01*
X1742440D02*
X1742630D01*
X1776630D01*
X1711630Y1263250D02*
X1807630D01*
X1711630Y1157750D02*
X1807630D01*
Y1263250D01*
X1711630Y1157750D02*
Y1263250D01*
X1716080Y1166750D02*
Y1238750D01*
X1803130Y1166750D02*
Y1238750D01*
X1572570D02*
X1583690D01*
X1648460D02*
X1659620D01*
X1572570Y1166750D02*
X1659620D01*
X1633220Y1143750D02*
Y1157750D01*
X1633120Y1143750D02*
X1633220D01*
X1598930D02*
Y1157750D01*
Y1143750D02*
X1599120D01*
X1598930D02*
X1599120D01*
X1633120D01*
X1568120Y1263250D02*
X1664120D01*
X1568120Y1157750D02*
X1664120D01*
Y1263250D01*
X1568120Y1157750D02*
Y1263250D01*
X1572570Y1166750D02*
Y1238750D01*
X1659620Y1166750D02*
Y1238750D01*
X1425250D02*
X1436370D01*
X1501140D02*
X1512300D01*
X1425250Y1166750D02*
X1512300D01*
X1485900Y1143750D02*
Y1157750D01*
X1485800Y1143750D02*
X1485900D01*
X1451610D02*
Y1157750D01*
Y1143750D02*
X1451800D01*
X1451610D02*
X1451800D01*
X1485800D01*
X1420800Y1263250D02*
X1516800D01*
X1420800Y1157750D02*
X1516800D01*
Y1263250D01*
X1420800Y1157750D02*
Y1263250D01*
X1425250Y1166750D02*
Y1238750D01*
X1512300Y1166750D02*
Y1238750D01*
X1277930D02*
X1289050D01*
X1353820D02*
X1364980D01*
X1277930Y1166750D02*
X1364980D01*
X1338580Y1143750D02*
Y1157750D01*
X1338480Y1143750D02*
X1338580D01*
X1304290D02*
Y1157750D01*
Y1143750D02*
X1304480D01*
X1304290D02*
X1304480D01*
X1338480D01*
X1273480Y1263250D02*
X1369480D01*
X1273480Y1157750D02*
X1369480D01*
Y1263250D01*
X1273480Y1157750D02*
Y1263250D01*
X1277930Y1166750D02*
Y1238750D01*
X1364980Y1166750D02*
Y1238750D01*
X413060D02*
X424180D01*
X488950D02*
X500110D01*
X413060Y1166750D02*
X500110D01*
X473710Y1143750D02*
Y1157750D01*
X473610Y1143750D02*
X473710D01*
X439420D02*
Y1157750D01*
Y1143750D02*
X439610D01*
X439420D02*
X439610D01*
X473610D01*
X408610Y1263250D02*
X504610D01*
X408610Y1157750D02*
X504610D01*
Y1263250D01*
X408610Y1157750D02*
Y1263250D01*
X413060Y1166750D02*
Y1238750D01*
X500110Y1166750D02*
Y1238750D01*
X1130610D02*
X1141730D01*
X1206500D02*
X1217660D01*
X1130610Y1166750D02*
X1217660D01*
X1191260Y1143750D02*
Y1157750D01*
X1191160Y1143750D02*
X1191260D01*
X1156970D02*
Y1157750D01*
Y1143750D02*
X1157160D01*
X1156970D02*
X1157160D01*
X1191160D01*
X1126160Y1263250D02*
X1222160D01*
X1126160Y1157750D02*
X1222160D01*
Y1263250D01*
X1126160Y1157750D02*
Y1263250D01*
X1130610Y1166750D02*
Y1238750D01*
X1217660Y1166750D02*
Y1238750D01*
X984560D02*
X995680D01*
X1060450D02*
X1071610D01*
X984560Y1166750D02*
X1071610D01*
X1045210Y1143750D02*
Y1157750D01*
X1045110Y1143750D02*
X1045210D01*
X1010920D02*
Y1157750D01*
Y1143750D02*
X1011110D01*
X1010920D02*
X1011110D01*
X1045110D01*
X980110Y1263250D02*
X1076110D01*
X980110Y1157750D02*
X1076110D01*
Y1263250D01*
X980110Y1157750D02*
Y1263250D01*
X984560Y1166750D02*
Y1238750D01*
X1071610Y1166750D02*
Y1238750D01*
X740407Y1042666D02*
X737868Y1045205D01*
X732789D01*
X730250Y1042666D01*
Y1032509D01*
X732789Y1029970D01*
X737868D01*
X740407Y1032509D01*
Y1037588D01*
X735328D01*
X745485Y1029970D02*
Y1045205D01*
X755642Y1029970D01*
Y1045205D01*
X760720D02*
Y1029970D01*
X768338D01*
X770877Y1032509D01*
Y1042666D01*
X768338Y1045205D01*
X760720D01*
X1670050Y759460D02*
Y764538D01*
X1672589D01*
X1673436Y763692D01*
Y761999D01*
X1672589Y761153D01*
X1670050D01*
X1671743D02*
X1673436Y759460D01*
X1678514D02*
X1675128D01*
X1678514Y762846D01*
Y763692D01*
X1677668Y764538D01*
X1675975D01*
X1675128Y763692D01*
X1680207Y764538D02*
X1683592D01*
Y763692D01*
X1680207Y760306D01*
Y759460D01*
X1376680Y1243328D02*
Y1238250D01*
X1379219D01*
X1380066Y1239096D01*
Y1242482D01*
X1379219Y1243328D01*
X1376680D01*
X1385144D02*
X1383451Y1242482D01*
X1381758Y1240789D01*
Y1239096D01*
X1382605Y1238250D01*
X1384297D01*
X1385144Y1239096D01*
Y1239943D01*
X1384297Y1240789D01*
X1381758D01*
X1524000Y1242058D02*
Y1236980D01*
X1526539D01*
X1527386Y1237826D01*
Y1241212D01*
X1526539Y1242058D01*
X1524000D01*
X1529078D02*
X1532464D01*
Y1241212D01*
X1529078Y1237826D01*
Y1236980D01*
X1671320Y1243328D02*
Y1238250D01*
X1673859D01*
X1674706Y1239096D01*
Y1242482D01*
X1673859Y1243328D01*
X1671320D01*
X1676398Y1242482D02*
X1677245Y1243328D01*
X1678938D01*
X1679784Y1242482D01*
Y1241636D01*
X1678938Y1240789D01*
X1679784Y1239943D01*
Y1239096D01*
X1678938Y1238250D01*
X1677245D01*
X1676398Y1239096D01*
Y1239943D01*
X1677245Y1240789D01*
X1676398Y1241636D01*
Y1242482D01*
X1677245Y1240789D02*
X1678938D01*
X1668780Y1141730D02*
Y1146808D01*
X1671319D01*
X1672166Y1145962D01*
Y1144269D01*
X1671319Y1143423D01*
X1668780D01*
X1673858Y1146808D02*
X1677244D01*
X1675551D01*
Y1141730D01*
X1682322Y1145962D02*
X1681476Y1146808D01*
X1679783D01*
X1678937Y1145962D01*
Y1142576D01*
X1679783Y1141730D01*
X1681476D01*
X1682322Y1142576D01*
X1687401Y1146808D02*
X1684015D01*
Y1144269D01*
X1685708Y1145116D01*
X1686554D01*
X1687401Y1144269D01*
Y1142576D01*
X1686554Y1141730D01*
X1684861D01*
X1684015Y1142576D01*
X1770380Y1131568D02*
X1773766D01*
X1772073D01*
Y1126490D01*
X1775458D02*
Y1131568D01*
X1777997D01*
X1778844Y1130722D01*
Y1129029D01*
X1777997Y1128183D01*
X1775458D01*
X1780537Y1126490D02*
X1782229D01*
X1781383D01*
Y1131568D01*
X1780537Y1130722D01*
X1784769Y1126490D02*
X1786461D01*
X1785615D01*
Y1131568D01*
X1784769Y1130722D01*
X1728470Y1131568D02*
X1731856D01*
X1730163D01*
Y1126490D01*
X1733548D02*
Y1131568D01*
X1736087D01*
X1736934Y1130722D01*
Y1129029D01*
X1736087Y1128183D01*
X1733548D01*
X1738627Y1126490D02*
X1740320D01*
X1739473D01*
Y1131568D01*
X1738627Y1130722D01*
X1746244Y1126490D02*
X1742859D01*
X1746244Y1129876D01*
Y1130722D01*
X1745398Y1131568D01*
X1743705D01*
X1742859Y1130722D01*
X1771226Y745912D02*
X1770379Y746758D01*
X1768686D01*
X1767840Y745912D01*
Y742526D01*
X1768686Y741680D01*
X1770379D01*
X1771226Y742526D01*
X1775457Y741680D02*
Y746758D01*
X1772918Y744219D01*
X1776304D01*
X1777997Y745912D02*
X1778843Y746758D01*
X1780536D01*
X1781382Y745912D01*
Y745066D01*
X1780536Y744219D01*
X1779689D01*
X1780536D01*
X1781382Y743373D01*
Y742526D01*
X1780536Y741680D01*
X1778843D01*
X1777997Y742526D01*
X1771650Y665480D02*
Y670558D01*
X1774189D01*
X1775036Y669712D01*
Y668019D01*
X1774189Y667173D01*
X1771650D01*
X1773343D02*
X1775036Y665480D01*
X1780114D02*
X1776728D01*
X1780114Y668866D01*
Y669712D01*
X1779267Y670558D01*
X1777575D01*
X1776728Y669712D01*
X1781807D02*
X1782653Y670558D01*
X1784346D01*
X1785192Y669712D01*
Y668866D01*
X1784346Y668019D01*
X1783499D01*
X1784346D01*
X1785192Y667173D01*
Y666326D01*
X1784346Y665480D01*
X1782653D01*
X1781807Y666326D01*
X1550246Y711622D02*
X1549399Y712468D01*
X1547706D01*
X1546860Y711622D01*
Y708236D01*
X1547706Y707390D01*
X1549399D01*
X1550246Y708236D01*
X1551938Y711622D02*
X1552785Y712468D01*
X1554478D01*
X1555324Y711622D01*
Y710776D01*
X1554478Y709929D01*
X1553631D01*
X1554478D01*
X1555324Y709083D01*
Y708236D01*
X1554478Y707390D01*
X1552785D01*
X1551938Y708236D01*
X1559556Y707390D02*
Y712468D01*
X1557017Y709929D01*
X1560402D01*
X220556Y866562D02*
X219709Y867408D01*
X218016D01*
X217170Y866562D01*
Y863176D01*
X218016Y862330D01*
X219709D01*
X220556Y863176D01*
X222248Y862330D02*
X223941D01*
X223095D01*
Y867408D01*
X222248Y866562D01*
X218016Y888152D02*
X217169Y888998D01*
X215476D01*
X214630Y888152D01*
Y884766D01*
X215476Y883920D01*
X217169D01*
X218016Y884766D01*
X223094Y883920D02*
X219708D01*
X223094Y887306D01*
Y888152D01*
X222248Y888998D01*
X220555D01*
X219708Y888152D01*
X218016Y916092D02*
X217169Y916938D01*
X215476D01*
X214630Y916092D01*
Y912706D01*
X215476Y911860D01*
X217169D01*
X218016Y912706D01*
X219708Y916092D02*
X220555Y916938D01*
X222248D01*
X223094Y916092D01*
Y915246D01*
X222248Y914399D01*
X221401D01*
X222248D01*
X223094Y913553D01*
Y912706D01*
X222248Y911860D01*
X220555D01*
X219708Y912706D01*
X219286Y941492D02*
X218439Y942338D01*
X216746D01*
X215900Y941492D01*
Y938106D01*
X216746Y937260D01*
X218439D01*
X219286Y938106D01*
X223517Y937260D02*
Y942338D01*
X220978Y939799D01*
X224364D01*
X218016Y969432D02*
X217169Y970278D01*
X215476D01*
X214630Y969432D01*
Y966046D01*
X215476Y965200D01*
X217169D01*
X218016Y966046D01*
X223094Y970278D02*
X219708D01*
Y967739D01*
X221401Y968586D01*
X222248D01*
X223094Y967739D01*
Y966046D01*
X222248Y965200D01*
X220555D01*
X219708Y966046D01*
X334856Y935142D02*
X334009Y935988D01*
X332316D01*
X331470Y935142D01*
Y931756D01*
X332316Y930910D01*
X334009D01*
X334856Y931756D01*
X339934Y935988D02*
X338241Y935142D01*
X336548Y933449D01*
Y931756D01*
X337395Y930910D01*
X339087D01*
X339934Y931756D01*
Y932603D01*
X339087Y933449D01*
X336548D01*
X334856Y978322D02*
X334009Y979168D01*
X332316D01*
X331470Y978322D01*
Y974936D01*
X332316Y974090D01*
X334009D01*
X334856Y974936D01*
X336548Y979168D02*
X339934D01*
Y978322D01*
X336548Y974936D01*
Y974090D01*
X455506Y743372D02*
X454659Y744218D01*
X452966D01*
X452120Y743372D01*
Y739986D01*
X452966Y739140D01*
X454659D01*
X455506Y739986D01*
X457198Y743372D02*
X458045Y744218D01*
X459738D01*
X460584Y743372D01*
Y742526D01*
X459738Y741679D01*
X460584Y740833D01*
Y739986D01*
X459738Y739140D01*
X458045D01*
X457198Y739986D01*
Y740833D01*
X458045Y741679D01*
X457198Y742526D01*
Y743372D01*
X458045Y741679D02*
X459738D01*
X473286Y782742D02*
X472439Y783588D01*
X470746D01*
X469900Y782742D01*
Y779356D01*
X470746Y778510D01*
X472439D01*
X473286Y779356D01*
X474978D02*
X475825Y778510D01*
X477518D01*
X478364Y779356D01*
Y782742D01*
X477518Y783588D01*
X475825D01*
X474978Y782742D01*
Y781896D01*
X475825Y781049D01*
X478364D01*
X399626Y790362D02*
X398779Y791208D01*
X397086D01*
X396240Y790362D01*
Y786976D01*
X397086Y786130D01*
X398779D01*
X399626Y786976D01*
X401318Y786130D02*
X403011D01*
X402165D01*
Y791208D01*
X401318Y790362D01*
X405550D02*
X406397Y791208D01*
X408089D01*
X408936Y790362D01*
Y786976D01*
X408089Y786130D01*
X406397D01*
X405550Y786976D01*
Y790362D01*
X403436Y875452D02*
X402589Y876298D01*
X400896D01*
X400050Y875452D01*
Y872066D01*
X400896Y871220D01*
X402589D01*
X403436Y872066D01*
X405128Y871220D02*
X406821D01*
X405975D01*
Y876298D01*
X405128Y875452D01*
X409360Y871220D02*
X411053D01*
X410207D01*
Y876298D01*
X409360Y875452D01*
X440266Y861482D02*
X439419Y862328D01*
X437726D01*
X436880Y861482D01*
Y858096D01*
X437726Y857250D01*
X439419D01*
X440266Y858096D01*
X441958Y857250D02*
X443651D01*
X442805D01*
Y862328D01*
X441958Y861482D01*
X449576Y857250D02*
X446190D01*
X449576Y860636D01*
Y861482D01*
X448730Y862328D01*
X447037D01*
X446190Y861482D01*
X1333076Y813222D02*
X1332229Y814068D01*
X1330536D01*
X1329690Y813222D01*
Y809836D01*
X1330536Y808990D01*
X1332229D01*
X1333076Y809836D01*
X1334768Y808990D02*
X1336461D01*
X1335615D01*
Y814068D01*
X1334768Y813222D01*
X1339000D02*
X1339847Y814068D01*
X1341539D01*
X1342386Y813222D01*
Y812376D01*
X1341539Y811529D01*
X1340693D01*
X1341539D01*
X1342386Y810683D01*
Y809836D01*
X1341539Y808990D01*
X1339847D01*
X1339000Y809836D01*
X1232746Y1045632D02*
X1231899Y1046478D01*
X1230206D01*
X1229360Y1045632D01*
Y1042246D01*
X1230206Y1041400D01*
X1231899D01*
X1232746Y1042246D01*
X1234438Y1041400D02*
X1236131D01*
X1235285D01*
Y1046478D01*
X1234438Y1045632D01*
X1242056Y1046478D02*
X1238670D01*
Y1043939D01*
X1240363Y1044786D01*
X1241209D01*
X1242056Y1043939D01*
Y1042246D01*
X1241209Y1041400D01*
X1239517D01*
X1238670Y1042246D01*
X1316566Y1051982D02*
X1315719Y1052828D01*
X1314026D01*
X1313180Y1051982D01*
Y1048596D01*
X1314026Y1047750D01*
X1315719D01*
X1316566Y1048596D01*
X1318258Y1047750D02*
X1319951D01*
X1319105D01*
Y1052828D01*
X1318258Y1051982D01*
X1325876Y1052828D02*
X1324183Y1051982D01*
X1322490Y1050289D01*
Y1048596D01*
X1323337Y1047750D01*
X1325029D01*
X1325876Y1048596D01*
Y1049443D01*
X1325029Y1050289D01*
X1322490D01*
X1316566Y992292D02*
X1315719Y993138D01*
X1314026D01*
X1313180Y992292D01*
Y988906D01*
X1314026Y988060D01*
X1315719D01*
X1316566Y988906D01*
X1318258Y988060D02*
X1319951D01*
X1319105D01*
Y993138D01*
X1318258Y992292D01*
X1322490Y993138D02*
X1325876D01*
Y992292D01*
X1322490Y988906D01*
Y988060D01*
X1232746Y709082D02*
X1231899Y709928D01*
X1230206D01*
X1229360Y709082D01*
Y705696D01*
X1230206Y704850D01*
X1231899D01*
X1232746Y705696D01*
X1234438Y704850D02*
X1236131D01*
X1235285D01*
Y709928D01*
X1234438Y709082D01*
X1238670D02*
X1239517Y709928D01*
X1241209D01*
X1242056Y709082D01*
Y708236D01*
X1241209Y707389D01*
X1242056Y706543D01*
Y705696D01*
X1241209Y704850D01*
X1239517D01*
X1238670Y705696D01*
Y706543D01*
X1239517Y707389D01*
X1238670Y708236D01*
Y709082D01*
X1239517Y707389D02*
X1241209D01*
X1330536Y747182D02*
X1329689Y748028D01*
X1327996D01*
X1327150Y747182D01*
Y743796D01*
X1327996Y742950D01*
X1329689D01*
X1330536Y743796D01*
X1332228Y742950D02*
X1333921D01*
X1333075D01*
Y748028D01*
X1332228Y747182D01*
X1336460Y743796D02*
X1337307Y742950D01*
X1338999D01*
X1339846Y743796D01*
Y747182D01*
X1338999Y748028D01*
X1337307D01*
X1336460Y747182D01*
Y746336D01*
X1337307Y745489D01*
X1339846D01*
X1265766Y637962D02*
X1264919Y638808D01*
X1263226D01*
X1262380Y637962D01*
Y634576D01*
X1263226Y633730D01*
X1264919D01*
X1265766Y634576D01*
X1270844Y633730D02*
X1267458D01*
X1270844Y637116D01*
Y637962D01*
X1269997Y638808D01*
X1268305D01*
X1267458Y637962D01*
X1272537D02*
X1273383Y638808D01*
X1275076D01*
X1275922Y637962D01*
Y634576D01*
X1275076Y633730D01*
X1273383D01*
X1272537Y634576D01*
Y637962D01*
X1479126Y811952D02*
X1478279Y812798D01*
X1476586D01*
X1475740Y811952D01*
Y808566D01*
X1476586Y807720D01*
X1478279D01*
X1479126Y808566D01*
X1484204Y807720D02*
X1480818D01*
X1484204Y811106D01*
Y811952D01*
X1483358Y812798D01*
X1481665D01*
X1480818Y811952D01*
X1485897Y807720D02*
X1487590D01*
X1486743D01*
Y812798D01*
X1485897Y811952D01*
X1381336Y1045632D02*
X1380489Y1046478D01*
X1378796D01*
X1377950Y1045632D01*
Y1042246D01*
X1378796Y1041400D01*
X1380489D01*
X1381336Y1042246D01*
X1386414Y1041400D02*
X1383028D01*
X1386414Y1044786D01*
Y1045632D01*
X1385567Y1046478D01*
X1383875D01*
X1383028Y1045632D01*
X1388107D02*
X1388953Y1046478D01*
X1390646D01*
X1391492Y1045632D01*
Y1044786D01*
X1390646Y1043939D01*
X1389799D01*
X1390646D01*
X1391492Y1043093D01*
Y1042246D01*
X1390646Y1041400D01*
X1388953D01*
X1388107Y1042246D01*
X1462616Y993562D02*
X1461769Y994408D01*
X1460076D01*
X1459230Y993562D01*
Y990176D01*
X1460076Y989330D01*
X1461769D01*
X1462616Y990176D01*
X1467694Y989330D02*
X1464308D01*
X1467694Y992716D01*
Y993562D01*
X1466848Y994408D01*
X1465155D01*
X1464308Y993562D01*
X1471926Y989330D02*
Y994408D01*
X1469387Y991869D01*
X1472772D01*
X1461346Y1051982D02*
X1460499Y1052828D01*
X1458806D01*
X1457960Y1051982D01*
Y1048596D01*
X1458806Y1047750D01*
X1460499D01*
X1461346Y1048596D01*
X1466424Y1047750D02*
X1463038D01*
X1466424Y1051136D01*
Y1051982D01*
X1465578Y1052828D01*
X1463885D01*
X1463038Y1051982D01*
X1471502Y1052828D02*
X1468117D01*
Y1050289D01*
X1469810Y1051136D01*
X1470656D01*
X1471502Y1050289D01*
Y1048596D01*
X1470656Y1047750D01*
X1468963D01*
X1468117Y1048596D01*
X1382606Y709082D02*
X1381759Y709928D01*
X1380066D01*
X1379220Y709082D01*
Y705696D01*
X1380066Y704850D01*
X1381759D01*
X1382606Y705696D01*
X1387684Y704850D02*
X1384298D01*
X1387684Y708236D01*
Y709082D01*
X1386837Y709928D01*
X1385145D01*
X1384298Y709082D01*
X1392762Y709928D02*
X1391069Y709082D01*
X1389377Y707389D01*
Y705696D01*
X1390223Y704850D01*
X1391916D01*
X1392762Y705696D01*
Y706543D01*
X1391916Y707389D01*
X1389377D01*
X1480396Y745912D02*
X1479549Y746758D01*
X1477856D01*
X1477010Y745912D01*
Y742526D01*
X1477856Y741680D01*
X1479549D01*
X1480396Y742526D01*
X1485474Y741680D02*
X1482088D01*
X1485474Y745066D01*
Y745912D01*
X1484628Y746758D01*
X1482935D01*
X1482088Y745912D01*
X1487167Y746758D02*
X1490552D01*
Y745912D01*
X1487167Y742526D01*
Y741680D01*
X1411816Y637962D02*
X1410969Y638808D01*
X1409276D01*
X1408430Y637962D01*
Y634576D01*
X1409276Y633730D01*
X1410969D01*
X1411816Y634576D01*
X1416894Y633730D02*
X1413508D01*
X1416894Y637116D01*
Y637962D01*
X1416048Y638808D01*
X1414355D01*
X1413508Y637962D01*
X1418587D02*
X1419433Y638808D01*
X1421126D01*
X1421972Y637962D01*
Y637116D01*
X1421126Y636269D01*
X1421972Y635423D01*
Y634576D01*
X1421126Y633730D01*
X1419433D01*
X1418587Y634576D01*
Y635423D01*
X1419433Y636269D01*
X1418587Y637116D01*
Y637962D01*
X1419433Y636269D02*
X1421126D01*
X1625176Y813222D02*
X1624329Y814068D01*
X1622636D01*
X1621790Y813222D01*
Y809836D01*
X1622636Y808990D01*
X1624329D01*
X1625176Y809836D01*
X1630254Y808990D02*
X1626868D01*
X1630254Y812376D01*
Y813222D01*
X1629408Y814068D01*
X1627715D01*
X1626868Y813222D01*
X1631947Y809836D02*
X1632793Y808990D01*
X1634486D01*
X1635332Y809836D01*
Y813222D01*
X1634486Y814068D01*
X1632793D01*
X1631947Y813222D01*
Y812376D01*
X1632793Y811529D01*
X1635332D01*
X1528656Y1045632D02*
X1527809Y1046478D01*
X1526116D01*
X1525270Y1045632D01*
Y1042246D01*
X1526116Y1041400D01*
X1527809D01*
X1528656Y1042246D01*
X1530348Y1045632D02*
X1531195Y1046478D01*
X1532888D01*
X1533734Y1045632D01*
Y1044786D01*
X1532888Y1043939D01*
X1532041D01*
X1532888D01*
X1533734Y1043093D01*
Y1042246D01*
X1532888Y1041400D01*
X1531195D01*
X1530348Y1042246D01*
X1535427Y1041400D02*
X1537119D01*
X1536273D01*
Y1046478D01*
X1535427Y1045632D01*
X1608666Y1051982D02*
X1607819Y1052828D01*
X1606126D01*
X1605280Y1051982D01*
Y1048596D01*
X1606126Y1047750D01*
X1607819D01*
X1608666Y1048596D01*
X1610358Y1051982D02*
X1611205Y1052828D01*
X1612897D01*
X1613744Y1051982D01*
Y1051136D01*
X1612897Y1050289D01*
X1612051D01*
X1612897D01*
X1613744Y1049443D01*
Y1048596D01*
X1612897Y1047750D01*
X1611205D01*
X1610358Y1048596D01*
X1618822Y1047750D02*
X1615437D01*
X1618822Y1051136D01*
Y1051982D01*
X1617976Y1052828D01*
X1616283D01*
X1615437Y1051982D01*
X1608666Y992292D02*
X1607819Y993138D01*
X1606126D01*
X1605280Y992292D01*
Y988906D01*
X1606126Y988060D01*
X1607819D01*
X1608666Y988906D01*
X1610358Y992292D02*
X1611205Y993138D01*
X1612897D01*
X1613744Y992292D01*
Y991446D01*
X1612897Y990599D01*
X1612051D01*
X1612897D01*
X1613744Y989753D01*
Y988906D01*
X1612897Y988060D01*
X1611205D01*
X1610358Y988906D01*
X1615437Y992292D02*
X1616283Y993138D01*
X1617976D01*
X1618822Y992292D01*
Y991446D01*
X1617976Y990599D01*
X1617130D01*
X1617976D01*
X1618822Y989753D01*
Y988906D01*
X1617976Y988060D01*
X1616283D01*
X1615437Y988906D01*
X1627716Y747182D02*
X1626869Y748028D01*
X1625176D01*
X1624330Y747182D01*
Y743796D01*
X1625176Y742950D01*
X1626869D01*
X1627716Y743796D01*
X1629408Y747182D02*
X1630255Y748028D01*
X1631947D01*
X1632794Y747182D01*
Y746336D01*
X1631947Y745489D01*
X1631101D01*
X1631947D01*
X1632794Y744643D01*
Y743796D01*
X1631947Y742950D01*
X1630255D01*
X1629408Y743796D01*
X1637872Y748028D02*
X1634487D01*
Y745489D01*
X1636180Y746336D01*
X1637026D01*
X1637872Y745489D01*
Y743796D01*
X1637026Y742950D01*
X1635333D01*
X1634487Y743796D01*
X1560406Y639232D02*
X1559559Y640078D01*
X1557866D01*
X1557020Y639232D01*
Y635846D01*
X1557866Y635000D01*
X1559559D01*
X1560406Y635846D01*
X1562098Y639232D02*
X1562945Y640078D01*
X1564637D01*
X1565484Y639232D01*
Y638386D01*
X1564637Y637539D01*
X1563791D01*
X1564637D01*
X1565484Y636693D01*
Y635846D01*
X1564637Y635000D01*
X1562945D01*
X1562098Y635846D01*
X1570562Y640078D02*
X1568869Y639232D01*
X1567177Y637539D01*
Y635846D01*
X1568023Y635000D01*
X1569716D01*
X1570562Y635846D01*
Y636693D01*
X1569716Y637539D01*
X1567177D01*
X1771226Y813222D02*
X1770379Y814068D01*
X1768686D01*
X1767840Y813222D01*
Y809836D01*
X1768686Y808990D01*
X1770379D01*
X1771226Y809836D01*
X1772918Y813222D02*
X1773765Y814068D01*
X1775457D01*
X1776304Y813222D01*
Y812376D01*
X1775457Y811529D01*
X1774611D01*
X1775457D01*
X1776304Y810683D01*
Y809836D01*
X1775457Y808990D01*
X1773765D01*
X1772918Y809836D01*
X1777997Y814068D02*
X1781382D01*
Y813222D01*
X1777997Y809836D01*
Y808990D01*
X1674706Y1045632D02*
X1673859Y1046478D01*
X1672166D01*
X1671320Y1045632D01*
Y1042246D01*
X1672166Y1041400D01*
X1673859D01*
X1674706Y1042246D01*
X1676398Y1045632D02*
X1677245Y1046478D01*
X1678938D01*
X1679784Y1045632D01*
Y1044786D01*
X1678938Y1043939D01*
X1678091D01*
X1678938D01*
X1679784Y1043093D01*
Y1042246D01*
X1678938Y1041400D01*
X1677245D01*
X1676398Y1042246D01*
X1681477D02*
X1682323Y1041400D01*
X1684016D01*
X1684862Y1042246D01*
Y1045632D01*
X1684016Y1046478D01*
X1682323D01*
X1681477Y1045632D01*
Y1044786D01*
X1682323Y1043939D01*
X1684862D01*
X1754716Y992292D02*
X1753869Y993138D01*
X1752176D01*
X1751330Y992292D01*
Y988906D01*
X1752176Y988060D01*
X1753869D01*
X1754716Y988906D01*
X1758947Y988060D02*
Y993138D01*
X1756408Y990599D01*
X1759794D01*
X1761487Y992292D02*
X1762333Y993138D01*
X1764026D01*
X1764872Y992292D01*
Y988906D01*
X1764026Y988060D01*
X1762333D01*
X1761487Y988906D01*
Y992292D01*
X1754716Y1051982D02*
X1753869Y1052828D01*
X1752176D01*
X1751330Y1051982D01*
Y1048596D01*
X1752176Y1047750D01*
X1753869D01*
X1754716Y1048596D01*
X1758947Y1047750D02*
Y1052828D01*
X1756408Y1050289D01*
X1759794D01*
X1761487Y1047750D02*
X1763179D01*
X1762333D01*
Y1052828D01*
X1761487Y1051982D01*
X1696296Y709082D02*
X1695449Y709928D01*
X1693756D01*
X1692910Y709082D01*
Y705696D01*
X1693756Y704850D01*
X1695449D01*
X1696296Y705696D01*
X1700527Y704850D02*
Y709928D01*
X1697988Y707389D01*
X1701374D01*
X1706452Y704850D02*
X1703067D01*
X1706452Y708236D01*
Y709082D01*
X1705606Y709928D01*
X1703913D01*
X1703067Y709082D01*
X1706456Y637962D02*
X1705609Y638808D01*
X1703916D01*
X1703070Y637962D01*
Y634576D01*
X1703916Y633730D01*
X1705609D01*
X1706456Y634576D01*
X1710688Y633730D02*
Y638808D01*
X1708148Y636269D01*
X1711534D01*
X1715766Y633730D02*
Y638808D01*
X1713227Y636269D01*
X1716612D01*
X1037166Y813222D02*
X1036319Y814068D01*
X1034626D01*
X1033780Y813222D01*
Y809836D01*
X1034626Y808990D01*
X1036319D01*
X1037166Y809836D01*
X1041397Y808990D02*
Y814068D01*
X1038858Y811529D01*
X1042244D01*
X1047322Y814068D02*
X1043937D01*
Y811529D01*
X1045630Y812376D01*
X1046476D01*
X1047322Y811529D01*
Y809836D01*
X1046476Y808990D01*
X1044783D01*
X1043937Y809836D01*
X941916Y1048172D02*
X941069Y1049018D01*
X939376D01*
X938530Y1048172D01*
Y1044786D01*
X939376Y1043940D01*
X941069D01*
X941916Y1044786D01*
X946148Y1043940D02*
Y1049018D01*
X943608Y1046479D01*
X946994D01*
X948687Y1049018D02*
X952072D01*
Y1048172D01*
X948687Y1044786D01*
Y1043940D01*
X1021926Y1053252D02*
X1021079Y1054098D01*
X1019386D01*
X1018540Y1053252D01*
Y1049866D01*
X1019386Y1049020D01*
X1021079D01*
X1021926Y1049866D01*
X1026158Y1049020D02*
Y1054098D01*
X1023618Y1051559D01*
X1027004D01*
X1028697Y1053252D02*
X1029543Y1054098D01*
X1031236D01*
X1032082Y1053252D01*
Y1052406D01*
X1031236Y1051559D01*
X1032082Y1050713D01*
Y1049866D01*
X1031236Y1049020D01*
X1029543D01*
X1028697Y1049866D01*
Y1050713D01*
X1029543Y1051559D01*
X1028697Y1052406D01*
Y1053252D01*
X1029543Y1051559D02*
X1031236D01*
X1021926Y992292D02*
X1021079Y993138D01*
X1019386D01*
X1018540Y992292D01*
Y988906D01*
X1019386Y988060D01*
X1021079D01*
X1021926Y988906D01*
X1026158Y988060D02*
Y993138D01*
X1023618Y990599D01*
X1027004D01*
X1028697Y988906D02*
X1029543Y988060D01*
X1031236D01*
X1032082Y988906D01*
Y992292D01*
X1031236Y993138D01*
X1029543D01*
X1028697Y992292D01*
Y991446D01*
X1029543Y990599D01*
X1032082D01*
X944456Y706542D02*
X943609Y707388D01*
X941916D01*
X941070Y706542D01*
Y703156D01*
X941916Y702310D01*
X943609D01*
X944456Y703156D01*
X949534Y707388D02*
X946148D01*
Y704849D01*
X947841Y705696D01*
X948688D01*
X949534Y704849D01*
Y703156D01*
X948688Y702310D01*
X946995D01*
X946148Y703156D01*
X951227Y706542D02*
X952073Y707388D01*
X953766D01*
X954612Y706542D01*
Y703156D01*
X953766Y702310D01*
X952073D01*
X951227Y703156D01*
Y706542D01*
X1038436Y747182D02*
X1037589Y748028D01*
X1035896D01*
X1035050Y747182D01*
Y743796D01*
X1035896Y742950D01*
X1037589D01*
X1038436Y743796D01*
X1043514Y748028D02*
X1040128D01*
Y745489D01*
X1041821Y746336D01*
X1042667D01*
X1043514Y745489D01*
Y743796D01*
X1042667Y742950D01*
X1040975D01*
X1040128Y743796D01*
X1045207Y742950D02*
X1046899D01*
X1046053D01*
Y748028D01*
X1045207Y747182D01*
X977476Y636692D02*
X976629Y637538D01*
X974936D01*
X974090Y636692D01*
Y633306D01*
X974936Y632460D01*
X976629D01*
X977476Y633306D01*
X982554Y637538D02*
X979168D01*
Y634999D01*
X980861Y635846D01*
X981708D01*
X982554Y634999D01*
Y633306D01*
X981708Y632460D01*
X980015D01*
X979168Y633306D01*
X987632Y632460D02*
X984247D01*
X987632Y635846D01*
Y636692D01*
X986786Y637538D01*
X985093D01*
X984247Y636692D01*
X1187026Y813222D02*
X1186179Y814068D01*
X1184486D01*
X1183640Y813222D01*
Y809836D01*
X1184486Y808990D01*
X1186179D01*
X1187026Y809836D01*
X1192104Y814068D02*
X1188718D01*
Y811529D01*
X1190411Y812376D01*
X1191257D01*
X1192104Y811529D01*
Y809836D01*
X1191257Y808990D01*
X1189565D01*
X1188718Y809836D01*
X1193797Y813222D02*
X1194643Y814068D01*
X1196336D01*
X1197182Y813222D01*
Y812376D01*
X1196336Y811529D01*
X1195490D01*
X1196336D01*
X1197182Y810683D01*
Y809836D01*
X1196336Y808990D01*
X1194643D01*
X1193797Y809836D01*
X1086696Y1045632D02*
X1085849Y1046478D01*
X1084156D01*
X1083310Y1045632D01*
Y1042246D01*
X1084156Y1041400D01*
X1085849D01*
X1086696Y1042246D01*
X1091774Y1046478D02*
X1088388D01*
Y1043939D01*
X1090081Y1044786D01*
X1090928D01*
X1091774Y1043939D01*
Y1042246D01*
X1090928Y1041400D01*
X1089235D01*
X1088388Y1042246D01*
X1096852Y1046478D02*
X1093467D01*
Y1043939D01*
X1095160Y1044786D01*
X1096006D01*
X1096852Y1043939D01*
Y1042246D01*
X1096006Y1041400D01*
X1094313D01*
X1093467Y1042246D01*
X1170516Y992292D02*
X1169669Y993138D01*
X1167976D01*
X1167130Y992292D01*
Y988906D01*
X1167976Y988060D01*
X1169669D01*
X1170516Y988906D01*
X1175594Y993138D02*
X1172208D01*
Y990599D01*
X1173901Y991446D01*
X1174747D01*
X1175594Y990599D01*
Y988906D01*
X1174747Y988060D01*
X1173055D01*
X1172208Y988906D01*
X1180672Y993138D02*
X1178979Y992292D01*
X1177287Y990599D01*
Y988906D01*
X1178133Y988060D01*
X1179826D01*
X1180672Y988906D01*
Y989753D01*
X1179826Y990599D01*
X1177287D01*
X1170516Y1051982D02*
X1169669Y1052828D01*
X1167976D01*
X1167130Y1051982D01*
Y1048596D01*
X1167976Y1047750D01*
X1169669D01*
X1170516Y1048596D01*
X1175594Y1052828D02*
X1172208D01*
Y1050289D01*
X1173901Y1051136D01*
X1174747D01*
X1175594Y1050289D01*
Y1048596D01*
X1174747Y1047750D01*
X1173055D01*
X1172208Y1048596D01*
X1177287Y1052828D02*
X1180672D01*
Y1051982D01*
X1177287Y1048596D01*
Y1047750D01*
X1090506Y709082D02*
X1089659Y709928D01*
X1087966D01*
X1087120Y709082D01*
Y705696D01*
X1087966Y704850D01*
X1089659D01*
X1090506Y705696D01*
X1095584Y709928D02*
X1092198D01*
Y707389D01*
X1093891Y708236D01*
X1094737D01*
X1095584Y707389D01*
Y705696D01*
X1094737Y704850D01*
X1093045D01*
X1092198Y705696D01*
X1097277Y709082D02*
X1098123Y709928D01*
X1099816D01*
X1100662Y709082D01*
Y708236D01*
X1099816Y707389D01*
X1100662Y706543D01*
Y705696D01*
X1099816Y704850D01*
X1098123D01*
X1097277Y705696D01*
Y706543D01*
X1098123Y707389D01*
X1097277Y708236D01*
Y709082D01*
X1098123Y707389D02*
X1099816D01*
X1184486Y747182D02*
X1183639Y748028D01*
X1181946D01*
X1181100Y747182D01*
Y743796D01*
X1181946Y742950D01*
X1183639D01*
X1184486Y743796D01*
X1189564Y748028D02*
X1186178D01*
Y745489D01*
X1187871Y746336D01*
X1188717D01*
X1189564Y745489D01*
Y743796D01*
X1188717Y742950D01*
X1187025D01*
X1186178Y743796D01*
X1191257D02*
X1192103Y742950D01*
X1193796D01*
X1194642Y743796D01*
Y747182D01*
X1193796Y748028D01*
X1192103D01*
X1191257Y747182D01*
Y746336D01*
X1192103Y745489D01*
X1194642D01*
X1119716Y637962D02*
X1118869Y638808D01*
X1117176D01*
X1116330Y637962D01*
Y634576D01*
X1117176Y633730D01*
X1118869D01*
X1119716Y634576D01*
X1124794Y638808D02*
X1123101Y637962D01*
X1121408Y636269D01*
Y634576D01*
X1122255Y633730D01*
X1123948D01*
X1124794Y634576D01*
Y635423D01*
X1123948Y636269D01*
X1121408D01*
X1126487Y637962D02*
X1127333Y638808D01*
X1129026D01*
X1129872Y637962D01*
Y634576D01*
X1129026Y633730D01*
X1127333D01*
X1126487Y634576D01*
Y637962D01*
X667172Y949114D02*
X668018Y949961D01*
Y951654D01*
X667172Y952500D01*
X663786D01*
X662940Y951654D01*
Y949961D01*
X663786Y949114D01*
X668018Y944036D02*
X667172Y945729D01*
X665479Y947422D01*
X663786D01*
X662940Y946575D01*
Y944883D01*
X663786Y944036D01*
X664633D01*
X665479Y944883D01*
Y947422D01*
X662940Y942343D02*
Y940650D01*
Y941497D01*
X668018D01*
X667172Y942343D01*
X447886Y1116752D02*
X447039Y1117598D01*
X445346D01*
X444500Y1116752D01*
Y1113366D01*
X445346Y1112520D01*
X447039D01*
X447886Y1113366D01*
X452964Y1117598D02*
X451271Y1116752D01*
X449578Y1115059D01*
Y1113366D01*
X450425Y1112520D01*
X452118D01*
X452964Y1113366D01*
Y1114213D01*
X452118Y1115059D01*
X449578D01*
X454657Y1116752D02*
X455503Y1117598D01*
X457196D01*
X458042Y1116752D01*
Y1115906D01*
X457196Y1115059D01*
X456349D01*
X457196D01*
X458042Y1114213D01*
Y1113366D01*
X457196Y1112520D01*
X455503D01*
X454657Y1113366D01*
X442808Y1021926D02*
X441962Y1021079D01*
Y1019386D01*
X442808Y1018540D01*
X446194D01*
X447040Y1019386D01*
Y1021079D01*
X446194Y1021926D01*
X441962Y1027004D02*
X442808Y1025311D01*
X444501Y1023618D01*
X446194D01*
X447040Y1024465D01*
Y1026158D01*
X446194Y1027004D01*
X445347D01*
X444501Y1026158D01*
Y1023618D01*
X447040Y1031236D02*
X441962D01*
X444501Y1028697D01*
Y1032082D01*
X442808Y985096D02*
X441962Y984249D01*
Y982556D01*
X442808Y981710D01*
X446194D01*
X447040Y982556D01*
Y984249D01*
X446194Y985096D01*
X441962Y990174D02*
X442808Y988481D01*
X444501Y986788D01*
X446194D01*
X447040Y987635D01*
Y989327D01*
X446194Y990174D01*
X445347D01*
X444501Y989327D01*
Y986788D01*
X441962Y995252D02*
Y991867D01*
X444501D01*
X443654Y993559D01*
Y994406D01*
X444501Y995252D01*
X446194D01*
X447040Y994406D01*
Y992713D01*
X446194Y991867D01*
X531708Y864446D02*
X530862Y863599D01*
Y861906D01*
X531708Y861060D01*
X535094D01*
X535940Y861906D01*
Y863599D01*
X535094Y864446D01*
X530862Y869524D02*
X531708Y867831D01*
X533401Y866138D01*
X535094D01*
X535940Y866985D01*
Y868678D01*
X535094Y869524D01*
X534247D01*
X533401Y868678D01*
Y866138D01*
X530862Y874602D02*
X531708Y872909D01*
X533401Y871217D01*
X535094D01*
X535940Y872063D01*
Y873756D01*
X535094Y874602D01*
X534247D01*
X533401Y873756D01*
Y871217D01*
X623146Y905932D02*
X622299Y906778D01*
X620606D01*
X619760Y905932D01*
Y902546D01*
X620606Y901700D01*
X622299D01*
X623146Y902546D01*
X628224Y906778D02*
X626531Y905932D01*
X624838Y904239D01*
Y902546D01*
X625685Y901700D01*
X627378D01*
X628224Y902546D01*
Y903393D01*
X627378Y904239D01*
X624838D01*
X629917Y906778D02*
X633302D01*
Y905932D01*
X629917Y902546D01*
Y901700D01*
X567266Y903392D02*
X566419Y904238D01*
X564726D01*
X563880Y903392D01*
Y900006D01*
X564726Y899160D01*
X566419D01*
X567266Y900006D01*
X572344Y904238D02*
X570651Y903392D01*
X568958Y901699D01*
Y900006D01*
X569805Y899160D01*
X571497D01*
X572344Y900006D01*
Y900853D01*
X571497Y901699D01*
X568958D01*
X574037Y903392D02*
X574883Y904238D01*
X576576D01*
X577422Y903392D01*
Y902546D01*
X576576Y901699D01*
X577422Y900853D01*
Y900006D01*
X576576Y899160D01*
X574883D01*
X574037Y900006D01*
Y900853D01*
X574883Y901699D01*
X574037Y902546D01*
Y903392D01*
X574883Y901699D02*
X576576D01*
X869526Y813730D02*
X868679Y814576D01*
X866986D01*
X866140Y813730D01*
Y810344D01*
X866986Y809498D01*
X868679D01*
X869526Y810344D01*
X874604Y814576D02*
X872911Y813730D01*
X871218Y812037D01*
Y810344D01*
X872065Y809498D01*
X873757D01*
X874604Y810344D01*
Y811191D01*
X873757Y812037D01*
X871218D01*
X876297Y810344D02*
X877143Y809498D01*
X878836D01*
X879682Y810344D01*
Y813730D01*
X878836Y814576D01*
X877143D01*
X876297Y813730D01*
Y812884D01*
X877143Y812037D01*
X879682D01*
X783166Y1046902D02*
X782319Y1047748D01*
X780626D01*
X779780Y1046902D01*
Y1043516D01*
X780626Y1042670D01*
X782319D01*
X783166Y1043516D01*
X784858Y1047748D02*
X788244D01*
Y1046902D01*
X784858Y1043516D01*
Y1042670D01*
X789937D02*
X791629D01*
X790783D01*
Y1047748D01*
X789937Y1046902D01*
X864446Y1053252D02*
X863599Y1054098D01*
X861906D01*
X861060Y1053252D01*
Y1049866D01*
X861906Y1049020D01*
X863599D01*
X864446Y1049866D01*
X866138Y1054098D02*
X869524D01*
Y1053252D01*
X866138Y1049866D01*
Y1049020D01*
X874602D02*
X871217D01*
X874602Y1052406D01*
Y1053252D01*
X873756Y1054098D01*
X872063D01*
X871217Y1053252D01*
X854288Y971126D02*
X853442Y970279D01*
Y968586D01*
X854288Y967740D01*
X857674D01*
X858520Y968586D01*
Y970279D01*
X857674Y971126D01*
X853442Y972818D02*
Y976204D01*
X854288D01*
X857674Y972818D01*
X858520D01*
X854288Y977897D02*
X853442Y978743D01*
Y980436D01*
X854288Y981282D01*
X855134D01*
X855981Y980436D01*
Y979589D01*
Y980436D01*
X856827Y981282D01*
X857674D01*
X858520Y980436D01*
Y978743D01*
X857674Y977897D01*
X783168Y704426D02*
X782322Y703579D01*
Y701886D01*
X783168Y701040D01*
X786554D01*
X787400Y701886D01*
Y703579D01*
X786554Y704426D01*
X782322Y706118D02*
Y709504D01*
X783168D01*
X786554Y706118D01*
X787400D01*
Y713736D02*
X782322D01*
X784861Y711197D01*
Y714582D01*
X872066Y749722D02*
X871219Y750568D01*
X869526D01*
X868680Y749722D01*
Y746336D01*
X869526Y745490D01*
X871219D01*
X872066Y746336D01*
X873758Y750568D02*
X877144D01*
Y749722D01*
X873758Y746336D01*
Y745490D01*
X882222Y750568D02*
X878837D01*
Y748029D01*
X880529Y748876D01*
X881376D01*
X882222Y748029D01*
Y746336D01*
X881376Y745490D01*
X879683D01*
X878837Y746336D01*
X825076Y655742D02*
X824229Y656588D01*
X822536D01*
X821690Y655742D01*
Y652356D01*
X822536Y651510D01*
X824229D01*
X825076Y652356D01*
X826768Y656588D02*
X830154D01*
Y655742D01*
X826768Y652356D01*
Y651510D01*
X835232Y656588D02*
X833540Y655742D01*
X831847Y654049D01*
Y652356D01*
X832693Y651510D01*
X834386D01*
X835232Y652356D01*
Y653203D01*
X834386Y654049D01*
X831847D01*
X257556Y797812D02*
Y792734D01*
X260095D01*
X260942Y793580D01*
Y796966D01*
X260095Y797812D01*
X257556D01*
X262634Y792734D02*
X264327D01*
X263481D01*
Y797812D01*
X262634Y796966D01*
X212090Y1164588D02*
Y1159510D01*
X214629D01*
X215476Y1160356D01*
Y1163742D01*
X214629Y1164588D01*
X212090D01*
X220554Y1159510D02*
X217168D01*
X220554Y1162896D01*
Y1163742D01*
X219708Y1164588D01*
X218015D01*
X217168Y1163742D01*
X662940Y767078D02*
Y762000D01*
X665479D01*
X666326Y762846D01*
Y766232D01*
X665479Y767078D01*
X662940D01*
X668018Y766232D02*
X668865Y767078D01*
X670557D01*
X671404Y766232D01*
Y765386D01*
X670557Y764539D01*
X669711D01*
X670557D01*
X671404Y763693D01*
Y762846D01*
X670557Y762000D01*
X668865D01*
X668018Y762846D01*
X544830Y751838D02*
Y746760D01*
X547369D01*
X548216Y747606D01*
Y750992D01*
X547369Y751838D01*
X544830D01*
X552448Y746760D02*
Y751838D01*
X549908Y749299D01*
X553294D01*
X1229360Y1243328D02*
Y1238250D01*
X1231899D01*
X1232746Y1239096D01*
Y1242482D01*
X1231899Y1243328D01*
X1229360D01*
X1237824D02*
X1234438D01*
Y1240789D01*
X1236131Y1241636D01*
X1236977D01*
X1237824Y1240789D01*
Y1239096D01*
X1236977Y1238250D01*
X1235285D01*
X1234438Y1239096D01*
X937260Y1243328D02*
Y1238250D01*
X939799D01*
X940646Y1239096D01*
Y1242482D01*
X939799Y1243328D01*
X937260D01*
X942338Y1239096D02*
X943185Y1238250D01*
X944877D01*
X945724Y1239096D01*
Y1242482D01*
X944877Y1243328D01*
X943185D01*
X942338Y1242482D01*
Y1241636D01*
X943185Y1240789D01*
X945724D01*
X1084580Y1243328D02*
Y1238250D01*
X1087119D01*
X1087966Y1239096D01*
Y1242482D01*
X1087119Y1243328D01*
X1084580D01*
X1089658Y1238250D02*
X1091351D01*
X1090505D01*
Y1243328D01*
X1089658Y1242482D01*
X1093890D02*
X1094737Y1243328D01*
X1096430D01*
X1097276Y1242482D01*
Y1239096D01*
X1096430Y1238250D01*
X1094737D01*
X1093890Y1239096D01*
Y1242482D01*
X410210Y1101088D02*
Y1096010D01*
X412749D01*
X413596Y1096856D01*
Y1100242D01*
X412749Y1101088D01*
X410210D01*
X415288Y1096010D02*
X416981D01*
X416135D01*
Y1101088D01*
X415288Y1100242D01*
X419520Y1096010D02*
X421213D01*
X420367D01*
Y1101088D01*
X419520Y1100242D01*
X789940Y1242058D02*
Y1236980D01*
X792479D01*
X793326Y1237826D01*
Y1241212D01*
X792479Y1242058D01*
X789940D01*
X795018Y1236980D02*
X796711D01*
X795865D01*
Y1242058D01*
X795018Y1241212D01*
X802636Y1236980D02*
X799250D01*
X802636Y1240366D01*
Y1241212D01*
X801789Y1242058D01*
X800097D01*
X799250Y1241212D01*
X1850728Y1212086D02*
X1847342D01*
Y1209547D01*
X1849035D01*
X1847342D01*
Y1207008D01*
X1852420Y1212086D02*
X1854113D01*
X1853267D01*
Y1207008D01*
X1852420D01*
X1854113D01*
X1856652Y1212086D02*
Y1207008D01*
X1859191D01*
X1860038Y1207854D01*
Y1211240D01*
X1859191Y1212086D01*
X1856652D01*
X1861731Y1207008D02*
X1863423D01*
X1862577D01*
Y1212086D01*
X1861731Y1211240D01*
X1841838Y692656D02*
X1838452D01*
Y690117D01*
X1840145D01*
X1838452D01*
Y687578D01*
X1843530Y692656D02*
X1845223D01*
X1844377D01*
Y687578D01*
X1843530D01*
X1845223D01*
X1847762Y692656D02*
Y687578D01*
X1850302D01*
X1851148Y688424D01*
Y691810D01*
X1850302Y692656D01*
X1847762D01*
X1856226Y687578D02*
X1852841D01*
X1856226Y690964D01*
Y691810D01*
X1855380Y692656D01*
X1853687D01*
X1852841Y691810D01*
X171788Y692656D02*
X168402D01*
Y690117D01*
X170095D01*
X168402D01*
Y687578D01*
X173480Y692656D02*
X175173D01*
X174327D01*
Y687578D01*
X173480D01*
X175173D01*
X177712Y692656D02*
Y687578D01*
X180252D01*
X181098Y688424D01*
Y691810D01*
X180252Y692656D01*
X177712D01*
X182791Y691810D02*
X183637Y692656D01*
X185330D01*
X186176Y691810D01*
Y690964D01*
X185330Y690117D01*
X184484D01*
X185330D01*
X186176Y689271D01*
Y688424D01*
X185330Y687578D01*
X183637D01*
X182791Y688424D01*
X427566Y778508D02*
X425873D01*
X426719D01*
Y774276D01*
X425873Y773430D01*
X425026D01*
X424180Y774276D01*
X429258Y773430D02*
X430951D01*
X430105D01*
Y778508D01*
X429258Y777662D01*
X983826Y1155698D02*
X982133D01*
X982979D01*
Y1151466D01*
X982133Y1150620D01*
X981286D01*
X980440Y1151466D01*
X988904Y1150620D02*
X985518D01*
X988904Y1154006D01*
Y1154852D01*
X988057Y1155698D01*
X986365D01*
X985518Y1154852D01*
X1129876Y1154428D02*
X1128183D01*
X1129029D01*
Y1150196D01*
X1128183Y1149350D01*
X1127336D01*
X1126490Y1150196D01*
X1131568Y1153582D02*
X1132415Y1154428D01*
X1134108D01*
X1134954Y1153582D01*
Y1152736D01*
X1134108Y1151889D01*
X1133261D01*
X1134108D01*
X1134954Y1151043D01*
Y1150196D01*
X1134108Y1149350D01*
X1132415D01*
X1131568Y1150196D01*
X411056Y1154428D02*
X409363D01*
X410209D01*
Y1150196D01*
X409363Y1149350D01*
X408516D01*
X407670Y1150196D01*
X415288Y1149350D02*
Y1154428D01*
X412748Y1151889D01*
X416134D01*
X1275926Y1154428D02*
X1274233D01*
X1275079D01*
Y1150196D01*
X1274233Y1149350D01*
X1273386D01*
X1272540Y1150196D01*
X1281004Y1154428D02*
X1277618D01*
Y1151889D01*
X1279311Y1152736D01*
X1280157D01*
X1281004Y1151889D01*
Y1150196D01*
X1280157Y1149350D01*
X1278465D01*
X1277618Y1150196D01*
X1424516Y1155698D02*
X1422823D01*
X1423669D01*
Y1151466D01*
X1422823Y1150620D01*
X1421976D01*
X1421130Y1151466D01*
X1429594Y1155698D02*
X1427901Y1154852D01*
X1426208Y1153159D01*
Y1151466D01*
X1427055Y1150620D01*
X1428748D01*
X1429594Y1151466D01*
Y1152313D01*
X1428748Y1153159D01*
X1426208D01*
X1571836Y1155698D02*
X1570143D01*
X1570989D01*
Y1151466D01*
X1570143Y1150620D01*
X1569296D01*
X1568450Y1151466D01*
X1573528Y1155698D02*
X1576914D01*
Y1154852D01*
X1573528Y1151466D01*
Y1150620D01*
X1716616Y1154428D02*
X1714923D01*
X1715769D01*
Y1150196D01*
X1714923Y1149350D01*
X1714076D01*
X1713230Y1150196D01*
X1718308Y1153582D02*
X1719155Y1154428D01*
X1720847D01*
X1721694Y1153582D01*
Y1152736D01*
X1720847Y1151889D01*
X1721694Y1151043D01*
Y1150196D01*
X1720847Y1149350D01*
X1719155D01*
X1718308Y1150196D01*
Y1151043D01*
X1719155Y1151889D01*
X1718308Y1152736D01*
Y1153582D01*
X1719155Y1151889D02*
X1720847D01*
X527052Y1136226D02*
Y1134533D01*
Y1135379D01*
X531284D01*
X532130Y1134533D01*
Y1133686D01*
X531284Y1132840D01*
Y1137918D02*
X532130Y1138765D01*
Y1140458D01*
X531284Y1141304D01*
X527898D01*
X527052Y1140458D01*
Y1138765D01*
X527898Y1137918D01*
X528744D01*
X529591Y1138765D01*
Y1141304D01*
X836506Y1155698D02*
X834813D01*
X835659D01*
Y1151466D01*
X834813Y1150620D01*
X833966D01*
X833120Y1151466D01*
X838198Y1150620D02*
X839891D01*
X839045D01*
Y1155698D01*
X838198Y1154852D01*
X842430D02*
X843277Y1155698D01*
X844969D01*
X845816Y1154852D01*
Y1151466D01*
X844969Y1150620D01*
X843277D01*
X842430Y1151466D01*
Y1154852D01*
X687916Y1155698D02*
X686223D01*
X687069D01*
Y1151466D01*
X686223Y1150620D01*
X685376D01*
X684530Y1151466D01*
X689608Y1150620D02*
X691301D01*
X690455D01*
Y1155698D01*
X689608Y1154852D01*
X693840Y1150620D02*
X695533D01*
X694687D01*
Y1155698D01*
X693840Y1154852D01*
X263736Y1154428D02*
X262043D01*
X262889D01*
Y1150196D01*
X262043Y1149350D01*
X261196D01*
X260350Y1150196D01*
X265428Y1149350D02*
X267121D01*
X266275D01*
Y1154428D01*
X265428Y1153582D01*
X273046Y1149350D02*
X269660D01*
X273046Y1152736D01*
Y1153582D01*
X272199Y1154428D01*
X270507D01*
X269660Y1153582D01*
X1302596Y715008D02*
X1300903D01*
X1301749D01*
Y710776D01*
X1300903Y709930D01*
X1300056D01*
X1299210Y710776D01*
X1304288Y709930D02*
X1305981D01*
X1305135D01*
Y715008D01*
X1304288Y714162D01*
X1308520D02*
X1309367Y715008D01*
X1311060D01*
X1311906Y714162D01*
Y713316D01*
X1311060Y712469D01*
X1310213D01*
X1311060D01*
X1311906Y711623D01*
Y710776D01*
X1311060Y709930D01*
X1309367D01*
X1308520Y710776D01*
X1453726Y715008D02*
X1452033D01*
X1452879D01*
Y710776D01*
X1452033Y709930D01*
X1451186D01*
X1450340Y710776D01*
X1455418Y709930D02*
X1457111D01*
X1456265D01*
Y715008D01*
X1455418Y714162D01*
X1462189Y709930D02*
Y715008D01*
X1459650Y712469D01*
X1463036D01*
X1593680Y718818D02*
X1591987D01*
X1592833D01*
Y714586D01*
X1591987Y713740D01*
X1591140D01*
X1590294Y714586D01*
X1595372Y713740D02*
X1597065D01*
X1596219D01*
Y718818D01*
X1595372Y717972D01*
X1602990Y718818D02*
X1599604D01*
Y716279D01*
X1601297Y717126D01*
X1602144D01*
X1602990Y716279D01*
Y714586D01*
X1602144Y713740D01*
X1600451D01*
X1599604Y714586D01*
X1739730Y718818D02*
X1738037D01*
X1738883D01*
Y714586D01*
X1738037Y713740D01*
X1737190D01*
X1736344Y714586D01*
X1741422Y713740D02*
X1743115D01*
X1742269D01*
Y718818D01*
X1741422Y717972D01*
X1749040Y718818D02*
X1747347Y717972D01*
X1745654Y716279D01*
Y714586D01*
X1746501Y713740D01*
X1748194D01*
X1749040Y714586D01*
Y715433D01*
X1748194Y716279D01*
X1745654D01*
X1010496Y717548D02*
X1008803D01*
X1009649D01*
Y713316D01*
X1008803Y712470D01*
X1007956D01*
X1007110Y713316D01*
X1012188Y712470D02*
X1013881D01*
X1013035D01*
Y717548D01*
X1012188Y716702D01*
X1016420Y717548D02*
X1019806D01*
Y716702D01*
X1016420Y713316D01*
Y712470D01*
X1156546Y715008D02*
X1154853D01*
X1155699D01*
Y710776D01*
X1154853Y709930D01*
X1154006D01*
X1153160Y710776D01*
X1158238Y709930D02*
X1159931D01*
X1159085D01*
Y715008D01*
X1158238Y714162D01*
X1162470D02*
X1163317Y715008D01*
X1165010D01*
X1165856Y714162D01*
Y713316D01*
X1165010Y712469D01*
X1165856Y711623D01*
Y710776D01*
X1165010Y709930D01*
X1163317D01*
X1162470Y710776D01*
Y711623D01*
X1163317Y712469D01*
X1162470Y713316D01*
Y714162D01*
X1163317Y712469D02*
X1165010D01*
X627378Y885614D02*
Y887307D01*
Y886461D01*
X623146D01*
X622300Y887307D01*
Y888154D01*
X623146Y889000D01*
X622300Y883922D02*
Y882229D01*
Y883075D01*
X627378D01*
X626532Y883922D01*
X623146Y879690D02*
X622300Y878843D01*
Y877150D01*
X623146Y876304D01*
X626532D01*
X627378Y877150D01*
Y878843D01*
X626532Y879690D01*
X625686D01*
X624839Y878843D01*
Y876304D01*
X847936Y720088D02*
X846243D01*
X847089D01*
Y715856D01*
X846243Y715010D01*
X845396D01*
X844550Y715856D01*
X853014Y715010D02*
X849628D01*
X853014Y718396D01*
Y719242D01*
X852168Y720088D01*
X850475D01*
X849628Y719242D01*
X854707D02*
X855553Y720088D01*
X857246D01*
X858092Y719242D01*
Y715856D01*
X857246Y715010D01*
X855553D01*
X854707Y715856D01*
Y719242D01*
X302260Y746758D02*
Y741680D01*
X305646D01*
X307338D02*
X309031D01*
X308185D01*
Y746758D01*
X307338Y745912D01*
X1230630Y963928D02*
Y958850D01*
X1234016D01*
X1239094D02*
X1235708D01*
X1239094Y962236D01*
Y963082D01*
X1238248Y963928D01*
X1236555D01*
X1235708Y963082D01*
X1377950Y963928D02*
Y958850D01*
X1381336D01*
X1383028Y963082D02*
X1383875Y963928D01*
X1385567D01*
X1386414Y963082D01*
Y962236D01*
X1385567Y961389D01*
X1384721D01*
X1385567D01*
X1386414Y960543D01*
Y959696D01*
X1385567Y958850D01*
X1383875D01*
X1383028Y959696D01*
X1524000Y963928D02*
Y958850D01*
X1527386D01*
X1531617D02*
Y963928D01*
X1529078Y961389D01*
X1532464D01*
X1670050Y963928D02*
Y958850D01*
X1673436D01*
X1678514Y963928D02*
X1675128D01*
Y961389D01*
X1676821Y962236D01*
X1677668D01*
X1678514Y961389D01*
Y959696D01*
X1677668Y958850D01*
X1675975D01*
X1675128Y959696D01*
X938530Y963928D02*
Y958850D01*
X941916D01*
X946994Y963928D02*
X945301Y963082D01*
X943608Y961389D01*
Y959696D01*
X944455Y958850D01*
X946148D01*
X946994Y959696D01*
Y960543D01*
X946148Y961389D01*
X943608D01*
X1084580Y963928D02*
Y958850D01*
X1087966D01*
X1089658Y963928D02*
X1093044D01*
Y963082D01*
X1089658Y959696D01*
Y958850D01*
X527052Y994410D02*
X532130D01*
Y997796D01*
X527898Y999488D02*
X527052Y1000335D01*
Y1002028D01*
X527898Y1002874D01*
X528744D01*
X529591Y1002028D01*
X530437Y1002874D01*
X531284D01*
X532130Y1002028D01*
Y1000335D01*
X531284Y999488D01*
X530437D01*
X529591Y1000335D01*
X528744Y999488D01*
X527898D01*
X529591Y1000335D02*
Y1002028D01*
X779780Y963928D02*
Y958850D01*
X783166D01*
X784858Y959696D02*
X785705Y958850D01*
X787398D01*
X788244Y959696D01*
Y963082D01*
X787398Y963928D01*
X785705D01*
X784858Y963082D01*
Y962236D01*
X785705Y961389D01*
X788244D01*
X166370Y1271270D02*
Y1276348D01*
X168063Y1274656D01*
X169756Y1276348D01*
Y1271270D01*
X171448Y1276348D02*
Y1271270D01*
Y1273809D01*
X174834D01*
Y1276348D01*
Y1271270D01*
X176527D02*
X178220D01*
X177373D01*
Y1276348D01*
X176527Y1275502D01*
X1907540Y1201420D02*
Y1206498D01*
X1909233Y1204806D01*
X1910926Y1206498D01*
Y1201420D01*
X1912618Y1206498D02*
Y1201420D01*
Y1203959D01*
X1916004D01*
Y1206498D01*
Y1201420D01*
X1921082D02*
X1917697D01*
X1921082Y1204806D01*
Y1205652D01*
X1920236Y1206498D01*
X1918543D01*
X1917697Y1205652D01*
X97282Y654558D02*
Y659636D01*
X98975Y657944D01*
X100668Y659636D01*
Y654558D01*
X102360Y659636D02*
Y654558D01*
Y657097D01*
X105746D01*
Y659636D01*
Y654558D01*
X107439Y658790D02*
X108285Y659636D01*
X109978D01*
X110824Y658790D01*
Y657944D01*
X109978Y657097D01*
X109131D01*
X109978D01*
X110824Y656251D01*
Y655404D01*
X109978Y654558D01*
X108285D01*
X107439Y655404D01*
X1908810Y652780D02*
Y657858D01*
X1910503Y656166D01*
X1912196Y657858D01*
Y652780D01*
X1913888Y657858D02*
Y652780D01*
Y655319D01*
X1917274D01*
Y657858D01*
Y652780D01*
X1921506D02*
Y657858D01*
X1918967Y655319D01*
X1922352D01*
X252730Y1109980D02*
Y1115058D01*
X255269D01*
X256116Y1114212D01*
Y1112519D01*
X255269Y1111673D01*
X252730D01*
X257808Y1115058D02*
X261194D01*
X259501D01*
Y1109980D01*
X266272Y1114212D02*
X265426Y1115058D01*
X263733D01*
X262887Y1114212D01*
Y1110826D01*
X263733Y1109980D01*
X265426D01*
X266272Y1110826D01*
X267965Y1109980D02*
X269658D01*
X268811D01*
Y1115058D01*
X267965Y1114212D01*
X1229360Y1141730D02*
Y1146808D01*
X1231899D01*
X1232746Y1145962D01*
Y1144269D01*
X1231899Y1143423D01*
X1229360D01*
X1234438Y1146808D02*
X1237824D01*
X1236131D01*
Y1141730D01*
X1242902Y1145962D02*
X1242056Y1146808D01*
X1240363D01*
X1239517Y1145962D01*
Y1142576D01*
X1240363Y1141730D01*
X1242056D01*
X1242902Y1142576D01*
X1247981Y1141730D02*
X1244595D01*
X1247981Y1145116D01*
Y1145962D01*
X1247134Y1146808D01*
X1245442D01*
X1244595Y1145962D01*
X1376680Y1141730D02*
Y1146808D01*
X1379219D01*
X1380066Y1145962D01*
Y1144269D01*
X1379219Y1143423D01*
X1376680D01*
X1381758Y1146808D02*
X1385144D01*
X1383451D01*
Y1141730D01*
X1390222Y1145962D02*
X1389376Y1146808D01*
X1387683D01*
X1386837Y1145962D01*
Y1142576D01*
X1387683Y1141730D01*
X1389376D01*
X1390222Y1142576D01*
X1391915Y1145962D02*
X1392762Y1146808D01*
X1394454D01*
X1395301Y1145962D01*
Y1145116D01*
X1394454Y1144269D01*
X1393608D01*
X1394454D01*
X1395301Y1143423D01*
Y1142576D01*
X1394454Y1141730D01*
X1392762D01*
X1391915Y1142576D01*
X1524000Y1141730D02*
Y1146808D01*
X1526539D01*
X1527386Y1145962D01*
Y1144269D01*
X1526539Y1143423D01*
X1524000D01*
X1529078Y1146808D02*
X1532464D01*
X1530771D01*
Y1141730D01*
X1537542Y1145962D02*
X1536696Y1146808D01*
X1535003D01*
X1534157Y1145962D01*
Y1142576D01*
X1535003Y1141730D01*
X1536696D01*
X1537542Y1142576D01*
X1541774Y1141730D02*
Y1146808D01*
X1539235Y1144269D01*
X1542621D01*
X939800Y1141730D02*
Y1146808D01*
X942339D01*
X943186Y1145962D01*
Y1144269D01*
X942339Y1143423D01*
X939800D01*
X944878Y1146808D02*
X948264D01*
X946571D01*
Y1141730D01*
X953342Y1145962D02*
X952496Y1146808D01*
X950803D01*
X949957Y1145962D01*
Y1142576D01*
X950803Y1141730D01*
X952496D01*
X953342Y1142576D01*
X958421Y1146808D02*
X956728Y1145962D01*
X955035Y1144269D01*
Y1142576D01*
X955882Y1141730D01*
X957574D01*
X958421Y1142576D01*
Y1143423D01*
X957574Y1144269D01*
X955035D01*
X1083310Y1141730D02*
Y1146808D01*
X1085849D01*
X1086696Y1145962D01*
Y1144269D01*
X1085849Y1143423D01*
X1083310D01*
X1088388Y1146808D02*
X1091774D01*
X1090081D01*
Y1141730D01*
X1096852Y1145962D02*
X1096006Y1146808D01*
X1094313D01*
X1093467Y1145962D01*
Y1142576D01*
X1094313Y1141730D01*
X1096006D01*
X1096852Y1142576D01*
X1098545Y1146808D02*
X1101931D01*
Y1145962D01*
X1098545Y1142576D01*
Y1141730D01*
X389890Y1008380D02*
Y1013458D01*
X392429D01*
X393276Y1012612D01*
Y1010919D01*
X392429Y1010073D01*
X389890D01*
X394968Y1013458D02*
X398354D01*
X396661D01*
Y1008380D01*
X403432Y1012612D02*
X402586Y1013458D01*
X400893D01*
X400047Y1012612D01*
Y1009226D01*
X400893Y1008380D01*
X402586D01*
X403432Y1009226D01*
X405125Y1012612D02*
X405971Y1013458D01*
X407664D01*
X408511Y1012612D01*
Y1011766D01*
X407664Y1010919D01*
X408511Y1010073D01*
Y1009226D01*
X407664Y1008380D01*
X405971D01*
X405125Y1009226D01*
Y1010073D01*
X405971Y1010919D01*
X405125Y1011766D01*
Y1012612D01*
X405971Y1010919D02*
X407664D01*
X782320Y1141730D02*
Y1146808D01*
X784859D01*
X785706Y1145962D01*
Y1144269D01*
X784859Y1143423D01*
X782320D01*
X787398Y1146808D02*
X790784D01*
X789091D01*
Y1141730D01*
X795862Y1145962D02*
X795016Y1146808D01*
X793323D01*
X792477Y1145962D01*
Y1142576D01*
X793323Y1141730D01*
X795016D01*
X795862Y1142576D01*
X797555D02*
X798401Y1141730D01*
X800094D01*
X800941Y1142576D01*
Y1145962D01*
X800094Y1146808D01*
X798401D01*
X797555Y1145962D01*
Y1145116D01*
X798401Y1144269D01*
X800941D01*
X257810Y1010920D02*
Y1015998D01*
X260349D01*
X261196Y1015152D01*
Y1013459D01*
X260349Y1012613D01*
X257810D01*
X259503D02*
X261196Y1010920D01*
X262888D02*
X264581D01*
X263735D01*
Y1015998D01*
X262888Y1015152D01*
X294640Y922020D02*
Y927098D01*
X297179D01*
X298026Y926252D01*
Y924559D01*
X297179Y923713D01*
X294640D01*
X296333D02*
X298026Y922020D01*
X303104D02*
X299718D01*
X303104Y925406D01*
Y926252D01*
X302257Y927098D01*
X300565D01*
X299718Y926252D01*
X350520Y911860D02*
Y916938D01*
X353059D01*
X353906Y916092D01*
Y914399D01*
X353059Y913553D01*
X350520D01*
X352213D02*
X353906Y911860D01*
X355598Y916092D02*
X356445Y916938D01*
X358138D01*
X358984Y916092D01*
Y915246D01*
X358138Y914399D01*
X357291D01*
X358138D01*
X358984Y913553D01*
Y912706D01*
X358138Y911860D01*
X356445D01*
X355598Y912706D01*
X388620Y887730D02*
Y892808D01*
X391159D01*
X392006Y891962D01*
Y890269D01*
X391159Y889423D01*
X388620D01*
X390313D02*
X392006Y887730D01*
X396237D02*
Y892808D01*
X393698Y890269D01*
X397084D01*
X402590Y814070D02*
Y819148D01*
X405129D01*
X405976Y818302D01*
Y816609D01*
X405129Y815763D01*
X402590D01*
X404283D02*
X405976Y814070D01*
X411054Y819148D02*
X407668D01*
Y816609D01*
X409361Y817456D01*
X410207D01*
X411054Y816609D01*
Y814916D01*
X410207Y814070D01*
X408515D01*
X407668Y814916D01*
X309880Y872490D02*
Y877568D01*
X312419D01*
X313266Y876722D01*
Y875029D01*
X312419Y874183D01*
X309880D01*
X311573D02*
X313266Y872490D01*
X318344Y877568D02*
X316651Y876722D01*
X314958Y875029D01*
Y873336D01*
X315805Y872490D01*
X317498D01*
X318344Y873336D01*
Y874183D01*
X317498Y875029D01*
X314958D01*
X1325880Y666750D02*
Y671828D01*
X1328419D01*
X1329266Y670982D01*
Y669289D01*
X1328419Y668443D01*
X1325880D01*
X1327573D02*
X1329266Y666750D01*
X1330958Y670982D02*
X1331805Y671828D01*
X1333497D01*
X1334344Y670982D01*
Y670136D01*
X1333497Y669289D01*
X1334344Y668443D01*
Y667596D01*
X1333497Y666750D01*
X1331805D01*
X1330958Y667596D01*
Y668443D01*
X1331805Y669289D01*
X1330958Y670136D01*
Y670982D01*
X1331805Y669289D02*
X1333497D01*
X1295400Y1082040D02*
Y1087118D01*
X1297939D01*
X1298786Y1086272D01*
Y1084579D01*
X1297939Y1083733D01*
X1295400D01*
X1297093D02*
X1298786Y1082040D01*
X1300478Y1082886D02*
X1301325Y1082040D01*
X1303017D01*
X1303864Y1082886D01*
Y1086272D01*
X1303017Y1087118D01*
X1301325D01*
X1300478Y1086272D01*
Y1085426D01*
X1301325Y1084579D01*
X1303864D01*
X1229360Y808990D02*
Y814068D01*
X1231899D01*
X1232746Y813222D01*
Y811529D01*
X1231899Y810683D01*
X1229360D01*
X1231053D02*
X1232746Y808990D01*
X1234438D02*
X1236131D01*
X1235285D01*
Y814068D01*
X1234438Y813222D01*
X1238670D02*
X1239517Y814068D01*
X1241209D01*
X1242056Y813222D01*
Y809836D01*
X1241209Y808990D01*
X1239517D01*
X1238670Y809836D01*
Y813222D01*
X1231900Y633730D02*
Y638808D01*
X1234439D01*
X1235286Y637962D01*
Y636269D01*
X1234439Y635423D01*
X1231900D01*
X1233593D02*
X1235286Y633730D01*
X1236978D02*
X1238671D01*
X1237825D01*
Y638808D01*
X1236978Y637962D01*
X1241210Y633730D02*
X1242903D01*
X1242057D01*
Y638808D01*
X1241210Y637962D01*
X1229360Y759460D02*
Y764538D01*
X1231899D01*
X1232746Y763692D01*
Y761999D01*
X1231899Y761153D01*
X1229360D01*
X1231053D02*
X1232746Y759460D01*
X1234438D02*
X1236131D01*
X1235285D01*
Y764538D01*
X1234438Y763692D01*
X1242056Y759460D02*
X1238670D01*
X1242056Y762846D01*
Y763692D01*
X1241209Y764538D01*
X1239517D01*
X1238670Y763692D01*
X1479550Y666750D02*
Y671828D01*
X1482089D01*
X1482936Y670982D01*
Y669289D01*
X1482089Y668443D01*
X1479550D01*
X1481243D02*
X1482936Y666750D01*
X1484628D02*
X1486321D01*
X1485475D01*
Y671828D01*
X1484628Y670982D01*
X1488860D02*
X1489707Y671828D01*
X1491400D01*
X1492246Y670982D01*
Y670136D01*
X1491400Y669289D01*
X1490553D01*
X1491400D01*
X1492246Y668443D01*
Y667596D01*
X1491400Y666750D01*
X1489707D01*
X1488860Y667596D01*
X1442720Y1080770D02*
Y1085848D01*
X1445259D01*
X1446106Y1085002D01*
Y1083309D01*
X1445259Y1082463D01*
X1442720D01*
X1444413D02*
X1446106Y1080770D01*
X1447798D02*
X1449491D01*
X1448645D01*
Y1085848D01*
X1447798Y1085002D01*
X1454570Y1080770D02*
Y1085848D01*
X1452030Y1083309D01*
X1455416D01*
X1377950Y808990D02*
Y814068D01*
X1380489D01*
X1381336Y813222D01*
Y811529D01*
X1380489Y810683D01*
X1377950D01*
X1379643D02*
X1381336Y808990D01*
X1383028D02*
X1384721D01*
X1383875D01*
Y814068D01*
X1383028Y813222D01*
X1390646Y814068D02*
X1387260D01*
Y811529D01*
X1388953Y812376D01*
X1389799D01*
X1390646Y811529D01*
Y809836D01*
X1389799Y808990D01*
X1388107D01*
X1387260Y809836D01*
X1383030Y633730D02*
Y638808D01*
X1385569D01*
X1386416Y637962D01*
Y636269D01*
X1385569Y635423D01*
X1383030D01*
X1384723D02*
X1386416Y633730D01*
X1388108D02*
X1389801D01*
X1388955D01*
Y638808D01*
X1388108Y637962D01*
X1395726Y638808D02*
X1394033Y637962D01*
X1392340Y636269D01*
Y634576D01*
X1393187Y633730D01*
X1394879D01*
X1395726Y634576D01*
Y635423D01*
X1394879Y636269D01*
X1392340D01*
X1377950Y759460D02*
Y764538D01*
X1380489D01*
X1381336Y763692D01*
Y761999D01*
X1380489Y761153D01*
X1377950D01*
X1379643D02*
X1381336Y759460D01*
X1383028D02*
X1384721D01*
X1383875D01*
Y764538D01*
X1383028Y763692D01*
X1387260Y764538D02*
X1390646D01*
Y763692D01*
X1387260Y760306D01*
Y759460D01*
X1624838Y670560D02*
Y675638D01*
X1627377D01*
X1628224Y674792D01*
Y673099D01*
X1627377Y672253D01*
X1624838D01*
X1626531D02*
X1628224Y670560D01*
X1629916D02*
X1631609D01*
X1630763D01*
Y675638D01*
X1629916Y674792D01*
X1634148D02*
X1634995Y675638D01*
X1636687D01*
X1637534Y674792D01*
Y673946D01*
X1636687Y673099D01*
X1637534Y672253D01*
Y671406D01*
X1636687Y670560D01*
X1634995D01*
X1634148Y671406D01*
Y672253D01*
X1634995Y673099D01*
X1634148Y673946D01*
Y674792D01*
X1634995Y673099D02*
X1636687D01*
X1590040Y1080770D02*
Y1085848D01*
X1592579D01*
X1593426Y1085002D01*
Y1083309D01*
X1592579Y1082463D01*
X1590040D01*
X1591733D02*
X1593426Y1080770D01*
X1595118D02*
X1596811D01*
X1595965D01*
Y1085848D01*
X1595118Y1085002D01*
X1599350Y1081616D02*
X1600197Y1080770D01*
X1601889D01*
X1602736Y1081616D01*
Y1085002D01*
X1601889Y1085848D01*
X1600197D01*
X1599350Y1085002D01*
Y1084156D01*
X1600197Y1083309D01*
X1602736D01*
X1524000Y808990D02*
Y814068D01*
X1526539D01*
X1527386Y813222D01*
Y811529D01*
X1526539Y810683D01*
X1524000D01*
X1525693D02*
X1527386Y808990D01*
X1532464D02*
X1529078D01*
X1532464Y812376D01*
Y813222D01*
X1531617Y814068D01*
X1529925D01*
X1529078Y813222D01*
X1534157D02*
X1535003Y814068D01*
X1536696D01*
X1537542Y813222D01*
Y809836D01*
X1536696Y808990D01*
X1535003D01*
X1534157Y809836D01*
Y813222D01*
X1524000Y635000D02*
Y640078D01*
X1526539D01*
X1527386Y639232D01*
Y637539D01*
X1526539Y636693D01*
X1524000D01*
X1525693D02*
X1527386Y635000D01*
X1532464D02*
X1529078D01*
X1532464Y638386D01*
Y639232D01*
X1531617Y640078D01*
X1529925D01*
X1529078Y639232D01*
X1534157Y635000D02*
X1535849D01*
X1535003D01*
Y640078D01*
X1534157Y639232D01*
X1524000Y759460D02*
Y764538D01*
X1526539D01*
X1527386Y763692D01*
Y761999D01*
X1526539Y761153D01*
X1524000D01*
X1525693D02*
X1527386Y759460D01*
X1532464D02*
X1529078D01*
X1532464Y762846D01*
Y763692D01*
X1531617Y764538D01*
X1529925D01*
X1529078Y763692D01*
X1537542Y759460D02*
X1534157D01*
X1537542Y762846D01*
Y763692D01*
X1536696Y764538D01*
X1535003D01*
X1534157Y763692D01*
X1736090Y1085342D02*
Y1090420D01*
X1738629D01*
X1739476Y1089574D01*
Y1087881D01*
X1738629Y1087035D01*
X1736090D01*
X1737783D02*
X1739476Y1085342D01*
X1744554D02*
X1741168D01*
X1744554Y1088728D01*
Y1089574D01*
X1743707Y1090420D01*
X1742015D01*
X1741168Y1089574D01*
X1748786Y1085342D02*
Y1090420D01*
X1746247Y1087881D01*
X1749632D01*
X1670050Y808990D02*
Y814068D01*
X1672589D01*
X1673436Y813222D01*
Y811529D01*
X1672589Y810683D01*
X1670050D01*
X1671743D02*
X1673436Y808990D01*
X1678514D02*
X1675128D01*
X1678514Y812376D01*
Y813222D01*
X1677668Y814068D01*
X1675975D01*
X1675128Y813222D01*
X1683592Y814068D02*
X1680207D01*
Y811529D01*
X1681900Y812376D01*
X1682746D01*
X1683592Y811529D01*
Y809836D01*
X1682746Y808990D01*
X1681053D01*
X1680207Y809836D01*
X1671320Y633730D02*
Y638808D01*
X1673859D01*
X1674706Y637962D01*
Y636269D01*
X1673859Y635423D01*
X1671320D01*
X1673013D02*
X1674706Y633730D01*
X1679784D02*
X1676398D01*
X1679784Y637116D01*
Y637962D01*
X1678938Y638808D01*
X1677245D01*
X1676398Y637962D01*
X1684862Y638808D02*
X1683170Y637962D01*
X1681477Y636269D01*
Y634576D01*
X1682323Y633730D01*
X1684016D01*
X1684862Y634576D01*
Y635423D01*
X1684016Y636269D01*
X1681477D01*
X1035050Y666750D02*
Y671828D01*
X1037589D01*
X1038436Y670982D01*
Y669289D01*
X1037589Y668443D01*
X1035050D01*
X1036743D02*
X1038436Y666750D01*
X1043514D02*
X1040128D01*
X1043514Y670136D01*
Y670982D01*
X1042667Y671828D01*
X1040975D01*
X1040128Y670982D01*
X1045207D02*
X1046053Y671828D01*
X1047746D01*
X1048592Y670982D01*
Y670136D01*
X1047746Y669289D01*
X1048592Y668443D01*
Y667596D01*
X1047746Y666750D01*
X1046053D01*
X1045207Y667596D01*
Y668443D01*
X1046053Y669289D01*
X1045207Y670136D01*
Y670982D01*
X1046053Y669289D02*
X1047746D01*
X1003300Y1080770D02*
Y1085848D01*
X1005839D01*
X1006686Y1085002D01*
Y1083309D01*
X1005839Y1082463D01*
X1003300D01*
X1004993D02*
X1006686Y1080770D01*
X1011764D02*
X1008378D01*
X1011764Y1084156D01*
Y1085002D01*
X1010918Y1085848D01*
X1009225D01*
X1008378Y1085002D01*
X1013457Y1081616D02*
X1014303Y1080770D01*
X1015996D01*
X1016842Y1081616D01*
Y1085002D01*
X1015996Y1085848D01*
X1014303D01*
X1013457Y1085002D01*
Y1084156D01*
X1014303Y1083309D01*
X1016842D01*
X943610Y808990D02*
Y814068D01*
X946149D01*
X946996Y813222D01*
Y811529D01*
X946149Y810683D01*
X943610D01*
X945303D02*
X946996Y808990D01*
X948688Y813222D02*
X949535Y814068D01*
X951227D01*
X952074Y813222D01*
Y812376D01*
X951227Y811529D01*
X950381D01*
X951227D01*
X952074Y810683D01*
Y809836D01*
X951227Y808990D01*
X949535D01*
X948688Y809836D01*
X953767Y813222D02*
X954613Y814068D01*
X956306D01*
X957152Y813222D01*
Y809836D01*
X956306Y808990D01*
X954613D01*
X953767Y809836D01*
Y813222D01*
X942340Y632460D02*
Y637538D01*
X944879D01*
X945726Y636692D01*
Y634999D01*
X944879Y634153D01*
X942340D01*
X944033D02*
X945726Y632460D01*
X947418Y636692D02*
X948265Y637538D01*
X949958D01*
X950804Y636692D01*
Y635846D01*
X949958Y634999D01*
X949111D01*
X949958D01*
X950804Y634153D01*
Y633306D01*
X949958Y632460D01*
X948265D01*
X947418Y633306D01*
X952497Y632460D02*
X954190D01*
X953343D01*
Y637538D01*
X952497Y636692D01*
X943610Y759460D02*
Y764538D01*
X946149D01*
X946996Y763692D01*
Y761999D01*
X946149Y761153D01*
X943610D01*
X945303D02*
X946996Y759460D01*
X948688Y763692D02*
X949535Y764538D01*
X951227D01*
X952074Y763692D01*
Y762846D01*
X951227Y761999D01*
X950381D01*
X951227D01*
X952074Y761153D01*
Y760306D01*
X951227Y759460D01*
X949535D01*
X948688Y760306D01*
X957152Y759460D02*
X953767D01*
X957152Y762846D01*
Y763692D01*
X956306Y764538D01*
X954613D01*
X953767Y763692D01*
X1179830Y666750D02*
Y671828D01*
X1182369D01*
X1183216Y670982D01*
Y669289D01*
X1182369Y668443D01*
X1179830D01*
X1181523D02*
X1183216Y666750D01*
X1184908Y670982D02*
X1185755Y671828D01*
X1187448D01*
X1188294Y670982D01*
Y670136D01*
X1187448Y669289D01*
X1186601D01*
X1187448D01*
X1188294Y668443D01*
Y667596D01*
X1187448Y666750D01*
X1185755D01*
X1184908Y667596D01*
X1189987Y670982D02*
X1190833Y671828D01*
X1192526D01*
X1193372Y670982D01*
Y670136D01*
X1192526Y669289D01*
X1191680D01*
X1192526D01*
X1193372Y668443D01*
Y667596D01*
X1192526Y666750D01*
X1190833D01*
X1189987Y667596D01*
X1149350Y1080770D02*
Y1085848D01*
X1151889D01*
X1152736Y1085002D01*
Y1083309D01*
X1151889Y1082463D01*
X1149350D01*
X1151043D02*
X1152736Y1080770D01*
X1154428Y1085002D02*
X1155275Y1085848D01*
X1156967D01*
X1157814Y1085002D01*
Y1084156D01*
X1156967Y1083309D01*
X1156121D01*
X1156967D01*
X1157814Y1082463D01*
Y1081616D01*
X1156967Y1080770D01*
X1155275D01*
X1154428Y1081616D01*
X1162046Y1080770D02*
Y1085848D01*
X1159507Y1083309D01*
X1162892D01*
X1088390Y810260D02*
Y815338D01*
X1090929D01*
X1091776Y814492D01*
Y812799D01*
X1090929Y811953D01*
X1088390D01*
X1090083D02*
X1091776Y810260D01*
X1093468Y814492D02*
X1094315Y815338D01*
X1096008D01*
X1096854Y814492D01*
Y813646D01*
X1096008Y812799D01*
X1095161D01*
X1096008D01*
X1096854Y811953D01*
Y811106D01*
X1096008Y810260D01*
X1094315D01*
X1093468Y811106D01*
X1101932Y815338D02*
X1098547D01*
Y812799D01*
X1100239Y813646D01*
X1101086D01*
X1101932Y812799D01*
Y811106D01*
X1101086Y810260D01*
X1099393D01*
X1098547Y811106D01*
X1090930Y633730D02*
Y638808D01*
X1093469D01*
X1094316Y637962D01*
Y636269D01*
X1093469Y635423D01*
X1090930D01*
X1092623D02*
X1094316Y633730D01*
X1096008Y637962D02*
X1096855Y638808D01*
X1098548D01*
X1099394Y637962D01*
Y637116D01*
X1098548Y636269D01*
X1097701D01*
X1098548D01*
X1099394Y635423D01*
Y634576D01*
X1098548Y633730D01*
X1096855D01*
X1096008Y634576D01*
X1104472Y638808D02*
X1102779Y637962D01*
X1101087Y636269D01*
Y634576D01*
X1101933Y633730D01*
X1103626D01*
X1104472Y634576D01*
Y635423D01*
X1103626Y636269D01*
X1101087D01*
X1088390Y760730D02*
Y765808D01*
X1090929D01*
X1091776Y764962D01*
Y763269D01*
X1090929Y762423D01*
X1088390D01*
X1090083D02*
X1091776Y760730D01*
X1093468Y764962D02*
X1094315Y765808D01*
X1096008D01*
X1096854Y764962D01*
Y764116D01*
X1096008Y763269D01*
X1095161D01*
X1096008D01*
X1096854Y762423D01*
Y761576D01*
X1096008Y760730D01*
X1094315D01*
X1093468Y761576D01*
X1098547Y765808D02*
X1101932D01*
Y764962D01*
X1098547Y761576D01*
Y760730D01*
X626110Y842010D02*
Y847088D01*
X628649D01*
X629496Y846242D01*
Y844549D01*
X628649Y843703D01*
X626110D01*
X627803D02*
X629496Y842010D01*
X631188Y846242D02*
X632035Y847088D01*
X633727D01*
X634574Y846242D01*
Y845396D01*
X633727Y844549D01*
X632881D01*
X633727D01*
X634574Y843703D01*
Y842856D01*
X633727Y842010D01*
X632035D01*
X631188Y842856D01*
X636267Y846242D02*
X637113Y847088D01*
X638806D01*
X639652Y846242D01*
Y845396D01*
X638806Y844549D01*
X639652Y843703D01*
Y842856D01*
X638806Y842010D01*
X637113D01*
X636267Y842856D01*
Y843703D01*
X637113Y844549D01*
X636267Y845396D01*
Y846242D01*
X637113Y844549D02*
X638806D01*
X473710Y905510D02*
Y910588D01*
X476249D01*
X477096Y909742D01*
Y908049D01*
X476249Y907203D01*
X473710D01*
X475403D02*
X477096Y905510D01*
X478788Y909742D02*
X479635Y910588D01*
X481328D01*
X482174Y909742D01*
Y908896D01*
X481328Y908049D01*
X480481D01*
X481328D01*
X482174Y907203D01*
Y906356D01*
X481328Y905510D01*
X479635D01*
X478788Y906356D01*
X483867D02*
X484713Y905510D01*
X486406D01*
X487252Y906356D01*
Y909742D01*
X486406Y910588D01*
X484713D01*
X483867Y909742D01*
Y908896D01*
X484713Y908049D01*
X487252D01*
X534670Y948690D02*
X529592D01*
Y951229D01*
X530438Y952076D01*
X532131D01*
X532977Y951229D01*
Y948690D01*
Y950383D02*
X534670Y952076D01*
Y956308D02*
X529592D01*
X532131Y953768D01*
Y957154D01*
X530438Y958847D02*
X529592Y959693D01*
Y961386D01*
X530438Y962232D01*
X533824D01*
X534670Y961386D01*
Y959693D01*
X533824Y958847D01*
X530438D01*
X535940Y824230D02*
X530862D01*
Y826769D01*
X531708Y827616D01*
X533401D01*
X534247Y826769D01*
Y824230D01*
Y825923D02*
X535940Y827616D01*
Y831848D02*
X530862D01*
X533401Y829308D01*
Y832694D01*
X535940Y834387D02*
Y836079D01*
Y835233D01*
X530862D01*
X531708Y834387D01*
X534670Y909320D02*
X529592D01*
Y911859D01*
X530438Y912706D01*
X532131D01*
X532977Y911859D01*
Y909320D01*
Y911013D02*
X534670Y912706D01*
Y916937D02*
X529592D01*
X532131Y914398D01*
Y917784D01*
X534670Y922862D02*
Y919477D01*
X531284Y922862D01*
X530438D01*
X529592Y922016D01*
Y920323D01*
X530438Y919477D01*
X873760Y670560D02*
Y675638D01*
X876299D01*
X877146Y674792D01*
Y673099D01*
X876299Y672253D01*
X873760D01*
X875453D02*
X877146Y670560D01*
X881377D02*
Y675638D01*
X878838Y673099D01*
X882224D01*
X883917Y674792D02*
X884763Y675638D01*
X886456D01*
X887302Y674792D01*
Y673946D01*
X886456Y673099D01*
X885610D01*
X886456D01*
X887302Y672253D01*
Y671406D01*
X886456Y670560D01*
X884763D01*
X883917Y671406D01*
X843280Y1082040D02*
Y1087118D01*
X845819D01*
X846666Y1086272D01*
Y1084579D01*
X845819Y1083733D01*
X843280D01*
X844973D02*
X846666Y1082040D01*
X850898D02*
Y1087118D01*
X848358Y1084579D01*
X851744D01*
X855976Y1082040D02*
Y1087118D01*
X853437Y1084579D01*
X856822D01*
X746760Y772160D02*
Y777238D01*
X749299D01*
X750146Y776392D01*
Y774699D01*
X749299Y773853D01*
X746760D01*
X748453D02*
X750146Y772160D01*
X754378D02*
Y777238D01*
X751838Y774699D01*
X755224D01*
X760302Y777238D02*
X756917D01*
Y774699D01*
X758609Y775546D01*
X759456D01*
X760302Y774699D01*
Y773006D01*
X759456Y772160D01*
X757763D01*
X756917Y773006D01*
X695960Y722630D02*
Y727708D01*
X698499D01*
X699346Y726862D01*
Y725169D01*
X698499Y724323D01*
X695960D01*
X697653D02*
X699346Y722630D01*
X703577D02*
Y727708D01*
X701038Y725169D01*
X704424D01*
X709502Y727708D02*
X707810Y726862D01*
X706117Y725169D01*
Y723476D01*
X706963Y722630D01*
X708656D01*
X709502Y723476D01*
Y724323D01*
X708656Y725169D01*
X706117D01*
X773430Y772160D02*
Y777238D01*
X775969D01*
X776816Y776392D01*
Y774699D01*
X775969Y773853D01*
X773430D01*
X775123D02*
X776816Y772160D01*
X781048D02*
Y777238D01*
X778508Y774699D01*
X781894D01*
X783587Y777238D02*
X786972D01*
Y776392D01*
X783587Y773006D01*
Y772160D01*
X786130Y660400D02*
X781052D01*
Y662939D01*
X781898Y663786D01*
X783591D01*
X784437Y662939D01*
Y660400D01*
Y662093D02*
X786130Y663786D01*
Y668018D02*
X781052D01*
X783591Y665478D01*
Y668864D01*
X781898Y670557D02*
X781052Y671403D01*
Y673096D01*
X781898Y673942D01*
X782744D01*
X783591Y673096D01*
X784437Y673942D01*
X785284D01*
X786130Y673096D01*
Y671403D01*
X785284Y670557D01*
X784437D01*
X783591Y671403D01*
X782744Y670557D01*
X781898D01*
X783591Y671403D02*
Y673096D01*
X1895348Y1139950D02*
X1898734D01*
X1897041D01*
Y1134872D01*
X1900426D02*
Y1139950D01*
X1902966D01*
X1903812Y1139104D01*
Y1137411D01*
X1902966Y1136565D01*
X1900426D01*
X1905505Y1134872D02*
X1907198D01*
X1906351D01*
Y1139950D01*
X1905505Y1139104D01*
X346710Y1002028D02*
X350096D01*
X348403D01*
Y996950D01*
X351788D02*
Y1002028D01*
X354328D01*
X355174Y1001182D01*
Y999489D01*
X354328Y998643D01*
X351788D01*
X360252Y996950D02*
X356867D01*
X360252Y1000336D01*
Y1001182D01*
X359406Y1002028D01*
X357713D01*
X356867Y1001182D01*
X346710Y1040128D02*
X350096D01*
X348403D01*
Y1035050D01*
X351788D02*
Y1040128D01*
X354328D01*
X355174Y1039282D01*
Y1037589D01*
X354328Y1036743D01*
X351788D01*
X356867Y1039282D02*
X357713Y1040128D01*
X359406D01*
X360252Y1039282D01*
Y1038436D01*
X359406Y1037589D01*
X358559D01*
X359406D01*
X360252Y1036743D01*
Y1035896D01*
X359406Y1035050D01*
X357713D01*
X356867Y1035896D01*
X467868Y611630D02*
X471254D01*
X469561D01*
Y606552D01*
X472946D02*
Y611630D01*
X475485D01*
X476332Y610784D01*
Y609091D01*
X475485Y608245D01*
X472946D01*
X480564Y606552D02*
Y611630D01*
X478025Y609091D01*
X481410D01*
X1328420Y1134108D02*
X1331806D01*
X1330113D01*
Y1129030D01*
X1333498D02*
Y1134108D01*
X1336037D01*
X1336884Y1133262D01*
Y1131569D01*
X1336037Y1130723D01*
X1333498D01*
X1341962Y1134108D02*
X1338577D01*
Y1131569D01*
X1340269Y1132416D01*
X1341116D01*
X1341962Y1131569D01*
Y1129876D01*
X1341116Y1129030D01*
X1339423D01*
X1338577Y1129876D01*
X1286510Y1134108D02*
X1289896D01*
X1288203D01*
Y1129030D01*
X1291588D02*
Y1134108D01*
X1294128D01*
X1294974Y1133262D01*
Y1131569D01*
X1294128Y1130723D01*
X1291588D01*
X1300052Y1134108D02*
X1298360Y1133262D01*
X1296667Y1131569D01*
Y1129876D01*
X1297513Y1129030D01*
X1299206D01*
X1300052Y1129876D01*
Y1130723D01*
X1299206Y1131569D01*
X1296667D01*
X1475740Y1134108D02*
X1479126D01*
X1477433D01*
Y1129030D01*
X1480818D02*
Y1134108D01*
X1483358D01*
X1484204Y1133262D01*
Y1131569D01*
X1483358Y1130723D01*
X1480818D01*
X1485897Y1134108D02*
X1489282D01*
Y1133262D01*
X1485897Y1129876D01*
Y1129030D01*
X1433830Y1134108D02*
X1437216D01*
X1435523D01*
Y1129030D01*
X1438908D02*
Y1134108D01*
X1441447D01*
X1442294Y1133262D01*
Y1131569D01*
X1441447Y1130723D01*
X1438908D01*
X1443987Y1133262D02*
X1444833Y1134108D01*
X1446526D01*
X1447372Y1133262D01*
Y1132416D01*
X1446526Y1131569D01*
X1447372Y1130723D01*
Y1129876D01*
X1446526Y1129030D01*
X1444833D01*
X1443987Y1129876D01*
Y1130723D01*
X1444833Y1131569D01*
X1443987Y1132416D01*
Y1133262D01*
X1444833Y1131569D02*
X1446526D01*
X1624330Y1132838D02*
X1627716D01*
X1626023D01*
Y1127760D01*
X1629408D02*
Y1132838D01*
X1631947D01*
X1632794Y1131992D01*
Y1130299D01*
X1631947Y1129453D01*
X1629408D01*
X1634487Y1128606D02*
X1635333Y1127760D01*
X1637026D01*
X1637872Y1128606D01*
Y1131992D01*
X1637026Y1132838D01*
X1635333D01*
X1634487Y1131992D01*
Y1131146D01*
X1635333Y1130299D01*
X1637872D01*
X1581150Y1132838D02*
X1584536D01*
X1582843D01*
Y1127760D01*
X1586228D02*
Y1132838D01*
X1588768D01*
X1589614Y1131992D01*
Y1130299D01*
X1588768Y1129453D01*
X1586228D01*
X1591307Y1127760D02*
X1593000D01*
X1592153D01*
Y1132838D01*
X1591307Y1131992D01*
X1595539D02*
X1596385Y1132838D01*
X1598078D01*
X1598924Y1131992D01*
Y1128606D01*
X1598078Y1127760D01*
X1596385D01*
X1595539Y1128606D01*
Y1131992D01*
X91948Y1192020D02*
X95334D01*
X93641D01*
Y1186942D01*
X97026D02*
Y1192020D01*
X99565D01*
X100412Y1191174D01*
Y1189481D01*
X99565Y1188635D01*
X97026D01*
X102105Y1186942D02*
X103798D01*
X102951D01*
Y1192020D01*
X102105Y1191174D01*
X106337D02*
X107183Y1192020D01*
X108876D01*
X109722Y1191174D01*
Y1190328D01*
X108876Y1189481D01*
X108029D01*
X108876D01*
X109722Y1188635D01*
Y1187788D01*
X108876Y1186942D01*
X107183D01*
X106337Y1187788D01*
X1037590Y1134108D02*
X1040976D01*
X1039283D01*
Y1129030D01*
X1042668D02*
Y1134108D01*
X1045208D01*
X1046054Y1133262D01*
Y1131569D01*
X1045208Y1130723D01*
X1042668D01*
X1047747Y1129030D02*
X1049439D01*
X1048593D01*
Y1134108D01*
X1047747Y1133262D01*
X1054518Y1129030D02*
Y1134108D01*
X1051979Y1131569D01*
X1055364D01*
X995680Y1134108D02*
X999066D01*
X997373D01*
Y1129030D01*
X1000758D02*
Y1134108D01*
X1003298D01*
X1004144Y1133262D01*
Y1131569D01*
X1003298Y1130723D01*
X1000758D01*
X1005837Y1129030D02*
X1007530D01*
X1006683D01*
Y1134108D01*
X1005837Y1133262D01*
X1013454Y1134108D02*
X1010069D01*
Y1131569D01*
X1011761Y1132416D01*
X1012608D01*
X1013454Y1131569D01*
Y1129876D01*
X1012608Y1129030D01*
X1010915D01*
X1010069Y1129876D01*
X1181100Y1134108D02*
X1184486D01*
X1182793D01*
Y1129030D01*
X1186178D02*
Y1134108D01*
X1188717D01*
X1189564Y1133262D01*
Y1131569D01*
X1188717Y1130723D01*
X1186178D01*
X1191257Y1129030D02*
X1192950D01*
X1192103D01*
Y1134108D01*
X1191257Y1133262D01*
X1198874Y1134108D02*
X1197181Y1133262D01*
X1195489Y1131569D01*
Y1129876D01*
X1196335Y1129030D01*
X1198028D01*
X1198874Y1129876D01*
Y1130723D01*
X1198028Y1131569D01*
X1195489D01*
X1140460Y1134108D02*
X1143846D01*
X1142153D01*
Y1129030D01*
X1145538D02*
Y1134108D01*
X1148077D01*
X1148924Y1133262D01*
Y1131569D01*
X1148077Y1130723D01*
X1145538D01*
X1150617Y1129030D02*
X1152309D01*
X1151463D01*
Y1134108D01*
X1150617Y1133262D01*
X1154849Y1134108D02*
X1158234D01*
Y1133262D01*
X1154849Y1129876D01*
Y1129030D01*
X734060Y1087118D02*
X737446D01*
X735753D01*
Y1082040D01*
X739138D02*
Y1087118D01*
X741677D01*
X742524Y1086272D01*
Y1084579D01*
X741677Y1083733D01*
X739138D01*
X744217Y1082040D02*
X745910D01*
X745063D01*
Y1087118D01*
X744217Y1086272D01*
X748449D02*
X749295Y1087118D01*
X750988D01*
X751834Y1086272D01*
Y1085426D01*
X750988Y1084579D01*
X751834Y1083733D01*
Y1082886D01*
X750988Y1082040D01*
X749295D01*
X748449Y1082886D01*
Y1083733D01*
X749295Y1084579D01*
X748449Y1085426D01*
Y1086272D01*
X749295Y1084579D02*
X750988D01*
X490220Y942338D02*
X493606D01*
X491913D01*
Y937260D01*
X495298D02*
Y942338D01*
X497837D01*
X498684Y941492D01*
Y939799D01*
X497837Y938953D01*
X495298D01*
X500377Y937260D02*
X502070D01*
X501223D01*
Y942338D01*
X500377Y941492D01*
X504609Y938106D02*
X505455Y937260D01*
X507148D01*
X507994Y938106D01*
Y941492D01*
X507148Y942338D01*
X505455D01*
X504609Y941492D01*
Y940646D01*
X505455Y939799D01*
X507994D01*
X452120Y942338D02*
X455506D01*
X453813D01*
Y937260D01*
X457198D02*
Y942338D01*
X459738D01*
X460584Y941492D01*
Y939799D01*
X459738Y938953D01*
X457198D01*
X465662Y937260D02*
X462277D01*
X465662Y940646D01*
Y941492D01*
X464816Y942338D01*
X463123D01*
X462277Y941492D01*
X467355D02*
X468201Y942338D01*
X469894D01*
X470741Y941492D01*
Y938106D01*
X469894Y937260D01*
X468201D01*
X467355Y938106D01*
Y941492D01*
X878840Y1134108D02*
X882226D01*
X880533D01*
Y1129030D01*
X883918D02*
Y1134108D01*
X886458D01*
X887304Y1133262D01*
Y1131569D01*
X886458Y1130723D01*
X883918D01*
X892382Y1129030D02*
X888997D01*
X892382Y1132416D01*
Y1133262D01*
X891536Y1134108D01*
X889843D01*
X888997Y1133262D01*
X894075Y1129030D02*
X895768D01*
X894921D01*
Y1134108D01*
X894075Y1133262D01*
X839470Y1134108D02*
X842856D01*
X841163D01*
Y1129030D01*
X844548D02*
Y1134108D01*
X847087D01*
X847934Y1133262D01*
Y1131569D01*
X847087Y1130723D01*
X844548D01*
X853012Y1129030D02*
X849627D01*
X853012Y1132416D01*
Y1133262D01*
X852166Y1134108D01*
X850473D01*
X849627Y1133262D01*
X858091Y1129030D02*
X854705D01*
X858091Y1132416D01*
Y1133262D01*
X857244Y1134108D01*
X855552D01*
X854705Y1133262D01*
X312422Y834390D02*
X316654D01*
X317500Y835236D01*
Y836929D01*
X316654Y837776D01*
X312422D01*
X317500Y839468D02*
Y841161D01*
Y840315D01*
X312422D01*
X313268Y839468D01*
X1320798Y763270D02*
X1316566D01*
X1315720Y762424D01*
Y760731D01*
X1316566Y759884D01*
X1320798D01*
X1315720Y754806D02*
Y758192D01*
X1319106Y754806D01*
X1319952D01*
X1320798Y755652D01*
Y757345D01*
X1319952Y758192D01*
X1468118Y764540D02*
X1463886D01*
X1463040Y763694D01*
Y762001D01*
X1463886Y761154D01*
X1468118D01*
X1467272Y759462D02*
X1468118Y758615D01*
Y756923D01*
X1467272Y756076D01*
X1466426D01*
X1465579Y756923D01*
Y757769D01*
Y756923D01*
X1464733Y756076D01*
X1463886D01*
X1463040Y756923D01*
Y758615D01*
X1463886Y759462D01*
X1554734Y808734D02*
Y804502D01*
X1555580Y803656D01*
X1557273D01*
X1558120Y804502D01*
Y808734D01*
X1562352Y803656D02*
Y808734D01*
X1559812Y806195D01*
X1563198D01*
X1700784Y808734D02*
Y804502D01*
X1701630Y803656D01*
X1703323D01*
X1704170Y804502D01*
Y808734D01*
X1709248D02*
X1705862D01*
Y806195D01*
X1707555Y807042D01*
X1708401D01*
X1709248Y806195D01*
Y804502D01*
X1708401Y803656D01*
X1706709D01*
X1705862Y804502D01*
X1027428Y754380D02*
X1023196D01*
X1022350Y753534D01*
Y751841D01*
X1023196Y750994D01*
X1027428D01*
Y745916D02*
X1026582Y747609D01*
X1024889Y749302D01*
X1023196D01*
X1022350Y748455D01*
Y746762D01*
X1023196Y745916D01*
X1024043D01*
X1024889Y746762D01*
Y749302D01*
X1174748Y763270D02*
X1170516D01*
X1169670Y762424D01*
Y760731D01*
X1170516Y759884D01*
X1174748D01*
Y758192D02*
Y754806D01*
X1173902D01*
X1170516Y758192D01*
X1169670D01*
X622298Y965200D02*
X618066D01*
X617220Y964354D01*
Y962661D01*
X618066Y961814D01*
X622298D01*
X621452Y960122D02*
X622298Y959275D01*
Y957582D01*
X621452Y956736D01*
X620606D01*
X619759Y957582D01*
X618913Y956736D01*
X618066D01*
X617220Y957582D01*
Y959275D01*
X618066Y960122D01*
X618913D01*
X619759Y959275D01*
X620606Y960122D01*
X621452D01*
X619759Y959275D02*
Y957582D01*
X858518Y777240D02*
X854286D01*
X853440Y776394D01*
Y774701D01*
X854286Y773854D01*
X858518D01*
X854286Y772162D02*
X853440Y771315D01*
Y769622D01*
X854286Y768776D01*
X857672D01*
X858518Y769622D01*
Y771315D01*
X857672Y772162D01*
X856826D01*
X855979Y771315D01*
Y768776D01*
X330200Y1145538D02*
Y1140460D01*
X332739D01*
X333586Y1141306D01*
Y1144692D01*
X332739Y1145538D01*
X330200D01*
X335278Y1140460D02*
X336971D01*
X336125D01*
Y1145538D01*
X335278Y1144692D01*
X339510D02*
X340357Y1145538D01*
X342049D01*
X342896Y1144692D01*
Y1143846D01*
X342049Y1142999D01*
X341203D01*
X342049D01*
X342896Y1142153D01*
Y1141306D01*
X342049Y1140460D01*
X340357D01*
X339510Y1141306D01*
X681990Y1141728D02*
Y1136650D01*
X684529D01*
X685376Y1137496D01*
Y1140882D01*
X684529Y1141728D01*
X681990D01*
X687068Y1136650D02*
X688761D01*
X687915D01*
Y1141728D01*
X687068Y1140882D01*
X693839Y1136650D02*
Y1141728D01*
X691300Y1139189D01*
X694686D01*
X410210Y1282700D02*
Y1289048D01*
X413384D01*
X414442Y1287990D01*
Y1285874D01*
X413384Y1284816D01*
X410210D01*
X412326D02*
X414442Y1282700D01*
X417616D02*
X419732D01*
X420790Y1283758D01*
Y1285874D01*
X419732Y1286932D01*
X417616D01*
X416558Y1285874D01*
Y1283758D01*
X417616Y1282700D01*
X422906Y1289048D02*
Y1282700D01*
X426080D01*
X427138Y1283758D01*
Y1284816D01*
Y1285874D01*
X426080Y1286932D01*
X422906D01*
X430312Y1282700D02*
X432428D01*
X433486Y1283758D01*
Y1285874D01*
X432428Y1286932D01*
X430312D01*
X429254Y1285874D01*
Y1283758D01*
X430312Y1282700D01*
X436660Y1287990D02*
Y1286932D01*
X435602D01*
X437718D01*
X436660D01*
Y1283758D01*
X437718Y1282700D01*
X447240Y1289048D02*
Y1282700D01*
X450414D01*
X451472Y1283758D01*
Y1284816D01*
X450414Y1285874D01*
X447240D01*
X450414D01*
X451472Y1286932D01*
Y1287990D01*
X450414Y1289048D01*
X447240D01*
X454646Y1286932D02*
X456762D01*
X457820Y1285874D01*
Y1282700D01*
X454646D01*
X453588Y1283758D01*
X454646Y1284816D01*
X457820D01*
X459936Y1282700D02*
X463110D01*
X464168Y1283758D01*
X463110Y1284816D01*
X460993D01*
X459936Y1285874D01*
X460993Y1286932D01*
X464168D01*
X469458Y1282700D02*
X467341D01*
X466283Y1283758D01*
Y1285874D01*
X467341Y1286932D01*
X469458D01*
X470516Y1285874D01*
Y1284816D01*
X466283D01*
X481095Y1282700D02*
X478979Y1284816D01*
Y1286932D01*
X481095Y1289048D01*
X484269Y1282700D02*
X486385D01*
X485327D01*
Y1289048D01*
X484269Y1287990D01*
X493791Y1289048D02*
X489559D01*
Y1285874D01*
X491675Y1286932D01*
X492733D01*
X493791Y1285874D01*
Y1283758D01*
X492733Y1282700D01*
X490617D01*
X489559Y1283758D01*
X495907Y1289048D02*
Y1284816D01*
X498023Y1282700D01*
X500139Y1284816D01*
Y1289048D01*
X502255Y1282700D02*
X504371Y1284816D01*
Y1286932D01*
X502255Y1289048D01*
X577850Y1282700D02*
X579966D01*
X578908D01*
Y1289048D01*
X577850Y1287990D01*
X583140Y1283758D02*
X584198Y1282700D01*
X586314D01*
X587372Y1283758D01*
Y1287990D01*
X586314Y1289048D01*
X584198D01*
X583140Y1287990D01*
Y1286932D01*
X584198Y1285874D01*
X587372D01*
X589488Y1289048D02*
Y1284816D01*
X591604Y1282700D01*
X593720Y1284816D01*
Y1289048D01*
X602184D02*
X604300D01*
X603242D01*
Y1282700D01*
X602184D01*
X604300D01*
X607474D02*
Y1289048D01*
X611706Y1282700D01*
Y1289048D01*
X285750Y1290318D02*
Y1286086D01*
X287866Y1283970D01*
X289982Y1286086D01*
Y1290318D01*
X292098D02*
Y1283970D01*
X295272D01*
X296330Y1285028D01*
Y1286086D01*
X295272Y1287144D01*
X292098D01*
X295272D01*
X296330Y1288202D01*
Y1289260D01*
X295272Y1290318D01*
X292098D01*
X298446Y1283970D02*
Y1288202D01*
X300562Y1290318D01*
X302678Y1288202D01*
Y1283970D01*
Y1287144D01*
X298446D01*
X304794Y1290318D02*
X309026D01*
X306910D01*
Y1283970D01*
X311142Y1290318D02*
X315374D01*
X313258D01*
Y1283970D01*
X323838Y1290318D02*
X325954D01*
X324896D01*
Y1283970D01*
X323838D01*
X325954D01*
X329128D02*
Y1290318D01*
X333360Y1283970D01*
Y1290318D01*
X1775460Y1272538D02*
X1785617D01*
X1733550D02*
X1743707D01*
X1738628Y1277616D02*
Y1267459D01*
X1747942Y1289048D02*
X1743710D01*
Y1285874D01*
X1745826Y1286932D01*
X1746884D01*
X1747942Y1285874D01*
Y1283758D01*
X1746884Y1282700D01*
X1744768D01*
X1743710Y1283758D01*
X1750058Y1289048D02*
Y1284816D01*
X1752174Y1282700D01*
X1754290Y1284816D01*
Y1289048D01*
X1766986Y1282700D02*
X1762754D01*
X1766986Y1286932D01*
Y1287990D01*
X1765928Y1289048D01*
X1763812D01*
X1762754Y1287990D01*
X1775450Y1282700D02*
Y1286932D01*
X1777566Y1289048D01*
X1779682Y1286932D01*
Y1282700D01*
Y1285874D01*
X1775450D01*
X1631950Y1272538D02*
X1642107D01*
X1590040D02*
X1600197D01*
X1595118Y1277616D02*
Y1267459D01*
X1604432Y1289048D02*
X1600200D01*
Y1285874D01*
X1602316Y1286932D01*
X1603374D01*
X1604432Y1285874D01*
Y1283758D01*
X1603374Y1282700D01*
X1601258D01*
X1600200Y1283758D01*
X1606548Y1289048D02*
Y1284816D01*
X1608664Y1282700D01*
X1610780Y1284816D01*
Y1289048D01*
X1623476Y1282700D02*
X1619244D01*
X1623476Y1286932D01*
Y1287990D01*
X1622418Y1289048D01*
X1620302D01*
X1619244Y1287990D01*
X1631940Y1282700D02*
Y1286932D01*
X1634056Y1289048D01*
X1636172Y1286932D01*
Y1282700D01*
Y1285874D01*
X1631940D01*
X1484630Y1272538D02*
X1494787D01*
X1442720D02*
X1452877D01*
X1447798Y1277616D02*
Y1267459D01*
X1457112Y1289048D02*
X1452880D01*
Y1285874D01*
X1454996Y1286932D01*
X1456054D01*
X1457112Y1285874D01*
Y1283758D01*
X1456054Y1282700D01*
X1453938D01*
X1452880Y1283758D01*
X1459228Y1289048D02*
Y1284816D01*
X1461344Y1282700D01*
X1463460Y1284816D01*
Y1289048D01*
X1476156Y1282700D02*
X1471924D01*
X1476156Y1286932D01*
Y1287990D01*
X1475098Y1289048D01*
X1472982D01*
X1471924Y1287990D01*
X1484620Y1282700D02*
Y1286932D01*
X1486736Y1289048D01*
X1488852Y1286932D01*
Y1282700D01*
Y1285874D01*
X1484620D01*
X1309792Y1289048D02*
X1305560D01*
Y1285874D01*
X1307676Y1286932D01*
X1308734D01*
X1309792Y1285874D01*
Y1283758D01*
X1308734Y1282700D01*
X1306618D01*
X1305560Y1283758D01*
X1311908Y1289048D02*
Y1284816D01*
X1314024Y1282700D01*
X1316140Y1284816D01*
Y1289048D01*
X1328836Y1282700D02*
X1324604D01*
X1328836Y1286932D01*
Y1287990D01*
X1327778Y1289048D01*
X1325662D01*
X1324604Y1287990D01*
X1337300Y1282700D02*
Y1286932D01*
X1339416Y1289048D01*
X1341532Y1286932D01*
Y1282700D01*
Y1285874D01*
X1337300D01*
X1295400Y1272538D02*
X1305557D01*
X1300478Y1277616D02*
Y1267459D01*
X1337310Y1272538D02*
X1347467D01*
X1151890Y1282700D02*
X1154006D01*
X1152948D01*
Y1289048D01*
X1151890Y1287990D01*
X1161412Y1282700D02*
X1157180D01*
X1161412Y1286932D01*
Y1287990D01*
X1160354Y1289048D01*
X1158238D01*
X1157180Y1287990D01*
X1163528Y1289048D02*
Y1284816D01*
X1165644Y1282700D01*
X1167760Y1284816D01*
Y1289048D01*
X1180456Y1282700D02*
X1176224D01*
X1180456Y1286932D01*
Y1287990D01*
X1179398Y1289048D01*
X1177282D01*
X1176224Y1287990D01*
X1188920Y1282700D02*
Y1286932D01*
X1191036Y1289048D01*
X1193152Y1286932D01*
Y1282700D01*
Y1285874D01*
X1188920D01*
X1148080Y1272538D02*
X1158237D01*
X1153158Y1277616D02*
Y1267459D01*
X1189990Y1272538D02*
X1200147D01*
X1043940D02*
X1054097D01*
X1002030D02*
X1012187D01*
X1007108Y1277616D02*
Y1267459D01*
X1005840Y1282700D02*
X1007956D01*
X1006898D01*
Y1289048D01*
X1005840Y1287990D01*
X1015362Y1282700D02*
X1011130D01*
X1015362Y1286932D01*
Y1287990D01*
X1014304Y1289048D01*
X1012188D01*
X1011130Y1287990D01*
X1017478Y1289048D02*
Y1284816D01*
X1019594Y1282700D01*
X1021710Y1284816D01*
Y1289048D01*
X1034406Y1282700D02*
X1030174D01*
X1034406Y1286932D01*
Y1287990D01*
X1033348Y1289048D01*
X1031232D01*
X1030174Y1287990D01*
X1042870Y1282700D02*
Y1286932D01*
X1044986Y1289048D01*
X1047102Y1286932D01*
Y1282700D01*
Y1285874D01*
X1042870D01*
X854710Y1272538D02*
X864867D01*
X859788Y1277616D02*
Y1267459D01*
X896620Y1272538D02*
X906777D01*
X855132Y1282700D02*
X850900D01*
X855132Y1286932D01*
Y1287990D01*
X854074Y1289048D01*
X851958D01*
X850900Y1287990D01*
X857248Y1282700D02*
Y1283758D01*
X858306D01*
Y1282700D01*
X857248D01*
X866770Y1289048D02*
X862538D01*
Y1285874D01*
X864654Y1286932D01*
X865712D01*
X866770Y1285874D01*
Y1283758D01*
X865712Y1282700D01*
X863596D01*
X862538Y1283758D01*
X868886Y1285874D02*
X873118D01*
X875234Y1282700D02*
X877350D01*
X876292D01*
Y1289048D01*
X875234Y1287990D01*
X880524D02*
X881582Y1289048D01*
X883698D01*
X884756Y1287990D01*
Y1286932D01*
X883698Y1285874D01*
X882640D01*
X883698D01*
X884756Y1284816D01*
Y1283758D01*
X883698Y1282700D01*
X881582D01*
X880524Y1283758D01*
X886872Y1289048D02*
Y1284816D01*
X888988Y1282700D01*
X891104Y1284816D01*
Y1289048D01*
X903800Y1282700D02*
X899568D01*
X903800Y1286932D01*
Y1287990D01*
X902742Y1289048D01*
X900626D01*
X899568Y1287990D01*
X912263Y1282700D02*
Y1286932D01*
X914379Y1289048D01*
X916495Y1286932D01*
Y1282700D01*
Y1285874D01*
X912263D01*
X748030Y1272538D02*
X758187D01*
X706120D02*
X716277D01*
X711198Y1277616D02*
Y1267459D01*
X702310Y1282700D02*
X704426D01*
X703368D01*
Y1289048D01*
X702310Y1287990D01*
X707600Y1283758D02*
X708658Y1282700D01*
X710774D01*
X711832Y1283758D01*
Y1287990D01*
X710774Y1289048D01*
X708658D01*
X707600Y1287990D01*
Y1286932D01*
X708658Y1285874D01*
X711832D01*
X713948Y1289048D02*
Y1284816D01*
X716064Y1282700D01*
X718180Y1284816D01*
Y1289048D01*
X726644Y1282700D02*
X728760D01*
X727702D01*
Y1289048D01*
X726644Y1287990D01*
X731934Y1282700D02*
Y1283758D01*
X732992D01*
Y1282700D01*
X731934D01*
X740398D02*
Y1289048D01*
X737224Y1285874D01*
X741456D01*
X743572Y1287990D02*
X744630Y1289048D01*
X746746D01*
X747804Y1287990D01*
Y1286932D01*
X746746Y1285874D01*
X747804Y1284816D01*
Y1283758D01*
X746746Y1282700D01*
X744630D01*
X743572Y1283758D01*
Y1284816D01*
X744630Y1285874D01*
X743572Y1286932D01*
Y1287990D01*
X744630Y1285874D02*
X746746D01*
X756267Y1282700D02*
Y1286932D01*
X758383Y1289048D01*
X760499Y1286932D01*
Y1282700D01*
Y1285874D01*
X756267D01*
M02*
