M48
;Layer_Color=9474304
;FILE_FORMAT=4:4
METRIC,LZ
;TYPE=PLATED
T1F00S00C0.3300
T2F00S00C0.7112
T3F00S00C1.4000
T4F00S00C1.7000
T5F00S00C2.0000
T6F00S00C2.1000
T7F00S00C4.0000
%
T01
X0159043Y0074967
Y0077067
X0171573
X0172593Y0076017
X0171573Y0074967
X0173648
Y0077067
X0156968
X0157988Y0076017
X0156968Y0074967
X0144438
X0142363
X0143383Y0076017
X0142363Y0077067
X0144438
X0129579
X0127504
X0128524Y0076017
X0127504Y0074967
X0129579
X0115101
X0113026
X0114046Y0076017
X0113026Y0077067
X0115101
X0100496
X0098421
X0099441Y0076017
X0098421Y0074967
X0100496
X0083478Y0075221
X0081403
X0082423Y0076271
X0081403Y0077321
X0083478
X0036089Y0083076
Y0084576
X0034589
Y0083076
X0033089
Y0084576
X0057781Y009389
X0058801Y009494
X0057781Y009599
X0059856
Y009389
T02
X0169418Y0063627
X0168021Y0071755
X0163195Y0069977
X016129Y0076708
X0161163Y0078994
X0175768
X0175895Y0076708
X01778Y0069977
X0153416Y0071755
X0148209Y0069977
X0146685Y0076708
X0146558Y0078994
X0131699
X0131826Y0076708
X013335Y0069977
X0138811Y0071755
X0140208Y0063627
X0154813
X0125349
X0123952Y0071755
X0118872Y0069977
X0117348Y0076708
X0117221Y0078994
X0102616
X0102743Y0076708
X010414Y006985
X0109474Y0071882
X0110998Y0063373
X0096393
X0095123Y0071755
X0087757Y0070104
X0085725Y0076073
X0085598Y0079248
X0081153Y0065532
X0078105Y0078232
X00508
X004953Y0068834
X0050673Y0059182
X0037719Y0081026
X0038735Y0087757
X0031623Y0086614
X0024257Y0085217
X0022098Y0090043
Y0095504
X0033147
X0013208Y0116459
X0047752Y0107442
X0045847Y0104267
X004445Y0100584
X0058166Y0100203
X006096Y0099695
X006604Y0093091
X0052705
X0057404Y0085471
X0076327Y0108839
X008001Y009906
X0090043Y0099441
Y0101346
X0095885Y009906
X0105918Y0099441
Y0101346
X0110363Y0098933
X0111887Y0080772
X0097282
X0080264Y0081026
X0126365Y0080772
X0141224
X0155829
X0154559Y0098933
X014986Y0099314
Y0101219
X0139827Y0098933
X0135001Y0099314
Y0101219
X0124968Y0098933
X0120396Y0099314
Y0101219
X0164592
Y0099314
X0169164Y0098933
X0179197Y0099314
Y0101219
X0191008Y0108585
X0170434Y0080772
T03
X0028702Y0118325
X0032902
X0043561
X0047761
X007112
X007532
X0085979
X0090179
X0100711
X0104911
X0115316
X0119516
X0130048
X0134248
X014478
X014898
X0159512
X0163712
X0173863
X0178063
X0177863Y0121075
X0178063Y0123825
X0173863
X0174058Y0121075
X0163512
X0163712Y0123825
X0159512
X0159707Y0121075
X014878
X014898Y0123825
X014478
X0144975Y0121075
X0134048
X0134248Y0123825
X0130048
X0130243Y0121075
X0119316
X0119516Y0123825
X0115316
X0115511Y0121075
X0104711
X0104911Y0123825
X0100711
X0100906Y0121075
X0089979
X0090179Y0123825
X0085979
X0086174Y0121075
X007512
X007532Y0123825
X007112
X0071315Y0121075
X0047561
X0047761Y0123825
X0043561
X0043756Y0121075
X0032702
X0032902Y0123825
X0028702
X0028897Y0121075
T04
X0059563Y0114365
Y0123615
T05
X0054813Y0116165
X0064313
Y0120865
X0054813
T06
X0059563Y0120365
T07
X0188468Y0061214
X0013208
X0188468Y0124587
X0013208
M30
