G04 Layer_Color=8388736*
%FSLAX44Y44*%
%MOMM*%
G71*
G01*
G75*
%ADD51R,2.3100X2.4600*%
%ADD52R,1.3932X3.5032*%
%ADD53R,1.8032X1.5032*%
%ADD54R,4.5032X5.0032*%
%ADD55R,1.5032X1.8032*%
%ADD56R,5.0032X4.5032*%
%ADD57O,0.4532X1.7532*%
%ADD58R,0.4532X1.7532*%
G04:AMPARAMS|DCode=59|XSize=1.6002mm|YSize=1.2954mm|CornerRadius=0.3037mm|HoleSize=0mm|Usage=FLASHONLY|Rotation=90.000|XOffset=0mm|YOffset=0mm|HoleType=Round|Shape=RoundedRectangle|*
%AMROUNDEDRECTD59*
21,1,1.6002,0.6881,0,0,90.0*
21,1,0.9929,1.2954,0,0,90.0*
1,1,0.6073,0.3440,0.4964*
1,1,0.6073,0.3440,-0.4964*
1,1,0.6073,-0.3440,-0.4964*
1,1,0.6073,-0.3440,0.4964*
%
%ADD59ROUNDEDRECTD59*%
G04:AMPARAMS|DCode=60|XSize=1.6002mm|YSize=1.2954mm|CornerRadius=0.3037mm|HoleSize=0mm|Usage=FLASHONLY|Rotation=180.000|XOffset=0mm|YOffset=0mm|HoleType=Round|Shape=RoundedRectangle|*
%AMROUNDEDRECTD60*
21,1,1.6002,0.6881,0,0,180.0*
21,1,0.9929,1.2954,0,0,180.0*
1,1,0.6073,-0.4964,0.3440*
1,1,0.6073,0.4964,0.3440*
1,1,0.6073,0.4964,-0.3440*
1,1,0.6073,-0.4964,-0.3440*
%
%ADD60ROUNDEDRECTD60*%
G04:AMPARAMS|DCode=61|XSize=2.0066mm|YSize=1.397mm|CornerRadius=0.3045mm|HoleSize=0mm|Usage=FLASHONLY|Rotation=270.000|XOffset=0mm|YOffset=0mm|HoleType=Round|Shape=RoundedRectangle|*
%AMROUNDEDRECTD61*
21,1,2.0066,0.7879,0,0,270.0*
21,1,1.3975,1.3970,0,0,270.0*
1,1,0.6091,-0.3940,-0.6987*
1,1,0.6091,-0.3940,0.6987*
1,1,0.6091,0.3940,0.6987*
1,1,0.6091,0.3940,-0.6987*
%
%ADD61ROUNDEDRECTD61*%
G04:AMPARAMS|DCode=62|XSize=2.0066mm|YSize=1.397mm|CornerRadius=0.3045mm|HoleSize=0mm|Usage=FLASHONLY|Rotation=0.000|XOffset=0mm|YOffset=0mm|HoleType=Round|Shape=RoundedRectangle|*
%AMROUNDEDRECTD62*
21,1,2.0066,0.7879,0,0,0.0*
21,1,1.3975,1.3970,0,0,0.0*
1,1,0.6091,0.6987,-0.3940*
1,1,0.6091,-0.6987,-0.3940*
1,1,0.6091,-0.6987,0.3940*
1,1,0.6091,0.6987,0.3940*
%
%ADD62ROUNDEDRECTD62*%
%ADD63R,3.7032X1.9832*%
%ADD64R,2.7032X2.1032*%
%ADD65R,2.1032X2.7032*%
%ADD66R,3.3532X1.2032*%
%ADD67R,1.2032X3.3532*%
%ADD68R,3.2032X3.2032*%
%ADD69R,3.2032X3.2032*%
%ADD70R,3.1032X5.6032*%
%ADD71R,5.6032X3.1032*%
%ADD72R,3.4032X1.8032*%
%ADD73R,1.8032X3.4032*%
%ADD74R,3.2032X2.9032*%
%ADD75R,0.9632X1.7032*%
%ADD76C,2.7032*%
%ADD77C,2.2032*%
%ADD78C,2.0000*%
%ADD79C,7.2032*%
%ADD80C,1.9832*%
%ADD81C,1.4732*%
%ADD82C,0.8032*%
D51*
X345890Y838260D02*
D03*
D52*
X731520Y715260D02*
D03*
X756920Y651260D02*
D03*
X706120D02*
D03*
D53*
X648810Y763940D02*
D03*
X628810D02*
D03*
D54*
X638810Y726440D02*
D03*
D55*
X531460Y732630D02*
D03*
Y712630D02*
D03*
D56*
X568960Y722630D02*
D03*
D57*
X365390Y866260D02*
D03*
X358890D02*
D03*
X352390D02*
D03*
X345890D02*
D03*
X339390D02*
D03*
X332890D02*
D03*
X326390D02*
D03*
X365390Y810260D02*
D03*
X358890D02*
D03*
X352390D02*
D03*
X345890D02*
D03*
X339390D02*
D03*
X332890D02*
D03*
D58*
X326390D02*
D03*
D59*
X383159Y788670D02*
D03*
X366141D02*
D03*
X402209Y857250D02*
D03*
X385191D02*
D03*
X1237361Y692150D02*
D03*
X1254379D02*
D03*
X1387221D02*
D03*
X1404239D02*
D03*
X1533271Y694690D02*
D03*
X1550289D02*
D03*
X1680591Y692150D02*
D03*
X1697609D02*
D03*
X949071Y689610D02*
D03*
X966089D02*
D03*
X1095121Y692150D02*
D03*
X1112139D02*
D03*
X643509Y920750D02*
D03*
X626491D02*
D03*
X800481Y708660D02*
D03*
X817499D02*
D03*
X321691Y913130D02*
D03*
X338709D02*
D03*
X358521Y890270D02*
D03*
X375539D02*
D03*
X385191Y833120D02*
D03*
X402209D02*
D03*
X338709Y890270D02*
D03*
X321691D02*
D03*
X1320419Y1068070D02*
D03*
X1303401D02*
D03*
X1467739D02*
D03*
X1450721D02*
D03*
X1615059D02*
D03*
X1598041D02*
D03*
X1761109D02*
D03*
X1744091D02*
D03*
X1028319D02*
D03*
X1011301D02*
D03*
X1174369D02*
D03*
X1157351D02*
D03*
X634111Y828040D02*
D03*
X651129D02*
D03*
X488569Y924560D02*
D03*
X471551D02*
D03*
X868299Y1068070D02*
D03*
X851281D02*
D03*
D60*
X424180Y853059D02*
D03*
Y836041D02*
D03*
X1333500Y714121D02*
D03*
Y731139D02*
D03*
X1264920Y650621D02*
D03*
Y667639D02*
D03*
X1483360Y714121D02*
D03*
Y731139D02*
D03*
X1414780Y650621D02*
D03*
Y667639D02*
D03*
X1631950Y714121D02*
D03*
Y731139D02*
D03*
X1560830Y650621D02*
D03*
Y667639D02*
D03*
X1778000Y714121D02*
D03*
Y731139D02*
D03*
X1705610Y650621D02*
D03*
Y667639D02*
D03*
X1041400Y714121D02*
D03*
Y731139D02*
D03*
X976630Y649351D02*
D03*
Y666369D02*
D03*
X1188720Y714121D02*
D03*
Y731139D02*
D03*
X1122680Y650621D02*
D03*
Y667639D02*
D03*
X548640Y870331D02*
D03*
Y887349D02*
D03*
X574040Y870331D02*
D03*
Y887349D02*
D03*
X877570Y716661D02*
D03*
Y733679D02*
D03*
X824230Y668401D02*
D03*
Y685419D02*
D03*
X278130Y990981D02*
D03*
Y1007999D02*
D03*
X298450Y893191D02*
D03*
Y910209D02*
D03*
X1334770Y637921D02*
D03*
Y654939D02*
D03*
X1239520Y798449D02*
D03*
Y781431D02*
D03*
Y667639D02*
D03*
Y650621D02*
D03*
Y748919D02*
D03*
Y731901D02*
D03*
X1485900Y637921D02*
D03*
Y654939D02*
D03*
X1388110Y798449D02*
D03*
Y781431D02*
D03*
X1389380Y667639D02*
D03*
Y650621D02*
D03*
X1388110Y748919D02*
D03*
Y731901D02*
D03*
X1634490Y637921D02*
D03*
Y654939D02*
D03*
X1534160Y798449D02*
D03*
Y781431D02*
D03*
Y667639D02*
D03*
Y650621D02*
D03*
Y748919D02*
D03*
Y731901D02*
D03*
X1780540Y637921D02*
D03*
Y654939D02*
D03*
X1680210Y798449D02*
D03*
Y781431D02*
D03*
Y667639D02*
D03*
Y650621D02*
D03*
Y748919D02*
D03*
Y731901D02*
D03*
X1042670Y654939D02*
D03*
Y637921D02*
D03*
X951230Y798068D02*
D03*
Y781050D02*
D03*
Y666369D02*
D03*
Y649351D02*
D03*
Y748919D02*
D03*
Y731901D02*
D03*
X1189990Y654939D02*
D03*
Y637921D02*
D03*
X1094740Y798449D02*
D03*
Y781431D02*
D03*
X1097280Y667639D02*
D03*
Y650621D02*
D03*
X1094740Y748919D02*
D03*
Y731901D02*
D03*
X547370Y974979D02*
D03*
Y957961D02*
D03*
X548640Y849249D02*
D03*
Y832231D02*
D03*
X547370Y934339D02*
D03*
Y917321D02*
D03*
X880110Y641731D02*
D03*
Y658749D02*
D03*
X753110Y759079D02*
D03*
Y742061D02*
D03*
X781050D02*
D03*
Y759079D02*
D03*
X800100Y668401D02*
D03*
Y685419D02*
D03*
D61*
X267208Y887730D02*
D03*
X238252D02*
D03*
X267208Y914400D02*
D03*
X238252D02*
D03*
X267208Y941070D02*
D03*
X238252D02*
D03*
X267208Y967740D02*
D03*
X238252D02*
D03*
X289052Y941070D02*
D03*
X318008D02*
D03*
X289052Y967740D02*
D03*
X318008D02*
D03*
X478282Y762000D02*
D03*
X507238D02*
D03*
X1321562Y1033780D02*
D03*
X1350518D02*
D03*
X1321562Y974090D02*
D03*
X1350518D02*
D03*
X1468882D02*
D03*
X1497838D02*
D03*
X1467612Y1033780D02*
D03*
X1496568D02*
D03*
X1614932D02*
D03*
X1643888D02*
D03*
X1614932Y974090D02*
D03*
X1643888D02*
D03*
X1760982D02*
D03*
X1789938D02*
D03*
X1760982Y1033780D02*
D03*
X1789938D02*
D03*
X1028192D02*
D03*
X1057148D02*
D03*
X1028192Y972820D02*
D03*
X1057148D02*
D03*
X1175512D02*
D03*
X1204468D02*
D03*
X1175512Y1033780D02*
D03*
X1204468D02*
D03*
X488188Y1023620D02*
D03*
X459232D02*
D03*
X488188Y994410D02*
D03*
X459232D02*
D03*
X870712Y1033780D02*
D03*
X899668D02*
D03*
X870712Y974090D02*
D03*
X899668D02*
D03*
D62*
X1336040Y796798D02*
D03*
Y767842D02*
D03*
X1487170Y796798D02*
D03*
Y767842D02*
D03*
X1633220Y796798D02*
D03*
Y767842D02*
D03*
X1779270Y796798D02*
D03*
Y767842D02*
D03*
X1045210Y796798D02*
D03*
Y767842D02*
D03*
X1191260Y796798D02*
D03*
Y767842D02*
D03*
X646430Y977138D02*
D03*
Y948182D02*
D03*
X877570Y798068D02*
D03*
Y769112D02*
D03*
D63*
X278130Y1090410D02*
D03*
Y1038110D02*
D03*
X1254760Y1122160D02*
D03*
Y1069860D02*
D03*
X1402080Y1122160D02*
D03*
Y1069860D02*
D03*
X1549400Y1122160D02*
D03*
Y1069860D02*
D03*
X1694180Y1122160D02*
D03*
Y1069860D02*
D03*
X963930Y1122160D02*
D03*
Y1069860D02*
D03*
X1108710Y1122160D02*
D03*
Y1069860D02*
D03*
X415290Y988810D02*
D03*
Y936510D02*
D03*
X807720Y1122160D02*
D03*
Y1069860D02*
D03*
D64*
X275910Y768350D02*
D03*
X315910D02*
D03*
X388300Y1120140D02*
D03*
X348300D02*
D03*
X740090Y1116330D02*
D03*
X700090D02*
D03*
D65*
X228600Y1137600D02*
D03*
Y1097600D02*
D03*
X1247140Y1216340D02*
D03*
Y1176340D02*
D03*
X1394460Y1216340D02*
D03*
Y1176340D02*
D03*
X1541780Y1216340D02*
D03*
Y1176340D02*
D03*
X1687830Y1216340D02*
D03*
Y1176340D02*
D03*
X955040Y1216340D02*
D03*
Y1176340D02*
D03*
X1101090Y1216340D02*
D03*
Y1176340D02*
D03*
X403860Y1074100D02*
D03*
Y1034100D02*
D03*
X807720Y1215070D02*
D03*
Y1175070D02*
D03*
D66*
X370990Y755650D02*
D03*
X421490D02*
D03*
D67*
X1305560Y690730D02*
D03*
Y640230D02*
D03*
X1456690Y690730D02*
D03*
Y640230D02*
D03*
X1602740Y690730D02*
D03*
Y640230D02*
D03*
X1748790Y690730D02*
D03*
Y640230D02*
D03*
X1013460Y690730D02*
D03*
Y640230D02*
D03*
X1160780Y690730D02*
D03*
Y640230D02*
D03*
X605790Y877420D02*
D03*
Y826920D02*
D03*
X852170Y694540D02*
D03*
Y644040D02*
D03*
D68*
X1910080Y1112520D02*
D03*
X326390Y998220D02*
D03*
Y1036320D02*
D03*
X482600Y584200D02*
D03*
X1344930Y1111250D02*
D03*
X1303020D02*
D03*
X1492250D02*
D03*
X1450340D02*
D03*
X1639570Y1109980D02*
D03*
X1785620D02*
D03*
X895350Y1111250D02*
D03*
D69*
X1597660Y1109980D02*
D03*
X1744091Y1109599D02*
D03*
X106680Y1164590D02*
D03*
X1052830Y1111250D02*
D03*
X1010920D02*
D03*
X1197610D02*
D03*
X1156970D02*
D03*
X750570Y1064260D02*
D03*
X499110Y961390D02*
D03*
X462280D02*
D03*
X855980Y1111250D02*
D03*
D70*
X415530Y669290D02*
D03*
X318530D02*
D03*
X649210Y1060450D02*
D03*
X552210D02*
D03*
D71*
X1295400Y841770D02*
D03*
Y938770D02*
D03*
X1442720Y841770D02*
D03*
Y938770D02*
D03*
X1588770Y841770D02*
D03*
Y938770D02*
D03*
X1734820Y841770D02*
D03*
Y938770D02*
D03*
X1003300Y841770D02*
D03*
Y938770D02*
D03*
X1149350Y841770D02*
D03*
Y938770D02*
D03*
X844550Y841770D02*
D03*
Y938770D02*
D03*
D72*
X287890Y835660D02*
D03*
X237890D02*
D03*
X1287380Y1005840D02*
D03*
X1237380D02*
D03*
X1435970D02*
D03*
X1385970D02*
D03*
X1583290D02*
D03*
X1533290D02*
D03*
X1729340D02*
D03*
X1679340D02*
D03*
X996550Y1007110D02*
D03*
X946550D02*
D03*
X1141330Y1005840D02*
D03*
X1091330D02*
D03*
X503790Y1075690D02*
D03*
X453790D02*
D03*
X837800Y1007110D02*
D03*
X787800D02*
D03*
D73*
X478790Y720960D02*
D03*
Y670960D02*
D03*
D74*
X1285240Y760170D02*
D03*
X1433830D02*
D03*
X1579880D02*
D03*
X1725930D02*
D03*
X994410D02*
D03*
X1140460D02*
D03*
X588010Y949400D02*
D03*
X824230Y762710D02*
D03*
D75*
X1266190Y731670D02*
D03*
X1278890D02*
D03*
X1291590D02*
D03*
X1304290D02*
D03*
X1266190Y788670D02*
D03*
X1278890D02*
D03*
X1291590D02*
D03*
X1304290D02*
D03*
X1452880D02*
D03*
X1440180D02*
D03*
X1427480D02*
D03*
X1414780D02*
D03*
X1452880Y731670D02*
D03*
X1440180D02*
D03*
X1427480D02*
D03*
X1414780D02*
D03*
X1560830D02*
D03*
X1573530D02*
D03*
X1586230D02*
D03*
X1598930D02*
D03*
X1560830Y788670D02*
D03*
X1573530D02*
D03*
X1586230D02*
D03*
X1598930D02*
D03*
X1744980D02*
D03*
X1732280D02*
D03*
X1719580D02*
D03*
X1706880D02*
D03*
X1744980Y731670D02*
D03*
X1732280D02*
D03*
X1719580D02*
D03*
X1706880D02*
D03*
X975360D02*
D03*
X988060D02*
D03*
X1000760D02*
D03*
X1013460D02*
D03*
X975360Y788670D02*
D03*
X988060D02*
D03*
X1000760D02*
D03*
X1013460D02*
D03*
X1159510D02*
D03*
X1146810D02*
D03*
X1134110D02*
D03*
X1121410D02*
D03*
X1159510Y731670D02*
D03*
X1146810D02*
D03*
X1134110D02*
D03*
X1121410D02*
D03*
X568960Y920900D02*
D03*
X581660D02*
D03*
X594360D02*
D03*
X607060D02*
D03*
X568960Y977900D02*
D03*
X581660D02*
D03*
X594360D02*
D03*
X607060D02*
D03*
X843280Y791210D02*
D03*
X830580D02*
D03*
X817880D02*
D03*
X805180D02*
D03*
X843280Y734210D02*
D03*
X830580D02*
D03*
X817880D02*
D03*
X805180D02*
D03*
D76*
X548130Y1161650D02*
D03*
Y1208650D02*
D03*
X643130Y1161650D02*
D03*
Y1208650D02*
D03*
X595630Y1203650D02*
D03*
D77*
Y1143650D02*
D03*
Y1236150D02*
D03*
D78*
X1856740Y1189990D02*
D03*
X1847850Y670560D02*
D03*
X177800D02*
D03*
D79*
X132080Y1245870D02*
D03*
X1884680D02*
D03*
X132080Y612140D02*
D03*
X1884680D02*
D03*
D80*
X1007110Y1238250D02*
D03*
X1049110D02*
D03*
Y1183250D02*
D03*
X1007110D02*
D03*
X1009060Y1210750D02*
D03*
X1047110D02*
D03*
X1153160Y1238250D02*
D03*
X1195160D02*
D03*
Y1183250D02*
D03*
X1153160D02*
D03*
X1155110Y1210750D02*
D03*
X1193160D02*
D03*
X435610Y1238250D02*
D03*
X477610D02*
D03*
Y1183250D02*
D03*
X435610D02*
D03*
X437560Y1210750D02*
D03*
X475610D02*
D03*
X1300480Y1238250D02*
D03*
X1342480D02*
D03*
Y1183250D02*
D03*
X1300480D02*
D03*
X1302430Y1210750D02*
D03*
X1340480D02*
D03*
X1447800Y1238250D02*
D03*
X1489800D02*
D03*
Y1183250D02*
D03*
X1447800D02*
D03*
X1449750Y1210750D02*
D03*
X1487800D02*
D03*
X1595120Y1238250D02*
D03*
X1637120D02*
D03*
Y1183250D02*
D03*
X1595120D02*
D03*
X1597070Y1210750D02*
D03*
X1635120D02*
D03*
X1738630Y1238250D02*
D03*
X1780630D02*
D03*
Y1183250D02*
D03*
X1738630D02*
D03*
X1740580Y1210750D02*
D03*
X1778630D02*
D03*
X859790Y1238250D02*
D03*
X901790D02*
D03*
Y1183250D02*
D03*
X859790D02*
D03*
X861740Y1210750D02*
D03*
X899790D02*
D03*
X711200Y1238250D02*
D03*
X753200D02*
D03*
Y1183250D02*
D03*
X711200D02*
D03*
X713150Y1210750D02*
D03*
X751200D02*
D03*
X287020Y1238250D02*
D03*
X329020D02*
D03*
Y1183250D02*
D03*
X287020D02*
D03*
X288970Y1210750D02*
D03*
X327020D02*
D03*
D81*
X581660Y1002030D02*
D03*
X609600Y996950D02*
D03*
X802640Y810260D02*
D03*
X855980Y792480D02*
D03*
X1026160Y789940D02*
D03*
X972820Y807720D02*
D03*
X1172210Y789940D02*
D03*
X1118870Y807720D02*
D03*
X1316990Y789940D02*
D03*
X1263650Y807720D02*
D03*
X1465580Y789940D02*
D03*
X1412240Y807720D02*
D03*
X1611630Y789940D02*
D03*
X1558290Y807720D02*
D03*
X1757680Y789940D02*
D03*
X1704340Y807720D02*
D03*
X316230Y866140D02*
D03*
X387350Y877570D02*
D03*
X377190Y810260D02*
D03*
X331470Y955040D02*
D03*
X220980D02*
D03*
Y900430D02*
D03*
X242570Y852170D02*
D03*
X495300Y688340D02*
D03*
X508000Y782320D02*
D03*
X574040Y854710D02*
D03*
X527050Y930910D02*
D03*
X660400D02*
D03*
X458470Y1042670D02*
D03*
X444500Y1005840D02*
D03*
X477520Y1074420D02*
D03*
X132080Y1164590D02*
D03*
X506730Y591820D02*
D03*
X1910080Y1085850D02*
D03*
X763270Y1088390D02*
D03*
X900430Y1013460D02*
D03*
Y994410D02*
D03*
X800100Y990600D02*
D03*
X857250Y760730D02*
D03*
X877570Y701040D02*
D03*
X811530Y655320D02*
D03*
X951230Y717550D02*
D03*
X1027430Y767080D02*
D03*
X963930Y633730D02*
D03*
X1041400Y698500D02*
D03*
X1109980Y633730D02*
D03*
X1173480Y767080D02*
D03*
X1318260D02*
D03*
X1239520Y717550D02*
D03*
X1333500Y699770D02*
D03*
X1253490Y636270D02*
D03*
X1094740Y718820D02*
D03*
X1188720Y699770D02*
D03*
X1402080Y636270D02*
D03*
X1482090Y699770D02*
D03*
X1388110Y717550D02*
D03*
X1466850Y767080D02*
D03*
X1548130Y636270D02*
D03*
X1534160Y717550D02*
D03*
X1612900Y767080D02*
D03*
X1694180Y636270D02*
D03*
X1680210Y717550D02*
D03*
X1758950Y767080D02*
D03*
X1778000Y699770D02*
D03*
X1631950D02*
D03*
X781050Y782320D02*
D03*
X958850Y990600D02*
D03*
X1059180Y994410D02*
D03*
Y1013460D02*
D03*
X1103630Y989330D02*
D03*
X1203960Y993140D02*
D03*
Y1012190D02*
D03*
X1249680Y989330D02*
D03*
X1350010Y993140D02*
D03*
Y1012190D02*
D03*
X1398270Y989330D02*
D03*
X1498600Y993140D02*
D03*
Y1012190D02*
D03*
X1545590Y989330D02*
D03*
X1645920Y993140D02*
D03*
Y1012190D02*
D03*
X1691640Y989330D02*
D03*
X1791970Y993140D02*
D03*
Y1012190D02*
D03*
D82*
X360890Y830760D02*
D03*
Y845760D02*
D03*
X330890Y830760D02*
D03*
Y845760D02*
D03*
X345890Y830760D02*
D03*
Y845760D02*
D03*
X1285240Y760170D02*
D03*
X1295790Y770670D02*
D03*
Y749670D02*
D03*
X1275040D02*
D03*
Y770670D02*
D03*
X1423630D02*
D03*
Y749670D02*
D03*
X1444380D02*
D03*
Y770670D02*
D03*
X1433830Y760170D02*
D03*
X1579880D02*
D03*
X1590430Y770670D02*
D03*
Y749670D02*
D03*
X1569680D02*
D03*
Y770670D02*
D03*
X1715730D02*
D03*
Y749670D02*
D03*
X1736480D02*
D03*
Y770670D02*
D03*
X1725930Y760170D02*
D03*
X994410D02*
D03*
X1004960Y770670D02*
D03*
Y749670D02*
D03*
X984210D02*
D03*
Y770670D02*
D03*
X1130260D02*
D03*
Y749670D02*
D03*
X1151010D02*
D03*
Y770670D02*
D03*
X1140460Y760170D02*
D03*
X588010Y949400D02*
D03*
X598560Y959900D02*
D03*
Y938900D02*
D03*
X577810D02*
D03*
Y959900D02*
D03*
X814030Y773210D02*
D03*
Y752210D02*
D03*
X834780D02*
D03*
Y773210D02*
D03*
X824230Y762710D02*
D03*
M02*
