G04 Layer_Color=8388736*
%FSLAX44Y44*%
%MOMM*%
G71*
G01*
G75*
%ADD51R,2.3100X2.4600*%
G04:AMPARAMS|DCode=52|XSize=1.6002mm|YSize=1.2954mm|CornerRadius=0.3037mm|HoleSize=0mm|Usage=FLASHONLY|Rotation=0.000|XOffset=0mm|YOffset=0mm|HoleType=Round|Shape=RoundedRectangle|*
%AMROUNDEDRECTD52*
21,1,1.6002,0.6881,0,0,0.0*
21,1,0.9929,1.2954,0,0,0.0*
1,1,0.6073,0.4964,-0.3440*
1,1,0.6073,-0.4964,-0.3440*
1,1,0.6073,-0.4964,0.3440*
1,1,0.6073,0.4964,0.3440*
%
%ADD52ROUNDEDRECTD52*%
%ADD53R,2.1032X2.7032*%
%ADD54R,3.7032X1.9832*%
%ADD55R,3.2032X3.2032*%
%ADD56R,3.2032X3.2032*%
G04:AMPARAMS|DCode=57|XSize=1.6002mm|YSize=1.2954mm|CornerRadius=0.3037mm|HoleSize=0mm|Usage=FLASHONLY|Rotation=270.000|XOffset=0mm|YOffset=0mm|HoleType=Round|Shape=RoundedRectangle|*
%AMROUNDEDRECTD57*
21,1,1.6002,0.6881,0,0,270.0*
21,1,0.9929,1.2954,0,0,270.0*
1,1,0.6073,-0.3440,-0.4964*
1,1,0.6073,-0.3440,0.4964*
1,1,0.6073,0.3440,0.4964*
1,1,0.6073,0.3440,-0.4964*
%
%ADD57ROUNDEDRECTD57*%
%ADD58R,3.2032X2.9032*%
%ADD59R,0.9632X1.7032*%
%ADD60R,3.4032X1.8032*%
%ADD61R,1.8032X3.4032*%
%ADD62R,5.6032X3.1032*%
%ADD63R,3.1032X5.6032*%
%ADD64R,1.2032X3.3532*%
%ADD65R,3.3532X1.2032*%
%ADD66R,2.7032X2.1032*%
G04:AMPARAMS|DCode=67|XSize=2.0066mm|YSize=1.397mm|CornerRadius=0.3045mm|HoleSize=0mm|Usage=FLASHONLY|Rotation=90.000|XOffset=0mm|YOffset=0mm|HoleType=Round|Shape=RoundedRectangle|*
%AMROUNDEDRECTD67*
21,1,2.0066,0.7879,0,0,90.0*
21,1,1.3975,1.3970,0,0,90.0*
1,1,0.6091,0.3940,0.6987*
1,1,0.6091,0.3940,-0.6987*
1,1,0.6091,-0.3940,-0.6987*
1,1,0.6091,-0.3940,0.6987*
%
%ADD67ROUNDEDRECTD67*%
G04:AMPARAMS|DCode=68|XSize=2.0066mm|YSize=1.397mm|CornerRadius=0.3045mm|HoleSize=0mm|Usage=FLASHONLY|Rotation=0.000|XOffset=0mm|YOffset=0mm|HoleType=Round|Shape=RoundedRectangle|*
%AMROUNDEDRECTD68*
21,1,2.0066,0.7879,0,0,0.0*
21,1,1.3975,1.3970,0,0,0.0*
1,1,0.6091,0.6987,-0.3940*
1,1,0.6091,-0.6987,-0.3940*
1,1,0.6091,-0.6987,0.3940*
1,1,0.6091,0.6987,0.3940*
%
%ADD68ROUNDEDRECTD68*%
%ADD69R,0.4532X1.7532*%
%ADD70O,0.4532X1.7532*%
%ADD71R,5.0032X4.5032*%
%ADD72R,1.5032X1.8032*%
%ADD73R,4.5032X5.0032*%
%ADD74R,1.8032X1.5032*%
%ADD75R,1.3932X3.5032*%
%ADD76C,1.9832*%
%ADD77C,7.2032*%
%ADD78C,2.0000*%
%ADD79C,2.2032*%
%ADD80C,2.7032*%
%ADD81C,1.4732*%
%ADD82C,0.8032*%
D51*
X345890Y838260D02*
D03*
D52*
X1680210Y731901D02*
D03*
Y748919D02*
D03*
X1778000Y731139D02*
D03*
Y714121D02*
D03*
X1780540Y654939D02*
D03*
Y637921D02*
D03*
X800100Y685419D02*
D03*
Y668401D02*
D03*
X781050Y759079D02*
D03*
Y742061D02*
D03*
X753110D02*
D03*
Y759079D02*
D03*
X880110Y658749D02*
D03*
Y641731D02*
D03*
X547370Y917321D02*
D03*
Y934339D02*
D03*
X548640Y832231D02*
D03*
Y849249D02*
D03*
X547370Y957961D02*
D03*
Y974979D02*
D03*
X1094740Y731901D02*
D03*
Y748919D02*
D03*
X1097280Y650621D02*
D03*
Y667639D02*
D03*
X1094740Y781431D02*
D03*
Y798449D02*
D03*
X1189990Y637921D02*
D03*
Y654939D02*
D03*
X951230Y731901D02*
D03*
Y748919D02*
D03*
Y649351D02*
D03*
Y666369D02*
D03*
Y781050D02*
D03*
Y798068D02*
D03*
X1042670Y637921D02*
D03*
Y654939D02*
D03*
X1680210Y650621D02*
D03*
Y667639D02*
D03*
Y781431D02*
D03*
Y798449D02*
D03*
X1534160Y731901D02*
D03*
Y748919D02*
D03*
Y650621D02*
D03*
Y667639D02*
D03*
Y781431D02*
D03*
Y798449D02*
D03*
X1634490Y654939D02*
D03*
Y637921D02*
D03*
X1388110Y731901D02*
D03*
Y748919D02*
D03*
X1389380Y650621D02*
D03*
Y667639D02*
D03*
X1388110Y781431D02*
D03*
Y798449D02*
D03*
X1485900Y654939D02*
D03*
Y637921D02*
D03*
X1239520Y731901D02*
D03*
Y748919D02*
D03*
Y650621D02*
D03*
Y667639D02*
D03*
Y781431D02*
D03*
Y798449D02*
D03*
X1334770Y654939D02*
D03*
Y637921D02*
D03*
X298450Y910209D02*
D03*
Y893191D02*
D03*
X278130Y1007999D02*
D03*
Y990981D02*
D03*
X824230Y685419D02*
D03*
Y668401D02*
D03*
X877570Y733679D02*
D03*
Y716661D02*
D03*
X574040Y887349D02*
D03*
Y870331D02*
D03*
X548640Y887349D02*
D03*
Y870331D02*
D03*
X1122680Y667639D02*
D03*
Y650621D02*
D03*
X1188720Y731139D02*
D03*
Y714121D02*
D03*
X976630Y666369D02*
D03*
Y649351D02*
D03*
X1041400Y731139D02*
D03*
Y714121D02*
D03*
X1705610Y667639D02*
D03*
Y650621D02*
D03*
X1560830Y667639D02*
D03*
Y650621D02*
D03*
X1631950Y731139D02*
D03*
Y714121D02*
D03*
X1414780Y667639D02*
D03*
Y650621D02*
D03*
X1483360Y731139D02*
D03*
Y714121D02*
D03*
X1264920Y667639D02*
D03*
Y650621D02*
D03*
X1333500Y731139D02*
D03*
Y714121D02*
D03*
X424180Y836041D02*
D03*
Y853059D02*
D03*
D53*
X1394460Y1176340D02*
D03*
Y1216340D02*
D03*
X1541780Y1176340D02*
D03*
Y1216340D02*
D03*
X1687830Y1176340D02*
D03*
Y1216340D02*
D03*
X807720Y1175070D02*
D03*
Y1215070D02*
D03*
X403860Y1034100D02*
D03*
Y1074100D02*
D03*
X1101090Y1176340D02*
D03*
Y1216340D02*
D03*
X955040Y1176340D02*
D03*
Y1216340D02*
D03*
X1247140Y1176340D02*
D03*
Y1216340D02*
D03*
X228600Y1097600D02*
D03*
Y1137600D02*
D03*
D54*
X1694180Y1069860D02*
D03*
Y1122160D02*
D03*
X807720Y1069860D02*
D03*
Y1122160D02*
D03*
X415290Y936510D02*
D03*
Y988810D02*
D03*
X1108710Y1069860D02*
D03*
Y1122160D02*
D03*
X963930Y1069860D02*
D03*
Y1122160D02*
D03*
X1549400Y1069860D02*
D03*
Y1122160D02*
D03*
X1402080Y1069860D02*
D03*
Y1122160D02*
D03*
X1254760Y1069860D02*
D03*
Y1122160D02*
D03*
X278130Y1038110D02*
D03*
Y1090410D02*
D03*
D55*
X1785620Y1109980D02*
D03*
X895350Y1111250D02*
D03*
X1639570Y1109980D02*
D03*
X1450340Y1111250D02*
D03*
X1492250D02*
D03*
X1303020D02*
D03*
X1344930D02*
D03*
X482600Y584200D02*
D03*
X326390Y1036320D02*
D03*
Y998220D02*
D03*
X1910080Y1112520D02*
D03*
D56*
X1744091Y1109599D02*
D03*
X855980Y1111250D02*
D03*
X462280Y961390D02*
D03*
X499110D02*
D03*
X750570Y1064260D02*
D03*
X1156970Y1111250D02*
D03*
X1197610D02*
D03*
X1010920D02*
D03*
X1052830D02*
D03*
X106680Y1164590D02*
D03*
X1597660Y1109980D02*
D03*
D57*
X1550289Y694690D02*
D03*
X1533271D02*
D03*
X851281Y1068070D02*
D03*
X868299D02*
D03*
X471551Y924560D02*
D03*
X488569D02*
D03*
X651129Y828040D02*
D03*
X634111D02*
D03*
X1157351Y1068070D02*
D03*
X1174369D02*
D03*
X1011301D02*
D03*
X1028319D02*
D03*
X1744091D02*
D03*
X1761109D02*
D03*
X1598041D02*
D03*
X1615059D02*
D03*
X1450721D02*
D03*
X1467739D02*
D03*
X1303401D02*
D03*
X1320419D02*
D03*
X321691Y890270D02*
D03*
X338709D02*
D03*
X402209Y833120D02*
D03*
X385191D02*
D03*
X375539Y890270D02*
D03*
X358521D02*
D03*
X338709Y913130D02*
D03*
X321691D02*
D03*
X817499Y708660D02*
D03*
X800481D02*
D03*
X626491Y920750D02*
D03*
X643509D02*
D03*
X1112139Y692150D02*
D03*
X1095121D02*
D03*
X966089Y689610D02*
D03*
X949071D02*
D03*
X1697609Y692150D02*
D03*
X1680591D02*
D03*
X1404239D02*
D03*
X1387221D02*
D03*
X1254379D02*
D03*
X1237361D02*
D03*
X385191Y857250D02*
D03*
X402209D02*
D03*
X366141Y788670D02*
D03*
X383159D02*
D03*
D58*
X824230Y762710D02*
D03*
X588010Y949400D02*
D03*
X1140460Y760170D02*
D03*
X994410D02*
D03*
X1725930D02*
D03*
X1579880D02*
D03*
X1433830D02*
D03*
X1285240D02*
D03*
D59*
X805180Y734210D02*
D03*
X817880D02*
D03*
X830580D02*
D03*
X843280D02*
D03*
X805180Y791210D02*
D03*
X817880D02*
D03*
X830580D02*
D03*
X843280D02*
D03*
X607060Y977900D02*
D03*
X594360D02*
D03*
X581660D02*
D03*
X568960D02*
D03*
X607060Y920900D02*
D03*
X594360D02*
D03*
X581660D02*
D03*
X568960D02*
D03*
X1121410Y731670D02*
D03*
X1134110D02*
D03*
X1146810D02*
D03*
X1159510D02*
D03*
X1121410Y788670D02*
D03*
X1134110D02*
D03*
X1146810D02*
D03*
X1159510D02*
D03*
X1013460D02*
D03*
X1000760D02*
D03*
X988060D02*
D03*
X975360D02*
D03*
X1013460Y731670D02*
D03*
X1000760D02*
D03*
X988060D02*
D03*
X975360D02*
D03*
X1706880D02*
D03*
X1719580D02*
D03*
X1732280D02*
D03*
X1744980D02*
D03*
X1706880Y788670D02*
D03*
X1719580D02*
D03*
X1732280D02*
D03*
X1744980D02*
D03*
X1598930D02*
D03*
X1586230D02*
D03*
X1573530D02*
D03*
X1560830D02*
D03*
X1598930Y731670D02*
D03*
X1586230D02*
D03*
X1573530D02*
D03*
X1560830D02*
D03*
X1414780D02*
D03*
X1427480D02*
D03*
X1440180D02*
D03*
X1452880D02*
D03*
X1414780Y788670D02*
D03*
X1427480D02*
D03*
X1440180D02*
D03*
X1452880D02*
D03*
X1304290D02*
D03*
X1291590D02*
D03*
X1278890D02*
D03*
X1266190D02*
D03*
X1304290Y731670D02*
D03*
X1291590D02*
D03*
X1278890D02*
D03*
X1266190D02*
D03*
D60*
X787800Y1007110D02*
D03*
X837800D02*
D03*
X453790Y1075690D02*
D03*
X503790D02*
D03*
X1091330Y1005840D02*
D03*
X1141330D02*
D03*
X946550Y1007110D02*
D03*
X996550D02*
D03*
X1679340Y1005840D02*
D03*
X1729340D02*
D03*
X1533290D02*
D03*
X1583290D02*
D03*
X1385970D02*
D03*
X1435970D02*
D03*
X1237380D02*
D03*
X1287380D02*
D03*
X237890Y835660D02*
D03*
X287890D02*
D03*
D61*
X478790Y670960D02*
D03*
Y720960D02*
D03*
D62*
X844550Y938770D02*
D03*
Y841770D02*
D03*
X1149350Y938770D02*
D03*
Y841770D02*
D03*
X1003300Y938770D02*
D03*
Y841770D02*
D03*
X1734820Y938770D02*
D03*
Y841770D02*
D03*
X1588770Y938770D02*
D03*
Y841770D02*
D03*
X1442720Y938770D02*
D03*
Y841770D02*
D03*
X1295400Y938770D02*
D03*
Y841770D02*
D03*
D63*
X552210Y1060450D02*
D03*
X649210D02*
D03*
X318530Y669290D02*
D03*
X415530D02*
D03*
D64*
X852170Y644040D02*
D03*
Y694540D02*
D03*
X605790Y826920D02*
D03*
Y877420D02*
D03*
X1160780Y640230D02*
D03*
Y690730D02*
D03*
X1013460Y640230D02*
D03*
Y690730D02*
D03*
X1748790Y640230D02*
D03*
Y690730D02*
D03*
X1602740Y640230D02*
D03*
Y690730D02*
D03*
X1456690Y640230D02*
D03*
Y690730D02*
D03*
X1305560Y640230D02*
D03*
Y690730D02*
D03*
D65*
X421490Y755650D02*
D03*
X370990D02*
D03*
D66*
X700090Y1116330D02*
D03*
X740090D02*
D03*
X348300Y1120140D02*
D03*
X388300D02*
D03*
X315910Y768350D02*
D03*
X275910D02*
D03*
D67*
X899668Y974090D02*
D03*
X870712D02*
D03*
X899668Y1033780D02*
D03*
X870712D02*
D03*
X459232Y994410D02*
D03*
X488188D02*
D03*
X459232Y1023620D02*
D03*
X488188D02*
D03*
X1204468Y1033780D02*
D03*
X1175512D02*
D03*
X1204468Y972820D02*
D03*
X1175512D02*
D03*
X1057148D02*
D03*
X1028192D02*
D03*
X1057148Y1033780D02*
D03*
X1028192D02*
D03*
X1789938D02*
D03*
X1760982D02*
D03*
X1789938Y974090D02*
D03*
X1760982D02*
D03*
X1643888D02*
D03*
X1614932D02*
D03*
X1643888Y1033780D02*
D03*
X1614932D02*
D03*
X1496568D02*
D03*
X1467612D02*
D03*
X1497838Y974090D02*
D03*
X1468882D02*
D03*
X1350518D02*
D03*
X1321562D02*
D03*
X1350518Y1033780D02*
D03*
X1321562D02*
D03*
X507238Y762000D02*
D03*
X478282D02*
D03*
X318008Y967740D02*
D03*
X289052D02*
D03*
X318008Y941070D02*
D03*
X289052D02*
D03*
X238252Y967740D02*
D03*
X267208D02*
D03*
X238252Y941070D02*
D03*
X267208D02*
D03*
X238252Y914400D02*
D03*
X267208D02*
D03*
X238252Y887730D02*
D03*
X267208D02*
D03*
D68*
X877570Y769112D02*
D03*
Y798068D02*
D03*
X646430Y948182D02*
D03*
Y977138D02*
D03*
X1191260Y767842D02*
D03*
Y796798D02*
D03*
X1045210Y767842D02*
D03*
Y796798D02*
D03*
X1779270Y767842D02*
D03*
Y796798D02*
D03*
X1633220Y767842D02*
D03*
Y796798D02*
D03*
X1487170Y767842D02*
D03*
Y796798D02*
D03*
X1336040Y767842D02*
D03*
Y796798D02*
D03*
D69*
X326390Y810260D02*
D03*
D70*
X332890D02*
D03*
X339390D02*
D03*
X345890D02*
D03*
X352390D02*
D03*
X358890D02*
D03*
X365390D02*
D03*
X326390Y866260D02*
D03*
X332890D02*
D03*
X339390D02*
D03*
X345890D02*
D03*
X352390D02*
D03*
X358890D02*
D03*
X365390D02*
D03*
D71*
X568960Y722630D02*
D03*
D72*
X531460Y712630D02*
D03*
Y732630D02*
D03*
D73*
X638810Y726440D02*
D03*
D74*
X628810Y763940D02*
D03*
X648810D02*
D03*
D75*
X706120Y651260D02*
D03*
X756920D02*
D03*
X731520Y715260D02*
D03*
D76*
X327020Y1210750D02*
D03*
X288970D02*
D03*
X287020Y1183250D02*
D03*
X329020D02*
D03*
Y1238250D02*
D03*
X287020D02*
D03*
X751200Y1210750D02*
D03*
X713150D02*
D03*
X711200Y1183250D02*
D03*
X753200D02*
D03*
Y1238250D02*
D03*
X711200D02*
D03*
X899790Y1210750D02*
D03*
X861740D02*
D03*
X859790Y1183250D02*
D03*
X901790D02*
D03*
Y1238250D02*
D03*
X859790D02*
D03*
X1778630Y1210750D02*
D03*
X1740580D02*
D03*
X1738630Y1183250D02*
D03*
X1780630D02*
D03*
Y1238250D02*
D03*
X1738630D02*
D03*
X1635120Y1210750D02*
D03*
X1597070D02*
D03*
X1595120Y1183250D02*
D03*
X1637120D02*
D03*
Y1238250D02*
D03*
X1595120D02*
D03*
X1487800Y1210750D02*
D03*
X1449750D02*
D03*
X1447800Y1183250D02*
D03*
X1489800D02*
D03*
Y1238250D02*
D03*
X1447800D02*
D03*
X1340480Y1210750D02*
D03*
X1302430D02*
D03*
X1300480Y1183250D02*
D03*
X1342480D02*
D03*
Y1238250D02*
D03*
X1300480D02*
D03*
X475610Y1210750D02*
D03*
X437560D02*
D03*
X435610Y1183250D02*
D03*
X477610D02*
D03*
Y1238250D02*
D03*
X435610D02*
D03*
X1193160Y1210750D02*
D03*
X1155110D02*
D03*
X1153160Y1183250D02*
D03*
X1195160D02*
D03*
Y1238250D02*
D03*
X1153160D02*
D03*
X1047110Y1210750D02*
D03*
X1009060D02*
D03*
X1007110Y1183250D02*
D03*
X1049110D02*
D03*
Y1238250D02*
D03*
X1007110D02*
D03*
D77*
X1884680Y612140D02*
D03*
X132080D02*
D03*
X1884680Y1245870D02*
D03*
X132080D02*
D03*
D78*
X177800Y670560D02*
D03*
X1847850D02*
D03*
X1856740Y1189990D02*
D03*
D79*
X595630Y1236150D02*
D03*
Y1143650D02*
D03*
D80*
Y1203650D02*
D03*
X643130Y1208650D02*
D03*
Y1161650D02*
D03*
X548130Y1208650D02*
D03*
Y1161650D02*
D03*
D81*
X1791970Y1012190D02*
D03*
Y993140D02*
D03*
X1691640Y989330D02*
D03*
X1645920Y1012190D02*
D03*
Y993140D02*
D03*
X1545590Y989330D02*
D03*
X1498600Y1012190D02*
D03*
Y993140D02*
D03*
X1398270Y989330D02*
D03*
X1350010Y1012190D02*
D03*
Y993140D02*
D03*
X1249680Y989330D02*
D03*
X1203960Y1012190D02*
D03*
Y993140D02*
D03*
X1103630Y989330D02*
D03*
X1059180Y1013460D02*
D03*
Y994410D02*
D03*
X958850Y990600D02*
D03*
X781050Y782320D02*
D03*
X1631950Y699770D02*
D03*
X1778000D02*
D03*
X1758950Y767080D02*
D03*
X1680210Y717550D02*
D03*
X1694180Y636270D02*
D03*
X1612900Y767080D02*
D03*
X1534160Y717550D02*
D03*
X1548130Y636270D02*
D03*
X1466850Y767080D02*
D03*
X1388110Y717550D02*
D03*
X1482090Y699770D02*
D03*
X1402080Y636270D02*
D03*
X1188720Y699770D02*
D03*
X1094740Y718820D02*
D03*
X1253490Y636270D02*
D03*
X1333500Y699770D02*
D03*
X1239520Y717550D02*
D03*
X1318260Y767080D02*
D03*
X1173480D02*
D03*
X1109980Y633730D02*
D03*
X1041400Y698500D02*
D03*
X963930Y633730D02*
D03*
X1027430Y767080D02*
D03*
X951230Y717550D02*
D03*
X811530Y655320D02*
D03*
X877570Y701040D02*
D03*
X857250Y760730D02*
D03*
X800100Y990600D02*
D03*
X900430Y994410D02*
D03*
Y1013460D02*
D03*
X763270Y1088390D02*
D03*
X1910080Y1085850D02*
D03*
X506730Y591820D02*
D03*
X132080Y1164590D02*
D03*
X477520Y1074420D02*
D03*
X444500Y1005840D02*
D03*
X458470Y1042670D02*
D03*
X660400Y930910D02*
D03*
X527050D02*
D03*
X574040Y854710D02*
D03*
X508000Y782320D02*
D03*
X495300Y688340D02*
D03*
X242570Y852170D02*
D03*
X220980Y900430D02*
D03*
Y955040D02*
D03*
X331470D02*
D03*
X377190Y810260D02*
D03*
X387350Y877570D02*
D03*
X316230Y866140D02*
D03*
X1704340Y807720D02*
D03*
X1757680Y789940D02*
D03*
X1558290Y807720D02*
D03*
X1611630Y789940D02*
D03*
X1412240Y807720D02*
D03*
X1465580Y789940D02*
D03*
X1263650Y807720D02*
D03*
X1316990Y789940D02*
D03*
X1118870Y807720D02*
D03*
X1172210Y789940D02*
D03*
X972820Y807720D02*
D03*
X1026160Y789940D02*
D03*
X855980Y792480D02*
D03*
X802640Y810260D02*
D03*
X609600Y996950D02*
D03*
X581660Y1002030D02*
D03*
D82*
X824230Y762710D02*
D03*
X834780Y773210D02*
D03*
Y752210D02*
D03*
X814030D02*
D03*
Y773210D02*
D03*
X577810Y959900D02*
D03*
Y938900D02*
D03*
X598560D02*
D03*
Y959900D02*
D03*
X588010Y949400D02*
D03*
X1140460Y760170D02*
D03*
X1151010Y770670D02*
D03*
Y749670D02*
D03*
X1130260D02*
D03*
Y770670D02*
D03*
X984210D02*
D03*
Y749670D02*
D03*
X1004960D02*
D03*
Y770670D02*
D03*
X994410Y760170D02*
D03*
X1725930D02*
D03*
X1736480Y770670D02*
D03*
Y749670D02*
D03*
X1715730D02*
D03*
Y770670D02*
D03*
X1569680D02*
D03*
Y749670D02*
D03*
X1590430D02*
D03*
Y770670D02*
D03*
X1579880Y760170D02*
D03*
X1433830D02*
D03*
X1444380Y770670D02*
D03*
Y749670D02*
D03*
X1423630D02*
D03*
Y770670D02*
D03*
X1275040D02*
D03*
Y749670D02*
D03*
X1295790D02*
D03*
Y770670D02*
D03*
X1285240Y760170D02*
D03*
X345890Y845760D02*
D03*
Y830760D02*
D03*
X330890Y845760D02*
D03*
Y830760D02*
D03*
X360890Y845760D02*
D03*
Y830760D02*
D03*
M02*
