<?xml version="1.0" encoding="UTF-8" standalone="no"?>
<!-- Created with Inkscape (http://www.inkscape.org/) -->

<svg
   xmlns:dc="http://purl.org/dc/elements/1.1/"
   xmlns:cc="http://creativecommons.org/ns#"
   xmlns:rdf="http://www.w3.org/1999/02/22-rdf-syntax-ns#"
   xmlns:svg="http://www.w3.org/2000/svg"
   xmlns="http://www.w3.org/2000/svg"
   xmlns:sodipodi="http://sodipodi.sourceforge.net/DTD/sodipodi-0.dtd"
   xmlns:inkscape="http://www.inkscape.org/namespaces/inkscape"
   width="879mm"
   height="1189mm"
   viewBox="0 0 879 1189"
   version="1.1"
   id="svg8"
   inkscape:version="0.92.4 (5da689c313, 2019-01-14)"
   sodipodi:docname="Pioneer_top_plate.svg">
  <defs
     id="defs2" />
  <sodipodi:namedview
     id="base"
     pagecolor="#ffffff"
     bordercolor="#666666"
     borderopacity="1.0"
     inkscape:pageopacity="0.0"
     inkscape:pageshadow="2"
     inkscape:zoom="0.1192739"
     inkscape:cx="2008.6624"
     inkscape:cy="1738.0028"
     inkscape:document-units="mm"
     inkscape:current-layer="layer1"
     showgrid="false"
     inkscape:window-width="1366"
     inkscape:window-height="705"
     inkscape:window-x="-8"
     inkscape:window-y="-8"
     inkscape:window-maximized="1"
     width="842mm">
    <inkscape:grid
       type="xygrid"
       id="grid4545" />
  </sodipodi:namedview>
  <metadata
     id="metadata5">
    <rdf:RDF>
      <cc:Work
         rdf:about="">
        <dc:format>image/svg+xml</dc:format>
        <dc:type
           rdf:resource="http://purl.org/dc/dcmitype/StillImage" />
        <dc:title></dc:title>
      </cc:Work>
    </rdf:RDF>
  </metadata>
  <g
     inkscape:label="Calque 1"
     inkscape:groupmode="layer"
     id="layer1"
     transform="translate(0,892)"
     style="display:inline">
    <path
       style="display:inline;fill:none;stroke:#000000;stroke-width:0.26458332px;stroke-linecap:butt;stroke-linejoin:miter;stroke-opacity:1"
       d="m 401.55222,-429.73503 -0.14706,9.41138 -0.049,45.97853 0.0981,1.66658 0.34311,0.68625 0.93134,0.68625 0.88233,0.34314 0.73525,0.34311 121.7336,-0.36086 0.86651,-0.0347 1.10913,-0.41593 0.69321,-0.69321 0.58925,-0.93586 0.13865,-1.42107 0.1733,-54.34796 -0.34661,-1.17845 -0.79721,-0.93583 -1.03981,-0.72787 -1.35176,-0.24263 -2.21829,-0.104 -118.07161,-0.052 -1.12646,-0.0175 -0.77989,0.15598 -0.53724,0.17332 -0.62388,0.43326 -0.58923,0.53724 -0.46792,0.6932 z"
       id="path5141"
       inkscape:connector-curvature="0" />
    <path
       style="fill:none;stroke:#000000;stroke-width:0.26458332px;stroke-linecap:butt;stroke-linejoin:miter;stroke-opacity:1"
       d="m 68.489504,-549.13654 0.490176,261.5782 c 0,0 -0.744922,8.41702 4.316264,21.27773 3.573204,9.07968 9.712165,16.95396 22.655397,25.24964 6.118539,3.92155 12.009589,8.90925 16.279809,14.51502 2.3189,3.04415 3.49242,5.27581 5.49938,9.67367 1.30975,2.87006 1.14165,2.04331 3.0398,8.39668 0.14704,0.49217 0.62336,1.72175 0.85624,3.56304 0.3417,2.70178 0.43901,6.60071 0.50084,10.4347 l 0.11484,156.142452 c 0,0 0.0251,8.218697 0.57496,11.38454 0.65665,3.780524 1.88518,8.198602 3.74411,12.021329 4.49874,9.251263 9.78446,14.28219533 17.32807,21.3301605 10.04203,9.3822335 18.20402,18.6725155 29.88291,27.3084085 21.25063,15.713667 50.86977,38.330292 84.33218,54.832501 29.98066,14.785159 62.64888,28.265359 97.58232,36.499389 28.04757,6.61098 63.36503,11.99288 96.98922,13.38796 84.34753,3.49962 173.53667,-20.69126 241.4749,-60.167396 C 737.44006,53.137929 774.72184,22.647499 796.85738,-0.32498166 813.85797,-17.968366 810.94721,-41.417564 810.94721,-41.417564 l -0.44188,-152.239056 c 0,0 -0.48566,-7.12879 1.52613,-15.57724 1.1048,-4.63957 3.49536,-9.43504 5.88807,-14.23235 2.2758,-4.56288 5.85778,-8.38377 9.51418,-11.74133 3.02183,-2.77486 8.88973,-6.94701 12.99376,-9.48354 4.89678,-3.02648 6.74119,-5.37952 8.37913,-7.05536 2.67553,-2.73742 3.85368,-3.71071 4.52095,-4.70384 2.10055,-3.12633 3.84042,-6.93448 4.57013,-8.5113 3.33999,-7.21737 4.33309,-13.65046 4.62736,-16.91616 0.73517,-8.15878 0.57692,-16.39206 0.57692,-16.39206 l 0.69624,-227.83401 0.18607,-21.51855 c -0.2095,-7.55954 -0.34067,-12.06672 -2.61526,-18.68659 -3.29046,-9.57639 -9.37973,-17.75423 -15.31665,-26.21012 -8.54622,-12.17227 -18.70015,-23.70184 -28.77523,-36.08069 -27.17638,-33.39051 -77.25293,-74.70817 -119.31292,-98.90711 -42.13953,-24.2447 -91.03429,-43.60245 -143.96141,-53.5515 -47.50396,-8.92962 -98.47191,-10.03727 -147.11299,-4.35353 -43.35776,5.06638 -94.21007,20.70283 -142.4907,43.07331 -32.33945,14.98425 -82.57483,46.29905 -128.75148,91.65852 -16.12713,15.84173 -31.81346,35.63455 -46.191492,55.31089 -2.026802,2.77368 -3.801291,5.68617 -5.811628,8.49795 -2.687617,3.75907 -5.283953,7.67881 -7.434488,11.5015 -1.488725,2.64628 -0.552807,0.65832 -4.133607,8.18466 -0.214139,0.45009 -1.706567,4.40431 -2.248945,7.01934 -0.733285,3.53547 -1.275169,6.14674 -1.337996,11.02919 z"
       id="path5145"
       inkscape:connector-curvature="0"
       sodipodi:nodetypes="ccssssssccsssssssssccsssssssscccssssssssssssscc" />
    <path
       style="display:inline;fill:#000000;fill-opacity:1;stroke:#000000;stroke-width:0;stroke-linejoin:round;stroke-miterlimit:4;stroke-dasharray:none;stroke-opacity:1"
       id="path5151"
       sodipodi:type="arc"
       sodipodi:cx="456.41183"
       sodipodi:cy="-147.07263"
       sodipodi:rx="11.645978"
       sodipodi:ry="11.784559"
       sodipodi:start="0"
       sodipodi:end="6.1394225"
       sodipodi:open="true"
       d="m 468.05781,-147.07263 a 11.645978,11.784559 0 0 1 -11.2275,11.77695 11.645978,11.784559 0 0 1 -12.03438,-10.93059 11.645978,11.784559 0 0 1 10.36264,-12.56249 11.645978,11.784559 0 0 1 12.7791,10.02778" />
    <path
       style="fill:none;stroke:#000000;stroke-width:0.26458332px;stroke-linecap:butt;stroke-linejoin:miter;stroke-opacity:1"
       d="m 156.66026,-279.34902 c -13.649,-0.22266 -19.56757,12.40533 -19.60704,17.84242 -0.22938,31.5992 0.29698,63.20064 0.098,94.80005 -0.0116,1.84462 1.33045,8.43983 4.01944,11.47011 3.93828,4.43812 10.04664,7.77085 15.97974,7.84283 5.54116,0.0672 11.36083,-2.8682 15.09742,-6.9605 3.22676,-3.53393 4.69946,-8.74099 4.80373,-13.52886 0.67454,-30.9724 -0.46416,-89.92075 -0.58821,-92.93738 -0.12405,-3.01663 -1.14777,-6.30065 -2.84302,-8.9212 -2.07398,-3.20599 -4.92824,-5.87105 -8.52907,-7.64675 -3.98747,-1.96637 -5.54605,-1.91366 -8.43099,-1.96072 z"
       id="path5159"
       inkscape:connector-curvature="0"
       sodipodi:nodetypes="ssssaaszass" />
    <path
       style="display:inline;fill:none;stroke:#000000;stroke-width:0.26458332px;stroke-linecap:butt;stroke-linejoin:miter;stroke-opacity:1"
       d="m 775.7151,-280.32848 c -13.649,-0.22266 -19.56757,12.40533 -19.60704,17.84242 -0.22938,31.5992 0.29698,63.20064 0.098,94.80005 -0.0116,1.84462 1.33045,8.43983 4.01944,11.47012 3.93828,4.43812 10.04664,7.77084 15.97974,7.84282 5.54116,0.0672 11.36083,-2.8682 15.09742,-6.9605 3.22676,-3.53393 4.69946,-8.74098 4.80373,-13.52886 0.67454,-30.9724 -0.46416,-89.92075 -0.58821,-92.93738 -0.12405,-3.01663 -1.14777,-6.30065 -2.84302,-8.9212 -2.07398,-3.20599 -4.92824,-5.87105 -8.52907,-7.64675 -3.98747,-1.96637 -5.54605,-1.91366 -8.43099,-1.96072 z"
       id="path5159-2"
       inkscape:connector-curvature="0"
       sodipodi:nodetypes="ssssaaszass" />
  </g>
  <g
     inkscape:groupmode="layer"
     id="layer2"
     inkscape:label="Calque 2" />
</svg>
