  0
SECTION
  2
HEADER
  9
$ACADVER
  1
AC1014
  9
$HANDSEED
  5
FFFF
  9
$MEASUREMENT
 70
     1
  0
ENDSEC
  0
SECTION
  2
TABLES
  0
TABLE
  2
VPORT
  5
8
330
0
100
AcDbSymbolTable
 70
     4
  0
VPORT
  5
2E
330
8
100
AcDbSymbolTableRecord
100
AcDbViewportTableRecord
  2
*ACTIVE
 70
     0
 10
0.0
 20
0.0
 11
1.0
 21
1.0
 12
210.0
 22
148.5
 13
0.0
 23
0.0
 14
10.0
 24
10.0
 15
10.0
 25
10.0
 16
0.0
 26
0.0
 36
1.0
 17
0.0
 27
0.0
 37
0.0
 40
341.0
 41
1.24
 42
50.0
 43
0.0
 44
0.0
 50
0.0
 51
0.0
 71
     0
 72
   100
 73
     1
 74
     3
 75
     0
 76
     0
 77
     0
 78
     0
  0
ENDTAB
  0
TABLE
  2
LTYPE
  5
5
330
0
100
AcDbSymbolTable
 70
     1
  0
LTYPE
  5
14
330
5
100
AcDbSymbolTableRecord
100
AcDbLinetypeTableRecord
  2
BYBLOCK
 70
     0
  3

 72
    65
 73
     0
 40
0.0
  0
LTYPE
  5
15
330
5
100
AcDbSymbolTableRecord
100
AcDbLinetypeTableRecord
  2
BYLAYER
 70
     0
  3

 72
    65
 73
     0
 40
0.0
  0
LTYPE
  5
16
330
5
100
AcDbSymbolTableRecord
100
AcDbLinetypeTableRecord
  2
CONTINUOUS
 70
     0
  3
Solid line
 72
    65
 73
     0
 40
0.0
  0
ENDTAB
  0
TABLE
  2
LAYER
  5
2
100
AcDbSymbolTable
 70
2
  0
LAYER
  5
50
100
AcDbSymbolTableRecord
100
AcDbLayerTableRecord
  2
0
 70
0
  6
CONTINUOUS
  0
LAYER
  5
51
100
AcDbSymbolTableRecord
100
AcDbLayerTableRecord
  2
Calque_1
 70
0
  6
CONTINUOUS
  0
ENDTAB
  0
TABLE
  2
STYLE
  5
3
330
0
100
AcDbSymbolTable
 70
     1
  0
STYLE
  5
11
330
3
100
AcDbSymbolTableRecord
100
AcDbTextStyleTableRecord
  2
STANDARD
 70
     0
 40
0.0
 41
1.0
 50
0.0
 71
     0
 42
2.5
  3
txt
  4

  0
ENDTAB
  0
TABLE
  2
VIEW
  5
6
330
0
100
AcDbSymbolTable
 70
     0
  0
ENDTAB
  0
TABLE
  2
UCS
  5
7
330
0
100
AcDbSymbolTable
 70
     0
  0
ENDTAB
  0
TABLE
  2
APPID
  5
9
330
0
100
AcDbSymbolTable
 70
     2
  0
APPID
  5
12
330
9
100
AcDbSymbolTableRecord
100
AcDbRegAppTableRecord
  2
ACAD
 70
     0
  0
ENDTAB
  0
TABLE
  2
DIMSTYLE
  5
A
330
0
100
AcDbSymbolTable
 70
     1
  0
DIMSTYLE
105
27
330
A
100
AcDbSymbolTableRecord
100
AcDbDimStyleTableRecord
  2
ISO-25
 70
     0
  3

  4

  5

  6

  7

 40
1.0
 41
2.5
 42
0.625
 43
3.75
 44
1.25
 45
0.0
 46
0.0
 47
0.0
 48
0.0
140
2.5
141
2.5
142
0.0
143
0.03937007874016
144
1.0
145
0.0
146
1.0
147
0.625
 71
     0
 72
     0
 73
     0
 74
     0
 75
     0
 76
     0
 77
     1
 78
     8
170
     0
171
     3
172
     1
173
     0
174
     0
175
     0
176
     0
177
     0
178
     0
270
     2
271
     2
272
     2
273
     2
274
     3
340
11
275
     0
280
     0
281
     0
282
     0
283
     0
284
     8
285
     0
286
     0
287
     3
288
     0
  0
ENDTAB
  0
TABLE
  2
BLOCK_RECORD
  5
1
330
0
100
AcDbSymbolTable
 70
     1
  0
BLOCK_RECORD
  5
1F
330
1
100
AcDbSymbolTableRecord
100
AcDbBlockTableRecord
  2
*MODEL_SPACE
  0
BLOCK_RECORD
  5
1B
330
1
100
AcDbSymbolTableRecord
100
AcDbBlockTableRecord
  2
*PAPER_SPACE
  0
ENDTAB
  0
ENDSEC
  0
SECTION
  2
BLOCKS
  0
BLOCK
  5
20
330
1F
100
AcDbEntity
  8
0
100
AcDbBlockBegin
  2
*MODEL_SPACE
 70
     0
 10
0.0
 20
0.0
 30
0.0
  3
*MODEL_SPACE
  1

  0
ENDBLK
  5
21
330
1F
100
AcDbEntity
  8
0
100
AcDbBlockEnd
  0
BLOCK
  5
1C
330
1B
100
AcDbEntity
 67
     1
  8
0
100
AcDbBlockBegin
  2
*PAPER_SPACE
  1

  0
ENDBLK
  5
1D
330
1B
100
AcDbEntity
 67
     1
  8
0
100
AcDbBlockEnd
  0
ENDSEC
  0
SECTION
  2
ENTITIES
  0
SPLINE
  5
100
100
AcDbEntity
  8
Calque_1
 62
7
100
AcDbSpline
 70
8
 71
3
 72
8
 73
4
 74
0
 40
0
 40
0
 40
0
 40
0
 40
1
 40
1
 40
1
 40
1
 10
467.590578
 20
1089.505727
 30
0.0
 10
458.982889
 20
1089.500965
 30
0.0
 10
446.045823
 20
1089.186685
 30
0.0
 10
437.882316
 20
1088.676322
 30
0.0
  0
SPLINE
  5
101
100
AcDbEntity
  8
Calque_1
 62
7
100
AcDbSpline
 70
8
 71
3
 72
8
 73
4
 74
0
 40
0
 40
0
 40
0
 40
0
 40
1
 40
1
 40
1
 40
1
 10
437.882316
 20
1088.676322
 30
0.0
 10
410.880475
 20
1086.988233
 30
0.0
 10
380.997640
 20
1082.498235
 30
0.0
 10
358.639608
 20
1076.769556
 30
0.0
  0
SPLINE
  5
102
100
AcDbEntity
  8
Calque_1
 62
7
100
AcDbSpline
 70
8
 71
3
 72
8
 73
4
 74
0
 40
0
 40
0
 40
0
 40
0
 40
1
 40
1
 40
1
 40
1
 10
358.639608
 20
1076.769556
 30
0.0
 10
355.801952
 20
1076.042484
 30
0.0
 10
353.134846
 20
1075.389916
 30
0.0
 10
352.712307
 20
1075.319515
 30
0.0
  0
SPLINE
  5
103
100
AcDbEntity
  8
Calque_1
 62
7
100
AcDbSpline
 70
8
 71
3
 72
8
 73
4
 74
0
 40
0
 40
0
 40
0
 40
0
 40
1
 40
1
 40
1
 40
1
 10
352.712307
 20
1075.319515
 30
0.0
 10
350.889354
 20
1075.015745
 30
0.0
 10
339.962274
 20
1071.903819
 30
0.0
 10
339.721900
 20
1071.620000
 30
0.0
  0
SPLINE
  5
104
100
AcDbEntity
  8
Calque_1
 62
7
100
AcDbSpline
 70
8
 71
3
 72
8
 73
4
 74
0
 40
0
 40
0
 40
0
 40
0
 40
1
 40
1
 40
1
 40
1
 10
339.721900
 20
1071.620000
 30
0.0
 10
339.576379
 20
1071.448140
 30
0.0
 10
339.310870
 20
1071.357028
 30
0.0
 10
339.131747
 20
1071.417427
 30
0.0
  0
SPLINE
  5
105
100
AcDbEntity
  8
Calque_1
 62
7
100
AcDbSpline
 70
8
 71
3
 72
8
 73
4
 74
0
 40
0
 40
0
 40
0
 40
0
 40
1
 40
1
 40
1
 40
1
 10
339.131747
 20
1071.417427
 30
0.0
 10
338.502621
 20
1071.629398
 30
0.0
 10
320.368582
 20
1065.962092
 30
0.0
 10
313.925025
 20
1063.539871
 30
0.0
  0
SPLINE
  5
106
100
AcDbEntity
  8
Calque_1
 62
7
100
AcDbSpline
 70
8
 71
3
 72
8
 73
4
 74
0
 40
0
 40
0
 40
0
 40
0
 40
1
 40
1
 40
1
 40
1
 10
313.925025
 20
1063.539871
 30
0.0
 10
312.833619
 20
1063.129593
 30
0.0
 10
310.511900
 20
1062.296348
 30
0.0
 10
308.765650
 20
1061.687788
 30
0.0
  0
SPLINE
  5
107
100
AcDbEntity
  8
Calque_1
 62
7
100
AcDbSpline
 70
8
 71
3
 72
8
 73
4
 74
0
 40
0
 40
0
 40
0
 40
0
 40
1
 40
1
 40
1
 40
1
 10
308.765650
 20
1061.687788
 30
0.0
 10
302.106141
 20
1059.366979
 30
0.0
 10
284.813715
 20
1052.382398
 30
0.0
 10
279.612378
 20
1049.912798
 30
0.0
  0
SPLINE
  5
108
100
AcDbEntity
  8
Calque_1
 62
7
100
AcDbSpline
 70
8
 71
3
 72
8
 73
4
 74
0
 40
0
 40
0
 40
0
 40
0
 40
1
 40
1
 40
1
 40
1
 10
279.612378
 20
1049.912798
 30
0.0
 10
278.857574
 20
1049.554407
 30
0.0
 10
278.184898
 20
1049.261158
 30
0.0
 10
278.117905
 20
1049.261158
 30
0.0
  0
SPLINE
  5
109
100
AcDbEntity
  8
Calque_1
 62
7
100
AcDbSpline
 70
8
 71
3
 72
8
 73
4
 74
0
 40
0
 40
0
 40
0
 40
0
 40
1
 40
1
 40
1
 40
1
 10
278.117905
 20
1049.261158
 30
0.0
 10
277.372600
 20
1049.261158
 30
0.0
 10
251.756571
 20
1036.760750
 30
0.0
 10
247.841201
 20
1034.486349
 30
0.0
  0
SPLINE
  5
10a
100
AcDbEntity
  8
Calque_1
 62
7
100
AcDbSpline
 70
8
 71
3
 72
8
 73
4
 74
0
 40
0
 40
0
 40
0
 40
0
 40
1
 40
1
 40
1
 40
1
 10
247.841201
 20
1034.486349
 30
0.0
 10
246.861308
 20
1033.917148
 30
0.0
 10
244.452052
 20
1032.591662
 30
0.0
 10
242.487521
 20
1031.540793
 30
0.0
  0
SPLINE
  5
10b
100
AcDbEntity
  8
Calque_1
 62
7
100
AcDbSpline
 70
8
 71
3
 72
8
 73
4
 74
0
 40
0
 40
0
 40
0
 40
0
 40
1
 40
1
 40
1
 40
1
 10
242.487521
 20
1031.540793
 30
0.0
 10
236.943492
 20
1028.575163
 30
0.0
 10
229.729104
 20
1024.375988
 30
0.0
 10
222.114605
 20
1019.683118
 30
0.0
  0
SPLINE
  5
10c
100
AcDbEntity
  8
Calque_1
 62
7
100
AcDbSpline
 70
8
 71
3
 72
8
 73
4
 74
0
 40
0
 40
0
 40
0
 40
0
 40
1
 40
1
 40
1
 40
1
 10
222.114605
 20
1019.683118
 30
0.0
 10
217.956204
 20
1017.120247
 30
0.0
 10
216.604276
 20
1016.258716
 30
0.0
 10
210.208355
 20
1012.092368
 30
0.0
  0
SPLINE
  5
10d
100
AcDbEntity
  8
Calque_1
 62
7
100
AcDbSpline
 70
8
 71
3
 72
8
 73
4
 74
0
 40
0
 40
0
 40
0
 40
0
 40
1
 40
1
 40
1
 40
1
 10
210.208355
 20
1012.092368
 30
0.0
 10
203.161434
 20
1007.501937
 30
0.0
 10
190.361848
 20
998.434679
 30
0.0
 10
189.703147
 20
997.566640
 30
0.0
  0
SPLINE
  5
10e
100
AcDbEntity
  8
Calque_1
 62
7
100
AcDbSpline
 70
8
 71
3
 72
8
 73
4
 74
0
 40
0
 40
0
 40
0
 40
0
 40
1
 40
1
 40
1
 40
1
 10
189.703147
 20
997.566640
 30
0.0
 10
189.557626
 20
997.374878
 30
0.0
 10
189.379072
 20
997.229545
 30
0.0
 10
189.306272
 20
997.243144
 30
0.0
  0
SPLINE
  5
10f
100
AcDbEntity
  8
Calque_1
 62
7
100
AcDbSpline
 70
8
 71
3
 72
8
 73
4
 74
0
 40
0
 40
0
 40
0
 40
0
 40
1
 40
1
 40
1
 40
1
 10
189.306272
 20
997.243144
 30
0.0
 10
188.982083
 20
997.303964
 30
0.0
 10
180.343821
 20
990.787605
 30
0.0
 10
175.680230
 20
986.964185
 30
0.0
  0
SPLINE
  5
110
100
AcDbEntity
  8
Calque_1
 62
7
100
AcDbSpline
 70
8
 71
3
 72
8
 73
4
 74
0
 40
0
 40
0
 40
0
 40
0
 40
1
 40
1
 40
1
 40
1
 10
175.680230
 20
986.964185
 30
0.0
 10
174.225019
 20
985.771137
 30
0.0
 10
172.311883
 20
984.208526
 30
0.0
 10
171.428294
 20
983.492045
 30
0.0
  0
SPLINE
  5
111
100
AcDbEntity
  8
Calque_1
 62
7
100
AcDbSpline
 70
8
 71
3
 72
8
 73
4
 74
0
 40
0
 40
0
 40
0
 40
0
 40
1
 40
1
 40
1
 40
1
 10
171.428294
 20
983.492045
 30
0.0
 10
169.400935
 20
981.848136
 30
0.0
 10
163.947521
 20
977.256522
 30
0.0
 10
163.242231
 20
976.599443
 30
0.0
  0
SPLINE
  5
112
100
AcDbEntity
  8
Calque_1
 62
7
100
AcDbSpline
 70
8
 71
3
 72
8
 73
4
 74
0
 40
0
 40
0
 40
0
 40
0
 40
1
 40
1
 40
1
 40
1
 10
163.242231
 20
976.599443
 30
0.0
 10
162.949721
 20
976.326943
 30
0.0
 10
161.821183
 20
975.329964
 30
0.0
 10
160.734373
 20
974.384076
 30
0.0
  0
SPLINE
  5
113
100
AcDbEntity
  8
Calque_1
 62
7
100
AcDbSpline
 70
8
 71
3
 72
8
 73
4
 74
0
 40
0
 40
0
 40
0
 40
0
 40
1
 40
1
 40
1
 40
1
 10
160.734373
 20
974.384076
 30
0.0
 10
149.001393
 20
964.172514
 30
0.0
 10
136.338565
 20
951.725194
 30
0.0
 10
124.100435
 20
938.373353
 30
0.0
  0
SPLINE
  5
114
100
AcDbEntity
  8
Calque_1
 62
7
100
AcDbSpline
 70
8
 71
3
 72
8
 73
4
 74
0
 40
0
 40
0
 40
0
 40
0
 40
1
 40
1
 40
1
 40
1
 10
124.100435
 20
938.373353
 30
0.0
 10
118.886744
 20
932.685214
 30
0.0
 10
109.023106
 20
921.167454
 30
0.0
 10
105.958906
 20
917.189629
 30
0.0
  0
SPLINE
  5
115
100
AcDbEntity
  8
Calque_1
 62
7
100
AcDbSpline
 70
8
 71
3
 72
8
 73
4
 74
0
 40
0
 40
0
 40
0
 40
0
 40
1
 40
1
 40
1
 40
1
 10
105.958906
 20
917.189629
 30
0.0
 10
102.761305
 20
913.038634
 30
0.0
 10
101.993773
 20
911.977708
 30
0.0
 10
101.993773
 20
911.708839
 30
0.0
  0
SPLINE
  5
116
100
AcDbEntity
  8
Calque_1
 62
7
100
AcDbSpline
 70
8
 71
3
 72
8
 73
4
 74
0
 40
0
 40
0
 40
0
 40
0
 40
1
 40
1
 40
1
 40
1
 10
101.993773
 20
911.708839
 30
0.0
 10
101.993773
 20
911.546199
 30
0.0
 10
101.841997
 20
911.413246
 30
0.0
 10
101.656326
 20
911.413246
 30
0.0
  0
SPLINE
  5
117
100
AcDbEntity
  8
Calque_1
 62
7
100
AcDbSpline
 70
8
 71
3
 72
8
 73
4
 74
0
 40
0
 40
0
 40
0
 40
0
 40
1
 40
1
 40
1
 40
1
 10
101.656326
 20
911.413246
 30
0.0
 10
101.470665
 20
911.413246
 30
0.0
 10
100.711187
 20
910.609574
 30
0.0
 10
99.968573
 20
909.627309
 30
0.0
  0
SPLINE
  5
118
100
AcDbEntity
  8
Calque_1
 62
7
100
AcDbSpline
 70
8
 71
3
 72
8
 73
4
 74
0
 40
0
 40
0
 40
0
 40
0
 40
1
 40
1
 40
1
 40
1
 10
99.968573
 20
909.627309
 30
0.0
 10
99.225964
 20
908.645043
 30
0.0
 10
97.651333
 20
906.571768
 30
0.0
 10
96.469564
 20
905.019854
 30
0.0
  0
SPLINE
  5
119
100
AcDbEntity
  8
Calque_1
 62
7
100
AcDbSpline
 70
8
 71
3
 72
8
 73
4
 74
0
 40
0
 40
0
 40
0
 40
0
 40
1
 40
1
 40
1
 40
1
 10
96.469564
 20
905.019854
 30
0.0
 10
95.287792
 20
903.467914
 30
0.0
 10
94.320856
 20
902.117799
 30
0.0
 10
94.320856
 20
902.019506
 30
0.0
  0
SPLINE
  5
11a
100
AcDbEntity
  8
Calque_1
 62
7
100
AcDbSpline
 70
8
 71
3
 72
8
 73
4
 74
0
 40
0
 40
0
 40
0
 40
0
 40
1
 40
1
 40
1
 40
1
 10
94.320856
 20
902.019506
 30
0.0
 10
94.320856
 20
901.921160
 30
0.0
 10
93.796314
 20
901.226232
 30
0.0
 10
93.155036
 20
900.475424
 30
0.0
  0
SPLINE
  5
11b
100
AcDbEntity
  8
Calque_1
 62
7
100
AcDbSpline
 70
8
 71
3
 72
8
 73
4
 74
0
 40
0
 40
0
 40
0
 40
0
 40
1
 40
1
 40
1
 40
1
 10
93.155036
 20
900.475424
 30
0.0
 10
91.830791
 20
898.924992
 30
0.0
 10
84.574120
 20
888.625927
 30
0.0
 10
83.527200
 20
886.811124
 30
0.0
  0
SPLINE
  5
11c
100
AcDbEntity
  8
Calque_1
 62
7
100
AcDbSpline
 70
8
 71
3
 72
8
 73
4
 74
0
 40
0
 40
0
 40
0
 40
0
 40
1
 40
1
 40
1
 40
1
 10
83.527200
 20
886.811124
 30
0.0
 10
83.148135
 20
886.154031
 30
0.0
 10
82.683341
 20
885.521386
 30
0.0
 10
82.494188
 20
885.405022
 30
0.0
  0
SPLINE
  5
11d
100
AcDbEntity
  8
Calque_1
 62
7
100
AcDbSpline
 70
8
 71
3
 72
8
 73
4
 74
0
 40
0
 40
0
 40
0
 40
0
 40
1
 40
1
 40
1
 40
1
 10
82.494188
 20
885.405022
 30
0.0
 10
82.305034
 20
885.288658
 30
0.0
 10
82.150023
 20
885.039024
 30
0.0
 10
82.150023
 20
884.850535
 30
0.0
  0
SPLINE
  5
11e
100
AcDbEntity
  8
Calque_1
 62
7
100
AcDbSpline
 70
8
 71
3
 72
8
 73
4
 74
0
 40
0
 40
0
 40
0
 40
0
 40
1
 40
1
 40
1
 40
1
 10
82.150023
 20
884.850535
 30
0.0
 10
82.150023
 20
884.662046
 30
0.0
 10
81.899590
 20
884.281099
 30
0.0
 10
81.593469
 20
884.004080
 30
0.0
  0
SPLINE
  5
11f
100
AcDbEntity
  8
Calque_1
 62
7
100
AcDbSpline
 70
8
 71
3
 72
8
 73
4
 74
0
 40
0
 40
0
 40
0
 40
0
 40
1
 40
1
 40
1
 40
1
 10
81.593469
 20
884.004080
 30
0.0
 10
81.287341
 20
883.727035
 30
0.0
 10
80.727732
 20
882.964611
 30
0.0
 10
80.349616
 20
882.309609
 30
0.0
  0
SPLINE
  5
120
100
AcDbEntity
  8
Calque_1
 62
7
100
AcDbSpline
 70
8
 71
3
 72
8
 73
4
 74
0
 40
0
 40
0
 40
0
 40
0
 40
1
 40
1
 40
1
 40
1
 10
80.349616
 20
882.309609
 30
0.0
 10
79.971505
 20
881.654580
 30
0.0
 10
79.586263
 20
881.058976
 30
0.0
 10
79.493855
 20
880.986163
 30
0.0
  0
SPLINE
  5
121
100
AcDbEntity
  8
Calque_1
 62
7
100
AcDbSpline
 70
8
 71
3
 72
8
 73
4
 74
0
 40
0
 40
0
 40
0
 40
0
 40
1
 40
1
 40
1
 40
1
 10
79.493855
 20
880.986163
 30
0.0
 10
78.755900
 20
880.405112
 30
0.0
 10
73.947940
 20
872.056132
 30
0.0
 10
73.947940
 20
871.355753
 30
0.0
  0
SPLINE
  5
122
100
AcDbEntity
  8
Calque_1
 62
7
100
AcDbSpline
 70
8
 71
3
 72
8
 73
4
 74
0
 40
0
 40
0
 40
0
 40
0
 40
1
 40
1
 40
1
 40
1
 10
73.947940
 20
871.355753
 30
0.0
 10
73.947940
 20
871.146918
 30
0.0
 10
73.809216
 20
870.929695
 30
0.0
 10
73.639433
 20
870.873100
 30
0.0
  0
SPLINE
  5
123
100
AcDbEntity
  8
Calque_1
 62
7
100
AcDbSpline
 70
8
 71
3
 72
8
 73
4
 74
0
 40
0
 40
0
 40
0
 40
0
 40
1
 40
1
 40
1
 40
1
 10
73.639433
 20
870.873100
 30
0.0
 10
73.469660
 20
870.816506
 30
0.0
 10
73.330924
 20
870.390209
 30
0.0
 10
73.330924
 20
869.925336
 30
0.0
  0
SPLINE
  5
124
100
AcDbEntity
  8
Calque_1
 62
7
100
AcDbSpline
 70
8
 71
3
 72
8
 73
4
 74
0
 40
0
 40
0
 40
0
 40
0
 40
1
 40
1
 40
1
 40
1
 10
73.330924
 20
869.925336
 30
0.0
 10
73.330924
 20
869.460490
 30
0.0
 10
73.197973
 20
869.079913
 30
0.0
 10
73.035852
 20
869.079913
 30
0.0
  0
SPLINE
  5
125
100
AcDbEntity
  8
Calque_1
 62
7
100
AcDbSpline
 70
8
 71
3
 72
8
 73
4
 74
0
 40
0
 40
0
 40
0
 40
0
 40
1
 40
1
 40
1
 40
1
 10
73.035852
 20
869.079913
 30
0.0
 10
72.662811
 20
869.079913
 30
0.0
 10
71.539041
 20
866.261148
 30
0.0
 10
70.767773
 20
863.391372
 30
0.0
  0
SPLINE
  5
126
100
AcDbEntity
  8
Calque_1
 62
7
100
AcDbSpline
 70
8
 71
3
 72
8
 73
4
 74
0
 40
0
 40
0
 40
0
 40
0
 40
1
 40
1
 40
1
 40
1
 10
70.767773
 20
863.391372
 30
0.0
 10
70.650443
 20
862.954809
 30
0.0
 10
70.363971
 20
861.901291
 30
0.0
 10
70.131119
 20
861.049915
 30
0.0
  0
SPLINE
  5
127
100
AcDbEntity
  8
Calque_1
 62
7
100
AcDbSpline
 70
8
 71
3
 72
8
 73
4
 74
0
 40
0
 40
0
 40
0
 40
0
 40
1
 40
1
 40
1
 40
1
 10
70.131119
 20
861.049915
 30
0.0
 10
68.511287
 20
855.127349
 30
0.0
 10
68.614247
 20
863.623411
 30
0.0
 10
68.784432
 20
750.017415
 30
0.0
  0
SPLINE
  5
128
100
AcDbEntity
  8
Calque_1
 62
7
100
AcDbSpline
 70
8
 71
3
 72
8
 73
4
 74
0
 40
0
 40
0
 40
0
 40
0
 40
1
 40
1
 40
1
 40
1
 10
68.784432
 20
750.017415
 30
0.0
 10
68.869120
 20
693.482572
 30
0.0
 10
68.941777
 20
647.048197
 30
0.0
 10
68.946177
 20
646.829916
 30
0.0
  0
SPLINE
  5
129
100
AcDbEntity
  8
Calque_1
 62
7
100
AcDbSpline
 70
8
 71
3
 72
8
 73
4
 74
0
 40
0
 40
0
 40
0
 40
0
 40
1
 40
1
 40
1
 40
1
 10
68.946177
 20
646.829916
 30
0.0
 10
68.950596
 20
646.611635
 30
0.0
 10
68.946259
 20
638.693979
 30
0.0
 10
68.936361
 20
629.235125
 30
0.0
  0
SPLINE
  5
12a
100
AcDbEntity
  8
Calque_1
 62
7
100
AcDbSpline
 70
8
 71
3
 72
8
 73
4
 74
0
 40
0
 40
0
 40
0
 40
0
 40
1
 40
1
 40
1
 40
1
 10
68.936361
 20
629.235125
 30
0.0
 10
68.895806
 20
590.695546
 30
0.0
 10
68.918952
 20
586.737089
 30
0.0
 10
69.185440
 20
586.901792
 30
0.0
  0
SPLINE
  5
12b
100
AcDbEntity
  8
Calque_1
 62
7
100
AcDbSpline
 70
8
 71
3
 72
8
 73
4
 74
0
 40
0
 40
0
 40
0
 40
0
 40
1
 40
1
 40
1
 40
1
 10
69.185440
 20
586.901792
 30
0.0
 10
69.296155
 20
586.970239
 30
0.0
 10
69.383832
 20
586.858665
 30
0.0
 10
69.423152
 20
586.629456
 30
0.0
  0
SPLINE
  5
12c
100
AcDbEntity
  8
Calque_1
 62
7
100
AcDbSpline
 70
8
 71
3
 72
8
 73
4
 74
0
 40
0
 40
0
 40
0
 40
0
 40
1
 40
1
 40
1
 40
1
 10
69.423152
 20
586.629456
 30
0.0
 10
69.424740
 20
586.435808
 30
0.0
 10
69.425798
 20
586.137675
 30
0.0
 10
69.427280
 20
585.953525
 30
0.0
  0
SPLINE
  5
12d
100
AcDbEntity
  8
Calque_1
 62
7
100
AcDbSpline
 70
8
 71
3
 72
8
 73
4
 74
0
 40
0
 40
0
 40
0
 40
0
 40
1
 40
1
 40
1
 40
1
 10
69.427280
 20
585.953525
 30
0.0
 10
69.397694
 20
585.735747
 30
0.0
 10
69.328183
 20
585.754373
 30
0.0
 10
69.184403
 20
585.975750
 30
0.0
  0
SPLINE
  5
12e
100
AcDbEntity
  8
Calque_1
 62
7
100
AcDbSpline
 70
8
 71
3
 72
8
 73
4
 74
0
 40
0
 40
0
 40
0
 40
0
 40
1
 40
1
 40
1
 40
1
 10
69.184403
 20
585.975750
 30
0.0
 10
69.012611
 20
586.240281
 30
0.0
 10
68.983409
 20
585.666717
 30
0.0
 10
69.096550
 20
584.255958
 30
0.0
  0
SPLINE
  5
12f
100
AcDbEntity
  8
Calque_1
 62
7
100
AcDbSpline
 70
8
 71
3
 72
8
 73
4
 74
0
 40
0
 40
0
 40
0
 40
0
 40
1
 40
1
 40
1
 40
1
 10
69.096550
 20
584.255958
 30
0.0
 10
69.177349
 20
583.248478
 30
0.0
 10
69.333353
 20
582.344608
 30
0.0
 10
69.467589
 20
582.057641
 30
0.0
  0
SPLINE
  5
130
100
AcDbEntity
  8
Calque_1
 62
7
100
AcDbSpline
 70
8
 71
3
 72
8
 73
4
 74
0
 40
0
 40
0
 40
0
 40
0
 40
1
 40
1
 40
1
 40
1
 10
69.467589
 20
582.057641
 30
0.0
 10
69.480236
 20
581.342711
 30
0.0
 10
69.493703
 20
580.850401
 30
0.0
 10
69.507896
 20
580.689772
 30
0.0
  0
SPLINE
  5
131
100
AcDbEntity
  8
Calque_1
 62
7
100
AcDbSpline
 70
8
 71
3
 72
8
 73
4
 74
0
 40
0
 40
0
 40
0
 40
0
 40
1
 40
1
 40
1
 40
1
 10
69.507896
 20
580.689772
 30
0.0
 10
69.536037
 20
580.371478
 30
0.0
 10
69.571978
 20
580.042786
 30
0.0
 10
69.607630
 20
579.714121
 30
0.0
  0
SPLINE
  5
132
100
AcDbEntity
  8
Calque_1
 62
7
100
AcDbSpline
 70
8
 71
3
 72
8
 73
4
 74
0
 40
0
 40
0
 40
0
 40
0
 40
1
 40
1
 40
1
 40
1
 10
69.607630
 20
579.714121
 30
0.0
 10
69.640735
 20
579.188156
 30
0.0
 10
69.722055
 20
578.551410
 30
0.0
 10
69.840175
 20
577.845501
 30
0.0
  0
SPLINE
  5
133
100
AcDbEntity
  8
Calque_1
 62
7
100
AcDbSpline
 70
8
 71
3
 72
8
 73
4
 74
0
 40
0
 40
0
 40
0
 40
0
 40
1
 40
1
 40
1
 40
1
 10
69.840175
 20
577.845501
 30
0.0
 10
70.724680
 20
571.554742
 30
0.0
 10
72.645790
 20
564.434487
 30
0.0
 10
73.780504
 20
563.733182
 30
0.0
  0
SPLINE
  5
134
100
AcDbEntity
  8
Calque_1
 62
7
100
AcDbSpline
 70
8
 71
3
 72
8
 73
4
 74
0
 40
0
 40
0
 40
0
 40
0
 40
1
 40
1
 40
1
 40
1
 10
73.780504
 20
563.733182
 30
0.0
 10
73.912557
 20
563.651558
 30
0.0
 10
74.020282
 20
563.350595
 30
0.0
 10
74.020282
 20
563.064501
 30
0.0
  0
SPLINE
  5
135
100
AcDbEntity
  8
Calque_1
 62
7
100
AcDbSpline
 70
8
 71
3
 72
8
 73
4
 74
0
 40
0
 40
0
 40
0
 40
0
 40
1
 40
1
 40
1
 40
1
 10
74.020282
 20
563.064501
 30
0.0
 10
74.020282
 20
559.968373
 30
0.0
 10
84.602512
 20
545.894736
 30
0.0
 10
88.536707
 20
543.758702
 30
0.0
  0
SPLINE
  5
136
100
AcDbEntity
  8
Calque_1
 62
7
100
AcDbSpline
 70
8
 71
3
 72
8
 73
4
 74
0
 40
0
 40
0
 40
0
 40
0
 40
1
 40
1
 40
1
 40
1
 10
88.536707
 20
543.758702
 30
0.0
 10
89.919367
 20
543.007999
 30
0.0
 10
91.797906
 20
541.621953
 30
0.0
 10
92.850657
 20
540.575420
 30
0.0
  0
SPLINE
  5
137
100
AcDbEntity
  8
Calque_1
 62
7
100
AcDbSpline
 70
8
 71
3
 72
8
 73
4
 74
0
 40
0
 40
0
 40
0
 40
0
 40
1
 40
1
 40
1
 40
1
 10
92.850657
 20
540.575420
 30
0.0
 10
93.351010
 20
540.078004
 30
0.0
 10
94.289794
 20
539.400564
 30
0.0
 10
94.936835
 20
539.069571
 30
0.0
  0
SPLINE
  5
138
100
AcDbEntity
  8
Calque_1
 62
7
100
AcDbSpline
 70
8
 71
3
 72
8
 73
4
 74
0
 40
0
 40
0
 40
0
 40
0
 40
1
 40
1
 40
1
 40
1
 10
94.936835
 20
539.069571
 30
0.0
 10
106.160140
 20
533.328509
 30
0.0
 10
116.517008
 20
520.186761
 30
0.0
 10
120.214878
 20
506.995060
 30
0.0
  0
SPLINE
  5
139
100
AcDbEntity
  8
Calque_1
 62
7
100
AcDbSpline
 70
8
 71
3
 72
8
 73
4
 74
0
 40
0
 40
0
 40
0
 40
0
 40
1
 40
1
 40
1
 40
1
 10
120.214878
 20
506.995060
 30
0.0
 10
121.457793
 20
502.561093
 30
0.0
 10
121.845812
 20
504.185026
 30
0.0
 10
121.974976
 20
482.433233
 30
0.0
  0
SPLINE
  5
13a
100
AcDbEntity
  8
Calque_1
 62
7
100
AcDbSpline
 70
8
 71
3
 72
8
 73
4
 74
0
 40
0
 40
0
 40
0
 40
0
 40
1
 40
1
 40
1
 40
1
 10
121.974976
 20
482.433233
 30
0.0
 10
121.540231
 20
479.204285
 30
0.0
 10
120.854876
 20
476.935986
 30
0.0
 10
120.051580
 20
476.899738
 30
0.0
  0
SPLINE
  5
13b
100
AcDbEntity
  8
Calque_1
 62
7
100
AcDbSpline
 70
8
 71
3
 72
8
 73
4
 74
0
 40
0
 40
0
 40
0
 40
0
 40
1
 40
1
 40
1
 40
1
 10
120.051580
 20
476.899738
 30
0.0
 10
119.529697
 20
476.876719
 30
0.0
 10
120.369262
 20
476.855579
 30
0.0
 10
122.001331
 20
476.839254
 30
0.0
  0
SPLINE
  5
13c
100
AcDbEntity
  8
Calque_1
 62
7
100
AcDbSpline
 70
8
 71
3
 72
8
 73
4
 74
0
 40
0
 40
0
 40
0
 40
0
 40
1
 40
1
 40
1
 40
1
 10
122.001331
 20
476.839254
 30
0.0
 10
122.047141
 20
464.025616
 30
0.0
 10
122.040577
 20
444.818639
 30
0.0
 10
122.054558
 20
415.449227
 30
0.0
  0
SPLINE
  5
13d
100
AcDbEntity
  8
Calque_1
 62
7
100
AcDbSpline
 70
8
 71
3
 72
8
 73
4
 74
0
 40
0
 40
0
 40
0
 40
0
 40
1
 40
1
 40
1
 40
1
 10
122.054558
 20
415.449227
 30
0.0
 10
122.076306
 20
369.828420
 30
0.0
 10
122.163463
 20
331.728421
 30
0.0
 10
122.248862
 20
330.782562
 30
0.0
  0
SPLINE
  5
13e
100
AcDbEntity
  8
Calque_1
 62
7
100
AcDbSpline
 70
8
 71
3
 72
8
 73
4
 74
0
 40
0
 40
0
 40
0
 40
0
 40
1
 40
1
 40
1
 40
1
 10
122.248862
 20
330.782562
 30
0.0
 10
122.334193
 20
329.836676
 30
0.0
 10
122.478338
 20
328.050713
 30
0.0
 10
122.568738
 20
326.813812
 30
0.0
  0
SPLINE
  5
13f
100
AcDbEntity
  8
Calque_1
 62
7
100
AcDbSpline
 70
8
 71
3
 72
8
 73
4
 74
0
 40
0
 40
0
 40
0
 40
0
 40
1
 40
1
 40
1
 40
1
 10
122.568738
 20
326.813812
 30
0.0
 10
122.867159
 20
322.732085
 30
0.0
 10
124.931658
 20
314.780139
 30
0.0
 10
126.243967
 20
312.658604
 30
0.0
  0
SPLINE
  5
140
100
AcDbEntity
  8
Calque_1
 62
7
100
AcDbSpline
 70
8
 71
3
 72
8
 73
4
 74
0
 40
0
 40
0
 40
0
 40
0
 40
1
 40
1
 40
1
 40
1
 10
126.243967
 20
312.658604
 30
0.0
 10
126.423987
 20
312.367536
 30
0.0
 10
126.790647
 20
311.534098
 30
0.0
 10
127.058387
 20
310.806520
 30
0.0
  0
SPLINE
  5
141
100
AcDbEntity
  8
Calque_1
 62
7
100
AcDbSpline
 70
8
 71
3
 72
8
 73
4
 74
0
 40
0
 40
0
 40
0
 40
0
 40
1
 40
1
 40
1
 40
1
 10
127.058387
 20
310.806520
 30
0.0
 10
127.326087
 20
310.078916
 30
0.0
 10
127.765671
 20
309.167585
 30
0.0
 10
128.035072
 20
308.781320
 30
0.0
  0
SPLINE
  5
142
100
AcDbEntity
  8
Calque_1
 62
7
100
AcDbSpline
 70
8
 71
3
 72
8
 73
4
 74
0
 40
0
 40
0
 40
0
 40
0
 40
1
 40
1
 40
1
 40
1
 10
128.035072
 20
308.781320
 30
0.0
 10
128.304471
 20
308.395055
 30
0.0
 10
128.524448
 20
308.014240
 30
0.0
 10
128.524448
 20
307.935368
 30
0.0
  0
SPLINE
  5
143
100
AcDbEntity
  8
Calque_1
 62
7
100
AcDbSpline
 70
8
 71
3
 72
8
 73
4
 74
0
 40
0
 40
0
 40
0
 40
0
 40
1
 40
1
 40
1
 40
1
 10
128.524448
 20
307.935368
 30
0.0
 10
128.524448
 20
305.970255
 30
0.0
 10
141.277852
 20
291.051115
 30
0.0
 10
143.672360
 20
290.215005
 30
0.0
  0
SPLINE
  5
144
100
AcDbEntity
  8
Calque_1
 62
7
100
AcDbSpline
 70
8
 71
3
 72
8
 73
4
 74
0
 40
0
 40
0
 40
0
 40
0
 40
1
 40
1
 40
1
 40
1
 10
143.672360
 20
290.215005
 30
0.0
 10
143.927021
 20
290.126079
 30
0.0
 10
144.135381
 20
289.891711
 30
0.0
 10
144.135381
 20
289.694094
 30
0.0
  0
SPLINE
  5
145
100
AcDbEntity
  8
Calque_1
 62
7
100
AcDbSpline
 70
8
 71
3
 72
8
 73
4
 74
0
 40
0
 40
0
 40
0
 40
0
 40
1
 40
1
 40
1
 40
1
 10
144.135381
 20
289.694094
 30
0.0
 10
144.135381
 20
289.391066
 30
0.0
 10
145.801851
 20
287.743268
 30
0.0
 10
152.188120
 20
281.732834
 30
0.0
  0
SPLINE
  5
146
100
AcDbEntity
  8
Calque_1
 62
7
100
AcDbSpline
 70
8
 71
3
 72
8
 73
4
 74
0
 40
0
 40
0
 40
0
 40
0
 40
1
 40
1
 40
1
 40
1
 10
152.188120
 20
281.732834
 30
0.0
 10
153.743819
 20
280.268683
 30
0.0
 10
164.388515
 20
270.839965
 30
0.0
 10
165.963505
 20
269.530992
 30
0.0
  0
SPLINE
  5
147
100
AcDbEntity
  8
Calque_1
 62
7
100
AcDbSpline
 70
8
 71
3
 72
8
 73
4
 74
0
 40
0
 40
0
 40
0
 40
0
 40
1
 40
1
 40
1
 40
1
 10
165.963505
 20
269.530992
 30
0.0
 10
166.836625
 20
268.805346
 30
0.0
 10
167.789133
 20
267.990641
 30
0.0
 10
168.080172
 20
267.720766
 30
0.0
  0
SPLINE
  5
148
100
AcDbEntity
  8
Calque_1
 62
7
100
AcDbSpline
 70
8
 71
3
 72
8
 73
4
 74
0
 40
0
 40
0
 40
0
 40
0
 40
1
 40
1
 40
1
 40
1
 10
168.080172
 20
267.720766
 30
0.0
 10
170.430733
 20
265.541049
 30
0.0
 10
186.303992
 20
253.142859
 30
0.0
 10
192.208931
 20
248.874363
 30
0.0
  0
SPLINE
  5
149
100
AcDbEntity
  8
Calque_1
 62
7
100
AcDbSpline
 70
8
 71
3
 72
8
 73
4
 74
0
 40
0
 40
0
 40
0
 40
0
 40
1
 40
1
 40
1
 40
1
 10
192.208931
 20
248.874363
 30
0.0
 10
200.938543
 20
242.563997
 30
0.0
 10
202.468141
 20
241.498018
 30
0.0
 10
210.148921
 20
236.372298
 30
0.0
  0
SPLINE
  5
14a
100
AcDbEntity
  8
Calque_1
 62
7
100
AcDbSpline
 70
8
 71
3
 72
8
 73
4
 74
0
 40
0
 40
0
 40
0
 40
0
 40
1
 40
1
 40
1
 40
1
 10
210.148921
 20
236.372298
 30
0.0
 10
223.411052
 20
227.521932
 30
0.0
 10
239.627820
 20
217.827864
 30
0.0
 10
250.497879
 20
212.252828
 30
0.0
  0
SPLINE
  5
14b
100
AcDbEntity
  8
Calque_1
 62
7
100
AcDbSpline
 70
8
 71
3
 72
8
 73
4
 74
0
 40
0
 40
0
 40
0
 40
0
 40
1
 40
1
 40
1
 40
1
 10
250.497879
 20
212.252828
 30
0.0
 10
250.741748
 20
212.127760
 30
0.0
 10
251.091652
 20
211.943134
 30
0.0
 10
251.384646
 20
211.790839
 30
0.0
  0
SPLINE
  5
14c
100
AcDbEntity
  8
Calque_1
 62
7
100
AcDbSpline
 70
8
 71
3
 72
8
 73
4
 74
0
 40
0
 40
0
 40
0
 40
0
 40
1
 40
1
 40
1
 40
1
 10
251.384646
 20
211.790839
 30
0.0
 10
251.393563
 20
210.573333
 30
0.0
 10
251.402453
 20
209.757993
 30
0.0
 10
251.410999
 20
209.866922
 30
0.0
  0
SPLINE
  5
14d
100
AcDbEntity
  8
Calque_1
 62
7
100
AcDbSpline
 70
8
 71
3
 72
8
 73
4
 74
0
 40
0
 40
0
 40
0
 40
0
 40
1
 40
1
 40
1
 40
1
 10
251.410999
 20
209.866922
 30
0.0
 10
251.510620
 20
211.135996
 30
0.0
 10
251.510239
 20
211.136022
 30
0.0
 10
252.355127
 20
210.615216
 30
0.0
  0
SPLINE
  5
14e
100
AcDbEntity
  8
Calque_1
 62
7
100
AcDbSpline
 70
8
 71
3
 72
8
 73
4
 74
0
 40
0
 40
0
 40
0
 40
0
 40
1
 40
1
 40
1
 40
1
 10
252.355127
 20
210.615216
 30
0.0
 10
253.367288
 20
209.991276
 30
0.0
 10
265.029100
 20
204.154938
 30
0.0
 10
269.868805
 20
201.850364
 30
0.0
  0
SPLINE
  5
14f
100
AcDbEntity
  8
Calque_1
 62
7
100
AcDbSpline
 70
8
 71
3
 72
8
 73
4
 74
0
 40
0
 40
0
 40
0
 40
0
 40
1
 40
1
 40
1
 40
1
 10
269.868805
 20
201.850364
 30
0.0
 10
280.333208
 20
196.867414
 30
0.0
 10
297.230532
 20
189.749222
 30
0.0
 10
307.571930
 20
185.967110
 30
0.0
  0
SPLINE
  5
150
100
AcDbEntity
  8
Calque_1
 62
7
100
AcDbSpline
 70
8
 71
3
 72
8
 73
4
 74
0
 40
0
 40
0
 40
0
 40
0
 40
1
 40
1
 40
1
 40
1
 10
307.571930
 20
185.967110
 30
0.0
 10
314.154128
 20
183.559798
 30
0.0
 10
323.577105
 20
180.412659
 30
0.0
 10
323.868596
 20
180.524551
 30
0.0
  0
SPLINE
  5
151
100
AcDbEntity
  8
Calque_1
 62
7
100
AcDbSpline
 70
8
 71
3
 72
8
 73
4
 74
0
 40
0
 40
0
 40
0
 40
0
 40
1
 40
1
 40
1
 40
1
 10
323.868596
 20
180.524551
 30
0.0
 10
324.037771
 20
180.589480
 30
0.0
 10
324.312355
 20
180.507089
 30
0.0
 10
324.478381
 20
180.341089
 30
0.0
  0
SPLINE
  5
152
100
AcDbEntity
  8
Calque_1
 62
7
100
AcDbSpline
 70
8
 71
3
 72
8
 73
4
 74
0
 40
0
 40
0
 40
0
 40
0
 40
1
 40
1
 40
1
 40
1
 10
324.478381
 20
180.341089
 30
0.0
 10
324.644407
 20
180.175063
 30
0.0
 10
325.224268
 20
179.900320
 30
0.0
 10
325.767193
 20
179.730801
 30
0.0
  0
SPLINE
  5
153
100
AcDbEntity
  8
Calque_1
 62
7
100
AcDbSpline
 70
8
 71
3
 72
8
 73
4
 74
0
 40
0
 40
0
 40
0
 40
0
 40
1
 40
1
 40
1
 40
1
 10
325.767193
 20
179.730801
 30
0.0
 10
329.280992
 20
178.633442
 30
0.0
 10
337.907361
 20
176.056083
 30
0.0
 10
339.454221
 20
175.641639
 30
0.0
  0
SPLINE
  5
154
100
AcDbEntity
  8
Calque_1
 62
7
100
AcDbSpline
 70
8
 71
3
 72
8
 73
4
 74
0
 40
0
 40
0
 40
0
 40
0
 40
1
 40
1
 40
1
 40
1
 10
339.454221
 20
175.641639
 30
0.0
 10
340.472867
 20
175.368722
 30
0.0
 10
343.449429
 20
174.539888
 30
0.0
 10
346.068804
 20
173.799372
 30
0.0
  0
SPLINE
  5
155
100
AcDbEntity
  8
Calque_1
 62
7
100
AcDbSpline
 70
8
 71
3
 72
8
 73
4
 74
0
 40
0
 40
0
 40
0
 40
0
 40
1
 40
1
 40
1
 40
1
 10
346.068804
 20
173.799372
 30
0.0
 10
353.205067
 20
171.781951
 30
0.0
 10
369.647148
 20
167.878367
 30
0.0
 10
374.511512
 20
167.046809
 30
0.0
  0
SPLINE
  5
156
100
AcDbEntity
  8
Calque_1
 62
7
100
AcDbSpline
 70
8
 71
3
 72
8
 73
4
 74
0
 40
0
 40
0
 40
0
 40
0
 40
1
 40
1
 40
1
 40
1
 10
374.511512
 20
167.046809
 30
0.0
 10
374.875314
 20
166.984631
 30
0.0
 10
376.720783
 20
166.627550
 30
0.0
 10
378.612554
 20
166.253059
 30
0.0
  0
SPLINE
  5
157
100
AcDbEntity
  8
Calque_1
 62
7
100
AcDbSpline
 70
8
 71
3
 72
8
 73
4
 74
0
 40
0
 40
0
 40
0
 40
0
 40
1
 40
1
 40
1
 40
1
 10
378.612554
 20
166.253059
 30
0.0
 10
382.404959
 20
165.502303
 30
0.0
 10
384.354197
 20
165.168902
 30
0.0
 10
386.153179
 20
164.963744
 30
0.0
  0
SPLINE
  5
158
100
AcDbEntity
  8
Calque_1
 62
7
100
AcDbSpline
 70
8
 71
3
 72
8
 73
4
 74
0
 40
0
 40
0
 40
0
 40
0
 40
1
 40
1
 40
1
 40
1
 10
386.153179
 20
164.963744
 30
0.0
 10
386.807996
 20
164.889052
 30
0.0
 10
388.355835
 20
164.636825
 30
0.0
 10
389.592762
 20
164.403039
 30
0.0
  0
SPLINE
  5
159
100
AcDbEntity
  8
Calque_1
 62
7
100
AcDbSpline
 70
8
 71
3
 72
8
 73
4
 74
0
 40
0
 40
0
 40
0
 40
0
 40
1
 40
1
 40
1
 40
1
 10
389.592762
 20
164.403039
 30
0.0
 10
393.848373
 20
163.598706
 30
0.0
 10
396.088680
 20
163.226437
 30
0.0
 10
401.366720
 20
162.448112
 30
0.0
  0
SPLINE
  5
15a
100
AcDbEntity
  8
Calque_1
 62
7
100
AcDbSpline
 70
8
 71
3
 72
8
 73
4
 74
0
 40
0
 40
0
 40
0
 40
0
 40
1
 40
1
 40
1
 40
1
 10
401.366720
 20
162.448112
 30
0.0
 10
408.721423
 20
161.363506
 30
0.0
 10
416.029346
 20
160.510013
 30
0.0
 10
416.760602
 20
160.649792
 30
0.0
  0
SPLINE
  5
15b
100
AcDbEntity
  8
Calque_1
 62
7
100
AcDbSpline
 70
8
 71
3
 72
8
 73
4
 74
0
 40
0
 40
0
 40
0
 40
0
 40
1
 40
1
 40
1
 40
1
 10
416.760602
 20
160.649792
 30
0.0
 10
417.098104
 20
160.714298
 30
0.0
 10
417.374012
 20
160.678447
 30
0.0
 10
417.374012
 20
160.570205
 30
0.0
  0
SPLINE
  5
15c
100
AcDbEntity
  8
Calque_1
 62
7
100
AcDbSpline
 70
8
 71
3
 72
8
 73
4
 74
0
 40
0
 40
0
 40
0
 40
0
 40
1
 40
1
 40
1
 40
1
 10
417.374012
 20
160.570205
 30
0.0
 10
417.374012
 20
160.461964
 30
0.0
 10
418.237215
 20
160.297870
 30
0.0
 10
419.292241
 20
160.205874
 30
0.0
  0
SPLINE
  5
15d
100
AcDbEntity
  8
Calque_1
 62
7
100
AcDbSpline
 70
8
 71
3
 72
8
 73
4
 74
0
 40
0
 40
0
 40
0
 40
0
 40
1
 40
1
 40
1
 40
1
 10
419.292241
 20
160.205874
 30
0.0
 10
420.347267
 20
160.113905
 30
0.0
 10
423.829845
 20
159.806009
 30
0.0
 10
427.031303
 20
159.521159
 30
0.0
  0
SPLINE
  5
15e
100
AcDbEntity
  8
Calque_1
 62
7
100
AcDbSpline
 70
8
 71
3
 72
8
 73
4
 74
0
 40
0
 40
0
 40
0
 40
0
 40
1
 40
1
 40
1
 40
1
 10
427.031303
 20
159.521159
 30
0.0
 10
430.232735
 20
159.236335
 30
0.0
 10
433.983230
 20
158.936985
 30
0.0
 10
435.365678
 20
158.856102
 30
0.0
  0
SPLINE
  5
15f
100
AcDbEntity
  8
Calque_1
 62
7
100
AcDbSpline
 70
8
 71
3
 72
8
 73
4
 74
0
 40
0
 40
0
 40
0
 40
0
 40
1
 40
1
 40
1
 40
1
 10
435.365678
 20
158.856102
 30
0.0
 10
441.092479
 20
158.520902
 30
0.0
 10
440.326669
 20
158.261425
 30
0.0
 10
433.910470
 20
158.363104
 30
0.0
  0
SPLINE
  5
160
100
AcDbEntity
  8
Calque_1
 62
7
100
AcDbSpline
 70
8
 71
3
 72
8
 73
4
 74
0
 40
0
 40
0
 40
0
 40
0
 40
1
 40
1
 40
1
 40
1
 10
433.910470
 20
158.363104
 30
0.0
 10
428.199862
 20
158.453592
 30
0.0
 10
423.257763
 20
158.306298
 30
0.0
 10
423.513668
 20
158.053039
 30
0.0
  0
SPLINE
  5
161
100
AcDbEntity
  8
Calque_1
 62
7
100
AcDbSpline
 70
8
 71
3
 72
8
 73
4
 74
0
 40
0
 40
0
 40
0
 40
0
 40
1
 40
1
 40
1
 40
1
 10
423.513668
 20
158.053039
 30
0.0
 10
423.765181
 20
157.804172
 30
0.0
 10
430.621355
 20
157.084056
 30
0.0
 10
436.159428
 20
156.724963
 30
0.0
  0
SPLINE
  5
162
100
AcDbEntity
  8
Calque_1
 62
7
100
AcDbSpline
 70
8
 71
3
 72
8
 73
4
 74
0
 40
0
 40
0
 40
0
 40
0
 40
1
 40
1
 40
1
 40
1
 10
436.159428
 20
156.724963
 30
0.0
 10
437.396355
 20
156.644768
 30
0.0
 10
440.015730
 20
156.451172
 30
0.0
 10
441.980262
 20
156.294486
 30
0.0
  0
SPLINE
  5
163
100
AcDbEntity
  8
Calque_1
 62
7
100
AcDbSpline
 70
8
 71
3
 72
8
 73
4
 74
0
 40
0
 40
0
 40
0
 40
0
 40
1
 40
1
 40
1
 40
1
 10
441.980262
 20
156.294486
 30
0.0
 10
446.683363
 20
155.919386
 30
0.0
 10
455.201094
 20
155.800006
 30
0.0
 10
464.492572
 20
155.873851
 30
0.0
  0
SPLINE
  5
164
100
AcDbEntity
  8
Calque_1
 62
7
100
AcDbSpline
 70
8
 71
3
 72
8
 73
4
 74
0
 40
0
 40
0
 40
0
 40
0
 40
1
 40
1
 40
1
 40
1
 10
464.492572
 20
155.873851
 30
0.0
 10
471.527208
 20
155.894753
 30
0.0
 10
478.811134
 20
156.034453
 30
0.0
 10
483.091960
 20
156.261942
 30
0.0
  0
SPLINE
  5
165
100
AcDbEntity
  8
Calque_1
 62
7
100
AcDbSpline
 70
8
 71
3
 72
8
 73
4
 74
0
 40
0
 40
0
 40
0
 40
0
 40
1
 40
1
 40
1
 40
1
 10
483.091960
 20
156.261942
 30
0.0
 10
491.278724
 20
156.541951
 30
0.0
 10
498.477904
 20
156.949303
 30
0.0
 10
502.371407
 20
157.446349
 30
0.0
  0
SPLINE
  5
166
100
AcDbEntity
  8
Calque_1
 62
7
100
AcDbSpline
 70
8
 71
3
 72
8
 73
4
 74
0
 40
0
 40
0
 40
0
 40
0
 40
1
 40
1
 40
1
 40
1
 10
502.371407
 20
157.446349
 30
0.0
 10
506.461574
 20
157.968584
 30
0.0
 10
504.906803
 20
158.083916
 30
0.0
 10
494.169323
 20
158.055632
 30
0.0
  0
SPLINE
  5
167
100
AcDbEntity
  8
Calque_1
 62
7
100
AcDbSpline
 70
8
 71
3
 72
8
 73
4
 74
0
 40
0
 40
0
 40
0
 40
0
 40
1
 40
1
 40
1
 40
1
 10
494.169323
 20
158.055632
 30
0.0
 10
484.769207
 20
158.030761
 30
0.0
 10
483.329239
 20
158.138923
 30
0.0
 10
489.314828
 20
158.534157
 30
0.0
  0
SPLINE
  5
168
100
AcDbEntity
  8
Calque_1
 62
7
100
AcDbSpline
 70
8
 71
3
 72
8
 73
4
 74
0
 40
0
 40
0
 40
0
 40
0
 40
1
 40
1
 40
1
 40
1
 10
489.314828
 20
158.534157
 30
0.0
 10
490.050026
 20
158.575565
 30
0.0
 10
490.836499
 20
158.618665
 30
0.0
 10
491.665598
 20
158.657665
 30
0.0
  0
SPLINE
  5
169
100
AcDbEntity
  8
Calque_1
 62
7
100
AcDbSpline
 70
8
 71
3
 72
8
 73
4
 74
0
 40
0
 40
0
 40
0
 40
0
 40
1
 40
1
 40
1
 40
1
 10
491.665598
 20
158.657665
 30
0.0
 10
502.151776
 20
159.150954
 30
0.0
 10
516.815778
 20
160.528692
 30
0.0
 10
528.574972
 20
162.125664
 30
0.0
  0
SPLINE
  5
16a
100
AcDbEntity
  8
Calque_1
 62
7
100
AcDbSpline
 70
8
 71
3
 72
8
 73
4
 74
0
 40
0
 40
0
 40
0
 40
0
 40
1
 40
1
 40
1
 40
1
 10
528.574972
 20
162.125664
 30
0.0
 10
535.232101
 20
163.029719
 30
0.0
 10
540.983163
 20
163.871306
 30
0.0
 10
542.994764
 20
164.236140
 30
0.0
  0
SPLINE
  5
16b
100
AcDbEntity
  8
Calque_1
 62
7
100
AcDbSpline
 70
8
 71
3
 72
8
 73
4
 74
0
 40
0
 40
0
 40
0
 40
0
 40
1
 40
1
 40
1
 40
1
 10
542.994764
 20
164.236140
 30
0.0
 10
544.158930
 20
164.447251
 30
0.0
 10
546.480649
 20
164.871616
 30
0.0
 10
548.154139
 20
165.178718
 30
0.0
  0
SPLINE
  5
16c
100
AcDbEntity
  8
Calque_1
 62
7
100
AcDbSpline
 70
8
 71
3
 72
8
 73
4
 74
0
 40
0
 40
0
 40
0
 40
0
 40
1
 40
1
 40
1
 40
1
 10
548.154139
 20
165.178718
 30
0.0
 10
549.827628
 20
165.485767
 30
0.0
 10
551.554035
 20
165.794377
 30
0.0
 10
551.990597
 20
165.864968
 30
0.0
  0
SPLINE
  5
16d
100
AcDbEntity
  8
Calque_1
 62
7
100
AcDbSpline
 70
8
 71
3
 72
8
 73
4
 74
0
 40
0
 40
0
 40
0
 40
0
 40
1
 40
1
 40
1
 40
1
 10
551.990597
 20
165.864968
 30
0.0
 10
558.474899
 20
166.913750
 30
0.0
 10
580.379436
 20
171.905723
 30
0.0
 10
587.312472
 20
173.914598
 30
0.0
  0
SPLINE
  5
16e
100
AcDbEntity
  8
Calque_1
 62
7
100
AcDbSpline
 70
8
 71
3
 72
8
 73
4
 74
0
 40
0
 40
0
 40
0
 40
0
 40
1
 40
1
 40
1
 40
1
 10
587.312472
 20
173.914598
 30
0.0
 10
588.840440
 20
174.357325
 30
0.0
 10
590.466569
 20
174.740098
 30
0.0
 10
590.926204
 20
174.765207
 30
0.0
  0
SPLINE
  5
16f
100
AcDbEntity
  8
Calque_1
 62
7
100
AcDbSpline
 70
8
 71
3
 72
8
 73
4
 74
0
 40
0
 40
0
 40
0
 40
0
 40
1
 40
1
 40
1
 40
1
 10
590.926204
 20
174.765207
 30
0.0
 10
591.385838
 20
174.790342
 30
0.0
 10
591.710614
 20
174.862732
 30
0.0
 10
591.648119
 20
174.926418
 30
0.0
  0
SPLINE
  5
170
100
AcDbEntity
  8
Calque_1
 62
7
100
AcDbSpline
 70
8
 71
3
 72
8
 73
4
 74
0
 40
0
 40
0
 40
0
 40
0
 40
1
 40
1
 40
1
 40
1
 10
591.648119
 20
174.926418
 30
0.0
 10
591.534666
 20
175.041988
 30
0.0
 10
592.005439
 20
175.192271
 30
0.0
 10
597.498930
 20
176.795064
 30
0.0
  0
SPLINE
  5
171
100
AcDbEntity
  8
Calque_1
 62
7
100
AcDbSpline
 70
8
 71
3
 72
8
 73
4
 74
0
 40
0
 40
0
 40
0
 40
0
 40
1
 40
1
 40
1
 40
1
 10
597.498930
 20
176.795064
 30
0.0
 10
602.730959
 20
178.321551
 30
0.0
 10
609.841821
 20
180.604535
 30
0.0
 10
616.416638
 20
182.868071
 30
0.0
  0
SPLINE
  5
172
100
AcDbEntity
  8
Calque_1
 62
7
100
AcDbSpline
 70
8
 71
3
 72
8
 73
4
 74
0
 40
0
 40
0
 40
0
 40
0
 40
1
 40
1
 40
1
 40
1
 10
616.416638
 20
182.868071
 30
0.0
 10
621.429645
 20
184.593922
 30
0.0
 10
621.568022
 20
184.629826
 30
0.0
 10
621.284548
 20
184.137251
 30
0.0
  0
SPLINE
  5
173
100
AcDbEntity
  8
Calque_1
 62
7
100
AcDbSpline
 70
8
 71
3
 72
8
 73
4
 74
0
 40
0
 40
0
 40
0
 40
0
 40
1
 40
1
 40
1
 40
1
 10
621.284548
 20
184.137251
 30
0.0
 10
621.173952
 20
183.945084
 30
0.0
 10
621.194748
 20
183.899100
 30
0.0
 10
621.334686
 20
184.027158
 30
0.0
  0
SPLINE
  5
174
100
AcDbEntity
  8
Calque_1
 62
7
100
AcDbSpline
 70
8
 71
3
 72
8
 73
4
 74
0
 40
0
 40
0
 40
0
 40
0
 40
1
 40
1
 40
1
 40
1
 10
621.334686
 20
184.027158
 30
0.0
 10
621.467137
 20
184.148470
 30
0.0
 10
621.538098
 20
184.317565
 30
0.0
 10
621.492299
 20
184.403369
 30
0.0
  0
SPLINE
  5
175
100
AcDbEntity
  8
Calque_1
 62
7
100
AcDbSpline
 70
8
 71
3
 72
8
 73
4
 74
0
 40
0
 40
0
 40
0
 40
0
 40
1
 40
1
 40
1
 40
1
 10
621.492299
 20
184.403369
 30
0.0
 10
621.446473
 20
184.489200
 30
0.0
 10
622.518035
 20
184.969630
 30
0.0
 10
623.873549
 20
185.471016
 30
0.0
  0
SPLINE
  5
176
100
AcDbEntity
  8
Calque_1
 62
7
100
AcDbSpline
 70
8
 71
3
 72
8
 73
4
 74
0
 40
0
 40
0
 40
0
 40
0
 40
1
 40
1
 40
1
 40
1
 10
623.873549
 20
185.471016
 30
0.0
 10
625.229035
 20
185.972401
 30
0.0
 10
628.462006
 20
187.202264
 30
0.0
 10
631.057595
 20
188.203659
 30
0.0
  0
SPLINE
  5
177
100
AcDbEntity
  8
Calque_1
 62
7
100
AcDbSpline
 70
8
 71
3
 72
8
 73
4
 74
0
 40
0
 40
0
 40
0
 40
0
 40
1
 40
1
 40
1
 40
1
 10
631.057595
 20
188.203659
 30
0.0
 10
633.653210
 20
189.205054
 30
0.0
 10
635.941459
 20
190.024230
 30
0.0
 10
636.142569
 20
190.024230
 30
0.0
  0
SPLINE
  5
178
100
AcDbEntity
  8
Calque_1
 62
7
100
AcDbSpline
 70
8
 71
3
 72
8
 73
4
 74
0
 40
0
 40
0
 40
0
 40
0
 40
1
 40
1
 40
1
 40
1
 10
636.142569
 20
190.024230
 30
0.0
 10
636.358918
 20
190.024230
 30
0.0
 10
636.446072
 20
190.186314
 30
0.0
 10
636.355982
 20
190.421105
 30
0.0
  0
SPLINE
  5
179
100
AcDbEntity
  8
Calque_1
 62
7
100
AcDbSpline
 70
8
 71
3
 72
8
 73
4
 74
0
 40
0
 40
0
 40
0
 40
0
 40
1
 40
1
 40
1
 40
1
 10
636.355982
 20
190.421105
 30
0.0
 10
636.326163
 20
190.498813
 30
0.0
 10
636.314971
 20
190.561625
 30
0.0
 10
636.323438
 20
190.612822
 30
0.0
  0
SPLINE
  5
17a
100
AcDbEntity
  8
Calque_1
 62
7
100
AcDbSpline
 70
8
 71
3
 72
8
 73
4
 74
0
 40
0
 40
0
 40
0
 40
0
 40
1
 40
1
 40
1
 40
1
 10
636.323438
 20
190.612822
 30
0.0
 10
636.455650
 20
190.669681
 30
0.0
 10
636.599187
 20
190.729874
 30
0.0
 10
636.721847
 20
190.783849
 30
0.0
  0
SPLINE
  5
17b
100
AcDbEntity
  8
Calque_1
 62
7
100
AcDbSpline
 70
8
 71
3
 72
8
 73
4
 74
0
 40
0
 40
0
 40
0
 40
0
 40
1
 40
1
 40
1
 40
1
 10
636.721847
 20
190.783849
 30
0.0
 10
636.794978
 20
190.786759
 30
0.0
 10
636.863029
 20
190.791522
 30
0.0
 10
636.959549
 20
190.787553
 30
0.0
  0
SPLINE
  5
17c
100
AcDbEntity
  8
Calque_1
 62
7
100
AcDbSpline
 70
8
 71
3
 72
8
 73
4
 74
0
 40
0
 40
0
 40
0
 40
0
 40
1
 40
1
 40
1
 40
1
 10
636.959549
 20
190.787553
 30
0.0
 10
637.406510
 20
190.769297
 30
0.0
 10
637.525810
 20
190.707120
 30
0.0
 10
637.252046
 20
190.635629
 30
0.0
  0
SPLINE
  5
17d
100
AcDbEntity
  8
Calque_1
 62
7
100
AcDbSpline
 70
8
 71
3
 72
8
 73
4
 74
0
 40
0
 40
0
 40
0
 40
0
 40
1
 40
1
 40
1
 40
1
 10
637.252046
 20
190.635629
 30
0.0
 10
636.997384
 20
190.569060
 30
0.0
 10
636.789025
 20
190.404595
 30
0.0
 10
636.789025
 20
190.269764
 30
0.0
  0
SPLINE
  5
17e
100
AcDbEntity
  8
Calque_1
 62
7
100
AcDbSpline
 70
8
 71
3
 72
8
 73
4
 74
0
 40
0
 40
0
 40
0
 40
0
 40
1
 40
1
 40
1
 40
1
 10
636.789025
 20
190.269764
 30
0.0
 10
636.789025
 20
189.894373
 30
0.0
 10
637.214766
 20
189.977902
 30
0.0
 10
637.586903
 20
190.426344
 30
0.0
  0
SPLINE
  5
17f
100
AcDbEntity
  8
Calque_1
 62
7
100
AcDbSpline
 70
8
 71
3
 72
8
 73
4
 74
0
 40
0
 40
0
 40
0
 40
0
 40
1
 40
1
 40
1
 40
1
 10
637.586903
 20
190.426344
 30
0.0
 10
637.770312
 20
190.647298
 30
0.0
 10
638.291038
 20
190.999828
 30
0.0
 10
638.743952
 20
191.209749
 30
0.0
  0
SPLINE
  5
180
100
AcDbEntity
  8
Calque_1
 62
7
100
AcDbSpline
 70
8
 71
3
 72
8
 73
4
 74
0
 40
0
 40
0
 40
0
 40
0
 40
1
 40
1
 40
1
 40
1
 10
638.743952
 20
191.209749
 30
0.0
 10
640.651942
 20
192.094119
 30
0.0
 10
644.073560
 20
193.463893
 30
0.0
 10
644.374100
 20
193.463893
 30
0.0
  0
SPLINE
  5
181
100
AcDbEntity
  8
Calque_1
 62
7
100
AcDbSpline
 70
8
 71
3
 72
8
 73
4
 74
0
 40
0
 40
0
 40
0
 40
0
 40
1
 40
1
 40
1
 40
1
 10
644.374100
 20
193.463893
 30
0.0
 10
644.552720
 20
193.463867
 30
0.0
 10
645.270376
 20
193.767899
 30
0.0
 10
645.968823
 20
194.139295
 30
0.0
  0
SPLINE
  5
182
100
AcDbEntity
  8
Calque_1
 62
7
100
AcDbSpline
 70
8
 71
3
 72
8
 73
4
 74
0
 40
0
 40
0
 40
0
 40
0
 40
1
 40
1
 40
1
 40
1
 10
645.968823
 20
194.139295
 30
0.0
 10
646.667297
 20
194.510664
 30
0.0
 10
647.452315
 20
194.758473
 30
0.0
 10
647.713433
 20
194.690157
 30
0.0
  0
SPLINE
  5
183
100
AcDbEntity
  8
Calque_1
 62
7
100
AcDbSpline
 70
8
 71
3
 72
8
 73
4
 74
0
 40
0
 40
0
 40
0
 40
0
 40
1
 40
1
 40
1
 40
1
 10
647.713433
 20
194.690157
 30
0.0
 10
648.086469
 20
194.592632
 30
0.0
 10
648.152667
 20
194.678251
 30
0.0
 10
648.021937
 20
195.090128
 30
0.0
  0
SPLINE
  5
184
100
AcDbEntity
  8
Calque_1
 62
7
100
AcDbSpline
 70
8
 71
3
 72
8
 73
4
 74
0
 40
0
 40
0
 40
0
 40
0
 40
1
 40
1
 40
1
 40
1
 10
648.021937
 20
195.090128
 30
0.0
 10
647.909145
 20
195.445490
 30
0.0
 10
647.969576
 20
195.595429
 30
0.0
 10
648.209526
 20
195.555742
 30
0.0
  0
SPLINE
  5
185
100
AcDbEntity
  8
Calque_1
 62
7
100
AcDbSpline
 70
8
 71
3
 72
8
 73
4
 74
0
 40
0
 40
0
 40
0
 40
0
 40
1
 40
1
 40
1
 40
1
 10
648.209526
 20
195.555742
 30
0.0
 10
648.404180
 20
195.523463
 30
0.0
 10
648.801108
 20
195.586433
 30
0.0
 10
649.092150
 20
195.695786
 30
0.0
  0
SPLINE
  5
186
100
AcDbEntity
  8
Calque_1
 62
7
100
AcDbSpline
 70
8
 71
3
 72
8
 73
4
 74
0
 40
0
 40
0
 40
0
 40
0
 40
1
 40
1
 40
1
 40
1
 10
649.092150
 20
195.695786
 30
0.0
 10
649.383218
 20
195.805138
 30
0.0
 10
649.948738
 20
196.017016
 30
0.0
 10
650.348921
 20
196.166559
 30
0.0
  0
SPLINE
  5
187
100
AcDbEntity
  8
Calque_1
 62
7
100
AcDbSpline
 70
8
 71
3
 72
8
 73
4
 74
0
 40
0
 40
0
 40
0
 40
0
 40
1
 40
1
 40
1
 40
1
 10
650.348921
 20
196.166559
 30
0.0
 10
650.749103
 20
196.316075
 30
0.0
 10
651.076525
 20
196.548564
 30
0.0
 10
651.076525
 20
196.682814
 30
0.0
  0
SPLINE
  5
188
100
AcDbEntity
  8
Calque_1
 62
7
100
AcDbSpline
 70
8
 71
3
 72
8
 73
4
 74
0
 40
0
 40
0
 40
0
 40
0
 40
1
 40
1
 40
1
 40
1
 10
651.076525
 20
196.682814
 30
0.0
 10
651.076525
 20
196.817063
 30
0.0
 10
651.225353
 20
196.902153
 30
0.0
 10
651.407254
 20
196.872467
 30
0.0
  0
SPLINE
  5
189
100
AcDbEntity
  8
Calque_1
 62
7
100
AcDbSpline
 70
8
 71
3
 72
8
 73
4
 74
0
 40
0
 40
0
 40
0
 40
0
 40
1
 40
1
 40
1
 40
1
 10
651.407254
 20
196.872467
 30
0.0
 10
652.048922
 20
196.767639
 30
0.0
 10
655.345180
 20
198.220466
 30
0.0
 10
655.156903
 20
198.525081
 30
0.0
  0
SPLINE
  5
18a
100
AcDbEntity
  8
Calque_1
 62
7
100
AcDbSpline
 70
8
 71
3
 72
8
 73
4
 74
0
 40
0
 40
0
 40
0
 40
0
 40
1
 40
1
 40
1
 40
1
 10
655.156903
 20
198.525081
 30
0.0
 10
655.080544
 20
198.648641
 30
0.0
 10
655.178863
 20
198.687826
 30
0.0
 10
655.375501
 20
198.612394
 30
0.0
  0
SPLINE
  5
18b
100
AcDbEntity
  8
Calque_1
 62
7
100
AcDbSpline
 70
8
 71
3
 72
8
 73
4
 74
0
 40
0
 40
0
 40
0
 40
0
 40
1
 40
1
 40
1
 40
1
 10
655.375501
 20
198.612394
 30
0.0
 10
655.572034
 20
198.536961
 30
0.0
 10
657.274548
 20
199.204319
 30
0.0
 10
659.159228
 20
200.095515
 30
0.0
  0
SPLINE
  5
18c
100
AcDbEntity
  8
Calque_1
 62
7
100
AcDbSpline
 70
8
 71
3
 72
8
 73
4
 74
0
 40
0
 40
0
 40
0
 40
0
 40
1
 40
1
 40
1
 40
1
 10
659.159228
 20
200.095515
 30
0.0
 10
661.043908
 20
200.986711
 30
0.0
 10
663.340756
 20
202.068990
 30
0.0
 10
664.262802
 20
202.500525
 30
0.0
  0
SPLINE
  5
18d
100
AcDbEntity
  8
Calque_1
 62
7
100
AcDbSpline
 70
8
 71
3
 72
8
 73
4
 74
0
 40
0
 40
0
 40
0
 40
0
 40
1
 40
1
 40
1
 40
1
 10
664.262802
 20
202.500525
 30
0.0
 10
666.288426
 20
203.448501
 30
0.0
 10
670.847594
 20
205.691400
 30
0.0
 10
671.581733
 20
206.100843
 30
0.0
  0
SPLINE
  5
18e
100
AcDbEntity
  8
Calque_1
 62
7
100
AcDbSpline
 70
8
 71
3
 72
8
 73
4
 74
0
 40
0
 40
0
 40
0
 40
0
 40
1
 40
1
 40
1
 40
1
 10
671.581733
 20
206.100843
 30
0.0
 10
674.156102
 20
207.156477
 30
0.0
 10
676.016229
 20
208.431901
 30
0.0
 10
676.016229
 20
208.431901
 30
0.0
  0
SPLINE
  5
18f
100
AcDbEntity
  8
Calque_1
 62
7
100
AcDbSpline
 70
8
 71
3
 72
8
 73
4
 74
0
 40
0
 40
0
 40
0
 40
0
 40
1
 40
1
 40
1
 40
1
 10
676.016229
 20
208.431901
 30
0.0
 10
677.633574
 20
209.106721
 30
0.0
 10
679.599719
 20
210.720150
 30
0.0
 10
683.176462
 20
212.565037
 30
0.0
  0
SPLINE
  5
190
100
AcDbEntity
  8
Calque_1
 62
7
100
AcDbSpline
 70
8
 71
3
 72
8
 73
4
 74
0
 40
0
 40
0
 40
0
 40
0
 40
1
 40
1
 40
1
 40
1
 10
683.176462
 20
212.565037
 30
0.0
 10
690.240414
 20
215.955593
 30
0.0
 10
706.334833
 20
225.392195
 30
0.0
 10
715.691716
 20
231.433665
 30
0.0
  0
SPLINE
  5
191
100
AcDbEntity
  8
Calque_1
 62
7
100
AcDbSpline
 70
8
 71
3
 72
8
 73
4
 74
0
 40
0
 40
0
 40
0
 40
0
 40
1
 40
1
 40
1
 40
1
 10
715.691716
 20
231.433665
 30
0.0
 10
719.031208
 20
233.589886
 30
0.0
 10
727.296923
 20
239.107004
 30
0.0
 10
729.053175
 20
240.351975
 30
0.0
  0
SPLINE
  5
192
100
AcDbEntity
  8
Calque_1
 62
7
100
AcDbSpline
 70
8
 71
3
 72
8
 73
4
 74
0
 40
0
 40
0
 40
0
 40
0
 40
1
 40
1
 40
1
 40
1
 10
729.053175
 20
240.351975
 30
0.0
 10
729.999060
 20
241.022508
 30
0.0
 10
731.629158
 20
242.158074
 30
0.0
 10
732.675691
 20
242.875333
 30
0.0
  0
SPLINE
  5
193
100
AcDbEntity
  8
Calque_1
 62
7
100
AcDbSpline
 70
8
 71
3
 72
8
 73
4
 74
0
 40
0
 40
0
 40
0
 40
0
 40
1
 40
1
 40
1
 40
1
 10
732.675691
 20
242.875333
 30
0.0
 10
734.779049
 20
244.316968
 30
0.0
 10
740.221925
 20
248.385175
 30
0.0
 10
740.430258
 20
248.671374
 30
0.0
  0
SPLINE
  5
194
100
AcDbEntity
  8
Calque_1
 62
7
100
AcDbSpline
 70
8
 71
3
 72
8
 73
4
 74
0
 40
0
 40
0
 40
0
 40
0
 40
1
 40
1
 40
1
 40
1
 10
740.430258
 20
248.671374
 30
0.0
 10
740.503018
 20
248.771334
 30
0.0
 10
740.745879
 20
248.919950
 30
0.0
 10
740.969743
 20
249.002104
 30
0.0
  0
SPLINE
  5
195
100
AcDbEntity
  8
Calque_1
 62
7
100
AcDbSpline
 70
8
 71
3
 72
8
 73
4
 74
0
 40
0
 40
0
 40
0
 40
0
 40
1
 40
1
 40
1
 40
1
 10
740.969743
 20
249.002104
 30
0.0
 10
742.315123
 20
249.495737
 30
0.0
 10
761.329457
 20
264.469830
 30
0.0
 10
761.941068
 20
265.517369
 30
0.0
  0
SPLINE
  5
196
100
AcDbEntity
  8
Calque_1
 62
7
100
AcDbSpline
 70
8
 71
3
 72
8
 73
4
 74
0
 40
0
 40
0
 40
0
 40
0
 40
1
 40
1
 40
1
 40
1
 10
761.941068
 20
265.517369
 30
0.0
 10
762.057458
 20
265.716679
 30
0.0
 10
762.273993
 20
265.880139
 30
0.0
 10
762.422715
 20
265.880139
 30
0.0
  0
SPLINE
  5
197
100
AcDbEntity
  8
Calque_1
 62
7
100
AcDbSpline
 70
8
 71
3
 72
8
 73
4
 74
0
 40
0
 40
0
 40
0
 40
0
 40
1
 40
1
 40
1
 40
1
 10
762.422715
 20
265.880139
 30
0.0
 10
763.759999
 20
265.880139
 30
0.0
 10
790.658069
 20
290.690223
 30
0.0
 10
797.646906
 20
298.370125
 30
0.0
  0
SPLINE
  5
198
100
AcDbEntity
  8
Calque_1
 62
7
100
AcDbSpline
 70
8
 71
3
 72
8
 73
4
 74
0
 40
0
 40
0
 40
0
 40
0
 40
1
 40
1
 40
1
 40
1
 10
797.646906
 20
298.370125
 30
0.0
 10
805.614224
 20
307.125267
 30
0.0
 10
810.537273
 20
318.923408
 30
0.0
 10
810.948436
 20
330.247257
 30
0.0
  0
SPLINE
  5
199
100
AcDbEntity
  8
Calque_1
 62
7
100
AcDbSpline
 70
8
 71
3
 72
8
 73
4
 74
0
 40
0
 40
0
 40
0
 40
0
 40
1
 40
1
 40
1
 40
1
 10
810.948436
 20
330.247257
 30
0.0
 10
811.005374
 20
331.815654
 30
0.0
 10
811.107794
 20
333.189212
 30
0.0
 10
811.175792
 20
333.299278
 30
0.0
  0
SPLINE
  5
19a
100
AcDbEntity
  8
Calque_1
 62
7
100
AcDbSpline
 70
8
 71
3
 72
8
 73
4
 74
0
 40
0
 40
0
 40
0
 40
0
 40
1
 40
1
 40
1
 40
1
 10
811.175792
 20
333.299278
 30
0.0
 10
811.329885
 20
333.548595
 30
0.0
 10
811.173146
 20
345.584623
 30
0.0
 10
810.987171
 20
347.831703
 30
0.0
  0
SPLINE
  5
19b
100
AcDbEntity
  8
Calque_1
 62
7
100
AcDbSpline
 70
8
 71
3
 72
8
 73
4
 74
0
 40
0
 40
0
 40
0
 40
0
 40
1
 40
1
 40
1
 40
1
 10
810.987171
 20
347.831703
 30
0.0
 10
810.907452
 20
348.792590
 30
0.0
 10
810.960104
 20
349.550172
 30
0.0
 10
811.112742
 20
349.644522
 30
0.0
  0
SPLINE
  5
19c
100
AcDbEntity
  8
Calque_1
 62
7
100
AcDbSpline
 70
8
 71
3
 72
8
 73
4
 74
0
 40
0
 40
0
 40
0
 40
0
 40
1
 40
1
 40
1
 40
1
 10
811.112742
 20
349.644522
 30
0.0
 10
811.256966
 20
349.733660
 30
0.0
 10
811.299644
 20
350.002212
 30
0.0
 10
811.207833
 20
350.241396
 30
0.0
  0
SPLINE
  5
19d
100
AcDbEntity
  8
Calque_1
 62
7
100
AcDbSpline
 70
8
 71
3
 72
8
 73
4
 74
0
 40
0
 40
0
 40
0
 40
0
 40
1
 40
1
 40
1
 40
1
 10
811.207833
 20
350.241396
 30
0.0
 10
811.116023
 20
350.480606
 30
0.0
 10
811.049454
 20
359.189763
 30
0.0
 10
811.060037
 20
369.595243
 30
0.0
  0
SPLINE
  5
19e
100
AcDbEntity
  8
Calque_1
 62
7
100
AcDbSpline
 70
8
 71
3
 72
8
 73
4
 74
0
 40
0
 40
0
 40
0
 40
0
 40
1
 40
1
 40
1
 40
1
 10
811.060037
 20
369.595243
 30
0.0
 10
811.070620
 20
380.000723
 30
0.0
 10
810.956003
 20
406.850137
 30
0.0
 10
810.805270
 20
429.260345
 30
0.0
  0
SPLINE
  5
19f
100
AcDbEntity
  8
Calque_1
 62
7
100
AcDbSpline
 70
8
 71
3
 72
8
 73
4
 74
0
 40
0
 40
0
 40
0
 40
0
 40
1
 40
1
 40
1
 40
1
 10
810.805270
 20
429.260345
 30
0.0
 10
810.662924
 20
450.427593
 30
0.0
 10
810.572092
 20
465.619122
 30
0.0
 10
810.566007
 20
476.780940
 30
0.0
  0
SPLINE
  5
1a0
100
AcDbEntity
  8
Calque_1
 62
7
100
AcDbSpline
 70
8
 71
3
 72
8
 73
4
 74
0
 40
0
 40
0
 40
0
 40
0
 40
1
 40
1
 40
1
 40
1
 10
810.566007
 20
476.780940
 30
0.0
 10
812.975673
 20
476.824675
 30
0.0
 10
813.653562
 20
476.898918
 30
0.0
 10
812.984986
 20
477.020732
 30
0.0
  0
SPLINE
  5
1a1
100
AcDbEntity
  8
Calque_1
 62
7
100
AcDbSpline
 70
8
 71
3
 72
8
 73
4
 74
0
 40
0
 40
0
 40
0
 40
0
 40
1
 40
1
 40
1
 40
1
 10
812.984986
 20
477.020732
 30
0.0
 10
811.807882
 20
477.235203
 30
0.0
 10
811.609074
 20
477.352519
 30
0.0
 10
811.737000
 20
477.755559
 30
0.0
  0
SPLINE
  5
1a2
100
AcDbEntity
  8
Calque_1
 62
7
100
AcDbSpline
 70
8
 71
3
 72
8
 73
4
 74
0
 40
0
 40
0
 40
0
 40
0
 40
1
 40
1
 40
1
 40
1
 10
811.737000
 20
477.755559
 30
0.0
 10
811.847199
 20
478.102745
 30
0.0
 10
811.759489
 20
478.224057
 30
0.0
 10
811.417648
 20
478.196355
 30
0.0
  0
SPLINE
  5
1a3
100
AcDbEntity
  8
Calque_1
 62
7
100
AcDbSpline
 70
8
 71
3
 72
8
 73
4
 74
0
 40
0
 40
0
 40
0
 40
0
 40
1
 40
1
 40
1
 40
1
 10
811.417648
 20
478.196355
 30
0.0
 10
811.107186
 20
478.171219
 30
0.0
 10
810.914834
 20
478.374631
 30
0.0
 10
810.855911
 20
478.790635
 30
0.0
  0
SPLINE
  5
1a4
100
AcDbEntity
  8
Calque_1
 62
7
100
AcDbSpline
 70
8
 71
3
 72
8
 73
4
 74
0
 40
0
 40
0
 40
0
 40
0
 40
1
 40
1
 40
1
 40
1
 10
810.855911
 20
478.790635
 30
0.0
 10
810.781193
 20
479.318426
 30
0.0
 10
810.858557
 20
479.399071
 30
0.0
 10
811.318932
 20
479.278474
 30
0.0
  0
SPLINE
  5
1a5
100
AcDbEntity
  8
Calque_1
 62
7
100
AcDbSpline
 70
8
 71
3
 72
8
 73
4
 74
0
 40
0
 40
0
 40
0
 40
0
 40
1
 40
1
 40
1
 40
1
 10
811.318932
 20
479.278474
 30
0.0
 10
811.622753
 20
479.199073
 30
0.0
 10
811.871355
 20
479.241644
 30
0.0
 10
811.871355
 20
479.373565
 30
0.0
  0
SPLINE
  5
1a6
100
AcDbEntity
  8
Calque_1
 62
7
100
AcDbSpline
 70
8
 71
3
 72
8
 73
4
 74
0
 40
0
 40
0
 40
0
 40
0
 40
1
 40
1
 40
1
 40
1
 10
811.871355
 20
479.373565
 30
0.0
 10
811.871355
 20
479.505434
 30
0.0
 10
811.649872
 20
479.613331
 30
0.0
 10
811.379415
 20
479.613331
 30
0.0
  0
SPLINE
  5
1a7
100
AcDbEntity
  8
Calque_1
 62
7
100
AcDbSpline
 70
8
 71
3
 72
8
 73
4
 74
0
 40
0
 40
0
 40
0
 40
0
 40
1
 40
1
 40
1
 40
1
 10
811.379415
 20
479.613331
 30
0.0
 10
810.923988
 20
479.613331
 30
0.0
 10
810.888375
 20
479.883338
 30
0.0
 10
810.885385
 20
483.264263
 30
0.0
  0
SPLINE
  5
1a8
100
AcDbEntity
  8
Calque_1
 62
7
100
AcDbSpline
 70
8
 71
3
 72
8
 73
4
 74
0
 40
0
 40
0
 40
0
 40
0
 40
1
 40
1
 40
1
 40
1
 10
810.885385
 20
483.264263
 30
0.0
 10
810.882740
 20
485.272266
 30
0.0
 10
810.789977
 20
487.206105
 30
0.0
 10
810.677132
 20
487.561679
 30
0.0
  0
SPLINE
  5
1a9
100
AcDbEntity
  8
Calque_1
 62
7
100
AcDbSpline
 70
8
 71
3
 72
8
 73
4
 74
0
 40
0
 40
0
 40
0
 40
0
 40
1
 40
1
 40
1
 40
1
 10
810.677132
 20
487.561679
 30
0.0
 10
810.640381
 20
487.677460
 30
0.0
 10
810.618950
 20
487.755962
 30
0.0
 10
810.600112
 20
487.829358
 30
0.0
  0
SPLINE
  5
1aa
100
AcDbEntity
  8
Calque_1
 62
7
100
AcDbSpline
 70
8
 71
3
 72
8
 73
4
 74
0
 40
0
 40
0
 40
0
 40
0
 40
1
 40
1
 40
1
 40
1
 10
810.600112
 20
487.829358
 30
0.0
 10
810.600112
 20
487.903573
 30
0.0
 10
810.602758
 20
487.974852
 30
0.0
 10
810.602758
 20
488.048486
 30
0.0
  0
SPLINE
  5
1ab
100
AcDbEntity
  8
Calque_1
 62
7
100
AcDbSpline
 70
8
 71
3
 72
8
 73
4
 74
0
 40
0
 40
0
 40
0
 40
0
 40
1
 40
1
 40
1
 40
1
 10
810.602758
 20
488.048486
 30
0.0
 10
810.649404
 20
488.051131
 30
0.0
 10
810.745050
 20
487.981863
 30
0.0
 10
810.907637
 20
487.846952
 30
0.0
  0
SPLINE
  5
1ac
100
AcDbEntity
  8
Calque_1
 62
7
100
AcDbSpline
 70
8
 71
3
 72
8
 73
4
 74
0
 40
0
 40
0
 40
0
 40
0
 40
1
 40
1
 40
1
 40
1
 10
810.907637
 20
487.846952
 30
0.0
 10
811.227624
 20
487.581337
 30
0.0
 10
811.342744
 20
487.570966
 30
0.0
 10
811.342744
 20
487.807662
 30
0.0
  0
SPLINE
  5
1ad
100
AcDbEntity
  8
Calque_1
 62
7
100
AcDbSpline
 70
8
 71
3
 72
8
 73
4
 74
0
 40
0
 40
0
 40
0
 40
0
 40
1
 40
1
 40
1
 40
1
 10
811.342744
 20
487.807662
 30
0.0
 10
811.342744
 20
487.984615
 30
0.0
 10
811.094697
 20
488.194483
 30
0.0
 10
810.791353
 20
488.273778
 30
0.0
  0
SPLINE
  5
1ae
100
AcDbEntity
  8
Calque_1
 62
7
100
AcDbSpline
 70
8
 71
3
 72
8
 73
4
 74
0
 40
0
 40
0
 40
0
 40
0
 40
1
 40
1
 40
1
 40
1
 10
810.791353
 20
488.273778
 30
0.0
 10
810.712057
 20
488.294416
 30
0.0
 10
810.658346
 20
488.314312
 30
0.0
 10
810.605324
 20
488.334262
 30
0.0
  0
SPLINE
  5
1af
100
AcDbEntity
  8
Calque_1
 62
7
100
AcDbSpline
 70
8
 71
3
 72
8
 73
4
 74
0
 40
0
 40
0
 40
0
 40
0
 40
1
 40
1
 40
1
 40
1
 10
810.605324
 20
488.334262
 30
0.0
 10
810.605324
 20
488.439275
 30
0.0
 10
810.607970
 20
488.546140
 30
0.0
 10
810.607970
 20
488.649989
 30
0.0
  0
SPLINE
  5
1b0
100
AcDbEntity
  8
Calque_1
 62
7
100
AcDbSpline
 70
8
 71
3
 72
8
 73
4
 74
0
 40
0
 40
0
 40
0
 40
0
 40
1
 40
1
 40
1
 40
1
 10
810.607970
 20
488.649989
 30
0.0
 10
810.876151
 20
488.860598
 30
0.0
 10
810.926634
 20
490.134249
 30
0.0
 10
810.857049
 20
494.751440
 30
0.0
  0
SPLINE
  5
1b1
100
AcDbEntity
  8
Calque_1
 62
7
100
AcDbSpline
 70
8
 71
3
 72
8
 73
4
 74
0
 40
0
 40
0
 40
0
 40
0
 40
1
 40
1
 40
1
 40
1
 10
810.857049
 20
494.751440
 30
0.0
 10
810.790638
 20
499.158683
 30
0.0
 10
810.878480
 20
501.482969
 30
0.0
 10
811.205875
 20
503.954997
 30
0.0
  0
SPLINE
  5
1b2
100
AcDbEntity
  8
Calque_1
 62
7
100
AcDbSpline
 70
8
 71
3
 72
8
 73
4
 74
0
 40
0
 40
0
 40
0
 40
0
 40
1
 40
1
 40
1
 40
1
 10
811.205875
 20
503.954997
 30
0.0
 10
811.281123
 20
504.523402
 30
0.0
 10
811.343035
 20
505.039524
 30
0.0
 10
811.409472
 20
505.575570
 30
0.0
  0
SPLINE
  5
1b3
100
AcDbEntity
  8
Calque_1
 62
7
100
AcDbSpline
 70
8
 71
3
 72
8
 73
4
 74
0
 40
0
 40
0
 40
0
 40
0
 40
1
 40
1
 40
1
 40
1
 10
811.409472
 20
505.575570
 30
0.0
 10
811.723612
 20
507.234984
 30
0.0
 10
812.137314
 20
507.962985
 30
0.0
 10
812.674498
 20
508.638942
 30
0.0
  0
SPLINE
  5
1b4
100
AcDbEntity
  8
Calque_1
 62
7
100
AcDbSpline
 70
8
 71
3
 72
8
 73
4
 74
0
 40
0
 40
0
 40
0
 40
0
 40
1
 40
1
 40
1
 40
1
 10
812.674498
 20
508.638942
 30
0.0
 10
812.791708
 20
508.786421
 30
0.0
 10
813.032744
 20
509.500796
 30
0.0
 10
813.210385
 20
510.226442
 30
0.0
  0
SPLINE
  5
1b5
100
AcDbEntity
  8
Calque_1
 62
7
100
AcDbSpline
 70
8
 71
3
 72
8
 73
4
 74
0
 40
0
 40
0
 40
0
 40
0
 40
1
 40
1
 40
1
 40
1
 10
813.210385
 20
510.226442
 30
0.0
 10
814.752350
 20
516.525166
 30
0.0
 10
820.624169
 20
525.881203
 30
0.0
 10
826.581156
 20
531.531618
 30
0.0
  0
SPLINE
  5
1b6
100
AcDbEntity
  8
Calque_1
 62
7
100
AcDbSpline
 70
8
 71
3
 72
8
 73
4
 74
0
 40
0
 40
0
 40
0
 40
0
 40
1
 40
1
 40
1
 40
1
 10
826.581156
 20
531.531618
 30
0.0
 10
829.484562
 20
534.285587
 30
0.0
 10
837.408462
 20
540.253052
 30
0.0
 10
838.161837
 20
540.253052
 30
0.0
  0
SPLINE
  5
1b7
100
AcDbEntity
  8
Calque_1
 62
7
100
AcDbSpline
 70
8
 71
3
 72
8
 73
4
 74
0
 40
0
 40
0
 40
0
 40
0
 40
1
 40
1
 40
1
 40
1
 10
838.161837
 20
540.253052
 30
0.0
 10
838.473833
 20
540.253052
 30
0.0
 10
840.766712
 20
541.938633
 30
0.0
 10
841.782289
 20
542.914390
 30
0.0
  0
SPLINE
  5
1b8
100
AcDbEntity
  8
Calque_1
 62
7
100
AcDbSpline
 70
8
 71
3
 72
8
 73
4
 74
0
 40
0
 40
0
 40
0
 40
0
 40
1
 40
1
 40
1
 40
1
 10
841.782289
 20
542.914390
 30
0.0
 10
842.380882
 20
543.489541
 30
0.0
 10
842.980402
 20
543.891787
 30
0.0
 10
843.114519
 20
543.808893
 30
0.0
  0
SPLINE
  5
1b9
100
AcDbEntity
  8
Calque_1
 62
7
100
AcDbSpline
 70
8
 71
3
 72
8
 73
4
 74
0
 40
0
 40
0
 40
0
 40
0
 40
1
 40
1
 40
1
 40
1
 10
843.114519
 20
543.808893
 30
0.0
 10
843.307056
 20
543.689884
 30
0.0
 10
849.206815
 20
549.442931
 30
0.0
 10
851.542424
 20
552.027010
 30
0.0
  0
SPLINE
  5
1ba
100
AcDbEntity
  8
Calque_1
 62
7
100
AcDbSpline
 70
8
 71
3
 72
8
 73
4
 74
0
 40
0
 40
0
 40
0
 40
0
 40
1
 40
1
 40
1
 40
1
 10
851.542424
 20
552.027010
 30
0.0
 10
852.371311
 20
552.944109
 30
0.0
 10
854.466282
 20
555.910511
 30
0.0
 10
854.466282
 20
556.167316
 30
0.0
  0
SPLINE
  5
1bb
100
AcDbEntity
  8
Calque_1
 62
7
100
AcDbSpline
 70
8
 71
3
 72
8
 73
4
 74
0
 40
0
 40
0
 40
0
 40
0
 40
1
 40
1
 40
1
 40
1
 10
854.466282
 20
556.167316
 30
0.0
 10
854.466282
 20
556.302571
 30
0.0
 10
854.883000
 20
557.032107
 30
0.0
 10
855.392323
 20
557.788418
 30
0.0
  0
SPLINE
  5
1bc
100
AcDbEntity
  8
Calque_1
 62
7
100
AcDbSpline
 70
8
 71
3
 72
8
 73
4
 74
0
 40
0
 40
0
 40
0
 40
0
 40
1
 40
1
 40
1
 40
1
 10
855.392323
 20
557.788418
 30
0.0
 10
855.901646
 20
558.544729
 30
0.0
 10
856.318365
 20
559.314005
 30
0.0
 10
856.318365
 20
559.497864
 30
0.0
  0
SPLINE
  5
1bd
100
AcDbEntity
  8
Calque_1
 62
7
100
AcDbSpline
 70
8
 71
3
 72
8
 73
4
 74
0
 40
0
 40
0
 40
0
 40
0
 40
1
 40
1
 40
1
 40
1
 10
856.318365
 20
559.497864
 30
0.0
 10
856.318365
 20
559.681697
 30
0.0
 10
856.437427
 20
559.832218
 30
0.0
 10
856.582948
 20
559.832218
 30
0.0
  0
SPLINE
  5
1be
100
AcDbEntity
  8
Calque_1
 62
7
100
AcDbSpline
 70
8
 71
3
 72
8
 73
4
 74
0
 40
0
 40
0
 40
0
 40
0
 40
1
 40
1
 40
1
 40
1
 10
856.582948
 20
559.832218
 30
0.0
 10
856.728469
 20
559.832218
 30
0.0
 10
856.847532
 20
560.121143
 30
0.0
 10
856.847532
 20
560.474547
 30
0.0
  0
SPLINE
  5
1bf
100
AcDbEntity
  8
Calque_1
 62
7
100
AcDbSpline
 70
8
 71
3
 72
8
 73
4
 74
0
 40
0
 40
0
 40
0
 40
0
 40
1
 40
1
 40
1
 40
1
 10
856.847532
 20
560.474547
 30
0.0
 10
856.847532
 20
560.827951
 30
0.0
 10
857.012340
 20
561.282241
 30
0.0
 10
857.213900
 20
561.483800
 30
0.0
  0
SPLINE
  5
1c0
100
AcDbEntity
  8
Calque_1
 62
7
100
AcDbSpline
 70
8
 71
3
 72
8
 73
4
 74
0
 40
0
 40
0
 40
0
 40
0
 40
1
 40
1
 40
1
 40
1
 10
857.213900
 20
561.483800
 30
0.0
 10
857.415486
 20
561.685360
 30
0.0
 10
857.799317
 20
562.586531
 30
0.0
 10
858.066573
 20
563.486776
 30
0.0
  0
SPLINE
  5
1c1
100
AcDbEntity
  8
Calque_1
 62
7
100
AcDbSpline
 70
8
 71
3
 72
8
 73
4
 74
0
 40
0
 40
0
 40
0
 40
0
 40
1
 40
1
 40
1
 40
1
 10
858.066573
 20
563.486776
 30
0.0
 10
858.333802
 20
564.386994
 30
0.0
 10
858.645243
 20
565.123885
 30
0.0
 10
858.758511
 20
565.123885
 30
0.0
  0
SPLINE
  5
1c2
100
AcDbEntity
  8
Calque_1
 62
7
100
AcDbSpline
 70
8
 71
3
 72
8
 73
4
 74
0
 40
0
 40
0
 40
0
 40
0
 40
1
 40
1
 40
1
 40
1
 10
858.758511
 20
565.123885
 30
0.0
 10
858.871779
 20
565.123885
 30
0.0
 10
858.964621
 20
565.272713
 30
0.0
 10
858.965230
 20
565.454614
 30
0.0
  0
SPLINE
  5
1c3
100
AcDbEntity
  8
Calque_1
 62
7
100
AcDbSpline
 70
8
 71
3
 72
8
 73
4
 74
0
 40
0
 40
0
 40
0
 40
0
 40
1
 40
1
 40
1
 40
1
 10
858.965230
 20
565.454614
 30
0.0
 10
858.965230
 20
565.636515
 30
0.0
 10
859.263495
 20
566.370655
 30
0.0
 10
859.626688
 20
567.086538
 30
0.0
  0
SPLINE
  5
1c4
100
AcDbEntity
  8
Calque_1
 62
7
100
AcDbSpline
 70
8
 71
3
 72
8
 73
4
 74
0
 40
0
 40
0
 40
0
 40
0
 40
1
 40
1
 40
1
 40
1
 10
859.626688
 20
567.086538
 30
0.0
 10
859.989882
 20
567.802421
 30
0.0
 10
860.287115
 20
568.665624
 30
0.0
 10
860.287115
 20
569.004767
 30
0.0
  0
SPLINE
  5
1c5
100
AcDbEntity
  8
Calque_1
 62
7
100
AcDbSpline
 70
8
 71
3
 72
8
 73
4
 74
0
 40
0
 40
0
 40
0
 40
0
 40
1
 40
1
 40
1
 40
1
 10
860.287115
 20
569.004767
 30
0.0
 10
860.287115
 20
569.343910
 30
0.0
 10
860.414432
 20
569.621802
 30
0.0
 10
860.569769
 20
569.621802
 30
0.0
  0
SPLINE
  5
1c6
100
AcDbEntity
  8
Calque_1
 62
7
100
AcDbSpline
 70
8
 71
3
 72
8
 73
4
 74
0
 40
0
 40
0
 40
0
 40
0
 40
1
 40
1
 40
1
 40
1
 10
860.569769
 20
569.621802
 30
0.0
 10
860.731747
 20
569.621802
 30
0.0
 10
860.780272
 20
569.847412
 30
0.0
 10
860.683990
 20
570.150968
 30
0.0
  0
SPLINE
  5
1c7
100
AcDbEntity
  8
Calque_1
 62
7
100
AcDbSpline
 70
8
 71
3
 72
8
 73
4
 74
0
 40
0
 40
0
 40
0
 40
0
 40
1
 40
1
 40
1
 40
1
 10
860.683990
 20
570.150968
 30
0.0
 10
860.591650
 20
570.442010
 30
0.0
 10
860.631549
 20
570.680135
 30
0.0
 10
860.772334
 20
570.680135
 30
0.0
  0
SPLINE
  5
1c8
100
AcDbEntity
  8
Calque_1
 62
7
100
AcDbSpline
 70
8
 71
3
 72
8
 73
4
 74
0
 40
0
 40
0
 40
0
 40
0
 40
1
 40
1
 40
1
 40
1
 10
860.772334
 20
570.680135
 30
0.0
 10
861.103328
 20
570.680135
 30
0.0
 10
861.431385
 20
572.169713
 30
0.0
 10
861.527852
 20
573.806028
 30
0.0
  0
SPLINE
  5
1c9
100
AcDbEntity
  8
Calque_1
 62
7
100
AcDbSpline
 70
8
 71
3
 72
8
 73
4
 74
0
 40
0
 40
0
 40
0
 40
0
 40
1
 40
1
 40
1
 40
1
 10
861.527852
 20
573.806028
 30
0.0
 10
861.869085
 20
573.811055
 30
0.0
 10
861.913747
 20
574.004572
 30
0.0
 10
861.776428
 20
574.863330
 30
0.0
  0
SPLINE
  5
1ca
100
AcDbEntity
  8
Calque_1
 62
7
100
AcDbSpline
 70
8
 71
3
 72
8
 73
4
 74
0
 40
0
 40
0
 40
0
 40
0
 40
1
 40
1
 40
1
 40
1
 10
861.776428
 20
574.863330
 30
0.0
 10
861.663715
 20
575.568259
 30
0.0
 10
861.706366
 20
575.921663
 30
0.0
 10
861.903534
 20
575.921663
 30
0.0
  0
SPLINE
  5
1cb
100
AcDbEntity
  8
Calque_1
 62
7
100
AcDbSpline
 70
8
 71
3
 72
8
 73
4
 74
0
 40
0
 40
0
 40
0
 40
0
 40
1
 40
1
 40
1
 40
1
 10
861.903534
 20
575.921663
 30
0.0
 10
862.066411
 20
575.921663
 30
0.0
 10
862.138113
 20
576.081551
 30
0.0
 10
862.063236
 20
576.276681
 30
0.0
  0
SPLINE
  5
1cc
100
AcDbEntity
  8
Calque_1
 62
7
100
AcDbSpline
 70
8
 71
3
 72
8
 73
4
 74
0
 40
0
 40
0
 40
0
 40
0
 40
1
 40
1
 40
1
 40
1
 10
862.063236
 20
576.276681
 30
0.0
 10
861.927240
 20
576.631011
 30
0.0
 10
862.169361
 20
578.932357
 30
0.0
 10
862.576369
 20
581.439151
 30
0.0
  0
SPLINE
  5
1cd
100
AcDbEntity
  8
Calque_1
 62
7
100
AcDbSpline
 70
8
 71
3
 72
8
 73
4
 74
0
 40
0
 40
0
 40
0
 40
0
 40
1
 40
1
 40
1
 40
1
 10
862.576369
 20
581.439151
 30
0.0
 10
862.604256
 20
581.474950
 30
0.0
 10
862.632408
 20
581.505853
 30
0.0
 10
862.661644
 20
581.523897
 30
0.0
  0
SPLINE
  5
1ce
100
AcDbEntity
  8
Calque_1
 62
7
100
AcDbSpline
 70
8
 71
3
 72
8
 73
4
 74
0
 40
0
 40
0
 40
0
 40
0
 40
1
 40
1
 40
1
 40
1
 10
862.661644
 20
581.523897
 30
0.0
 10
862.843969
 20
581.636610
 30
0.0
 10
862.912205
 20
582.183821
 30
0.0
 10
862.886937
 20
583.215273
 30
0.0
  0
SPLINE
  5
1cf
100
AcDbEntity
  8
Calque_1
 62
7
100
AcDbSpline
 70
8
 71
3
 72
8
 73
4
 74
0
 40
0
 40
0
 40
0
 40
0
 40
1
 40
1
 40
1
 40
1
 10
862.886937
 20
583.215273
 30
0.0
 10
862.894081
 20
583.253293
 30
0.0
 10
862.900431
 20
583.292081
 30
0.0
 10
862.907575
 20
583.329996
 30
0.0
  0
SPLINE
  5
1d0
100
AcDbEntity
  8
Calque_1
 62
7
100
AcDbSpline
 70
8
 71
3
 72
8
 73
4
 74
0
 40
0
 40
0
 40
0
 40
0
 40
1
 40
1
 40
1
 40
1
 10
862.907575
 20
583.329996
 30
0.0
 10
863.138212
 20
584.537607
 30
0.0
 10
863.302809
 20
584.537607
 30
0.0
 10
863.207797
 20
583.329996
 30
0.0
  0
SPLINE
  5
1d1
100
AcDbEntity
  8
Calque_1
 62
7
100
AcDbSpline
 70
8
 71
3
 72
8
 73
4
 74
0
 40
0
 40
0
 40
0
 40
0
 40
1
 40
1
 40
1
 40
1
 10
863.207797
 20
583.329996
 30
0.0
 10
863.164723
 20
582.782547
 30
0.0
 10
863.216529
 20
582.728069
 30
0.0
 10
863.509078
 20
583.012708
 30
0.0
  0
SPLINE
  5
1d2
100
AcDbEntity
  8
Calque_1
 62
7
100
AcDbSpline
 70
8
 71
3
 72
8
 73
4
 74
0
 40
0
 40
0
 40
0
 40
0
 40
1
 40
1
 40
1
 40
1
 10
863.509078
 20
583.012708
 30
0.0
 10
863.993901
 20
583.484381
 30
0.0
 10
864.189560
 20
674.719169
 30
0.0
 10
863.706987
 20
675.300617
 30
0.0
  0
SPLINE
  5
1d3
100
AcDbEntity
  8
Calque_1
 62
7
100
AcDbSpline
 70
8
 71
3
 72
8
 73
4
 74
0
 40
0
 40
0
 40
0
 40
0
 40
1
 40
1
 40
1
 40
1
 10
863.706987
 20
675.300617
 30
0.0
 10
863.481985
 20
675.571365
 30
0.0
 10
863.480503
 20
675.669578
 30
0.0
 10
863.700372
 20
675.669578
 30
0.0
  0
SPLINE
  5
1d4
100
AcDbEntity
  8
Calque_1
 62
7
100
AcDbSpline
 70
8
 71
3
 72
8
 73
4
 74
0
 40
0
 40
0
 40
0
 40
0
 40
1
 40
1
 40
1
 40
1
 10
863.700372
 20
675.669578
 30
0.0
 10
864.203345
 20
675.669578
 30
0.0
 10
864.092326
 20
752.782311
 30
0.0
 10
863.588744
 20
753.200246
 30
0.0
  0
SPLINE
  5
1d5
100
AcDbEntity
  8
Calque_1
 62
7
100
AcDbSpline
 70
8
 71
3
 72
8
 73
4
 74
0
 40
0
 40
0
 40
0
 40
0
 40
1
 40
1
 40
1
 40
1
 10
863.588744
 20
753.200246
 30
0.0
 10
863.207004
 20
753.517058
 30
0.0
 10
863.316118
 20
754.110043
 30
0.0
 10
863.711220
 20
753.865832
 30
0.0
  0
SPLINE
  5
1d6
100
AcDbEntity
  8
Calque_1
 62
7
100
AcDbSpline
 70
8
 71
3
 72
8
 73
4
 74
0
 40
0
 40
0
 40
0
 40
0
 40
1
 40
1
 40
1
 40
1
 10
863.711220
 20
753.865832
 30
0.0
 10
864.059041
 20
753.650885
 30
0.0
 10
863.982682
 20
762.819120
 30
0.0
 10
863.634729
 20
763.048223
 30
0.0
  0
SPLINE
  5
1d7
100
AcDbEntity
  8
Calque_1
 62
7
100
AcDbSpline
 70
8
 71
3
 72
8
 73
4
 74
0
 40
0
 40
0
 40
0
 40
0
 40
1
 40
1
 40
1
 40
1
 10
863.634729
 20
763.048223
 30
0.0
 10
863.413855
 20
763.193638
 30
0.0
 10
863.422454
 20
763.304499
 30
0.0
 10
863.667802
 20
763.463196
 30
0.0
  0
SPLINE
  5
1d8
100
AcDbEntity
  8
Calque_1
 62
7
100
AcDbSpline
 70
8
 71
3
 72
8
 73
4
 74
0
 40
0
 40
0
 40
0
 40
0
 40
1
 40
1
 40
1
 40
1
 10
863.667802
 20
763.463196
 30
0.0
 10
864.265628
 20
763.849911
 30
0.0
 10
863.991969
 20
854.670943
 30
0.0
 10
863.383057
 20
857.967493
 30
0.0
  0
SPLINE
  5
1d9
100
AcDbEntity
  8
Calque_1
 62
7
100
AcDbSpline
 70
8
 71
3
 72
8
 73
4
 74
0
 40
0
 40
0
 40
0
 40
0
 40
1
 40
1
 40
1
 40
1
 10
863.383057
 20
857.967493
 30
0.0
 10
861.903163
 20
865.979129
 30
0.0
 10
859.119720
 20
873.040567
 30
0.0
 10
854.973752
 20
879.303149
 30
0.0
  0
SPLINE
  5
1da
100
AcDbEntity
  8
Calque_1
 62
7
100
AcDbSpline
 70
8
 71
3
 72
8
 73
4
 74
0
 40
0
 40
0
 40
0
 40
0
 40
1
 40
1
 40
1
 40
1
 10
854.973752
 20
879.303149
 30
0.0
 10
853.114314
 20
882.111833
 30
0.0
 10
850.224693
 20
886.408216
 30
0.0
 10
849.214937
 20
887.865409
 30
0.0
  0
SPLINE
  5
1db
100
AcDbEntity
  8
Calque_1
 62
7
100
AcDbSpline
 70
8
 71
3
 72
8
 73
4
 74
0
 40
0
 40
0
 40
0
 40
0
 40
1
 40
1
 40
1
 40
1
 10
849.214937
 20
887.865409
 30
0.0
 10
848.761177
 20
888.520253
 30
0.0
 10
847.538167
 20
890.306190
 30
0.0
 10
846.496767
 20
891.834159
 30
0.0
  0
SPLINE
  5
1dc
100
AcDbEntity
  8
Calque_1
 62
7
100
AcDbSpline
 70
8
 71
3
 72
8
 73
4
 74
0
 40
0
 40
0
 40
0
 40
0
 40
1
 40
1
 40
1
 40
1
 10
846.496767
 20
891.834159
 30
0.0
 10
844.622697
 20
894.583762
 30
0.0
 10
838.656554
 20
902.691468
 30
0.0
 10
838.319475
 20
902.946659
 30
0.0
  0
SPLINE
  5
1dd
100
AcDbEntity
  8
Calque_1
 62
7
100
AcDbSpline
 70
8
 71
3
 72
8
 73
4
 74
0
 40
0
 40
0
 40
0
 40
0
 40
1
 40
1
 40
1
 40
1
 10
838.319475
 20
902.946659
 30
0.0
 10
838.223379
 20
903.019419
 30
0.0
 10
837.843569
 20
903.555200
 30
0.0
 10
837.476116
 20
904.137284
 30
0.0
  0
SPLINE
  5
1de
100
AcDbEntity
  8
Calque_1
 62
7
100
AcDbSpline
 70
8
 71
3
 72
8
 73
4
 74
0
 40
0
 40
0
 40
0
 40
0
 40
1
 40
1
 40
1
 40
1
 10
837.476116
 20
904.137284
 30
0.0
 10
837.108636
 20
904.719367
 30
0.0
 10
836.513429
 20
905.509969
 30
0.0
 10
836.153199
 20
905.894276
 30
0.0
  0
SPLINE
  5
1df
100
AcDbEntity
  8
Calque_1
 62
7
100
AcDbSpline
 70
8
 71
3
 72
8
 73
4
 74
0
 40
0
 40
0
 40
0
 40
0
 40
1
 40
1
 40
1
 40
1
 10
836.153199
 20
905.894276
 30
0.0
 10
835.792969
 20
906.278610
 30
0.0
 10
835.434326
 20
906.760416
 30
0.0
 10
835.355824
 20
906.965018
 30
0.0
  0
SPLINE
  5
1e0
100
AcDbEntity
  8
Calque_1
 62
7
100
AcDbSpline
 70
8
 71
3
 72
8
 73
4
 74
0
 40
0
 40
0
 40
0
 40
0
 40
1
 40
1
 40
1
 40
1
 10
835.355824
 20
906.965018
 30
0.0
 10
835.239011
 20
907.269421
 30
0.0
 10
833.420212
 20
909.644692
 30
0.0
 10
831.587602
 20
911.886162
 30
0.0
  0
SPLINE
  5
1e1
100
AcDbEntity
  8
Calque_1
 62
7
100
AcDbSpline
 70
8
 71
3
 72
8
 73
4
 74
0
 40
0
 40
0
 40
0
 40
0
 40
1
 40
1
 40
1
 40
1
 10
831.587602
 20
911.886162
 30
0.0
 10
831.383741
 20
912.135532
 30
0.0
 10
830.406344
 20
913.328776
 30
0.0
 10
829.415638
 20
914.538213
 30
0.0
  0
SPLINE
  5
1e2
100
AcDbEntity
  8
Calque_1
 62
7
100
AcDbSpline
 70
8
 71
3
 72
8
 73
4
 74
0
 40
0
 40
0
 40
0
 40
0
 40
1
 40
1
 40
1
 40
1
 10
829.415638
 20
914.538213
 30
0.0
 10
828.424932
 20
915.747624
 30
0.0
 10
827.341331
 20
917.116842
 30
0.0
 10
827.007506
 20
917.580922
 30
0.0
  0
SPLINE
  5
1e3
100
AcDbEntity
  8
Calque_1
 62
7
100
AcDbSpline
 70
8
 71
3
 72
8
 73
4
 74
0
 40
0
 40
0
 40
0
 40
0
 40
1
 40
1
 40
1
 40
1
 10
827.007506
 20
917.580922
 30
0.0
 10
824.377839
 20
921.236299
 30
0.0
 10
811.425162
 20
936.096066
 30
0.0
 10
804.362374
 20
943.560197
 30
0.0
  0
SPLINE
  5
1e4
100
AcDbEntity
  8
Calque_1
 62
7
100
AcDbSpline
 70
8
 71
3
 72
8
 73
4
 74
0
 40
0
 40
0
 40
0
 40
0
 40
1
 40
1
 40
1
 40
1
 10
804.362374
 20
943.560197
 30
0.0
 10
792.993149
 20
955.575487
 30
0.0
 10
777.412895
 20
970.405864
 30
0.0
 10
767.246810
 20
978.889306
 30
0.0
  0
SPLINE
  5
1e5
100
AcDbEntity
  8
Calque_1
 62
7
100
AcDbSpline
 70
8
 71
3
 72
8
 73
4
 74
0
 40
0
 40
0
 40
0
 40
0
 40
1
 40
1
 40
1
 40
1
 10
767.246810
 20
978.889306
 30
0.0
 10
766.641258
 20
979.394636
 30
0.0
 10
764.795790
 20
980.946298
 30
0.0
 10
763.145769
 20
982.337157
 30
0.0
  0
SPLINE
  5
1e6
100
AcDbEntity
  8
Calque_1
 62
7
100
AcDbSpline
 70
8
 71
3
 72
8
 73
4
 74
0
 40
0
 40
0
 40
0
 40
0
 40
1
 40
1
 40
1
 40
1
 10
763.145769
 20
982.337157
 30
0.0
 10
752.753544
 20
991.097146
 30
0.0
 10
738.235962
 20
1002.031859
 30
0.0
 10
727.072530
 20
1009.508108
 30
0.0
  0
SPLINE
  5
1e7
100
AcDbEntity
  8
Calque_1
 62
7
100
AcDbSpline
 70
8
 71
3
 72
8
 73
4
 74
0
 40
0
 40
0
 40
0
 40
0
 40
1
 40
1
 40
1
 40
1
 10
727.072530
 20
1009.508108
 30
0.0
 10
724.162114
 20
1011.457238
 30
0.0
 10
721.542739
 20
1013.212907
 30
0.0
 10
721.251697
 20
1013.409678
 30
0.0
  0
SPLINE
  5
1e8
100
AcDbEntity
  8
Calque_1
 62
7
100
AcDbSpline
 70
8
 71
3
 72
8
 73
4
 74
0
 40
0
 40
0
 40
0
 40
0
 40
1
 40
1
 40
1
 40
1
 10
721.251697
 20
1013.409678
 30
0.0
 10
718.705585
 20
1015.131009
 30
0.0
 10
717.268633
 20
1016.062025
 30
0.0
 10
713.711072
 20
1018.295685
 30
0.0
  0
SPLINE
  5
1e9
100
AcDbEntity
  8
Calque_1
 62
7
100
AcDbSpline
 70
8
 71
3
 72
8
 73
4
 74
0
 40
0
 40
0
 40
0
 40
0
 40
1
 40
1
 40
1
 40
1
 10
713.711072
 20
1018.295685
 30
0.0
 10
707.233702
 20
1022.362575
 30
0.0
 10
704.292461
 20
1024.125821
 30
0.0
 10
703.985571
 20
1024.125821
 30
0.0
  0
SPLINE
  5
1ea
100
AcDbEntity
  8
Calque_1
 62
7
100
AcDbSpline
 70
8
 71
3
 72
8
 73
4
 74
0
 40
0
 40
0
 40
0
 40
0
 40
1
 40
1
 40
1
 40
1
 10
703.985571
 20
1024.125821
 30
0.0
 10
703.829202
 20
1024.125821
 30
0.0
 10
703.661483
 20
1024.221529
 30
0.0
 10
703.612985
 20
1024.338210
 30
0.0
  0
SPLINE
  5
1eb
100
AcDbEntity
  8
Calque_1
 62
7
100
AcDbSpline
 70
8
 71
3
 72
8
 73
4
 74
0
 40
0
 40
0
 40
0
 40
0
 40
1
 40
1
 40
1
 40
1
 10
703.612985
 20
1024.338210
 30
0.0
 10
703.516703
 20
1024.569829
 30
0.0
 10
694.023030
 20
1030.133112
 30
0.0
 10
689.501697
 20
1032.607474
 30
0.0
  0
SPLINE
  5
1ec
100
AcDbEntity
  8
Calque_1
 62
7
100
AcDbSpline
 70
8
 71
3
 72
8
 73
4
 74
0
 40
0
 40
0
 40
0
 40
0
 40
1
 40
1
 40
1
 40
1
 10
689.501697
 20
1032.607474
 30
0.0
 10
667.319666
 20
1044.746893
 30
0.0
 10
645.233599
 20
1054.598966
 30
0.0
 10
622.032948
 20
1062.703828
 30
0.0
  0
SPLINE
  5
1ed
100
AcDbEntity
  8
Calque_1
 62
7
100
AcDbSpline
 70
8
 71
3
 72
8
 73
4
 74
0
 40
0
 40
0
 40
0
 40
0
 40
1
 40
1
 40
1
 40
1
 10
622.032948
 20
1062.703828
 30
0.0
 10
608.966474
 20
1067.268438
 30
0.0
 10
600.039221
 20
1070.115987
 30
0.0
 10
600.344338
 20
1069.622266
 30
0.0
  0
SPLINE
  5
1ee
100
AcDbEntity
  8
Calque_1
 62
7
100
AcDbSpline
 70
8
 71
3
 72
8
 73
4
 74
0
 40
0
 40
0
 40
0
 40
0
 40
1
 40
1
 40
1
 40
1
 10
600.344338
 20
1069.622266
 30
0.0
 10
600.601196
 20
1069.206699
 30
0.0
 10
599.891054
 20
1069.337061
 30
0.0
 10
599.572813
 20
1069.763861
 30
0.0
  0
SPLINE
  5
1ef
100
AcDbEntity
  8
Calque_1
 62
7
100
AcDbSpline
 70
8
 71
3
 72
8
 73
4
 74
0
 40
0
 40
0
 40
0
 40
0
 40
1
 40
1
 40
1
 40
1
 10
599.572813
 20
1069.763861
 30
0.0
 10
598.822561
 20
1070.770111
 30
0.0
 10
575.579921
 20
1076.854802
 30
0.0
 10
560.781907
 20
1079.919312
 30
0.0
  0
SPLINE
  5
1f0
100
AcDbEntity
  8
Calque_1
 62
7
100
AcDbSpline
 70
8
 71
3
 72
8
 73
4
 74
0
 40
0
 40
0
 40
0
 40
0
 40
1
 40
1
 40
1
 40
1
 10
560.781907
 20
1079.919312
 30
0.0
 10
555.893942
 20
1080.931553
 30
0.0
 10
544.175070
 20
1083.087502
 30
0.0
 10
542.714279
 20
1083.243141
 30
0.0
  0
SPLINE
  5
1f1
100
AcDbEntity
  8
Calque_1
 62
7
100
AcDbSpline
 70
8
 71
3
 72
8
 73
4
 74
0
 40
0
 40
0
 40
0
 40
0
 40
1
 40
1
 40
1
 40
1
 10
542.714279
 20
1083.243141
 30
0.0
 10
542.101425
 20
1083.308432
 30
0.0
 10
540.569725
 20
1083.545837
 30
0.0
 10
539.310864
 20
1083.770757
 30
0.0
  0
SPLINE
  5
1f2
100
AcDbEntity
  8
Calque_1
 62
7
100
AcDbSpline
 70
8
 71
3
 72
8
 73
4
 74
0
 40
0
 40
0
 40
0
 40
0
 40
1
 40
1
 40
1
 40
1
 10
539.310864
 20
1083.770757
 30
0.0
 10
526.092334
 20
1086.132478
 30
0.0
 10
501.422161
 20
1088.617103
 30
0.0
 10
486.698575
 20
1089.069141
 30
0.0
  0
SPLINE
  5
1f3
100
AcDbEntity
  8
Calque_1
 62
7
100
AcDbSpline
 70
8
 71
3
 72
8
 73
4
 74
0
 40
0
 40
0
 40
0
 40
0
 40
1
 40
1
 40
1
 40
1
 10
486.698575
 20
1089.069141
 30
0.0
 10
484.151960
 20
1089.147323
 30
0.0
 10
481.312399
 20
1089.286266
 30
0.0
 10
480.388368
 20
1089.378167
 30
0.0
  0
SPLINE
  5
1f4
100
AcDbEntity
  8
Calque_1
 62
7
100
AcDbSpline
 70
8
 71
3
 72
8
 73
4
 74
0
 40
0
 40
0
 40
0
 40
0
 40
1
 40
1
 40
1
 40
1
 10
480.388368
 20
1089.378167
 30
0.0
 10
479.270557
 20
1089.489336
 30
0.0
 10
478.347690
 20
1089.425932
 30
0.0
 10
477.629875
 20
1089.189032
 30
0.0
  0
SPLINE
  5
1f5
100
AcDbEntity
  8
Calque_1
 62
7
100
AcDbSpline
 70
8
 71
3
 72
8
 73
4
 74
0
 40
0
 40
0
 40
0
 40
0
 40
1
 40
1
 40
1
 40
1
 10
477.629875
 20
1089.189032
 30
0.0
 10
476.792707
 20
1088.912791
 30
0.0
 10
476.526775
 20
1088.905261
 30
0.0
 10
476.443378
 20
1089.155443
 30
0.0
  0
SPLINE
  5
1f6
100
AcDbEntity
  8
Calque_1
 62
7
100
AcDbSpline
 70
8
 71
3
 72
8
 73
4
 74
0
 40
0
 40
0
 40
0
 40
0
 40
1
 40
1
 40
1
 40
1
 10
476.443378
 20
1089.155443
 30
0.0
 10
476.361939
 20
1089.399764
 30
0.0
 10
472.755827
 20
1089.508670
 30
0.0
 10
467.591213
 20
1089.505807
 30
0.0
  0
SPLINE
  5
1f7
100
AcDbEntity
  8
Calque_1
 62
7
100
AcDbSpline
 70
8
 71
3
 72
8
 73
4
 74
0
 40
0
 40
0
 40
0
 40
0
 40
1
 40
1
 40
1
 40
1
 10
775.286519
 20
576.986214
 30
0.0
 10
778.878052
 20
577.003412
 30
0.0
 10
782.454240
 20
575.921134
 30
0.0
 10
785.515866
 20
573.528533
 30
0.0
  0
SPLINE
  5
1f8
100
AcDbEntity
  8
Calque_1
 62
7
100
AcDbSpline
 70
8
 71
3
 72
8
 73
4
 74
0
 40
0
 40
0
 40
0
 40
0
 40
1
 40
1
 40
1
 40
1
 10
785.515866
 20
573.528533
 30
0.0
 10
789.747082
 20
570.221929
 30
0.0
 10
792.025727
 20
566.918871
 30
0.0
 10
793.335547
 20
562.192275
 30
0.0
  0
SPLINE
  5
1f9
100
AcDbEntity
  8
Calque_1
 62
7
100
AcDbSpline
 70
8
 71
3
 72
8
 73
4
 74
0
 40
0
 40
0
 40
0
 40
0
 40
1
 40
1
 40
1
 40
1
 10
793.335547
 20
562.192275
 30
0.0
 10
793.804706
 20
560.499206
 30
0.0
 10
793.858390
 20
559.088633
 30
0.0
 10
793.989755
 20
544.942686
 30
0.0
  0
SPLINE
  5
1fa
100
AcDbEntity
  8
Calque_1
 62
7
100
AcDbSpline
 70
8
 71
3
 72
8
 73
4
 74
0
 40
0
 40
0
 40
0
 40
0
 40
1
 40
1
 40
1
 40
1
 10
793.989755
 20
544.942686
 30
0.0
 10
794.230579
 20
519.011403
 30
0.0
 10
794.541994
 20
466.970084
 30
0.0
 10
794.471403
 20
464.488689
 30
0.0
  0
SPLINE
  5
1fb
100
AcDbEntity
  8
Calque_1
 62
7
100
AcDbSpline
 70
8
 71
3
 72
8
 73
4
 74
0
 40
0
 40
0
 40
0
 40
0
 40
1
 40
1
 40
1
 40
1
 10
794.471403
 20
464.488689
 30
0.0
 10
794.315484
 20
459.011709
 30
0.0
 10
792.132619
 20
454.162478
 30
0.0
 10
788.097114
 20
450.327793
 30
0.0
  0
SPLINE
  5
1fc
100
AcDbEntity
  8
Calque_1
 62
7
100
AcDbSpline
 70
8
 71
3
 72
8
 73
4
 74
0
 40
0
 40
0
 40
0
 40
0
 40
1
 40
1
 40
1
 40
1
 10
788.097114
 20
450.327793
 30
0.0
 10
787.234017
 20
449.507664
 30
0.0
 10
786.922311
 20
449.099226
 30
0.0
 10
787.360726
 20
449.362990
 30
0.0
  0
SPLINE
  5
1fd
100
AcDbEntity
  8
Calque_1
 62
7
100
AcDbSpline
 70
8
 71
3
 72
8
 73
4
 74
0
 40
0
 40
0
 40
0
 40
0
 40
1
 40
1
 40
1
 40
1
 10
787.360726
 20
449.362990
 30
0.0
 10
788.666842
 20
450.148802
 30
0.0
 10
787.841791
 20
449.298061
 30
0.0
 10
786.314775
 20
448.284495
 30
0.0
  0
SPLINE
  5
1fe
100
AcDbEntity
  8
Calque_1
 62
7
100
AcDbSpline
 70
8
 71
3
 72
8
 73
4
 74
0
 40
0
 40
0
 40
0
 40
0
 40
1
 40
1
 40
1
 40
1
 10
786.314775
 20
448.284495
 30
0.0
 10
777.203187
 20
442.236543
 30
0.0
 10
763.760210
 20
445.777832
 30
0.0
 10
758.734027
 20
455.549689
 30
0.0
  0
SPLINE
  5
1ff
100
AcDbEntity
  8
Calque_1
 62
7
100
AcDbSpline
 70
8
 71
3
 72
8
 73
4
 74
0
 40
0
 40
0
 40
0
 40
0
 40
1
 40
1
 40
1
 40
1
 10
758.734027
 20
455.549689
 30
0.0
 10
756.525814
 20
459.842924
 30
0.0
 10
756.361323
 20
460.784311
 30
0.0
 10
756.184317
 20
470.138469
 30
0.0
  0
SPLINE
  5
200
100
AcDbEntity
  8
Calque_1
 62
7
100
AcDbSpline
 70
8
 71
3
 72
8
 73
4
 74
0
 40
0
 40
0
 40
0
 40
0
 40
1
 40
1
 40
1
 40
1
 10
756.184317
 20
470.138469
 30
0.0
 10
756.149841
 20
471.961131
 30
0.0
 10
756.119679
 20
474.356880
 30
0.0
 10
756.091315
 20
476.992315
 30
0.0
  0
SPLINE
  5
201
100
AcDbEntity
  8
Calque_1
 62
7
100
AcDbSpline
 70
8
 71
3
 72
8
 73
4
 74
0
 40
0
 40
0
 40
0
 40
0
 40
1
 40
1
 40
1
 40
1
 10
756.091315
 20
476.992315
 30
0.0
 10
757.516652
 20
477.005809
 30
0.0
 10
758.461532
 20
477.019832
 30
0.0
 10
758.359377
 20
477.034675
 30
0.0
  0
SPLINE
  5
202
100
AcDbEntity
  8
Calque_1
 62
7
100
AcDbSpline
 70
8
 71
3
 72
8
 73
4
 74
0
 40
0
 40
0
 40
0
 40
0
 40
1
 40
1
 40
1
 40
1
 10
758.359377
 20
477.034675
 30
0.0
 10
757.192908
 20
477.204220
 30
0.0
 10
756.573439
 20
477.414432
 30
0.0
 10
756.573439
 20
477.641365
 30
0.0
  0
SPLINE
  5
203
100
AcDbEntity
  8
Calque_1
 62
7
100
AcDbSpline
 70
8
 71
3
 72
8
 73
4
 74
0
 40
0
 40
0
 40
0
 40
0
 40
1
 40
1
 40
1
 40
1
 10
756.573439
 20
477.641365
 30
0.0
 10
756.573439
 20
477.901635
 30
0.0
 10
756.772618
 20
477.931771
 30
0.0
 10
757.367189
 20
477.761248
 30
0.0
  0
SPLINE
  5
204
100
AcDbEntity
  8
Calque_1
 62
7
100
AcDbSpline
 70
8
 71
3
 72
8
 73
4
 74
0
 40
0
 40
0
 40
0
 40
0
 40
1
 40
1
 40
1
 40
1
 10
757.367189
 20
477.761248
 30
0.0
 10
758.240367
 20
477.510819
 30
0.0
 10
758.453277
 20
478.044140
 30
0.0
 10
757.895853
 20
479.085725
 30
0.0
  0
SPLINE
  5
205
100
AcDbEntity
  8
Calque_1
 62
7
100
AcDbSpline
 70
8
 71
3
 72
8
 73
4
 74
0
 40
0
 40
0
 40
0
 40
0
 40
1
 40
1
 40
1
 40
1
 10
757.895853
 20
479.085725
 30
0.0
 10
757.749935
 20
479.358352
 30
0.0
 10
757.721757
 20
479.637858
 30
0.0
 10
757.833332
 20
479.706861
 30
0.0
  0
SPLINE
  5
206
100
AcDbEntity
  8
Calque_1
 62
7
100
AcDbSpline
 70
8
 71
3
 72
8
 73
4
 74
0
 40
0
 40
0
 40
0
 40
0
 40
1
 40
1
 40
1
 40
1
 10
757.833332
 20
479.706861
 30
0.0
 10
758.345222
 20
480.023223
 30
0.0
 10
757.854499
 20
482.259032
 30
0.0
 10
757.274188
 20
482.255037
 30
0.0
  0
SPLINE
  5
207
100
AcDbEntity
  8
Calque_1
 62
7
100
AcDbSpline
 70
8
 71
3
 72
8
 73
4
 74
0
 40
0
 40
0
 40
0
 40
0
 40
1
 40
1
 40
1
 40
1
 10
757.274188
 20
482.255037
 30
0.0
 10
756.932743
 20
482.252391
 30
0.0
 10
756.826778
 20
482.173307
 30
0.0
 10
757.008573
 20
482.056599
 30
0.0
  0
SPLINE
  5
208
100
AcDbEntity
  8
Calque_1
 62
7
100
AcDbSpline
 70
8
 71
3
 72
8
 73
4
 74
0
 40
0
 40
0
 40
0
 40
0
 40
1
 40
1
 40
1
 40
1
 10
757.008573
 20
482.056599
 30
0.0
 10
757.230029
 20
481.914386
 30
0.0
 10
757.239395
 20
481.445517
 30
0.0
 10
757.043180
 20
480.309926
 30
0.0
  0
SPLINE
  5
209
100
AcDbEntity
  8
Calque_1
 62
7
100
AcDbSpline
 70
8
 71
3
 72
8
 73
4
 74
0
 40
0
 40
0
 40
0
 40
0
 40
1
 40
1
 40
1
 40
1
 10
757.043180
 20
480.309926
 30
0.0
 10
757.033126
 20
480.251321
 30
0.0
 10
757.029951
 20
480.217930
 30
0.0
 10
757.020955
 20
480.163161
 30
0.0
  0
SPLINE
  5
20a
100
AcDbEntity
  8
Calque_1
 62
7
100
AcDbSpline
 70
8
 71
3
 72
8
 73
4
 74
0
 40
0
 40
0
 40
0
 40
0
 40
1
 40
1
 40
1
 40
1
 10
757.020955
 20
480.163161
 30
0.0
 10
756.976532
 20
480.885447
 30
0.0
 10
756.933564
 20
481.788603
 30
0.0
 10
756.891786
 20
482.848788
 30
0.0
  0
SPLINE
  5
20b
100
AcDbEntity
  8
Calque_1
 62
7
100
AcDbSpline
 70
8
 71
3
 72
8
 73
4
 74
0
 40
0
 40
0
 40
0
 40
0
 40
1
 40
1
 40
1
 40
1
 10
756.891786
 20
482.848788
 30
0.0
 10
757.106363
 20
482.557826
 30
0.0
 10
757.899055
 20
482.882946
 30
0.0
 10
757.916014
 20
483.383643
 30
0.0
  0
SPLINE
  5
20c
100
AcDbEntity
  8
Calque_1
 62
7
100
AcDbSpline
 70
8
 71
3
 72
8
 73
4
 74
0
 40
0
 40
0
 40
0
 40
0
 40
1
 40
1
 40
1
 40
1
 10
757.916014
 20
483.383643
 30
0.0
 10
757.927127
 20
483.711065
 30
0.0
 10
757.971498
 20
484.693331
 30
0.0
 10
758.014175
 20
485.566456
 30
0.0
  0
SPLINE
  5
20d
100
AcDbEntity
  8
Calque_1
 62
7
100
AcDbSpline
 70
8
 71
3
 72
8
 73
4
 74
0
 40
0
 40
0
 40
0
 40
0
 40
1
 40
1
 40
1
 40
1
 10
758.014175
 20
485.566456
 30
0.0
 10
758.065610
 20
486.617804
 30
0.0
 10
758.027933
 20
486.885880
 30
0.0
 10
757.903076
 20
486.360206
 30
0.0
  0
SPLINE
  5
20e
100
AcDbEntity
  8
Calque_1
 62
7
100
AcDbSpline
 70
8
 71
3
 72
8
 73
4
 74
0
 40
0
 40
0
 40
0
 40
0
 40
1
 40
1
 40
1
 40
1
 10
757.903076
 20
486.360206
 30
0.0
 10
757.652886
 20
485.307402
 30
0.0
 10
757.231167
 20
486.146078
 30
0.0
 10
757.452994
 20
487.255238
 30
0.0
  0
SPLINE
  5
20f
100
AcDbEntity
  8
Calque_1
 62
7
100
AcDbSpline
 70
8
 71
3
 72
8
 73
4
 74
0
 40
0
 40
0
 40
0
 40
0
 40
1
 40
1
 40
1
 40
1
 10
757.452994
 20
487.255238
 30
0.0
 10
757.535094
 20
487.665660
 30
0.0
 10
757.521812
 20
488.286981
 30
0.0
 10
757.423016
 20
488.636046
 30
0.0
  0
SPLINE
  5
210
100
AcDbEntity
  8
Calque_1
 62
7
100
AcDbSpline
 70
8
 71
3
 72
8
 73
4
 74
0
 40
0
 40
0
 40
0
 40
0
 40
1
 40
1
 40
1
 40
1
 10
757.423016
 20
488.636046
 30
0.0
 10
757.147664
 20
489.608680
 30
0.0
 10
756.911709
 20
486.758933
 30
0.0
 10
757.117079
 20
484.939102
 30
0.0
  0
SPLINE
  5
211
100
AcDbEntity
  8
Calque_1
 62
7
100
AcDbSpline
 70
8
 71
3
 72
8
 73
4
 74
0
 40
0
 40
0
 40
0
 40
0
 40
1
 40
1
 40
1
 40
1
 10
757.117079
 20
484.939102
 30
0.0
 10
757.209445
 20
484.120111
 30
0.0
 10
757.184362
 20
483.410446
 30
0.0
 10
757.061278
 20
483.361947
 30
0.0
  0
SPLINE
  5
212
100
AcDbEntity
  8
Calque_1
 62
7
100
AcDbSpline
 70
8
 71
3
 72
8
 73
4
 74
0
 40
0
 40
0
 40
0
 40
0
 40
1
 40
1
 40
1
 40
1
 10
757.061278
 20
483.361947
 30
0.0
 10
756.983358
 20
483.331229
 30
0.0
 10
756.917927
 20
483.258681
 30
0.0
 10
756.877816
 20
483.176951
 30
0.0
  0
SPLINE
  5
213
100
AcDbEntity
  8
Calque_1
 62
7
100
AcDbSpline
 70
8
 71
3
 72
8
 73
4
 74
0
 40
0
 40
0
 40
0
 40
0
 40
1
 40
1
 40
1
 40
1
 10
756.877816
 20
483.176951
 30
0.0
 10
756.253108
 20
499.659540
 30
0.0
 10
755.951483
 20
551.368780
 30
0.0
 10
756.510415
 20
562.576239
 30
0.0
  0
SPLINE
  5
214
100
AcDbEntity
  8
Calque_1
 62
7
100
AcDbSpline
 70
8
 71
3
 72
8
 73
4
 74
0
 40
0
 40
0
 40
0
 40
0
 40
1
 40
1
 40
1
 40
1
 10
756.510415
 20
562.576239
 30
0.0
 10
759.056554
 20
571.345006
 30
0.0
 10
767.208842
 20
576.947267
 30
0.0
 10
775.286519
 20
576.986214
 30
0.0
  0
LWPOLYLINE
  5
215
100
AcDbEntity
  8
Calque_1
 62
7
100
AcDbPolyline
 90
2
 70
0
 10
467.591213
 20
1089.505807
 30
0.0
 10
467.590578
 20
1089.505727
 30
0.0
  0
SPLINE
  5
216
100
AcDbEntity
  8
Calque_1
 62
7
100
AcDbSpline
 70
8
 71
3
 72
8
 73
4
 74
0
 40
0
 40
0
 40
0
 40
0
 40
1
 40
1
 40
1
 40
1
 10
157.295824
 20
576.319067
 30
0.0
 10
158.543917
 20
576.342615
 30
0.0
 10
160.555274
 20
576.154787
 30
0.0
 10
161.897092
 20
575.811596
 30
0.0
  0
SPLINE
  5
217
100
AcDbEntity
  8
Calque_1
 62
7
100
AcDbSpline
 70
8
 71
3
 72
8
 73
4
 74
0
 40
0
 40
0
 40
0
 40
0
 40
1
 40
1
 40
1
 40
1
 10
161.897092
 20
575.811596
 30
0.0
 10
168.554721
 20
574.108870
 30
0.0
 10
173.726856
 20
569.526261
 30
0.0
 10
176.013026
 20
563.488839
 30
0.0
  0
SPLINE
  5
218
100
AcDbEntity
  8
Calque_1
 62
7
100
AcDbSpline
 70
8
 71
3
 72
8
 73
4
 74
0
 40
0
 40
0
 40
0
 40
0
 40
1
 40
1
 40
1
 40
1
 10
176.013026
 20
563.488839
 30
0.0
 10
176.021651
 20
563.441796
 30
0.0
 10
176.032605
 20
563.396579
 30
0.0
 10
176.040931
 20
563.349298
 30
0.0
  0
SPLINE
  5
219
100
AcDbEntity
  8
Calque_1
 62
7
100
AcDbSpline
 70
8
 71
3
 72
8
 73
4
 74
0
 40
0
 40
0
 40
0
 40
0
 40
1
 40
1
 40
1
 40
1
 10
176.040931
 20
563.349298
 30
0.0
 10
177.548461
 20
554.791112
 30
0.0
 10
176.437828
 20
476.983664
 30
0.0
 10
174.806899
 20
476.898785
 30
0.0
  0
SPLINE
  5
21a
100
AcDbEntity
  8
Calque_1
 62
7
100
AcDbSpline
 70
8
 71
3
 72
8
 73
4
 74
0
 40
0
 40
0
 40
0
 40
0
 40
1
 40
1
 40
1
 40
1
 10
174.806899
 20
476.898785
 30
0.0
 10
174.760573
 20
476.896139
 30
0.0
 10
176.409422
 20
476.894023
 30
0.0
 10
176.949921
 20
476.891641
 30
0.0
  0
SPLINE
  5
21b
100
AcDbEntity
  8
Calque_1
 62
7
100
AcDbSpline
 70
8
 71
3
 72
8
 73
4
 74
0
 40
0
 40
0
 40
0
 40
0
 40
1
 40
1
 40
1
 40
1
 10
176.949921
 20
476.891641
 30
0.0
 10
176.873128
 20
467.782752
 30
0.0
 10
176.773414
 20
461.491595
 30
0.0
 10
176.655881
 20
460.860061
 30
0.0
  0
SPLINE
  5
21c
100
AcDbEntity
  8
Calque_1
 62
7
100
AcDbSpline
 70
8
 71
3
 72
8
 73
4
 74
0
 40
0
 40
0
 40
0
 40
0
 40
1
 40
1
 40
1
 40
1
 10
176.655881
 20
460.860061
 30
0.0
 10
174.897852
 20
451.413669
 30
0.0
 10
166.837884
 20
444.553579
 30
0.0
 10
157.496844
 20
444.553579
 30
0.0
  0
SPLINE
  5
21d
100
AcDbEntity
  8
Calque_1
 62
7
100
AcDbSpline
 70
8
 71
3
 72
8
 73
4
 74
0
 40
0
 40
0
 40
0
 40
0
 40
1
 40
1
 40
1
 40
1
 10
157.496844
 20
444.553579
 30
0.0
 10
155.098634
 20
444.553579
 30
0.0
 10
151.215726
 20
445.304784
 30
0.0
 10
150.640416
 20
445.880094
 30
0.0
  0
SPLINE
  5
21e
100
AcDbEntity
  8
Calque_1
 62
7
100
AcDbSpline
 70
8
 71
3
 72
8
 73
4
 74
0
 40
0
 40
0
 40
0
 40
0
 40
1
 40
1
 40
1
 40
1
 10
150.640416
 20
445.880094
 30
0.0
 10
150.496906
 20
446.023604
 30
0.0
 10
150.075636
 20
446.142190
 30
0.0
 10
149.704555
 20
446.145206
 30
0.0
  0
SPLINE
  5
21f
100
AcDbEntity
  8
Calque_1
 62
7
100
AcDbSpline
 70
8
 71
3
 72
8
 73
4
 74
0
 40
0
 40
0
 40
0
 40
0
 40
1
 40
1
 40
1
 40
1
 10
149.704555
 20
446.145206
 30
0.0
 10
149.171796
 20
446.148381
 30
0.0
 10
149.113654
 20
446.203097
 30
0.0
 10
149.427052
 20
446.405662
 30
0.0
  0
SPLINE
  5
220
100
AcDbEntity
  8
Calque_1
 62
7
100
AcDbSpline
 70
8
 71
3
 72
8
 73
4
 74
0
 40
0
 40
0
 40
0
 40
0
 40
1
 40
1
 40
1
 40
1
 10
149.427052
 20
446.405662
 30
0.0
 10
149.678012
 20
446.567878
 30
0.0
 10
149.705386
 20
446.663102
 30
0.0
 10
149.501467
 20
446.666092
 30
0.0
  0
SPLINE
  5
221
100
AcDbEntity
  8
Calque_1
 62
7
100
AcDbSpline
 70
8
 71
3
 72
8
 73
4
 74
0
 40
0
 40
0
 40
0
 40
0
 40
1
 40
1
 40
1
 40
1
 10
149.501467
 20
446.666092
 30
0.0
 10
147.056566
 20
446.696810
 30
0.0
 10
141.309348
 20
453.445775
 30
0.0
 10
139.696897
 20
458.179620
 30
0.0
  0
SPLINE
  5
222
100
AcDbEntity
  8
Calque_1
 62
7
100
AcDbSpline
 70
8
 71
3
 72
8
 73
4
 74
0
 40
0
 40
0
 40
0
 40
0
 40
1
 40
1
 40
1
 40
1
 10
139.696897
 20
458.179620
 30
0.0
 10
139.171707
 20
459.722194
 30
0.0
 10
139.030661
 20
460.332509
 30
0.0
 10
138.990481
 20
476.832216
 30
0.0
  0
SPLINE
  5
223
100
AcDbEntity
  8
Calque_1
 62
7
100
AcDbSpline
 70
8
 71
3
 72
8
 73
4
 74
0
 40
0
 40
0
 40
0
 40
0
 40
1
 40
1
 40
1
 40
1
 10
138.990481
 20
476.832216
 30
0.0
 10
140.996795
 20
476.848885
 30
0.0
 10
142.034457
 20
476.872089
 30
0.0
 10
141.615642
 20
476.898362
 30
0.0
  0
SPLINE
  5
224
100
AcDbEntity
  8
Calque_1
 62
7
100
AcDbSpline
 70
8
 71
3
 72
8
 73
4
 74
0
 40
0
 40
0
 40
0
 40
0
 40
1
 40
1
 40
1
 40
1
 10
141.615642
 20
476.898362
 30
0.0
 10
140.093984
 20
476.993824
 30
0.0
 10
140.094087
 20
476.994247
 30
0.0
 10
140.088089
 20
477.973232
 30
0.0
  0
SPLINE
  5
225
100
AcDbEntity
  8
Calque_1
 62
7
100
AcDbSpline
 70
8
 71
3
 72
8
 73
4
 74
0
 40
0
 40
0
 40
0
 40
0
 40
1
 40
1
 40
1
 40
1
 10
140.088089
 20
477.973232
 30
0.0
 10
140.084623
 20
478.511685
 30
0.0
 10
139.972823
 20
483.357291
 30
0.0
 10
139.839524
 20
488.741562
 30
0.0
  0
SPLINE
  5
226
100
AcDbEntity
  8
Calque_1
 62
7
100
AcDbSpline
 70
8
 71
3
 72
8
 73
4
 74
0
 40
0
 40
0
 40
0
 40
0
 40
1
 40
1
 40
1
 40
1
 10
139.839524
 20
488.741562
 30
0.0
 10
139.706224
 20
494.125832
 30
0.0
 10
139.528850
 20
503.591301
 30
0.0
 10
139.445750
 20
509.775936
 30
0.0
  0
SPLINE
  5
227
100
AcDbEntity
  8
Calque_1
 62
7
100
AcDbSpline
 70
8
 71
3
 72
8
 73
4
 74
0
 40
0
 40
0
 40
0
 40
0
 40
1
 40
1
 40
1
 40
1
 10
139.445750
 20
509.775936
 30
0.0
 10
139.362681
 20
515.960572
 30
0.0
 10
139.234279
 20
523.163853
 30
0.0
 10
139.159978
 20
525.783228
 30
0.0
  0
SPLINE
  5
228
100
AcDbEntity
  8
Calque_1
 62
7
100
AcDbSpline
 70
8
 71
3
 72
8
 73
4
 74
0
 40
0
 40
0
 40
0
 40
0
 40
1
 40
1
 40
1
 40
1
 10
139.159978
 20
525.783228
 30
0.0
 10
139.102789
 20
527.801020
 30
0.0
 10
139.047769
 20
534.416873
 30
0.0
 10
139.019418
 20
541.925404
 30
0.0
  0
SPLINE
  5
229
100
AcDbEntity
  8
Calque_1
 62
7
100
AcDbSpline
 70
8
 71
3
 72
8
 73
4
 74
0
 40
0
 40
0
 40
0
 40
0
 40
1
 40
1
 40
1
 40
1
 10
139.019418
 20
541.925404
 30
0.0
 10
139.159933
 20
563.031639
 30
0.0
 10
139.702869
 20
562.778116
 30
0.0
 10
141.762923
 20
566.281543
 30
0.0
  0
SPLINE
  5
22a
100
AcDbEntity
  8
Calque_1
 62
7
100
AcDbSpline
 70
8
 71
3
 72
8
 73
4
 74
0
 40
0
 40
0
 40
0
 40
0
 40
1
 40
1
 40
1
 40
1
 10
141.762923
 20
566.281543
 30
0.0
 10
143.410301
 20
569.083136
 30
0.0
 10
147.484609
 20
573.141077
 30
0.0
 10
148.649839
 20
573.141077
 30
0.0
  0
SPLINE
  5
22b
100
AcDbEntity
  8
Calque_1
 62
7
100
AcDbSpline
 70
8
 71
3
 72
8
 73
4
 74
0
 40
0
 40
0
 40
0
 40
0
 40
1
 40
1
 40
1
 40
1
 10
148.649839
 20
573.141077
 30
0.0
 10
148.834719
 20
573.141077
 30
0.0
 10
148.904268
 20
573.222543
 30
0.0
 10
148.804869
 20
573.321920
 30
0.0
  0
SPLINE
  5
22c
100
AcDbEntity
  8
Calque_1
 62
7
100
AcDbSpline
 70
8
 71
3
 72
8
 73
4
 74
0
 40
0
 40
0
 40
0
 40
0
 40
1
 40
1
 40
1
 40
1
 10
148.804869
 20
573.321920
 30
0.0
 10
148.394818
 20
573.731971
 30
0.0
 10
150.240363
 20
574.150754
 30
0.0
 10
151.918374
 20
574.028358
 30
0.0
  0
SPLINE
  5
22d
100
AcDbEntity
  8
Calque_1
 62
7
100
AcDbSpline
 70
8
 71
3
 72
8
 73
4
 74
0
 40
0
 40
0
 40
0
 40
0
 40
1
 40
1
 40
1
 40
1
 10
151.918374
 20
574.028358
 30
0.0
 10
152.876465
 20
573.958481
 30
0.0
 10
153.660386
 20
574.004016
 30
0.0
 10
153.660386
 20
574.129640
 30
0.0
  0
SPLINE
  5
22e
100
AcDbEntity
  8
Calque_1
 62
7
100
AcDbSpline
 70
8
 71
3
 72
8
 73
4
 74
0
 40
0
 40
0
 40
0
 40
0
 40
1
 40
1
 40
1
 40
1
 10
153.660386
 20
574.129640
 30
0.0
 10
153.660386
 20
574.255238
 30
0.0
 10
154.047342
 20
574.323897
 30
0.0
 10
154.520282
 20
574.282596
 30
0.0
  0
SPLINE
  5
22f
100
AcDbEntity
  8
Calque_1
 62
7
100
AcDbSpline
 70
8
 71
3
 72
8
 73
4
 74
0
 40
0
 40
0
 40
0
 40
0
 40
1
 40
1
 40
1
 40
1
 10
154.520282
 20
574.282596
 30
0.0
 10
154.993222
 20
574.241347
 30
0.0
 10
157.463776
 20
574.159908
 30
0.0
 10
160.010386
 20
574.101224
 30
0.0
  0
SPLINE
  5
230
100
AcDbEntity
  8
Calque_1
 62
7
100
AcDbSpline
 70
8
 71
3
 72
8
 73
4
 74
0
 40
0
 40
0
 40
0
 40
0
 40
1
 40
1
 40
1
 40
1
 10
160.010386
 20
574.101224
 30
0.0
 10
162.557006
 20
574.042513
 30
0.0
 10
164.938253
 20
573.905247
 30
0.0
 10
165.302052
 20
573.796318
 30
0.0
  0
SPLINE
  5
231
100
AcDbEntity
  8
Calque_1
 62
7
100
AcDbSpline
 70
8
 71
3
 72
8
 73
4
 74
0
 40
0
 40
0
 40
0
 40
0
 40
1
 40
1
 40
1
 40
1
 10
165.302052
 20
573.796318
 30
0.0
 10
166.490984
 20
573.440400
 30
0.0
 10
165.528147
 20
574.124534
 30
0.0
 10
163.979136
 20
574.736303
 30
0.0
  0
SPLINE
  5
232
100
AcDbEntity
  8
Calque_1
 62
7
100
AcDbSpline
 70
8
 71
3
 72
8
 73
4
 74
0
 40
0
 40
0
 40
0
 40
0
 40
1
 40
1
 40
1
 40
1
 10
163.979136
 20
574.736303
 30
0.0
 10
162.409847
 20
575.356143
 30
0.0
 10
161.959137
 20
575.459515
 30
0.0
 10
159.773708
 20
575.701106
 30
0.0
  0
SPLINE
  5
233
100
AcDbEntity
  8
Calque_1
 62
7
100
AcDbSpline
 70
8
 71
3
 72
8
 73
4
 74
0
 40
0
 40
0
 40
0
 40
0
 40
1
 40
1
 40
1
 40
1
 10
159.773708
 20
575.701106
 30
0.0
 10
158.743177
 20
575.815009
 30
0.0
 10
158.398838
 20
575.775507
 30
0.0
 10
158.532958
 20
575.558496
 30
0.0
  0
SPLINE
  5
234
100
AcDbEntity
  8
Calque_1
 62
7
100
AcDbSpline
 70
8
 71
3
 72
8
 73
4
 74
0
 40
0
 40
0
 40
0
 40
0
 40
1
 40
1
 40
1
 40
1
 10
158.532958
 20
575.558496
 30
0.0
 10
158.635087
 20
575.393237
 30
0.0
 10
158.605350
 20
575.257744
 30
0.0
 10
158.466812
 20
575.257744
 30
0.0
  0
SPLINE
  5
235
100
AcDbEntity
  8
Calque_1
 62
7
100
AcDbSpline
 70
8
 71
3
 72
8
 73
4
 74
0
 40
0
 40
0
 40
0
 40
0
 40
1
 40
1
 40
1
 40
1
 10
158.466812
 20
575.257744
 30
0.0
 10
158.328281
 20
575.257744
 30
0.0
 10
158.142634
 20
575.445916
 30
0.0
 10
158.054432
 20
575.675786
 30
0.0
  0
SPLINE
  5
236
100
AcDbEntity
  8
Calque_1
 62
7
100
AcDbSpline
 70
8
 71
3
 72
8
 73
4
 74
0
 40
0
 40
0
 40
0
 40
0
 40
1
 40
1
 40
1
 40
1
 10
158.054432
 20
575.675786
 30
0.0
 10
157.936272
 20
575.983708
 30
0.0
 10
157.691712
 20
576.049271
 30
0.0
 10
157.125292
 20
575.924864
 30
0.0
  0
SPLINE
  5
237
100
AcDbEntity
  8
Calque_1
 62
7
100
AcDbSpline
 70
8
 71
3
 72
8
 73
4
 74
0
 40
0
 40
0
 40
0
 40
0
 40
1
 40
1
 40
1
 40
1
 10
157.125292
 20
575.924864
 30
0.0
 10
156.684232
 20
575.827974
 30
0.0
 10
156.282531
 20
575.875255
 30
0.0
 10
156.183230
 20
576.035989
 30
0.0
  0
SPLINE
  5
238
100
AcDbEntity
  8
Calque_1
 62
7
100
AcDbSpline
 70
8
 71
3
 72
8
 73
4
 74
0
 40
0
 40
0
 40
0
 40
0
 40
1
 40
1
 40
1
 40
1
 10
156.183230
 20
576.035989
 30
0.0
 10
156.072820
 20
576.214610
 30
0.0
 10
156.546969
 20
576.304965
 30
0.0
 10
157.295824
 20
576.319173
 30
0.0
  0
LWPOLYLINE
  5
239
100
AcDbEntity
  8
Calque_1
 62
7
100
AcDbPolyline
 90
1
 70
1
 10
775.286519
 20
576.986214
 30
0.0
  0
SPLINE
  5
23a
100
AcDbEntity
  8
Calque_1
 62
7
100
AcDbSpline
 70
8
 71
3
 72
8
 73
4
 74
0
 40
0
 40
0
 40
0
 40
0
 40
1
 40
1
 40
1
 40
1
 10
812.274289
 20
483.527312
 30
0.0
 10
812.253916
 20
483.532868
 30
0.0
 10
812.231109
 20
483.397005
 30
0.0
 10
812.206080
 20
483.119060
 30
0.0
  0
SPLINE
  5
23b
100
AcDbEntity
  8
Calque_1
 62
7
100
AcDbSpline
 70
8
 71
3
 72
8
 73
4
 74
0
 40
0
 40
0
 40
0
 40
0
 40
1
 40
1
 40
1
 40
1
 10
812.206080
 20
483.119060
 30
0.0
 10
812.100961
 20
481.952327
 30
0.0
 10
811.622144
 20
481.543995
 30
0.0
 10
811.585446
 20
482.589893
 30
0.0
  0
SPLINE
  5
23c
100
AcDbEntity
  8
Calque_1
 62
7
100
AcDbSpline
 70
8
 71
3
 72
8
 73
4
 74
0
 40
0
 40
0
 40
0
 40
0
 40
1
 40
1
 40
1
 40
1
 10
811.585446
 20
482.589893
 30
0.0
 10
811.573805
 20
482.923745
 30
0.0
 10
811.502156
 20
483.029207
 30
0.0
 10
811.422648
 20
482.829685
 30
0.0
  0
SPLINE
  5
23d
100
AcDbEntity
  8
Calque_1
 62
7
100
AcDbSpline
 70
8
 71
3
 72
8
 73
4
 74
0
 40
0
 40
0
 40
0
 40
0
 40
1
 40
1
 40
1
 40
1
 10
811.422648
 20
482.829685
 30
0.0
 10
811.344649
 20
482.634026
 30
0.0
 10
811.502711
 20
482.010350
 30
0.0
 10
811.774041
 20
481.443718
 30
0.0
  0
SPLINE
  5
23e
100
AcDbEntity
  8
Calque_1
 62
7
100
AcDbSpline
 70
8
 71
3
 72
8
 73
4
 74
0
 40
0
 40
0
 40
0
 40
0
 40
1
 40
1
 40
1
 40
1
 10
811.774041
 20
481.443718
 30
0.0
 10
812.415841
 20
480.103736
 30
0.0
 10
812.407771
 20
480.090666
 30
0.0
 10
812.353876
 20
482.325310
 30
0.0
  0
SPLINE
  5
23f
100
AcDbEntity
  8
Calque_1
 62
7
100
AcDbSpline
 70
8
 71
3
 72
8
 73
4
 74
0
 40
0
 40
0
 40
0
 40
0
 40
1
 40
1
 40
1
 40
1
 10
812.353876
 20
482.325310
 30
0.0
 10
812.334826
 20
483.115541
 30
0.0
 10
812.307971
 20
483.517866
 30
0.0
 10
812.274289
 20
483.527312
 30
0.0
  0
LWPOLYLINE
  5
240
100
AcDbEntity
  8
Calque_1
 62
7
100
AcDbPolyline
 90
2
 70
0
 10
157.295824
 20
576.319173
 30
0.0
 10
157.295824
 20
576.319067
 30
0.0
  0
SPLINE
  5
241
100
AcDbEntity
  8
Calque_1
 62
7
100
AcDbSpline
 70
8
 71
3
 72
8
 73
4
 74
0
 40
0
 40
0
 40
0
 40
0
 40
1
 40
1
 40
1
 40
1
 10
757.161370
 20
478.512638
 30
0.0
 10
757.328587
 20
478.392464
 30
0.0
 10
757.389361
 20
478.224401
 30
0.0
 10
757.289005
 20
478.124018
 30
0.0
  0
SPLINE
  5
242
100
AcDbEntity
  8
Calque_1
 62
7
100
AcDbSpline
 70
8
 71
3
 72
8
 73
4
 74
0
 40
0
 40
0
 40
0
 40
0
 40
1
 40
1
 40
1
 40
1
 10
757.289005
 20
478.124018
 30
0.0
 10
757.245613
 20
478.080626
 30
0.0
 10
757.203148
 20
478.217416
 30
0.0
 10
757.161370
 20
478.512638
 30
0.0
  0
LWPOLYLINE
  5
243
100
AcDbEntity
  8
Calque_1
 62
7
100
AcDbPolyline
 90
1
 70
1
 10
812.274289
 20
483.527312
 30
0.0
  0
SPLINE
  5
244
100
AcDbEntity
  8
Calque_1
 62
7
100
AcDbSpline
 70
8
 71
3
 72
8
 73
4
 74
0
 40
0
 40
0
 40
0
 40
0
 40
1
 40
1
 40
1
 40
1
 10
530.051956
 20
161.704051
 30
0.0
 10
529.599862
 20
161.708549
 30
0.0
 10
528.882206
 20
161.654891
 30
0.0
 10
527.820063
 20
161.543872
 30
0.0
  0
SPLINE
  5
245
100
AcDbEntity
  8
Calque_1
 62
7
100
AcDbSpline
 70
8
 71
3
 72
8
 73
4
 74
0
 40
0
 40
0
 40
0
 40
0
 40
1
 40
1
 40
1
 40
1
 10
527.820063
 20
161.543872
 30
0.0
 10
525.519299
 20
161.303445
 30
0.0
 10
525.803435
 20
161.167688
 30
0.0
 10
528.439664
 20
161.248280
 30
0.0
  0
SPLINE
  5
246
100
AcDbEntity
  8
Calque_1
 62
7
100
AcDbSpline
 70
8
 71
3
 72
8
 73
4
 74
0
 40
0
 40
0
 40
0
 40
0
 40
1
 40
1
 40
1
 40
1
 10
528.439664
 20
161.248280
 30
0.0
 10
529.675110
 20
161.286036
 30
0.0
 10
530.686612
 20
161.406315
 30
0.0
 10
530.688623
 20
161.515456
 30
0.0
  0
SPLINE
  5
247
100
AcDbEntity
  8
Calque_1
 62
7
100
AcDbSpline
 70
8
 71
3
 72
8
 73
4
 74
0
 40
0
 40
0
 40
0
 40
0
 40
1
 40
1
 40
1
 40
1
 10
530.688623
 20
161.515456
 30
0.0
 10
530.691269
 20
161.636953
 30
0.0
 10
530.504049
 20
161.699579
 30
0.0
 10
530.051956
 20
161.704051
 30
0.0
  0
LWPOLYLINE
  5
248
100
AcDbEntity
  8
Calque_1
 62
7
100
AcDbPolyline
 90
1
 70
1
 10
757.161370
 20
478.512638
 30
0.0
  0
SPLINE
  5
249
100
AcDbEntity
  8
Calque_1
 62
7
100
AcDbSpline
 70
8
 71
3
 72
8
 73
4
 74
0
 40
0
 40
0
 40
0
 40
0
 40
1
 40
1
 40
1
 40
1
 10
525.576767
 20
161.102018
 30
0.0
 10
525.519908
 20
161.113660
 30
0.0
 10
525.165340
 20
161.088524
 30
0.0
 10
524.483826
 20
161.032274
 30
0.0
  0
SPLINE
  5
24a
100
AcDbEntity
  8
Calque_1
 62
7
100
AcDbSpline
 70
8
 71
3
 72
8
 73
4
 74
0
 40
0
 40
0
 40
0
 40
0
 40
1
 40
1
 40
1
 40
1
 10
524.483826
 20
161.032274
 30
0.0
 10
523.616257
 20
160.960783
 30
0.0
 10
522.824756
 20
160.769834
 30
0.0
 10
522.724744
 20
160.608014
 30
0.0
  0
SPLINE
  5
24b
100
AcDbEntity
  8
Calque_1
 62
7
100
AcDbSpline
 70
8
 71
3
 72
8
 73
4
 74
0
 40
0
 40
0
 40
0
 40
0
 40
1
 40
1
 40
1
 40
1
 10
522.724744
 20
160.608014
 30
0.0
 10
522.624731
 20
160.446169
 30
0.0
 10
522.346204
 20
160.389601
 30
0.0
 10
522.105672
 20
160.481914
 30
0.0
  0
LWPOLYLINE
  5
24c
100
AcDbEntity
  8
Calque_1
 62
7
100
AcDbPolyline
 90
1
 70
1
 10
530.051956
 20
161.704051
 30
0.0
  0
SPLINE
  5
24d
100
AcDbEntity
  8
Calque_1
 62
7
100
AcDbSpline
 70
8
 71
3
 72
8
 73
4
 74
0
 40
0
 40
0
 40
0
 40
0
 40
1
 40
1
 40
1
 40
1
 10
522.105672
 20
160.481914
 30
0.0
 10
521.849185
 20
160.580418
 30
0.0
 10
521.734911
 20
160.541816
 30
0.0
 10
521.829711
 20
160.388384
 30
0.0
  0
SPLINE
  5
24e
100
AcDbEntity
  8
Calque_1
 62
7
100
AcDbSpline
 70
8
 71
3
 72
8
 73
4
 74
0
 40
0
 40
0
 40
0
 40
0
 40
1
 40
1
 40
1
 40
1
 10
521.829711
 20
160.388384
 30
0.0
 10
522.054872
 20
160.024158
 30
0.0
 10
523.481505
 20
160.059798
 30
0.0
 10
523.605833
 20
160.432834
 30
0.0
  0
SPLINE
  5
24f
100
AcDbEntity
  8
Calque_1
 62
7
100
AcDbSpline
 70
8
 71
3
 72
8
 73
4
 74
0
 40
0
 40
0
 40
0
 40
0
 40
1
 40
1
 40
1
 40
1
 10
523.605833
 20
160.432834
 30
0.0
 10
523.661951
 20
160.601135
 30
0.0
 10
524.237076
 20
160.834048
 30
0.0
 10
524.884326
 20
160.950623
 30
0.0
  0
SPLINE
  5
250
100
AcDbEntity
  8
Calque_1
 62
7
100
AcDbSpline
 70
8
 71
3
 72
8
 73
4
 74
0
 40
0
 40
0
 40
0
 40
0
 40
1
 40
1
 40
1
 40
1
 10
524.884326
 20
160.950623
 30
0.0
 10
525.392776
 20
161.042222
 30
0.0
 10
525.633652
 20
161.090905
 30
0.0
 10
525.576767
 20
161.102547
 30
0.0
  0
LWPOLYLINE
  5
251
100
AcDbEntity
  8
Calque_1
 62
7
100
AcDbPolyline
 90
1
 70
1
 10
522.105672
 20
160.481914
 30
0.0
  0
LWPOLYLINE
  5
252
100
AcDbEntity
  8
Calque_1
 62
7
100
AcDbPolyline
 90
2
 70
0
 10
525.576767
 20
161.102547
 30
0.0
 10
525.576767
 20
161.102018
 30
0.0
  0
ENDSEC
  0
SECTION
  2
OBJECTS
  0
DICTIONARY
  5
C
330
0
100
AcDbDictionary
  3
ACAD_GROUP
350
D
  3
ACAD_MLINESTYLE
350
17
  0
DICTIONARY
  5
D
330
C
100
AcDbDictionary
  0
DICTIONARY
  5
1A
330
C
100
AcDbDictionary
  0
DICTIONARY
  5
17
330
C
100
AcDbDictionary
  3
STANDARD
350
18
  0
DICTIONARY
  5
19
330
C
100
AcDbDictionary
  0
ENDSEC
  0
EOF
