<?xml version="1.0" encoding="UTF-8" standalone="no"?>
<!-- Created with Inkscape (http://www.inkscape.org/) -->

<svg
   xmlns:dc="http://purl.org/dc/elements/1.1/"
   xmlns:cc="http://creativecommons.org/ns#"
   xmlns:rdf="http://www.w3.org/1999/02/22-rdf-syntax-ns#"
   xmlns:svg="http://www.w3.org/2000/svg"
   xmlns="http://www.w3.org/2000/svg"
   xmlns:sodipodi="http://sodipodi.sourceforge.net/DTD/sodipodi-0.dtd"
   xmlns:inkscape="http://www.inkscape.org/namespaces/inkscape"
   width="1997.2943mm"
   height="305.50912mm"
   viewBox="0 0 1997.2943 305.50913"
   version="1.1"
   id="svg8"
   inkscape:version="0.92.4 (5da689c313, 2019-01-14)"
   sodipodi:docname="securbot_logo_text.svg">
  <defs
     id="defs2" />
  <sodipodi:namedview
     id="base"
     pagecolor="#ffffff"
     bordercolor="#666666"
     borderopacity="1.0"
     inkscape:pageopacity="0.0"
     inkscape:pageshadow="2"
     inkscape:zoom="0.175"
     inkscape:cx="3633.6105"
     inkscape:cy="477.85848"
     inkscape:document-units="mm"
     inkscape:current-layer="layer1"
     showgrid="false"
     inkscape:window-width="1920"
     inkscape:window-height="1018"
     inkscape:window-x="-8"
     inkscape:window-y="-8"
     inkscape:window-maximized="1" />
  <metadata
     id="metadata5">
    <rdf:RDF>
      <cc:Work
         rdf:about="">
        <dc:format>image/svg+xml</dc:format>
        <dc:type
           rdf:resource="http://purl.org/dc/dcmitype/StillImage" />
        <dc:title />
      </cc:Work>
    </rdf:RDF>
  </metadata>
  <g
     inkscape:label="Calque 1"
     inkscape:groupmode="layer"
     id="layer1"
     transform="translate(1042.8141,-108.57658)">
    <g
       aria-label="SecurB"
       transform="matrix(1.7848364,0,0,2.0705464,-915.30982,1753.4721)"
       style="font-style:normal;font-variant:normal;font-weight:normal;font-stretch:normal;font-size:40px;line-height:1.25;font-family:'Polentical Neon';-inkscape-font-specification:'Polentical Neon';letter-spacing:0px;word-spacing:0px;fill:#000000;fill-opacity:1;stroke:none"
       id="flowRoot61">
      <path
         d="m -62.0625,-646.97656 -9.375,-18.75 h 112.5 l 9.375,-9.375 v -18.75 l -9.375,-9.375 H -48 l -23.4375,-23.4375 v -28.125 L -48,-778.22656 H 59.8125 l 9.375,18.75 h -112.5 l -9.375,9.375 v 18.75 l 9.375,9.375 H 45.75 l 23.4375,23.4375 v 28.125 l -23.4375,23.4375 z"
         style="font-size:192px"
         id="path96" />
      <path
         d="m 87.9375,-726.66406 23.4375,-23.4375 h 75 l 23.4375,23.4375 v 14.0625 l -23.4375,23.4375 h -70.3125 v -18.75 h 65.625 l 9.375,-9.375 v -4.6875 l -9.375,-9.375 h -65.625 l -9.375,9.375 v 46.875 l 9.375,9.375 h 84.375 l -9.375,18.75 H 111.375 l -23.4375,-23.4375 z"
         style="font-size:192px"
         id="path98" />
      <path
         d="m 350.4375,-731.35156 h -93.75 l -9.375,9.375 v 46.875 l 9.375,9.375 h 93.75 l -9.375,18.75 H 252 l -23.4375,-23.4375 v -56.25 L 252,-750.10156 h 89.0625 z"
         style="font-size:192px"
         id="path100" />
      <path
         d="m 369.1875,-670.41406 v -79.6875 h 18.75 v 75 l 9.375,9.375 h 65.625 l 9.375,-9.375 v -75 h 18.75 v 79.6875 l -23.4375,23.4375 h -75 z"
         style="font-size:192px"
         id="path102" />
      <path
         d="m 603.5625,-731.35156 h -65.625 l -9.375,9.375 v 75 h -18.75 v -79.6875 l 23.4375,-23.4375 h 60.9375 z"
         style="font-size:192px"
         id="path104" />
      <path
         d="m 622.3125,-646.97656 v -131.25 h 114.375 l 23.4375,23.4375 v 28.125 l -12.65625,12.65625 15.46875,15.46875 v 28.125 l -23.4375,23.4375 z m 18.75,-112.5 v 93.75 h 93.75 l 9.375,-9.375 v -18.75 l -9.375,-9.375 h -84.375 v -18.75 H 732 l 9.375,-9.375 v -18.75 l -9.375,-9.375 z"
         style="font-size:192px"
         id="path106" />
    </g>
    <g
       transform="matrix(1.6097582,0,0,1.6097582,446.98156,-24.81883)"
       id="layer1-8"
       inkscape:label="Calque 1">
      <g
         id="g4689">
        <circle
           id="path3734"
           cx="76.835121"
           cy="206.48535"
           r="15.507673"
           style="fill:#000000;stroke-width:0.32647732" />
        <circle
           id="path3734-0"
           cx="134.27605"
           cy="206.4747"
           r="15.507673"
           style="fill:#000000;stroke-width:0.32647732" />
        <path
           style="color:#000000;font-style:normal;font-variant:normal;font-weight:normal;font-stretch:normal;font-size:medium;line-height:normal;font-family:sans-serif;font-variant-ligatures:normal;font-variant-position:normal;font-variant-caps:normal;font-variant-numeric:normal;font-variant-alternates:normal;font-feature-settings:normal;text-indent:0;text-align:start;text-decoration:none;text-decoration-line:none;text-decoration-style:solid;text-decoration-color:#000000;letter-spacing:normal;word-spacing:normal;text-transform:none;writing-mode:lr-tb;direction:ltr;text-orientation:mixed;dominant-baseline:auto;baseline-shift:baseline;text-anchor:start;white-space:normal;shape-padding:0;clip-rule:nonzero;display:inline;overflow:visible;visibility:visible;opacity:1;isolation:auto;mix-blend-mode:normal;color-interpolation:sRGB;color-interpolation-filters:linearRGB;solid-color:#000000;solid-opacity:1;vector-effect:none;fill:#000000;fill-opacity:1;fill-rule:nonzero;stroke:none;stroke-width:0.26458332px;stroke-linecap:butt;stroke-linejoin:miter;stroke-miterlimit:4;stroke-dasharray:none;stroke-dashoffset:0;stroke-opacity:1;color-rendering:auto;image-rendering:auto;shape-rendering:auto;text-rendering:auto;enable-background:accumulate"
           d="M 59.600075,140.12597 C 44.279787,162.27265 29.069332,184.20842 13.698289,206.3231 l 45.889804,66.21955 92.065917,0.007 45.91928,-66.19811 -45.93657,-66.34979 z m 8.701143,16.46397 74.665732,-0.0189 34.51525,49.7556 -34.5155,49.77417 -74.736581,0.004 L 33.749955,206.327 Z"
           id="path4593"
           inkscape:connector-curvature="0"
           sodipodi:nodetypes="cccccccccccccc" />
        <circle
           style="fill:#000000;fill-opacity:1;stroke:none;stroke-width:0.29147777"
           id="path4601"
           cx="149.18649"
           cy="121.30369"
           r="6.6984425" />
        <path
           style="fill:none;fill-opacity:1;stroke:#000000;stroke-width:4.1789999;stroke-miterlimit:4;stroke-dasharray:none;stroke-opacity:1"
           id="path4619"
           sodipodi:type="arc"
           sodipodi:cx="148.88083"
           sodipodi:cy="122.00533"
           sodipodi:rx="37.062233"
           sodipodi:ry="37.062233"
           sodipodi:start="3.9269908"
           sodipodi:end="5.4977871"
           d="m 122.67387,95.798377 a 37.062233,37.062233 0 0 1 52.41391,-10e-7"
           sodipodi:open="true" />
        <path
           style="fill:none;fill-opacity:1;stroke:#000000;stroke-width:4.25699997;stroke-miterlimit:4;stroke-dasharray:none;stroke-opacity:1"
           id="path4619-9"
           sodipodi:type="arc"
           sodipodi:cx="148.88083"
           sodipodi:cy="121.9932"
           sodipodi:rx="26.563009"
           sodipodi:ry="26.563009"
           sodipodi:start="3.9269908"
           sodipodi:end="5.4977871"
           d="m 130.09794,103.21032 a 26.563009,26.563009 0 0 1 37.56577,0"
           sodipodi:open="true" />
        <path
           style="fill:none;fill-opacity:1;stroke:#000000;stroke-width:4.1329999;stroke-miterlimit:4;stroke-dasharray:none;stroke-opacity:1"
           id="path4619-9-1"
           sodipodi:type="arc"
           sodipodi:cx="148.88083"
           sodipodi:cy="121.99413"
           sodipodi:rx="15.300183"
           sodipodi:ry="15.300183"
           sodipodi:start="3.9269908"
           sodipodi:end="5.4977871"
           d="m 138.06197,111.17527 a 15.300183,15.300183 0 0 1 21.63772,0"
           sodipodi:open="true" />
        <rect
           style="fill:#000000;fill-opacity:1;stroke:none;stroke-width:4.08447456;stroke-miterlimit:4;stroke-dasharray:none;stroke-opacity:1"
           id="rect4661"
           width="5.2977958"
           height="19.243404"
           x="146.59398"
           y="124.47752" />
      </g>
    </g>
    <g
       aria-label="t
"
       transform="matrix(1.7848364,0,0,2.0705464,914.65604,1753.6807)"
       style="font-style:normal;font-variant:normal;font-weight:normal;font-stretch:normal;font-size:40px;line-height:1.25;font-family:'Polentical Neon';-inkscape-font-specification:'Polentical Neon';letter-spacing:0px;word-spacing:0px;fill:#000000;fill-opacity:1;stroke:none"
       id="flowRoot61-7">
      <path
         d="m -52.6875,-750.10156 v -18.75 l 18.75,-9.375 v 28.125 h 56.25 v 18.75 h -56.25 v 56.25 l 9.375,9.375 h 46.875 l -9.375,18.75 H -29.25 l -23.4375,-23.4375 v -60.9375 h -18.75 v -18.75 z"
         style="font-size:192px"
         id="path109" />
    </g>
  </g>
</svg>
