  0
SECTION
  2
HEADER
  9
$ACADVER
  1
AC1014
  9
$HANDSEED
  5
FFFF
  9
$MEASUREMENT
 70
     1
  0
ENDSEC
  0
SECTION
  2
TABLES
  0
TABLE
  2
VPORT
  5
8
330
0
100
AcDbSymbolTable
 70
     4
  0
VPORT
  5
2E
330
8
100
AcDbSymbolTableRecord
100
AcDbViewportTableRecord
  2
*ACTIVE
 70
     0
 10
0.0
 20
0.0
 11
1.0
 21
1.0
 12
210.0
 22
148.5
 13
0.0
 23
0.0
 14
10.0
 24
10.0
 15
10.0
 25
10.0
 16
0.0
 26
0.0
 36
1.0
 17
0.0
 27
0.0
 37
0.0
 40
341.0
 41
1.24
 42
50.0
 43
0.0
 44
0.0
 50
0.0
 51
0.0
 71
     0
 72
   100
 73
     1
 74
     3
 75
     0
 76
     0
 77
     0
 78
     0
  0
ENDTAB
  0
TABLE
  2
LTYPE
  5
5
330
0
100
AcDbSymbolTable
 70
     1
  0
LTYPE
  5
14
330
5
100
AcDbSymbolTableRecord
100
AcDbLinetypeTableRecord
  2
BYBLOCK
 70
     0
  3

 72
    65
 73
     0
 40
0.0
  0
LTYPE
  5
15
330
5
100
AcDbSymbolTableRecord
100
AcDbLinetypeTableRecord
  2
BYLAYER
 70
     0
  3

 72
    65
 73
     0
 40
0.0
  0
LTYPE
  5
16
330
5
100
AcDbSymbolTableRecord
100
AcDbLinetypeTableRecord
  2
CONTINUOUS
 70
     0
  3
Solid line
 72
    65
 73
     0
 40
0.0
  0
ENDTAB
  0
TABLE
  2
LAYER
  5
2
100
AcDbSymbolTable
 70
1
  0
LAYER
  5
50
100
AcDbSymbolTableRecord
100
AcDbLayerTableRecord
  2
0
 70
0
  6
CONTINUOUS
  0
ENDTAB
  0
TABLE
  2
STYLE
  5
3
330
0
100
AcDbSymbolTable
 70
     1
  0
STYLE
  5
11
330
3
100
AcDbSymbolTableRecord
100
AcDbTextStyleTableRecord
  2
STANDARD
 70
     0
 40
0.0
 41
1.0
 50
0.0
 71
     0
 42
2.5
  3
txt
  4

  0
ENDTAB
  0
TABLE
  2
VIEW
  5
6
330
0
100
AcDbSymbolTable
 70
     0
  0
ENDTAB
  0
TABLE
  2
UCS
  5
7
330
0
100
AcDbSymbolTable
 70
     0
  0
ENDTAB
  0
TABLE
  2
APPID
  5
9
330
0
100
AcDbSymbolTable
 70
     2
  0
APPID
  5
12
330
9
100
AcDbSymbolTableRecord
100
AcDbRegAppTableRecord
  2
ACAD
 70
     0
  0
ENDTAB
  0
TABLE
  2
DIMSTYLE
  5
A
330
0
100
AcDbSymbolTable
 70
     1
  0
DIMSTYLE
105
27
330
A
100
AcDbSymbolTableRecord
100
AcDbDimStyleTableRecord
  2
ISO-25
 70
     0
  3

  4

  5

  6

  7

 40
1.0
 41
2.5
 42
0.625
 43
3.75
 44
1.25
 45
0.0
 46
0.0
 47
0.0
 48
0.0
140
2.5
141
2.5
142
0.0
143
0.03937007874016
144
1.0
145
0.0
146
1.0
147
0.625
 71
     0
 72
     0
 73
     0
 74
     0
 75
     0
 76
     0
 77
     1
 78
     8
170
     0
171
     3
172
     1
173
     0
174
     0
175
     0
176
     0
177
     0
178
     0
270
     2
271
     2
272
     2
273
     2
274
     3
340
11
275
     0
280
     0
281
     0
282
     0
283
     0
284
     8
285
     0
286
     0
287
     3
288
     0
  0
ENDTAB
  0
TABLE
  2
BLOCK_RECORD
  5
1
330
0
100
AcDbSymbolTable
 70
     1
  0
BLOCK_RECORD
  5
1F
330
1
100
AcDbSymbolTableRecord
100
AcDbBlockTableRecord
  2
*MODEL_SPACE
  0
BLOCK_RECORD
  5
1B
330
1
100
AcDbSymbolTableRecord
100
AcDbBlockTableRecord
  2
*PAPER_SPACE
  0
ENDTAB
  0
ENDSEC
  0
SECTION
  2
BLOCKS
  0
BLOCK
  5
20
330
1F
100
AcDbEntity
  8
0
100
AcDbBlockBegin
  2
*MODEL_SPACE
 70
     0
 10
0.0
 20
0.0
 30
0.0
  3
*MODEL_SPACE
  1

  0
ENDBLK
  5
21
330
1F
100
AcDbEntity
  8
0
100
AcDbBlockEnd
  0
BLOCK
  5
1C
330
1B
100
AcDbEntity
 67
     1
  8
0
100
AcDbBlockBegin
  2
*PAPER_SPACE
  1

  0
ENDBLK
  5
1D
330
1B
100
AcDbEntity
 67
     1
  8
0
100
AcDbBlockEnd
  0
ENDSEC
  0
SECTION
  2
ENTITIES
  0
SPLINE
  5
100
100
AcDbEntity
  8
0
 62
1
100
AcDbSpline
 70
8
 71
3
 72
8
 73
4
 74
0
 40
0
 40
0
 40
0
 40
0
 40
1
 40
1
 40
1
 40
1
 10
146.247562
 20
118.608686
 30
0.0
 10
146.248395
 20
121.191680
 30
0.0
 10
144.870861
 20
123.578821
 30
0.0
 10
142.634062
 20
124.870558
 30
0.0
  0
SPLINE
  5
101
100
AcDbEntity
  8
0
 62
1
100
AcDbSpline
 70
8
 71
3
 72
8
 73
4
 74
0
 40
0
 40
0
 40
0
 40
0
 40
1
 40
1
 40
1
 40
1
 10
142.634062
 20
124.870558
 30
0.0
 10
140.397262
 20
126.162296
 30
0.0
 10
137.641171
 20
126.162296
 30
0.0
 10
135.404371
 20
124.870558
 30
0.0
  0
SPLINE
  5
102
100
AcDbEntity
  8
0
 62
1
100
AcDbSpline
 70
8
 71
3
 72
8
 73
4
 74
0
 40
0
 40
0
 40
0
 40
0
 40
1
 40
1
 40
1
 40
1
 10
135.404371
 20
124.870558
 30
0.0
 10
133.167571
 20
123.578821
 30
0.0
 10
131.790038
 20
121.191680
 30
0.0
 10
131.790870
 20
118.608686
 30
0.0
  0
SPLINE
  5
103
100
AcDbEntity
  8
0
 62
1
100
AcDbSpline
 70
8
 71
3
 72
8
 73
4
 74
0
 40
0
 40
0
 40
0
 40
0
 40
1
 40
1
 40
1
 40
1
 10
131.790870
 20
118.608686
 30
0.0
 10
131.790038
 20
116.025692
 30
0.0
 10
133.167571
 20
113.638551
 30
0.0
 10
135.404371
 20
112.346814
 30
0.0
  0
SPLINE
  5
104
100
AcDbEntity
  8
0
 62
1
100
AcDbSpline
 70
8
 71
3
 72
8
 73
4
 74
0
 40
0
 40
0
 40
0
 40
0
 40
1
 40
1
 40
1
 40
1
 10
135.404371
 20
112.346814
 30
0.0
 10
137.641171
 20
111.055077
 30
0.0
 10
140.397262
 20
111.055077
 30
0.0
 10
142.634062
 20
112.346814
 30
0.0
  0
SPLINE
  5
105
100
AcDbEntity
  8
0
 62
1
100
AcDbSpline
 70
8
 71
3
 72
8
 73
4
 74
0
 40
0
 40
0
 40
0
 40
0
 40
1
 40
1
 40
1
 40
1
 10
142.634062
 20
112.346814
 30
0.0
 10
144.870861
 20
113.638551
 30
0.0
 10
146.248395
 20
116.025692
 30
0.0
 10
146.247562
 20
118.608686
 30
0.0
  0
SPLINE
  5
106
100
AcDbEntity
  8
0
 62
1
100
AcDbSpline
 70
8
 71
3
 72
8
 73
4
 74
0
 40
0
 40
0
 40
0
 40
0
 40
1
 40
1
 40
1
 40
1
 10
364.515285
 20
118.608686
 30
0.0
 10
364.516117
 20
121.191680
 30
0.0
 10
363.138584
 20
123.578821
 30
0.0
 10
360.901784
 20
124.870558
 30
0.0
  0
SPLINE
  5
107
100
AcDbEntity
  8
0
 62
1
100
AcDbSpline
 70
8
 71
3
 72
8
 73
4
 74
0
 40
0
 40
0
 40
0
 40
0
 40
1
 40
1
 40
1
 40
1
 10
360.901784
 20
124.870558
 30
0.0
 10
358.664984
 20
126.162296
 30
0.0
 10
355.908893
 20
126.162296
 30
0.0
 10
353.672093
 20
124.870558
 30
0.0
  0
SPLINE
  5
108
100
AcDbEntity
  8
0
 62
1
100
AcDbSpline
 70
8
 71
3
 72
8
 73
4
 74
0
 40
0
 40
0
 40
0
 40
0
 40
1
 40
1
 40
1
 40
1
 10
353.672093
 20
124.870558
 30
0.0
 10
351.435294
 20
123.578821
 30
0.0
 10
350.057760
 20
121.191680
 30
0.0
 10
350.058592
 20
118.608686
 30
0.0
  0
SPLINE
  5
109
100
AcDbEntity
  8
0
 62
1
100
AcDbSpline
 70
8
 71
3
 72
8
 73
4
 74
0
 40
0
 40
0
 40
0
 40
0
 40
1
 40
1
 40
1
 40
1
 10
350.058592
 20
118.608686
 30
0.0
 10
350.057760
 20
116.025692
 30
0.0
 10
351.435294
 20
113.638551
 30
0.0
 10
353.672093
 20
112.346814
 30
0.0
  0
SPLINE
  5
10a
100
AcDbEntity
  8
0
 62
1
100
AcDbSpline
 70
8
 71
3
 72
8
 73
4
 74
0
 40
0
 40
0
 40
0
 40
0
 40
1
 40
1
 40
1
 40
1
 10
353.672093
 20
112.346814
 30
0.0
 10
355.908893
 20
111.055077
 30
0.0
 10
358.664984
 20
111.055077
 30
0.0
 10
360.901784
 20
112.346814
 30
0.0
  0
SPLINE
  5
10b
100
AcDbEntity
  8
0
 62
1
100
AcDbSpline
 70
8
 71
3
 72
8
 73
4
 74
0
 40
0
 40
0
 40
0
 40
0
 40
1
 40
1
 40
1
 40
1
 10
360.901784
 20
112.346814
 30
0.0
 10
363.138584
 20
113.638551
 30
0.0
 10
364.516117
 20
116.025692
 30
0.0
 10
364.515285
 20
118.608686
 30
0.0
  0
LWPOLYLINE
  5
10c
100
AcDbEntity
  8
0
 62
1
100
AcDbPolyline
 90
1
 70
1
 10
146.247562
 20
118.608686
 30
0.0
  0
SPLINE
  5
10d
100
AcDbEntity
  8
0
 62
1
100
AcDbSpline
 70
8
 71
3
 72
8
 73
4
 74
0
 40
0
 40
0
 40
0
 40
0
 40
1
 40
1
 40
1
 40
1
 10
333.192450
 20
22.230738
 30
0.0
 10
333.192450
 20
69.196686
 30
0.0
 10
295.119026
 20
107.270110
 30
0.0
 10
248.153078
 20
107.270110
 30
0.0
  0
SPLINE
  5
10e
100
AcDbEntity
  8
0
 62
1
100
AcDbSpline
 70
8
 71
3
 72
8
 73
4
 74
0
 40
0
 40
0
 40
0
 40
0
 40
1
 40
1
 40
1
 40
1
 10
248.153078
 20
107.270110
 30
0.0
 10
201.187130
 20
107.270110
 30
0.0
 10
163.113706
 20
69.196687
 30
0.0
 10
163.113705
 20
22.230739
 30
0.0
  0
LWPOLYLINE
  5
10f
100
AcDbEntity
  8
0
 62
1
100
AcDbPolyline
 90
1
 70
1
 10
364.515285
 20
118.608686
 30
0.0
  0
SPLINE
  5
110
100
AcDbEntity
  8
0
 62
5
100
AcDbSpline
 70
8
 71
3
 72
8
 73
4
 74
0
 40
0
 40
0
 40
0
 40
0
 40
1
 40
1
 40
1
 40
1
 10
362.592150
 20
839.903718
 30
0.0
 10
361.631273
 20
840.518898
 30
0.0
 10
360.966997
 20
841.715381
 30
0.0
 10
360.966997
 20
842.830938
 30
0.0
  0
SPLINE
  5
111
100
AcDbEntity
  8
0
 62
5
100
AcDbSpline
 70
8
 71
3
 72
8
 73
4
 74
0
 40
0
 40
0
 40
0
 40
0
 40
1
 40
1
 40
1
 40
1
 10
360.966997
 20
842.830938
 30
0.0
 10
360.966997
 20
845.105580
 30
0.0
 10
363.260955
 20
846.822600
 30
0.0
 10
365.422672
 20
846.165997
 30
0.0
  0
SPLINE
  5
112
100
AcDbEntity
  8
0
 62
5
100
AcDbSpline
 70
8
 71
3
 72
8
 73
4
 74
0
 40
0
 40
0
 40
0
 40
0
 40
1
 40
1
 40
1
 40
1
 10
365.422672
 20
846.165997
 30
0.0
 10
366.895283
 20
845.718712
 30
0.0
 10
367.952685
 20
844.325453
 30
0.0
 10
367.952685
 20
842.832318
 30
0.0
  0
SPLINE
  5
113
100
AcDbEntity
  8
0
 62
5
100
AcDbSpline
 70
8
 71
3
 72
8
 73
4
 74
0
 40
0
 40
0
 40
0
 40
0
 40
1
 40
1
 40
1
 40
1
 10
367.952685
 20
842.832318
 30
0.0
 10
367.952685
 20
841.736306
 30
0.0
 10
367.282672
 20
840.509313
 30
0.0
 10
366.374295
 20
839.941788
 30
0.0
  0
LWPOLYLINE
  5
114
100
AcDbEntity
  8
0
 62
1
100
AcDbPolyline
 90
6
 70
0
 10
333.192450
 20
22.230739
 30
0.0
 10
681.853867
 20
22.230739
 30
0.0
 10
681.853867
 20
872.624435
 30
0.0
 10
21.381424
 20
872.624435
 30
0.0
 10
21.381424
 20
22.230739
 30
0.0
 10
163.113705
 20
22.230739
 30
0.0
  0
SPLINE
  5
115
100
AcDbEntity
  8
0
 62
5
100
AcDbSpline
 70
8
 71
3
 72
8
 73
4
 74
0
 40
0
 40
0
 40
0
 40
0
 40
1
 40
1
 40
1
 40
1
 10
370.294590
 20
785.134293
 30
0.0
 10
375.267202
 20
792.296793
 30
0.0
 10
379.335652
 20
798.176418
 30
0.0
 10
379.335630
 20
798.200118
 30
0.0
  0
SPLINE
  5
116
100
AcDbEntity
  8
0
 62
5
100
AcDbSpline
 70
8
 71
3
 72
8
 73
4
 74
0
 40
0
 40
0
 40
0
 40
0
 40
1
 40
1
 40
1
 40
1
 10
379.335630
 20
798.200118
 30
0.0
 10
379.335570
 20
798.223368
 30
0.0
 10
375.267038
 20
804.103518
 30
0.0
 10
370.294425
 20
811.265943
 30
0.0
  0
LWPOLYLINE
  5
117
100
AcDbEntity
  8
0
 62
5
100
AcDbPolyline
 90
9
 70
0
 10
305.406983
 20
780.826518
 30
0.0
 10
293.356612
 20
798.200118
 30
0.0
 10
305.406983
 20
815.573591
 30
0.0
 10
317.457375
 20
832.947018
 30
0.0
 10
340.290233
 20
832.951518
 30
0.0
 10
363.123060
 20
832.956018
 30
0.0
 10
363.123060
 20
836.259866
 30
0.0
 10
363.123060
 20
839.563713
 30
0.0
 10
362.592150
 20
839.903643
 30
0.0
  0
SPLINE
  5
118
100
AcDbEntity
  8
0
 62
5
100
AcDbSpline
 70
8
 71
3
 72
8
 73
4
 74
0
 40
0
 40
0
 40
0
 40
0
 40
1
 40
1
 40
1
 40
1
 10
312.915937
 20
811.265943
 30
0.0
 10
307.943070
 20
804.103518
 30
0.0
 10
303.889238
 20
798.203193
 30
0.0
 10
303.907402
 20
798.154218
 30
0.0
  0
SPLINE
  5
119
100
AcDbEntity
  8
0
 62
5
100
AcDbSpline
 70
8
 71
3
 72
8
 73
4
 74
0
 40
0
 40
0
 40
0
 40
0
 40
1
 40
1
 40
1
 40
1
 10
303.907402
 20
798.154218
 30
0.0
 10
303.935227
 20
798.079218
 30
0.0
 10
318.876757
 20
776.522718
 30
0.0
 10
321.226162
 20
773.167893
 30
0.0
  0
LWPOLYLINE
  5
11a
100
AcDbEntity
  8
0
 62
5
100
AcDbPolyline
 90
12
 70
0
 10
366.374295
 20
839.941788
 30
0.0
 10
365.891130
 20
839.639936
 30
0.0
 10
365.886630
 20
836.186103
 30
0.0
 10
365.882130
 20
832.732271
 30
0.0
 10
377.867910
 20
815.466206
 30
0.0
 10
389.853690
 20
798.200193
 30
0.0
 10
377.803207
 20
780.826668
 30
0.0
 10
365.752755
 20
763.453144
 30
0.0
 10
341.604698
 20
763.453144
 30
0.0
 10
317.456648
 20
763.453144
 30
0.0
 10
305.406248
 20
780.826743
 30
0.0
 10
305.406248
 20
780.826743
 30
0.0
  0
SPLINE
  5
11b
100
AcDbEntity
  8
0
 62
5
100
AcDbSpline
 70
8
 71
3
 72
8
 73
4
 74
0
 40
0
 40
0
 40
0
 40
0
 40
1
 40
1
 40
1
 40
1
 10
325.477980
 20
790.062168
 30
0.0
 10
323.585137
 20
790.361868
 30
0.0
 10
322.124055
 20
791.074368
 30
0.0
 10
320.835090
 20
792.326193
 30
0.0
  0
SPLINE
  5
11c
100
AcDbEntity
  8
0
 62
5
100
AcDbSpline
 70
8
 71
3
 72
8
 73
4
 74
0
 40
0
 40
0
 40
0
 40
0
 40
1
 40
1
 40
1
 40
1
 10
320.835090
 20
792.326193
 30
0.0
 10
319.724175
 20
793.405068
 30
0.0
 10
318.975172
 20
794.702118
 30
0.0
 10
318.603443
 20
796.190568
 30
0.0
  0
SPLINE
  5
11d
100
AcDbEntity
  8
0
 62
5
100
AcDbSpline
 70
8
 71
3
 72
8
 73
4
 74
0
 40
0
 40
0
 40
0
 40
0
 40
1
 40
1
 40
1
 40
1
 10
318.603443
 20
796.190568
 30
0.0
 10
318.336000
 20
797.261493
 30
0.0
 10
318.336000
 20
798.966318
 30
0.0
 10
318.603443
 20
800.037243
 30
0.0
  0
SPLINE
  5
11e
100
AcDbEntity
  8
0
 62
5
100
AcDbSpline
 70
8
 71
3
 72
8
 73
4
 74
0
 40
0
 40
0
 40
0
 40
0
 40
1
 40
1
 40
1
 40
1
 10
318.603443
 20
800.037243
 30
0.0
 10
318.961088
 20
801.469293
 30
0.0
 10
319.632165
 20
802.667568
 30
0.0
 10
320.682068
 20
803.748618
 30
0.0
  0
SPLINE
  5
11f
100
AcDbEntity
  8
0
 62
5
100
AcDbSpline
 70
8
 71
3
 72
8
 73
4
 74
0
 40
0
 40
0
 40
0
 40
0
 40
1
 40
1
 40
1
 40
1
 10
320.682068
 20
803.748618
 30
0.0
 10
321.760958
 20
804.859518
 30
0.0
 10
323.057963
 20
805.608543
 30
0.0
 10
324.546435
 20
805.980243
 30
0.0
  0
SPLINE
  5
120
100
AcDbEntity
  8
0
 62
5
100
AcDbSpline
 70
8
 71
3
 72
8
 73
4
 74
0
 40
0
 40
0
 40
0
 40
0
 40
1
 40
1
 40
1
 40
1
 10
324.546435
 20
805.980243
 30
0.0
 10
325.140697
 20
806.128593
 30
0.0
 10
325.558260
 20
806.169768
 30
0.0
 10
326.469758
 20
806.169768
 30
0.0
  0
SPLINE
  5
121
100
AcDbEntity
  8
0
 62
5
100
AcDbSpline
 70
8
 71
3
 72
8
 73
4
 74
0
 40
0
 40
0
 40
0
 40
0
 40
1
 40
1
 40
1
 40
1
 10
326.469758
 20
806.169768
 30
0.0
 10
327.381285
 20
806.169768
 30
0.0
 10
327.798847
 20
806.128518
 30
0.0
 10
328.393110
 20
805.980243
 30
0.0
  0
SPLINE
  5
122
100
AcDbEntity
  8
0
 62
5
100
AcDbSpline
 70
8
 71
3
 72
8
 73
4
 74
0
 40
0
 40
0
 40
0
 40
0
 40
1
 40
1
 40
1
 40
1
 10
328.393110
 20
805.980243
 30
0.0
 10
329.897693
 20
805.604493
 30
0.0
 10
331.206990
 20
804.843468
 30
0.0
 10
332.278568
 20
803.721843
 30
0.0
  0
SPLINE
  5
123
100
AcDbEntity
  8
0
 62
5
100
AcDbSpline
 70
8
 71
3
 72
8
 73
4
 74
0
 40
0
 40
0
 40
0
 40
0
 40
1
 40
1
 40
1
 40
1
 10
332.278568
 20
803.721843
 30
0.0
 10
333.337380
 20
802.613643
 30
0.0
 10
333.980153
 20
801.462543
 30
0.0
 10
334.336080
 20
800.037243
 30
0.0
  0
SPLINE
  5
124
100
AcDbEntity
  8
0
 62
5
100
AcDbSpline
 70
8
 71
3
 72
8
 73
4
 74
0
 40
0
 40
0
 40
0
 40
0
 40
1
 40
1
 40
1
 40
1
 10
334.336080
 20
800.037243
 30
0.0
 10
334.603545
 20
798.966318
 30
0.0
 10
334.603545
 20
797.261493
 30
0.0
 10
334.336080
 20
796.190568
 30
0.0
  0
SPLINE
  5
125
100
AcDbEntity
  8
0
 62
5
100
AcDbSpline
 70
8
 71
3
 72
8
 73
4
 74
0
 40
0
 40
0
 40
0
 40
0
 40
1
 40
1
 40
1
 40
1
 10
334.336080
 20
796.190568
 30
0.0
 10
333.964372
 20
794.702118
 30
0.0
 10
333.215348
 20
793.405068
 30
0.0
 10
332.104455
 20
792.326193
 30
0.0
  0
SPLINE
  5
126
100
AcDbEntity
  8
0
 62
5
100
AcDbSpline
 70
8
 71
3
 72
8
 73
4
 74
0
 40
0
 40
0
 40
0
 40
0
 40
1
 40
1
 40
1
 40
1
 10
332.104455
 20
792.326193
 30
0.0
 10
330.585397
 20
790.850943
 30
0.0
 10
328.861260
 20
790.121943
 30
0.0
 10
326.728507
 20
790.053168
 30
0.0
  0
SPLINE
  5
127
100
AcDbEntity
  8
0
 62
5
100
AcDbSpline
 70
8
 71
3
 72
8
 73
4
 74
0
 40
0
 40
0
 40
0
 40
0
 40
1
 40
1
 40
1
 40
1
 10
326.728507
 20
790.053168
 30
0.0
 10
326.183002
 20
790.035168
 30
0.0
 10
325.620262
 20
790.039668
 30
0.0
 10
325.477980
 20
790.062168
 30
0.0
  0
LWPOLYLINE
  5
128
100
AcDbEntity
  8
0
 62
5
100
AcDbPolyline
 90
5
 70
0
 10
370.294425
 20
811.265943
 30
0.0
 10
361.253332
 20
824.288673
 30
0.0
 10
341.605433
 20
824.288673
 30
0.0
 10
321.957532
 20
824.288673
 30
0.0
 10
312.915937
 20
811.265943
 30
0.0
  0
SPLINE
  5
129
100
AcDbEntity
  8
0
 62
5
100
AcDbSpline
 70
8
 71
3
 72
8
 73
4
 74
0
 40
0
 40
0
 40
0
 40
0
 40
1
 40
1
 40
1
 40
1
 10
355.663057
 20
790.062168
 30
0.0
 10
353.770215
 20
790.361868
 30
0.0
 10
352.309132
 20
791.074368
 30
0.0
 10
351.020137
 20
792.326193
 30
0.0
  0
SPLINE
  5
12a
100
AcDbEntity
  8
0
 62
5
100
AcDbSpline
 70
8
 71
3
 72
8
 73
4
 74
0
 40
0
 40
0
 40
0
 40
0
 40
1
 40
1
 40
1
 40
1
 10
351.020138
 20
792.326193
 30
0.0
 10
349.909253
 20
793.405068
 30
0.0
 10
349.160220
 20
794.702118
 30
0.0
 10
348.788520
 20
796.190568
 30
0.0
  0
SPLINE
  5
12b
100
AcDbEntity
  8
0
 62
5
100
AcDbSpline
 70
8
 71
3
 72
8
 73
4
 74
0
 40
0
 40
0
 40
0
 40
0
 40
1
 40
1
 40
1
 40
1
 10
348.788520
 20
796.190568
 30
0.0
 10
348.521055
 20
797.261493
 30
0.0
 10
348.521055
 20
798.966318
 30
0.0
 10
348.788520
 20
800.037243
 30
0.0
  0
SPLINE
  5
12c
100
AcDbEntity
  8
0
 62
5
100
AcDbSpline
 70
8
 71
3
 72
8
 73
4
 74
0
 40
0
 40
0
 40
0
 40
0
 40
1
 40
1
 40
1
 40
1
 10
348.788520
 20
800.037243
 30
0.0
 10
349.146165
 20
801.469293
 30
0.0
 10
349.817242
 20
802.667568
 30
0.0
 10
350.867145
 20
803.748618
 30
0.0
  0
SPLINE
  5
12d
100
AcDbEntity
  8
0
 62
5
100
AcDbSpline
 70
8
 71
3
 72
8
 73
4
 74
0
 40
0
 40
0
 40
0
 40
0
 40
1
 40
1
 40
1
 40
1
 10
350.867145
 20
803.748618
 30
0.0
 10
351.946035
 20
804.859518
 30
0.0
 10
353.243040
 20
805.608543
 30
0.0
 10
354.731513
 20
805.980243
 30
0.0
  0
SPLINE
  5
12e
100
AcDbEntity
  8
0
 62
5
100
AcDbSpline
 70
8
 71
3
 72
8
 73
4
 74
0
 40
0
 40
0
 40
0
 40
0
 40
1
 40
1
 40
1
 40
1
 10
354.731513
 20
805.980243
 30
0.0
 10
355.325775
 20
806.128593
 30
0.0
 10
355.743308
 20
806.169768
 30
0.0
 10
356.654835
 20
806.169768
 30
0.0
  0
SPLINE
  5
12f
100
AcDbEntity
  8
0
 62
5
100
AcDbSpline
 70
8
 71
3
 72
8
 73
4
 74
0
 40
0
 40
0
 40
0
 40
0
 40
1
 40
1
 40
1
 40
1
 10
356.654835
 20
806.169768
 30
0.0
 10
357.566363
 20
806.169768
 30
0.0
 10
357.983902
 20
806.128518
 30
0.0
 10
358.578165
 20
805.980243
 30
0.0
  0
SPLINE
  5
130
100
AcDbEntity
  8
0
 62
5
100
AcDbSpline
 70
8
 71
3
 72
8
 73
4
 74
0
 40
0
 40
0
 40
0
 40
0
 40
1
 40
1
 40
1
 40
1
 10
358.578165
 20
805.980243
 30
0.0
 10
360.082770
 20
805.604493
 30
0.0
 10
361.392067
 20
804.843468
 30
0.0
 10
362.463645
 20
803.721843
 30
0.0
  0
SPLINE
  5
131
100
AcDbEntity
  8
0
 62
5
100
AcDbSpline
 70
8
 71
3
 72
8
 73
4
 74
0
 40
0
 40
0
 40
0
 40
0
 40
1
 40
1
 40
1
 40
1
 10
362.463645
 20
803.721843
 30
0.0
 10
363.522457
 20
802.613643
 30
0.0
 10
364.165230
 20
801.462543
 30
0.0
 10
364.521158
 20
800.037243
 30
0.0
  0
SPLINE
  5
132
100
AcDbEntity
  8
0
 62
5
100
AcDbSpline
 70
8
 71
3
 72
8
 73
4
 74
0
 40
0
 40
0
 40
0
 40
0
 40
1
 40
1
 40
1
 40
1
 10
364.521158
 20
800.037243
 30
0.0
 10
364.788623
 20
798.966318
 30
0.0
 10
364.788623
 20
797.261493
 30
0.0
 10
364.521158
 20
796.190568
 30
0.0
  0
SPLINE
  5
133
100
AcDbEntity
  8
0
 62
5
100
AcDbSpline
 70
8
 71
3
 72
8
 73
4
 74
0
 40
0
 40
0
 40
0
 40
0
 40
1
 40
1
 40
1
 40
1
 10
364.521158
 20
796.190568
 30
0.0
 10
364.149450
 20
794.702118
 30
0.0
 10
363.400425
 20
793.405068
 30
0.0
 10
362.289533
 20
792.326193
 30
0.0
  0
SPLINE
  5
134
100
AcDbEntity
  8
0
 62
5
100
AcDbSpline
 70
8
 71
3
 72
8
 73
4
 74
0
 40
0
 40
0
 40
0
 40
0
 40
1
 40
1
 40
1
 40
1
 10
362.289533
 20
792.326193
 30
0.0
 10
360.770475
 20
790.850943
 30
0.0
 10
359.046337
 20
790.121943
 30
0.0
 10
356.913555
 20
790.053168
 30
0.0
  0
SPLINE
  5
135
100
AcDbEntity
  8
0
 62
5
100
AcDbSpline
 70
8
 71
3
 72
8
 73
4
 74
0
 40
0
 40
0
 40
0
 40
0
 40
1
 40
1
 40
1
 40
1
 10
356.913555
 20
790.053168
 30
0.0
 10
356.368080
 20
790.035168
 30
0.0
 10
355.805340
 20
790.039668
 30
0.0
 10
355.663058
 20
790.062168
 30
0.0
  0
SPLINE
  5
136
100
AcDbEntity
  8
0
 62
5
100
AcDbSpline
 70
8
 71
3
 72
8
 73
4
 74
0
 40
0
 40
0
 40
0
 40
0
 40
1
 40
1
 40
1
 40
1
 10
358.443697
 20
849.292777
 30
0.0
 10
359.493630
 20
850.180853
 30
0.0
 10
360.786390
 20
850.850505
 30
0.0
 10
362.156648
 20
851.216078
 30
0.0
  0
SPLINE
  5
137
100
AcDbEntity
  8
0
 62
5
100
AcDbSpline
 70
8
 71
3
 72
8
 73
4
 74
0
 40
0
 40
0
 40
0
 40
0
 40
1
 40
1
 40
1
 40
1
 10
362.156648
 20
851.216078
 30
0.0
 10
362.891618
 20
851.412150
 30
0.0
 10
363.162030
 20
851.439398
 30
0.0
 10
364.373587
 20
851.439398
 30
0.0
  0
SPLINE
  5
138
100
AcDbEntity
  8
0
 62
5
100
AcDbSpline
 70
8
 71
3
 72
8
 73
4
 74
0
 40
0
 40
0
 40
0
 40
0
 40
1
 40
1
 40
1
 40
1
 10
364.373587
 20
851.439398
 30
0.0
 10
365.585168
 20
851.439398
 30
0.0
 10
365.855588
 20
851.412098
 30
0.0
 10
366.590558
 20
851.216078
 30
0.0
  0
SPLINE
  5
139
100
AcDbEntity
  8
0
 62
5
100
AcDbSpline
 70
8
 71
3
 72
8
 73
4
 74
0
 40
0
 40
0
 40
0
 40
0
 40
1
 40
1
 40
1
 40
1
 10
366.590558
 20
851.216078
 30
0.0
 10
367.572750
 20
850.954035
 30
0.0
 10
368.680178
 20
850.453860
 30
0.0
 10
369.488738
 20
849.907118
 30
0.0
  0
SPLINE
  5
13a
100
AcDbEntity
  8
0
 62
5
100
AcDbSpline
 70
8
 71
3
 72
8
 73
4
 74
0
 40
0
 40
0
 40
0
 40
0
 40
1
 40
1
 40
1
 40
1
 10
369.488738
 20
849.907118
 30
0.0
 10
370.110975
 20
849.486345
 30
0.0
 10
370.626225
 20
849.043057
 30
0.0
 10
370.626225
 20
848.928442
 30
0.0
  0
SPLINE
  5
13b
100
AcDbEntity
  8
0
 62
5
100
AcDbSpline
 70
8
 71
3
 72
8
 73
4
 74
0
 40
0
 40
0
 40
0
 40
0
 40
1
 40
1
 40
1
 40
1
 10
370.626225
 20
848.928442
 30
0.0
 10
370.626225
 20
848.889217
 30
0.0
 10
370.298895
 20
848.536890
 30
0.0
 10
369.898815
 20
848.145450
 30
0.0
  0
LWPOLYLINE
  5
13c
100
AcDbEntity
  8
0
 62
5
100
AcDbPolyline
 90
5
 70
0
 10
321.226162
 20
773.167893
 30
0.0
 10
321.996368
 20
772.068093
 30
0.0
 10
341.624918
 20
772.089843
 30
0.0
 10
361.253468
 20
772.111593
 30
0.0
 10
370.294590
 20
785.134293
 30
0.0
  0
SPLINE
  5
13d
100
AcDbEntity
  8
0
 62
5
100
AcDbSpline
 70
8
 71
3
 72
8
 73
4
 74
0
 40
0
 40
0
 40
0
 40
0
 40
1
 40
1
 40
1
 40
1
 10
368.712990
 20
847.806810
 30
0.0
 10
366.169875
 20
849.876555
 30
0.0
 10
362.328622
 20
849.833108
 30
0.0
 10
359.913577
 20
847.707300
 30
0.0
  0
SPLINE
  5
13e
100
AcDbEntity
  8
0
 62
5
100
AcDbSpline
 70
8
 71
3
 72
8
 73
4
 74
0
 40
0
 40
0
 40
0
 40
0
 40
1
 40
1
 40
1
 40
1
 10
359.913577
 20
847.707300
 30
0.0
 10
359.695748
 20
847.515555
 30
0.0
 10
359.503245
 20
847.358685
 30
0.0
 10
359.485838
 20
847.358685
 30
0.0
  0
SPLINE
  5
13f
100
AcDbEntity
  8
0
 62
5
100
AcDbSpline
 70
8
 71
3
 72
8
 73
4
 74
0
 40
0
 40
0
 40
0
 40
0
 40
1
 40
1
 40
1
 40
1
 10
359.485838
 20
847.358685
 30
0.0
 10
359.468438
 20
847.358685
 30
0.0
 10
359.115060
 20
847.699342
 30
0.0
 10
358.700618
 20
848.115697
 30
0.0
  0
LWPOLYLINE
  5
140
100
AcDbEntity
  8
0
 62
5
100
AcDbPolyline
 90
3
 70
0
 10
358.700618
 20
848.115697
 30
0.0
 10
357.947122
 20
848.872740
 30
0.0
 10
358.443697
 20
849.292777
 30
0.0
  0
SPLINE
  5
141
100
AcDbEntity
  8
0
 62
5
100
AcDbSpline
 70
8
 71
3
 72
8
 73
4
 74
0
 40
0
 40
0
 40
0
 40
0
 40
1
 40
1
 40
1
 40
1
 10
354.341220
 20
853.519343
 30
0.0
 10
356.756768
 20
855.710925
 30
0.0
 10
359.617687
 20
856.993980
 30
0.0
 10
362.907473
 20
857.361105
 30
0.0
  0
SPLINE
  5
142
100
AcDbEntity
  8
0
 62
5
100
AcDbSpline
 70
8
 71
3
 72
8
 73
4
 74
0
 40
0
 40
0
 40
0
 40
0
 40
1
 40
1
 40
1
 40
1
 10
362.907472
 20
857.361105
 30
0.0
 10
366.771105
 20
857.792250
 30
0.0
 10
370.818105
 20
856.561035
 30
0.0
 10
373.937490
 20
854.005515
 30
0.0
  0
SPLINE
  5
143
100
AcDbEntity
  8
0
 62
5
100
AcDbSpline
 70
8
 71
3
 72
8
 73
4
 74
0
 40
0
 40
0
 40
0
 40
0
 40
1
 40
1
 40
1
 40
1
 10
373.937490
 20
854.005515
 30
0.0
 10
374.274525
 20
853.729418
 30
0.0
 10
374.625810
 20
853.419240
 30
0.0
 10
374.718158
 20
853.316265
 30
0.0
  0
LWPOLYLINE
  5
144
100
AcDbEntity
  8
0
 62
5
100
AcDbPolyline
 90
3
 70
0
 10
369.898815
 20
848.145450
 30
0.0
 10
369.171412
 20
847.433707
 30
0.0
 10
368.712990
 20
847.806810
 30
0.0
  0
SPLINE
  5
145
100
AcDbEntity
  8
0
 62
5
100
AcDbSpline
 70
8
 71
3
 72
8
 73
4
 74
0
 40
0
 40
0
 40
0
 40
0
 40
1
 40
1
 40
1
 40
1
 10
372.887002
 20
852.078960
 30
0.0
 10
371.612797
 20
853.187235
 30
0.0
 10
369.957532
 20
854.145915
 30
0.0
 10
368.470132
 20
854.637068
 30
0.0
  0
SPLINE
  5
146
100
AcDbEntity
  8
0
 62
5
100
AcDbSpline
 70
8
 71
3
 72
8
 73
4
 74
0
 40
0
 40
0
 40
0
 40
0
 40
1
 40
1
 40
1
 40
1
 10
368.470133
 20
854.637068
 30
0.0
 10
367.063658
 20
855.101505
 30
0.0
 10
366.135030
 20
855.239535
 30
0.0
 10
364.416720
 20
855.239535
 30
0.0
  0
SPLINE
  5
147
100
AcDbEntity
  8
0
 62
5
100
AcDbSpline
 70
8
 71
3
 72
8
 73
4
 74
0
 40
0
 40
0
 40
0
 40
0
 40
1
 40
1
 40
1
 40
1
 10
364.416720
 20
855.239535
 30
0.0
 10
363.086453
 20
855.239535
 30
0.0
 10
362.670682
 20
855.207210
 30
0.0
 10
361.915665
 20
855.045098
 30
0.0
  0
SPLINE
  5
148
100
AcDbEntity
  8
0
 62
5
100
AcDbSpline
 70
8
 71
3
 72
8
 73
4
 74
0
 40
0
 40
0
 40
0
 40
0
 40
1
 40
1
 40
1
 40
1
 10
361.915665
 20
855.045098
 30
0.0
 10
359.608155
 20
854.549640
 30
0.0
 10
357.739320
 20
853.624733
 30
0.0
 10
355.999500
 20
852.117113
 30
0.0
  0
LWPOLYLINE
  5
149
100
AcDbEntity
  8
0
 62
5
100
AcDbPolyline
 90
3
 70
0
 10
354.548317
 20
852.268088
 30
0.0
 10
353.795602
 20
853.024283
 30
0.0
 10
354.341220
 20
853.519343
 30
0.0
  0
LWPOLYLINE
  5
14a
100
AcDbEntity
  8
0
 62
5
100
AcDbPolyline
 90
5
 70
0
 10
374.718158
 20
853.316265
 30
0.0
 10
374.886053
 20
853.128998
 30
0.0
 10
374.140312
 20
852.383258
 30
0.0
 10
373.394572
 20
851.637518
 30
0.0
 10
372.887002
 20
852.078960
 30
0.0
  0
SPLINE
  5
14b
100
AcDbEntity
  8
0
 62
5
100
AcDbSpline
 70
8
 71
3
 72
8
 73
4
 74
0
 40
0
 40
0
 40
0
 40
0
 40
1
 40
1
 40
1
 40
1
 10
350.233432
 20
857.111633
 30
0.0
 10
350.373690
 20
857.260043
 30
0.0
 10
350.857163
 20
857.691473
 30
0.0
 10
351.307770
 20
858.070343
 30
0.0
  0
SPLINE
  5
14c
100
AcDbEntity
  8
0
 62
5
100
AcDbSpline
 70
8
 71
3
 72
8
 73
4
 74
0
 40
0
 40
0
 40
0
 40
0
 40
1
 40
1
 40
1
 40
1
 10
351.307770
 20
858.070343
 30
0.0
 10
354.941393
 20
861.125475
 30
0.0
 10
359.742308
 20
862.881833
 30
0.0
 10
364.459830
 20
862.881833
 30
0.0
  0
SPLINE
  5
14d
100
AcDbEntity
  8
0
 62
5
100
AcDbSpline
 70
8
 71
3
 72
8
 73
4
 74
0
 40
0
 40
0
 40
0
 40
0
 40
1
 40
1
 40
1
 40
1
 10
364.459830
 20
862.881833
 30
0.0
 10
369.176168
 20
862.881833
 30
0.0
 10
373.966627
 20
861.129893
 30
0.0
 10
377.611890
 20
858.071918
 30
0.0
  0
SPLINE
  5
14e
100
AcDbEntity
  8
0
 62
5
100
AcDbSpline
 70
8
 71
3
 72
8
 73
4
 74
0
 40
0
 40
0
 40
0
 40
0
 40
1
 40
1
 40
1
 40
1
 10
377.611890
 20
858.071918
 30
0.0
 10
378.062520
 20
857.693888
 30
0.0
 10
378.506490
 20
857.300618
 30
0.0
 10
378.598493
 20
857.197958
 30
0.0
  0
LWPOLYLINE
  5
14f
100
AcDbEntity
  8
0
 62
5
100
AcDbPolyline
 90
3
 70
0
 10
355.999500
 20
852.117113
 30
0.0
 10
355.301033
 20
851.511855
 30
0.0
 10
354.548317
 20
852.268088
 30
0.0
  0
SPLINE
  5
150
100
AcDbEntity
  8
0
 62
5
100
AcDbSpline
 70
8
 71
3
 72
8
 73
4
 74
0
 40
0
 40
0
 40
0
 40
0
 40
1
 40
1
 40
1
 40
1
 10
378.039832
 20
856.281540
 30
0.0
 10
377.640540
 20
855.880170
 30
0.0
 10
377.293583
 20
855.553148
 30
0.0
 10
377.268840
 20
855.554835
 30
0.0
  0
SPLINE
  5
151
100
AcDbEntity
  8
0
 62
5
100
AcDbSpline
 70
8
 71
3
 72
8
 73
4
 74
0
 40
0
 40
0
 40
0
 40
0
 40
1
 40
1
 40
1
 40
1
 10
377.268840
 20
855.554835
 30
0.0
 10
377.244090
 20
855.557835
 30
0.0
 10
376.822425
 20
855.904185
 30
0.0
 10
376.331835
 20
856.327455
 30
0.0
  0
SPLINE
  5
152
100
AcDbEntity
  8
0
 62
5
100
AcDbSpline
 70
8
 71
3
 72
8
 73
4
 74
0
 40
0
 40
0
 40
0
 40
0
 40
1
 40
1
 40
1
 40
1
 10
376.331835
 20
856.327455
 30
0.0
 10
372.088853
 20
859.988040
 30
0.0
 10
366.433882
 20
861.467033
 30
0.0
 10
360.880755
 20
860.368523
 30
0.0
  0
SPLINE
  5
153
100
AcDbEntity
  8
0
 62
5
100
AcDbSpline
 70
8
 71
3
 72
8
 73
4
 74
0
 40
0
 40
0
 40
0
 40
0
 40
1
 40
1
 40
1
 40
1
 10
360.880755
 20
860.368523
 30
0.0
 10
357.730298
 20
859.745295
 30
0.0
 10
354.980332
 20
858.392723
 30
0.0
 10
352.467270
 20
856.230308
 30
0.0
  0
SPLINE
  5
154
100
AcDbEntity
  8
0
 62
5
100
AcDbSpline
 70
8
 71
3
 72
8
 73
4
 74
0
 40
0
 40
0
 40
0
 40
0
 40
1
 40
1
 40
1
 40
1
 10
352.467270
 20
856.230308
 30
0.0
 10
351.923317
 20
855.762240
 30
0.0
 10
351.468127
 20
855.379290
 30
0.0
 10
351.455782
 20
855.379290
 30
0.0
  0
SPLINE
  5
155
100
AcDbEntity
  8
0
 62
5
100
AcDbSpline
 70
8
 71
3
 72
8
 73
4
 74
0
 40
0
 40
0
 40
0
 40
0
 40
1
 40
1
 40
1
 40
1
 10
351.455782
 20
855.379290
 30
0.0
 10
351.443407
 20
855.379290
 30
0.0
 10
351.105960
 20
855.708360
 30
0.0
 10
350.705857
 20
856.110548
 30
0.0
  0
LWPOLYLINE
  5
156
100
AcDbEntity
  8
0
 62
5
100
AcDbPolyline
 90
3
 70
0
 10
350.705857
 20
856.110548
 30
0.0
 10
349.978395
 20
856.841805
 30
0.0
 10
350.233432
 20
857.111633
 30
0.0
  0
LWPOLYLINE
  5
157
100
AcDbEntity
  8
0
 62
5
100
AcDbPolyline
 90
3
 70
0
 10
378.598493
 20
857.197958
 30
0.0
 10
378.765803
 20
857.011275
 30
0.0
 10
378.039832
 20
856.281540
 30
0.0
  0
ENDSEC
  0
SECTION
  2
OBJECTS
  0
DICTIONARY
  5
C
330
0
100
AcDbDictionary
  3
ACAD_GROUP
350
D
  3
ACAD_MLINESTYLE
350
17
  0
DICTIONARY
  5
D
330
C
100
AcDbDictionary
  0
DICTIONARY
  5
1A
330
C
100
AcDbDictionary
  0
DICTIONARY
  5
17
330
C
100
AcDbDictionary
  3
STANDARD
350
18
  0
DICTIONARY
  5
19
330
C
100
AcDbDictionary
  0
ENDSEC
  0
EOF
