  0
SECTION
  2
HEADER
  9
$ACADVER
  1
AC1014
  9
$HANDSEED
  5
FFFF
  9
$MEASUREMENT
 70
     1
  0
ENDSEC
  0
SECTION
  2
TABLES
  0
TABLE
  2
VPORT
  5
8
330
0
100
AcDbSymbolTable
 70
     4
  0
VPORT
  5
2E
330
8
100
AcDbSymbolTableRecord
100
AcDbViewportTableRecord
  2
*ACTIVE
 70
     0
 10
0.0
 20
0.0
 11
1.0
 21
1.0
 12
210.0
 22
148.5
 13
0.0
 23
0.0
 14
10.0
 24
10.0
 15
10.0
 25
10.0
 16
0.0
 26
0.0
 36
1.0
 17
0.0
 27
0.0
 37
0.0
 40
341.0
 41
1.24
 42
50.0
 43
0.0
 44
0.0
 50
0.0
 51
0.0
 71
     0
 72
   100
 73
     1
 74
     3
 75
     0
 76
     0
 77
     0
 78
     0
  0
ENDTAB
  0
TABLE
  2
LTYPE
  5
5
330
0
100
AcDbSymbolTable
 70
     1
  0
LTYPE
  5
14
330
5
100
AcDbSymbolTableRecord
100
AcDbLinetypeTableRecord
  2
BYBLOCK
 70
     0
  3

 72
    65
 73
     0
 40
0.0
  0
LTYPE
  5
15
330
5
100
AcDbSymbolTableRecord
100
AcDbLinetypeTableRecord
  2
BYLAYER
 70
     0
  3

 72
    65
 73
     0
 40
0.0
  0
LTYPE
  5
16
330
5
100
AcDbSymbolTableRecord
100
AcDbLinetypeTableRecord
  2
CONTINUOUS
 70
     0
  3
Solid line
 72
    65
 73
     0
 40
0.0
  0
ENDTAB
  0
TABLE
  2
LAYER
  5
2
100
AcDbSymbolTable
 70
1
  0
LAYER
  5
50
100
AcDbSymbolTableRecord
100
AcDbLayerTableRecord
  2
0
 70
0
  6
CONTINUOUS
  0
ENDTAB
  0
TABLE
  2
STYLE
  5
3
330
0
100
AcDbSymbolTable
 70
     1
  0
STYLE
  5
11
330
3
100
AcDbSymbolTableRecord
100
AcDbTextStyleTableRecord
  2
STANDARD
 70
     0
 40
0.0
 41
1.0
 50
0.0
 71
     0
 42
2.5
  3
txt
  4

  0
ENDTAB
  0
TABLE
  2
VIEW
  5
6
330
0
100
AcDbSymbolTable
 70
     0
  0
ENDTAB
  0
TABLE
  2
UCS
  5
7
330
0
100
AcDbSymbolTable
 70
     0
  0
ENDTAB
  0
TABLE
  2
APPID
  5
9
330
0
100
AcDbSymbolTable
 70
     2
  0
APPID
  5
12
330
9
100
AcDbSymbolTableRecord
100
AcDbRegAppTableRecord
  2
ACAD
 70
     0
  0
ENDTAB
  0
TABLE
  2
DIMSTYLE
  5
A
330
0
100
AcDbSymbolTable
 70
     1
  0
DIMSTYLE
105
27
330
A
100
AcDbSymbolTableRecord
100
AcDbDimStyleTableRecord
  2
ISO-25
 70
     0
  3

  4

  5

  6

  7

 40
1.0
 41
2.5
 42
0.625
 43
3.75
 44
1.25
 45
0.0
 46
0.0
 47
0.0
 48
0.0
140
2.5
141
2.5
142
0.0
143
0.03937007874016
144
1.0
145
0.0
146
1.0
147
0.625
 71
     0
 72
     0
 73
     0
 74
     0
 75
     0
 76
     0
 77
     1
 78
     8
170
     0
171
     3
172
     1
173
     0
174
     0
175
     0
176
     0
177
     0
178
     0
270
     2
271
     2
272
     2
273
     2
274
     3
340
11
275
     0
280
     0
281
     0
282
     0
283
     0
284
     8
285
     0
286
     0
287
     3
288
     0
  0
ENDTAB
  0
TABLE
  2
BLOCK_RECORD
  5
1
330
0
100
AcDbSymbolTable
 70
     1
  0
BLOCK_RECORD
  5
1F
330
1
100
AcDbSymbolTableRecord
100
AcDbBlockTableRecord
  2
*MODEL_SPACE
  0
BLOCK_RECORD
  5
1B
330
1
100
AcDbSymbolTableRecord
100
AcDbBlockTableRecord
  2
*PAPER_SPACE
  0
ENDTAB
  0
ENDSEC
  0
SECTION
  2
BLOCKS
  0
BLOCK
  5
20
330
1F
100
AcDbEntity
  8
0
100
AcDbBlockBegin
  2
*MODEL_SPACE
 70
     0
 10
0.0
 20
0.0
 30
0.0
  3
*MODEL_SPACE
  1

  0
ENDBLK
  5
21
330
1F
100
AcDbEntity
  8
0
100
AcDbBlockEnd
  0
BLOCK
  5
1C
330
1B
100
AcDbEntity
 67
     1
  8
0
100
AcDbBlockBegin
  2
*PAPER_SPACE
  1

  0
ENDBLK
  5
1D
330
1B
100
AcDbEntity
 67
     1
  8
0
100
AcDbBlockEnd
  0
ENDSEC
  0
SECTION
  2
ENTITIES
  0
SPLINE
  5
100
100
AcDbEntity
  8
0
 62
1
100
AcDbSpline
 70
8
 71
3
 72
8
 73
4
 74
0
 40
0
 40
0
 40
0
 40
0
 40
1
 40
1
 40
1
 40
1
 10
540.579330
 20
757.820254
 30
0.0
 10
540.579330
 20
760.402693
 30
0.0
 10
539.201615
 20
762.788966
 30
0.0
 10
536.965157
 20
764.080185
 30
0.0
  0
SPLINE
  5
101
100
AcDbEntity
  8
0
 62
1
100
AcDbSpline
 70
8
 71
3
 72
8
 73
4
 74
0
 40
0
 40
0
 40
0
 40
0
 40
1
 40
1
 40
1
 40
1
 10
536.965157
 20
764.080185
 30
0.0
 10
534.728699
 20
765.371405
 30
0.0
 10
531.973269
 20
765.371405
 30
0.0
 10
529.736811
 20
764.080185
 30
0.0
  0
SPLINE
  5
102
100
AcDbEntity
  8
0
 62
1
100
AcDbSpline
 70
8
 71
3
 72
8
 73
4
 74
0
 40
0
 40
0
 40
0
 40
0
 40
1
 40
1
 40
1
 40
1
 10
529.736811
 20
764.080185
 30
0.0
 10
527.500353
 20
762.788966
 30
0.0
 10
526.122637
 20
760.402693
 30
0.0
 10
526.122637
 20
757.820254
 30
0.0
  0
SPLINE
  5
103
100
AcDbEntity
  8
0
 62
1
100
AcDbSpline
 70
8
 71
3
 72
8
 73
4
 74
0
 40
0
 40
0
 40
0
 40
0
 40
1
 40
1
 40
1
 40
1
 10
526.122637
 20
757.820254
 30
0.0
 10
526.122637
 20
755.237814
 30
0.0
 10
527.500353
 20
752.851542
 30
0.0
 10
529.736811
 20
751.560322
 30
0.0
  0
SPLINE
  5
104
100
AcDbEntity
  8
0
 62
1
100
AcDbSpline
 70
8
 71
3
 72
8
 73
4
 74
0
 40
0
 40
0
 40
0
 40
0
 40
1
 40
1
 40
1
 40
1
 10
529.736811
 20
751.560322
 30
0.0
 10
531.973269
 20
750.269103
 30
0.0
 10
534.728699
 20
750.269103
 30
0.0
 10
536.965157
 20
751.560322
 30
0.0
  0
SPLINE
  5
105
100
AcDbEntity
  8
0
 62
1
100
AcDbSpline
 70
8
 71
3
 72
8
 73
4
 74
0
 40
0
 40
0
 40
0
 40
0
 40
1
 40
1
 40
1
 40
1
 10
536.965157
 20
751.560322
 30
0.0
 10
539.201615
 20
752.851542
 30
0.0
 10
540.579330
 20
755.237814
 30
0.0
 10
540.579330
 20
757.820254
 30
0.0
  0
SPLINE
  5
106
100
AcDbEntity
  8
0
 62
1
100
AcDbSpline
 70
8
 71
3
 72
8
 73
4
 74
0
 40
0
 40
0
 40
0
 40
0
 40
1
 40
1
 40
1
 40
1
 10
215.728935
 20
616.087976
 30
0.0
 10
215.729767
 20
618.670970
 30
0.0
 10
214.352234
 20
621.058111
 30
0.0
 10
212.115434
 20
622.349848
 30
0.0
  0
SPLINE
  5
107
100
AcDbEntity
  8
0
 62
1
100
AcDbSpline
 70
8
 71
3
 72
8
 73
4
 74
0
 40
0
 40
0
 40
0
 40
0
 40
1
 40
1
 40
1
 40
1
 10
212.115434
 20
622.349848
 30
0.0
 10
209.878634
 20
623.641586
 30
0.0
 10
207.122543
 20
623.641586
 30
0.0
 10
204.885743
 20
622.349848
 30
0.0
  0
SPLINE
  5
108
100
AcDbEntity
  8
0
 62
1
100
AcDbSpline
 70
8
 71
3
 72
8
 73
4
 74
0
 40
0
 40
0
 40
0
 40
0
 40
1
 40
1
 40
1
 40
1
 10
204.885743
 20
622.349848
 30
0.0
 10
202.648944
 20
621.058111
 30
0.0
 10
201.271410
 20
618.670970
 30
0.0
 10
201.272242
 20
616.087976
 30
0.0
  0
SPLINE
  5
109
100
AcDbEntity
  8
0
 62
1
100
AcDbSpline
 70
8
 71
3
 72
8
 73
4
 74
0
 40
0
 40
0
 40
0
 40
0
 40
1
 40
1
 40
1
 40
1
 10
201.272242
 20
616.087976
 30
0.0
 10
201.271410
 20
613.504982
 30
0.0
 10
202.648944
 20
611.117841
 30
0.0
 10
204.885743
 20
609.826104
 30
0.0
  0
SPLINE
  5
10a
100
AcDbEntity
  8
0
 62
1
100
AcDbSpline
 70
8
 71
3
 72
8
 73
4
 74
0
 40
0
 40
0
 40
0
 40
0
 40
1
 40
1
 40
1
 40
1
 10
204.885743
 20
609.826104
 30
0.0
 10
207.122543
 20
608.534367
 30
0.0
 10
209.878634
 20
608.534367
 30
0.0
 10
212.115434
 20
609.826104
 30
0.0
  0
SPLINE
  5
10b
100
AcDbEntity
  8
0
 62
1
100
AcDbSpline
 70
8
 71
3
 72
8
 73
4
 74
0
 40
0
 40
0
 40
0
 40
0
 40
1
 40
1
 40
1
 40
1
 10
212.115434
 20
609.826104
 30
0.0
 10
214.352234
 20
611.117841
 30
0.0
 10
215.729767
 20
613.504982
 30
0.0
 10
215.728935
 20
616.087976
 30
0.0
  0
LWPOLYLINE
  5
10c
100
AcDbEntity
  8
0
 62
1
100
AcDbPolyline
 90
1
 70
1
 10
540.579330
 20
757.820254
 30
0.0
  0
SPLINE
  5
10d
100
AcDbEntity
  8
0
 62
1
100
AcDbSpline
 70
8
 71
3
 72
8
 73
4
 74
0
 40
0
 40
0
 40
0
 40
0
 40
1
 40
1
 40
1
 40
1
 10
540.579330
 20
616.087976
 30
0.0
 10
540.579330
 20
618.670416
 30
0.0
 10
539.201615
 20
621.056688
 30
0.0
 10
536.965157
 20
622.347908
 30
0.0
  0
SPLINE
  5
10e
100
AcDbEntity
  8
0
 62
1
100
AcDbSpline
 70
8
 71
3
 72
8
 73
4
 74
0
 40
0
 40
0
 40
0
 40
0
 40
1
 40
1
 40
1
 40
1
 10
536.965157
 20
622.347908
 30
0.0
 10
534.728699
 20
623.639127
 30
0.0
 10
531.973269
 20
623.639127
 30
0.0
 10
529.736811
 20
622.347908
 30
0.0
  0
SPLINE
  5
10f
100
AcDbEntity
  8
0
 62
1
100
AcDbSpline
 70
8
 71
3
 72
8
 73
4
 74
0
 40
0
 40
0
 40
0
 40
0
 40
1
 40
1
 40
1
 40
1
 10
529.736811
 20
622.347908
 30
0.0
 10
527.500353
 20
621.056688
 30
0.0
 10
526.122637
 20
618.670416
 30
0.0
 10
526.122637
 20
616.087976
 30
0.0
  0
SPLINE
  5
110
100
AcDbEntity
  8
0
 62
1
100
AcDbSpline
 70
8
 71
3
 72
8
 73
4
 74
0
 40
0
 40
0
 40
0
 40
0
 40
1
 40
1
 40
1
 40
1
 10
526.122637
 20
616.087976
 30
0.0
 10
526.122637
 20
613.505537
 30
0.0
 10
527.500353
 20
611.119264
 30
0.0
 10
529.736811
 20
609.828045
 30
0.0
  0
SPLINE
  5
111
100
AcDbEntity
  8
0
 62
1
100
AcDbSpline
 70
8
 71
3
 72
8
 73
4
 74
0
 40
0
 40
0
 40
0
 40
0
 40
1
 40
1
 40
1
 40
1
 10
529.736811
 20
609.828045
 30
0.0
 10
531.973269
 20
608.536825
 30
0.0
 10
534.728699
 20
608.536825
 30
0.0
 10
536.965157
 20
609.828045
 30
0.0
  0
SPLINE
  5
112
100
AcDbEntity
  8
0
 62
1
100
AcDbSpline
 70
8
 71
3
 72
8
 73
4
 74
0
 40
0
 40
0
 40
0
 40
0
 40
1
 40
1
 40
1
 40
1
 10
536.965157
 20
609.828045
 30
0.0
 10
539.201615
 20
611.119264
 30
0.0
 10
540.579330
 20
613.505537
 30
0.0
 10
540.579330
 20
616.087976
 30
0.0
  0
LWPOLYLINE
  5
113
100
AcDbEntity
  8
0
 62
1
100
AcDbPolyline
 90
1
 70
1
 10
215.728935
 20
616.087976
 30
0.0
  0
SPLINE
  5
114
100
AcDbEntity
  8
0
 62
1
100
AcDbSpline
 70
8
 71
3
 72
8
 73
4
 74
0
 40
0
 40
0
 40
0
 40
0
 40
1
 40
1
 40
1
 40
1
 10
215.728935
 20
474.355691
 30
0.0
 10
215.729767
 20
476.938685
 30
0.0
 10
214.352234
 20
479.325826
 30
0.0
 10
212.115434
 20
480.617563
 30
0.0
  0
SPLINE
  5
115
100
AcDbEntity
  8
0
 62
1
100
AcDbSpline
 70
8
 71
3
 72
8
 73
4
 74
0
 40
0
 40
0
 40
0
 40
0
 40
1
 40
1
 40
1
 40
1
 10
212.115434
 20
480.617563
 30
0.0
 10
209.878634
 20
481.909301
 30
0.0
 10
207.122543
 20
481.909301
 30
0.0
 10
204.885743
 20
480.617563
 30
0.0
  0
SPLINE
  5
116
100
AcDbEntity
  8
0
 62
1
100
AcDbSpline
 70
8
 71
3
 72
8
 73
4
 74
0
 40
0
 40
0
 40
0
 40
0
 40
1
 40
1
 40
1
 40
1
 10
204.885743
 20
480.617563
 30
0.0
 10
202.648944
 20
479.325826
 30
0.0
 10
201.271410
 20
476.938685
 30
0.0
 10
201.272242
 20
474.355691
 30
0.0
  0
SPLINE
  5
117
100
AcDbEntity
  8
0
 62
1
100
AcDbSpline
 70
8
 71
3
 72
8
 73
4
 74
0
 40
0
 40
0
 40
0
 40
0
 40
1
 40
1
 40
1
 40
1
 10
201.272242
 20
474.355691
 30
0.0
 10
201.271410
 20
471.772697
 30
0.0
 10
202.648944
 20
469.385556
 30
0.0
 10
204.885743
 20
468.093819
 30
0.0
  0
SPLINE
  5
118
100
AcDbEntity
  8
0
 62
1
100
AcDbSpline
 70
8
 71
3
 72
8
 73
4
 74
0
 40
0
 40
0
 40
0
 40
0
 40
1
 40
1
 40
1
 40
1
 10
204.885743
 20
468.093819
 30
0.0
 10
207.122543
 20
466.802082
 30
0.0
 10
209.878634
 20
466.802082
 30
0.0
 10
212.115434
 20
468.093819
 30
0.0
  0
SPLINE
  5
119
100
AcDbEntity
  8
0
 62
1
100
AcDbSpline
 70
8
 71
3
 72
8
 73
4
 74
0
 40
0
 40
0
 40
0
 40
0
 40
1
 40
1
 40
1
 40
1
 10
212.115434
 20
468.093819
 30
0.0
 10
214.352234
 20
469.385556
 30
0.0
 10
215.729767
 20
471.772697
 30
0.0
 10
215.728935
 20
474.355691
 30
0.0
  0
LWPOLYLINE
  5
11a
100
AcDbEntity
  8
0
 62
1
100
AcDbPolyline
 90
1
 70
1
 10
540.579330
 20
616.087976
 30
0.0
  0
SPLINE
  5
11b
100
AcDbEntity
  8
0
 62
1
100
AcDbSpline
 70
8
 71
3
 72
8
 73
4
 74
0
 40
0
 40
0
 40
0
 40
0
 40
1
 40
1
 40
1
 40
1
 10
215.728935
 20
757.820254
 30
0.0
 10
215.729767
 20
760.403248
 30
0.0
 10
214.352234
 20
762.790389
 30
0.0
 10
212.115434
 20
764.082126
 30
0.0
  0
SPLINE
  5
11c
100
AcDbEntity
  8
0
 62
1
100
AcDbSpline
 70
8
 71
3
 72
8
 73
4
 74
0
 40
0
 40
0
 40
0
 40
0
 40
1
 40
1
 40
1
 40
1
 10
212.115434
 20
764.082126
 30
0.0
 10
209.878634
 20
765.373863
 30
0.0
 10
207.122543
 20
765.373863
 30
0.0
 10
204.885743
 20
764.082126
 30
0.0
  0
SPLINE
  5
11d
100
AcDbEntity
  8
0
 62
1
100
AcDbSpline
 70
8
 71
3
 72
8
 73
4
 74
0
 40
0
 40
0
 40
0
 40
0
 40
1
 40
1
 40
1
 40
1
 10
204.885743
 20
764.082126
 30
0.0
 10
202.648944
 20
762.790389
 30
0.0
 10
201.271410
 20
760.403248
 30
0.0
 10
201.272242
 20
757.820254
 30
0.0
  0
SPLINE
  5
11e
100
AcDbEntity
  8
0
 62
1
100
AcDbSpline
 70
8
 71
3
 72
8
 73
4
 74
0
 40
0
 40
0
 40
0
 40
0
 40
1
 40
1
 40
1
 40
1
 10
201.272242
 20
757.820254
 30
0.0
 10
201.271410
 20
755.237260
 30
0.0
 10
202.648944
 20
752.850119
 30
0.0
 10
204.885743
 20
751.558382
 30
0.0
  0
SPLINE
  5
11f
100
AcDbEntity
  8
0
 62
1
100
AcDbSpline
 70
8
 71
3
 72
8
 73
4
 74
0
 40
0
 40
0
 40
0
 40
0
 40
1
 40
1
 40
1
 40
1
 10
204.885743
 20
751.558382
 30
0.0
 10
207.122543
 20
750.266644
 30
0.0
 10
209.878634
 20
750.266644
 30
0.0
 10
212.115434
 20
751.558382
 30
0.0
  0
SPLINE
  5
120
100
AcDbEntity
  8
0
 62
1
100
AcDbSpline
 70
8
 71
3
 72
8
 73
4
 74
0
 40
0
 40
0
 40
0
 40
0
 40
1
 40
1
 40
1
 40
1
 10
212.115434
 20
751.558382
 30
0.0
 10
214.352234
 20
752.850119
 30
0.0
 10
215.729767
 20
755.237260
 30
0.0
 10
215.728935
 20
757.820254
 30
0.0
  0
LWPOLYLINE
  5
121
100
AcDbEntity
  8
0
 62
1
100
AcDbPolyline
 90
1
 70
1
 10
215.728935
 20
474.355691
 30
0.0
  0
LWPOLYLINE
  5
122
100
AcDbEntity
  8
0
 62
1
100
AcDbPolyline
 90
1
 70
1
 10
215.728935
 20
757.820254
 30
0.0
  0
LWPOLYLINE
  5
123
100
AcDbEntity
  8
0
 62
1
100
AcDbPolyline
 90
2
 70
0
 10
225.225000
 20
804.733643
 30
0.0
 10
225.225000
 20
690.780889
 30
0.0
  0
LWPOLYLINE
  5
124
100
AcDbEntity
  8
0
 62
1
100
AcDbPolyline
 90
2
 70
0
 10
516.626572
 20
804.733643
 30
0.0
 10
225.225000
 20
804.733643
 30
0.0
  0
LWPOLYLINE
  5
125
100
AcDbEntity
  8
0
 62
1
100
AcDbPolyline
 90
2
 70
0
 10
516.626572
 20
690.780889
 30
0.0
 10
516.626572
 20
804.733643
 30
0.0
  0
LWPOLYLINE
  5
126
100
AcDbEntity
  8
0
 62
1
100
AcDbPolyline
 90
2
 70
0
 10
225.225000
 20
690.780889
 30
0.0
 10
516.626572
 20
690.780889
 30
0.0
  0
LWPOLYLINE
  5
127
100
AcDbEntity
  8
0
 62
1
100
AcDbPolyline
 90
2
 70
0
 10
225.225000
 20
663.001361
 30
0.0
 10
225.225000
 20
549.048604
 30
0.0
  0
LWPOLYLINE
  5
128
100
AcDbEntity
  8
0
 62
1
100
AcDbPolyline
 90
2
 70
0
 10
516.626572
 20
663.001361
 30
0.0
 10
225.225000
 20
663.001361
 30
0.0
  0
LWPOLYLINE
  5
129
100
AcDbEntity
  8
0
 62
1
100
AcDbPolyline
 90
2
 70
0
 10
516.626572
 20
549.048604
 30
0.0
 10
516.626572
 20
663.001361
 30
0.0
  0
LWPOLYLINE
  5
12a
100
AcDbEntity
  8
0
 62
1
100
AcDbPolyline
 90
2
 70
0
 10
225.225000
 20
549.048604
 30
0.0
 10
516.626572
 20
549.048604
 30
0.0
  0
LWPOLYLINE
  5
12b
100
AcDbEntity
  8
0
 62
1
100
AcDbPolyline
 90
2
 70
0
 10
225.225000
 20
521.269076
 30
0.0
 10
225.225000
 20
407.316319
 30
0.0
  0
LWPOLYLINE
  5
12c
100
AcDbEntity
  8
0
 62
1
100
AcDbPolyline
 90
2
 70
0
 10
516.626572
 20
521.269076
 30
0.0
 10
225.225000
 20
521.269076
 30
0.0
  0
LWPOLYLINE
  5
12d
100
AcDbEntity
  8
0
 62
1
100
AcDbPolyline
 90
2
 70
0
 10
516.626572
 20
407.316319
 30
0.0
 10
516.626572
 20
521.269076
 30
0.0
  0
SPLINE
  5
12e
100
AcDbEntity
  8
0
 62
1
100
AcDbSpline
 70
8
 71
3
 72
8
 73
4
 74
0
 40
0
 40
0
 40
0
 40
0
 40
1
 40
1
 40
1
 40
1
 10
540.579330
 20
332.623406
 30
0.0
 10
540.579330
 20
335.205846
 30
0.0
 10
539.201615
 20
337.592118
 30
0.0
 10
536.965157
 20
338.883338
 30
0.0
  0
SPLINE
  5
12f
100
AcDbEntity
  8
0
 62
1
100
AcDbSpline
 70
8
 71
3
 72
8
 73
4
 74
0
 40
0
 40
0
 40
0
 40
0
 40
1
 40
1
 40
1
 40
1
 10
536.965157
 20
338.883338
 30
0.0
 10
534.728699
 20
340.174557
 30
0.0
 10
531.973269
 20
340.174557
 30
0.0
 10
529.736811
 20
338.883338
 30
0.0
  0
SPLINE
  5
130
100
AcDbEntity
  8
0
 62
1
100
AcDbSpline
 70
8
 71
3
 72
8
 73
4
 74
0
 40
0
 40
0
 40
0
 40
0
 40
1
 40
1
 40
1
 40
1
 10
529.736811
 20
338.883338
 30
0.0
 10
527.500353
 20
337.592118
 30
0.0
 10
526.122637
 20
335.205846
 30
0.0
 10
526.122637
 20
332.623406
 30
0.0
  0
SPLINE
  5
131
100
AcDbEntity
  8
0
 62
1
100
AcDbSpline
 70
8
 71
3
 72
8
 73
4
 74
0
 40
0
 40
0
 40
0
 40
0
 40
1
 40
1
 40
1
 40
1
 10
526.122637
 20
332.623406
 30
0.0
 10
526.122637
 20
330.040967
 30
0.0
 10
527.500353
 20
327.654694
 30
0.0
 10
529.736811
 20
326.363475
 30
0.0
  0
SPLINE
  5
132
100
AcDbEntity
  8
0
 62
1
100
AcDbSpline
 70
8
 71
3
 72
8
 73
4
 74
0
 40
0
 40
0
 40
0
 40
0
 40
1
 40
1
 40
1
 40
1
 10
529.736811
 20
326.363475
 30
0.0
 10
531.973269
 20
325.072255
 30
0.0
 10
534.728699
 20
325.072255
 30
0.0
 10
536.965157
 20
326.363475
 30
0.0
  0
SPLINE
  5
133
100
AcDbEntity
  8
0
 62
1
100
AcDbSpline
 70
8
 71
3
 72
8
 73
4
 74
0
 40
0
 40
0
 40
0
 40
0
 40
1
 40
1
 40
1
 40
1
 10
536.965157
 20
326.363475
 30
0.0
 10
539.201615
 20
327.654694
 30
0.0
 10
540.579330
 20
330.040967
 30
0.0
 10
540.579330
 20
332.623406
 30
0.0
  0
LWPOLYLINE
  5
134
100
AcDbEntity
  8
0
 62
1
100
AcDbPolyline
 90
2
 70
0
 10
225.225000
 20
407.316319
 30
0.0
 10
516.626572
 20
407.316319
 30
0.0
  0
SPLINE
  5
135
100
AcDbEntity
  8
0
 62
1
100
AcDbSpline
 70
8
 71
3
 72
8
 73
4
 74
0
 40
0
 40
0
 40
0
 40
0
 40
1
 40
1
 40
1
 40
1
 10
215.728935
 20
332.623406
 30
0.0
 10
215.729767
 20
335.206400
 30
0.0
 10
214.352234
 20
337.593541
 30
0.0
 10
212.115434
 20
338.885278
 30
0.0
  0
SPLINE
  5
136
100
AcDbEntity
  8
0
 62
1
100
AcDbSpline
 70
8
 71
3
 72
8
 73
4
 74
0
 40
0
 40
0
 40
0
 40
0
 40
1
 40
1
 40
1
 40
1
 10
212.115434
 20
338.885278
 30
0.0
 10
209.878634
 20
340.177016
 30
0.0
 10
207.122543
 20
340.177016
 30
0.0
 10
204.885743
 20
338.885278
 30
0.0
  0
SPLINE
  5
137
100
AcDbEntity
  8
0
 62
1
100
AcDbSpline
 70
8
 71
3
 72
8
 73
4
 74
0
 40
0
 40
0
 40
0
 40
0
 40
1
 40
1
 40
1
 40
1
 10
204.885743
 20
338.885278
 30
0.0
 10
202.648944
 20
337.593541
 30
0.0
 10
201.271410
 20
335.206400
 30
0.0
 10
201.272242
 20
332.623406
 30
0.0
  0
SPLINE
  5
138
100
AcDbEntity
  8
0
 62
1
100
AcDbSpline
 70
8
 71
3
 72
8
 73
4
 74
0
 40
0
 40
0
 40
0
 40
0
 40
1
 40
1
 40
1
 40
1
 10
201.272242
 20
332.623406
 30
0.0
 10
201.271410
 20
330.040412
 30
0.0
 10
202.648944
 20
327.653271
 30
0.0
 10
204.885743
 20
326.361534
 30
0.0
  0
SPLINE
  5
139
100
AcDbEntity
  8
0
 62
1
100
AcDbSpline
 70
8
 71
3
 72
8
 73
4
 74
0
 40
0
 40
0
 40
0
 40
0
 40
1
 40
1
 40
1
 40
1
 10
204.885743
 20
326.361534
 30
0.0
 10
207.122543
 20
325.069797
 30
0.0
 10
209.878634
 20
325.069797
 30
0.0
 10
212.115434
 20
326.361534
 30
0.0
  0
SPLINE
  5
13a
100
AcDbEntity
  8
0
 62
1
100
AcDbSpline
 70
8
 71
3
 72
8
 73
4
 74
0
 40
0
 40
0
 40
0
 40
0
 40
1
 40
1
 40
1
 40
1
 10
212.115434
 20
326.361534
 30
0.0
 10
214.352234
 20
327.653271
 30
0.0
 10
215.729767
 20
330.040412
 30
0.0
 10
215.728935
 20
332.623406
 30
0.0
  0
LWPOLYLINE
  5
13b
100
AcDbEntity
  8
0
 62
1
100
AcDbPolyline
 90
1
 70
1
 10
540.579330
 20
332.623406
 30
0.0
  0
SPLINE
  5
13c
100
AcDbEntity
  8
0
 62
1
100
AcDbSpline
 70
8
 71
3
 72
8
 73
4
 74
0
 40
0
 40
0
 40
0
 40
0
 40
1
 40
1
 40
1
 40
1
 10
540.579330
 20
474.355691
 30
0.0
 10
540.579330
 20
476.938131
 30
0.0
 10
539.201615
 20
479.324403
 30
0.0
 10
536.965157
 20
480.615623
 30
0.0
  0
SPLINE
  5
13d
100
AcDbEntity
  8
0
 62
1
100
AcDbSpline
 70
8
 71
3
 72
8
 73
4
 74
0
 40
0
 40
0
 40
0
 40
0
 40
1
 40
1
 40
1
 40
1
 10
536.965157
 20
480.615623
 30
0.0
 10
534.728699
 20
481.906842
 30
0.0
 10
531.973269
 20
481.906842
 30
0.0
 10
529.736811
 20
480.615623
 30
0.0
  0
SPLINE
  5
13e
100
AcDbEntity
  8
0
 62
1
100
AcDbSpline
 70
8
 71
3
 72
8
 73
4
 74
0
 40
0
 40
0
 40
0
 40
0
 40
1
 40
1
 40
1
 40
1
 10
529.736811
 20
480.615623
 30
0.0
 10
527.500353
 20
479.324403
 30
0.0
 10
526.122637
 20
476.938131
 30
0.0
 10
526.122637
 20
474.355691
 30
0.0
  0
SPLINE
  5
13f
100
AcDbEntity
  8
0
 62
1
100
AcDbSpline
 70
8
 71
3
 72
8
 73
4
 74
0
 40
0
 40
0
 40
0
 40
0
 40
1
 40
1
 40
1
 40
1
 10
526.122637
 20
474.355691
 30
0.0
 10
526.122637
 20
471.773252
 30
0.0
 10
527.500353
 20
469.386979
 30
0.0
 10
529.736811
 20
468.095760
 30
0.0
  0
SPLINE
  5
140
100
AcDbEntity
  8
0
 62
1
100
AcDbSpline
 70
8
 71
3
 72
8
 73
4
 74
0
 40
0
 40
0
 40
0
 40
0
 40
1
 40
1
 40
1
 40
1
 10
529.736811
 20
468.095760
 30
0.0
 10
531.973269
 20
466.804540
 30
0.0
 10
534.728699
 20
466.804540
 30
0.0
 10
536.965157
 20
468.095760
 30
0.0
  0
SPLINE
  5
141
100
AcDbEntity
  8
0
 62
1
100
AcDbSpline
 70
8
 71
3
 72
8
 73
4
 74
0
 40
0
 40
0
 40
0
 40
0
 40
1
 40
1
 40
1
 40
1
 10
536.965157
 20
468.095760
 30
0.0
 10
539.201615
 20
469.386979
 30
0.0
 10
540.579330
 20
471.773252
 30
0.0
 10
540.579330
 20
474.355691
 30
0.0
  0
LWPOLYLINE
  5
142
100
AcDbEntity
  8
0
 62
1
100
AcDbPolyline
 90
1
 70
1
 10
215.728935
 20
332.623406
 30
0.0
  0
LWPOLYLINE
  5
143
100
AcDbEntity
  8
0
 62
1
100
AcDbPolyline
 90
1
 70
1
 10
540.579330
 20
474.355691
 30
0.0
  0
LWPOLYLINE
  5
144
100
AcDbEntity
  8
0
 62
1
100
AcDbPolyline
 90
2
 70
0
 10
225.225000
 20
379.536791
 30
0.0
 10
225.225000
 20
265.584034
 30
0.0
  0
LWPOLYLINE
  5
145
100
AcDbEntity
  8
0
 62
1
100
AcDbPolyline
 90
2
 70
0
 10
516.626572
 20
379.536791
 30
0.0
 10
225.225000
 20
379.536791
 30
0.0
  0
LWPOLYLINE
  5
146
100
AcDbEntity
  8
0
 62
1
100
AcDbPolyline
 90
2
 70
0
 10
516.626572
 20
265.584034
 30
0.0
 10
516.626572
 20
379.536791
 30
0.0
  0
LWPOLYLINE
  5
147
100
AcDbEntity
  8
0
 62
1
100
AcDbPolyline
 90
2
 70
0
 10
225.225000
 20
265.584034
 30
0.0
 10
516.626572
 20
265.584034
 30
0.0
  0
LWPOLYLINE
  5
148
100
AcDbEntity
  8
0
 62
1
100
AcDbPolyline
 90
4
 70
1
 10
40.689566
 20
877.187186
 30
0.0
 10
40.689566
 20
26.793514
 30
0.0
 10
701.162010
 20
26.793514
 30
0.0
 10
701.162010
 20
877.187186
 30
0.0
  0
ENDSEC
  0
SECTION
  2
OBJECTS
  0
DICTIONARY
  5
C
330
0
100
AcDbDictionary
  3
ACAD_GROUP
350
D
  3
ACAD_MLINESTYLE
350
17
  0
DICTIONARY
  5
D
330
C
100
AcDbDictionary
  0
DICTIONARY
  5
1A
330
C
100
AcDbDictionary
  0
DICTIONARY
  5
17
330
C
100
AcDbDictionary
  3
STANDARD
350
18
  0
DICTIONARY
  5
19
330
C
100
AcDbDictionary
  0
ENDSEC
  0
EOF
