  0
SECTION
  2
HEADER
  9
$ACADVER
  1
AC1014
  9
$HANDSEED
  5
FFFF
  9
$MEASUREMENT
 70
     1
  0
ENDSEC
  0
SECTION
  2
TABLES
  0
TABLE
  2
VPORT
  5
8
330
0
100
AcDbSymbolTable
 70
     4
  0
VPORT
  5
2E
330
8
100
AcDbSymbolTableRecord
100
AcDbViewportTableRecord
  2
*ACTIVE
 70
     0
 10
0.0
 20
0.0
 11
1.0
 21
1.0
 12
210.0
 22
148.5
 13
0.0
 23
0.0
 14
10.0
 24
10.0
 15
10.0
 25
10.0
 16
0.0
 26
0.0
 36
1.0
 17
0.0
 27
0.0
 37
0.0
 40
341.0
 41
1.24
 42
50.0
 43
0.0
 44
0.0
 50
0.0
 51
0.0
 71
     0
 72
   100
 73
     1
 74
     3
 75
     0
 76
     0
 77
     0
 78
     0
  0
ENDTAB
  0
TABLE
  2
LTYPE
  5
5
330
0
100
AcDbSymbolTable
 70
     1
  0
LTYPE
  5
14
330
5
100
AcDbSymbolTableRecord
100
AcDbLinetypeTableRecord
  2
BYBLOCK
 70
     0
  3

 72
    65
 73
     0
 40
0.0
  0
LTYPE
  5
15
330
5
100
AcDbSymbolTableRecord
100
AcDbLinetypeTableRecord
  2
BYLAYER
 70
     0
  3

 72
    65
 73
     0
 40
0.0
  0
LTYPE
  5
16
330
5
100
AcDbSymbolTableRecord
100
AcDbLinetypeTableRecord
  2
CONTINUOUS
 70
     0
  3
Solid line
 72
    65
 73
     0
 40
0.0
  0
ENDTAB
  0
TABLE
  2
LAYER
  5
2
100
AcDbSymbolTable
 70
1
  0
LAYER
  5
50
100
AcDbSymbolTableRecord
100
AcDbLayerTableRecord
  2
0
 70
0
  6
CONTINUOUS
  0
ENDTAB
  0
TABLE
  2
STYLE
  5
3
330
0
100
AcDbSymbolTable
 70
     1
  0
STYLE
  5
11
330
3
100
AcDbSymbolTableRecord
100
AcDbTextStyleTableRecord
  2
STANDARD
 70
     0
 40
0.0
 41
1.0
 50
0.0
 71
     0
 42
2.5
  3
txt
  4

  0
ENDTAB
  0
TABLE
  2
VIEW
  5
6
330
0
100
AcDbSymbolTable
 70
     0
  0
ENDTAB
  0
TABLE
  2
UCS
  5
7
330
0
100
AcDbSymbolTable
 70
     0
  0
ENDTAB
  0
TABLE
  2
APPID
  5
9
330
0
100
AcDbSymbolTable
 70
     2
  0
APPID
  5
12
330
9
100
AcDbSymbolTableRecord
100
AcDbRegAppTableRecord
  2
ACAD
 70
     0
  0
ENDTAB
  0
TABLE
  2
DIMSTYLE
  5
A
330
0
100
AcDbSymbolTable
 70
     1
  0
DIMSTYLE
105
27
330
A
100
AcDbSymbolTableRecord
100
AcDbDimStyleTableRecord
  2
ISO-25
 70
     0
  3

  4

  5

  6

  7

 40
1.0
 41
2.5
 42
0.625
 43
3.75
 44
1.25
 45
0.0
 46
0.0
 47
0.0
 48
0.0
140
2.5
141
2.5
142
0.0
143
0.03937007874016
144
1.0
145
0.0
146
1.0
147
0.625
 71
     0
 72
     0
 73
     0
 74
     0
 75
     0
 76
     0
 77
     1
 78
     8
170
     0
171
     3
172
     1
173
     0
174
     0
175
     0
176
     0
177
     0
178
     0
270
     2
271
     2
272
     2
273
     2
274
     3
340
11
275
     0
280
     0
281
     0
282
     0
283
     0
284
     8
285
     0
286
     0
287
     3
288
     0
  0
ENDTAB
  0
TABLE
  2
BLOCK_RECORD
  5
1
330
0
100
AcDbSymbolTable
 70
     1
  0
BLOCK_RECORD
  5
1F
330
1
100
AcDbSymbolTableRecord
100
AcDbBlockTableRecord
  2
*MODEL_SPACE
  0
BLOCK_RECORD
  5
1B
330
1
100
AcDbSymbolTableRecord
100
AcDbBlockTableRecord
  2
*PAPER_SPACE
  0
ENDTAB
  0
ENDSEC
  0
SECTION
  2
BLOCKS
  0
BLOCK
  5
20
330
1F
100
AcDbEntity
  8
0
100
AcDbBlockBegin
  2
*MODEL_SPACE
 70
     0
 10
0.0
 20
0.0
 30
0.0
  3
*MODEL_SPACE
  1

  0
ENDBLK
  5
21
330
1F
100
AcDbEntity
  8
0
100
AcDbBlockEnd
  0
BLOCK
  5
1C
330
1B
100
AcDbEntity
 67
     1
  8
0
100
AcDbBlockBegin
  2
*PAPER_SPACE
  1

  0
ENDBLK
  5
1D
330
1B
100
AcDbEntity
 67
     1
  8
0
100
AcDbBlockEnd
  0
ENDSEC
  0
SECTION
  2
ENTITIES
  0
SPLINE
  5
100
100
AcDbEntity
  8
0
 62
1
100
AcDbSpline
 70
8
 71
3
 72
8
 73
4
 74
0
 40
0
 40
0
 40
0
 40
0
 40
1
 40
1
 40
1
 40
1
 10
180.636579
 20
262.308249
 30
0.0
 10
180.636580
 20
263.219276
 30
0.0
 10
180.150552
 20
264.061100
 30
0.0
 10
179.361580
 20
264.516614
 30
0.0
  0
SPLINE
  5
101
100
AcDbEntity
  8
0
 62
1
100
AcDbSpline
 70
8
 71
3
 72
8
 73
4
 74
0
 40
0
 40
0
 40
0
 40
0
 40
1
 40
1
 40
1
 40
1
 10
179.361580
 20
264.516614
 30
0.0
 10
178.572607
 20
264.972127
 30
0.0
 10
177.600552
 20
264.972127
 30
0.0
 10
176.811579
 20
264.516614
 30
0.0
  0
SPLINE
  5
102
100
AcDbEntity
  8
0
 62
1
100
AcDbSpline
 70
8
 71
3
 72
8
 73
4
 74
0
 40
0
 40
0
 40
0
 40
0
 40
1
 40
1
 40
1
 40
1
 10
176.811579
 20
264.516614
 30
0.0
 10
176.022607
 20
264.061100
 30
0.0
 10
175.536579
 20
263.219276
 30
0.0
 10
175.536580
 20
262.308249
 30
0.0
  0
SPLINE
  5
103
100
AcDbEntity
  8
0
 62
1
100
AcDbSpline
 70
8
 71
3
 72
8
 73
4
 74
0
 40
0
 40
0
 40
0
 40
0
 40
1
 40
1
 40
1
 40
1
 10
175.536580
 20
262.308249
 30
0.0
 10
175.536580
 20
261.397222
 30
0.0
 10
176.022607
 20
260.555398
 30
0.0
 10
176.811580
 20
260.099884
 30
0.0
  0
SPLINE
  5
104
100
AcDbEntity
  8
0
 62
1
100
AcDbSpline
 70
8
 71
3
 72
8
 73
4
 74
0
 40
0
 40
0
 40
0
 40
0
 40
1
 40
1
 40
1
 40
1
 10
176.811580
 20
260.099884
 30
0.0
 10
177.600552
 20
259.644370
 30
0.0
 10
178.572607
 20
259.644370
 30
0.0
 10
179.361579
 20
260.099884
 30
0.0
  0
SPLINE
  5
105
100
AcDbEntity
  8
0
 62
1
100
AcDbSpline
 70
8
 71
3
 72
8
 73
4
 74
0
 40
0
 40
0
 40
0
 40
0
 40
1
 40
1
 40
1
 40
1
 10
179.361579
 20
260.099884
 30
0.0
 10
180.150552
 20
260.555398
 30
0.0
 10
180.636579
 20
261.397222
 30
0.0
 10
180.636579
 20
262.308249
 30
0.0
  0
SPLINE
  5
106
100
AcDbEntity
  8
0
 62
1
100
AcDbSpline
 70
8
 71
3
 72
8
 73
4
 74
0
 40
0
 40
0
 40
0
 40
0
 40
1
 40
1
 40
1
 40
1
 10
66.036579
 20
212.308248
 30
0.0
 10
66.036872
 20
213.219471
 30
0.0
 10
65.550909
 20
214.061601
 30
0.0
 10
64.761816
 20
214.517298
 30
0.0
  0
SPLINE
  5
107
100
AcDbEntity
  8
0
 62
1
100
AcDbSpline
 70
8
 71
3
 72
8
 73
4
 74
0
 40
0
 40
0
 40
0
 40
0
 40
1
 40
1
 40
1
 40
1
 10
64.761816
 20
214.517298
 30
0.0
 10
63.972723
 20
214.972994
 30
0.0
 10
63.000435
 20
214.972994
 30
0.0
 10
62.211342
 20
214.517298
 30
0.0
  0
SPLINE
  5
108
100
AcDbEntity
  8
0
 62
1
100
AcDbSpline
 70
8
 71
3
 72
8
 73
4
 74
0
 40
0
 40
0
 40
0
 40
0
 40
1
 40
1
 40
1
 40
1
 10
62.211342
 20
214.517298
 30
0.0
 10
61.422249
 20
214.061601
 30
0.0
 10
60.936286
 20
213.219471
 30
0.0
 10
60.936579
 20
212.308248
 30
0.0
  0
SPLINE
  5
109
100
AcDbEntity
  8
0
 62
1
100
AcDbSpline
 70
8
 71
3
 72
8
 73
4
 74
0
 40
0
 40
0
 40
0
 40
0
 40
1
 40
1
 40
1
 40
1
 10
60.936579
 20
212.308248
 30
0.0
 10
60.936286
 20
211.397025
 30
0.0
 10
61.422249
 20
210.554895
 30
0.0
 10
62.211342
 20
210.099199
 30
0.0
  0
SPLINE
  5
10a
100
AcDbEntity
  8
0
 62
1
100
AcDbSpline
 70
8
 71
3
 72
8
 73
4
 74
0
 40
0
 40
0
 40
0
 40
0
 40
1
 40
1
 40
1
 40
1
 10
62.211342
 20
210.099199
 30
0.0
 10
63.000435
 20
209.643503
 30
0.0
 10
63.972723
 20
209.643503
 30
0.0
 10
64.761816
 20
210.099199
 30
0.0
  0
SPLINE
  5
10b
100
AcDbEntity
  8
0
 62
1
100
AcDbSpline
 70
8
 71
3
 72
8
 73
4
 74
0
 40
0
 40
0
 40
0
 40
0
 40
1
 40
1
 40
1
 40
1
 10
64.761816
 20
210.099199
 30
0.0
 10
65.550909
 20
210.554895
 30
0.0
 10
66.036872
 20
211.397025
 30
0.0
 10
66.036579
 20
212.308248
 30
0.0
  0
LWPOLYLINE
  5
10c
100
AcDbEntity
  8
0
 62
1
100
AcDbPolyline
 90
1
 70
1
 10
180.636579
 20
262.308249
 30
0.0
  0
SPLINE
  5
10d
100
AcDbEntity
  8
0
 62
1
100
AcDbSpline
 70
8
 71
3
 72
8
 73
4
 74
0
 40
0
 40
0
 40
0
 40
0
 40
1
 40
1
 40
1
 40
1
 10
180.636579
 20
212.308248
 30
0.0
 10
180.636580
 20
213.219275
 30
0.0
 10
180.150552
 20
214.061099
 30
0.0
 10
179.361580
 20
214.516613
 30
0.0
  0
SPLINE
  5
10e
100
AcDbEntity
  8
0
 62
1
100
AcDbSpline
 70
8
 71
3
 72
8
 73
4
 74
0
 40
0
 40
0
 40
0
 40
0
 40
1
 40
1
 40
1
 40
1
 10
179.361580
 20
214.516613
 30
0.0
 10
178.572607
 20
214.972127
 30
0.0
 10
177.600552
 20
214.972127
 30
0.0
 10
176.811579
 20
214.516613
 30
0.0
  0
SPLINE
  5
10f
100
AcDbEntity
  8
0
 62
1
100
AcDbSpline
 70
8
 71
3
 72
8
 73
4
 74
0
 40
0
 40
0
 40
0
 40
0
 40
1
 40
1
 40
1
 40
1
 10
176.811579
 20
214.516613
 30
0.0
 10
176.022607
 20
214.061099
 30
0.0
 10
175.536579
 20
213.219275
 30
0.0
 10
175.536580
 20
212.308248
 30
0.0
  0
SPLINE
  5
110
100
AcDbEntity
  8
0
 62
1
100
AcDbSpline
 70
8
 71
3
 72
8
 73
4
 74
0
 40
0
 40
0
 40
0
 40
0
 40
1
 40
1
 40
1
 40
1
 10
175.536580
 20
212.308248
 30
0.0
 10
175.536580
 20
211.397221
 30
0.0
 10
176.022607
 20
210.555397
 30
0.0
 10
176.811580
 20
210.099883
 30
0.0
  0
SPLINE
  5
111
100
AcDbEntity
  8
0
 62
1
100
AcDbSpline
 70
8
 71
3
 72
8
 73
4
 74
0
 40
0
 40
0
 40
0
 40
0
 40
1
 40
1
 40
1
 40
1
 10
176.811580
 20
210.099883
 30
0.0
 10
177.600552
 20
209.644370
 30
0.0
 10
178.572607
 20
209.644370
 30
0.0
 10
179.361579
 20
210.099883
 30
0.0
  0
SPLINE
  5
112
100
AcDbEntity
  8
0
 62
1
100
AcDbSpline
 70
8
 71
3
 72
8
 73
4
 74
0
 40
0
 40
0
 40
0
 40
0
 40
1
 40
1
 40
1
 40
1
 10
179.361579
 20
210.099883
 30
0.0
 10
180.150552
 20
210.555397
 30
0.0
 10
180.636579
 20
211.397221
 30
0.0
 10
180.636579
 20
212.308248
 30
0.0
  0
LWPOLYLINE
  5
113
100
AcDbEntity
  8
0
 62
1
100
AcDbPolyline
 90
1
 70
1
 10
66.036579
 20
212.308248
 30
0.0
  0
SPLINE
  5
114
100
AcDbEntity
  8
0
 62
1
100
AcDbSpline
 70
8
 71
3
 72
8
 73
4
 74
0
 40
0
 40
0
 40
0
 40
0
 40
1
 40
1
 40
1
 40
1
 10
66.036579
 20
162.308248
 30
0.0
 10
66.036872
 20
163.219471
 30
0.0
 10
65.550909
 20
164.061601
 30
0.0
 10
64.761816
 20
164.517297
 30
0.0
  0
SPLINE
  5
115
100
AcDbEntity
  8
0
 62
1
100
AcDbSpline
 70
8
 71
3
 72
8
 73
4
 74
0
 40
0
 40
0
 40
0
 40
0
 40
1
 40
1
 40
1
 40
1
 10
64.761816
 20
164.517297
 30
0.0
 10
63.972723
 20
164.972993
 30
0.0
 10
63.000435
 20
164.972993
 30
0.0
 10
62.211342
 20
164.517297
 30
0.0
  0
SPLINE
  5
116
100
AcDbEntity
  8
0
 62
1
100
AcDbSpline
 70
8
 71
3
 72
8
 73
4
 74
0
 40
0
 40
0
 40
0
 40
0
 40
1
 40
1
 40
1
 40
1
 10
62.211342
 20
164.517297
 30
0.0
 10
61.422249
 20
164.061601
 30
0.0
 10
60.936286
 20
163.219471
 30
0.0
 10
60.936579
 20
162.308248
 30
0.0
  0
SPLINE
  5
117
100
AcDbEntity
  8
0
 62
1
100
AcDbSpline
 70
8
 71
3
 72
8
 73
4
 74
0
 40
0
 40
0
 40
0
 40
0
 40
1
 40
1
 40
1
 40
1
 10
60.936579
 20
162.308248
 30
0.0
 10
60.936286
 20
161.397025
 30
0.0
 10
61.422249
 20
160.554895
 30
0.0
 10
62.211342
 20
160.099198
 30
0.0
  0
SPLINE
  5
118
100
AcDbEntity
  8
0
 62
1
100
AcDbSpline
 70
8
 71
3
 72
8
 73
4
 74
0
 40
0
 40
0
 40
0
 40
0
 40
1
 40
1
 40
1
 40
1
 10
62.211342
 20
160.099198
 30
0.0
 10
63.000435
 20
159.643502
 30
0.0
 10
63.972723
 20
159.643502
 30
0.0
 10
64.761816
 20
160.099198
 30
0.0
  0
SPLINE
  5
119
100
AcDbEntity
  8
0
 62
1
100
AcDbSpline
 70
8
 71
3
 72
8
 73
4
 74
0
 40
0
 40
0
 40
0
 40
0
 40
1
 40
1
 40
1
 40
1
 10
64.761816
 20
160.099198
 30
0.0
 10
65.550909
 20
160.554895
 30
0.0
 10
66.036872
 20
161.397025
 30
0.0
 10
66.036579
 20
162.308248
 30
0.0
  0
LWPOLYLINE
  5
11a
100
AcDbEntity
  8
0
 62
1
100
AcDbPolyline
 90
1
 70
1
 10
180.636579
 20
212.308248
 30
0.0
  0
SPLINE
  5
11b
100
AcDbEntity
  8
0
 62
1
100
AcDbSpline
 70
8
 71
3
 72
8
 73
4
 74
0
 40
0
 40
0
 40
0
 40
0
 40
1
 40
1
 40
1
 40
1
 10
66.036579
 20
262.308249
 30
0.0
 10
66.036872
 20
263.219472
 30
0.0
 10
65.550909
 20
264.061602
 30
0.0
 10
64.761816
 20
264.517298
 30
0.0
  0
SPLINE
  5
11c
100
AcDbEntity
  8
0
 62
1
100
AcDbSpline
 70
8
 71
3
 72
8
 73
4
 74
0
 40
0
 40
0
 40
0
 40
0
 40
1
 40
1
 40
1
 40
1
 10
64.761816
 20
264.517298
 30
0.0
 10
63.972723
 20
264.972994
 30
0.0
 10
63.000435
 20
264.972994
 30
0.0
 10
62.211342
 20
264.517298
 30
0.0
  0
SPLINE
  5
11d
100
AcDbEntity
  8
0
 62
1
100
AcDbSpline
 70
8
 71
3
 72
8
 73
4
 74
0
 40
0
 40
0
 40
0
 40
0
 40
1
 40
1
 40
1
 40
1
 10
62.211342
 20
264.517298
 30
0.0
 10
61.422249
 20
264.061602
 30
0.0
 10
60.936286
 20
263.219472
 30
0.0
 10
60.936579
 20
262.308249
 30
0.0
  0
SPLINE
  5
11e
100
AcDbEntity
  8
0
 62
1
100
AcDbSpline
 70
8
 71
3
 72
8
 73
4
 74
0
 40
0
 40
0
 40
0
 40
0
 40
1
 40
1
 40
1
 40
1
 10
60.936579
 20
262.308249
 30
0.0
 10
60.936286
 20
261.397026
 30
0.0
 10
61.422249
 20
260.554896
 30
0.0
 10
62.211342
 20
260.099199
 30
0.0
  0
SPLINE
  5
11f
100
AcDbEntity
  8
0
 62
1
100
AcDbSpline
 70
8
 71
3
 72
8
 73
4
 74
0
 40
0
 40
0
 40
0
 40
0
 40
1
 40
1
 40
1
 40
1
 10
62.211342
 20
260.099199
 30
0.0
 10
63.000435
 20
259.643503
 30
0.0
 10
63.972723
 20
259.643503
 30
0.0
 10
64.761816
 20
260.099199
 30
0.0
  0
SPLINE
  5
120
100
AcDbEntity
  8
0
 62
1
100
AcDbSpline
 70
8
 71
3
 72
8
 73
4
 74
0
 40
0
 40
0
 40
0
 40
0
 40
1
 40
1
 40
1
 40
1
 10
64.761816
 20
260.099199
 30
0.0
 10
65.550909
 20
260.554896
 30
0.0
 10
66.036872
 20
261.397026
 30
0.0
 10
66.036579
 20
262.308249
 30
0.0
  0
LWPOLYLINE
  5
121
100
AcDbEntity
  8
0
 62
1
100
AcDbPolyline
 90
1
 70
1
 10
66.036579
 20
162.308248
 30
0.0
  0
LWPOLYLINE
  5
122
100
AcDbEntity
  8
0
 62
1
100
AcDbPolyline
 90
1
 70
1
 10
66.036579
 20
262.308249
 30
0.0
  0
LWPOLYLINE
  5
123
100
AcDbEntity
  8
0
 62
1
100
AcDbPolyline
 90
2
 70
0
 10
69.386577
 20
278.858248
 30
0.0
 10
69.386577
 20
238.658248
 30
0.0
  0
LWPOLYLINE
  5
124
100
AcDbEntity
  8
0
 62
1
100
AcDbPolyline
 90
2
 70
0
 10
172.186579
 20
278.858248
 30
0.0
 10
69.386577
 20
278.858248
 30
0.0
  0
LWPOLYLINE
  5
125
100
AcDbEntity
  8
0
 62
1
100
AcDbPolyline
 90
2
 70
0
 10
172.186579
 20
238.658248
 30
0.0
 10
172.186579
 20
278.858248
 30
0.0
  0
LWPOLYLINE
  5
126
100
AcDbEntity
  8
0
 62
1
100
AcDbPolyline
 90
2
 70
0
 10
69.386577
 20
238.658248
 30
0.0
 10
172.186579
 20
238.658248
 30
0.0
  0
LWPOLYLINE
  5
127
100
AcDbEntity
  8
0
 62
1
100
AcDbPolyline
 90
2
 70
0
 10
69.386577
 20
228.858248
 30
0.0
 10
69.386577
 20
188.658247
 30
0.0
  0
LWPOLYLINE
  5
128
100
AcDbEntity
  8
0
 62
1
100
AcDbPolyline
 90
2
 70
0
 10
172.186579
 20
228.858248
 30
0.0
 10
69.386577
 20
228.858248
 30
0.0
  0
LWPOLYLINE
  5
129
100
AcDbEntity
  8
0
 62
1
100
AcDbPolyline
 90
2
 70
0
 10
172.186579
 20
188.658247
 30
0.0
 10
172.186579
 20
228.858248
 30
0.0
  0
LWPOLYLINE
  5
12a
100
AcDbEntity
  8
0
 62
1
100
AcDbPolyline
 90
2
 70
0
 10
69.386577
 20
188.658247
 30
0.0
 10
172.186579
 20
188.658247
 30
0.0
  0
LWPOLYLINE
  5
12b
100
AcDbEntity
  8
0
 62
1
100
AcDbPolyline
 90
2
 70
0
 10
69.386577
 20
178.858247
 30
0.0
 10
69.386577
 20
138.658247
 30
0.0
  0
LWPOLYLINE
  5
12c
100
AcDbEntity
  8
0
 62
1
100
AcDbPolyline
 90
2
 70
0
 10
172.186579
 20
178.858247
 30
0.0
 10
69.386577
 20
178.858247
 30
0.0
  0
LWPOLYLINE
  5
12d
100
AcDbEntity
  8
0
 62
1
100
AcDbPolyline
 90
2
 70
0
 10
172.186579
 20
138.658247
 30
0.0
 10
172.186579
 20
178.858247
 30
0.0
  0
SPLINE
  5
12e
100
AcDbEntity
  8
0
 62
1
100
AcDbSpline
 70
8
 71
3
 72
8
 73
4
 74
0
 40
0
 40
0
 40
0
 40
0
 40
1
 40
1
 40
1
 40
1
 10
180.636579
 20
112.308247
 30
0.0
 10
180.636580
 20
113.219274
 30
0.0
 10
180.150552
 20
114.061098
 30
0.0
 10
179.361580
 20
114.516612
 30
0.0
  0
SPLINE
  5
12f
100
AcDbEntity
  8
0
 62
1
100
AcDbSpline
 70
8
 71
3
 72
8
 73
4
 74
0
 40
0
 40
0
 40
0
 40
0
 40
1
 40
1
 40
1
 40
1
 10
179.361580
 20
114.516612
 30
0.0
 10
178.572607
 20
114.972126
 30
0.0
 10
177.600552
 20
114.972126
 30
0.0
 10
176.811579
 20
114.516612
 30
0.0
  0
SPLINE
  5
130
100
AcDbEntity
  8
0
 62
1
100
AcDbSpline
 70
8
 71
3
 72
8
 73
4
 74
0
 40
0
 40
0
 40
0
 40
0
 40
1
 40
1
 40
1
 40
1
 10
176.811579
 20
114.516612
 30
0.0
 10
176.022607
 20
114.061098
 30
0.0
 10
175.536579
 20
113.219274
 30
0.0
 10
175.536580
 20
112.308247
 30
0.0
  0
SPLINE
  5
131
100
AcDbEntity
  8
0
 62
1
100
AcDbSpline
 70
8
 71
3
 72
8
 73
4
 74
0
 40
0
 40
0
 40
0
 40
0
 40
1
 40
1
 40
1
 40
1
 10
175.536580
 20
112.308247
 30
0.0
 10
175.536580
 20
111.397220
 30
0.0
 10
176.022607
 20
110.555396
 30
0.0
 10
176.811580
 20
110.099882
 30
0.0
  0
SPLINE
  5
132
100
AcDbEntity
  8
0
 62
1
100
AcDbSpline
 70
8
 71
3
 72
8
 73
4
 74
0
 40
0
 40
0
 40
0
 40
0
 40
1
 40
1
 40
1
 40
1
 10
176.811580
 20
110.099882
 30
0.0
 10
177.600552
 20
109.644369
 30
0.0
 10
178.572607
 20
109.644369
 30
0.0
 10
179.361579
 20
110.099882
 30
0.0
  0
SPLINE
  5
133
100
AcDbEntity
  8
0
 62
1
100
AcDbSpline
 70
8
 71
3
 72
8
 73
4
 74
0
 40
0
 40
0
 40
0
 40
0
 40
1
 40
1
 40
1
 40
1
 10
179.361579
 20
110.099882
 30
0.0
 10
180.150552
 20
110.555396
 30
0.0
 10
180.636579
 20
111.397220
 30
0.0
 10
180.636579
 20
112.308247
 30
0.0
  0
LWPOLYLINE
  5
134
100
AcDbEntity
  8
0
 62
1
100
AcDbPolyline
 90
2
 70
0
 10
69.386577
 20
138.658247
 30
0.0
 10
172.186579
 20
138.658247
 30
0.0
  0
SPLINE
  5
135
100
AcDbEntity
  8
0
 62
1
100
AcDbSpline
 70
8
 71
3
 72
8
 73
4
 74
0
 40
0
 40
0
 40
0
 40
0
 40
1
 40
1
 40
1
 40
1
 10
66.036579
 20
112.308247
 30
0.0
 10
66.036872
 20
113.219470
 30
0.0
 10
65.550909
 20
114.061600
 30
0.0
 10
64.761816
 20
114.517296
 30
0.0
  0
SPLINE
  5
136
100
AcDbEntity
  8
0
 62
1
100
AcDbSpline
 70
8
 71
3
 72
8
 73
4
 74
0
 40
0
 40
0
 40
0
 40
0
 40
1
 40
1
 40
1
 40
1
 10
64.761816
 20
114.517296
 30
0.0
 10
63.972723
 20
114.972993
 30
0.0
 10
63.000435
 20
114.972993
 30
0.0
 10
62.211342
 20
114.517296
 30
0.0
  0
SPLINE
  5
137
100
AcDbEntity
  8
0
 62
1
100
AcDbSpline
 70
8
 71
3
 72
8
 73
4
 74
0
 40
0
 40
0
 40
0
 40
0
 40
1
 40
1
 40
1
 40
1
 10
62.211342
 20
114.517296
 30
0.0
 10
61.422249
 20
114.061600
 30
0.0
 10
60.936286
 20
113.219470
 30
0.0
 10
60.936579
 20
112.308247
 30
0.0
  0
SPLINE
  5
138
100
AcDbEntity
  8
0
 62
1
100
AcDbSpline
 70
8
 71
3
 72
8
 73
4
 74
0
 40
0
 40
0
 40
0
 40
0
 40
1
 40
1
 40
1
 40
1
 10
60.936579
 20
112.308247
 30
0.0
 10
60.936286
 20
111.397024
 30
0.0
 10
61.422249
 20
110.554894
 30
0.0
 10
62.211342
 20
110.099198
 30
0.0
  0
SPLINE
  5
139
100
AcDbEntity
  8
0
 62
1
100
AcDbSpline
 70
8
 71
3
 72
8
 73
4
 74
0
 40
0
 40
0
 40
0
 40
0
 40
1
 40
1
 40
1
 40
1
 10
62.211342
 20
110.099198
 30
0.0
 10
63.000435
 20
109.643502
 30
0.0
 10
63.972723
 20
109.643502
 30
0.0
 10
64.761816
 20
110.099198
 30
0.0
  0
SPLINE
  5
13a
100
AcDbEntity
  8
0
 62
1
100
AcDbSpline
 70
8
 71
3
 72
8
 73
4
 74
0
 40
0
 40
0
 40
0
 40
0
 40
1
 40
1
 40
1
 40
1
 10
64.761816
 20
110.099198
 30
0.0
 10
65.550909
 20
110.554894
 30
0.0
 10
66.036872
 20
111.397024
 30
0.0
 10
66.036579
 20
112.308247
 30
0.0
  0
LWPOLYLINE
  5
13b
100
AcDbEntity
  8
0
 62
1
100
AcDbPolyline
 90
1
 70
1
 10
180.636579
 20
112.308247
 30
0.0
  0
SPLINE
  5
13c
100
AcDbEntity
  8
0
 62
1
100
AcDbSpline
 70
8
 71
3
 72
8
 73
4
 74
0
 40
0
 40
0
 40
0
 40
0
 40
1
 40
1
 40
1
 40
1
 10
180.636579
 20
162.308248
 30
0.0
 10
180.636580
 20
163.219275
 30
0.0
 10
180.150552
 20
164.061099
 30
0.0
 10
179.361580
 20
164.516613
 30
0.0
  0
SPLINE
  5
13d
100
AcDbEntity
  8
0
 62
1
100
AcDbSpline
 70
8
 71
3
 72
8
 73
4
 74
0
 40
0
 40
0
 40
0
 40
0
 40
1
 40
1
 40
1
 40
1
 10
179.361580
 20
164.516613
 30
0.0
 10
178.572607
 20
164.972126
 30
0.0
 10
177.600552
 20
164.972126
 30
0.0
 10
176.811579
 20
164.516613
 30
0.0
  0
SPLINE
  5
13e
100
AcDbEntity
  8
0
 62
1
100
AcDbSpline
 70
8
 71
3
 72
8
 73
4
 74
0
 40
0
 40
0
 40
0
 40
0
 40
1
 40
1
 40
1
 40
1
 10
176.811579
 20
164.516613
 30
0.0
 10
176.022607
 20
164.061099
 30
0.0
 10
175.536579
 20
163.219275
 30
0.0
 10
175.536580
 20
162.308248
 30
0.0
  0
SPLINE
  5
13f
100
AcDbEntity
  8
0
 62
1
100
AcDbSpline
 70
8
 71
3
 72
8
 73
4
 74
0
 40
0
 40
0
 40
0
 40
0
 40
1
 40
1
 40
1
 40
1
 10
175.536580
 20
162.308248
 30
0.0
 10
175.536580
 20
161.397220
 30
0.0
 10
176.022607
 20
160.555397
 30
0.0
 10
176.811580
 20
160.099883
 30
0.0
  0
SPLINE
  5
140
100
AcDbEntity
  8
0
 62
1
100
AcDbSpline
 70
8
 71
3
 72
8
 73
4
 74
0
 40
0
 40
0
 40
0
 40
0
 40
1
 40
1
 40
1
 40
1
 10
176.811580
 20
160.099883
 30
0.0
 10
177.600552
 20
159.644369
 30
0.0
 10
178.572607
 20
159.644369
 30
0.0
 10
179.361579
 20
160.099883
 30
0.0
  0
SPLINE
  5
141
100
AcDbEntity
  8
0
 62
1
100
AcDbSpline
 70
8
 71
3
 72
8
 73
4
 74
0
 40
0
 40
0
 40
0
 40
0
 40
1
 40
1
 40
1
 40
1
 10
179.361579
 20
160.099883
 30
0.0
 10
180.150552
 20
160.555397
 30
0.0
 10
180.636579
 20
161.397220
 30
0.0
 10
180.636579
 20
162.308248
 30
0.0
  0
LWPOLYLINE
  5
142
100
AcDbEntity
  8
0
 62
1
100
AcDbPolyline
 90
1
 70
1
 10
66.036579
 20
112.308247
 30
0.0
  0
LWPOLYLINE
  5
143
100
AcDbEntity
  8
0
 62
1
100
AcDbPolyline
 90
1
 70
1
 10
180.636579
 20
162.308248
 30
0.0
  0
LWPOLYLINE
  5
144
100
AcDbEntity
  8
0
 62
1
100
AcDbPolyline
 90
2
 70
0
 10
69.386577
 20
128.858247
 30
0.0
 10
69.386577
 20
88.658249
 30
0.0
  0
LWPOLYLINE
  5
145
100
AcDbEntity
  8
0
 62
1
100
AcDbPolyline
 90
2
 70
0
 10
172.186579
 20
128.858247
 30
0.0
 10
69.386577
 20
128.858247
 30
0.0
  0
LWPOLYLINE
  5
146
100
AcDbEntity
  8
0
 62
1
100
AcDbPolyline
 90
2
 70
0
 10
172.186579
 20
88.658249
 30
0.0
 10
172.186579
 20
128.858247
 30
0.0
  0
LWPOLYLINE
  5
147
100
AcDbEntity
  8
0
 62
1
100
AcDbPolyline
 90
2
 70
0
 10
69.386577
 20
88.658249
 30
0.0
 10
172.186579
 20
88.658249
 30
0.0
  0
LWPOLYLINE
  5
148
100
AcDbEntity
  8
0
 62
1
100
AcDbPolyline
 90
4
 70
1
 10
4.286578
 20
304.418248
 30
0.0
 10
4.286578
 20
4.418247
 30
0.0
 10
237.286578
 20
4.418247
 30
0.0
 10
237.286578
 20
304.418248
 30
0.0
  0
ENDSEC
  0
SECTION
  2
OBJECTS
  0
DICTIONARY
  5
C
330
0
100
AcDbDictionary
  3
ACAD_GROUP
350
D
  3
ACAD_MLINESTYLE
350
17
  0
DICTIONARY
  5
D
330
C
100
AcDbDictionary
  0
DICTIONARY
  5
1A
330
C
100
AcDbDictionary
  0
DICTIONARY
  5
17
330
C
100
AcDbDictionary
  3
STANDARD
350
18
  0
DICTIONARY
  5
19
330
C
100
AcDbDictionary
  0
ENDSEC
  0
EOF
