  0
SECTION
  2
HEADER
  9
$ACADVER
  1
AC1015
  9
$ACADMAINTVER
 70
     6
  9
$DWGCODEPAGE
  3
ANSI_1252
  9
$INSBASE
 10
0.0
 20
0.0
 30
0.0
  9
$EXTMIN
 10
0.0
 20
0.0
 30
0.0
  9
$EXTMAX
 10
812.8
 20
457.2
 30
0.0
  9
$LIMMIN
 10
0.0
 20
0.0
  9
$LIMMAX
 10
812.8
 20
457.2
  9
$ORTHOMODE
 70
     0
  9
$REGENMODE
 70
     1
  9
$FILLMODE
 70
     1
  9
$QTEXTMODE
 70
     0
  9
$MIRRTEXT
 70
     1
  9
$LTSCALE
 40
1.0
  9
$ATTMODE
 70
     1
  9
$TEXTSIZE
 40
3.175
  9
$TRACEWID
 40
1.0
  9
$TEXTSTYLE
  7
Standard
  9
$CLAYER
  8
0
  9
$CELTYPE
  6
ByLayer
  9
$CECOLOR
 62
   256
  9
$CELTSCALE
 40
1.0
  9
$DISPSILH
 70
     0
  9
$DIMSCALE
 40
1.0
  9
$DIMASZ
 40
3.302
  9
$DIMEXO
 40
1.27
  9
$DIMDLI
 40
3.75
  9
$DIMRND
 40
0.0
  9
$DIMDLE
 40
0.0
  9
$DIMEXE
 40
3.175
  9
$DIMTP
 40
0.0
  9
$DIMTM
 40
0.0
  9
$DIMTXT
 40
3.175
  9
$DIMCEN
 40
2.5
  9
$DIMTSZ
 40
0.0
  9
$DIMTOL
 70
     0
  9
$DIMLIM
 70
     0
  9
$DIMTIH
 70
     1
  9
$DIMTOH
 70
     1
  9
$DIMSE1
 70
     0
  9
$DIMSE2
 70
     0
  9
$DIMTAD
 70
     0
  9
$DIMZIN
 70
     1
  9
$DIMBLK
  1

  9
$DIMASO
 70
     1
  9
$DIMSHO
 70
     1
  9
$DIMPOST
  1

  9
$DIMAPOST
  1

  9
$DIMALT
 70
     0
  9
$DIMALTD
 70
     3
  9
$DIMALTF
 40
0.0393700787
  9
$DIMLFAC
 40
1.0
  9
$DIMTOFL
 70
     1
  9
$DIMTVP
 40
0.0
  9
$DIMTIX
 70
     0
  9
$DIMSOXD
 70
     0
  9
$DIMSAH
 70
     0
  9
$DIMBLK1
  1

  9
$DIMBLK2
  1

  9
$DIMSTYLE
  2
ISO-25
  9
$DIMCLRD
 70
     0
  9
$DIMCLRE
 70
     0
  9
$DIMCLRT
 70
     0
  9
$DIMTFAC
 40
1.0
  9
$DIMGAP
 40
1.524
  9
$DIMJUST
 70
     0
  9
$DIMSD1
 70
     0
  9
$DIMSD2
 70
     0
  9
$DIMTOLJ
 70
     0
  9
$DIMTZIN
 70
     1
  9
$DIMALTZ
 70
     0
  9
$DIMALTTZ
 70
     0
  9
$DIMUPT
 70
     0
  9
$DIMDEC
 70
     2
  9
$DIMTDEC
 70
     2
  9
$DIMALTU
 70
     2
  9
$DIMALTTD
 70
     3
  9
$DIMTXSTY
  7
Standard
  9
$DIMAUNIT
 70
     0
  9
$DIMADEC
 70
     2
  9
$DIMALTRND
 40
0.0
  9
$DIMAZIN
 70
     0
  9
$DIMDSEP
 70
    44
  9
$DIMATFIT
 70
     3
  9
$DIMFRAC
 70
     0
  9
$DIMLDRBLK
  1

  9
$DIMLUNIT
 70
     2
  9
$DIMLWD
 70
    -2
  9
$DIMLWE
 70
    -2
  9
$DIMTMOVE
 70
     0
  9
$LUNITS
 70
     2
  9
$LUPREC
 70
     2
  9
$SKETCHINC
 40
1.0
  9
$FILLETRAD
 40
10.0
  9
$AUNITS
 70
     0
  9
$AUPREC
 70
     2
  9
$MENU
  1
.
  9
$ELEVATION
 40
0.0
  9
$PELEVATION
 40
0.0
  9
$THICKNESS
 40
0.0
  9
$LIMCHECK
 70
     0
  9
$CHAMFERA
 40
0.0
  9
$CHAMFERB
 40
0.0
  9
$CHAMFERC
 40
0.0
  9
$CHAMFERD
 40
0.0
  9
$SKPOLY
 70
     0
  9
$TDCREATE
 40
2458777.715938484
  9
$TDUCREATE
 40
2458777.88260515
  9
$TDUPDATE
 40
2458777.715939826
  9
$TDUUPDATE
 40
2458777.882606493
  9
$TDINDWG
 40
0.0000000116
  9
$TDUSRTIMER
 40
0.0000000116
  9
$USRTIMER
 70
     1
  9
$ANGBASE
 50
0.0
  9
$ANGDIR
 70
     0
  9
$PDMODE
 70
     0
  9
$PDSIZE
 40
-1.0
  9
$PLINEWID
 40
0.0
  9
$SPLFRAME
 70
     0
  9
$SPLINETYPE
 70
     6
  9
$SPLINESEGS
 70
     8
  9
$HANDSEED
  5
1DF
  9
$SURFTAB1
 70
     6
  9
$SURFTAB2
 70
     6
  9
$SURFTYPE
 70
     6
  9
$SURFU
 70
     6
  9
$SURFV
 70
     6
  9
$UCSBASE
  2

  9
$UCSNAME
  2

  9
$UCSORG
 10
0.0
 20
0.0
 30
0.0
  9
$UCSXDIR
 10
1.0
 20
0.0
 30
0.0
  9
$UCSYDIR
 10
0.0
 20
1.0
 30
0.0
  9
$UCSORTHOREF
  2

  9
$UCSORTHOVIEW
 70
     0
  9
$UCSORGTOP
 10
0.0
 20
0.0
 30
0.0
  9
$UCSORGBOTTOM
 10
0.0
 20
0.0
 30
0.0
  9
$UCSORGLEFT
 10
0.0
 20
0.0
 30
0.0
  9
$UCSORGRIGHT
 10
0.0
 20
0.0
 30
0.0
  9
$UCSORGFRONT
 10
0.0
 20
0.0
 30
0.0
  9
$UCSORGBACK
 10
0.0
 20
0.0
 30
0.0
  9
$PUCSBASE
  2

  9
$PUCSNAME
  2

  9
$PUCSORG
 10
0.0
 20
0.0
 30
0.0
  9
$PUCSXDIR
 10
1.0
 20
0.0
 30
0.0
  9
$PUCSYDIR
 10
0.0
 20
1.0
 30
0.0
  9
$PUCSORTHOREF
  2

  9
$PUCSORTHOVIEW
 70
     0
  9
$PUCSORGTOP
 10
0.0
 20
0.0
 30
0.0
  9
$PUCSORGBOTTOM
 10
0.0
 20
0.0
 30
0.0
  9
$PUCSORGLEFT
 10
0.0
 20
0.0
 30
0.0
  9
$PUCSORGRIGHT
 10
0.0
 20
0.0
 30
0.0
  9
$PUCSORGFRONT
 10
0.0
 20
0.0
 30
0.0
  9
$PUCSORGBACK
 10
0.0
 20
0.0
 30
0.0
  9
$USERI1
 70
     0
  9
$USERI2
 70
     0
  9
$USERI3
 70
     0
  9
$USERI4
 70
     0
  9
$USERI5
 70
     0
  9
$USERR1
 40
0.0
  9
$USERR2
 40
0.0
  9
$USERR3
 40
0.0
  9
$USERR4
 40
0.0
  9
$USERR5
 40
0.0
  9
$WORLDVIEW
 70
     1
  9
$SHADEDGE
 70
     3
  9
$SHADEDIF
 70
    70
  9
$TILEMODE
 70
     1
  9
$MAXACTVP
 70
    64
  9
$PINSBASE
 10
0.0
 20
0.0
 30
0.0
  9
$PLIMCHECK
 70
     0
  9
$PEXTMIN
 10
1.0000000000E+20
 20
1.0000000000E+20
 30
1.0000000000E+20
  9
$PEXTMAX
 10
-1.0000000000E+20
 20
-1.0000000000E+20
 30
-1.0000000000E+20
  9
$PLIMMIN
 10
0.0
 20
0.0
  9
$PLIMMAX
 10
420.0
 20
297.0
  9
$UNITMODE
 70
     0
  9
$VISRETAIN
 70
     1
  9
$PLINEGEN
 70
     0
  9
$PSLTSCALE
 70
     1
  9
$TREEDEPTH
 70
  3020
  9
$CMLSTYLE
  2
Standard
  9
$CMLJUST
 70
     0
  9
$CMLSCALE
 40
20.0
  9
$PROXYGRAPHICS
 70
     1
  9
$MEASUREMENT
 70
     1
  9
$CELWEIGHT
370
    -1
  9
$ENDCAPS
280
     0
  9
$JOINSTYLE
280
     0
  9
$LWDISPLAY
290
     1
  9
$INSUNITS
 70
     4
  9
$HYPERLINKBASE
  1

  9
$STYLESHEET
  1

  9
$XEDIT
290
     1
  9
$CEPSNTYPE
380
     0
  9
$PSTYLEMODE
290
     1
  9
$FINGERPRINTGUID
  2
{bbd1f35c-f341-4bd6-9454-f6449704cb29}
  9
$VERSIONGUID
  2
{FAEB1C32-E019-11D5-929B-00C0DF256EC4}
  9
$EXTNAMES
290
     1
  9
$PSVPSCALE
 40
0.0
  9
$OLESTARTUP
290
     0
  0
ENDSEC
  0
SECTION
  2
CLASSES
  0
CLASS
  1
ACDBDICTIONARYWDFLT
  2
AcDbDictionaryWithDefault
  3
ObjectDBX Classes
 90
        0
280
     0
281
     0
  0
CLASS
  1
VISUALSTYLE
  2
AcDbVisualStyle
  3
ObjectDBX Classes
 90
     4095
280
     0
281
     0
  0
CLASS
  1
MATERIAL
  2
AcDbMaterial
  3
ObjectDBX Classes
 90
     1153
280
     0
281
     0
  0
CLASS
  1
SCALE
  2
AcDbScale
  3
ObjectDBX Classes
 90
     1153
280
     0
281
     0
  0
CLASS
  1
TABLESTYLE
  2
AcDbTableStyle
  3
ObjectDBX Classes
 90
     4095
280
     0
281
     0
  0
CLASS
  1
MLEADERSTYLE
  2
AcDbMLeaderStyle
  3
ACDB_MLEADERSTYLE_CLASS
 90
     4095
280
     0
281
     0
  0
CLASS
  1
SUN
  2
AcDbSun
  3
SCENEOE
 90
     1153
280
     0
281
     0
  0
CLASS
  1
ACDBPLACEHOLDER
  2
AcDbPlaceHolder
  3
ObjectDBX Classes
 90
        0
280
     0
281
     0
  0
CLASS
  1
LAYOUT
  2
AcDbLayout
  3
ObjectDBX Classes
 90
        0
280
     0
281
     0
  0
ENDSEC
  0
SECTION
  2
TABLES
  0
TABLE
  2
VPORT
  5
8
330
0
100
AcDbSymbolTable
 70
     1
  0
VPORT
  5
29
330
8
100
AcDbSymbolTableRecord
100
AcDbViewportTableRecord
  2
*Active
 70
     0
 10
0.0
 20
0.0
 11
1.0
 21
1.0
 12
406.4
 22
228.6
 13
0.0
 23
0.0
 14
10.0
 24
10.0
 15
10.0
 25
10.0
 16
0.0
 26
0.0
 36
1.0
 17
0.0
 27
0.0
 37
0.0
 40
457.2
 41
1.7777777778
 42
50.0
 43
0.0
 44
0.0
 50
0.0
 51
0.0
 71
     0
 72
  2000
 73
     1
 74
     3
 75
     0
 76
     0
 77
     0
 78
     0
281
     0
 65
     1
110
0.0
120
0.0
130
0.0
111
1.0
121
0.0
131
0.0
112
0.0
122
1.0
132
0.0
 79
     0
146
0.0
  0
ENDTAB
  0
TABLE
  2
LTYPE
  5
5
330
0
100
AcDbSymbolTable
 70
     6
  0
LTYPE
  5
14
330
5
100
AcDbSymbolTableRecord
100
AcDbLinetypeTableRecord
  2
ByBlock
 70
     0
  3

 72
    65
 73
     0
 40
0.0
  0
LTYPE
  5
15
330
5
100
AcDbSymbolTableRecord
100
AcDbLinetypeTableRecord
  2
ByLayer
 70
     0
  3

 72
    65
 73
     0
 40
0.0
  0
LTYPE
  5
16
330
5
100
AcDbSymbolTableRecord
100
AcDbLinetypeTableRecord
  2
Continuous
 70
     0
  3
Solid line
 72
    65
 73
     0
 40
0.0
  0
LTYPE
  5
6E
330
5
100
AcDbSymbolTableRecord
100
AcDbLinetypeTableRecord
  2
HIDDEN
 70
     0
  3
Hidden __ __ __ __ __ __ __ __ __ __ __ __ __ __
 72
    65
 73
     2
 40
1.905
 49
1.27
 74
     0
 49
-0.635
 74
     0
  0
LTYPE
  5
6F
330
5
100
AcDbSymbolTableRecord
100
AcDbLinetypeTableRecord
  2
PHANTOM
 70
     0
  3
Phantom ______  __  __  ______  __  __  ______
 72
    65
 73
     6
 40
12.7
 49
6.35
 74
     0
 49
-1.27
 74
     0
 49
1.27
 74
     0
 49
-1.27
 74
     0
 49
1.27
 74
     0
 49
-1.27
 74
     0
  0
LTYPE
  5
70
330
5
100
AcDbSymbolTableRecord
100
AcDbLinetypeTableRecord
  2
CENTER
 70
     0
  3
Center ____ _ ____ _ ____ _ ____ _ ____ _ ____
 72
    65
 73
     4
 40
10.16
 49
6.35
 74
     0
 49
-1.27
 74
     0
 49
1.27
 74
     0
 49
-1.27
 74
     0
  0
LTYPE
  5
71
330
5
100
AcDbSymbolTableRecord
100
AcDbLinetypeTableRecord
  2
CENTERX2
 70
     0
  3
Center (2x) ________  __  ________  __  _____
 72
    65
 73
     4
 40
20.32
 49
12.7
 74
     0
 49
-2.54
 74
     0
 49
2.54
 74
     0
 49
-2.54
 74
     0
  0
LTYPE
  5
72
330
5
100
AcDbSymbolTableRecord
100
AcDbLinetypeTableRecord
  2
DOT2
 70
     0
  3
Dot (.5x) ........................................
 72
    65
 73
     2
 40
0.635
 49
0.0
 74
     0
 49
-0.635
 74
     0
  0
ENDTAB
  0
TABLE
  2
LAYER
  5
2
330
0
100
AcDbSymbolTable
 70
     1
  0
LAYER
  5
10
330
2
100
AcDbSymbolTableRecord
100
AcDbLayerTableRecord
  2
0
 70
     0
 62
     7
  6
Continuous
370
    -3
390
F
  0
ENDTAB
  0
TABLE
  2
STYLE
  5
3
330
0
100
AcDbSymbolTable
 70
     2
  0
STYLE
  5
11
330
3
100
AcDbSymbolTableRecord
100
AcDbTextStyleTableRecord
  2
Standard
 70
     0
 40
0.0
 41
1.0
 50
0.0
 71
     0
 42
3.175
  3
txt
  4

  0
STYLE
  5
1DC
330
3
100
AcDbSymbolTableRecord
100
AcDbTextStyleTableRecord
  2
SLDTEXTSTYLE0
 70
     0
 40
0.0
 41
0.7
 50
0.0
 71
     0
 42
3.175
  3
TXT
  4

  0
ENDTAB
  0
TABLE
  2
VIEW
  5
6
330
0
100
AcDbSymbolTable
 70
     0
  0
ENDTAB
  0
TABLE
  2
UCS
  5
7
330
0
100
AcDbSymbolTable
 70
     0
  0
ENDTAB
  0
TABLE
  2
APPID
  5
9
330
0
100
AcDbSymbolTable
 70
     1
  0
APPID
  5
12
330
9
100
AcDbSymbolTableRecord
100
AcDbRegAppTableRecord
  2
ACAD
 70
     0
  0
ENDTAB
  0
TABLE
  2
DIMSTYLE
  5
A
330
0
100
AcDbSymbolTable
 70
     1
100
AcDbDimStyleTable
  0
DIMSTYLE
105
27
330
A
100
AcDbSymbolTableRecord
100
AcDbDimStyleTableRecord
  2
ISO-25
 70
     0
 41
2.5
 42
0.625
 43
3.75
 44
1.25
 73
     0
 74
     0
 77
     1
 78
     8
140
2.5
141
2.5
143
0.0393700787
147
0.625
171
     3
172
     1
178
     0
271
     2
272
     2
274
     3
278
    44
283
     0
284
     8
340
11
  0
ENDTAB
  0
TABLE
  2
BLOCK_RECORD
  5
1
330
0
100
AcDbSymbolTable
 70
     1
  0
BLOCK_RECORD
  5
1F
330
1
100
AcDbSymbolTableRecord
100
AcDbBlockTableRecord
  2
*Model_Space
340
22
  0
BLOCK_RECORD
  5
1B
330
1
100
AcDbSymbolTableRecord
100
AcDbBlockTableRecord
  2
*Paper_Space
340
1E
  0
BLOCK_RECORD
  5
23
330
1
100
AcDbSymbolTableRecord
100
AcDbBlockTableRecord
  2
*Paper_Space0
340
26
  0
ENDTAB
  0
ENDSEC
  0
SECTION
  2
BLOCKS
  0
BLOCK
  5
20
330
1F
100
AcDbEntity
  8
0
100
AcDbBlockBegin
  2
*Model_Space
 70
     0
 10
0.0
 20
0.0
 30
0.0
  3
*Model_Space
  1

  0
ENDBLK
  5
21
330
1F
100
AcDbEntity
  8
0
100
AcDbBlockEnd
  0
BLOCK
  5
1C
330
1B
100
AcDbEntity
 67
     1
  8
0
100
AcDbBlockBegin
  2
*Paper_Space
 70
     0
 10
0.0
 20
0.0
 30
0.0
  3
*Paper_Space
  1

  0
ENDBLK
  5
1D
330
1B
100
AcDbEntity
 67
     1
  8
0
100
AcDbBlockEnd
  0
BLOCK
  5
24
330
23
100
AcDbEntity
  8
0
100
AcDbBlockBegin
  2
*Paper_Space0
 70
     0
 10
0.0
 20
0.0
 30
0.0
  3
*Paper_Space0
  1

  0
ENDBLK
  5
25
330
23
100
AcDbEntity
  8
0
100
AcDbBlockEnd
  0
ENDSEC
  0
SECTION
  2
ENTITIES
  0
LINE
  5
73
330
1F
100
AcDbEntity
  8
0
  6
Continuous
 62
     7
370
    25
100
AcDbLine
 10
143.6757672123
 20
454.4990743805
 30
0.0
 11
3.6757666162
 21
454.4990743805
 31
0.0
  0
LINE
  5
74
330
1F
100
AcDbEntity
  8
0
  6
Continuous
 62
     7
370
    25
100
AcDbLine
 10
143.6757672123
 20
104.499080341
 30
0.0
 11
143.6757672123
 21
454.4990743805
 31
0.0
  0
LINE
  5
75
330
1F
100
AcDbEntity
  8
0
  6
Continuous
 62
     7
370
    25
100
AcDbLine
 10
3.6757666162
 20
104.499080341
 30
0.0
 11
143.6757672123
 21
104.499080341
 31
0.0
  0
LINE
  5
76
330
1F
100
AcDbEntity
  8
0
  6
Continuous
 62
     7
370
    25
100
AcDbLine
 10
3.6757666162
 20
454.4990743805
 30
0.0
 11
3.6757666162
 21
104.499080341
 31
0.0
  0
LINE
  5
77
330
1F
100
AcDbEntity
  8
0
  6
Continuous
 62
     7
370
    25
100
AcDbLine
 10
285.9361739381
 20
454.3634762129
 30
0.0
 11
145.936173342
 21
454.3634762129
 31
0.0
  0
LINE
  5
78
330
1F
100
AcDbEntity
  8
0
  6
Continuous
 62
     7
370
    25
100
AcDbLine
 10
285.9361739381
 20
104.3634821734
 30
0.0
 11
285.9361739381
 21
454.3634762129
 31
0.0
  0
LINE
  5
79
330
1F
100
AcDbEntity
  8
0
  6
Continuous
 62
     7
370
    25
100
AcDbLine
 10
145.936173342
 20
104.3634821734
 30
0.0
 11
285.9361739381
 21
104.3634821734
 31
0.0
  0
LINE
  5
7A
330
1F
100
AcDbEntity
  8
0
  6
Continuous
 62
     7
370
    25
100
AcDbLine
 10
145.936173342
 20
454.3634762129
 30
0.0
 11
145.936173342
 21
104.3634821734
 31
0.0
  0
LINE
  5
7B
330
1F
100
AcDbEntity
  8
0
  6
Continuous
 62
     7
370
    25
100
AcDbLine
 10
428.1311240849
 20
454.3634762129
 30
0.0
 11
288.1311234888
 21
454.3634762129
 31
0.0
  0
LINE
  5
7C
330
1F
100
AcDbEntity
  8
0
  6
Continuous
 62
     7
370
    25
100
AcDbLine
 10
428.1311240849
 20
104.3634821734
 30
0.0
 11
428.1311240849
 21
454.3634762129
 31
0.0
  0
LINE
  5
7D
330
1F
100
AcDbEntity
  8
0
  6
Continuous
 62
     7
370
    25
100
AcDbLine
 10
288.1311234888
 20
104.3634821734
 30
0.0
 11
428.1311240849
 21
104.3634821734
 31
0.0
  0
LINE
  5
7E
330
1F
100
AcDbEntity
  8
0
  6
Continuous
 62
     7
370
    25
100
AcDbLine
 10
288.1311234888
 20
454.3634762129
 30
0.0
 11
288.1311234888
 21
104.3634821734
 31
0.0
  0
LINE
  5
7F
330
1F
100
AcDbEntity
  8
0
  6
Continuous
 62
     7
370
    25
100
AcDbLine
 10
569.63358075
 20
454.1401757832
 30
0.0
 11
429.633580154
 21
454.1401757832
 31
0.0
  0
LINE
  5
80
330
1F
100
AcDbEntity
  8
0
  6
Continuous
 62
     7
370
    25
100
AcDbLine
 10
569.63358075
 20
104.1401817436
 30
0.0
 11
569.63358075
 21
454.1401757832
 31
0.0
  0
LINE
  5
81
330
1F
100
AcDbEntity
  8
0
  6
Continuous
 62
     7
370
    25
100
AcDbLine
 10
429.633580154
 20
104.1401817436
 30
0.0
 11
569.63358075
 21
104.1401817436
 31
0.0
  0
LINE
  5
82
330
1F
100
AcDbEntity
  8
0
  6
Continuous
 62
     7
370
    25
100
AcDbLine
 10
429.633580154
 20
454.1401757832
 30
0.0
 11
429.633580154
 21
104.1401817436
 31
0.0
  0
LINE
  5
83
330
1F
100
AcDbEntity
  8
0
  6
Continuous
 62
     7
370
    25
100
AcDbLine
 10
607.7248335233
 20
408.3295357199
 30
0.0
 11
607.7248335233
 21
404.284168479
 31
0.0
  0
LINE
  5
84
330
1F
100
AcDbEntity
  8
0
  6
Continuous
 62
     7
370
    25
100
AcDbLine
 10
606.2580675235
 20
410.0287449332
 30
0.0
 11
607.7248335233
 21
408.3295357199
 31
0.0
  0
LINE
  5
85
330
1F
100
AcDbEntity
  8
0
  6
Continuous
 62
     7
370
    25
100
AcDbLine
 10
604.7912866226
 20
411.7279541464
 30
0.0
 11
606.2580675235
 21
410.0287449332
 31
0.0
  0
LINE
  5
86
330
1F
100
AcDbEntity
  8
0
  6
Continuous
 62
     7
370
    25
100
AcDbLine
 10
593.6559766879
 20
411.7279541464
 30
0.0
 11
604.7912866226
 21
411.7279541464
 31
0.0
  0
LINE
  5
87
330
1F
100
AcDbEntity
  8
0
  6
Continuous
 62
     7
370
    25
100
AcDbLine
 10
592.4821824184
 20
413.0891156168
 30
0.0
 11
593.6559766879
 21
411.7279541464
 31
0.0
  0
LINE
  5
88
330
1F
100
AcDbEntity
  8
0
  6
Continuous
 62
     7
370
    25
100
AcDbLine
 10
592.4829870811
 20
415.8117961855
 30
0.0
 11
592.4821824184
 21
413.0891156168
 31
0.0
  0
LINE
  5
89
330
1F
100
AcDbEntity
  8
0
  6
Continuous
 62
     7
370
    25
100
AcDbLine
 10
593.6397493234
 20
417.1531689139
 30
0.0
 11
592.4829870811
 21
415.8117961855
 31
0.0
  0
LINE
  5
8A
330
1F
100
AcDbEntity
  8
0
  6
Continuous
 62
     7
370
    25
100
AcDbLine
 10
600.6730229011
 20
417.1538543673
 30
0.0
 11
593.6397493234
 21
417.1531689139
 31
0.0
  0
SPLINE
  5
8B
330
1F
100
AcDbEntity
  8
0
  6
Continuous
 62
     7
370
    25
100
AcDbSpline
210
0.0
220
0.0
230
1.0
 70
     8
 71
     3
 72
     8
 73
     4
 74
     0
 42
0.000000001
 43
0.00000001
 40
0.0
 40
0.0
 40
0.0
 40
0.0
 40
1.0
 40
1.0
 40
1.0
 40
1.0
 10
607.706316603337
 20
417.1700304529404
 30
0.0
 10
607.706316603337
 20
417.1615268529404
 30
0.0
 10
604.5413376533371
 20
417.1542518229404
 30
0.0
 10
600.673029363337
 20
417.1538636729404
 30
0.0
  0
SPLINE
  5
8C
330
1F
100
AcDbEntity
  8
0
  6
Continuous
 62
     7
370
    25
100
AcDbSpline
210
0.0
220
0.0
230
1.0
 70
     8
 71
     3
 72
     8
 73
     4
 74
     0
 42
0.000000001
 43
0.00000001
 40
0.0000056282055719
 40
0.0000056282055719
 40
0.0000056282055719
 40
0.0000056282055719
 40
1.0
 40
1.0
 40
1.0
 40
1.0
 10
607.1272088312852
 20
418.5266690979394
 30
0.0
 10
607.445718426762
 20
417.7890202109997
 30
0.0
 10
607.706316603337
 20
417.17853407508
 30
0.0
 10
607.706316603337
 20
417.1700304529404
 30
0.0
  0
LINE
  5
8D
330
1F
100
AcDbEntity
  8
0
  6
Continuous
 62
     7
370
    25
100
AcDbLine
 10
606.5480888238
 20
419.8678624602
 30
0.0
 11
607.1272075525
 21
418.5266685458
 31
0.0
  0
LINE
  5
8E
330
1F
100
AcDbEntity
  8
0
  6
Continuous
 62
     7
370
    25
100
AcDbLine
 10
593.0635661235
 20
419.8771905871
 30
0.0
 11
606.5480888238
 21
419.8678624602
 31
0.0
  0
LINE
  5
8F
330
1F
100
AcDbEntity
  8
0
  6
Continuous
 62
     7
370
    25
100
AcDbLine
 10
590.1300490251
 20
416.4788317652
 30
0.0
 11
593.0635661235
 21
419.8771905871
 31
0.0
  0
LINE
  5
90
330
1F
100
AcDbEntity
  8
0
  6
Continuous
 62
     7
370
    25
100
AcDbLine
 10
590.1300490251
 20
412.4182355376
 30
0.0
 11
590.1300490251
 21
416.4788317652
 31
0.0
  0
LINE
  5
91
330
1F
100
AcDbEntity
  8
0
  6
Continuous
 62
     7
370
    25
100
AcDbLine
 10
593.061301147
 20
409.0239298315
 30
0.0
 11
590.1300490251
 21
412.4182355376
 31
0.0
  0
LINE
  5
92
330
1F
100
AcDbEntity
  8
0
  6
Continuous
 62
     7
370
    25
100
AcDbLine
 10
604.1966259828
 20
409.0234529944
 30
0.0
 11
593.061301147
 21
409.0239298315
 31
0.0
  0
LINE
  5
93
330
1F
100
AcDbEntity
  8
0
  6
Continuous
 62
     7
370
    25
100
AcDbLine
 10
604.7842234721
 20
408.3430361719
 30
0.0
 11
604.1966259828
 21
409.0234529944
 31
0.0
  0
LINE
  5
94
330
1F
100
AcDbEntity
  8
0
  6
Continuous
 62
     7
370
    25
100
AcDbLine
 10
605.3718507638
 20
407.6626491518
 30
0.0
 11
604.7842234721
 21
408.3430361719
 31
0.0
  0
LINE
  5
95
330
1F
100
AcDbEntity
  8
0
  6
Continuous
 62
     7
370
    25
100
AcDbLine
 10
605.3704053512
 20
404.9400877924
 30
0.0
 11
605.3718507638
 21
407.6626491518
 31
0.0
  0
LINE
  5
96
330
1F
100
AcDbEntity
  8
0
  6
Continuous
 62
     7
370
    25
100
AcDbLine
 10
604.2129278531
 20
403.6065828772
 30
0.0
 11
605.3704053512
 21
404.9400877924
 31
0.0
  0
LINE
  5
97
330
1F
100
AcDbEntity
  8
0
  6
Continuous
 62
     7
370
    25
100
AcDbLine
 10
597.178596293
 20
403.6019337149
 30
0.0
 11
604.2129278531
 21
403.6065828772
 31
0.0
  0
SPLINE
  5
98
330
1F
100
AcDbEntity
  8
0
  6
Continuous
 62
     7
370
    25
100
AcDbSpline
210
0.0
220
0.0
230
1.0
 70
     8
 71
     3
 72
     8
 73
     4
 74
     0
 42
0.000000001
 43
0.00000001
 40
0.0001180364731028
 40
0.0001180364731028
 40
0.0001180364731028
 40
0.0001180364731028
 40
1.0
 40
1.0
 40
1.0
 40
1.0
 10
590.1538020465108
 20
403.5607768566977
 30
0.0
 10
590.1443299872669
 20
403.5970389146564
 30
0.0
 10
590.1897796060223
 20
403.5973005688224
 30
0.0
 10
597.178596533337
 20
403.6019247129404
 30
0.0
  0
SPLINE
  5
99
330
1F
100
AcDbEntity
  8
0
  6
Continuous
 62
     7
370
    25
100
AcDbSpline
210
0.0
220
0.0
230
1.0
 70
     8
 71
     3
 72
    12
 73
     8
 74
     0
 42
0.000000001
 43
0.00000001
 40
0.0
 40
0.0
 40
0.0
 40
0.0
 40
0.7581915654283653
 40
0.9454210132281913
 40
0.987166927648016
 40
0.9966053600183049
 40
1.0
 40
1.0
 40
1.0
 40
1.0
 10
590.734738146331
 20
402.1996450395902
 30
0.0
 10
590.586990497032
 20
402.5432406018964
 30
0.0
 10
590.402757727015
 20
402.9716843876997
 30
0.0
 10
590.211539873055
 20
403.419604766582
 30
0.0
 10
590.1666442085457
 20
403.5282913118459
 30
0.0
 10
590.1564241784815
 20
403.5532123230666
 30
0.0
 10
590.1543501134714
 20
403.5591943304536
 30
0.0
 10
590.1538014760276
 20
403.560776707681
 30
0.0
  0
LINE
  5
9A
330
1F
100
AcDbEntity
  8
0
  6
Continuous
 62
     7
370
    25
100
AcDbLine
 10
591.3061231723
 20
400.8750510187
 30
0.0
 11
590.7347381463
 21
402.1996450396
 31
0.0
  0
LINE
  5
9B
330
1F
100
AcDbEntity
  8
0
  6
Continuous
 62
     7
370
    25
100
AcDbLine
 10
604.789289867
 20
400.8759152861
 30
0.0
 11
591.3061231723
 21
400.8750510187
 31
0.0
  0
LINE
  5
9C
330
1F
100
AcDbEntity
  8
0
  6
Continuous
 62
     7
370
    25
100
AcDbLine
 10
606.1320484033
 20
402.4317455263
 30
0.0
 11
604.789289867
 21
400.8759152861
 31
0.0
  0
SPLINE
  5
9D
330
1F
100
AcDbEntity
  8
0
  6
Continuous
 62
     7
370
    25
100
AcDbSpline
210
0.0
220
0.0
230
1.0
 70
     8
 71
     3
 72
     8
 73
     4
 74
     0
 42
0.000000001
 43
0.00000001
 40
0.0
 40
0.0
 40
0.0
 40
0.0
 40
1.0
 40
1.0
 40
1.0
 40
1.0
 10
607.599821753337
 20
404.1358784829404
 30
0.0
 10
607.531063203337
 20
404.0543127329404
 30
0.0
 10
606.870563993337
 20
403.2874520229404
 30
0.0
 10
606.132045723337
 20
402.4317413629404
 30
0.0
  0
LINE
  5
9E
330
1F
100
AcDbEntity
  8
0
  6
Continuous
 62
     7
370
    25
100
AcDbLine
 10
607.7248335233
 20
404.284168479
 30
0.0
 11
607.599827682
 21
404.1358721228
 31
0.0
  0
LINE
  5
9F
330
1F
100
AcDbEntity
  8
0
  6
Continuous
 62
     7
370
    25
100
AcDbLine
 10
724.0782782784
 20
403.5973143549
 30
0.0
 11
727.0130284479
 21
403.5973143549
 31
0.0
  0
LINE
  5
A0
330
1F
100
AcDbEntity
  8
0
  6
Continuous
 62
     7
370
    25
100
AcDbLine
 10
722.9058158001
 20
404.9567174883
 30
0.0
 11
724.0782782784
 21
403.5973143549
 31
0.0
  0
LINE
  5
A1
330
1F
100
AcDbEntity
  8
0
  6
Continuous
 62
     7
370
    25
100
AcDbLine
 10
722.9104891768
 20
409.0229761572
 30
0.0
 11
722.9058158001
 21
404.9567174883
 31
0.0
  0
LINE
  5
A2
330
1F
100
AcDbEntity
  8
0
  6
Continuous
 62
     7
370
    25
100
AcDbLine
 10
722.9151606908
 20
413.0892348261
 30
0.0
 11
722.9104891768
 21
409.0229761572
 31
0.0
  0
LINE
  5
A3
330
1F
100
AcDbEntity
  8
0
  6
Continuous
 62
     7
370
    25
100
AcDbLine
 10
729.9438167712
 20
413.0985927553
 30
0.0
 11
722.9151606908
 21
413.0892348261
 31
0.0
  0
LINE
  5
A4
330
1F
100
AcDbEntity
  8
0
  6
Continuous
 62
     7
370
    25
100
AcDbLine
 10
729.9438167712
 20
415.8024382563
 30
0.0
 11
729.9438167712
 21
413.0985927553
 31
0.0
  0
LINE
  5
A5
330
1F
100
AcDbEntity
  8
0
  6
Continuous
 62
     7
370
    25
100
AcDbLine
 10
722.9151606908
 20
415.8117961855
 30
0.0
 11
729.9438167712
 21
415.8024382563
 31
0.0
  0
LINE
  5
A6
330
1F
100
AcDbEntity
  8
0
  6
Continuous
 62
     7
370
    25
100
AcDbLine
 10
722.8966385474
 20
419.8690247507
 30
0.0
 11
722.9151606908
 21
415.8117961855
 31
0.0
  0
LINE
  5
A7
330
1F
100
AcDbEntity
  8
0
  6
Continuous
 62
     7
370
    25
100
AcDbLine
 10
720.5815345397
 20
418.5276222201
 30
0.0
 11
722.8966385474
 21
419.8690247507
 31
0.0
  0
LINE
  5
A8
330
1F
100
AcDbEntity
  8
0
  6
Continuous
 62
     7
370
    25
100
AcDbLine
 10
720.5767866572
 20
417.1650898428
 30
0.0
 11
720.5815345397
 21
418.5276222201
 31
0.0
  0
LINE
  5
A9
330
1F
100
AcDbEntity
  8
0
  6
Continuous
 62
     7
370
    25
100
AcDbLine
 10
720.5720369121
 20
415.8025574656
 30
0.0
 11
720.5767866572
 21
417.1650898428
 31
0.0
  0
LINE
  5
AA
330
1F
100
AcDbEntity
  8
0
  6
Continuous
 62
     7
370
    25
100
AcDbLine
 10
718.2201288989
 20
415.8025574656
 30
0.0
 11
720.5720369121
 21
415.8025574656
 31
0.0
  0
LINE
  5
AB
330
1F
100
AcDbEntity
  8
0
  6
Continuous
 62
     7
370
    25
100
AcDbLine
 10
718.2201288989
 20
413.0985033484
 30
0.0
 11
718.2201288989
 21
415.8025574656
 31
0.0
  0
LINE
  5
AC
330
1F
100
AcDbEntity
  8
0
  6
Continuous
 62
     7
370
    25
100
AcDbLine
 10
720.5722753307
 20
413.0985033484
 30
0.0
 11
718.2201288989
 21
413.0985033484
 31
0.0
  0
LINE
  5
AD
330
1F
100
AcDbEntity
  8
0
  6
Continuous
 62
     7
370
    25
100
AcDbLine
 10
720.5722753307
 20
404.2644393416
 30
0.0
 11
720.5722753307
 21
413.0985033484
 31
0.0
  0
LINE
  5
AE
330
1F
100
AcDbEntity
  8
0
  6
Continuous
 62
     7
370
    25
100
AcDbLine
 10
722.0358692458
 20
402.5695812674
 30
0.0
 11
720.5722753307
 21
404.2644393416
 31
0.0
  0
LINE
  5
AF
330
1F
100
AcDbEntity
  8
0
  6
Continuous
 62
     7
370
    25
100
AcDbLine
 10
723.4994631609
 20
400.8747529955
 30
0.0
 11
722.0358692458
 21
402.5695812674
 31
0.0
  0
LINE
  5
B0
330
1F
100
AcDbEntity
  8
0
  6
Continuous
 62
     7
370
    25
100
AcDbLine
 10
728.7710581323
 20
400.8747529955
 30
0.0
 11
723.4994631609
 21
400.8747529955
 31
0.0
  0
LINE
  5
B1
330
1F
100
AcDbEntity
  8
0
  6
Continuous
 62
     7
370
    25
100
AcDbLine
 10
728.7943672737
 20
400.9256851645
 30
0.0
 11
728.7710581323
 21
400.8747529955
 31
0.0
  0
SPLINE
  5
B2
330
1F
100
AcDbEntity
  8
0
  6
Continuous
 62
     7
370
    25
100
AcDbSpline
210
0.0
220
0.0
230
1.0
 70
     8
 71
     3
 72
     8
 73
     4
 74
     0
 42
0.000000001
 43
0.00000001
 40
0.0
 40
0.0
 40
0.0
 40
0.0
 40
1.0
 40
1.0
 40
1.0
 40
1.0
 10
729.938564083337
 20
403.5741675429404
 30
0.0
 10
729.9225361133371
 20
403.5339050829404
 30
0.0
 10
728.818774083337
 20
400.9790227529404
 30
0.0
 10
728.794367323337
 20
400.9256883529404
 30
0.0
  0
SPLINE
  5
B3
330
1F
100
AcDbEntity
  8
0
  6
Continuous
 62
     7
370
    25
100
AcDbSpline
210
0.0
220
0.0
230
1.0
 70
     8
 71
     3
 72
     8
 73
     4
 74
     0
 42
0.000000001
 43
0.00000001
 40
0.0
 40
0.0
 40
0.0
 40
0.0
 40
1.0
 40
1.0
 40
1.0
 40
1.0
 10
727.013028043337
 20
403.5973185729404
 30
0.0
 10
729.353396493337
 20
403.5973185729404
 30
0.0
 10
729.945913103337
 20
403.5926290629404
 30
0.0
 10
729.938564083337
 20
403.5741675429404
 30
0.0
  0
SPLINE
  5
B4
330
1F
100
AcDbEntity
  8
0
  6
Continuous
 62
     7
370
    25
100
AcDbSpline
210
0.0
220
0.0
230
1.0
 70
     8
 71
     3
 72
     9
 73
     5
 74
     0
 42
0.000000001
 43
0.00000001
 40
0.0
 40
0.0
 40
0.0
 40
0.0
 40
0.5545283989451952
 40
1.0
 40
1.0
 40
1.0
 40
1.0
 10
710.4598984470626
 20
421.6709029646237
 30
0.0
 10
710.0934982743735
 20
421.5702149703497
 30
0.0
 10
709.4327563297119
 20
421.3886408715919
 30
0.0
 10
708.893372051925
 20
420.9690939499321
 30
0.0
 10
708.6530916741153
 20
420.7821977110227
 30
0.0
  0
SPLINE
  5
B5
330
1F
100
AcDbEntity
  8
0
  6
Continuous
 62
     7
370
    25
100
AcDbSpline
210
0.0
220
0.0
230
1.0
 70
     8
 71
     3
 72
    10
 73
     6
 74
     0
 42
0.000000001
 43
0.00000001
 40
0.0
 40
0.0
 40
0.0
 40
0.0
 40
0.2812623914373761
 40
0.5589878181268375
 40
1.0
 40
1.0
 40
1.0
 40
1.0
 10
713.778044318225
 20
420.803059336694
 30
0.0
 10
713.5104498811323
 20
421.0004322608471
 30
0.0
 10
712.9786260927865
 20
421.3926960813523
 30
0.0
 10
711.8378914214022
 20
421.7846197906106
 30
0.0
 10
710.9839008596788
 20
421.7141454863796
 30
0.0
 10
710.4598984470626
 20
421.6709029646237
 30
0.0
  0
SPLINE
  5
B6
330
1F
100
AcDbEntity
  8
0
  6
Continuous
 62
     7
370
    25
100
AcDbSpline
210
0.0
220
0.0
230
1.0
 70
     8
 71
     3
 72
     8
 73
     4
 74
     0
 42
0.000000001
 43
0.00000001
 40
0.0
 40
0.0
 40
0.0
 40
0.0
 40
1.0
 40
1.0
 40
1.0
 40
1.0
 10
713.979267583337
 20
420.6371430529404
 30
0.0
 10
713.973948353337
 20
420.6375042529404
 30
0.0
 10
713.883398173337
 20
420.7121683529404
 30
0.0
 10
713.778044253337
 20
420.8030621629404
 30
0.0
  0
SPLINE
  5
B7
330
1F
100
AcDbEntity
  8
0
  6
Continuous
 62
     7
370
    25
100
AcDbSpline
210
0.0
220
0.0
230
1.0
 70
     8
 71
     3
 72
     8
 73
     4
 74
     0
 42
0.000000001
 43
0.00000001
 40
0.0
 40
0.0
 40
0.0
 40
0.0
 40
1.0
 40
1.0
 40
1.0
 40
1.0
 10
714.1448382333369
 20
420.7932016829404
 30
0.0
 10
714.059092363337
 20
420.7070077429403
 30
0.0
 10
713.9845848533371
 20
420.6367815729404
 30
0.0
 10
713.979267583337
 20
420.6371430529404
 30
0.0
  0
LINE
  5
B8
330
1F
100
AcDbEntity
  8
0
  6
Continuous
 62
     7
370
    25
100
AcDbLine
 10
714.3007398
 20
420.9499251814
 30
0.0
 11
714.144836401
 21
420.793194768
 31
0.0
  0
LINE
  5
B9
330
1F
100
AcDbEntity
  8
0
  6
Continuous
 62
     7
370
    25
100
AcDbLine
 10
714.2648131004
 20
420.990009305
 30
0.0
 11
714.3007398
 21
420.9499251814
 31
0.0
  0
SPLINE
  5
BA
330
1F
100
AcDbEntity
  8
0
  6
Continuous
 62
     7
370
    25
100
AcDbSpline
210
0.0
220
0.0
230
1.0
 70
     8
 71
     3
 72
     9
 73
     5
 74
     0
 42
0.000000001
 43
0.00000001
 40
0.0
 40
0.0
 40
0.0
 40
0.0
 40
0.6915942625598471
 40
1.0
 40
1.0
 40
1.0
 40
1.0
 10
714.0529409399292
 20
421.1777043314298
 30
0.0
 10
714.1029728056225
 20
421.1357551556551
 30
0.0
 10
714.1753156060212
 20
421.075099395413
 30
0.0
 10
714.2437175487686
 20
421.0100659826527
 30
0.0
 10
714.2648131003639
 20
420.9900093050321
 30
0.0
  0
SPLINE
  5
BB
330
1F
100
AcDbEntity
  8
0
  6
Continuous
 62
     7
370
    25
100
AcDbSpline
210
0.0
220
0.0
230
1.0
 70
     8
 71
     3
 72
     9
 73
     5
 74
     0
 42
0.000000001
 43
0.00000001
 40
0.0
 40
0.0
 40
0.0
 40
0.0
 40
0.5584636062213947
 40
1.0
 40
1.0
 40
1.0
 40
1.0
 10
711.2285152426025
 20
422.2106230230649
 30
0.0
 10
711.8050208076152
 20
422.1487828978129
 30
0.0
 10
712.8373272257777
 20
422.0380503011617
 30
0.0
 10
713.6806036906646
 20
421.4412245994694
 30
0.0
 10
714.0529409399292
 20
421.1777043314298
 30
0.0
  0
SPLINE
  5
BC
330
1F
100
AcDbEntity
  8
0
  6
Continuous
 62
     7
370
    25
100
AcDbSpline
210
0.0
220
0.0
230
1.0
 70
     8
 71
     3
 72
     8
 73
     4
 74
     0
 42
0.000000001
 43
0.00000001
 40
0.0
 40
0.0
 40
0.0
 40
0.0
 40
1.0
 40
1.0
 40
1.0
 40
1.0
 10
708.404087413337
 20
421.1773527929404
 30
0.0
 10
709.184410873337
 20
421.8334498429404
 30
0.0
 10
710.215419383337
 20
422.2106302829404
 30
0.0
 10
711.228514473337
 20
422.2106302829404
 30
0.0
  0
SPLINE
  5
BD
330
1F
100
AcDbEntity
  8
0
  6
Continuous
 62
     7
370
    25
100
AcDbSpline
210
0.0
220
0.0
230
1.0
 70
     8
 71
     3
 72
     8
 73
     4
 74
     0
 42
0.000000001
 43
0.00000001
 40
0.0
 40
0.0
 40
0.0
 40
0.0
 40
1.0
 40
1.0
 40
1.0
 40
1.0
 10
708.173371543337
 20
420.9714697029403
 30
0.0
 10
708.203493803337
 20
421.0033399329404
 30
0.0
 10
708.3073160533371
 20
421.0959874529403
 30
0.0
 10
708.404087413337
 20
421.1773527929404
 30
0.0
  0
LINE
  5
BE
330
1F
100
AcDbEntity
  8
0
  6
Continuous
 62
     7
370
    25
100
AcDbLine
 10
708.1186019233
 20
420.9135365458
 30
0.0
 11
708.1733711412
 21
420.9714722605
 31
0.0
  0
LINE
  5
BF
330
1F
100
AcDbEntity
  8
0
  6
Continuous
 62
     7
370
    25
100
AcDbLine
 10
708.2748256972
 20
420.7564783068
 30
0.0
 11
708.1186019233
 21
420.9135365458
 31
0.0
  0
SPLINE
  5
C0
330
1F
100
AcDbEntity
  8
0
  6
Continuous
 62
     7
370
    25
100
AcDbSpline
210
0.0
220
0.0
230
1.0
 70
     8
 71
     3
 72
     8
 73
     4
 74
     0
 42
0.000000001
 43
0.00000001
 40
0.0
 40
0.0
 40
0.0
 40
0.0
 40
1.0
 40
1.0
 40
1.0
 40
1.0
 10
708.435874693337
 20
420.5994439229403
 30
0.0
 10
708.433220643337
 20
420.5994439229403
 30
0.0
 10
708.360750483337
 20
420.6701117929404
 30
0.0
 10
708.274826813337
 20
420.7564837429404
 30
0.0
  0
SPLINE
  5
C1
330
1F
100
AcDbEntity
  8
0
  6
Continuous
 62
     7
370
    25
100
AcDbSpline
210
0.0
220
0.0
230
1.0
 70
     8
 71
     3
 72
     8
 73
     4
 74
     0
 42
0.000000001
 43
0.00000001
 40
0.0
 40
0.0
 40
0.0
 40
0.0
 40
1.0
 40
1.0
 40
1.0
 40
1.0
 10
708.653090783337
 20
420.7822013929404
 30
0.0
 10
708.536274293337
 20
420.6816847529404
 30
0.0
 10
708.438526923337
 20
420.5994439229403
 30
0.0
 10
708.435874693337
 20
420.5994439229403
 30
0.0
  0
SPLINE
  5
C2
330
1F
100
AcDbEntity
  8
0
  6
Continuous
 62
     7
370
    25
100
AcDbSpline
210
0.0
220
0.0
230
1.0
 70
     8
 71
     3
 72
     9
 73
     5
 74
     0
 42
0.000000001
 43
0.00000001
 40
0.0
 40
0.0
 40
0.0
 40
0.0
 40
0.5334318917889614
 40
1.0
 40
1.0
 40
1.0
 40
1.0
 10
712.0897315790912
 20
420.4400670500119
 30
0.0
 10
711.9379109425026
 20
420.483857444274
 30
0.0
 10
711.6532998442057
 20
420.5659492631848
 30
0.0
 10
711.357339724212
 20
420.5683287423872
 30
0.0
 10
711.2192541709205
 20
420.569438931497
 30
0.0
  0
SPLINE
  5
C3
330
1F
100
AcDbEntity
  8
0
  6
Continuous
 62
     7
370
    25
100
AcDbSpline
210
0.0
220
0.0
230
1.0
 70
     8
 71
     3
 72
     9
 73
     5
 74
     0
 42
0.000000001
 43
0.00000001
 40
0.0
 40
0.0
 40
0.0
 40
0.0
 40
0.5702493029738281
 40
1.0
 40
1.0
 40
1.0
 40
1.0
 10
713.0382649948856
 20
419.8906910391171
 30
0.0
 10
712.8717733074682
 20
420.0197078004921
 30
0.0
 10
712.5798103247005
 20
420.2459540417451
 30
0.0
 10
712.2370381570572
 20
420.3817210734874
 30
0.0
 10
712.0897315790912
 20
420.4400670500119
 30
0.0
  0
LINE
  5
C4
330
1F
100
AcDbEntity
  8
0
  6
Continuous
 62
     7
370
    25
100
AcDbLine
 10
713.1472632637
 20
419.7958898516
 30
0.0
 11
713.0382649949
 21
419.8906910391
 31
0.0
  0
LINE
  5
C5
330
1F
100
AcDbEntity
  8
0
  6
Continuous
 62
     7
370
    25
100
AcDbLine
 10
713.3074097684
 20
419.9560475321
 30
0.0
 11
713.1472632637
 21
419.7958898516
 31
0.0
  0
LINE
  5
C6
330
1F
100
AcDbEntity
  8
0
  6
Continuous
 62
     7
370
    25
100
AcDbLine
 10
713.4675637236
 20
420.1162052126
 30
0.0
 11
713.3074097684
 21
419.9560475321
 31
0.0
  0
LINE
  5
C7
330
1F
100
AcDbEntity
  8
0
  6
Continuous
 62
     7
370
    25
100
AcDbLine
 10
713.4315066388
 20
420.1564085455
 30
0.0
 11
713.4675637236
 21
420.1162052126
 31
0.0
  0
SPLINE
  5
C8
330
1F
100
AcDbEntity
  8
0
  6
Continuous
 62
     7
370
    25
100
AcDbSpline
210
0.0
220
0.0
230
1.0
 70
     8
 71
     3
 72
     9
 73
     5
 74
     0
 42
0.000000001
 43
0.00000001
 40
0.0
 40
0.0
 40
0.0
 40
0.0
 40
0.6708992676055986
 40
0.9999999999999999
 40
0.9999999999999999
 40
0.9999999999999999
 40
0.9999999999999999
 10
713.2638573994896
 20
420.3044366808256
 30
0.0
 10
713.3024915258804
 20
420.2726036174393
 30
0.0
 10
713.3600771102688
 20
420.2251552672572
 30
0.0
 10
713.4138198603716
 20
420.173431029917
 30
0.0
 10
713.4315066387912
 20
420.1564085455258
 30
0.0
  0
SPLINE
  5
C9
330
1F
100
AcDbEntity
  8
0
  6
Continuous
 62
     7
370
    25
100
AcDbSpline
210
0.0
220
0.0
230
1.0
 70
     8
 71
     3
 72
     9
 73
     5
 74
     0
 42
0.000000001
 43
0.00000001
 40
0.0
 40
0.0
 40
0.0
 40
0.0
 40
0.5543136864994705
 40
1.0
 40
1.0
 40
1.0
 40
1.0
 10
710.8951390137931
 20
421.0250270338376
 30
0.0
 10
711.3739348478949
 20
421.0172444419689
 30
0.0
 10
712.2376981749838
 20
421.0032043919788
 30
0.0
 10
712.9475058385987
 20
420.5198576903964
 30
0.0
 10
713.2638573994896
 20
420.3044366808255
 30
0.0
  0
SPLINE
  5
CA
330
1F
100
AcDbEntity
  8
0
  6
Continuous
 62
     7
370
    25
100
AcDbSpline
210
0.0
220
0.0
230
1.0
 70
     8
 71
     3
 72
     9
 73
     5
 74
     0
 42
0.000000001
 43
0.00000001
 40
0.0
 40
0.0
 40
0.0
 40
0.0
 40
0.5565668859991317
 40
1.0
 40
1.0
 40
1.0
 40
1.0
 10
709.0555273344776
 20
420.200009343179
 30
0.0
 10
709.362625800997
 20
420.4331920429248
 30
0.0
 10
709.914398596405
 20
420.8521582186203
 30
0.0
 10
710.5938484495886
 20
420.9719204809244
 30
0.0
 10
710.8951390137931
 20
421.0250270338376
 30
0.0
  0
LINE
  5
CB
330
1F
100
AcDbEntity
  8
0
  6
Continuous
 62
     7
370
    25
100
AcDbLine
 10
708.9383557787
 20
420.0937044592
 30
0.0
 11
709.0555273345
 21
420.2000093432
 31
0.0
  0
LINE
  5
CC
330
1F
100
AcDbEntity
  8
0
  6
Continuous
 62
     7
370
    25
100
AcDbLine
 10
709.0999998501
 20
419.9313116045
 30
0.0
 11
708.9383557787
 21
420.0937044592
 31
0.0
  0
LINE
  5
CD
330
1F
100
AcDbEntity
  8
0
  6
Continuous
 62
     7
370
    25
100
AcDbLine
 10
709.2616439214
 20
419.7689187498
 30
0.0
 11
709.0999998501
 21
419.9313116045
 31
0.0
  0
LINE
  5
CE
330
1F
100
AcDbEntity
  8
0
  6
Continuous
 62
     7
370
    25
100
AcDbLine
 10
709.4116427353
 20
419.8988866778
 30
0.0
 11
709.2616439214
 21
419.7689187498
 31
0.0
  0
SPLINE
  5
CF
330
1F
100
AcDbEntity
  8
0
  6
Continuous
 62
     7
370
    25
100
AcDbSpline
210
0.0
220
0.0
230
1.0
 70
     8
 71
     3
 72
     8
 73
     4
 74
     0
 42
0.000000001
 43
0.00000001
 40
0.0
 40
0.0
 40
0.0
 40
0.0
 40
1.0
 40
1.0
 40
1.0
 40
1.0
 10
710.682149913337
 20
420.5276767729404
 30
0.0
 10
710.186604653337
 20
420.4212771929404
 30
0.0
 10
709.7852748433371
 20
420.2226533129403
 30
0.0
 10
709.4116429833371
 20
419.8988867229403
 30
0.0
  0
SPLINE
  5
D0
330
1F
100
AcDbEntity
  8
0
  6
Continuous
 62
     7
370
    25
100
AcDbSpline
210
0.0
220
0.0
230
1.0
 70
     8
 71
     3
 72
     8
 73
     4
 74
     0
 42
0.000000001
 43
0.00000001
 40
0.0
 40
0.0
 40
0.0
 40
0.0
 40
1.0
 40
1.0
 40
1.0
 40
1.0
 10
711.219254103337
 20
420.5694316329403
 30
0.0
 10
710.933579483337
 20
420.5694316329403
 30
0.0
 10
710.844288673337
 20
420.5624902229404
 30
0.0
 10
710.682149913337
 20
420.5276767729404
 30
0.0
  0
SPLINE
  5
D1
330
1F
100
AcDbEntity
  8
0
  6
Continuous
 62
     7
370
    25
100
AcDbSpline
210
0.0
220
0.0
230
1.0
 70
     8
 71
     3
 72
    11
 73
     7
 74
     0
 42
0.000000001
 43
0.00000001
 40
0.0
 40
0.0
 40
0.0
 40
0.0
 40
0.2830737170519328
 40
0.5618689957065023
 40
0.7801990268601474
 40
1.0
 40
1.0
 40
1.0
 40
1.0
 10
712.1418856432697
 20
418.9732563467343
 30
0.0
 10
711.9769858006806
 20
419.0773110327831
 30
0.0
 10
711.6496784479788
 20
419.2838476994777
 30
0.0
 10
711.1033730928942
 20
419.3222521130963
 30
0.0
 10
710.6188424707373
 20
419.2152554709631
 30
0.0
 10
710.3746839865386
 20
419.0398734819958
 30
0.0
 10
710.2521948864719
 20
418.9518880815824
 30
0.0
  0
LINE
  5
D2
330
1F
100
AcDbEntity
  8
0
  6
Continuous
 62
     7
370
    25
100
AcDbLine
 10
712.24033389
 20
418.8931179018
 30
0.0
 11
712.1418856433
 21
418.9732563467
 31
0.0
  0
LINE
  5
D3
330
1F
100
AcDbEntity
  8
0
  6
Continuous
 62
     7
370
    25
100
AcDbLine
 10
712.3965464881
 20
419.0459740134
 30
0.0
 11
712.24033389
 21
418.8931179018
 31
0.0
  0
SPLINE
  5
D4
330
1F
100
AcDbEntity
  8
0
  6
Continuous
 62
     7
370
    25
100
AcDbSpline
210
0.0
220
0.0
230
1.0
 70
     8
 71
     3
 72
     8
 73
     4
 74
     0
 42
0.000000001
 43
0.00000001
 40
0.0
 40
0.0
 40
0.0
 40
0.0
 40
0.9999775156370023
 40
0.9999775156370023
 40
0.9999775156370023
 40
0.9999775156370023
 10
712.552754103337
 20
419.2141170429404
 30
0.0
 10
712.552754103337
 20
419.2056980522403
 30
0.0
 10
712.4824632643331
 20
419.130032175649
 30
0.0
 10
712.396551468507
 20
419.0459689234066
 30
0.0
  0
SPLINE
  5
D5
330
1F
100
AcDbEntity
  8
0
  6
Continuous
 62
     7
370
    25
100
AcDbSpline
210
0.0
220
0.0
230
1.0
 70
     8
 71
     3
 72
     8
 73
     4
 74
     0
 42
0.000000001
 43
0.00000001
 40
0.0
 40
0.0
 40
0.0
 40
0.0
 40
1.0
 40
1.0
 40
1.0
 40
1.0
 10
712.308479093337
 20
419.4242876329404
 30
0.0
 10
712.442105033337
 20
419.3339286929403
 30
0.0
 10
712.552754103337
 20
419.2387286929404
 30
0.0
 10
712.552754103337
 20
419.2141170429404
 30
0.0
  0
SPLINE
  5
D6
330
1F
100
AcDbEntity
  8
0
  6
Continuous
 62
     7
370
    25
100
AcDbSpline
210
0.0
220
0.0
230
1.0
 70
     8
 71
     3
 72
     8
 73
     4
 74
     0
 42
0.000000001
 43
0.00000001
 40
0.0
 40
0.0
 40
0.0
 40
0.0
 40
1.0
 40
1.0
 40
1.0
 40
1.0
 10
711.686086483337
 20
419.7053875429403
 30
0.0
 10
711.897014683337
 20
419.6491149629404
 30
0.0
 10
712.1348425533371
 20
419.5417019229404
 30
0.0
 10
712.308479093337
 20
419.4242876329404
 30
0.0
  0
SPLINE
  5
D7
330
1F
100
AcDbEntity
  8
0
  6
Continuous
 62
     7
370
    25
100
AcDbSpline
210
0.0
220
0.0
230
1.0
 70
     8
 71
     3
 72
     9
 73
     5
 74
     0
 42
0.000000001
 43
0.00000001
 40
0.0
 40
0.0
 40
0.0
 40
0.0
 40
0.6251549374481641
 40
0.9999999999999999
 40
0.9999999999999999
 40
0.9999999999999999
 40
0.9999999999999999
 10
711.2099930992385
 20
419.7533321352323
 30
0.0
 10
711.310638662669
 20
419.7550515591343
 30
0.0
 10
711.4716316540085
 20
419.7578019555544
 30
0.0
 10
711.6276154453569
 20
419.7196727448734
 30
0.0
 10
711.686085199382
 20
419.7053801985105
 30
0.0
  0
SPLINE
  5
D8
330
1F
100
AcDbEntity
  8
0
  6
Continuous
 62
     7
370
    25
100
AcDbSpline
210
0.0
220
0.0
230
1.0
 70
     8
 71
     3
 72
     9
 73
     5
 74
     0
 42
0.000000001
 43
0.00000001
 40
0.0
 40
0.0
 40
0.0
 40
0.0
 40
0.4753890109183287
 40
0.9999999999999999
 40
0.9999999999999999
 40
0.9999999999999999
 40
0.9999999999999999
 10
710.7339009990951
 20
419.7053801985105
 30
0.0
 10
710.8083701255971
 20
419.7222764565706
 30
0.0
 10
710.9650189432841
 20
419.7578184183578
 30
0.0
 10
711.1256987217383
 20
419.7548758427384
 30
0.0
 10
711.2099930992385
 20
419.7533321352323
 30
0.0
  0
SPLINE
  5
D9
330
1F
100
AcDbEntity
  8
0
  6
Continuous
 62
     7
370
    25
100
AcDbSpline
210
0.0
220
0.0
230
1.0
 70
     8
 71
     3
 72
     8
 73
     4
 74
     0
 42
0.000000001
 43
0.00000001
 40
0.0
 40
0.0
 40
0.0
 40
0.0
 40
1.0
 40
1.0
 40
1.0
 40
1.0
 10
709.936538193337
 20
419.2923540829403
 30
0.0
 10
710.162012673337
 20
419.4830723729403
 30
0.0
 10
710.439636243337
 20
419.6268819829403
 30
0.0
 10
710.733900843337
 20
419.7053875429403
 30
0.0
  0
LINE
  5
DA
330
1F
100
AcDbEntity
  8
0
  6
Continuous
 62
     7
370
    25
100
AcDbLine
 10
709.8298959782
 20
419.2021381827
 30
0.0
 11
709.9365398636
 21
419.2923498125
 31
0.0
  0
LINE
  5
DB
330
1F
100
AcDbEntity
  8
0
  6
Continuous
 62
     7
370
    25
100
AcDbLine
 10
709.9917151382
 20
419.039566514
 30
0.0
 11
709.8298959782
 21
419.2021381827
 31
0.0
  0
SPLINE
  5
DC
330
1F
100
AcDbEntity
  8
0
  6
Continuous
 62
     7
370
    25
100
AcDbSpline
210
0.0
220
0.0
230
1.0
 70
     8
 71
     3
 72
    16
 73
    12
 74
     0
 42
0.000000001
 43
0.00000001
 40
0.0
 40
0.0
 40
0.0
 40
0.0
 40
0.0004935641968853
 40
0.001163678434705
 40
0.0025039069103443
 40
0.0061031516330899
 40
0.0161755469465621
 40
0.0451433813438153
 40
0.1298275636111419
 40
0.3707299479699976
 40
1.0
 40
1.0
 40
1.0
 40
1.0
 10
710.1603366782924
 20
418.8769948454221
 30
0.0
 10
710.1602990566407
 20
418.8770036997391
 30
0.0
 10
710.1602103559102
 20
418.8770245756007
 30
0.0
 10
710.1600327287247
 20
418.8771082403458
 30
0.0
 10
710.1596188784173
 20
418.8772555720718
 30
0.0
 10
710.1586567669657
 20
418.8779479440323
 30
0.0
 10
710.156021800895
 20
418.8799642615832
 30
0.0
 10
710.148699235323
 20
418.8863036579417
 30
0.0
 10
710.1283814412243
 20
418.905098819586
 30
0.0
 10
710.0746088667399
 20
418.9568262720807
 30
0.0
 10
710.0265030952534
 20
419.0048429706171
 30
0.0
 10
709.9917151382228
 20
419.039566514047
 30
0.0
  0
SPLINE
  5
DD
330
1F
100
AcDbEntity
  8
0
  6
Continuous
 62
     7
370
    25
100
AcDbSpline
210
0.0
220
0.0
230
1.0
 70
     8
 71
     3
 72
    13
 73
     9
 74
     0
 42
0.000000001
 43
0.00000001
 40
0.0
 40
0.0
 40
0.0
 40
0.0
 40
0.7495400631801212
 40
0.9394941028397723
 40
0.9839353106156541
 40
0.9949434888964005
 40
0.9978069757288306
 40
1.0
 40
1.0
 40
1.0
 40
1.0
 10
710.2521948864719
 20
418.9518880815824
 30
0.0
 10
710.2298223928633
 20
418.9324549996253
 30
0.0
 10
710.2017800948678
 20
418.9080970409309
 30
0.0
 10
710.171257172749
 20
418.8838224995768
 30
0.0
 10
710.1632659595788
 20
418.8783554009788
 30
0.0
 10
710.1612324357579
 20
418.8772192383081
 30
0.0
 10
710.1606159728038
 20
418.8770594367641
 30
0.0
 10
710.1604211664163
 20
418.8770143846578
 30
0.0
 10
710.1603366782924
 20
418.8769948454221
 30
0.0
  0
LINE
  5
DE
330
1F
100
AcDbEntity
  8
0
  6
Continuous
 62
     7
370
    25
100
AcDbLine
 10
694.4393806508
 20
408.3300125571
 30
0.0
 11
694.4393806508
 21
404.284168479
 31
0.0
  0
LINE
  5
DF
330
1F
100
AcDbEntity
  8
0
  6
Continuous
 62
     7
370
    25
100
AcDbLine
 10
693.4762962511
 20
409.4449174376
 30
0.0
 11
694.4393806508
 21
408.3300125571
 31
0.0
  0
SPLINE
  5
E0
330
1F
100
AcDbEntity
  8
0
  6
Continuous
 62
     7
370
    25
100
AcDbSpline
210
0.0
220
0.0
230
1.0
 70
     8
 71
     3
 72
    17
 73
    13
 74
     0
 42
0.000000001
 43
0.00000001
 40
0.0
 40
0.0
 40
0.0
 40
0.0
 40
0.0001217830799608
 40
0.000312525282237
 40
0.0007323777700092
 40
0.0018289767805927
 40
0.004987471361645
 40
0.0143023346632898
 40
0.0422618022023033
 40
0.1256784017550024
 40
0.3660835660114056
 40
1.0
 40
1.0
 40
1.0
 40
1.0
 10
692.5132118513843
 20
410.5797004671415
 30
0.0
 10
692.5132199266492
 20
410.5796404111342
 30
0.0
 10
692.5132406497611
 20
410.5794862926748
 30
0.0
 10
692.5133752744758
 20
410.579146025953
 30
0.0
 10
692.5137356821932
 20
410.5783803726947
 30
0.0
 10
692.5149827466884
 20
410.5764165935663
 30
0.0
 10
692.5188304771513
 20
410.5708966969917
 30
0.0
 10
692.5311141756702
 20
410.5550176030126
 30
0.0
 10
692.568724671837
 20
410.5084307754896
 30
0.0
 10
692.6804904349045
 20
410.3743317061433
 30
0.0
 10
692.9878272457121
 20
410.0118961747583
 30
0.0
 10
693.2709914362065
 20
409.6832201003843
 30
0.0
 10
693.4762962510845
 20
409.4449174375852
 30
0.0
  0
SPLINE
  5
E1
330
1F
100
AcDbEntity
  8
0
  6
Continuous
 62
     7
370
    25
100
AcDbSpline
210
0.0
220
0.0
230
1.0
 70
     8
 71
     3
 72
    14
 73
    10
 74
     0
 42
0.000000001
 43
0.00000001
 40
0.0
 40
0.0
 40
0.0
 40
0.0
 40
0.7632913013640498
 40
0.9486005075819216
 40
0.9887008221931332
 40
0.9972779828625847
 40
0.9992272708384111
 40
0.999700414667757
 40
1.0
 40
1.0
 40
1.0
 40
1.0
 10
693.3003470649978
 20
411.510725018533
 30
0.0
 10
693.0979110517432
 20
411.2756308786487
 30
0.0
 10
692.8463283275811
 20
410.9834614015103
 30
0.0
 10
692.5880264613045
 20
410.6755515978138
 30
0.0
 10
692.5283588847886
 20
410.6014993391334
 30
0.0
 10
692.5161101258161
 20
410.5849428422173
 30
0.0
 10
692.5137388125956
 20
410.5811498043378
 30
0.0
 10
692.5132875547821
 20
410.5801309120989
 30
0.0
 10
692.5132330015485
 20
410.5798207257001
 30
0.0
 10
692.5132118513843
 20
410.5797004671414
 30
0.0
  0
LINE
  5
E2
330
1F
100
AcDbEntity
  8
0
  6
Continuous
 62
     7
370
    25
100
AcDbLine
 10
694.0874822786
 20
412.4218714209
 30
0.0
 11
693.300347065
 21
411.5107250185
 31
0.0
  0
LINE
  5
E3
330
1F
100
AcDbEntity
  8
0
  6
Continuous
 62
     7
370
    25
100
AcDbLine
 10
694.0874822786
 20
416.467715499
 30
0.0
 11
694.0874822786
 21
412.4218714209
 31
0.0
  0
LINE
  5
E4
330
1F
100
AcDbEntity
  8
0
  6
Continuous
 62
     7
370
    25
100
AcDbLine
 10
693.9624689868
 20
416.6160714598
 30
0.0
 11
694.0874822786
 21
416.467715499
 31
0.0
  0
SPLINE
  5
E5
330
1F
100
AcDbEntity
  8
0
  6
Continuous
 62
     7
370
    25
100
AcDbSpline
210
0.0
220
0.0
230
1.0
 70
     8
 71
     3
 72
     8
 73
     4
 74
     0
 42
0.000000001
 43
0.00000001
 40
0.0
 40
0.0
 40
0.0
 40
0.0
 40
1.0
 40
1.0
 40
1.0
 40
1.0
 10
692.494691603337
 20
418.3202907529404
 30
0.0
 10
693.233209803337
 20
417.4645763829404
 30
0.0
 10
693.893709013337
 20
416.6976808829403
 30
0.0
 10
693.962467633337
 20
416.6160786629404
 30
0.0
  0
LINE
  5
E6
330
1F
100
AcDbEntity
  8
0
  6
Continuous
 62
     7
370
    25
100
AcDbLine
 10
691.1519311717
 20
419.8761475058
 30
0.0
 11
692.4946934333
 21
418.3202874632
 31
0.0
  0
LINE
  5
E7
330
1F
100
AcDbEntity
  8
0
  6
Continuous
 62
     7
370
    25
100
AcDbLine
 10
676.8445849767
 20
419.8771309824
 30
0.0
 11
691.1519311717
 21
419.8761475058
 31
0.0
  0
LINE
  5
E8
330
1F
100
AcDbEntity
  8
0
  6
Continuous
 62
     7
370
    25
100
AcDbLine
 10
676.8445849767
 20
400.8747529955
 30
0.0
 11
676.8445849767
 21
419.8771309824
 31
0.0
  0
LINE
  5
E9
330
1F
100
AcDbEntity
  8
0
  6
Continuous
 62
     7
370
    25
100
AcDbLine
 10
691.5038258186
 20
400.8758258791
 30
0.0
 11
676.8445849767
 21
400.8747529955
 31
0.0
  0
LINE
  5
EA
330
1F
100
AcDbEntity
  8
0
  6
Continuous
 62
     7
370
    25
100
AcDbLine
 10
692.8465880802
 20
402.431715724
 30
0.0
 11
691.5038258186
 21
400.8758258791
 31
0.0
  0
SPLINE
  5
EB
330
1F
100
AcDbEntity
  8
0
  6
Continuous
 62
     7
370
    25
100
AcDbSpline
210
0.0
220
0.0
230
1.0
 70
     8
 71
     3
 72
     8
 73
     4
 74
     0
 42
0.000000001
 43
0.00000001
 40
0.0000235024745038
 40
0.0000235024745038
 40
0.0000235024745038
 40
0.0000235024745038
 40
1.0
 40
1.0
 40
1.0
 40
1.0
 10
694.3143585943633
 20
404.1358763710755
 30
0.0
 10
694.2455737765622
 20
404.0542840356886
 30
0.0
 10
693.5850882563318
 20
403.2874189611009
 30
0.0
 10
692.846587413337
 20
402.4317062229404
 30
0.0
  0
LINE
  5
EC
330
1F
100
AcDbEntity
  8
0
  6
Continuous
 62
     7
370
    25
100
AcDbLine
 10
694.4393806508
 20
404.284168479
 30
0.0
 11
694.3143636337
 21
404.1358721228
 31
0.0
  0
LINE
  5
ED
330
1F
100
AcDbEntity
  8
0
  6
Continuous
 62
     7
370
    25
100
AcDbLine
 10
665.1395961991
 20
411.7372226687
 30
0.0
 11
665.1395961991
 21
400.8747529955
 31
0.0
  0
LINE
  5
EE
330
1F
100
AcDbEntity
  8
0
  6
Continuous
 62
     7
370
    25
100
AcDbLine
 10
666.306260263
 20
413.0892348261
 30
0.0
 11
665.1395961991
 21
411.7372226687
 31
0.0
  0
LINE
  5
EF
330
1F
100
AcDbEntity
  8
0
  6
Continuous
 62
     7
370
    25
100
AcDbLine
 10
674.5057806721
 20
413.1077718706
 30
0.0
 11
666.306260263
 21
413.0892348261
 31
0.0
  0
LINE
  5
F0
330
1F
100
AcDbEntity
  8
0
  6
Continuous
 62
     7
370
    25
100
AcDbLine
 10
673.9259019842
 20
414.4505155058
 30
0.0
 11
674.5057806721
 21
413.1077718706
 31
0.0
  0
LINE
  5
F1
330
1F
100
AcDbEntity
  8
0
  6
Continuous
 62
     7
370
    25
100
AcDbLine
 10
673.3460232964
 20
415.7932889433
 30
0.0
 11
673.9259019842
 21
414.4505155058
 31
0.0
  0
LINE
  5
F2
330
1F
100
AcDbEntity
  8
0
  6
Continuous
 62
     7
370
    25
100
AcDbLine
 10
665.7194674363
 20
415.8026468726
 30
0.0
 11
673.3460232964
 21
415.7932889433
 31
0.0
  0
LINE
  5
F3
330
1F
100
AcDbEntity
  8
0
  6
Continuous
 62
     7
370
    25
100
AcDbLine
 10
662.7872765413
 20
412.4073576899
 30
0.0
 11
665.7194674363
 21
415.8026468726
 31
0.0
  0
LINE
  5
F4
330
1F
100
AcDbEntity
  8
0
  6
Continuous
 62
     7
370
    25
100
AcDbLine
 10
662.7872765413
 20
406.6410553427
 30
0.0
 11
662.7872765413
 21
412.4073576899
 31
0.0
  0
LINE
  5
F5
330
1F
100
AcDbEntity
  8
0
  6
Continuous
 62
     7
370
    25
100
AcDbLine
 10
662.7874479046
 20
400.8747529955
 30
0.0
 11
662.7872765413
 21
406.6410553427
 31
0.0
  0
LINE
  5
F6
330
1F
100
AcDbEntity
  8
0
  6
Continuous
 62
     7
370
    25
100
AcDbLine
 10
665.1395961991
 20
400.8747529955
 30
0.0
 11
662.7874479046
 21
400.8747529955
 31
0.0
  0
LINE
  5
F7
330
1F
100
AcDbEntity
  8
0
  6
Continuous
 62
     7
370
    25
100
AcDbLine
 10
660.4536503902
 20
404.2690885039
 30
0.0
 11
657.5223982682
 21
400.8747529955
 31
0.0
  0
LINE
  5
F8
330
1F
100
AcDbEntity
  8
0
  6
Continuous
 62
     7
370
    25
100
AcDbLine
 10
660.4536503902
 20
415.8025574656
 30
0.0
 11
660.4536503902
 21
404.2690885039
 31
0.0
  0
LINE
  5
F9
330
1F
100
AcDbEntity
  8
0
  6
Continuous
 62
     7
370
    25
100
AcDbLine
 10
658.1015020957
 20
415.8025574656
 30
0.0
 11
660.4536503902
 21
415.8025574656
 31
0.0
  0
LINE
  5
FA
330
1F
100
AcDbEntity
  8
0
  6
Continuous
 62
     7
370
    25
100
AcDbLine
 10
658.0998033633
 20
404.9400877924
 30
0.0
 11
658.1015020957
 21
415.8025574656
 31
0.0
  0
LINE
  5
FB
330
1F
100
AcDbEntity
  8
0
  6
Continuous
 62
     7
370
    25
100
AcDbLine
 10
656.9432124844
 20
403.6065828772
 30
0.0
 11
658.0998033633
 21
404.9400877924
 31
0.0
  0
LINE
  5
FC
330
1F
100
AcDbEntity
  8
0
  6
Continuous
 62
     7
370
    25
100
AcDbLine
 10
648.7333059659
 20
403.597224948
 30
0.0
 11
656.9432124844
 21
403.6065828772
 31
0.0
  0
LINE
  5
FD
330
1F
100
AcDbEntity
  8
0
  6
Continuous
 62
     7
370
    25
100
AcDbLine
 10
648.1482267728
 20
404.2732906313
 30
0.0
 11
648.7333059659
 21
403.597224948
 31
0.0
  0
LINE
  5
FE
330
1F
100
AcDbEntity
  8
0
  6
Continuous
 62
     7
370
    25
100
AcDbLine
 10
647.5631475797
 20
404.9493563147
 30
0.0
 11
648.1482267728
 21
404.2732906313
 31
0.0
  0
LINE
  5
FF
330
1F
100
AcDbEntity
  8
0
  6
Continuous
 62
     7
370
    25
100
AcDbLine
 10
647.5631475797
 20
415.8025574656
 30
0.0
 11
647.5631475797
 21
404.9493563147
 31
0.0
  0
LINE
  5
100
330
1F
100
AcDbEntity
  8
0
  6
Continuous
 62
     7
370
    25
100
AcDbLine
 10
645.2110067358
 20
415.8025574656
 30
0.0
 11
647.5631475797
 21
415.8025574656
 31
0.0
  0
LINE
  5
101
330
1F
100
AcDbEntity
  8
0
  6
Continuous
 62
     7
370
    25
100
AcDbLine
 10
645.2110067358
 20
404.2729330035
 30
0.0
 11
645.2110067358
 21
415.8025574656
 31
0.0
  0
LINE
  5
102
330
1F
100
AcDbEntity
  8
0
  6
Continuous
 62
     7
370
    25
100
AcDbLine
 10
646.6782868257
 20
402.5738429995
 30
0.0
 11
645.2110067358
 21
404.2729330035
 31
0.0
  0
LINE
  5
103
330
1F
100
AcDbEntity
  8
0
  6
Continuous
 62
     7
370
    25
100
AcDbLine
 10
648.1455743661
 20
400.8747529955
 30
0.0
 11
646.6782868257
 21
402.5738429995
 31
0.0
  0
LINE
  5
104
330
1F
100
AcDbEntity
  8
0
  6
Continuous
 62
     7
370
    25
100
AcDbLine
 10
657.5223982682
 20
400.8747529955
 30
0.0
 11
648.1455743661
 21
400.8747529955
 31
0.0
  0
LINE
  5
105
330
1F
100
AcDbEntity
  8
0
  6
Continuous
 62
     7
370
    25
100
AcDbLine
 10
631.1442807665
 20
403.5989534827
 30
0.0
 11
637.0014950981
 21
403.5981190176
 31
0.0
  0
LINE
  5
106
330
1F
100
AcDbEntity
  8
0
  6
Continuous
 62
     7
370
    25
100
AcDbLine
 10
630.5660635581
 20
404.2695057364
 30
0.0
 11
631.1442807665
 21
403.5989534827
 31
0.0
  0
LINE
  5
107
330
1F
100
AcDbEntity
  8
0
  6
Continuous
 62
     7
370
    25
100
AcDbLine
 10
629.9878538003
 20
404.9400877924
 30
0.0
 11
630.5660635581
 21
404.2695057364
 31
0.0
  0
LINE
  5
108
330
1F
100
AcDbEntity
  8
0
  6
Continuous
 62
     7
370
    25
100
AcDbLine
 10
629.9868926754
 20
411.7372226687
 30
0.0
 11
629.9878538003
 21
404.9400877924
 31
0.0
  0
LINE
  5
109
330
1F
100
AcDbEntity
  8
0
  6
Continuous
 62
     7
370
    25
100
AcDbLine
 10
631.1535567394
 20
413.0892348261
 30
0.0
 11
629.9868926754
 21
411.7372226687
 31
0.0
  0
LINE
  5
10A
330
1F
100
AcDbEntity
  8
0
  6
Continuous
 62
     7
370
    25
100
AcDbLine
 10
642.8696915856
 20
413.1077718706
 30
0.0
 11
631.1535567394
 21
413.0892348261
 31
0.0
  0
LINE
  5
10B
330
1F
100
AcDbEntity
  8
0
  6
Continuous
 62
     7
370
    25
100
AcDbLine
 10
642.581361567
 20
413.7745094271
 30
0.0
 11
642.8696915856
 21
413.1077718706
 31
0.0
  0
SPLINE
  5
10C
330
1F
100
AcDbEntity
  8
0
  6
Continuous
 62
     7
370
    25
100
AcDbSpline
210
0.0
220
0.0
230
1.0
 70
     8
 71
     3
 72
     8
 73
     4
 74
     0
 42
0.000000001
 43
0.00000001
 40
0.0
 40
0.0
 40
0.0
 40
0.0
 40
1.0
 40
1.0
 40
1.0
 40
1.0
 10
641.9993489433369
 20
415.1219074529404
 30
0.0
 10
642.160867293337
 20
414.7475550829404
 30
0.0
 10
642.422772223337
 20
414.1412293629404
 30
0.0
 10
642.581358763337
 20
413.7745168629403
 30
0.0
  0
LINE
  5
10D
330
1F
100
AcDbEntity
  8
0
  6
Continuous
 62
     7
370
    25
100
AcDbLine
 10
641.7056799283
 20
415.8025574656
 30
0.0
 11
641.9993520131
 21
415.1219022246
 31
0.0
  0
LINE
  5
10E
330
1F
100
AcDbEntity
  8
0
  6
Continuous
 62
     7
370
    25
100
AcDbLine
 10
630.5666894069
 20
415.8025574656
 30
0.0
 11
641.7056799283
 21
415.8025574656
 31
0.0
  0
LINE
  5
10F
330
1F
100
AcDbEntity
  8
0
  6
Continuous
 62
     7
370
    25
100
AcDbLine
 10
627.6345730176
 20
412.4073576899
 30
0.0
 11
630.5666894069
 21
415.8025574656
 31
0.0
  0
LINE
  5
110
330
1F
100
AcDbEntity
  8
0
  6
Continuous
 62
     7
370
    25
100
AcDbLine
 10
627.6349455467
 20
404.2733204336
 30
0.0
 11
627.6345730176
 21
412.4073576899
 31
0.0
  0
LINE
  5
111
330
1F
100
AcDbEntity
  8
0
  6
Continuous
 62
     7
370
    25
100
AcDbLine
 10
629.1024789562
 20
402.5740516157
 30
0.0
 11
627.6349455467
 21
404.2733204336
 31
0.0
  0
LINE
  5
112
330
1F
100
AcDbEntity
  8
0
  6
Continuous
 62
     7
370
    25
100
AcDbLine
 10
630.5698633542
 20
400.8747529955
 30
0.0
 11
629.1024789562
 21
402.5740516157
 31
0.0
  0
LINE
  5
113
330
1F
100
AcDbEntity
  8
0
  6
Continuous
 62
     7
370
    25
100
AcDbLine
 10
641.704212164
 20
400.8747529955
 30
0.0
 11
630.5698633542
 21
400.8747529955
 31
0.0
  0
LINE
  5
114
330
1F
100
AcDbEntity
  8
0
  6
Continuous
 62
     7
370
    25
100
AcDbLine
 10
642.2816172591
 20
402.2128772707
 30
0.0
 11
641.704212164
 21
400.8747529955
 31
0.0
  0
SPLINE
  5
115
330
1F
100
AcDbEntity
  8
0
  6
Continuous
 62
     7
370
    25
100
AcDbSpline
210
0.0
220
0.0
230
1.0
 70
     8
 71
     3
 72
     8
 73
     4
 74
     0
 42
0.000000001
 43
0.00000001
 40
0.0
 40
0.0
 40
0.0
 40
0.0
 40
1.0
 40
1.0
 40
1.0
 40
1.0
 10
642.858860113337
 20
403.5741674729404
 30
0.0
 10
642.858860113337
 20
403.5614344029404
 30
0.0
 10
642.599185033337
 20
402.9488578929404
 30
0.0
 10
642.2816138633369
 20
402.2128862229404
 30
0.0
  0
SPLINE
  5
116
330
1F
100
AcDbEntity
  8
0
  6
Continuous
 62
     7
370
    25
100
AcDbSpline
210
0.0
220
0.0
230
1.0
 70
     8
 71
     3
 72
    18
 73
    14
 74
     0
 42
0.000000001
 43
0.00000001
 40
0.0
 40
0.0
 40
0.0
 40
0.0
 40
0.3884756924116987
 40
0.6668944238650973
 40
0.8508163482657835
 40
0.9558010388136023
 40
0.9974191760365813
 40
0.9990857994474566
 40
0.9997795305781493
 40
0.9999132656105
 40
0.9999458401625332
 40
0.9999742789800471
 40
1.0
 40
1.0
 40
1.0
 40
1.0
 10
637.0014950981399
 20
403.5981190176328
 30
0.0
 10
637.7600997366818
 20
403.5981899667532
 30
0.0
 10
639.0623928099523
 20
403.59831176478
 30
0.0
 10
640.72365942376
 20
403.5944174130518
 30
0.0
 10
641.8317974892152
 20
403.5957251645266
 30
0.0
 10
642.4766931104022
 20
403.5837178986512
 30
0.0
 10
642.7667672408387
 20
403.5865872732224
 30
0.0
 10
642.8522226070596
 20
403.5765640820014
 30
0.0
 10
642.856972836939
 20
403.5755347961119
 30
0.0
 10
642.8585219507875
 20
403.5747636444537
 30
0.0
 10
642.858760840912
 20
403.5744659643079
 30
0.0
 10
642.8588456387248
 20
403.5743150892949
 30
0.0
 10
642.8588543190231
 20
403.5742085479345
 30
0.0
 10
642.8588584413787
 20
403.5741579504331
 30
0.0
  0
LINE
  5
117
330
1F
100
AcDbEntity
  8
0
  6
Continuous
 62
     7
370
    25
100
AcDbLine
 10
613.5496527305
 20
403.5989534827
 30
0.0
 11
618.8256174674
 21
403.5981190176
 31
0.0
  0
LINE
  5
118
330
1F
100
AcDbEntity
  8
0
  6
Continuous
 62
     7
370
    25
100
AcDbLine
 10
612.9714429727
 20
404.2695057364
 30
0.0
 11
613.5496527305
 21
403.5989534827
 31
0.0
  0
LINE
  5
119
330
1F
100
AcDbEntity
  8
0
  6
Continuous
 62
     7
370
    25
100
AcDbLine
 10
612.3932332149
 20
404.9400877924
 30
0.0
 11
612.9714429727
 21
404.2695057364
 31
0.0
  0
LINE
  5
11A
330
1F
100
AcDbEntity
  8
0
  6
Continuous
 62
     7
370
    25
100
AcDbLine
 10
612.3923093429
 20
411.7372226687
 30
0.0
 11
612.3932332149
 21
404.9400877924
 31
0.0
  0
LINE
  5
11B
330
1F
100
AcDbEntity
  8
0
  6
Continuous
 62
     7
370
    25
100
AcDbLine
 10
612.9794895997
 20
412.4178779097
 30
0.0
 11
612.3923093429
 21
411.7372226687
 31
0.0
  0
LINE
  5
11C
330
1F
100
AcDbEntity
  8
0
  6
Continuous
 62
     7
370
    25
100
AcDbLine
 10
613.5666847577
 20
413.0985033484
 30
0.0
 11
612.9794895997
 21
412.4178779097
 31
0.0
  0
LINE
  5
11D
330
1F
100
AcDbEntity
  8
0
  6
Continuous
 62
     7
370
    25
100
AcDbLine
 10
621.7601329437
 20
413.0985033484
 30
0.0
 11
613.5666847577
 21
413.0985033484
 31
0.0
  0
LINE
  5
11E
330
1F
100
AcDbEntity
  8
0
  6
Continuous
 62
     7
370
    25
100
AcDbLine
 10
622.3452866426
 20
412.4196958514
 30
0.0
 11
621.7601329437
 21
413.0985033484
 31
0.0
  0
LINE
  5
11F
330
1F
100
AcDbEntity
  8
0
  6
Continuous
 62
     7
370
    25
100
AcDbLine
 10
622.9304403415
 20
411.7409181567
 30
0.0
 11
622.3452866426
 21
412.4196958514
 31
0.0
  0
LINE
  5
120
330
1F
100
AcDbEntity
  8
0
  6
Continuous
 62
     7
370
    25
100
AcDbLine
 10
622.9304403415
 20
411.0478949519
 30
0.0
 11
622.9304403415
 21
411.7409181567
 31
0.0
  0
LINE
  5
121
330
1F
100
AcDbEntity
  8
0
  6
Continuous
 62
     7
370
    25
100
AcDbLine
 10
621.7588067403
 20
409.690667388
 30
0.0
 11
622.9304403415
 21
411.0478949519
 31
0.0
  0
LINE
  5
122
330
1F
100
AcDbEntity
  8
0
  6
Continuous
 62
     7
370
    25
100
AcDbLine
 10
613.5589063516
 20
409.690667388
 30
0.0
 11
621.7588067403
 21
409.690667388
 31
0.0
  0
LINE
  5
123
330
1F
100
AcDbEntity
  8
0
  6
Continuous
 62
     7
370
    25
100
AcDbLine
 10
613.5589063516
 20
406.9866430731
 30
0.0
 11
613.5589063516
 21
409.690667388
 31
0.0
  0
LINE
  5
124
330
1F
100
AcDbEntity
  8
0
  6
Continuous
 62
     7
370
    25
100
AcDbLine
 10
622.3548680892
 20
406.9866430731
 30
0.0
 11
613.5589063516
 21
406.9866430731
 31
0.0
  0
LINE
  5
125
330
1F
100
AcDbEntity
  8
0
  6
Continuous
 62
     7
370
    25
100
AcDbLine
 10
623.8185719004
 20
408.682216403
 30
0.0
 11
622.3548680892
 21
406.9866430731
 31
0.0
  0
LINE
  5
126
330
1F
100
AcDbEntity
  8
0
  6
Continuous
 62
     7
370
    25
100
AcDbLine
 10
625.2824247232
 20
410.3778195353
 30
0.0
 11
623.8185719004
 21
408.682216403
 31
0.0
  0
LINE
  5
127
330
1F
100
AcDbEntity
  8
0
  6
Continuous
 62
     7
370
    25
100
AcDbLine
 10
625.2824247232
 20
412.4116790266
 30
0.0
 11
625.2824247232
 21
410.3778195353
 31
0.0
  0
LINE
  5
128
330
1F
100
AcDbEntity
  8
0
  6
Continuous
 62
     7
370
    25
100
AcDbLine
 10
622.354659473
 20
415.8025574656
 30
0.0
 11
625.2824247232
 21
412.4116790266
 31
0.0
  0
LINE
  5
129
330
1F
100
AcDbEntity
  8
0
  6
Continuous
 62
     7
370
    25
100
AcDbLine
 10
612.9718900075
 20
415.8025574656
 30
0.0
 11
622.354659473
 21
415.8025574656
 31
0.0
  0
LINE
  5
12A
330
1F
100
AcDbEntity
  8
0
  6
Continuous
 62
     7
370
    25
100
AcDbLine
 10
610.0397736182
 20
412.4073576899
 30
0.0
 11
612.9718900075
 21
415.8025574656
 31
0.0
  0
LINE
  5
12B
330
1F
100
AcDbEntity
  8
0
  6
Continuous
 62
     7
370
    25
100
AcDbLine
 10
610.0401461473
 20
404.2733204336
 30
0.0
 11
610.0397736182
 21
412.4073576899
 31
0.0
  0
LINE
  5
12C
330
1F
100
AcDbEntity
  8
0
  6
Continuous
 62
     7
370
    25
100
AcDbLine
 10
611.5076870075
 20
402.5740516157
 30
0.0
 11
610.0401461473
 21
404.2733204336
 31
0.0
  0
LINE
  5
12D
330
1F
100
AcDbEntity
  8
0
  6
Continuous
 62
     7
370
    25
100
AcDbLine
 10
612.9752427688
 20
400.8747529955
 30
0.0
 11
611.5076870075
 21
402.5740516157
 31
0.0
  0
LINE
  5
12E
330
1F
100
AcDbEntity
  8
0
  6
Continuous
 62
     7
370
    25
100
AcDbLine
 10
622.9397237649
 20
400.8755278559
 30
0.0
 11
612.9752427688
 21
400.8747529955
 31
0.0
  0
LINE
  5
12F
330
1F
100
AcDbEntity
  8
0
  6
Continuous
 62
     7
370
    25
100
AcDbLine
 10
623.5120624652
 20
402.2035789461
 30
0.0
 11
622.9397237649
 21
400.8755278559
 31
0.0
  0
SPLINE
  5
130
330
1F
100
AcDbEntity
  8
0
  6
Continuous
 62
     7
370
    25
100
AcDbSpline
210
0.0
220
0.0
230
1.0
 70
     8
 71
     3
 72
     8
 73
     4
 74
     0
 42
0.000000001
 43
0.00000001
 40
0.0
 40
0.0
 40
0.0
 40
0.0
 40
1.0
 40
1.0
 40
1.0
 40
1.0
 10
624.0930016733371
 20
403.5644792629404
 30
0.0
 10
624.0882788433371
 20
403.5464177229404
 30
0.0
 10
623.826857333337
 20
402.9340153029404
 30
0.0
 10
623.5120661433369
 20
402.2035869329404
 30
0.0
  0
SPLINE
  5
131
330
1F
100
AcDbEntity
  8
0
  6
Continuous
 62
     7
370
    25
100
AcDbSpline
210
0.0
220
0.0
230
1.0
 70
     8
 71
     3
 72
    19
 73
    15
 74
     0
 42
0.000000001
 43
0.00000001
 40
0.0
 40
0.0
 40
0.0
 40
0.0
 40
0.4473796816801731
 40
0.7366763712395148
 40
0.9021363327325475
 40
0.978016935041622
 40
0.9930924186927368
 40
0.9971287631798391
 40
0.9980832131331084
 40
0.9987671988911551
 40
0.999145772725394
 40
0.9994501469393214
 40
0.999720621609063
 40
1.0
 40
1.0
 40
1.0
 40
1.0
 10
618.8256174674293
 20
403.5981190176328
 30
0.0
 10
619.6119211610717
 20
403.5979280254115
 30
0.0
 10
620.9066857099425
 20
403.5976135286601
 30
0.0
 10
622.4923654091148
 20
403.5968549219322
 30
0.0
 10
623.4248623098847
 20
403.5925341839759
 30
0.0
 10
623.8757080281623
 20
403.5884839817805
 30
0.0
 10
624.0424156897661
 20
403.5799858643145
 30
0.0
 10
624.0774672814025
 20
403.5750016158346
 30
0.0
 10
624.0870056145968
 20
403.572005588316
 30
0.0
 10
624.0901910093369
 20
403.5704014940218
 30
0.0
 10
624.0920759704952
 20
403.5688698847509
 30
0.0
 10
624.0929903338357
 20
403.567426230903
 30
0.0
 10
624.0932889840326
 20
403.5659118426905
 30
0.0
 10
624.0930967890894
 20
403.5649572306505
 30
0.0
 10
624.0929991355201
 20
403.5644721956571
 30
0.0
  0
LINE
  5
132
330
1F
100
AcDbEntity
  8
0
  6
Continuous
 62
     7
370
    25
100
AcDbLine
 10
748.4536499133
 20
104.2690765829
 30
0.0
 11
572.453650867
 21
104.2690765829
 31
0.0
  0
LINE
  5
133
330
1F
100
AcDbEntity
  8
0
  6
Continuous
 62
     7
370
    25
100
AcDbLine
 10
572.453650867
 20
104.2690765829
 30
0.0
 11
572.453650867
 21
454.2690706225
 31
0.0
  0
LINE
  5
134
330
1F
100
AcDbEntity
  8
0
  6
Continuous
 62
     7
370
    25
100
AcDbLine
 10
572.453650867
 20
454.2690706225
 30
0.0
 11
748.4536499133
 21
454.2690706225
 31
0.0
  0
LINE
  5
135
330
1F
100
AcDbEntity
  8
0
  6
Continuous
 62
     7
370
    25
100
AcDbLine
 10
748.4536499133
 20
454.2690706225
 30
0.0
 11
748.4536499133
 21
104.2690765829
 31
0.0
  0
ARC
  5
136
330
1F
100
AcDbEntity
  8
0
  6
Continuous
 62
     7
370
    25
100
AcDbCircle
 10
682.4536499133
 20
355.1190765829
 30
0.0
 40
2.000000000000114
100
AcDbArc
 50
360.0
 51
180.0
  0
LINE
  5
137
330
1F
100
AcDbEntity
  8
0
  6
Continuous
 62
     7
370
    25
100
AcDbLine
 10
680.4536462178
 20
340.419073102
 30
0.0
 11
680.4536462178
 21
355.1190686198
 31
0.0
  0
ARC
  5
138
330
1F
100
AcDbEntity
  8
0
  6
Continuous
 62
     7
370
    25
100
AcDbCircle
 10
682.4536499133
 20
340.4190765829
 30
0.0
 40
2.0
100
AcDbArc
 50
180.0
 51
0.0
  0
LINE
  5
139
330
1F
100
AcDbEntity
  8
0
  6
Continuous
 62
     7
370
    25
100
AcDbLine
 10
684.4536468735
 20
340.419073102
 30
0.0
 11
684.4536468735
 21
355.1190686198
 31
0.0
  0
ARC
  5
13A
330
1F
100
AcDbEntity
  8
0
  6
Continuous
 62
     7
370
    25
100
AcDbCircle
 10
638.4536499133
 20
355.1190765829
 30
0.0
 40
2.000000000000114
100
AcDbArc
 50
360.0
 51
180.0
  0
LINE
  5
13B
330
1F
100
AcDbEntity
  8
0
  6
Continuous
 62
     7
370
    25
100
AcDbLine
 10
636.4536464563
 20
340.419073102
 30
0.0
 11
636.4536464563
 21
355.1190686198
 31
0.0
  0
ARC
  5
13C
330
1F
100
AcDbEntity
  8
0
  6
Continuous
 62
     7
370
    25
100
AcDbCircle
 10
638.4536499133
 20
340.4190765829
 30
0.0
 40
2.0
100
AcDbArc
 50
180.0
 51
0.0
  0
LINE
  5
13D
330
1F
100
AcDbEntity
  8
0
  6
Continuous
 62
     7
370
    25
100
AcDbLine
 10
640.4536471119
 20
340.419073102
 30
0.0
 11
640.4536471119
 21
355.1190686198
 31
0.0
  0
ARC
  5
13E
330
1F
100
AcDbEntity
  8
0
  6
Continuous
 62
     7
370
    25
100
AcDbCircle
 10
682.4536499133
 20
305.1190765829
 30
0.0
 40
2.0
100
AcDbArc
 50
360.0
 51
180.0
  0
LINE
  5
13F
330
1F
100
AcDbEntity
  8
0
  6
Continuous
 62
     7
370
    25
100
AcDbLine
 10
680.4536462178
 20
290.4190760823
 30
0.0
 11
680.4536462178
 21
305.1190716
 31
0.0
  0
ARC
  5
140
330
1F
100
AcDbEntity
  8
0
  6
Continuous
 62
     7
370
    25
100
AcDbCircle
 10
682.4536499133
 20
290.4190765829
 30
0.0
 40
2.0
100
AcDbArc
 50
180.0
 51
0.0
  0
LINE
  5
141
330
1F
100
AcDbEntity
  8
0
  6
Continuous
 62
     7
370
    25
100
AcDbLine
 10
684.4536468735
 20
290.4190760823
 30
0.0
 11
684.4536468735
 21
305.1190716
 31
0.0
  0
ARC
  5
142
330
1F
100
AcDbEntity
  8
0
  6
Continuous
 62
     7
370
    25
100
AcDbCircle
 10
638.4536499133
 20
305.1190765829
 30
0.0
 40
2.0
100
AcDbArc
 50
360.0
 51
180.0
  0
LINE
  5
143
330
1F
100
AcDbEntity
  8
0
  6
Continuous
 62
     7
370
    25
100
AcDbLine
 10
636.4536464563
 20
290.4190760823
 30
0.0
 11
636.4536464563
 21
305.1190716
 31
0.0
  0
ARC
  5
144
330
1F
100
AcDbEntity
  8
0
  6
Continuous
 62
     7
370
    25
100
AcDbCircle
 10
638.4536499133
 20
290.4190765829
 30
0.0
 40
2.0
100
AcDbArc
 50
180.0
 51
0.0
  0
LINE
  5
145
330
1F
100
AcDbEntity
  8
0
  6
Continuous
 62
     7
370
    25
100
AcDbLine
 10
640.4536471119
 20
290.4190760823
 30
0.0
 11
640.4536471119
 21
305.1190716
 31
0.0
  0
ARC
  5
146
330
1F
100
AcDbEntity
  8
0
  6
Continuous
 62
     7
370
    25
100
AcDbCircle
 10
682.4536499133
 20
255.1190765829
 30
0.0
 40
2.0
100
AcDbArc
 50
360.0
 51
180.0
  0
LINE
  5
147
330
1F
100
AcDbEntity
  8
0
  6
Continuous
 62
     7
370
    25
100
AcDbLine
 10
680.4536462178
 20
240.4190790625
 30
0.0
 11
680.4536462178
 21
255.1190745802
 31
0.0
  0
ARC
  5
148
330
1F
100
AcDbEntity
  8
0
  6
Continuous
 62
     7
370
    25
100
AcDbCircle
 10
682.4536499133
 20
240.4190765829
 30
0.0
 40
2.0
100
AcDbArc
 50
180.0
 51
0.0
  0
LINE
  5
149
330
1F
100
AcDbEntity
  8
0
  6
Continuous
 62
     7
370
    25
100
AcDbLine
 10
684.4536468735
 20
240.4190790625
 30
0.0
 11
684.4536468735
 21
255.1190745802
 31
0.0
  0
ARC
  5
14A
330
1F
100
AcDbEntity
  8
0
  6
Continuous
 62
     7
370
    25
100
AcDbCircle
 10
638.4536499133
 20
255.1190765829
 30
0.0
 40
2.0
100
AcDbArc
 50
360.0
 51
180.0
  0
LINE
  5
14B
330
1F
100
AcDbEntity
  8
0
  6
Continuous
 62
     7
370
    25
100
AcDbLine
 10
636.4536464563
 20
240.4190790625
 30
0.0
 11
636.4536464563
 21
255.1190745802
 31
0.0
  0
ARC
  5
14C
330
1F
100
AcDbEntity
  8
0
  6
Continuous
 62
     7
370
    25
100
AcDbCircle
 10
638.4536499133
 20
240.4190765829
 30
0.0
 40
2.0
100
AcDbArc
 50
180.0
 51
0.0
  0
LINE
  5
14D
330
1F
100
AcDbEntity
  8
0
  6
Continuous
 62
     7
370
    25
100
AcDbLine
 10
640.4536471119
 20
240.4190790625
 30
0.0
 11
640.4536471119
 21
255.1190745802
 31
0.0
  0
ARC
  5
14E
330
1F
100
AcDbEntity
  8
0
  6
Continuous
 62
     7
370
    25
100
AcDbCircle
 10
682.4536499133
 20
205.1190765829
 30
0.0
 40
2.0
100
AcDbArc
 50
0.0
 51
180.0
  0
LINE
  5
14F
330
1F
100
AcDbEntity
  8
0
  6
Continuous
 62
     7
370
    25
100
AcDbLine
 10
680.4536462178
 20
190.4190745921
 30
0.0
 11
680.4536462178
 21
205.1190775605
 31
0.0
  0
ARC
  5
150
330
1F
100
AcDbEntity
  8
0
  6
Continuous
 62
     7
370
    25
100
AcDbCircle
 10
682.4536499133
 20
190.4190765829
 30
0.0
 40
2.0
100
AcDbArc
 50
180.0
 51
0.0
  0
LINE
  5
151
330
1F
100
AcDbEntity
  8
0
  6
Continuous
 62
     7
370
    25
100
AcDbLine
 10
684.4536468735
 20
190.4190745921
 30
0.0
 11
684.4536468735
 21
205.1190775605
 31
0.0
  0
ARC
  5
152
330
1F
100
AcDbEntity
  8
0
  6
Continuous
 62
     7
370
    25
100
AcDbCircle
 10
638.4536499133
 20
205.1190765829
 30
0.0
 40
2.0
100
AcDbArc
 50
0.0
 51
180.0
  0
LINE
  5
153
330
1F
100
AcDbEntity
  8
0
  6
Continuous
 62
     7
370
    25
100
AcDbLine
 10
636.4536464563
 20
190.4190745921
 30
0.0
 11
636.4536464563
 21
205.1190775605
 31
0.0
  0
ARC
  5
154
330
1F
100
AcDbEntity
  8
0
  6
Continuous
 62
     7
370
    25
100
AcDbCircle
 10
638.4536499133
 20
190.4190765829
 30
0.0
 40
2.0
100
AcDbArc
 50
180.0
 51
0.0
  0
LINE
  5
155
330
1F
100
AcDbEntity
  8
0
  6
Continuous
 62
     7
370
    25
100
AcDbLine
 10
640.4536471119
 20
190.4190745921
 30
0.0
 11
640.4536471119
 21
205.1190775605
 31
0.0
  0
CIRCLE
  5
156
330
1F
100
AcDbEntity
  8
0
  6
Continuous
 62
     7
370
    25
100
AcDbCircle
 10
694.3286499133
 20
347.7690765829
 30
0.0
 40
4.0
  0
CIRCLE
  5
157
330
1F
100
AcDbEntity
  8
0
  6
Continuous
 62
     7
370
    25
100
AcDbCircle
 10
694.3286499133
 20
297.7690765829
 30
0.0
 40
4.0
  0
CIRCLE
  5
158
330
1F
100
AcDbEntity
  8
0
  6
Continuous
 62
     7
370
    25
100
AcDbCircle
 10
694.3286499133
 20
247.7690765829
 30
0.0
 40
4.0
  0
CIRCLE
  5
159
330
1F
100
AcDbEntity
  8
0
  6
Continuous
 62
     7
370
    25
100
AcDbCircle
 10
694.3286499133
 20
197.7690765829
 30
0.0
 40
4.0
  0
SPLINE
  5
15A
330
1F
100
AcDbEntity
  8
0
  6
Continuous
 62
     7
370
    25
100
AcDbSpline
210
0.0
220
0.0
230
1.0
 70
     8
 71
     3
 72
     8
 73
     4
 74
     0
 42
0.000000001
 43
0.00000001
 40
0.0
 40
0.0
 40
0.0
 40
0.0
 40
1.0
 40
1.0
 40
1.0
 40
1.0
 10
710.478420723337
 20
417.9046641429404
 30
0.0
 10
710.478420723337
 20
418.3931470329404
 30
0.0
 10
710.9710526533371
 20
418.7618821829404
 30
0.0
 10
711.4352848133369
 20
418.6208762829403
 30
0.0
  0
SPLINE
  5
15B
330
1F
100
AcDbEntity
  8
0
  6
Continuous
 62
     7
370
    25
100
AcDbSpline
210
0.0
220
0.0
230
1.0
 70
     8
 71
     3
 72
     8
 73
     4
 74
     0
 42
0.000000001
 43
0.00000001
 40
0.0
 40
0.0
 40
0.0
 40
0.0
 40
1.0
 40
1.0
 40
1.0
 40
1.0
 10
710.8274236433369
 20
417.2760402029404
 30
0.0
 10
710.6210737233371
 20
417.4081539329404
 30
0.0
 10
710.478420723337
 20
417.6651004829404
 30
0.0
 10
710.478420723337
 20
417.9046641429404
 30
0.0
  0
LINE
  5
15C
330
1F
100
AcDbEntity
  8
0
  6
Continuous
 62
     7
370
    25
100
AcDbLine
 10
710.9414406469
 20
417.2030281992
 30
0.0
 11
710.827424412
 21
417.2760438891
 31
0.0
  0
LINE
  5
15D
330
1F
100
AcDbEntity
  8
0
  6
Continuous
 62
     7
370
    25
100
AcDbLine
 10
710.9414406469
 20
415.7840204211
 30
0.0
 11
710.9414406469
 21
417.2030281992
 31
0.0
  0
LINE
  5
15E
330
1F
100
AcDbEntity
  8
0
  6
Continuous
 62
     7
370
    25
100
AcDbLine
 10
701.1346586397
 20
415.7820832701
 30
0.0
 11
710.9414406469
 21
415.7840204211
 31
0.0
  0
LINE
  5
15F
330
1F
100
AcDbEntity
  8
0
  6
Continuous
 62
     7
370
    25
100
AcDbLine
 10
698.5468224039
 20
412.0511007281
 30
0.0
 11
701.1346586397
 21
415.7820832701
 31
0.0
  0
LINE
  5
160
330
1F
100
AcDbEntity
  8
0
  6
Continuous
 62
     7
370
    25
100
AcDbLine
 10
695.9589824429
 20
408.320118186
 30
0.0
 11
698.5468224039
 21
412.0511007281
 31
0.0
  0
LINE
  5
161
330
1F
100
AcDbEntity
  8
0
  6
Continuous
 62
     7
370
    25
100
AcDbLine
 10
698.5468224039
 20
404.589135644
 30
0.0
 11
695.9589824429
 21
408.320118186
 31
0.0
  0
LINE
  5
162
330
1F
100
AcDbEntity
  8
0
  6
Continuous
 62
     7
370
    25
100
AcDbLine
 10
701.134662365
 20
400.858153102
 30
0.0
 11
698.5468224039
 21
404.589135644
 31
0.0
  0
LINE
  5
163
330
1F
100
AcDbEntity
  8
0
  6
Continuous
 62
     7
370
    25
100
AcDbLine
 10
711.5063287666
 20
400.858153102
 30
0.0
 11
701.134662365
 21
400.858153102
 31
0.0
  0
LINE
  5
164
330
1F
100
AcDbEntity
  8
0
  6
Continuous
 62
     7
370
    25
100
AcDbLine
 10
716.6820422163
 20
408.3201479884
 30
0.0
 11
711.5063287666
 21
400.858153102
 31
0.0
  0
LINE
  5
165
330
1F
100
AcDbEntity
  8
0
  6
Continuous
 62
     7
370
    25
100
AcDbLine
 10
714.1080752363
 20
412.0280635329
 30
0.0
 11
716.6820422163
 21
408.3201479884
 31
0.0
  0
LINE
  5
166
330
1F
100
AcDbEntity
  8
0
  6
Continuous
 62
     7
370
    25
100
AcDbLine
 10
711.5341082564
 20
415.735949275
 30
0.0
 11
714.1080752363
 21
412.0280635329
 31
0.0
  0
LINE
  5
167
330
1F
100
AcDbEntity
  8
0
  6
Continuous
 62
     7
370
    25
100
AcDbLine
 10
711.5358889451
 20
417.2193896742
 30
0.0
 11
711.5341082564
 21
415.735949275
 31
0.0
  0
LINE
  5
168
330
1F
100
AcDbEntity
  8
0
  6
Continuous
 62
     7
370
    25
100
AcDbLine
 10
711.6396457305
 20
417.2842097254
 30
0.0
 11
711.5358889451
 21
417.2193896742
 31
0.0
  0
SPLINE
  5
169
330
1F
100
AcDbEntity
  8
0
  6
Continuous
 62
     7
370
    25
100
AcDbSpline
210
0.0
220
0.0
230
1.0
 70
     8
 71
     3
 72
     8
 73
     4
 74
     0
 42
0.000000001
 43
0.00000001
 40
0.0
 40
0.0
 40
0.0
 40
0.0
 40
1.0
 40
1.0
 40
1.0
 40
1.0
 10
711.978608223337
 20
417.9049649329404
 30
0.0
 10
711.978608223337
 20
417.6695893729404
 30
0.0
 10
711.834725463337
 20
417.4060923629403
 30
0.0
 10
711.639645473337
 20
417.2842162029404
 30
0.0
  0
SPLINE
  5
16A
330
1F
100
AcDbEntity
  8
0
  6
Continuous
 62
     7
370
    25
100
AcDbSpline
210
0.0
220
0.0
230
1.0
 70
     8
 71
     3
 72
     8
 73
     4
 74
     0
 42
0.000000001
 43
0.00000001
 40
0.0
 40
0.0
 40
0.0
 40
0.0
 40
1.0
 40
1.0
 40
1.0
 40
1.0
 10
711.4352848133369
 20
418.6208762829403
 30
0.0
 10
711.751533543337
 20
418.5248182929404
 30
0.0
 10
711.978608223337
 20
418.2256140729403
 30
0.0
 10
711.978608223337
 20
417.9049649329404
 30
0.0
  0
LINE
  5
16B
330
1F
100
AcDbEntity
  8
0
  6
Continuous
 62
     7
370
    25
100
AcDbLine
 10
679.1967332711
 20
403.5973143549
 30
0.0
 11
690.9139521768
 21
403.5973143549
 31
0.0
  0
LINE
  5
16C
330
1F
100
AcDbEntity
  8
0
  6
Continuous
 62
     7
370
    25
100
AcDbLine
 10
679.1967332711
 20
417.154569623
 30
0.0
 11
679.1967332711
 21
403.5973143549
 31
0.0
  0
LINE
  5
16D
330
1F
100
AcDbEntity
  8
0
  6
Continuous
 62
     7
370
    25
100
AcDbLine
 10
690.5621581128
 20
417.154569623
 30
0.0
 11
679.1967332711
 21
417.154569623
 31
0.0
  0
LINE
  5
16E
330
1F
100
AcDbEntity
  8
0
  6
Continuous
 62
     7
370
    25
100
AcDbLine
 10
691.1487460485
 20
416.4774310561
 30
0.0
 11
690.5621581128
 21
417.154569623
 31
0.0
  0
LINE
  5
16F
330
1F
100
AcDbEntity
  8
0
  6
Continuous
 62
     7
370
    25
100
AcDbLine
 10
691.7353377095
 20
415.8002924891
 30
0.0
 11
691.1487460485
 21
416.4774310561
 31
0.0
  0
LINE
  5
170
330
1F
100
AcDbEntity
  8
0
  6
Continuous
 62
     7
370
    25
100
AcDbLine
 10
691.1487460485
 20
412.4236297579
 30
0.0
 11
691.7353377095
 21
413.1007683249
 31
0.0
  0
LINE
  5
171
330
1F
100
AcDbEntity
  8
0
  6
Continuous
 62
     7
370
    25
100
AcDbLine
 10
690.5621581128
 20
411.7464911909
 30
0.0
 11
691.1487460485
 21
412.4236297579
 31
0.0
  0
LINE
  5
172
330
1F
100
AcDbEntity
  8
0
  6
Continuous
 62
     7
370
    25
100
AcDbLine
 10
680.3635463467
 20
411.7464911909
 30
0.0
 11
690.5621581128
 21
411.7464911909
 31
0.0
  0
LINE
  5
173
330
1F
100
AcDbEntity
  8
0
  6
Continuous
 62
     7
370
    25
100
AcDbLine
 10
680.3635463467
 20
409.0239298315
 30
0.0
 11
680.3635463467
 21
411.7464911909
 31
0.0
  0
LINE
  5
174
330
1F
100
AcDbEntity
  8
0
  6
Continuous
 62
     7
370
    25
100
AcDbLine
 10
690.9139521768
 20
409.0239298315
 30
0.0
 11
680.3635463467
 21
409.0239298315
 31
0.0
  0
LINE
  5
175
330
1F
100
AcDbEntity
  8
0
  6
Continuous
 62
     7
370
    25
100
AcDbLine
 10
692.0872323563
 20
407.6656889887
 30
0.0
 11
690.9139521768
 21
409.0239298315
 31
0.0
  0
LINE
  5
176
330
1F
100
AcDbEntity
  8
0
  6
Continuous
 62
     7
370
    25
100
AcDbLine
 10
692.0872323563
 20
404.9555551977
 30
0.0
 11
692.0872323563
 21
407.6656889887
 31
0.0
  0
LINE
  5
177
330
1F
100
AcDbEntity
  8
0
  6
Continuous
 62
     7
370
    25
100
AcDbLine
 10
690.9139521768
 20
403.5973143549
 30
0.0
 11
692.0872323563
 21
404.9555551977
 31
0.0
  0
LINE
  5
178
330
1F
100
AcDbEntity
  8
0
  6
Continuous
 62
     7
370
    25
100
AcDbLine
 10
691.7353377095
 20
413.1007683249
 30
0.0
 11
691.7353377095
 21
415.8002924891
 31
0.0
  0
SPLINE
  5
179
330
1F
100
AcDbEntity
  8
0
  6
Continuous
 62
     7
370
    25
100
AcDbSpline
210
0.0
220
0.0
230
1.0
 70
     8
 71
     3
 72
     8
 73
     4
 74
     0
 42
0.000000001
 43
0.00000001
 40
0.0
 40
0.0
 40
0.0
 40
0.0
 40
1.0
 40
1.0
 40
1.0
 40
1.0
 10
711.282393473337
 20
408.3016106129404
 30
0.0
 10
711.282393473337
 20
408.1058612829403
 30
0.0
 10
711.273555273337
 20
408.0161900929404
 30
0.0
 10
711.241684623337
 20
407.8885709929403
 30
0.0
  0
SPLINE
  5
17A
330
1F
100
AcDbEntity
  8
0
  6
Continuous
 62
     7
370
    25
100
AcDbSpline
210
0.0
220
0.0
230
1.0
 70
     8
 71
     3
 72
     8
 73
     4
 74
     0
 42
0.000000001
 43
0.00000001
 40
0.0
 40
0.0
 40
0.0
 40
0.0
 40
1.0
 40
1.0
 40
1.0
 40
1.0
 10
710.532044083337
 20
409.7382647829403
 30
0.0
 10
710.679201373337
 20
409.6404341829404
 30
0.0
 10
710.913588113337
 20
409.4015588329404
 30
0.0
 10
711.009426023337
 20
409.2517393029403
 30
0.0
  0
SPLINE
  5
17B
330
1F
100
AcDbEntity
  8
0
  6
Continuous
 62
     7
370
    25
100
AcDbSpline
210
0.0
220
0.0
230
1.0
 70
     8
 71
     3
 72
     9
 73
     5
 74
     0
 42
0.000000001
 43
0.00000001
 40
0.0
 40
0.0
 40
0.0
 40
0.0
 40
0.5588924275370086
 40
0.9999999999999999
 40
0.9999999999999999
 40
0.9999999999999999
 40
0.9999999999999999
 10
709.5523804774543
 20
410.0316357584317
 30
0.0
 10
709.7483349110678
 20
410.0189733299655
 30
0.0
 10
710.0989469858761
 20
409.9963170407722
 30
0.0
 10
710.3994765517339
 20
409.8172496700527
 30
0.0
 10
710.5320424189827
 20
409.7382616968473
 30
0.0
  0
SPLINE
  5
17C
330
1F
100
AcDbEntity
  8
0
  6
Continuous
 62
     7
370
    25
100
AcDbSpline
210
0.0
220
0.0
230
1.0
 70
     8
 71
     3
 72
     8
 73
     4
 74
     0
 42
0.000000001
 43
0.00000001
 40
0.0
 40
0.0
 40
0.0
 40
0.0
 40
1.0
 40
1.0
 40
1.0
 40
1.0
 10
707.822364733337
 20
408.3016106129404
 30
0.0
 10
707.822364733337
 20
408.6731094329404
 30
0.0
 10
707.9022228333371
 20
408.9495149329404
 30
0.0
 10
708.098241803337
 20
409.2564839729404
 30
0.0
  0
SPLINE
  5
17D
330
1F
100
AcDbEntity
  8
0
  6
Continuous
 62
     7
370
    25
100
AcDbSpline
210
0.0
220
0.0
230
1.0
 70
     8
 71
     3
 72
     8
 73
     4
 74
     0
 42
0.000000001
 43
0.00000001
 40
0.0000089042388698
 40
0.0000089042388698
 40
0.0000089042388698
 40
0.0000089042388698
 40
1.0
 40
1.0
 40
1.0
 40
1.0
 10
708.3423140905866
 20
407.0586984820916
 30
0.0
 10
708.1037507387877
 20
407.2903899032735
 30
0.0
 10
707.9428994025418
 20
407.5689253491668
 30
0.0
 10
707.863073513337
 20
407.8885709929403
 30
0.0
  0
SPLINE
  5
17E
330
1F
100
AcDbEntity
  8
0
  6
Continuous
 62
     7
370
    25
100
AcDbSpline
210
0.0
220
0.0
230
1.0
 70
     8
 71
     3
 72
     9
 73
     5
 74
     0
 42
0.000000001
 43
0.00000001
 40
0.0
 40
0.0
 40
0.0
 40
0.0
 40
0.5664071601220196
 40
1.0
 40
1.0
 40
1.0
 40
1.0
 10
709.3393907299301
 20
406.5724801988919
 30
0.0
 10
709.1287047168995
 20
406.6206960747979
 30
0.0
 10
708.75673552607
 20
406.7058218982349
 30
0.0
 10
708.467661105701
 20
406.9519749066737
 30
0.0
 10
708.342320506837
 20
407.0587050886472
 30
0.0
  0
SPLINE
  5
17F
330
1F
100
AcDbEntity
  8
0
  6
Continuous
 62
     7
370
    25
100
AcDbSpline
210
0.0
220
0.0
230
1.0
 70
     8
 71
     3
 72
     9
 73
     5
 74
     0
 42
0.000000001
 43
0.00000001
 40
0.0
 40
0.0
 40
0.0
 40
0.0
 40
0.6841193545011818
 40
1.0
 40
1.0
 40
1.0
 40
1.0
 10
709.6079431822559
 20
406.5705430479368
 30
0.0
 10
709.546659811207
 20
406.5686162838174
 30
0.0
 10
709.457079870739
 20
406.5657998686603
 30
0.0
 10
709.3676423209039
 20
406.5708765678689
 30
0.0
 10
709.3393907299301
 20
406.5724801988919
 30
0.0
  0
SPLINE
  5
180
330
1F
100
AcDbEntity
  8
0
  6
Continuous
 62
     7
370
    25
100
AcDbSpline
210
0.0
220
0.0
230
1.0
 70
     8
 71
     3
 72
     9
 73
     5
 74
     0
 42
0.000000001
 43
0.00000001
 40
0.0
 40
0.0
 40
0.0
 40
0.0
 40
0.5577298559034404
 40
0.9999999999999999
 40
0.9999999999999999
 40
0.9999999999999999
 40
0.9999999999999999
 10
704.7593921771308
 20
407.8885805578549
 30
0.0
 10
704.7015658480765
 20
407.7155501554188
 30
0.0
 10
704.5978842387054
 20
407.4053096319744
 30
0.0
 10
704.3775791288053
 20
407.1649908922806
 30
0.0
 10
704.2801447561046
 20
407.0587050886472
 30
0.0
  0
SPLINE
  5
181
330
1F
100
AcDbEntity
  8
0
  6
Continuous
 62
     7
370
    25
100
AcDbSpline
210
0.0
220
0.0
230
1.0
 70
     8
 71
     3
 72
     8
 73
     4
 74
     0
 42
0.000000001
 43
0.00000001
 40
0.0
 40
0.0
 40
0.0
 40
0.0
 40
1.0
 40
1.0
 40
1.0
 40
1.0
 10
704.8001017833369
 20
408.3016106129404
 30
0.0
 10
704.8001017833369
 20
408.1058612829403
 30
0.0
 10
704.791263653337
 20
408.0161900929404
 30
0.0
 10
704.759393003337
 20
407.8885709929403
 30
0.0
  0
SPLINE
  5
182
330
1F
100
AcDbEntity
  8
0
  6
Continuous
 62
     7
370
    25
100
AcDbSpline
210
0.0
220
0.0
230
1.0
 70
     8
 71
     3
 72
     9
 73
     5
 74
     0
 42
0.000000001
 43
0.00000001
 40
0.0
 40
0.0
 40
0.0
 40
0.0
 40
0.5638972179135872
 40
0.9999999999999999
 40
0.9999999999999999
 40
0.9999999999999999
 40
0.9999999999999999
 10
701.6159512450954
 20
409.2564773531278
 30
0.0
 10
701.6948757372803
 20
409.3578600308614
 30
0.0
 10
701.8348382866201
 20
409.5376493160591
 30
0.0
 10
702.0139376253493
 20
409.6780263558794
 30
0.0
 10
702.0920433452388
 20
409.739245173486
 30
0.0
  0
SPLINE
  5
183
330
1F
100
AcDbEntity
  8
0
  6
Continuous
 62
     7
370
    25
100
AcDbSpline
210
0.0
220
0.0
230
1.0
 70
     8
 71
     3
 72
     8
 73
     4
 74
     0
 42
0.000000001
 43
0.00000001
 40
0.0
 40
0.0
 40
0.0
 40
0.0
 40
1.0
 40
1.0
 40
1.0
 40
1.0
 10
701.340073043337
 20
408.3016106129404
 30
0.0
 10
701.340073043337
 20
408.6731094329404
 30
0.0
 10
701.419931143337
 20
408.9495149329404
 30
0.0
 10
701.615950113337
 20
409.2564839729404
 30
0.0
  0
SPLINE
  5
184
330
1F
100
AcDbEntity
  8
0
  6
Continuous
 62
     7
370
    25
100
AcDbSpline
210
0.0
220
0.0
230
1.0
 70
     8
 71
     3
 72
     8
 73
     4
 74
     0
 42
0.000000001
 43
0.00000001
 40
0.0
 40
0.0
 40
0.0
 40
0.0
 40
1.0
 40
1.0
 40
1.0
 40
1.0
 10
701.380781823337
 20
407.8885709929403
 30
0.0
 10
701.348911173337
 20
408.0161900929404
 30
0.0
 10
701.340073043337
 20
408.1058612829403
 30
0.0
 10
701.340073043337
 20
408.3016106129404
 30
0.0
  0
SPLINE
  5
185
330
1F
100
AcDbEntity
  8
0
  6
Continuous
 62
     7
370
    25
100
AcDbSpline
210
0.0
220
0.0
230
1.0
 70
     8
 71
     3
 72
     8
 73
     4
 74
     0
 42
0.000000001
 43
0.00000001
 40
0.0000091031798088
 40
0.0000091031798088
 40
0.0000091031798088
 40
0.0000091031798088
 40
1.0
 40
1.0
 40
1.0
 40
1.0
 10
701.8600222582052
 20
407.0586986203716
 30
0.0
 10
701.6214589847885
 20
407.2903900140988
 30
0.0
 10
701.4606077666605
 20
407.568925412758
 30
0.0
 10
701.380781823337
 20
407.8885709929403
 30
0.0
  0
SPLINE
  5
186
330
1F
100
AcDbEntity
  8
0
  6
Continuous
 62
     7
370
    25
100
AcDbSpline
210
0.0
220
0.0
230
1.0
 70
     8
 71
     3
 72
     9
 73
     5
 74
     0
 42
0.000000001
 43
0.00000001
 40
0.0
 40
0.0
 40
0.0
 40
0.0
 40
0.6841193545011818
 40
1.0
 40
1.0
 40
1.0
 40
1.0
 10
703.1256512155792
 20
406.5705430479368
 30
0.0
 10
703.0643678445302
 20
406.5686162838174
 30
0.0
 10
702.9747879040623
 20
406.5657998686603
 30
0.0
 10
702.8853503542272
 20
406.5708765678689
 30
0.0
 10
702.8570987632534
 20
406.5724801988919
 30
0.0
  0
SPLINE
  5
187
330
1F
100
AcDbEntity
  8
0
  6
Continuous
 62
     7
370
    25
100
AcDbSpline
210
0.0
220
0.0
230
1.0
 70
     8
 71
     3
 72
     9
 73
     5
 74
     0
 42
0.000000001
 43
0.00000001
 40
0.0
 40
0.0
 40
0.0
 40
0.0
 40
0.5561875550739728
 40
1.0
 40
1.0
 40
1.0
 40
1.0
 10
704.2801447561046
 20
407.0587050886472
 30
0.0
 10
704.0904808736996
 20
406.9068039722477
 30
0.0
 10
703.749473814705
 20
406.6336926539278
 30
0.0
 10
703.3174075852456
 20
406.5899545588497
 30
0.0
 10
703.1256512155792
 20
406.5705430479367
 30
0.0
  0
SPLINE
  5
188
330
1F
100
AcDbEntity
  8
0
  6
Continuous
 62
     7
370
    25
100
AcDbSpline
210
0.0
220
0.0
230
1.0
 70
     8
 71
     3
 72
     9
 73
     5
 74
     0
 42
0.000000001
 43
0.00000001
 40
0.0
 40
0.0
 40
0.0
 40
0.0
 40
0.5664071601220196
 40
1.0
 40
1.0
 40
1.0
 40
1.0
 10
702.8570987632534
 20
406.5724801988919
 30
0.0
 10
702.6464127502228
 20
406.6206960747979
 30
0.0
 10
702.2744435593933
 20
406.7058218982349
 30
0.0
 10
701.9853691390243
 20
406.9519749066737
 30
0.0
 10
701.8600285401603
 20
407.0587050886472
 30
0.0
  0
SPLINE
  5
189
330
1F
100
AcDbEntity
  8
0
  6
Continuous
 62
     7
370
    25
100
AcDbSpline
210
0.0
220
0.0
230
1.0
 70
     8
 71
     3
 72
     8
 73
     4
 74
     0
 42
0.000000001
 43
0.00000001
 40
0.0
 40
0.0
 40
0.0
 40
0.0
 40
0.9999917983149189
 40
0.9999917983149189
 40
0.9999917983149189
 40
0.9999917983149189
 10
711.241684623337
 20
407.8885709929403
 30
0.0
 10
711.1618586780497
 20
407.5689251245967
 30
0.0
 10
711.0010072418697
 20
407.2903895118978
 30
0.0
 10
710.7624436132721
 20
407.0586979937603
 30
0.0
  0
SPLINE
  5
18A
330
1F
100
AcDbEntity
  8
0
  6
Continuous
 62
     7
370
    25
100
AcDbSpline
210
0.0
220
0.0
230
1.0
 70
     8
 71
     3
 72
     8
 73
     4
 74
     0
 42
0.000000001
 43
0.00000001
 40
0.0
 40
0.0
 40
0.0
 40
0.0
 40
1.0
 40
1.0
 40
1.0
 40
1.0
 10
711.009426023337
 20
409.2517393029403
 30
0.0
 10
711.202185303337
 20
408.9504085529404
 30
0.0
 10
711.282393473337
 20
408.6712269929404
 30
0.0
 10
711.282393473337
 20
408.3016106129404
 30
0.0
  0
SPLINE
  5
18B
330
1F
100
AcDbEntity
  8
0
  6
Continuous
 62
     7
370
    25
100
AcDbSpline
210
0.0
220
0.0
230
1.0
 70
     8
 71
     3
 72
     8
 73
     4
 74
     0
 42
0.000000001
 43
0.00000001
 40
0.0
 40
0.0
 40
0.0
 40
0.0
 40
1.0
 40
1.0
 40
1.0
 40
1.0
 10
704.0249604233371
 20
409.7557473529404
 30
0.0
 10
704.174193913337
 20
409.6604518729404
 30
0.0
 10
704.407319323337
 20
409.4305552129404
 30
0.0
 10
704.507735583337
 20
409.2796557929404
 30
0.0
  0
SPLINE
  5
18C
330
1F
100
AcDbEntity
  8
0
  6
Continuous
 62
     7
370
    25
100
AcDbSpline
210
0.0
220
0.0
230
1.0
 70
     8
 71
     3
 72
     8
 73
     4
 74
     0
 42
0.000000001
 43
0.00000001
 40
0.0
 40
0.0
 40
0.0
 40
0.0
 40
1.0
 40
1.0
 40
1.0
 40
1.0
 10
707.863073513337
 20
407.8885709929403
 30
0.0
 10
707.831202863337
 20
408.0161900929404
 30
0.0
 10
707.822364733337
 20
408.1058612829403
 30
0.0
 10
707.822364733337
 20
408.3016106129404
 30
0.0
  0
SPLINE
  5
18D
330
1F
100
AcDbEntity
  8
0
  6
Continuous
 62
     7
370
    25
100
AcDbSpline
210
0.0
220
0.0
230
1.0
 70
     8
 71
     3
 72
     9
 73
     5
 74
     0
 42
0.000000001
 43
0.00000001
 40
0.0
 40
0.0
 40
0.0
 40
0.0
 40
0.5538814873344825
 40
1.0
 40
1.0
 40
1.0
 40
1.0
 10
702.0920433452388
 20
409.739245173486
 30
0.0
 10
702.2608489312197
 20
409.8352176778843
 30
0.0
 10
702.5656173516142
 20
410.0084903121806
 30
0.0
 10
702.9144623146966
 20
410.0244955330863
 30
0.0
 10
703.0700885107776
 20
410.0316357584317
 30
0.0
  0
SPLINE
  5
18E
330
1F
100
AcDbEntity
  8
0
  6
Continuous
 62
     7
370
    25
100
AcDbSpline
210
0.0
220
0.0
230
1.0
 70
     8
 71
     3
 72
     9
 73
     5
 74
     0
 42
0.000000001
 43
0.00000001
 40
0.0
 40
0.0
 40
0.0
 40
0.0
 40
0.5561875550739728
 40
1.0
 40
1.0
 40
1.0
 40
1.0
 10
710.7624367227813
 20
407.0587050886472
 30
0.0
 10
710.5727728403763
 20
406.9068039722477
 30
0.0
 10
710.2317657813817
 20
406.6336926539278
 30
0.0
 10
709.7996995519223
 20
406.5899545588497
 30
0.0
 10
709.6079431822559
 20
406.5705430479367
 30
0.0
  0
SPLINE
  5
18F
330
1F
100
AcDbEntity
  8
0
  6
Continuous
 62
     7
370
    25
100
AcDbSpline
210
0.0
220
0.0
230
1.0
 70
     8
 71
     3
 72
     9
 73
     5
 74
     0
 42
0.000000001
 43
0.00000001
 40
0.0
 40
0.0
 40
0.0
 40
0.0
 40
0.5638972179135872
 40
0.9999999999999999
 40
0.9999999999999999
 40
0.9999999999999999
 40
0.9999999999999999
 10
708.0982432117721
 20
409.2564773531278
 30
0.0
 10
708.177167703957
 20
409.3578600308614
 30
0.0
 10
708.3171302532968
 20
409.5376493160591
 30
0.0
 10
708.496229592026
 20
409.6780263558794
 30
0.0
 10
708.5743353119155
 20
409.739245173486
 30
0.0
  0
SPLINE
  5
190
330
1F
100
AcDbEntity
  8
0
  6
Continuous
 62
     7
370
    25
100
AcDbSpline
210
0.0
220
0.0
230
1.0
 70
     8
 71
     3
 72
     8
 73
     4
 74
     0
 42
0.000000001
 43
0.00000001
 40
0.0
 40
0.0
 40
0.0
 40
0.0
 40
1.0
 40
1.0
 40
1.0
 40
1.0
 10
704.507735583337
 20
409.2796557929404
 30
0.0
 10
704.7146318533371
 20
408.9687475029404
 30
0.0
 10
704.8001017833369
 20
408.6828304729403
 30
0.0
 10
704.8001017833369
 20
408.3016106129404
 30
0.0
  0
SPLINE
  5
191
330
1F
100
AcDbEntity
  8
0
  6
Continuous
 62
     7
370
    25
100
AcDbSpline
210
0.0
220
0.0
230
1.0
 70
     8
 71
     3
 72
     9
 73
     5
 74
     0
 42
0.000000001
 43
0.00000001
 40
0.0
 40
0.0
 40
0.0
 40
0.0
 40
0.5538814873344825
 40
1.0
 40
1.0
 40
1.0
 40
1.0
 10
708.5743353119155
 20
409.739245173486
 30
0.0
 10
708.7431408978964
 20
409.8352176778843
 30
0.0
 10
709.0479093182909
 20
410.0084903121806
 30
0.0
 10
709.3967542813733
 20
410.0244955330863
 30
0.0
 10
709.5523804774543
 20
410.0316357584317
 30
0.0
  0
SPLINE
  5
192
330
1F
100
AcDbEntity
  8
0
  6
Continuous
 62
     7
370
    25
100
AcDbSpline
210
0.0
220
0.0
230
1.0
 70
     8
 71
     3
 72
     9
 73
     5
 74
     0
 42
0.000000001
 43
0.00000001
 40
0.0
 40
0.0
 40
0.0
 40
0.0
 40
0.5594590912945961
 40
1.0
 40
1.0
 40
1.0
 40
1.0
 10
703.0700885107776
 20
410.0316357584317
 30
0.0
 10
703.2604273032794
 20
410.0198817954822
 30
0.0
 10
703.6006466248764
 20
409.9988722826644
 30
0.0
 10
703.8951971079132
 20
409.8301046891123
 30
0.0
 10
704.0249586453697
 20
409.7557556600888
 30
0.0
  0
SPLINE
  5
193
330
1F
100
AcDbEntity
  8
0
  6
Continuous
 62
     7
370
    25
100
AcDbSpline
210
0.0
220
0.0
230
1.0
 70
     8
 71
     3
 72
     8
 73
     4
 74
     0
 42
0.000000001
 43
0.00000001
 40
0.0
 40
0.0
 40
0.0
 40
0.0
 40
1.0
 40
1.0
 40
1.0
 40
1.0
 10
700.159381013337
 20
411.1260376729404
 30
0.0
 10
699.091447573337
 20
409.5878824529404
 30
0.0
 10
698.220881303337
 20
408.3207907529404
 30
0.0
 10
698.2247873733369
 20
408.3102785029404
 30
0.0
  0
LINE
  5
194
330
1F
100
AcDbEntity
  8
0
  6
Continuous
 62
     7
370
    25
100
AcDbLine
 10
702.1010771742
 20
413.922686574
 30
0.0
 11
700.1593813648
 21
411.1260366412
 31
0.0
  0
LINE
  5
195
330
1F
100
AcDbEntity
  8
0
  6
Continuous
 62
     7
370
    25
100
AcDbLine
 10
710.5399102321
 20
413.922686574
 30
0.0
 11
702.1010771742
 21
413.922686574
 31
0.0
  0
LINE
  5
196
330
1F
100
AcDbEntity
  8
0
  6
Continuous
 62
     7
370
    25
100
AcDbLine
 10
712.4815017333
 20
411.1260366412
 30
0.0
 11
710.5399102321
 21
413.922686574
 31
0.0
  0
SPLINE
  5
197
330
1F
100
AcDbEntity
  8
0
  6
Continuous
 62
     7
370
    25
100
AcDbSpline
210
0.0
220
0.0
230
1.0
 70
     8
 71
     3
 72
    16
 73
    12
 74
     0
 42
0.000000001
 43
0.00000001
 40
0.0
 40
0.0
 40
0.0
 40
0.0
 40
0.0000088019977767
 40
0.0000268076570761
 40
0.0000561024764397
 40
0.0001444805763494
 40
0.0003899503617139
 40
0.0054122166966309
 40
0.0796081067358154
 40
0.4427619050288559
 40
0.9999999999999999
 40
0.9999999999999999
 40
0.9999999999999999
 40
0.9999999999999999
 10
714.4231118610164
 20
408.3201181860288
 30
0.0
 10
714.4231107564877
 20
408.3201281326789
 30
0.0
 10
714.4231073924985
 20
408.3201584265273
 30
0.0
 10
714.4230923602629
 20
408.3202210943782
 30
0.0
 10
714.423013435887
 20
408.3203550110093
 30
0.0
 10
714.422838364657
 20
408.3207286232732
 30
0.0
 10
714.4194770567019
 20
408.3258312652905
 30
0.0
 10
714.3698239252932
 20
408.4011955465439
 30
0.0
 10
714.08140809375
 20
408.8140235520937
 30
0.0
 10
713.4408762593158
 20
409.7458756346695
 30
0.0
 10
712.8432973367488
 20
410.6055556708627
 30
0.0
 10
712.481501733329
 20
411.1260366411527
 30
0.0
  0
SPLINE
  5
198
330
1F
100
AcDbEntity
  8
0
  6
Continuous
 62
     7
370
    25
100
AcDbSpline
210
0.0
220
0.0
230
1.0
 70
     8
 71
     3
 72
     8
 73
     4
 74
     0
 42
0.000000001
 43
0.00000001
 40
0.0
 40
0.0
 40
0.0
 40
0.0
 40
0.999277918377008
 40
0.999277918377008
 40
0.999277918377008
 40
0.999277918377008
 10
712.481535893337
 20
405.5142248229404
 30
0.0
 10
713.5486427283082
 20
407.05126971907
 30
0.0
 10
714.4218611433828
 20
408.313214595265
 30
0.0
 10
714.4231105510249
 20
408.3201184231021
 30
0.0
  0
LINE
  5
199
330
1F
100
AcDbEntity
  8
0
  6
Continuous
 62
     7
370
    25
100
AcDbLine
 10
710.5399400344
 20
402.7175796004
 30
0.0
 11
712.4815352609
 21
405.5142295332
 31
0.0
  0
LINE
  5
19A
330
1F
100
AcDbEntity
  8
0
  6
Continuous
 62
     7
370
    25
100
AcDbLine
 10
706.3246809294
 20
402.7129006358
 30
0.0
 11
710.5399400344
 21
402.7175796004
 31
0.0
  0
LINE
  5
19B
330
1F
100
AcDbEntity
  8
0
  6
Continuous
 62
     7
370
    25
100
AcDbLine
 10
702.1094143739
 20
402.7082514735
 30
0.0
 11
706.3246809294
 21
402.7129006358
 31
0.0
  0
LINE
  5
19C
330
1F
100
AcDbEntity
  8
0
  6
Continuous
 62
     7
370
    25
100
AcDbLine
 10
701.9440152099
 20
402.9444050761
 30
0.0
 11
702.1094143739
 21
402.7082514735
 31
0.0
  0
SPLINE
  5
19D
330
1F
100
AcDbEntity
  8
0
  6
Continuous
 62
     7
370
    25
100
AcDbSpline
210
0.0
220
0.0
230
1.0
 70
     8
 71
     3
 72
    20
 73
    16
 74
     0
 42
0.000000001
 43
0.00000001
 40
0.0
 40
0.0
 40
0.0
 40
0.0
 40
0.0000467223670194
 40
0.0001200450648478
 40
0.0003153583600448
 40
0.0008945772279209
 40
0.0026439277068574
 40
0.0079839766069157
 40
0.0242020592975477
 40
0.0723295340081705
 40
0.2072028388690071
 40
0.5346318459333854
 40
0.733608730090819
 40
0.8987530355056554
 40
1.0
 40
1.0
 40
1.0
 40
1.0
 10
698.2247859587928
 20
408.3102834196408
 30
0.0
 10
698.2248342440348
 20
408.3101939405291
 30
0.0
 10
698.2249583046373
 20
408.3099640393819
 30
0.0
 10
698.225291679204
 20
408.3093638425108
 30
0.0
 10
698.2263243463997
 20
408.3078327379779
 30
0.0
 10
698.229314265064
 20
408.3032271113207
 30
0.0
 10
698.2387055272778
 20
408.2894274354697
 30
0.0
 10
698.2672254963821
 20
408.247485732552
 30
0.0
 10
698.3532440261389
 20
408.1225793764102
 30
0.0
 10
698.599432139049
 20
407.7657095627931
 30
0.0
 10
699.2316060767462
 20
406.8522962423086
 30
0.0
 10
700.0511728590595
 20
405.6693428422971
 30
0.0
 10
700.9090824924605
 20
404.4328056199084
 30
0.0
 10
701.4864800095958
 20
403.6007524181237
 30
0.0
 10
701.8180107690267
 20
403.1251620534874
 30
0.0
 10
701.9440152099392
 20
402.9444050760587
 30
0.0
  0
LINE
  5
19E
330
1F
100
AcDbEntity
  8
0
  6
Continuous
 62
     7
370
    25
100
AcDbLine
 10
113.9274770305
 20
102.4305982117
 30
0.0
 11
33.4873599843
 21
102.4305982117
 31
0.0
  0
LINE
  5
19F
330
1F
100
AcDbEntity
  8
0
  6
Continuous
 62
     7
370
    25
100
AcDbLine
 10
143.2074168608
 20
2.4305967216
 30
0.0
 11
113.9274770305
 21
102.4305982117
 31
0.0
  0
LINE
  5
1A0
330
1F
100
AcDbEntity
  8
0
  6
Continuous
 62
     7
370
    25
100
AcDbLine
 10
4.2074182913
 20
2.4305967216
 30
0.0
 11
143.2074168608
 21
2.4305967216
 31
0.0
  0
LINE
  5
1A1
330
1F
100
AcDbEntity
  8
0
  6
Continuous
 62
     7
370
    25
100
AcDbLine
 10
33.4873599843
 20
102.4305982117
 30
0.0
 11
4.2074182913
 21
2.4305967216
 31
0.0
  0
CIRCLE
  5
1A2
330
1F
100
AcDbEntity
  8
0
  6
Continuous
 62
     7
370
    25
100
AcDbCircle
 10
73.7074182913
 20
52.4305967216
 30
0.0
 40
4.999999999999993
  0
CIRCLE
  5
1A3
330
1F
100
AcDbEntity
  8
0
  6
Continuous
 62
     7
370
    25
100
AcDbCircle
 10
83.6574182913
 20
43.4805967216
 30
0.0
 40
1.5
  0
CIRCLE
  5
1A4
330
1F
100
AcDbEntity
  8
0
  6
Continuous
 62
     7
370
    25
100
AcDbCircle
 10
83.6574182913
 20
61.3805967216
 30
0.0
 40
1.5
  0
CIRCLE
  5
1A5
330
1F
100
AcDbEntity
  8
0
  6
Continuous
 62
     7
370
    25
100
AcDbCircle
 10
63.7574182913
 20
61.3805967216
 30
0.0
 40
1.5
  0
CIRCLE
  5
1A6
330
1F
100
AcDbEntity
  8
0
  6
Continuous
 62
     7
370
    25
100
AcDbCircle
 10
63.7574182913
 20
43.4805967216
 30
0.0
 40
1.5
  0
CIRCLE
  5
1A7
330
1F
100
AcDbEntity
  8
0
  6
Continuous
 62
     7
370
    25
100
AcDbCircle
 10
410.0659719333
 20
52.1272830396
 30
0.0
 40
5.0
  0
CIRCLE
  5
1A8
330
1F
100
AcDbEntity
  8
0
  6
Continuous
 62
     7
370
    25
100
AcDbCircle
 10
420.0159719333
 20
61.0772830396
 30
0.0
 40
1.5
  0
CIRCLE
  5
1A9
330
1F
100
AcDbEntity
  8
0
  6
Continuous
 62
     7
370
    25
100
AcDbCircle
 10
420.0159719333
 20
43.1772830396
 30
0.0
 40
1.5
  0
CIRCLE
  5
1AA
330
1F
100
AcDbEntity
  8
0
  6
Continuous
 62
     7
370
    25
100
AcDbCircle
 10
400.1159719333
 20
61.0772830396
 30
0.0
 40
1.5
  0
CIRCLE
  5
1AB
330
1F
100
AcDbEntity
  8
0
  6
Continuous
 62
     7
370
    25
100
AcDbCircle
 10
400.1159719333
 20
43.1772830396
 30
0.0
 40
1.5
  0
LINE
  5
1AC
330
1F
100
AcDbEntity
  8
0
  6
Continuous
 62
     7
370
    25
100
AcDbLine
 10
450.2860306725
 20
2.1272815495
 30
0.0
 11
369.8459136262
 21
2.1272815495
 31
0.0
  0
LINE
  5
1AD
330
1F
100
AcDbEntity
  8
0
  6
Continuous
 62
     7
370
    25
100
AcDbLine
 10
479.5659705028
 20
102.1272830396
 30
0.0
 11
450.2860306725
 21
2.1272815495
 31
0.0
  0
LINE
  5
1AE
330
1F
100
AcDbEntity
  8
0
  6
Continuous
 62
     7
370
    25
100
AcDbLine
 10
340.5659719333
 20
102.1272830396
 30
0.0
 11
479.5659705028
 21
102.1272830396
 31
0.0
  0
LINE
  5
1AF
330
1F
100
AcDbEntity
  8
0
  6
Continuous
 62
     7
370
    25
100
AcDbLine
 10
369.8459136262
 20
2.1272815495
 30
0.0
 11
340.5659719333
 21
102.1272830396
 31
0.0
  0
CIRCLE
  5
1B0
330
1F
100
AcDbEntity
  8
0
  6
Continuous
 62
     7
370
    25
100
AcDbCircle
 10
185.7826708993
 20
52.2688155384
 30
0.0
 40
4.999999999999993
  0
CIRCLE
  5
1B1
330
1F
100
AcDbEntity
  8
0
  6
Continuous
 62
     7
370
    25
100
AcDbCircle
 10
195.7326708993
 20
61.2188155384
 30
0.0
 40
1.5
  0
CIRCLE
  5
1B2
330
1F
100
AcDbEntity
  8
0
  6
Continuous
 62
     7
370
    25
100
AcDbCircle
 10
195.7326708993
 20
43.3188155384
 30
0.0
 40
1.5
  0
CIRCLE
  5
1B3
330
1F
100
AcDbEntity
  8
0
  6
Continuous
 62
     7
370
    25
100
AcDbCircle
 10
175.8326708993
 20
61.2188155384
 30
0.0
 40
1.5
  0
CIRCLE
  5
1B4
330
1F
100
AcDbEntity
  8
0
  6
Continuous
 62
     7
370
    25
100
AcDbCircle
 10
175.8326708993
 20
43.3188155384
 30
0.0
 40
1.5
  0
LINE
  5
1B5
330
1F
100
AcDbEntity
  8
0
  6
Continuous
 62
     7
370
    25
100
AcDbLine
 10
226.0027296384
 20
2.2688140483
 30
0.0
 11
145.5626125922
 21
2.2688140483
 31
0.0
  0
LINE
  5
1B6
330
1F
100
AcDbEntity
  8
0
  6
Continuous
 62
     7
370
    25
100
AcDbLine
 10
255.2826694687
 20
102.2688155384
 30
0.0
 11
226.0027296384
 21
2.2688140483
 31
0.0
  0
LINE
  5
1B7
330
1F
100
AcDbEntity
  8
0
  6
Continuous
 62
     7
370
    25
100
AcDbLine
 10
116.2826708993
 20
102.2688155384
 30
0.0
 11
255.2826694687
 21
102.2688155384
 31
0.0
  0
LINE
  5
1B8
330
1F
100
AcDbEntity
  8
0
  6
Continuous
 62
     7
370
    25
100
AcDbLine
 10
145.5626125922
 20
2.2688140483
 30
0.0
 11
116.2826708993
 21
102.2688155384
 31
0.0
  0
LINE
  5
1B9
330
1F
100
AcDbEntity
  8
0
  6
Continuous
 62
     7
370
    25
100
AcDbLine
 10
337.9781619078
 20
102.0753836702
 30
0.0
 11
257.5380448615
 21
102.0753836702
 31
0.0
  0
LINE
  5
1BA
330
1F
100
AcDbEntity
  8
0
  6
Continuous
 62
     7
370
    25
100
AcDbLine
 10
367.2581017381
 20
2.0753821801
 30
0.0
 11
337.9781619078
 21
102.0753836702
 31
0.0
  0
LINE
  5
1BB
330
1F
100
AcDbEntity
  8
0
  6
Continuous
 62
     7
370
    25
100
AcDbLine
 10
228.2581031686
 20
2.0753821801
 30
0.0
 11
367.2581017381
 21
2.0753821801
 31
0.0
  0
LINE
  5
1BC
330
1F
100
AcDbEntity
  8
0
  6
Continuous
 62
     7
370
    25
100
AcDbLine
 10
257.5380448615
 20
102.0753836702
 30
0.0
 11
228.2581031686
 21
2.0753821801
 31
0.0
  0
CIRCLE
  5
1BD
330
1F
100
AcDbEntity
  8
0
  6
Continuous
 62
     7
370
    25
100
AcDbCircle
 10
297.7581031686
 20
52.0753821801
 30
0.0
 40
4.999999999999993
  0
CIRCLE
  5
1BE
330
1F
100
AcDbEntity
  8
0
  6
Continuous
 62
     7
370
    25
100
AcDbCircle
 10
307.7081031686
 20
43.1253821801
 30
0.0
 40
1.5
  0
CIRCLE
  5
1BF
330
1F
100
AcDbEntity
  8
0
  6
Continuous
 62
     7
370
    25
100
AcDbCircle
 10
307.7081031686
 20
61.0253821801
 30
0.0
 40
1.5
  0
CIRCLE
  5
1C0
330
1F
100
AcDbEntity
  8
0
  6
Continuous
 62
     7
370
    25
100
AcDbCircle
 10
287.8081031686
 20
61.0253821801
 30
0.0
 40
1.5
  0
CIRCLE
  5
1C1
330
1F
100
AcDbEntity
  8
0
  6
Continuous
 62
     7
370
    25
100
AcDbCircle
 10
287.8081031686
 20
43.1253821801
 30
0.0
 40
1.5
  0
LINE
  5
1C2
330
1F
100
AcDbEntity
  8
0
  6
Continuous
 62
     7
370
    25
100
AcDbLine
 10
598.485771057
 20
102.1378577409
 30
0.0
 11
482.2456514955
 21
102.1378577409
 31
0.0
  0
LINE
  5
1C3
330
1F
100
AcDbEntity
  8
0
  6
Continuous
 62
     7
370
    25
100
AcDbLine
 10
627.7657034367
 20
2.1378562508
 30
0.0
 11
598.485771057
 21
102.1378577409
 31
0.0
  0
LINE
  5
1C4
330
1F
100
AcDbEntity
  8
0
  6
Continuous
 62
     7
370
    25
100
AcDbLine
 10
452.9657098025
 20
2.1378562508
 30
0.0
 11
627.7657034367
 21
2.1378562508
 31
0.0
  0
LINE
  5
1C5
330
1F
100
AcDbEntity
  8
0
  6
Continuous
 62
     7
370
    25
100
AcDbLine
 10
482.2456514955
 20
102.1378577409
 30
0.0
 11
452.9657098025
 21
2.1378562508
 31
0.0
  0
ELLIPSE
  5
1C6
330
1F
100
AcDbEntity
  8
0
  6
Continuous
 62
     7
370
    25
100
AcDbEllipse
 10
507.8657098025
 20
50.1774315416
 30
0.0
 11
0.0
 21
-20.51559542880147
 31
1.776356839400250E-15
210
0.0
220
8.658568285600211E-17
230
1.0
 40
0.7067793889
 41
4.639140668047531
 42
4.712388980384699
  0
ELLIPSE
  5
1C7
330
1F
100
AcDbEntity
  8
0
  6
Continuous
 62
     7
370
    25
100
AcDbEllipse
 10
507.8657098025
 20
50.1774315416
 30
0.0
 11
0.0
 21
-20.51559542880147
 31
1.776356839400250E-15
210
0.0
220
8.658568285600211E-17
230
1.0
 40
0.7067793889
 41
4.712388980384699
 42
6.283185307179586
  0
LINE
  5
1C8
330
1F
100
AcDbEntity
  8
0
  6
Continuous
 62
     7
370
    25
100
AcDbLine
 10
572.8657128781
 20
29.6618357954
 30
0.0
 11
507.865711537
 21
29.6618357954
 31
0.0
  0
ELLIPSE
  5
1C9
330
1F
100
AcDbEntity
  8
0
  6
Continuous
 62
     7
370
    25
100
AcDbEllipse
 10
572.8657098025
 20
50.1774315416
 30
0.0
 11
0.0
 21
20.51559542880145
 31
0.0
210
0.0
220
0.0
230
1.0
 40
0.7067793889
 41
3.141592653589793
 42
4.712388980384699
  0
ELLIPSE
  5
1CA
330
1F
100
AcDbEntity
  8
0
  6
Continuous
 62
     7
370
    25
100
AcDbEllipse
 10
572.8657098025
 20
50.1774315416
 30
0.0
 11
0.0
 21
-20.51559542880147
 31
1.554312234475219E-15
210
0.0
220
7.576247249900184E-17
230
1.0
 40
0.7067793889
 41
1.570796326794896
 42
1.644044639131978
  0
ELLIPSE
  5
1CB
330
1F
100
AcDbEntity
  8
0
  6
Continuous
 62
     7
370
    25
100
AcDbEllipse
 10
572.8657098025
 20
53.180210201
 30
0.0
 11
0.0
 21
20.51559542880148
 31
0.0
210
0.0
220
0.0
230
1.0
 40
0.7067793889
 41
4.639140668047448
 42
6.283185307179586
  0
ELLIPSE
  5
1CC
330
1F
100
AcDbEntity
  8
0
  6
Continuous
 62
     7
370
    25
100
AcDbEllipse
 10
507.8657098025
 20
53.180210201
 30
0.0
 11
1.136868377216160E-13
 21
20.51559542880145
 31
0.0
210
0.0
220
0.0
230
1.0
 40
0.7067793889
 41
0.0
 42
1.644044639132066
  0
CIRCLE
  5
1CD
330
1F
100
AcDbEntity
  8
0
  6
Continuous
 62
     7
370
    25
100
AcDbCircle
 10
530.4157098025
 20
78.9668309403
 30
0.0
 40
1.5
  0
CIRCLE
  5
1CE
330
1F
100
AcDbEntity
  8
0
  6
Continuous
 62
     7
370
    25
100
AcDbCircle
 10
530.4157098025
 20
96.8668309403
 30
0.0
 40
1.5
  0
CIRCLE
  5
1CF
330
1F
100
AcDbEntity
  8
0
  6
Continuous
 62
     7
370
    25
100
AcDbCircle
 10
550.3157098025
 20
96.8668309403
 30
0.0
 40
1.5
  0
CIRCLE
  5
1D0
330
1F
100
AcDbEntity
  8
0
  6
Continuous
 62
     7
370
    25
100
AcDbCircle
 10
550.3157098025
 20
78.9668309403
 30
0.0
 40
1.5
  0
CIRCLE
  5
1D1
330
1F
100
AcDbEntity
  8
0
  6
Continuous
 62
     7
370
    25
100
AcDbCircle
 10
540.3657098025
 20
87.9168309403
 30
0.0
 40
5.0
  0
LINE
  5
1D2
330
1F
100
AcDbEntity
  8
0
  6
Continuous
 62
     7
370
    25
100
AcDbLine
 10
507.865711537
 20
73.6958027539
 30
0.0
 11
572.8657128781
 21
73.6958027539
 31
0.0
  0
LINE
  5
1D3
330
1F
100
AcDbEntity
  8
0
  6
Continuous
 62
     7
370
    25
100
AcDbLine
 10
747.1878404802
 20
2.3198021705
 30
0.0
 11
630.9477227813
 21
2.3198021705
 31
0.0
  0
LINE
  5
1D4
330
1F
100
AcDbEntity
  8
0
  6
Continuous
 62
     7
370
    25
100
AcDbLine
 10
776.4677877611
 20
102.3198036606
 30
0.0
 11
747.1878404802
 21
2.3198021705
 31
0.0
  0
LINE
  5
1D5
330
1F
100
AcDbEntity
  8
0
  6
Continuous
 62
     7
370
    25
100
AcDbLine
 10
601.6677806227
 20
102.3198036606
 30
0.0
 11
776.4677877611
 21
102.3198036606
 31
0.0
  0
LINE
  5
1D6
330
1F
100
AcDbEntity
  8
0
  6
Continuous
 62
     7
370
    25
100
AcDbLine
 10
630.9477227813
 20
2.3198021705
 30
0.0
 11
601.6677806227
 21
102.3198036606
 31
0.0
  0
CIRCLE
  5
1D7
330
1F
100
AcDbEntity
  8
0
  6
Continuous
 62
     7
370
    25
100
AcDbCircle
 10
699.0177806085
 20
43.3698021705
 30
0.0
 40
1.499999999999993
  0
CIRCLE
  5
1D8
330
1F
100
AcDbEntity
  8
0
  6
Continuous
 62
     7
370
    25
100
AcDbCircle
 10
699.0177806085
 20
61.2698021705
 30
0.0
 40
1.499999999999993
  0
CIRCLE
  5
1D9
330
1F
100
AcDbEntity
  8
0
  6
Continuous
 62
     7
370
    25
100
AcDbCircle
 10
679.1177806085
 20
61.2698021705
 30
0.0
 40
1.5
  0
CIRCLE
  5
1DA
330
1F
100
AcDbEntity
  8
0
  6
Continuous
 62
     7
370
    25
100
AcDbCircle
 10
679.1177806085
 20
43.3698021705
 30
0.0
 40
1.5
  0
CIRCLE
  5
1DB
330
1F
100
AcDbEntity
  8
0
  6
Continuous
 62
     7
370
    25
100
AcDbCircle
 10
689.0677806085
 20
52.3198021705
 30
0.0
 40
4.999999999999993
  0
MTEXT
  5
1DD
330
1F
100
AcDbEntity
  8
0
  6
Continuous
 62
     7
100
AcDbMText
 10
0.0
 20
22.0602986318
 30
0.0
 40
7.90956
 41
0.0
 71
     1
 72
     1
  1
SOLIDWORKS Educational Product.
  7
SLDTEXTSTYLE0
 73
     1
 44
1.0
  0
MTEXT
  5
1DE
330
1F
100
AcDbEntity
  8
0
  6
Continuous
 62
     7
100
AcDbMText
 10
0.0
 20
10.1959586318
 30
0.0
 40
7.90956
 41
0.0
 71
     1
 72
     1
  1
For Instructional Use Only.
  7
SLDTEXTSTYLE0
 73
     1
 44
1.0
  0
ENDSEC
  0
SECTION
  2
OBJECTS
  0
DICTIONARY
  5
C
330
0
100
AcDbDictionary
281
     1
  3
ACAD_GROUP
350
D
  3
ACAD_LAYOUT
350
1A
  3
ACAD_MLINESTYLE
350
17
  3
ACAD_PLOTSETTINGS
350
19
  3
ACAD_PLOTSTYLENAME
350
E
  3
ACAD_SCALELIST
350
47
  0
DICTIONARY
  5
D
102
{ACAD_REACTORS
330
C
102
}
330
C
100
AcDbDictionary
281
     1
  0
DICTIONARY
  5
1A
102
{ACAD_REACTORS
330
C
102
}
330
C
100
AcDbDictionary
281
     1
  3
Layout1
350
1E
  3
Layout2
350
26
  3
Model
350
22
  0
DICTIONARY
  5
17
102
{ACAD_REACTORS
330
C
102
}
330
C
100
AcDbDictionary
281
     1
  3
Standard
350
18
  0
DICTIONARY
  5
19
102
{ACAD_REACTORS
330
C
102
}
330
C
100
AcDbDictionary
281
     1
  0
ACDBDICTIONARYWDFLT
  5
E
102
{ACAD_REACTORS
330
C
102
}
330
C
100
AcDbDictionary
281
     1
  3
Normal
350
F
100
AcDbDictionaryWithDefault
340
F
  0
DICTIONARY
  5
47
102
{ACAD_REACTORS
330
C
102
}
330
C
100
AcDbDictionary
281
     1
  3
A0
350
48
  3
A1
350
49
  3
A2
350
4A
  3
A3
350
4B
  3
A4
350
4C
  3
A5
350
4D
  3
A6
350
4E
  3
A7
350
4F
  3
A8
350
50
  3
A9
350
51
  3
B0
350
52
  3
B1
350
53
  3
B2
350
54
  3
B3
350
55
  3
B4
350
56
  3
B5
350
57
  3
B6
350
58
  3
B7
350
59
  3
B8
350
5A
  3
B9
350
5B
  3
C0
350
5C
  3
C1
350
5D
  3
C2
350
5E
  3
C3
350
5F
  3
C4
350
60
  3
C5
350
61
  3
C6
350
62
  3
C7
350
63
  3
C8
350
64
  3
C9
350
65
  3
D0
350
66
  3
D1
350
67
  3
D2
350
68
  0
LAYOUT
  5
1E
102
{ACAD_REACTORS
330
1A
102
}
330
1A
100
AcDbPlotSettings
  1

  2
none_device
  4

  6

 40
0.0
 41
0.0
 42
0.0
 43
0.0
 44
0.0
 45
0.0
 46
0.0
 47
0.0
 48
0.0
 49
0.0
140
0.0
141
0.0
142
1.0
143
1.0
 70
   688
 72
     1
 73
     0
 74
     5
  7

 75
    16
147
1.0
148
0.0
149
0.0
100
AcDbLayout
  1
Layout1
 70
     1
 71
     1
 10
0.0
 20
0.0
 11
420.0
 21
297.0
 12
0.0
 22
0.0
 32
0.0
 14
1.0000000000E+20
 24
1.0000000000E+20
 34
1.0000000000E+20
 15
-1.0000000000E+20
 25
-1.0000000000E+20
 35
-1.0000000000E+20
146
0.0
 13
0.0
 23
0.0
 33
0.0
 16
1.0
 26
0.0
 36
0.0
 17
0.0
 27
1.0
 37
0.0
 76
     0
330
1B
  0
LAYOUT
  5
26
102
{ACAD_REACTORS
330
1A
102
}
330
1A
100
AcDbPlotSettings
  1

  2
none_device
  4

  6

 40
0.0
 41
0.0
 42
0.0
 43
0.0
 44
0.0
 45
0.0
 46
0.0
 47
0.0
 48
0.0
 49
0.0
140
0.0
141
0.0
142
1.0
143
1.0
 70
   688
 72
     1
 73
     0
 74
     5
  7

 75
    16
147
1.0
148
0.0
149
0.0
100
AcDbLayout
  1
Layout2
 70
     1
 71
     2
 10
0.0
 20
0.0
 11
0.0
 21
0.0
 12
0.0
 22
0.0
 32
0.0
 14
0.0
 24
0.0
 34
0.0
 15
0.0
 25
0.0
 35
0.0
146
0.0
 13
0.0
 23
0.0
 33
0.0
 16
1.0
 26
0.0
 36
0.0
 17
0.0
 27
1.0
 37
0.0
 76
     0
330
23
  0
LAYOUT
  5
22
102
{ACAD_REACTORS
330
1A
102
}
330
1A
100
AcDbPlotSettings
  1

  2
none_device
  4
Letter_(8.50_x_11.00_Inches)
  6

 40
6.35
 41
6.35
 42
6.35000508
 43
6.35000508
 44
215.9
 45
279.4
 46
0.0
 47
0.0
 48
0.0
 49
0.0
140
0.0
141
0.0
142
1.0
143
1.0
 70
  1712
 72
     1
 73
     0
 74
     0
  7

 75
     0
147
1.0
148
0.0
149
0.0
100
AcDbLayout
  1
Model
 70
     1
 71
     0
 10
0.0
 20
0.0
 11
812.8
 21
457.2
 12
0.0
 22
0.0
 32
0.0
 14
0.0
 24
0.0
 34
0.0
 15
812.8
 25
457.2
 35
0.0
146
0.0
 13
0.0
 23
0.0
 33
0.0
 16
1.0
 26
0.0
 36
0.0
 17
0.0
 27
1.0
 37
0.0
 76
     0
330
1F
331
29
  0
MLINESTYLE
  5
18
102
{ACAD_REACTORS
330
17
102
}
330
17
100
AcDbMlineStyle
  2
Standard
 70
     0
  3

 62
   256
 51
90.0
 52
90.0
 71
     2
 49
0.5
 62
   256
  6
BYLAYER
 49
-0.5
 62
   256
  6
BYLAYER
  0
ACDBPLACEHOLDER
  5
F
102
{ACAD_REACTORS
330
E
102
}
330
E
  0
SCALE
  5
48
102
{ACAD_REACTORS
330
47
102
}
330
47
100
AcDbScale
 70
     0
300
1:1
140
1.0
141
1.0
290
     1
  0
SCALE
  5
49
102
{ACAD_REACTORS
330
47
102
}
330
47
100
AcDbScale
 70
     0
300
1:2
140
1.0
141
2.0
290
     0
  0
SCALE
  5
4A
102
{ACAD_REACTORS
330
47
102
}
330
47
100
AcDbScale
 70
     0
300
1:4
140
1.0
141
4.0
290
     0
  0
SCALE
  5
4B
102
{ACAD_REACTORS
330
47
102
}
330
47
100
AcDbScale
 70
     0
300
1:5
140
1.0
141
5.0
290
     0
  0
SCALE
  5
4C
102
{ACAD_REACTORS
330
47
102
}
330
47
100
AcDbScale
 70
     0
300
1:8
140
1.0
141
8.0
290
     0
  0
SCALE
  5
4D
102
{ACAD_REACTORS
330
47
102
}
330
47
100
AcDbScale
 70
     0
300
1:10
140
1.0
141
10.0
290
     0
  0
SCALE
  5
4E
102
{ACAD_REACTORS
330
47
102
}
330
47
100
AcDbScale
 70
     0
300
1:16
140
1.0
141
16.0
290
     0
  0
SCALE
  5
4F
102
{ACAD_REACTORS
330
47
102
}
330
47
100
AcDbScale
 70
     0
300
1:20
140
1.0
141
20.0
290
     0
  0
SCALE
  5
50
102
{ACAD_REACTORS
330
47
102
}
330
47
100
AcDbScale
 70
     0
300
1:30
140
1.0
141
30.0
290
     0
  0
SCALE
  5
51
102
{ACAD_REACTORS
330
47
102
}
330
47
100
AcDbScale
 70
     0
300
1:40
140
1.0
141
40.0
290
     0
  0
SCALE
  5
52
102
{ACAD_REACTORS
330
47
102
}
330
47
100
AcDbScale
 70
     0
300
1:50
140
1.0
141
50.0
290
     0
  0
SCALE
  5
53
102
{ACAD_REACTORS
330
47
102
}
330
47
100
AcDbScale
 70
     0
300
1:100
140
1.0
141
100.0
290
     0
  0
SCALE
  5
54
102
{ACAD_REACTORS
330
47
102
}
330
47
100
AcDbScale
 70
     0
300
2:1
140
2.0
141
1.0
290
     0
  0
SCALE
  5
55
102
{ACAD_REACTORS
330
47
102
}
330
47
100
AcDbScale
 70
     0
300
4:1
140
4.0
141
1.0
290
     0
  0
SCALE
  5
56
102
{ACAD_REACTORS
330
47
102
}
330
47
100
AcDbScale
 70
     0
300
8:1
140
8.0
141
1.0
290
     0
  0
SCALE
  5
57
102
{ACAD_REACTORS
330
47
102
}
330
47
100
AcDbScale
 70
     0
300
10:1
140
10.0
141
1.0
290
     0
  0
SCALE
  5
58
102
{ACAD_REACTORS
330
47
102
}
330
47
100
AcDbScale
 70
     0
300
100:1
140
100.0
141
1.0
290
     0
  0
SCALE
  5
59
102
{ACAD_REACTORS
330
47
102
}
330
47
100
AcDbScale
 70
     0
300
1/128" = 1'-0"
140
0.0078125
141
12.0
290
     0
  0
SCALE
  5
5A
102
{ACAD_REACTORS
330
47
102
}
330
47
100
AcDbScale
 70
     0
300
1/64" = 1'-0"
140
0.015625
141
12.0
290
     0
  0
SCALE
  5
5B
102
{ACAD_REACTORS
330
47
102
}
330
47
100
AcDbScale
 70
     0
300
1/32" = 1'-0"
140
0.03125
141
12.0
290
     0
  0
SCALE
  5
5C
102
{ACAD_REACTORS
330
47
102
}
330
47
100
AcDbScale
 70
     0
300
1/16" = 1'-0"
140
0.0625
141
12.0
290
     0
  0
SCALE
  5
5D
102
{ACAD_REACTORS
330
47
102
}
330
47
100
AcDbScale
 70
     0
300
3/32" = 1'-0"
140
0.09375
141
12.0
290
     0
  0
SCALE
  5
5E
102
{ACAD_REACTORS
330
47
102
}
330
47
100
AcDbScale
 70
     0
300
1/8" = 1'-0"
140
0.125
141
12.0
290
     0
  0
SCALE
  5
5F
102
{ACAD_REACTORS
330
47
102
}
330
47
100
AcDbScale
 70
     0
300
3/16" = 1'-0"
140
0.1875
141
12.0
290
     0
  0
SCALE
  5
60
102
{ACAD_REACTORS
330
47
102
}
330
47
100
AcDbScale
 70
     0
300
1/4" = 1'-0"
140
0.25
141
12.0
290
     0
  0
SCALE
  5
61
102
{ACAD_REACTORS
330
47
102
}
330
47
100
AcDbScale
 70
     0
300
3/8" = 1'-0"
140
0.375
141
12.0
290
     0
  0
SCALE
  5
62
102
{ACAD_REACTORS
330
47
102
}
330
47
100
AcDbScale
 70
     0
300
1/2" = 1'-0"
140
0.5
141
12.0
290
     0
  0
SCALE
  5
63
102
{ACAD_REACTORS
330
47
102
}
330
47
100
AcDbScale
 70
     0
300
3/4" = 1'-0"
140
0.75
141
12.0
290
     0
  0
SCALE
  5
64
102
{ACAD_REACTORS
330
47
102
}
330
47
100
AcDbScale
 70
     0
300
1" = 1'-0"
140
1.0
141
12.0
290
     0
  0
SCALE
  5
65
102
{ACAD_REACTORS
330
47
102
}
330
47
100
AcDbScale
 70
     0
300
1-1/2" = 1'-0"
140
1.5
141
12.0
290
     0
  0
SCALE
  5
66
102
{ACAD_REACTORS
330
47
102
}
330
47
100
AcDbScale
 70
     0
300
3" = 1'-0"
140
3.0
141
12.0
290
     0
  0
SCALE
  5
67
102
{ACAD_REACTORS
330
47
102
}
330
47
100
AcDbScale
 70
     0
300
6" = 1'-0"
140
6.0
141
12.0
290
     0
  0
SCALE
  5
68
102
{ACAD_REACTORS
330
47
102
}
330
47
100
AcDbScale
 70
     0
300
1'-0" = 1'-0"
140
12.0
141
12.0
290
     0
  0
ENDSEC
  0
EOF
