  0
SECTION
  2
HEADER
  9
$ACADVER
  1
AC1014
  9
$HANDSEED
  5
FFFF
  9
$MEASUREMENT
 70
     1
  0
ENDSEC
  0
SECTION
  2
TABLES
  0
TABLE
  2
VPORT
  5
8
330
0
100
AcDbSymbolTable
 70
     4
  0
VPORT
  5
2E
330
8
100
AcDbSymbolTableRecord
100
AcDbViewportTableRecord
  2
*ACTIVE
 70
     0
 10
0.0
 20
0.0
 11
1.0
 21
1.0
 12
210.0
 22
148.5
 13
0.0
 23
0.0
 14
10.0
 24
10.0
 15
10.0
 25
10.0
 16
0.0
 26
0.0
 36
1.0
 17
0.0
 27
0.0
 37
0.0
 40
341.0
 41
1.24
 42
50.0
 43
0.0
 44
0.0
 50
0.0
 51
0.0
 71
     0
 72
   100
 73
     1
 74
     3
 75
     0
 76
     0
 77
     0
 78
     0
  0
ENDTAB
  0
TABLE
  2
LTYPE
  5
5
330
0
100
AcDbSymbolTable
 70
     1
  0
LTYPE
  5
14
330
5
100
AcDbSymbolTableRecord
100
AcDbLinetypeTableRecord
  2
BYBLOCK
 70
     0
  3

 72
    65
 73
     0
 40
0.0
  0
LTYPE
  5
15
330
5
100
AcDbSymbolTableRecord
100
AcDbLinetypeTableRecord
  2
BYLAYER
 70
     0
  3

 72
    65
 73
     0
 40
0.0
  0
LTYPE
  5
16
330
5
100
AcDbSymbolTableRecord
100
AcDbLinetypeTableRecord
  2
CONTINUOUS
 70
     0
  3
Solid line
 72
    65
 73
     0
 40
0.0
  0
ENDTAB
  0
TABLE
  2
LAYER
  5
2
100
AcDbSymbolTable
 70
3
  0
LAYER
  5
50
100
AcDbSymbolTableRecord
100
AcDbLayerTableRecord
  2
0
 70
0
  6
CONTINUOUS
  0
LAYER
  5
51
100
AcDbSymbolTableRecord
100
AcDbLayerTableRecord
  2
Calque_1
 70
0
  6
CONTINUOUS
  0
LAYER
  5
52
100
AcDbSymbolTableRecord
100
AcDbLayerTableRecord
  2
Calque_2
 70
0
  6
CONTINUOUS
  0
ENDTAB
  0
TABLE
  2
STYLE
  5
3
330
0
100
AcDbSymbolTable
 70
     1
  0
STYLE
  5
11
330
3
100
AcDbSymbolTableRecord
100
AcDbTextStyleTableRecord
  2
STANDARD
 70
     0
 40
0.0
 41
1.0
 50
0.0
 71
     0
 42
2.5
  3
txt
  4

  0
ENDTAB
  0
TABLE
  2
VIEW
  5
6
330
0
100
AcDbSymbolTable
 70
     0
  0
ENDTAB
  0
TABLE
  2
UCS
  5
7
330
0
100
AcDbSymbolTable
 70
     0
  0
ENDTAB
  0
TABLE
  2
APPID
  5
9
330
0
100
AcDbSymbolTable
 70
     2
  0
APPID
  5
12
330
9
100
AcDbSymbolTableRecord
100
AcDbRegAppTableRecord
  2
ACAD
 70
     0
  0
ENDTAB
  0
TABLE
  2
DIMSTYLE
  5
A
330
0
100
AcDbSymbolTable
 70
     1
  0
DIMSTYLE
105
27
330
A
100
AcDbSymbolTableRecord
100
AcDbDimStyleTableRecord
  2
ISO-25
 70
     0
  3

  4

  5

  6

  7

 40
1.0
 41
2.5
 42
0.625
 43
3.75
 44
1.25
 45
0.0
 46
0.0
 47
0.0
 48
0.0
140
2.5
141
2.5
142
0.0
143
0.03937007874016
144
1.0
145
0.0
146
1.0
147
0.625
 71
     0
 72
     0
 73
     0
 74
     0
 75
     0
 76
     0
 77
     1
 78
     8
170
     0
171
     3
172
     1
173
     0
174
     0
175
     0
176
     0
177
     0
178
     0
270
     2
271
     2
272
     2
273
     2
274
     3
340
11
275
     0
280
     0
281
     0
282
     0
283
     0
284
     8
285
     0
286
     0
287
     3
288
     0
  0
ENDTAB
  0
TABLE
  2
BLOCK_RECORD
  5
1
330
0
100
AcDbSymbolTable
 70
     1
  0
BLOCK_RECORD
  5
1F
330
1
100
AcDbSymbolTableRecord
100
AcDbBlockTableRecord
  2
*MODEL_SPACE
  0
BLOCK_RECORD
  5
1B
330
1
100
AcDbSymbolTableRecord
100
AcDbBlockTableRecord
  2
*PAPER_SPACE
  0
ENDTAB
  0
ENDSEC
  0
SECTION
  2
BLOCKS
  0
BLOCK
  5
20
330
1F
100
AcDbEntity
  8
0
100
AcDbBlockBegin
  2
*MODEL_SPACE
 70
     0
 10
0.0
 20
0.0
 30
0.0
  3
*MODEL_SPACE
  1

  0
ENDBLK
  5
21
330
1F
100
AcDbEntity
  8
0
100
AcDbBlockEnd
  0
BLOCK
  5
1C
330
1B
100
AcDbEntity
 67
     1
  8
0
100
AcDbBlockBegin
  2
*PAPER_SPACE
  1

  0
ENDBLK
  5
1D
330
1B
100
AcDbEntity
 67
     1
  8
0
100
AcDbBlockEnd
  0
ENDSEC
  0
SECTION
  2
ENTITIES
  0
LWPOLYLINE
  5
100
100
AcDbEntity
  8
Calque_1
 62
7
100
AcDbPolyline
 90
27
 70
1
 10
401.552220
 20
726.735030
 30
0.0
 10
401.405160
 20
717.323650
 30
0.0
 10
401.356160
 20
671.345120
 30
0.0
 10
401.454260
 20
669.678540
 30
0.0
 10
401.797370
 20
668.992290
 30
0.0
 10
402.728710
 20
668.306040
 30
0.0
 10
403.611040
 20
667.962900
 30
0.0
 10
404.346290
 20
667.619790
 30
0.0
 10
526.079890
 20
667.980650
 30
0.0
 10
526.946400
 20
668.015350
 30
0.0
 10
528.055530
 20
668.431280
 30
0.0
 10
528.748740
 20
669.124490
 30
0.0
 10
529.337990
 20
670.060350
 30
0.0
 10
529.476640
 20
671.481420
 30
0.0
 10
529.649940
 20
725.829380
 30
0.0
 10
529.303330
 20
727.007830
 30
0.0
 10
528.506120
 20
727.943660
 30
0.0
 10
527.466310
 20
728.671530
 30
0.0
 10
526.114550
 20
728.914160
 30
0.0
 10
523.896260
 20
729.018160
 30
0.0
 10
405.824650
 20
729.070160
 30
0.0
 10
404.698190
 20
729.087660
 30
0.0
 10
403.918300
 20
728.931680
 30
0.0
 10
403.381060
 20
728.758360
 30
0.0
 10
402.757180
 20
728.325100
 30
0.0
 10
402.167950
 20
727.787860
 30
0.0
 10
401.700030
 20
727.094660
 30
0.0
  0
SPLINE
  5
101
100
AcDbEntity
  8
Calque_1
 62
7
100
AcDbSpline
 70
8
 71
3
 72
8
 73
4
 74
0
 40
0
 40
0
 40
0
 40
0
 40
1
 40
1
 40
1
 40
1
 10
68.979680
 20
584.558340
 30
0.0
 10
68.979680
 20
584.558340
 30
0.0
 10
68.234758
 20
576.141320
 30
0.0
 10
73.295944
 20
563.280610
 30
0.0
  0
SPLINE
  5
102
100
AcDbEntity
  8
Calque_1
 62
7
100
AcDbSpline
 70
8
 71
3
 72
8
 73
4
 74
0
 40
0
 40
0
 40
0
 40
0
 40
1
 40
1
 40
1
 40
1
 10
73.295944
 20
563.280610
 30
0.0
 10
76.869148
 20
554.200930
 30
0.0
 10
83.008109
 20
546.326650
 30
0.0
 10
95.951341
 20
538.030970
 30
0.0
  0
SPLINE
  5
103
100
AcDbEntity
  8
Calque_1
 62
7
100
AcDbSpline
 70
8
 71
3
 72
8
 73
4
 74
0
 40
0
 40
0
 40
0
 40
0
 40
1
 40
1
 40
1
 40
1
 10
95.951341
 20
538.030970
 30
0.0
 10
102.069880
 20
534.109420
 30
0.0
 10
107.960930
 20
529.121720
 30
0.0
 10
112.231150
 20
523.515950
 30
0.0
  0
SPLINE
  5
104
100
AcDbEntity
  8
Calque_1
 62
7
100
AcDbSpline
 70
8
 71
3
 72
8
 73
4
 74
0
 40
0
 40
0
 40
0
 40
0
 40
1
 40
1
 40
1
 40
1
 10
112.231150
 20
523.515950
 30
0.0
 10
114.550050
 20
520.471800
 30
0.0
 10
115.723570
 20
518.240140
 30
0.0
 10
117.730530
 20
513.842280
 30
0.0
  0
SPLINE
  5
105
100
AcDbEntity
  8
Calque_1
 62
7
100
AcDbSpline
 70
8
 71
3
 72
8
 73
4
 74
0
 40
0
 40
0
 40
0
 40
0
 40
1
 40
1
 40
1
 40
1
 10
117.730530
 20
513.842280
 30
0.0
 10
119.040280
 20
510.972220
 30
0.0
 10
118.872180
 20
511.798970
 30
0.0
 10
120.770330
 20
505.445600
 30
0.0
  0
SPLINE
  5
106
100
AcDbEntity
  8
Calque_1
 62
7
100
AcDbSpline
 70
8
 71
3
 72
8
 73
4
 74
0
 40
0
 40
0
 40
0
 40
0
 40
1
 40
1
 40
1
 40
1
 10
120.770330
 20
505.445600
 30
0.0
 10
120.917370
 20
504.953430
 30
0.0
 10
121.393690
 20
503.723850
 30
0.0
 10
121.626570
 20
501.882560
 30
0.0
  0
SPLINE
  5
107
100
AcDbEntity
  8
Calque_1
 62
7
100
AcDbSpline
 70
8
 71
3
 72
8
 73
4
 74
0
 40
0
 40
0
 40
0
 40
0
 40
1
 40
1
 40
1
 40
1
 10
121.626570
 20
501.882560
 30
0.0
 10
121.968270
 20
499.180780
 30
0.0
 10
122.065580
 20
495.281850
 30
0.0
 10
122.127410
 20
491.447860
 30
0.0
  0
LWPOLYLINE
  5
108
100
AcDbEntity
  8
Calque_1
 62
7
100
AcDbPolyline
 90
2
 70
0
 10
68.489504
 20
846.136540
 30
0.0
 10
68.979680
 20
584.558340
 30
0.0
  0
SPLINE
  5
109
100
AcDbEntity
  8
Calque_1
 62
7
100
AcDbSpline
 70
8
 71
3
 72
8
 73
4
 74
0
 40
0
 40
0
 40
0
 40
0
 40
1
 40
1
 40
1
 40
1
 10
122.242250
 20
335.305408
 30
0.0
 10
122.242250
 20
335.305408
 30
0.0
 10
122.267350
 20
327.086711
 30
0.0
 10
122.817210
 20
323.920868
 30
0.0
  0
SPLINE
  5
10a
100
AcDbEntity
  8
Calque_1
 62
7
100
AcDbSpline
 70
8
 71
3
 72
8
 73
4
 74
0
 40
0
 40
0
 40
0
 40
0
 40
1
 40
1
 40
1
 40
1
 10
122.817210
 20
323.920868
 30
0.0
 10
123.473860
 20
320.140344
 30
0.0
 10
124.702390
 20
315.722266
 30
0.0
 10
126.561320
 20
311.899539
 30
0.0
  0
SPLINE
  5
10b
100
AcDbEntity
  8
Calque_1
 62
7
100
AcDbSpline
 70
8
 71
3
 72
8
 73
4
 74
0
 40
0
 40
0
 40
0
 40
0
 40
1
 40
1
 40
1
 40
1
 10
126.561320
 20
311.899539
 30
0.0
 10
131.060060
 20
302.648276
 30
0.0
 10
136.345780
 20
297.617344
 30
0.0
 10
143.889390
 20
290.569379
 30
0.0
  0
SPLINE
  5
10c
100
AcDbEntity
  8
Calque_1
 62
7
100
AcDbSpline
 70
8
 71
3
 72
8
 73
4
 74
0
 40
0
 40
0
 40
0
 40
0
 40
1
 40
1
 40
1
 40
1
 10
143.889390
 20
290.569379
 30
0.0
 10
153.931420
 20
281.187145
 30
0.0
 10
162.093410
 20
271.896863
 30
0.0
 10
173.772300
 20
263.260970
 30
0.0
  0
SPLINE
  5
10d
100
AcDbEntity
  8
Calque_1
 62
7
100
AcDbSpline
 70
8
 71
3
 72
8
 73
4
 74
0
 40
0
 40
0
 40
0
 40
0
 40
1
 40
1
 40
1
 40
1
 10
173.772300
 20
263.260970
 30
0.0
 10
195.022930
 20
247.547303
 30
0.0
 10
224.642070
 20
224.930678
 30
0.0
 10
258.104480
 20
208.428469
 30
0.0
  0
SPLINE
  5
10e
100
AcDbEntity
  8
Calque_1
 62
7
100
AcDbSpline
 70
8
 71
3
 72
8
 73
4
 74
0
 40
0
 40
0
 40
0
 40
0
 40
1
 40
1
 40
1
 40
1
 10
258.104480
 20
208.428469
 30
0.0
 10
288.085140
 20
193.643310
 30
0.0
 10
320.753360
 20
180.163110
 30
0.0
 10
355.686800
 20
171.929080
 30
0.0
  0
SPLINE
  5
10f
100
AcDbEntity
  8
Calque_1
 62
7
100
AcDbSpline
 70
8
 71
3
 72
8
 73
4
 74
0
 40
0
 40
0
 40
0
 40
0
 40
1
 40
1
 40
1
 40
1
 10
355.686800
 20
171.929080
 30
0.0
 10
383.734370
 20
165.318100
 30
0.0
 10
419.051830
 20
159.936200
 30
0.0
 10
452.676020
 20
158.541120
 30
0.0
  0
SPLINE
  5
110
100
AcDbEntity
  8
Calque_1
 62
7
100
AcDbSpline
 70
8
 71
3
 72
8
 73
4
 74
0
 40
0
 40
0
 40
0
 40
0
 40
1
 40
1
 40
1
 40
1
 10
452.676020
 20
158.541120
 30
0.0
 10
537.023550
 20
155.041500
 30
0.0
 10
626.212690
 20
179.232380
 30
0.0
 10
694.150920
 20
218.708516
 30
0.0
  0
SPLINE
  5
111
100
AcDbEntity
  8
Calque_1
 62
7
100
AcDbSpline
 70
8
 71
3
 72
8
 73
4
 74
0
 40
0
 40
0
 40
0
 40
0
 40
1
 40
1
 40
1
 40
1
 10
694.150920
 20
218.708516
 30
0.0
 10
737.440060
 20
243.862071
 30
0.0
 10
774.721840
 20
274.352501
 30
0.0
 10
796.857380
 20
297.324982
 30
0.0
  0
SPLINE
  5
112
100
AcDbEntity
  8
Calque_1
 62
7
100
AcDbSpline
 70
8
 71
3
 72
8
 73
4
 74
0
 40
0
 40
0
 40
0
 40
0
 40
1
 40
1
 40
1
 40
1
 10
796.857380
 20
297.324982
 30
0.0
 10
813.857970
 20
314.968366
 30
0.0
 10
810.947210
 20
338.417564
 30
0.0
 10
810.947210
 20
338.417564
 30
0.0
  0
LWPOLYLINE
  5
113
100
AcDbEntity
  8
Calque_1
 62
7
100
AcDbPolyline
 90
2
 70
0
 10
122.127410
 20
491.447860
 30
0.0
 10
122.242250
 20
335.305408
 30
0.0
  0
SPLINE
  5
114
100
AcDbEntity
  8
Calque_1
 62
7
100
AcDbSpline
 70
8
 71
3
 72
8
 73
4
 74
0
 40
0
 40
0
 40
0
 40
0
 40
1
 40
1
 40
1
 40
1
 10
810.505330
 20
490.656620
 30
0.0
 10
810.505330
 20
490.656620
 30
0.0
 10
810.019670
 20
497.785410
 30
0.0
 10
812.031460
 20
506.233860
 30
0.0
  0
SPLINE
  5
115
100
AcDbEntity
  8
Calque_1
 62
7
100
AcDbSpline
 70
8
 71
3
 72
8
 73
4
 74
0
 40
0
 40
0
 40
0
 40
0
 40
1
 40
1
 40
1
 40
1
 10
812.031460
 20
506.233860
 30
0.0
 10
813.136260
 20
510.873430
 30
0.0
 10
815.526820
 20
515.668900
 30
0.0
 10
817.919530
 20
520.466210
 30
0.0
  0
SPLINE
  5
116
100
AcDbEntity
  8
Calque_1
 62
7
100
AcDbSpline
 70
8
 71
3
 72
8
 73
4
 74
0
 40
0
 40
0
 40
0
 40
0
 40
1
 40
1
 40
1
 40
1
 10
817.919530
 20
520.466210
 30
0.0
 10
820.195330
 20
525.029090
 30
0.0
 10
823.777310
 20
528.849980
 30
0.0
 10
827.433710
 20
532.207540
 30
0.0
  0
SPLINE
  5
117
100
AcDbEntity
  8
Calque_1
 62
7
100
AcDbSpline
 70
8
 71
3
 72
8
 73
4
 74
0
 40
0
 40
0
 40
0
 40
0
 40
1
 40
1
 40
1
 40
1
 10
827.433710
 20
532.207540
 30
0.0
 10
830.455540
 20
534.982400
 30
0.0
 10
836.323440
 20
539.154550
 30
0.0
 10
840.427470
 20
541.691080
 30
0.0
  0
SPLINE
  5
118
100
AcDbEntity
  8
Calque_1
 62
7
100
AcDbSpline
 70
8
 71
3
 72
8
 73
4
 74
0
 40
0
 40
0
 40
0
 40
0
 40
1
 40
1
 40
1
 40
1
 10
840.427470
 20
541.691080
 30
0.0
 10
845.324250
 20
544.717560
 30
0.0
 10
847.168660
 20
547.070600
 30
0.0
 10
848.806600
 20
548.746440
 30
0.0
  0
SPLINE
  5
119
100
AcDbEntity
  8
Calque_1
 62
7
100
AcDbSpline
 70
8
 71
3
 72
8
 73
4
 74
0
 40
0
 40
0
 40
0
 40
0
 40
1
 40
1
 40
1
 40
1
 10
848.806600
 20
548.746440
 30
0.0
 10
851.482130
 20
551.483860
 30
0.0
 10
852.660280
 20
552.457150
 30
0.0
 10
853.327550
 20
553.450280
 30
0.0
  0
SPLINE
  5
11a
100
AcDbEntity
  8
Calque_1
 62
7
100
AcDbSpline
 70
8
 71
3
 72
8
 73
4
 74
0
 40
0
 40
0
 40
0
 40
0
 40
1
 40
1
 40
1
 40
1
 10
853.327550
 20
553.450280
 30
0.0
 10
855.428100
 20
556.576610
 30
0.0
 10
857.167970
 20
560.384760
 30
0.0
 10
857.897680
 20
561.961580
 30
0.0
  0
SPLINE
  5
11b
100
AcDbEntity
  8
Calque_1
 62
7
100
AcDbSpline
 70
8
 71
3
 72
8
 73
4
 74
0
 40
0
 40
0
 40
0
 40
0
 40
1
 40
1
 40
1
 40
1
 10
857.897680
 20
561.961580
 30
0.0
 10
861.237670
 20
569.178950
 30
0.0
 10
862.230770
 20
575.612040
 30
0.0
 10
862.525040
 20
578.877740
 30
0.0
  0
SPLINE
  5
11c
100
AcDbEntity
  8
Calque_1
 62
7
100
AcDbSpline
 70
8
 71
3
 72
8
 73
4
 74
0
 40
0
 40
0
 40
0
 40
0
 40
1
 40
1
 40
1
 40
1
 10
862.525040
 20
578.877740
 30
0.0
 10
863.260210
 20
587.036520
 30
0.0
 10
863.101960
 20
595.269800
 30
0.0
 10
863.101960
 20
595.269800
 30
0.0
  0
LWPOLYLINE
  5
11d
100
AcDbEntity
  8
Calque_1
 62
7
100
AcDbPolyline
 90
2
 70
0
 10
810.947210
 20
338.417564
 30
0.0
 10
810.505330
 20
490.656620
 30
0.0
  0
SPLINE
  5
11e
100
AcDbEntity
  8
Calque_1
 62
7
100
AcDbSpline
 70
8
 71
3
 72
8
 73
4
 74
0
 40
0
 40
0
 40
0
 40
0
 40
1
 40
1
 40
1
 40
1
 10
863.984270
 20
844.622360
 30
0.0
 10
863.774770
 20
852.181900
 30
0.0
 10
863.643600
 20
856.689080
 30
0.0
 10
861.369010
 20
863.308950
 30
0.0
  0
SPLINE
  5
11f
100
AcDbEntity
  8
Calque_1
 62
7
100
AcDbSpline
 70
8
 71
3
 72
8
 73
4
 74
0
 40
0
 40
0
 40
0
 40
0
 40
1
 40
1
 40
1
 40
1
 10
861.369010
 20
863.308950
 30
0.0
 10
858.078550
 20
872.885340
 30
0.0
 10
851.989280
 20
881.063180
 30
0.0
 10
846.052360
 20
889.519070
 30
0.0
  0
SPLINE
  5
120
100
AcDbEntity
  8
Calque_1
 62
7
100
AcDbSpline
 70
8
 71
3
 72
8
 73
4
 74
0
 40
0
 40
0
 40
0
 40
0
 40
1
 40
1
 40
1
 40
1
 10
846.052360
 20
889.519070
 30
0.0
 10
837.506140
 20
901.691340
 30
0.0
 10
827.352210
 20
913.220910
 30
0.0
 10
817.277130
 20
925.599760
 30
0.0
  0
SPLINE
  5
121
100
AcDbEntity
  8
Calque_1
 62
7
100
AcDbSpline
 70
8
 71
3
 72
8
 73
4
 74
0
 40
0
 40
0
 40
0
 40
0
 40
1
 40
1
 40
1
 40
1
 10
817.277130
 20
925.599760
 30
0.0
 10
790.100750
 20
958.990270
 30
0.0
 10
740.024200
 20
1000.307930
 30
0.0
 10
697.964210
 20
1024.506870
 30
0.0
  0
SPLINE
  5
122
100
AcDbEntity
  8
Calque_1
 62
7
100
AcDbSpline
 70
8
 71
3
 72
8
 73
4
 74
0
 40
0
 40
0
 40
0
 40
0
 40
1
 40
1
 40
1
 40
1
 10
697.964210
 20
1024.506870
 30
0.0
 10
655.824680
 20
1048.751570
 30
0.0
 10
606.929920
 20
1068.109320
 30
0.0
 10
554.002800
 20
1078.058370
 30
0.0
  0
SPLINE
  5
123
100
AcDbEntity
  8
Calque_1
 62
7
100
AcDbSpline
 70
8
 71
3
 72
8
 73
4
 74
0
 40
0
 40
0
 40
0
 40
0
 40
1
 40
1
 40
1
 40
1
 10
554.002800
 20
1078.058370
 30
0.0
 10
506.498840
 20
1086.987990
 30
0.0
 10
455.530890
 20
1088.095640
 30
0.0
 10
406.889810
 20
1082.411900
 30
0.0
  0
SPLINE
  5
124
100
AcDbEntity
  8
Calque_1
 62
7
100
AcDbSpline
 70
8
 71
3
 72
8
 73
4
 74
0
 40
0
 40
0
 40
0
 40
0
 40
1
 40
1
 40
1
 40
1
 10
406.889810
 20
1082.411900
 30
0.0
 10
363.532050
 20
1077.345520
 30
0.0
 10
312.679740
 20
1061.709070
 30
0.0
 10
264.399110
 20
1039.338590
 30
0.0
  0
SPLINE
  5
125
100
AcDbEntity
  8
Calque_1
 62
7
100
AcDbSpline
 70
8
 71
3
 72
8
 73
4
 74
0
 40
0
 40
0
 40
0
 40
0
 40
1
 40
1
 40
1
 40
1
 10
264.399110
 20
1039.338590
 30
0.0
 10
232.059660
 20
1024.354340
 30
0.0
 10
181.824280
 20
993.039540
 30
0.0
 10
135.647630
 20
947.680070
 30
0.0
  0
SPLINE
  5
126
100
AcDbEntity
  8
Calque_1
 62
7
100
AcDbSpline
 70
8
 71
3
 72
8
 73
4
 74
0
 40
0
 40
0
 40
0
 40
0
 40
1
 40
1
 40
1
 40
1
 10
135.647630
 20
947.680070
 30
0.0
 10
119.520500
 20
931.838340
 30
0.0
 10
103.834170
 20
912.045520
 30
0.0
 10
89.456138
 20
892.369180
 30
0.0
  0
SPLINE
  5
127
100
AcDbEntity
  8
Calque_1
 62
7
100
AcDbSpline
 70
8
 71
3
 72
8
 73
4
 74
0
 40
0
 40
0
 40
0
 40
0
 40
1
 40
1
 40
1
 40
1
 10
89.456138
 20
892.369180
 30
0.0
 10
87.429336
 20
889.595500
 30
0.0
 10
85.654847
 20
886.683010
 30
0.0
 10
83.644510
 20
883.871230
 30
0.0
  0
SPLINE
  5
128
100
AcDbEntity
  8
Calque_1
 62
7
100
AcDbSpline
 70
8
 71
3
 72
8
 73
4
 74
0
 40
0
 40
0
 40
0
 40
0
 40
1
 40
1
 40
1
 40
1
 10
83.644510
 20
883.871230
 30
0.0
 10
80.956893
 20
880.112160
 30
0.0
 10
78.360557
 20
876.192420
 30
0.0
 10
76.210022
 20
872.369730
 30
0.0
  0
SPLINE
  5
129
100
AcDbEntity
  8
Calque_1
 62
7
100
AcDbSpline
 70
8
 71
3
 72
8
 73
4
 74
0
 40
0
 40
0
 40
0
 40
0
 40
1
 40
1
 40
1
 40
1
 10
76.210022
 20
872.369730
 30
0.0
 10
74.721297
 20
869.723450
 30
0.0
 10
75.657215
 20
871.711410
 30
0.0
 10
72.076415
 20
864.185070
 30
0.0
  0
SPLINE
  5
12a
100
AcDbEntity
  8
Calque_1
 62
7
100
AcDbSpline
 70
8
 71
3
 72
8
 73
4
 74
0
 40
0
 40
0
 40
0
 40
0
 40
1
 40
1
 40
1
 40
1
 10
72.076415
 20
864.185070
 30
0.0
 10
71.862276
 20
863.734980
 30
0.0
 10
70.369848
 20
859.780760
 30
0.0
 10
69.827470
 20
857.165730
 30
0.0
  0
SPLINE
  5
12b
100
AcDbEntity
  8
Calque_1
 62
7
100
AcDbSpline
 70
8
 71
3
 72
8
 73
4
 74
0
 40
0
 40
0
 40
0
 40
0
 40
1
 40
1
 40
1
 40
1
 10
69.827470
 20
857.165730
 30
0.0
 10
69.094185
 20
853.630260
 30
0.0
 10
68.552301
 20
851.018990
 30
0.0
 10
68.489474
 20
846.136540
 30
0.0
  0
LWPOLYLINE
  5
12c
100
AcDbEntity
  8
Calque_1
 62
7
100
AcDbPolyline
 90
3
 70
0
 10
863.101960
 20
595.269800
 30
0.0
 10
863.798200
 20
823.103810
 30
0.0
 10
863.984270
 20
844.622360
 30
0.0
  0
SPLINE
  5
12d
100
AcDbEntity
  8
Calque_1
 62
7
100
AcDbSpline
 70
8
 71
3
 72
8
 73
4
 74
0
 40
0
 40
0
 40
0
 40
0
 40
1
 40
1
 40
1
 40
1
 10
468.057810
 20
444.072630
 30
0.0
 10
468.057811
 20
437.728994
 30
0.0
 10
463.095299
 20
432.523628
 30
0.0
 10
456.830310
 20
432.295680
 30
0.0
  0
SPLINE
  5
12e
100
AcDbEntity
  8
Calque_1
 62
7
100
AcDbSpline
 70
8
 71
3
 72
8
 73
4
 74
0
 40
0
 40
0
 40
0
 40
0
 40
1
 40
1
 40
1
 40
1
 10
456.830310
 20
432.295680
 30
0.0
 10
450.565319
 20
432.067734
 30
0.0
 10
445.246168
 20
436.899013
 30
0.0
 10
444.795930
 20
443.226270
 30
0.0
  0
SPLINE
  5
12f
100
AcDbEntity
  8
Calque_1
 62
7
100
AcDbSpline
 70
8
 71
3
 72
8
 73
4
 74
0
 40
0
 40
0
 40
0
 40
0
 40
1
 40
1
 40
1
 40
1
 10
444.795930
 20
443.226270
 30
0.0
 10
444.345688
 20
449.553526
 30
0.0
 10
448.925936
 20
455.106099
 30
0.0
 10
455.158570
 20
455.788760
 30
0.0
  0
SPLINE
  5
130
100
AcDbEntity
  8
Calque_1
 62
7
100
AcDbSpline
 70
8
 71
3
 72
8
 73
4
 74
0
 40
0
 40
0
 40
0
 40
0
 40
1
 40
1
 40
1
 40
1
 10
455.158570
 20
455.788760
 30
0.0
 10
461.391205
 20
456.471420
 30
0.0
 10
467.039520
 20
452.039178
 30
0.0
 10
467.937670
 20
445.760980
 30
0.0
  0
SPLINE
  5
131
100
AcDbEntity
  8
Calque_1
 62
7
100
AcDbSpline
 70
8
 71
3
 72
8
 73
4
 74
0
 40
0
 40
0
 40
0
 40
0
 40
1
 40
1
 40
1
 40
1
 10
156.660260
 20
576.349020
 30
0.0
 10
143.011260
 20
576.571680
 30
0.0
 10
137.092690
 20
563.943690
 30
0.0
 10
137.053220
 20
558.506600
 30
0.0
  0
SPLINE
  5
132
100
AcDbEntity
  8
Calque_1
 62
7
100
AcDbSpline
 70
8
 71
3
 72
8
 73
4
 74
0
 40
0
 40
0
 40
0
 40
0
 40
1
 40
1
 40
1
 40
1
 10
137.053220
 20
558.506600
 30
0.0
 10
136.823840
 20
526.907400
 30
0.0
 10
137.350200
 20
495.305960
 30
0.0
 10
137.151220
 20
463.706550
 30
0.0
  0
SPLINE
  5
133
100
AcDbEntity
  8
Calque_1
 62
7
100
AcDbSpline
 70
8
 71
3
 72
8
 73
4
 74
0
 40
0
 40
0
 40
0
 40
0
 40
1
 40
1
 40
1
 40
1
 10
137.151220
 20
463.706550
 30
0.0
 10
137.139620
 20
461.861930
 30
0.0
 10
138.481670
 20
455.266720
 30
0.0
 10
141.170660
 20
452.236440
 30
0.0
  0
SPLINE
  5
134
100
AcDbEntity
  8
Calque_1
 62
7
100
AcDbSpline
 70
8
 71
3
 72
8
 73
4
 74
0
 40
0
 40
0
 40
0
 40
0
 40
1
 40
1
 40
1
 40
1
 10
141.170660
 20
452.236440
 30
0.0
 10
145.108940
 20
447.798320
 30
0.0
 10
151.217300
 20
444.465590
 30
0.0
 10
157.150400
 20
444.393610
 30
0.0
  0
SPLINE
  5
135
100
AcDbEntity
  8
Calque_1
 62
7
100
AcDbSpline
 70
8
 71
3
 72
8
 73
4
 74
0
 40
0
 40
0
 40
0
 40
0
 40
1
 40
1
 40
1
 40
1
 10
157.150400
 20
444.393610
 30
0.0
 10
162.691560
 20
444.326410
 30
0.0
 10
168.511230
 20
447.261810
 30
0.0
 10
172.247820
 20
451.354110
 30
0.0
  0
SPLINE
  5
136
100
AcDbEntity
  8
Calque_1
 62
7
100
AcDbSpline
 70
8
 71
3
 72
8
 73
4
 74
0
 40
0
 40
0
 40
0
 40
0
 40
1
 40
1
 40
1
 40
1
 10
172.247820
 20
451.354110
 30
0.0
 10
175.474580
 20
454.888040
 30
0.0
 10
176.947280
 20
460.095100
 30
0.0
 10
177.051550
 20
464.882970
 30
0.0
  0
SPLINE
  5
137
100
AcDbEntity
  8
Calque_1
 62
7
100
AcDbSpline
 70
8
 71
3
 72
8
 73
4
 74
0
 40
0
 40
0
 40
0
 40
0
 40
1
 40
1
 40
1
 40
1
 10
177.051550
 20
464.882970
 30
0.0
 10
177.726090
 20
495.855370
 30
0.0
 10
176.587390
 20
554.803720
 30
0.0
 10
176.463340
 20
557.820350
 30
0.0
  0
SPLINE
  5
138
100
AcDbEntity
  8
Calque_1
 62
7
100
AcDbSpline
 70
8
 71
3
 72
8
 73
4
 74
0
 40
0
 40
0
 40
0
 40
0
 40
1
 40
1
 40
1
 40
1
 10
176.463340
 20
557.820350
 30
0.0
 10
176.339290
 20
560.836980
 30
0.0
 10
175.315570
 20
564.121000
 30
0.0
 10
173.620320
 20
566.741550
 30
0.0
  0
SPLINE
  5
139
100
AcDbEntity
  8
Calque_1
 62
7
100
AcDbSpline
 70
8
 71
3
 72
8
 73
4
 74
0
 40
0
 40
0
 40
0
 40
0
 40
1
 40
1
 40
1
 40
1
 10
173.620320
 20
566.741550
 30
0.0
 10
171.546340
 20
569.947540
 30
0.0
 10
168.692080
 20
572.612600
 30
0.0
 10
165.091250
 20
574.388300
 30
0.0
  0
SPLINE
  5
13a
100
AcDbEntity
  8
Calque_1
 62
7
100
AcDbSpline
 70
8
 71
3
 72
8
 73
4
 74
0
 40
0
 40
0
 40
0
 40
0
 40
1
 40
1
 40
1
 40
1
 10
165.091250
 20
574.388300
 30
0.0
 10
161.103780
 20
576.354670
 30
0.0
 10
159.545200
 20
576.301960
 30
0.0
 10
156.660260
 20
576.349020
 30
0.0
  0
LWPOLYLINE
  5
13b
100
AcDbEntity
  8
Calque_1
 62
7
100
AcDbPolyline
 90
1
 70
1
 10
68.489474
 20
846.136540
 30
0.0
  0
SPLINE
  5
13c
100
AcDbEntity
  8
Calque_1
 62
7
100
AcDbSpline
 70
8
 71
3
 72
8
 73
4
 74
0
 40
0
 40
0
 40
0
 40
0
 40
1
 40
1
 40
1
 40
1
 10
775.715100
 20
577.328480
 30
0.0
 10
762.066100
 20
577.551140
 30
0.0
 10
756.147530
 20
564.923150
 30
0.0
 10
756.108060
 20
559.486060
 30
0.0
  0
SPLINE
  5
13d
100
AcDbEntity
  8
Calque_1
 62
7
100
AcDbSpline
 70
8
 71
3
 72
8
 73
4
 74
0
 40
0
 40
0
 40
0
 40
0
 40
1
 40
1
 40
1
 40
1
 10
756.108060
 20
559.486060
 30
0.0
 10
755.878680
 20
527.886860
 30
0.0
 10
756.405040
 20
496.285420
 30
0.0
 10
756.206060
 20
464.686010
 30
0.0
  0
SPLINE
  5
13e
100
AcDbEntity
  8
Calque_1
 62
7
100
AcDbSpline
 70
8
 71
3
 72
8
 73
4
 74
0
 40
0
 40
0
 40
0
 40
0
 40
1
 40
1
 40
1
 40
1
 10
756.206060
 20
464.686010
 30
0.0
 10
756.194460
 20
462.841390
 30
0.0
 10
757.536510
 20
456.246180
 30
0.0
 10
760.225500
 20
453.215890
 30
0.0
  0
SPLINE
  5
13f
100
AcDbEntity
  8
Calque_1
 62
7
100
AcDbSpline
 70
8
 71
3
 72
8
 73
4
 74
0
 40
0
 40
0
 40
0
 40
0
 40
1
 40
1
 40
1
 40
1
 10
760.225500
 20
453.215890
 30
0.0
 10
764.163780
 20
448.777770
 30
0.0
 10
770.272140
 20
445.445050
 30
0.0
 10
776.205240
 20
445.373070
 30
0.0
  0
SPLINE
  5
140
100
AcDbEntity
  8
Calque_1
 62
7
100
AcDbSpline
 70
8
 71
3
 72
8
 73
4
 74
0
 40
0
 40
0
 40
0
 40
0
 40
1
 40
1
 40
1
 40
1
 10
776.205240
 20
445.373070
 30
0.0
 10
781.746400
 20
445.305870
 30
0.0
 10
787.566070
 20
448.241270
 30
0.0
 10
791.302660
 20
452.333570
 30
0.0
  0
SPLINE
  5
141
100
AcDbEntity
  8
Calque_1
 62
7
100
AcDbSpline
 70
8
 71
3
 72
8
 73
4
 74
0
 40
0
 40
0
 40
0
 40
0
 40
1
 40
1
 40
1
 40
1
 10
791.302660
 20
452.333570
 30
0.0
 10
794.529420
 20
455.867500
 30
0.0
 10
796.002120
 20
461.074550
 30
0.0
 10
796.106390
 20
465.862430
 30
0.0
  0
SPLINE
  5
142
100
AcDbEntity
  8
Calque_1
 62
7
100
AcDbSpline
 70
8
 71
3
 72
8
 73
4
 74
0
 40
0
 40
0
 40
0
 40
0
 40
1
 40
1
 40
1
 40
1
 10
796.106390
 20
465.862430
 30
0.0
 10
796.780930
 20
496.834830
 30
0.0
 10
795.642230
 20
555.783180
 30
0.0
 10
795.518180
 20
558.799810
 30
0.0
  0
SPLINE
  5
143
100
AcDbEntity
  8
Calque_1
 62
7
100
AcDbSpline
 70
8
 71
3
 72
8
 73
4
 74
0
 40
0
 40
0
 40
0
 40
0
 40
1
 40
1
 40
1
 40
1
 10
795.518180
 20
558.799810
 30
0.0
 10
795.394130
 20
561.816440
 30
0.0
 10
794.370410
 20
565.100460
 30
0.0
 10
792.675160
 20
567.721010
 30
0.0
  0
SPLINE
  5
144
100
AcDbEntity
  8
Calque_1
 62
7
100
AcDbSpline
 70
8
 71
3
 72
8
 73
4
 74
0
 40
0
 40
0
 40
0
 40
0
 40
1
 40
1
 40
1
 40
1
 10
792.675160
 20
567.721010
 30
0.0
 10
790.601180
 20
570.927000
 30
0.0
 10
787.746920
 20
573.592060
 30
0.0
 10
784.146090
 20
575.367760
 30
0.0
  0
SPLINE
  5
145
100
AcDbEntity
  8
Calque_1
 62
7
100
AcDbSpline
 70
8
 71
3
 72
8
 73
4
 74
0
 40
0
 40
0
 40
0
 40
0
 40
1
 40
1
 40
1
 40
1
 10
784.146090
 20
575.367760
 30
0.0
 10
780.158620
 20
577.334130
 30
0.0
 10
778.600040
 20
577.281420
 30
0.0
 10
775.715100
 20
577.328480
 30
0.0
  0
LWPOLYLINE
  5
146
100
AcDbEntity
  8
Calque_1
 62
7
100
AcDbPolyline
 90
1
 70
1
 10
156.660260
 20
576.349020
 30
0.0
  0
LWPOLYLINE
  5
147
100
AcDbEntity
  8
Calque_1
 62
7
100
AcDbPolyline
 90
1
 70
1
 10
775.715100
 20
577.328480
 30
0.0
  0
ENDSEC
  0
SECTION
  2
OBJECTS
  0
DICTIONARY
  5
C
330
0
100
AcDbDictionary
  3
ACAD_GROUP
350
D
  3
ACAD_MLINESTYLE
350
17
  0
DICTIONARY
  5
D
330
C
100
AcDbDictionary
  0
DICTIONARY
  5
1A
330
C
100
AcDbDictionary
  0
DICTIONARY
  5
17
330
C
100
AcDbDictionary
  3
STANDARD
350
18
  0
DICTIONARY
  5
19
330
C
100
AcDbDictionary
  0
ENDSEC
  0
EOF
