  0
SECTION
  2
HEADER
  9
$ACADVER
  1
AC1015
  9
$ACADMAINTVER
 70
     6
  9
$DWGCODEPAGE
  3
ANSI_1252
  9
$INSBASE
 10
0.0
 20
0.0
 30
0.0
  9
$EXTMIN
 10
0.0
 20
0.0
 30
0.0
  9
$EXTMAX
 10
812.8
 20
457.2
 30
0.0
  9
$LIMMIN
 10
0.0
 20
0.0
  9
$LIMMAX
 10
812.8
 20
457.2
  9
$ORTHOMODE
 70
     0
  9
$REGENMODE
 70
     1
  9
$FILLMODE
 70
     1
  9
$QTEXTMODE
 70
     0
  9
$MIRRTEXT
 70
     1
  9
$LTSCALE
 40
1.0
  9
$ATTMODE
 70
     1
  9
$TEXTSIZE
 40
3.175
  9
$TRACEWID
 40
1.0
  9
$TEXTSTYLE
  7
Standard
  9
$CLAYER
  8
0
  9
$CELTYPE
  6
ByLayer
  9
$CECOLOR
 62
   256
  9
$CELTSCALE
 40
1.0
  9
$DISPSILH
 70
     0
  9
$DIMSCALE
 40
1.0
  9
$DIMASZ
 40
3.302
  9
$DIMEXO
 40
1.27
  9
$DIMDLI
 40
3.75
  9
$DIMRND
 40
0.0
  9
$DIMDLE
 40
0.0
  9
$DIMEXE
 40
3.175
  9
$DIMTP
 40
0.0
  9
$DIMTM
 40
0.0
  9
$DIMTXT
 40
3.175
  9
$DIMCEN
 40
2.5
  9
$DIMTSZ
 40
0.0
  9
$DIMTOL
 70
     0
  9
$DIMLIM
 70
     0
  9
$DIMTIH
 70
     1
  9
$DIMTOH
 70
     1
  9
$DIMSE1
 70
     0
  9
$DIMSE2
 70
     0
  9
$DIMTAD
 70
     0
  9
$DIMZIN
 70
     1
  9
$DIMBLK
  1

  9
$DIMASO
 70
     1
  9
$DIMSHO
 70
     1
  9
$DIMPOST
  1

  9
$DIMAPOST
  1

  9
$DIMALT
 70
     0
  9
$DIMALTD
 70
     3
  9
$DIMALTF
 40
0.0393700787
  9
$DIMLFAC
 40
2.0
  9
$DIMTOFL
 70
     1
  9
$DIMTVP
 40
0.0
  9
$DIMTIX
 70
     0
  9
$DIMSOXD
 70
     0
  9
$DIMSAH
 70
     0
  9
$DIMBLK1
  1

  9
$DIMBLK2
  1

  9
$DIMSTYLE
  2
ISO-25
  9
$DIMCLRD
 70
     0
  9
$DIMCLRE
 70
     0
  9
$DIMCLRT
 70
     0
  9
$DIMTFAC
 40
1.0
  9
$DIMGAP
 40
1.524
  9
$DIMJUST
 70
     0
  9
$DIMSD1
 70
     0
  9
$DIMSD2
 70
     0
  9
$DIMTOLJ
 70
     0
  9
$DIMTZIN
 70
     1
  9
$DIMALTZ
 70
     0
  9
$DIMALTTZ
 70
     0
  9
$DIMUPT
 70
     0
  9
$DIMDEC
 70
     2
  9
$DIMTDEC
 70
     2
  9
$DIMALTU
 70
     2
  9
$DIMALTTD
 70
     3
  9
$DIMTXSTY
  7
Standard
  9
$DIMAUNIT
 70
     0
  9
$DIMADEC
 70
     2
  9
$DIMALTRND
 40
0.0
  9
$DIMAZIN
 70
     0
  9
$DIMDSEP
 70
    44
  9
$DIMATFIT
 70
     3
  9
$DIMFRAC
 70
     0
  9
$DIMLDRBLK
  1

  9
$DIMLUNIT
 70
     2
  9
$DIMLWD
 70
    -2
  9
$DIMLWE
 70
    -2
  9
$DIMTMOVE
 70
     0
  9
$LUNITS
 70
     2
  9
$LUPREC
 70
     2
  9
$SKETCHINC
 40
1.0
  9
$FILLETRAD
 40
10.0
  9
$AUNITS
 70
     0
  9
$AUPREC
 70
     2
  9
$MENU
  1
.
  9
$ELEVATION
 40
0.0
  9
$PELEVATION
 40
0.0
  9
$THICKNESS
 40
0.0
  9
$LIMCHECK
 70
     0
  9
$CHAMFERA
 40
0.0
  9
$CHAMFERB
 40
0.0
  9
$CHAMFERC
 40
0.0
  9
$CHAMFERD
 40
0.0
  9
$SKPOLY
 70
     0
  9
$TDCREATE
 40
2458781.740084364
  9
$TDUCREATE
 40
2458781.90675103
  9
$TDUPDATE
 40
2458781.740085764
  9
$TDUUPDATE
 40
2458781.90675243
  9
$TDINDWG
 40
0.0000000116
  9
$TDUSRTIMER
 40
0.0000000116
  9
$USRTIMER
 70
     1
  9
$ANGBASE
 50
0.0
  9
$ANGDIR
 70
     0
  9
$PDMODE
 70
     0
  9
$PDSIZE
 40
-1.0
  9
$PLINEWID
 40
0.0
  9
$SPLFRAME
 70
     0
  9
$SPLINETYPE
 70
     6
  9
$SPLINESEGS
 70
     8
  9
$HANDSEED
  5
1E3
  9
$SURFTAB1
 70
     6
  9
$SURFTAB2
 70
     6
  9
$SURFTYPE
 70
     6
  9
$SURFU
 70
     6
  9
$SURFV
 70
     6
  9
$UCSBASE
  2

  9
$UCSNAME
  2

  9
$UCSORG
 10
0.0
 20
0.0
 30
0.0
  9
$UCSXDIR
 10
1.0
 20
0.0
 30
0.0
  9
$UCSYDIR
 10
0.0
 20
1.0
 30
0.0
  9
$UCSORTHOREF
  2

  9
$UCSORTHOVIEW
 70
     0
  9
$UCSORGTOP
 10
0.0
 20
0.0
 30
0.0
  9
$UCSORGBOTTOM
 10
0.0
 20
0.0
 30
0.0
  9
$UCSORGLEFT
 10
0.0
 20
0.0
 30
0.0
  9
$UCSORGRIGHT
 10
0.0
 20
0.0
 30
0.0
  9
$UCSORGFRONT
 10
0.0
 20
0.0
 30
0.0
  9
$UCSORGBACK
 10
0.0
 20
0.0
 30
0.0
  9
$PUCSBASE
  2

  9
$PUCSNAME
  2

  9
$PUCSORG
 10
0.0
 20
0.0
 30
0.0
  9
$PUCSXDIR
 10
1.0
 20
0.0
 30
0.0
  9
$PUCSYDIR
 10
0.0
 20
1.0
 30
0.0
  9
$PUCSORTHOREF
  2

  9
$PUCSORTHOVIEW
 70
     0
  9
$PUCSORGTOP
 10
0.0
 20
0.0
 30
0.0
  9
$PUCSORGBOTTOM
 10
0.0
 20
0.0
 30
0.0
  9
$PUCSORGLEFT
 10
0.0
 20
0.0
 30
0.0
  9
$PUCSORGRIGHT
 10
0.0
 20
0.0
 30
0.0
  9
$PUCSORGFRONT
 10
0.0
 20
0.0
 30
0.0
  9
$PUCSORGBACK
 10
0.0
 20
0.0
 30
0.0
  9
$USERI1
 70
     0
  9
$USERI2
 70
     0
  9
$USERI3
 70
     0
  9
$USERI4
 70
     0
  9
$USERI5
 70
     0
  9
$USERR1
 40
0.0
  9
$USERR2
 40
0.0
  9
$USERR3
 40
0.0
  9
$USERR4
 40
0.0
  9
$USERR5
 40
0.0
  9
$WORLDVIEW
 70
     1
  9
$SHADEDGE
 70
     3
  9
$SHADEDIF
 70
    70
  9
$TILEMODE
 70
     1
  9
$MAXACTVP
 70
    64
  9
$PINSBASE
 10
0.0
 20
0.0
 30
0.0
  9
$PLIMCHECK
 70
     0
  9
$PEXTMIN
 10
1.0000000000E+20
 20
1.0000000000E+20
 30
1.0000000000E+20
  9
$PEXTMAX
 10
-1.0000000000E+20
 20
-1.0000000000E+20
 30
-1.0000000000E+20
  9
$PLIMMIN
 10
0.0
 20
0.0
  9
$PLIMMAX
 10
420.0
 20
297.0
  9
$UNITMODE
 70
     0
  9
$VISRETAIN
 70
     1
  9
$PLINEGEN
 70
     0
  9
$PSLTSCALE
 70
     1
  9
$TREEDEPTH
 70
  3020
  9
$CMLSTYLE
  2
Standard
  9
$CMLJUST
 70
     0
  9
$CMLSCALE
 40
20.0
  9
$PROXYGRAPHICS
 70
     1
  9
$MEASUREMENT
 70
     1
  9
$CELWEIGHT
370
    -1
  9
$ENDCAPS
280
     0
  9
$JOINSTYLE
280
     0
  9
$LWDISPLAY
290
     1
  9
$INSUNITS
 70
     4
  9
$HYPERLINKBASE
  1

  9
$STYLESHEET
  1

  9
$XEDIT
290
     1
  9
$CEPSNTYPE
380
     0
  9
$PSTYLEMODE
290
     1
  9
$FINGERPRINTGUID
  2
{c185534d-ecbc-48d4-905b-ee9a2e513a8e}
  9
$VERSIONGUID
  2
{FAEB1C32-E019-11D5-929B-00C0DF256EC4}
  9
$EXTNAMES
290
     1
  9
$PSVPSCALE
 40
0.0
  9
$OLESTARTUP
290
     0
  0
ENDSEC
  0
SECTION
  2
CLASSES
  0
CLASS
  1
ACDBDICTIONARYWDFLT
  2
AcDbDictionaryWithDefault
  3
ObjectDBX Classes
 90
        0
280
     0
281
     0
  0
CLASS
  1
VISUALSTYLE
  2
AcDbVisualStyle
  3
ObjectDBX Classes
 90
     4095
280
     0
281
     0
  0
CLASS
  1
MATERIAL
  2
AcDbMaterial
  3
ObjectDBX Classes
 90
     1153
280
     0
281
     0
  0
CLASS
  1
SCALE
  2
AcDbScale
  3
ObjectDBX Classes
 90
     1153
280
     0
281
     0
  0
CLASS
  1
TABLESTYLE
  2
AcDbTableStyle
  3
ObjectDBX Classes
 90
     4095
280
     0
281
     0
  0
CLASS
  1
MLEADERSTYLE
  2
AcDbMLeaderStyle
  3
ACDB_MLEADERSTYLE_CLASS
 90
     4095
280
     0
281
     0
  0
CLASS
  1
SUN
  2
AcDbSun
  3
SCENEOE
 90
     1153
280
     0
281
     0
  0
CLASS
  1
ACDBPLACEHOLDER
  2
AcDbPlaceHolder
  3
ObjectDBX Classes
 90
        0
280
     0
281
     0
  0
CLASS
  1
LAYOUT
  2
AcDbLayout
  3
ObjectDBX Classes
 90
        0
280
     0
281
     0
  0
ENDSEC
  0
SECTION
  2
TABLES
  0
TABLE
  2
VPORT
  5
8
330
0
100
AcDbSymbolTable
 70
     1
  0
VPORT
  5
29
330
8
100
AcDbSymbolTableRecord
100
AcDbViewportTableRecord
  2
*Active
 70
     0
 10
0.0
 20
0.0
 11
1.0
 21
1.0
 12
406.4
 22
228.6
 13
0.0
 23
0.0
 14
10.0
 24
10.0
 15
10.0
 25
10.0
 16
0.0
 26
0.0
 36
1.0
 17
0.0
 27
0.0
 37
0.0
 40
457.2
 41
1.7777777778
 42
50.0
 43
0.0
 44
0.0
 50
0.0
 51
0.0
 71
     0
 72
  2000
 73
     1
 74
     3
 75
     0
 76
     0
 77
     0
 78
     0
281
     0
 65
     1
110
0.0
120
0.0
130
0.0
111
1.0
121
0.0
131
0.0
112
0.0
122
1.0
132
0.0
 79
     0
146
0.0
  0
ENDTAB
  0
TABLE
  2
LTYPE
  5
5
330
0
100
AcDbSymbolTable
 70
     6
  0
LTYPE
  5
14
330
5
100
AcDbSymbolTableRecord
100
AcDbLinetypeTableRecord
  2
ByBlock
 70
     0
  3

 72
    65
 73
     0
 40
0.0
  0
LTYPE
  5
15
330
5
100
AcDbSymbolTableRecord
100
AcDbLinetypeTableRecord
  2
ByLayer
 70
     0
  3

 72
    65
 73
     0
 40
0.0
  0
LTYPE
  5
16
330
5
100
AcDbSymbolTableRecord
100
AcDbLinetypeTableRecord
  2
Continuous
 70
     0
  3
Solid line
 72
    65
 73
     0
 40
0.0
  0
LTYPE
  5
6E
330
5
100
AcDbSymbolTableRecord
100
AcDbLinetypeTableRecord
  2
HIDDEN
 70
     0
  3
Hidden __ __ __ __ __ __ __ __ __ __ __ __ __ __
 72
    65
 73
     2
 40
1.905
 49
1.27
 74
     0
 49
-0.635
 74
     0
  0
LTYPE
  5
6F
330
5
100
AcDbSymbolTableRecord
100
AcDbLinetypeTableRecord
  2
PHANTOM
 70
     0
  3
Phantom ______  __  __  ______  __  __  ______
 72
    65
 73
     6
 40
12.7
 49
6.35
 74
     0
 49
-1.27
 74
     0
 49
1.27
 74
     0
 49
-1.27
 74
     0
 49
1.27
 74
     0
 49
-1.27
 74
     0
  0
LTYPE
  5
70
330
5
100
AcDbSymbolTableRecord
100
AcDbLinetypeTableRecord
  2
CENTER
 70
     0
  3
Center ____ _ ____ _ ____ _ ____ _ ____ _ ____
 72
    65
 73
     4
 40
10.16
 49
6.35
 74
     0
 49
-1.27
 74
     0
 49
1.27
 74
     0
 49
-1.27
 74
     0
  0
LTYPE
  5
71
330
5
100
AcDbSymbolTableRecord
100
AcDbLinetypeTableRecord
  2
CENTERX2
 70
     0
  3
Center (2x) ________  __  ________  __  _____
 72
    65
 73
     4
 40
20.32
 49
12.7
 74
     0
 49
-2.54
 74
     0
 49
2.54
 74
     0
 49
-2.54
 74
     0
  0
LTYPE
  5
72
330
5
100
AcDbSymbolTableRecord
100
AcDbLinetypeTableRecord
  2
DOT2
 70
     0
  3
Dot (.5x) ........................................
 72
    65
 73
     2
 40
0.635
 49
0.0
 74
     0
 49
-0.635
 74
     0
  0
ENDTAB
  0
TABLE
  2
LAYER
  5
2
330
0
100
AcDbSymbolTable
 70
     1
  0
LAYER
  5
10
330
2
100
AcDbSymbolTableRecord
100
AcDbLayerTableRecord
  2
0
 70
     0
 62
     7
  6
Continuous
370
    -3
390
F
  0
ENDTAB
  0
TABLE
  2
STYLE
  5
3
330
0
100
AcDbSymbolTable
 70
     2
  0
STYLE
  5
11
330
3
100
AcDbSymbolTableRecord
100
AcDbTextStyleTableRecord
  2
Standard
 70
     0
 40
0.0
 41
1.0
 50
0.0
 71
     0
 42
3.175
  3
txt
  4

  0
STYLE
  5
1E0
330
3
100
AcDbSymbolTableRecord
100
AcDbTextStyleTableRecord
  2
SLDTEXTSTYLE0
 70
     0
 40
0.0
 41
0.7
 50
0.0
 71
     0
 42
3.175
  3
TXT
  4

  0
ENDTAB
  0
TABLE
  2
VIEW
  5
6
330
0
100
AcDbSymbolTable
 70
     0
  0
ENDTAB
  0
TABLE
  2
UCS
  5
7
330
0
100
AcDbSymbolTable
 70
     0
  0
ENDTAB
  0
TABLE
  2
APPID
  5
9
330
0
100
AcDbSymbolTable
 70
     1
  0
APPID
  5
12
330
9
100
AcDbSymbolTableRecord
100
AcDbRegAppTableRecord
  2
ACAD
 70
     0
  0
ENDTAB
  0
TABLE
  2
DIMSTYLE
  5
A
330
0
100
AcDbSymbolTable
 70
     1
100
AcDbDimStyleTable
  0
DIMSTYLE
105
27
330
A
100
AcDbSymbolTableRecord
100
AcDbDimStyleTableRecord
  2
ISO-25
 70
     0
 41
2.5
 42
0.625
 43
3.75
 44
1.25
 73
     0
 74
     0
 77
     1
 78
     8
140
2.5
141
2.5
143
0.0393700787
147
0.625
171
     3
172
     1
178
     0
271
     2
272
     2
274
     3
278
    44
283
     0
284
     8
340
11
  0
ENDTAB
  0
TABLE
  2
BLOCK_RECORD
  5
1
330
0
100
AcDbSymbolTable
 70
     1
  0
BLOCK_RECORD
  5
1F
330
1
100
AcDbSymbolTableRecord
100
AcDbBlockTableRecord
  2
*Model_Space
340
22
  0
BLOCK_RECORD
  5
1B
330
1
100
AcDbSymbolTableRecord
100
AcDbBlockTableRecord
  2
*Paper_Space
340
1E
  0
BLOCK_RECORD
  5
23
330
1
100
AcDbSymbolTableRecord
100
AcDbBlockTableRecord
  2
*Paper_Space0
340
26
  0
ENDTAB
  0
ENDSEC
  0
SECTION
  2
BLOCKS
  0
BLOCK
  5
20
330
1F
100
AcDbEntity
  8
0
100
AcDbBlockBegin
  2
*Model_Space
 70
     0
 10
0.0
 20
0.0
 30
0.0
  3
*Model_Space
  1

  0
ENDBLK
  5
21
330
1F
100
AcDbEntity
  8
0
100
AcDbBlockEnd
  0
BLOCK
  5
1C
330
1B
100
AcDbEntity
 67
     1
  8
0
100
AcDbBlockBegin
  2
*Paper_Space
 70
     0
 10
0.0
 20
0.0
 30
0.0
  3
*Paper_Space
  1

  0
ENDBLK
  5
1D
330
1B
100
AcDbEntity
 67
     1
  8
0
100
AcDbBlockEnd
  0
BLOCK
  5
24
330
23
100
AcDbEntity
  8
0
100
AcDbBlockBegin
  2
*Paper_Space0
 70
     0
 10
0.0
 20
0.0
 30
0.0
  3
*Paper_Space0
  1

  0
ENDBLK
  5
25
330
23
100
AcDbEntity
  8
0
100
AcDbBlockEnd
  0
ENDSEC
  0
SECTION
  2
ENTITIES
  0
LINE
  5
73
330
1F
100
AcDbEntity
  8
0
  6
Continuous
 62
     7
370
    25
100
AcDbLine
 10
147.7472062723
 20
104.3832009962
 30
0.0
 11
7.7472056762
 21
104.3832009962
 31
0.0
  0
LINE
  5
74
330
1F
100
AcDbEntity
  8
0
  6
Continuous
 62
     7
370
    25
100
AcDbLine
 10
147.7472062723
 20
454.3831950357
 30
0.0
 11
147.7472062723
 21
104.3832009962
 31
0.0
  0
LINE
  5
75
330
1F
100
AcDbEntity
  8
0
  6
Continuous
 62
     7
370
    25
100
AcDbLine
 10
7.7472056762
 20
454.3831950357
 30
0.0
 11
147.7472062723
 21
454.3831950357
 31
0.0
  0
LINE
  5
76
330
1F
100
AcDbEntity
  8
0
  6
Continuous
 62
     7
370
    25
100
AcDbLine
 10
7.7472056762
 20
104.3832009962
 30
0.0
 11
7.7472056762
 21
454.3831950357
 31
0.0
  0
LINE
  5
77
330
1F
100
AcDbEntity
  8
0
  6
Continuous
 62
     7
370
    25
100
AcDbLine
 10
292.1378152627
 20
454.6295924242
 30
0.0
 11
152.1378146666
 21
454.6295924242
 31
0.0
  0
LINE
  5
78
330
1F
100
AcDbEntity
  8
0
  6
Continuous
 62
     7
370
    25
100
AcDbLine
 10
292.1378152627
 20
104.6295983846
 30
0.0
 11
292.1378152627
 21
454.6295924242
 31
0.0
  0
LINE
  5
79
330
1F
100
AcDbEntity
  8
0
  6
Continuous
 62
     7
370
    25
100
AcDbLine
 10
152.1378146666
 20
104.6295983846
 30
0.0
 11
292.1378152627
 21
104.6295983846
 31
0.0
  0
LINE
  5
7A
330
1F
100
AcDbEntity
  8
0
  6
Continuous
 62
     7
370
    25
100
AcDbLine
 10
152.1378146666
 20
454.6295924242
 30
0.0
 11
152.1378146666
 21
104.6295983846
 31
0.0
  0
LINE
  5
7B
330
1F
100
AcDbEntity
  8
0
  6
Continuous
 62
     7
370
    25
100
AcDbLine
 10
438.0707970075
 20
455.2534247717
 30
0.0
 11
298.0707964114
 21
455.2534247717
 31
0.0
  0
LINE
  5
7C
330
1F
100
AcDbEntity
  8
0
  6
Continuous
 62
     7
370
    25
100
AcDbLine
 10
438.0707970075
 20
105.2534307322
 30
0.0
 11
438.0707970075
 21
455.2534247717
 31
0.0
  0
LINE
  5
7D
330
1F
100
AcDbEntity
  8
0
  6
Continuous
 62
     7
370
    25
100
AcDbLine
 10
298.0707964114
 20
105.2534307322
 30
0.0
 11
438.0707970075
 21
105.2534307322
 31
0.0
  0
LINE
  5
7E
330
1F
100
AcDbEntity
  8
0
  6
Continuous
 62
     7
370
    25
100
AcDbLine
 10
298.0707964114
 20
455.2534247717
 30
0.0
 11
298.0707964114
 21
105.2534307322
 31
0.0
  0
LINE
  5
7F
330
1F
100
AcDbEntity
  8
0
  6
Continuous
 62
     7
370
    25
100
AcDbLine
 10
581.8111118105
 20
455.0951909106
 30
0.0
 11
441.8111112145
 21
455.0951909106
 31
0.0
  0
LINE
  5
80
330
1F
100
AcDbEntity
  8
0
  6
Continuous
 62
     7
370
    25
100
AcDbLine
 10
581.8111118105
 20
105.0951968711
 30
0.0
 11
581.8111118105
 21
455.0951909106
 31
0.0
  0
LINE
  5
81
330
1F
100
AcDbEntity
  8
0
  6
Continuous
 62
     7
370
    25
100
AcDbLine
 10
441.8111112145
 20
105.0951968711
 30
0.0
 11
581.8111118105
 21
105.0951968711
 31
0.0
  0
LINE
  5
82
330
1F
100
AcDbEntity
  8
0
  6
Continuous
 62
     7
370
    25
100
AcDbLine
 10
441.8111112145
 20
455.0951909106
 30
0.0
 11
441.8111112145
 21
105.0951968711
 31
0.0
  0
SPLINE
  5
83
330
1F
100
AcDbEntity
  8
0
  6
Continuous
 62
     7
370
    25
100
AcDbSpline
210
0.0
220
0.0
230
1.0
 70
     8
 71
     3
 72
     8
 73
     4
 74
     0
 42
0.000000001
 43
0.00000001
 40
0.0
 40
0.0
 40
0.0
 40
0.0
 40
0.9999980166129406
 40
0.9999980166129406
 40
0.9999980166129406
 40
0.9999980166129406
 10
625.0542870207552
 20
404.9200718562352
 30
0.0
 10
624.9757058207551
 20
404.8268538562352
 30
0.0
 10
624.220849580755
 20
403.9504416162351
 30
0.0
 10
623.376828700755
 20
402.9724865762352
 30
0.0
  0
LINE
  5
84
330
1F
100
AcDbEntity
  8
0
  6
Continuous
 62
     7
370
    25
100
AcDbLine
 10
625.1971603611
 20
405.0895657218
 30
0.0
 11
625.0542880275
 21
404.9200799144
 31
0.0
  0
LINE
  5
85
330
1F
100
AcDbEntity
  8
0
  6
Continuous
 62
     7
370
    25
100
AcDbLine
 10
625.1971603611
 20
409.7127999938
 30
0.0
 11
625.1971603611
 21
405.0895657218
 31
0.0
  0
LINE
  5
86
330
1F
100
AcDbEntity
  8
0
  6
Continuous
 62
     7
370
    25
100
AcDbLine
 10
623.5208505073
 20
411.6547789253
 30
0.0
 11
625.1971603611
 21
409.7127999938
 31
0.0
  0
LINE
  5
87
330
1F
100
AcDbEntity
  8
0
  6
Continuous
 62
     7
370
    25
100
AcDbLine
 10
621.8445369282
 20
413.5967280544
 30
0.0
 11
623.5208505073
 21
411.6547789253
 31
0.0
  0
LINE
  5
88
330
1F
100
AcDbEntity
  8
0
  6
Continuous
 62
     7
370
    25
100
AcDbLine
 10
609.1184665688
 20
413.5967280544
 30
0.0
 11
621.8445369282
 21
413.5967280544
 31
0.0
  0
LINE
  5
89
330
1F
100
AcDbEntity
  8
0
  6
Continuous
 62
     7
370
    25
100
AcDbLine
 10
607.7769932577
 20
415.1523496784
 30
0.0
 11
609.1184665688
 21
413.5967280544
 31
0.0
  0
LINE
  5
8A
330
1F
100
AcDbEntity
  8
0
  6
Continuous
 62
     7
370
    25
100
AcDbLine
 10
607.7779078164
 20
418.2639803565
 30
0.0
 11
607.7769932577
 21
415.1523496784
 31
0.0
  0
LINE
  5
8B
330
1F
100
AcDbEntity
  8
0
  6
Continuous
 62
     7
370
    25
100
AcDbLine
 10
609.0999108979
 20
419.7969522155
 30
0.0
 11
607.7779078164
 21
418.2639803565
 31
0.0
  0
LINE
  5
8C
330
1F
100
AcDbEntity
  8
0
  6
Continuous
 62
     7
370
    25
100
AcDbLine
 10
617.1379530111
 20
419.7977568782
 30
0.0
 11
609.0999108979
 21
419.7969522155
 31
0.0
  0
ARC
  5
8D
330
1F
100
AcDbEntity
  8
0
  6
Continuous
 62
     7
370
    25
100
AcDbCircle
 10
620.8121245144
 20
569.8236309277
 30
0.0
 40
150.0708579989253
100
AcDbArc
 50
268.5970923357
 51
271.6663243512
  0
SPLINE
  5
8E
330
1F
100
AcDbEntity
  8
0
  6
Continuous
 62
     7
370
    25
100
AcDbSpline
210
0.0
220
0.0
230
1.0
 70
     8
 71
     3
 72
    14
 73
    10
 74
     0
 42
0.000000001
 43
0.00000001
 40
0.0
 40
0.0
 40
0.0
 40
0.0
 40
0.7645037335790703
 40
0.9494345519740036
 40
0.9891543812472775
 40
0.9975323219831334
 40
0.9993638827358503
 40
0.9998034341042529
 40
1.0
 40
1.0
 40
1.0
 40
1.0
 10
624.5141507365879
 20
421.3667001403142
 30
0.0
 10
624.6841708043878
 20
420.9721829569396
 30
0.0
 10
624.8953181406375
 20
420.4822334265564
 30
0.0
 10
625.1129509458267
 20
419.9706565973855
 30
0.0
 10
625.1631296574993
 20
419.8497461772961
 30
0.0
 10
625.1735430781982
 20
419.8236671091501
 30
0.0
 10
625.1755229482596
 20
419.8180277933724
 30
0.0
 10
625.1759367858098
 20
419.8166988878911
 30
0.0
 10
625.1759827756223
 20
419.816343985952
 30
0.0
 10
625.1759969868835
 20
419.8162343180944
 30
0.0
  0
LINE
  5
8F
330
1F
100
AcDbEntity
  8
0
  6
Continuous
 62
     7
370
    25
100
AcDbLine
 10
623.8523119369
 20
422.8994931854
 30
0.0
 11
624.5141507366
 21
421.3667001403
 31
0.0
  0
LINE
  5
90
330
1F
100
AcDbEntity
  8
0
  6
Continuous
 62
     7
370
    25
100
AcDbLine
 10
608.4414155462
 20
422.9101326145
 30
0.0
 11
623.8523119369
 21
422.8994931854
 31
0.0
  0
LINE
  5
91
330
1F
100
AcDbEntity
  8
0
  6
Continuous
 62
     7
370
    25
100
AcDbLine
 10
605.0888293662
 20
419.0262939609
 30
0.0
 11
608.4414155462
 21
422.9101326145
 31
0.0
  0
LINE
  5
92
330
1F
100
AcDbEntity
  8
0
  6
Continuous
 62
     7
370
    25
100
AcDbLine
 10
605.0888293662
 20
414.3856253303
 30
0.0
 11
605.0888293662
 21
419.0262939609
 31
0.0
  0
LINE
  5
93
330
1F
100
AcDbEntity
  8
0
  6
Continuous
 62
     7
370
    25
100
AcDbLine
 10
608.4388301947
 20
410.5064060367
 30
0.0
 11
605.0888293662
 21
414.3856253303
 31
0.0
  0
LINE
  5
94
330
1F
100
AcDbEntity
  8
0
  6
Continuous
 62
     7
370
    25
100
AcDbLine
 10
621.1649135926
 20
410.5058695949
 30
0.0
 11
608.4388301947
 21
410.5064060367
 31
0.0
  0
LINE
  5
95
330
1F
100
AcDbEntity
  8
0
  6
Continuous
 62
     7
370
    25
100
AcDbLine
 10
621.8364642241
 20
409.7282673991
 30
0.0
 11
621.1649135926
 21
410.5058695949
 31
0.0
  0
LINE
  5
96
330
1F
100
AcDbEntity
  8
0
  6
Continuous
 62
     7
370
    25
100
AcDbLine
 10
622.5080334821
 20
408.9506652034
 30
0.0
 11
621.8364642241
 21
409.7282673991
 31
0.0
  0
LINE
  5
97
330
1F
100
AcDbEntity
  8
0
  6
Continuous
 62
     7
370
    25
100
AcDbLine
 10
622.5063831785
 20
405.8391537345
 30
0.0
 11
622.5080334821
 21
408.9506652034
 31
0.0
  0
LINE
  5
98
330
1F
100
AcDbEntity
  8
0
  6
Continuous
 62
     7
370
    25
100
AcDbLine
 10
621.1835586705
 20
404.3151523746
 30
0.0
 11
622.5063831785
 21
405.8391537345
 31
0.0
  0
LINE
  5
99
330
1F
100
AcDbEntity
  8
0
  6
Continuous
 62
     7
370
    25
100
AcDbLine
 10
613.1443151512
 20
404.3098475612
 30
0.0
 11
621.1835586705
 21
404.3151523746
 31
0.0
  0
SPLINE
  5
9A
330
1F
100
AcDbEntity
  8
0
  6
Continuous
 62
     7
370
    25
100
AcDbSpline
210
0.0
220
0.0
230
1.0
 70
     8
 71
     3
 72
     8
 73
     4
 74
     0
 42
0.000000001
 43
0.00000001
 40
0.0
 40
0.0
 40
0.0
 40
0.0
 40
1.0
 40
1.0
 40
1.0
 40
1.0
 10
605.1159826207552
 20
404.2627981762351
 30
0.0
 10
605.1051414207551
 20
404.3042551362352
 30
0.0
 10
605.1561531007551
 20
404.3045536162352
 30
0.0
 10
613.144315340755
 20
404.3098389762352
 30
0.0
  0
SPLINE
  5
9B
330
1F
100
AcDbEntity
  8
0
  6
Continuous
 62
     7
370
    25
100
AcDbSpline
210
0.0
220
0.0
230
1.0
 70
     8
 71
     3
 72
     8
 73
     4
 74
     0
 42
0.000000001
 43
0.00000001
 40
0.0
 40
0.0
 40
0.0
 40
0.0
 40
1.0
 40
1.0
 40
1.0
 40
1.0
 10
605.7799023807551
 20
402.7072364962351
 30
0.0
 10
605.4207470207551
 20
403.5398484962352
 30
0.0
 10
605.1219831007552
 20
404.2398513762352
 30
0.0
 10
605.1159826207552
 20
404.2627981762351
 30
0.0
  0
LINE
  5
9C
330
1F
100
AcDbEntity
  8
0
  6
Continuous
 62
     7
370
    25
100
AcDbLine
 10
606.4329122433
 20
401.1934187091
 30
0.0
 11
605.7799023816
 21
402.7072276748
 31
0.0
  0
LINE
  5
9D
330
1F
100
AcDbEntity
  8
0
  6
Continuous
 62
     7
370
    25
100
AcDbLine
 10
621.8422458747
 20
401.1943723834
 30
0.0
 11
606.4329122433
 21
401.1934187091
 31
0.0
  0
LINE
  5
9E
330
1F
100
AcDbEntity
  8
0
  6
Continuous
 62
     7
370
    25
100
AcDbLine
 10
623.376827059
 20
402.9724981464
 30
0.0
 11
621.8422458747
 21
401.1943723834
 31
0.0
  0
LINE
  5
9F
330
1F
100
AcDbEntity
  8
0
  6
Continuous
 62
     7
370
    25
100
AcDbLine
 10
763.5357001105
 20
401.1930610812
 30
0.0
 11
757.5110265293
 21
401.1930610812
 31
0.0
  0
LINE
  5
A0
330
1F
100
AcDbEntity
  8
0
  6
Continuous
 62
     7
370
    25
100
AcDbLine
 10
763.5623433867
 20
401.2512948192
 30
0.0
 11
763.5357001105
 21
401.1930610812
 31
0.0
  0
SPLINE
  5
A1
330
1F
100
AcDbEntity
  8
0
  6
Continuous
 62
     7
370
    25
100
AcDbSpline
210
0.0
220
0.0
230
1.0
 70
     8
 71
     3
 72
     8
 73
     4
 74
     0
 42
0.000000001
 43
0.00000001
 40
0.0
 40
0.0
 40
0.0
 40
0.0
 40
0.9999384794569525
 40
0.9999384794569525
 40
0.9999384794569525
 40
0.9999384794569525
 10
764.8699925407551
 20
404.2781164962352
 30
0.0
 10
764.8516759876687
 20
404.2321050870562
 30
0.0
 10
763.5903877452832
 20
401.3125959887831
 30
0.0
 10
763.5623442628194
 20
401.2512944183906
 30
0.0
  0
SPLINE
  5
A2
330
1F
100
AcDbEntity
  8
0
  6
Continuous
 62
     7
370
    25
100
AcDbSpline
210
0.0
220
0.0
230
1.0
 70
     8
 71
     3
 72
     8
 73
     4
 74
     0
 42
0.000000001
 43
0.00000001
 40
0.0
 40
0.0
 40
0.0
 40
0.0
 40
1.0
 40
1.0
 40
1.0
 40
1.0
 10
761.5265227807552
 20
404.3045748162352
 30
0.0
 10
764.2012295807551
 20
404.3045748162352
 30
0.0
 10
764.8783914207551
 20
404.2992153762352
 30
0.0
 10
764.8699925407551
 20
404.2781164962352
 30
0.0
  0
LINE
  5
A3
330
1F
100
AcDbEntity
  8
0
  6
Continuous
 62
     7
370
    25
100
AcDbLine
 10
758.172518877
 20
404.3045725501
 30
0.0
 11
761.526516942
 21
404.3045725501
 31
0.0
  0
LINE
  5
A4
330
1F
100
AcDbEntity
  8
0
  6
Continuous
 62
     7
370
    25
100
AcDbLine
 10
756.832561759
 20
405.8581676162
 30
0.0
 11
758.172518877
 21
404.3045725501
 31
0.0
  0
LINE
  5
A5
330
1F
100
AcDbEntity
  8
0
  6
Continuous
 62
     7
370
    25
100
AcDbLine
 10
756.8379112759
 20
410.5053331531
 30
0.0
 11
756.832561759
 21
405.8581676162
 31
0.0
  0
LINE
  5
A6
330
1F
100
AcDbEntity
  8
0
  6
Continuous
 62
     7
370
    25
100
AcDbLine
 10
756.8432458916
 20
415.15249869
 30
0.0
 11
756.8379112759
 21
410.5053331531
 31
0.0
  0
LINE
  5
A7
330
1F
100
AcDbEntity
  8
0
  6
Continuous
 62
     7
370
    25
100
AcDbLine
 10
764.8759999552
 20
415.1631977237
 30
0.0
 11
756.8432458916
 21
415.15249869
 31
0.0
  0
LINE
  5
A8
330
1F
100
AcDbEntity
  8
0
  6
Continuous
 62
     7
370
    25
100
AcDbLine
 10
764.8759999552
 20
418.2533111251
 30
0.0
 11
764.8759999552
 21
415.1631977237
 31
0.0
  0
LINE
  5
A9
330
1F
100
AcDbEntity
  8
0
  6
Continuous
 62
     7
370
    25
100
AcDbLine
 10
756.8432458916
 20
418.2639803565
 30
0.0
 11
764.8759999552
 21
418.2533111251
 31
0.0
  0
LINE
  5
AA
330
1F
100
AcDbEntity
  8
0
  6
Continuous
 62
     7
370
    25
100
AcDbLine
 10
756.8220713415
 20
422.9008044875
 30
0.0
 11
756.8432458916
 21
418.2639803565
 31
0.0
  0
LINE
  5
AB
330
1F
100
AcDbEntity
  8
0
  6
Continuous
 62
     7
370
    25
100
AcDbLine
 10
754.1762509623
 20
421.3677730239
 30
0.0
 11
756.8220713415
 21
422.9008044875
 31
0.0
  0
LINE
  5
AC
330
1F
100
AcDbEntity
  8
0
  6
Continuous
 62
     7
370
    25
100
AcDbLine
 10
754.1708120384
 20
419.8106016792
 30
0.0
 11
754.1762509623
 21
421.3677730239
 31
0.0
  0
LINE
  5
AD
330
1F
100
AcDbEntity
  8
0
  6
Continuous
 62
     7
370
    25
100
AcDbLine
 10
754.1653880158
 20
418.2534005321
 30
0.0
 11
754.1708120384
 21
419.8106016792
 31
0.0
  0
LINE
  5
AE
330
1F
100
AcDbEntity
  8
0
  6
Continuous
 62
     7
370
    25
100
AcDbLine
 10
751.4775016585
 20
418.2534005321
 30
0.0
 11
754.1653880158
 21
418.2534005321
 31
0.0
  0
LINE
  5
AF
330
1F
100
AcDbEntity
  8
0
  6
Continuous
 62
     7
370
    25
100
AcDbLine
 10
751.4775016585
 20
415.1630785144
 30
0.0
 11
751.4775016585
 21
418.2534005321
 31
0.0
  0
LINE
  5
B0
330
1F
100
AcDbEntity
  8
0
  6
Continuous
 62
     7
370
    25
100
AcDbLine
 10
754.1656562367
 20
415.1630785144
 30
0.0
 11
751.4775016585
 21
415.1630785144
 31
0.0
  0
LINE
  5
B1
330
1F
100
AcDbEntity
  8
0
  6
Continuous
 62
     7
370
    25
100
AcDbLine
 10
754.1656562367
 20
405.0670053638
 30
0.0
 11
754.1656562367
 21
415.1630785144
 31
0.0
  0
LINE
  5
B2
330
1F
100
AcDbEntity
  8
0
  6
Continuous
 62
     7
370
    25
100
AcDbLine
 10
755.838341383
 20
403.1300332225
 30
0.0
 11
754.1656562367
 21
405.0670053638
 31
0.0
  0
LINE
  5
B3
330
1F
100
AcDbEntity
  8
0
  6
Continuous
 62
     7
370
    25
100
AcDbLine
 10
757.5110265293
 20
401.1930610812
 30
0.0
 11
755.838341383
 21
403.1300332225
 31
0.0
  0
LINE
  5
B4
330
1F
100
AcDbEntity
  8
0
  6
Continuous
 62
     7
370
    25
100
AcDbLine
 10
743.9569452086
 20
419.9467386878
 30
0.0
 11
743.8383617678
 21
419.8726501144
 31
0.0
  0
SPLINE
  5
B5
330
1F
100
AcDbEntity
  8
0
  6
Continuous
 62
     7
370
    25
100
AcDbSpline
210
0.0
220
0.0
230
1.0
 70
     8
 71
     3
 72
    10
 73
     6
 74
     0
 42
0.000000001
 43
0.00000001
 40
0.0
 40
0.0
 40
0.0
 40
0.0
 40
0.277946284414045
 40
0.5659085692493405
 40
1.0
 40
1.0
 40
1.0
 40
1.0
 10
744.3443306961235
 20
420.6561829722691
 30
0.0
 10
744.3362671452112
 20
420.5789587967258
 30
0.0
 10
744.3198494673512
 20
420.4217276152215
 30
0.0
 10
744.2017028925853
 20
420.1614936947739
 30
0.0
 10
744.0488430239749
 20
420.0273715638322
 30
0.0
 10
743.956945208567
 20
419.94673868783
 30
0.0
  0
SPLINE
  5
B6
330
1F
100
AcDbEntity
  8
0
  6
Continuous
 62
     7
370
    25
100
AcDbSpline
210
0.0
220
0.0
230
1.0
 70
     8
 71
     3
 72
     8
 73
     4
 74
     0
 42
0.000000001
 43
0.00000001
 40
0.0
 40
0.0
 40
0.0
 40
0.0
 40
0.9999887971942455
 40
0.9999887971942455
 40
0.9999887971942455
 40
0.9999887971942455
 10
743.7233876607551
 20
421.4743550562351
 30
0.0
 10
744.0848107317573
 20
421.3645757260854
 30
0.0
 10
744.3443228861743
 20
421.0226344777529
 30
0.0
 10
744.3443287006573
 20
420.6561829722374
 30
0.0
  0
SPLINE
  5
B7
330
1F
100
AcDbEntity
  8
0
  6
Continuous
 62
     7
370
    25
100
AcDbSpline
210
0.0
220
0.0
230
1.0
 70
     8
 71
     3
 72
     8
 73
     4
 74
     0
 42
0.000000001
 43
0.00000001
 40
0.0
 40
0.0
 40
0.0
 40
0.0
 40
1.0
 40
1.0
 40
1.0
 40
1.0
 10
742.6298287007551
 20
420.6558268962352
 30
0.0
 10
742.6298287007551
 20
421.2140930562351
 30
0.0
 10
743.1928366207551
 20
421.6355046562351
 30
0.0
 10
743.7233876607551
 20
421.4743550562351
 30
0.0
  0
SPLINE
  5
B8
330
1F
100
AcDbEntity
  8
0
  6
Continuous
 62
     7
370
    25
100
AcDbSpline
210
0.0
220
0.0
230
1.0
 70
     8
 71
     3
 72
    10
 73
     6
 74
     0
 42
0.000000001
 43
0.00000001
 40
0.0
 40
0.0
 40
0.0
 40
0.0
 40
0.2800811383828434
 40
0.5651466099232778
 40
1.0
 40
1.0
 40
1.0
 40
1.0
 10
743.0286922731575
 20
419.9374105609227
 30
0.0
 10
742.9660991527551
 20
419.9865759166786
 30
0.0
 10
742.8397990027195
 20
420.0857815764797
 30
0.0
 10
742.6796185353203
 20
420.3284926288512
 30
0.0
 10
742.6485807060128
 20
420.5325614360144
 30
0.0
 10
742.6298328914818
 20
420.6558253444005
 30
0.0
  0
LINE
  5
B9
330
1F
100
AcDbEntity
  8
0
  6
Continuous
 62
     7
370
    25
100
AcDbLine
 10
743.1589880266
 20
419.8539640582
 30
0.0
 11
743.0286922732
 21
419.9374105609
 31
0.0
  0
LINE
  5
BA
330
1F
100
AcDbEntity
  8
0
  6
Continuous
 62
     7
370
    25
100
AcDbLine
 10
743.1589880266
 20
418.2322408832
 30
0.0
 11
743.1589880266
 21
419.8539640582
 31
0.0
  0
LINE
  5
BB
330
1F
100
AcDbEntity
  8
0
  6
Continuous
 62
     7
370
    25
100
AcDbLine
 10
731.9512435475
 20
418.230005709
 30
0.0
 11
743.1589880266
 21
418.2322408832
 31
0.0
  0
LINE
  5
BC
330
1F
100
AcDbEntity
  8
0
  6
Continuous
 62
     7
370
    25
100
AcDbLine
 10
728.9937206783
 20
413.9660384334
 30
0.0
 11
731.9512435475
 21
418.230005709
 31
0.0
  0
LINE
  5
BD
330
1F
100
AcDbEntity
  8
0
  6
Continuous
 62
     7
370
    25
100
AcDbLine
 10
726.0361829081
 20
409.7020711578
 30
0.0
 11
728.9937206783
 21
413.9660384334
 31
0.0
  0
LINE
  5
BE
330
1F
100
AcDbEntity
  8
0
  6
Continuous
 62
     7
370
    25
100
AcDbLine
 10
728.9937206783
 20
405.4380740798
 30
0.0
 11
726.0361829081
 21
409.7020711578
 31
0.0
  0
LINE
  5
BF
330
1F
100
AcDbEntity
  8
0
  6
Continuous
 62
     7
370
    25
100
AcDbLine
 10
731.9512435475
 20
401.1741068042
 30
0.0
 11
728.9937206783
 21
405.4380740798
 31
0.0
  0
LINE
  5
C0
330
1F
100
AcDbEntity
  8
0
  6
Continuous
 62
     7
370
    25
100
AcDbLine
 10
743.8045808354
 20
401.1741068042
 30
0.0
 11
731.9512435475
 21
401.1741068042
 31
0.0
  0
LINE
  5
C1
330
1F
100
AcDbEntity
  8
0
  6
Continuous
 62
     7
370
    25
100
AcDbLine
 10
749.7196861782
 20
409.7020711578
 30
0.0
 11
743.8045808354
 21
401.1741068042
 31
0.0
  0
LINE
  5
C2
330
1F
100
AcDbEntity
  8
0
  6
Continuous
 62
     7
370
    25
100
AcDbLine
 10
746.7780032435
 20
413.9396931804
 30
0.0
 11
749.7196861782
 21
409.7020711578
 31
0.0
  0
LINE
  5
C3
330
1F
100
AcDbEntity
  8
0
  6
Continuous
 62
     7
370
    25
100
AcDbLine
 10
743.8363352099
 20
418.177315203
 30
0.0
 11
746.7780032435
 21
413.9396931804
 31
0.0
  0
LINE
  5
C4
330
1F
100
AcDbEntity
  8
0
  6
Continuous
 62
     7
370
    25
100
AcDbLine
 10
743.8383617678
 20
419.8726501144
 30
0.0
 11
743.8363352099
 21
418.177315203
 31
0.0
  0
SPLINE
  5
C5
330
1F
100
AcDbEntity
  8
0
  6
Continuous
 62
     7
370
    25
100
AcDbSpline
210
0.0
220
0.0
230
1.0
 70
     8
 71
     3
 72
    14
 73
    10
 74
     0
 42
0.000000001
 43
0.00000001
 40
0.0
 40
0.0
 40
0.0
 40
0.0
 40
0.763041476014429
 40
0.9484449526375004
 40
0.988645601092027
 40
0.997283470011596
 40
0.9992149562200848
 40
0.9997095591556214
 40
1.0
 40
1.0
 40
1.0
 40
1.0
 10
740.5437299289879
 20
423.9444520152379
 30
0.0
 10
740.4810611785491
 20
423.890755536617
 30
0.0
 10
740.4031652031529
 20
423.8240119116329
 30
0.0
 10
740.3211488685256
 20
423.7553639244226
 30
0.0
 10
740.3013165855497
 20
423.7396053452733
 30
0.0
 10
740.2969133536702
 20
423.7363161168008
 30
0.0
 10
740.2958746877977
 20
423.7357142563092
 30
0.0
 10
740.2956021886695
 20
423.7356033193317
 30
0.0
 10
740.2955213809179
 20
423.73557720068
 30
0.0
 10
740.2954914846596
 20
423.7355675376225
 30
0.0
  0
SPLINE
  5
C6
330
1F
100
AcDbEntity
  8
0
  6
Continuous
 62
     7
370
    25
100
AcDbSpline
210
0.0
220
0.0
230
1.0
 70
     8
 71
     3
 72
     9
 73
     5
 74
     0
 42
0.000000001
 43
0.00000001
 40
0.0
 40
0.0
 40
0.0
 40
0.0
 40
0.5545328823863832
 40
1.0
 40
1.0
 40
1.0
 40
1.0
 10
742.6086583414253
 20
424.9600853598881
 30
0.0
 10
742.1899176844072
 20
424.8450067834546
 30
0.0
 10
741.4347944621087
 20
424.6374833342799
 30
0.0
 10
740.8183400839614
 20
424.1580318748886
 30
0.0
 10
740.5437299289879
 20
423.9444520152379
 30
0.0
  0
SPLINE
  5
C7
330
1F
100
AcDbEntity
  8
0
  6
Continuous
 62
     7
370
    25
100
AcDbSpline
210
0.0
220
0.0
230
1.0
 70
     8
 71
     3
 72
     8
 73
     4
 74
     0
 42
0.000000001
 43
0.00000001
 40
0.0000022765774678
 40
0.0000022765774678
 40
0.0000022765774678
 40
0.0000022765774678
 40
1.0
 40
1.0
 40
1.0
 40
1.0
 10
746.4008270207552
 20
423.9682817762351
 30
0.0
 10
745.3594735807552
 20
424.8667034562351
 30
0.0
 10
743.9715689407551
 20
425.2296960962352
 30
0.0
 10
742.6086620607551
 20
424.9600856962351
 30
0.0
  0
SPLINE
  5
C8
330
1F
100
AcDbEntity
  8
0
  6
Continuous
 62
     7
370
    25
100
AcDbSpline
210
0.0
220
0.0
230
1.0
 70
     8
 71
     3
 72
    15
 73
    11
 74
     0
 42
0.000000001
 43
0.00000001
 40
0.0
 40
0.0
 40
0.0
 40
0.0
 40
0.0011876613862631
 40
0.0029421475641593
 40
0.0069218444935324
 40
0.0175254396880628
 40
0.0473513699007867
 40
0.1331032208460892
 40
0.3744630718108107
 40
1.0
 40
1.0
 40
1.0
 40
1.0
 10
746.6307946720299
 20
423.7786616957951
 30
0.0
 10
746.6306799606963
 20
423.7786897763457
 30
0.0
 10
746.6303957907514
 20
423.7787593392063
 30
0.0
 10
746.6297475564498
 20
423.7789975720842
 30
0.0
 10
746.6283471175387
 20
423.7798316847386
 30
0.0
 10
746.6246313150327
 20
423.7822074920986
 30
0.0
 10
746.6145332919897
 20
423.7896729582938
 30
0.0
 10
746.5866097973161
 20
423.8115502487048
 30
0.0
 10
746.513509584166
 20
423.8717932001146
 30
0.0
 10
746.4480555153524
 20
423.9278466932964
 30
0.0
 10
746.4008250513252
 20
423.968293873148
 30
0.0
  0
SPLINE
  5
C9
330
1F
100
AcDbEntity
  8
0
  6
Continuous
 62
     7
370
    25
100
AcDbSpline
210
0.0
220
0.0
230
1.0
 70
     8
 71
     3
 72
    13
 73
     9
 74
     0
 42
0.000000001
 43
0.00000001
 40
0.0
 40
0.0
 40
0.0
 40
0.0
 40
0.7560035663649831
 40
0.9436596078360653
 40
0.9860048481362722
 40
0.9959109964912667
 40
0.9983241579635667
 40
1.0
 40
1.0
 40
1.0
 40
1.0
 10
746.8200245180306
 20
423.9569987929631
 30
0.0
 10
746.7735721359992
 20
423.9105999193577
 30
0.0
 10
746.7155892923183
 20
423.8526838660234
 30
0.0
 10
746.6524598204117
 20
423.7951606712199
 30
0.0
 10
746.6364325522629
 20
423.781717459045
 30
0.0
 10
746.6324027875323
 20
423.7792457615675
 30
0.0
 10
746.6312964786541
 20
423.7787056532156
 30
0.0
 10
746.6309405473406
 20
423.7786744742282
 30
0.0
 10
746.6307946720299
 20
423.7786616957951
 30
0.0
  0
LINE
  5
CA
330
1F
100
AcDbEntity
  8
0
  6
Continuous
 62
     7
370
    25
100
AcDbLine
 10
746.9981977024
 20
424.1361107505
 30
0.0
 11
746.820024518
 21
423.956998793
 31
0.0
  0
LINE
  5
CB
330
1F
100
AcDbEntity
  8
0
  6
Continuous
 62
     7
370
    25
100
AcDbLine
 10
746.9571301022
 20
424.18191692
 30
0.0
 11
746.9981977024
 21
424.1361107505
 31
0.0
  0
SPLINE
  5
CC
330
1F
100
AcDbEntity
  8
0
  6
Continuous
 62
     7
370
    25
100
AcDbSpline
210
0.0
220
0.0
230
1.0
 70
     8
 71
     3
 72
     9
 73
     5
 74
     0
 42
0.000000001
 43
0.00000001
 40
0.0
 40
0.0
 40
0.0
 40
0.0
 40
0.6915757777297226
 40
1.0
 40
1.0
 40
1.0
 40
1.0
 10
746.7150011339363
 20
424.3964340365696
 30
0.0
 10
746.7721832652621
 20
424.3484987916204
 30
0.0
 10
746.8548670913407
 20
424.2791857148864
 30
0.0
 10
746.9330244726348
 20
424.2048453035674
 30
0.0
 10
746.9571301021751
 20
424.181916920023
 30
0.0
  0
SPLINE
  5
CD
330
1F
100
AcDbEntity
  8
0
  6
Continuous
 62
     7
370
    25
100
AcDbSpline
210
0.0
220
0.0
230
1.0
 70
     8
 71
     3
 72
     8
 73
     4
 74
     0
 42
0.000000001
 43
0.00000001
 40
0.0
 40
0.0
 40
0.0
 40
0.0
 40
1.0
 40
1.0
 40
1.0
 40
1.0
 10
743.4870787007551
 20
425.5769310562352
 30
0.0
 10
744.6446096607551
 20
425.5769310562352
 30
0.0
 10
745.820331180755
 20
425.1469492962352
 30
0.0
 10
746.7149954207551
 20
424.3964272962352
 30
0.0
  0
SPLINE
  5
CE
330
1F
100
AcDbEntity
  8
0
  6
Continuous
 62
     7
370
    25
100
AcDbSpline
210
0.0
220
0.0
230
1.0
 70
     8
 71
     3
 72
     8
 73
     4
 74
     0
 42
0.000000001
 43
0.00000001
 40
0.0
 40
0.0
 40
0.0
 40
0.0
 40
1.0
 40
1.0
 40
1.0
 40
1.0
 10
740.2591620607551
 20
424.3960424962351
 30
0.0
 10
741.1509603007551
 20
425.1458676962351
 30
0.0
 10
742.3292557407551
 20
425.5769310562352
 30
0.0
 10
743.4870787007551
 20
425.5769310562352
 30
0.0
  0
SPLINE
  5
CF
330
1F
100
AcDbEntity
  8
0
  6
Continuous
 62
     7
370
    25
100
AcDbSpline
210
0.0
220
0.0
230
1.0
 70
     8
 71
     3
 72
     8
 73
     4
 74
     0
 42
0.000000001
 43
0.00000001
 40
0.0
 40
0.0
 40
0.0
 40
0.0
 40
1.0
 40
1.0
 40
1.0
 40
1.0
 10
739.9954867807551
 20
424.1607475362351
 30
0.0
 10
740.0299122207551
 20
424.1971706562351
 30
0.0
 10
740.1485662207551
 20
424.3030535362352
 30
0.0
 10
740.2591620607551
 20
424.3960424962351
 30
0.0
  0
LINE
  5
D0
330
1F
100
AcDbEntity
  8
0
  6
Continuous
 62
     7
370
    25
100
AcDbLine
 10
739.9329015293
 20
424.0945365108
 30
0.0
 11
739.9954864063
 21
424.1607572711
 31
0.0
  0
LINE
  5
D1
330
1F
100
AcDbEntity
  8
0
  6
Continuous
 62
     7
370
    25
100
AcDbLine
 10
740.1114323416
 20
423.915037123
 30
0.0
 11
739.9329015293
 21
424.0945365108
 31
0.0
  0
SPLINE
  5
D2
330
1F
100
AcDbEntity
  8
0
  6
Continuous
 62
     7
370
    25
100
AcDbSpline
210
0.0
220
0.0
230
1.0
 70
     8
 71
     3
 72
    16
 73
    12
 74
     0
 42
0.000000001
 43
0.00000001
 40
0.0
 40
0.0
 40
0.0
 40
0.0
 40
0.000421864358625
 40
0.0009401627895642
 40
0.002184348941633
 40
0.0055929246921458
 40
0.0151949189617661
 40
0.0436836579193241
 40
0.1276892055463381
 40
0.3683660712282414
 40
1.0
 40
1.0
 40
1.0
 40
1.0
 10
740.2954914846596
 20
423.7355675376225
 30
0.0
 10
740.295456147292
 20
423.7355760146938
 30
0.0
 10
740.29537739478
 20
423.7355949066122
 30
0.0
 10
740.295214085977
 20
423.7356892391115
 30
0.0
 10
740.2948143044537
 20
423.7358804394152
 30
0.0
 10
740.2938497355636
 20
423.7366450955383
 30
0.0
 10
740.2910772761848
 20
423.7388585954392
 30
0.0
 10
740.2833385093429
 20
423.7459312450366
 30
0.0
 10
740.2612673815136
 20
423.7666224504064
 30
0.0
 10
740.2026015047863
 20
423.8239120540325
 30
0.0
 10
740.1497220046648
 20
423.8767659788571
 30
0.0
 10
740.1114323415932
 20
423.9150371230412
 30
0.0
  0
LINE
  5
D3
330
1F
100
AcDbEntity
  8
0
  6
Continuous
 62
     7
370
    25
100
AcDbLine
 10
671.3922911563
 20
401.1930610812
 30
0.0
 11
669.7153964319
 21
403.1348910011
 31
0.0
  0
LINE
  5
D4
330
1F
100
AcDbEntity
  8
0
  6
Continuous
 62
     7
370
    25
100
AcDbLine
 10
682.1086623945
 20
401.1930610812
 30
0.0
 11
671.3922911563
 21
401.1930610812
 31
0.0
  0
LINE
  5
D5
330
1F
100
AcDbEntity
  8
0
  6
Continuous
 62
     7
370
    25
100
AcDbLine
 10
685.4586594978
 20
405.0723101772
 30
0.0
 11
682.1086623945
 21
401.1930610812
 31
0.0
  0
LINE
  5
D6
330
1F
100
AcDbEntity
  8
0
  6
Continuous
 62
     7
370
    25
100
AcDbLine
 10
685.4586594978
 20
418.2534005321
 30
0.0
 11
685.4586594978
 21
405.0723101772
 31
0.0
  0
LINE
  5
D7
330
1F
100
AcDbEntity
  8
0
  6
Continuous
 62
     7
370
    25
100
AcDbLine
 10
682.770497469
 20
418.2534005321
 30
0.0
 11
685.4586594978
 21
418.2534005321
 31
0.0
  0
LINE
  5
D8
330
1F
100
AcDbEntity
  8
0
  6
Continuous
 62
     7
370
    25
100
AcDbLine
 10
682.7685454168
 20
405.8391537345
 30
0.0
 11
682.770497469
 21
418.2534005321
 31
0.0
  0
LINE
  5
D9
330
1F
100
AcDbEntity
  8
0
  6
Continuous
 62
     7
370
    25
100
AcDbLine
 10
681.4467379131
 20
404.3151523746
 30
0.0
 11
682.7685454168
 21
405.8391537345
 31
0.0
  0
LINE
  5
DA
330
1F
100
AcDbEntity
  8
0
  6
Continuous
 62
     7
370
    25
100
AcDbLine
 10
672.0639833489
 20
404.3044831432
 30
0.0
 11
681.4467379131
 21
404.3151523746
 31
0.0
  0
LINE
  5
DB
330
1F
100
AcDbEntity
  8
0
  6
Continuous
 62
     7
370
    25
100
AcDbLine
 10
671.3953235426
 20
405.0771083511
 30
0.0
 11
672.0639833489
 21
404.3044831432
 31
0.0
  0
LINE
  5
DC
330
1F
100
AcDbEntity
  8
0
  6
Continuous
 62
     7
370
    25
100
AcDbLine
 10
670.7266637364
 20
405.8497633613
 30
0.0
 11
671.3953235426
 21
405.0771083511
 31
0.0
  0
LINE
  5
DD
330
1F
100
AcDbEntity
  8
0
  6
Continuous
 62
     7
370
    25
100
AcDbLine
 10
670.7266637364
 20
418.2534005321
 30
0.0
 11
670.7266637364
 21
405.8497633613
 31
0.0
  0
LINE
  5
DE
330
1F
100
AcDbEntity
  8
0
  6
Continuous
 62
     7
370
    25
100
AcDbLine
 10
668.038494257
 20
418.2534005321
 30
0.0
 11
670.7266637364
 21
418.2534005321
 31
0.0
  0
LINE
  5
DF
330
1F
100
AcDbEntity
  8
0
  6
Continuous
 62
     7
370
    25
100
AcDbLine
 10
668.038494257
 20
405.0767209209
 30
0.0
 11
668.038494257
 21
418.2534005321
 31
0.0
  0
LINE
  5
E0
330
1F
100
AcDbEntity
  8
0
  6
Continuous
 62
     7
370
    25
100
AcDbLine
 10
669.7153964319
 20
403.1348910011
 30
0.0
 11
668.038494257
 21
405.0767209209
 31
0.0
  0
LINE
  5
E1
330
1F
100
AcDbEntity
  8
0
  6
Continuous
 62
     7
370
    25
100
AcDbLine
 10
642.5855973044
 20
401.1939551509
 30
0.0
 11
631.1976195553
 21
401.1930908836
 31
0.0
  0
LINE
  5
E2
330
1F
100
AcDbEntity
  8
0
  6
Continuous
 62
     7
370
    25
100
AcDbLine
 10
643.239709852
 20
402.7117278255
 30
0.0
 11
642.5855973044
 21
401.1939551509
 31
0.0
  0
SPLINE
  5
E3
330
1F
100
AcDbEntity
  8
0
  6
Continuous
 62
     7
370
    25
100
AcDbSpline
210
0.0
220
0.0
230
1.0
 70
     8
 71
     3
 72
    13
 73
     9
 74
     0
 42
0.000000001
 43
0.00000001
 40
0.0
 40
0.0
 40
0.0
 40
0.0
 40
0.0059947113027515
 40
0.016064123965869
 40
0.0451741257107424
 40
0.130044241823993
 40
0.3711333025942685
 40
0.9999999999999999
 40
0.9999999999999999
 40
0.9999999999999999
 40
0.9999999999999999
 10
643.9036348142799
 20
404.2670514262486
 30
0.0
 10
643.9024779724982
 20
404.2638760371692
 30
0.0
 10
643.8993779650328
 20
404.2553668961552
 30
0.0
 10
643.8896532676818
 20
404.231826480381
 30
0.0
 10
643.8629229298925
 20
404.1672148305294
 30
0.0
 10
643.7848452749955
 20
403.9829071978373
 30
0.0
 10
643.5737780774622
 20
403.4877825171225
 30
0.0
 10
643.3798761411227
 20
403.0373400746971
 30
0.0
 10
643.2397098519978
 20
402.7117278254796
 30
0.0
  0
SPLINE
  5
E4
330
1F
100
AcDbEntity
  8
0
  6
Continuous
 62
     7
370
    25
100
AcDbSpline
210
0.0
220
0.0
230
1.0
 70
     8
 71
     3
 72
     8
 73
     4
 74
     0
 42
0.000000001
 43
0.00000001
 40
0.0
 40
0.0
 40
0.0
 40
0.0
 40
1.0
 40
1.0
 40
1.0
 40
1.0
 10
637.8837719807551
 20
404.3055060962351
 30
0.0
 10
643.6455799807551
 20
404.3046171362351
 30
0.0
 10
643.9130144607551
 20
404.3029068962352
 30
0.0
 10
643.9036355007552
 20
404.2670441762352
 30
0.0
  0
LINE
  5
E5
330
1F
100
AcDbEntity
  8
0
  6
Continuous
 62
     7
370
    25
100
AcDbLine
 10
631.8540939369
 20
404.3064500964
 30
0.0
 11
637.8837705829
 21
404.3054964221
 31
0.0
  0
LINE
  5
E6
330
1F
100
AcDbEntity
  8
0
  6
Continuous
 62
     7
370
    25
100
AcDbLine
 10
631.1932795921
 20
405.0727870143
 30
0.0
 11
631.8540939369
 21
404.3064500964
 31
0.0
  0
LINE
  5
E7
330
1F
100
AcDbEntity
  8
0
  6
Continuous
 62
     7
370
    25
100
AcDbLine
 10
630.5324689725
 20
405.8391537345
 30
0.0
 11
631.1932795921
 21
405.0727870143
 31
0.0
  0
LINE
  5
E8
330
1F
100
AcDbEntity
  8
0
  6
Continuous
 62
     7
370
    25
100
AcDbLine
 10
630.53141099
 20
413.6073376811
 30
0.0
 11
630.5324689725
 21
405.8391537345
 31
0.0
  0
LINE
  5
E9
330
1F
100
AcDbEntity
  8
0
  6
Continuous
 62
     7
370
    25
100
AcDbLine
 10
631.2024847844
 20
414.3852080978
 30
0.0
 11
630.53141099
 21
413.6073376811
 31
0.0
  0
LINE
  5
EA
330
1F
100
AcDbEntity
  8
0
  6
Continuous
 62
     7
370
    25
100
AcDbLine
 10
631.873562304
 20
415.1630785144
 30
0.0
 11
631.2024847844
 21
414.3852080978
 31
0.0
  0
LINE
  5
EB
330
1F
100
AcDbEntity
  8
0
  6
Continuous
 62
     7
370
    25
100
AcDbLine
 10
641.237500427
 20
415.1630785144
 30
0.0
 11
631.873562304
 21
415.1630785144
 31
0.0
  0
LINE
  5
EC
330
1F
100
AcDbEntity
  8
0
  6
Continuous
 62
     7
370
    25
100
AcDbLine
 10
641.906245915
 20
414.3872942603
 30
0.0
 11
641.237500427
 21
415.1630785144
 31
0.0
  0
LINE
  5
ED
330
1F
100
AcDbEntity
  8
0
  6
Continuous
 62
     7
370
    25
100
AcDbLine
 10
642.5749951282
 20
413.6115398086
 30
0.0
 11
641.906245915
 21
414.3872942603
 31
0.0
  0
LINE
  5
EE
330
1F
100
AcDbEntity
  8
0
  6
Continuous
 62
     7
370
    25
100
AcDbLine
 10
642.5749951282
 20
412.8195430911
 30
0.0
 11
642.5749951282
 21
413.6115398086
 31
0.0
  0
LINE
  5
EF
330
1F
100
AcDbEntity
  8
0
  6
Continuous
 62
     7
370
    25
100
AcDbLine
 10
641.2359842339
 20
411.2684216178
 30
0.0
 11
642.5749951282
 21
412.8195430911
 31
0.0
  0
LINE
  5
F0
330
1F
100
AcDbEntity
  8
0
  6
Continuous
 62
     7
370
    25
100
AcDbLine
 10
631.8646625855
 20
411.2684216178
 30
0.0
 11
641.2359842339
 21
411.2684216178
 31
0.0
  0
LINE
  5
F1
330
1F
100
AcDbEntity
  8
0
  6
Continuous
 62
     7
370
    25
100
AcDbLine
 10
631.8646625855
 20
408.1780697978
 30
0.0
 11
631.8646625855
 21
411.2684216178
 31
0.0
  0
LINE
  5
F2
330
1F
100
AcDbEntity
  8
0
  6
Continuous
 62
     7
370
    25
100
AcDbLine
 10
641.917205719
 20
408.1780697978
 30
0.0
 11
631.8646625855
 21
408.1780697978
 31
0.0
  0
LINE
  5
F3
330
1F
100
AcDbEntity
  8
0
  6
Continuous
 62
     7
370
    25
100
AcDbLine
 10
643.5899988988
 20
410.1158764041
 30
0.0
 11
641.917205719
 21
408.1780697978
 31
0.0
  0
LINE
  5
F4
330
1F
100
AcDbEntity
  8
0
  6
Continuous
 62
     7
370
    25
100
AcDbLine
 10
645.262978343
 20
412.0537128127
 30
0.0
 11
643.5899988988
 21
410.1158764041
 31
0.0
  0
LINE
  5
F5
330
1F
100
AcDbEntity
  8
0
  6
Continuous
 62
     7
370
    25
100
AcDbLine
 10
645.262978343
 20
414.378115145
 30
0.0
 11
645.262978343
 21
412.0537128127
 31
0.0
  0
LINE
  5
F6
330
1F
100
AcDbEntity
  8
0
  6
Continuous
 62
     7
370
    25
100
AcDbLine
 10
641.9169598499
 20
418.2534005321
 30
0.0
 11
645.262978343
 21
414.378115145
 31
0.0
  0
LINE
  5
F7
330
1F
100
AcDbEntity
  8
0
  6
Continuous
 62
     7
370
    25
100
AcDbLine
 10
631.1938011327
 20
418.2534005321
 30
0.0
 11
641.9169598499
 21
418.2534005321
 31
0.0
  0
LINE
  5
F8
330
1F
100
AcDbEntity
  8
0
  6
Continuous
 62
     7
370
    25
100
AcDbLine
 10
627.8428131023
 20
414.3731977619
 30
0.0
 11
631.1938011327
 21
418.2534005321
 31
0.0
  0
LINE
  5
F9
330
1F
100
AcDbEntity
  8
0
  6
Continuous
 62
     7
370
    25
100
AcDbLine
 10
627.8432340601
 20
405.0771679557
 30
0.0
 11
627.8428131023
 21
414.3731977619
 31
0.0
  0
LINE
  5
FA
330
1F
100
AcDbEntity
  8
0
  6
Continuous
 62
     7
370
    25
100
AcDbLine
 10
629.5204193571
 20
403.1351294196
 30
0.0
 11
627.8432340601
 21
405.0771679557
 31
0.0
  0
LINE
  5
FB
330
1F
100
AcDbEntity
  8
0
  6
Continuous
 62
     7
370
    25
100
AcDbLine
 10
631.1976195553
 20
401.1930908836
 30
0.0
 11
629.5204193571
 21
403.1351294196
 31
0.0
  0
ARC
  5
FC
330
1F
100
AcDbEntity
  8
0
  6
Continuous
 62
     7
370
    25
100
AcDbCircle
 10
663.4586620608
 20
205.9222982562
 30
0.0
 40
2.0
100
AcDbArc
 50
0.0
 51
180.0
  0
LINE
  5
FD
330
1F
100
AcDbEntity
  8
0
  6
Continuous
 62
     7
370
    25
100
AcDbLine
 10
661.4586630144
 20
191.2222962654
 30
0.0
 11
661.4586630144
 21
205.9222992338
 31
0.0
  0
ARC
  5
FE
330
1F
100
AcDbEntity
  8
0
  6
Continuous
 62
     7
370
    25
100
AcDbCircle
 10
663.4586620608
 20
191.2222982562
 30
0.0
 40
2.0
100
AcDbArc
 50
180.0
 51
0.0
  0
LINE
  5
FF
330
1F
100
AcDbEntity
  8
0
  6
Continuous
 62
     7
370
    25
100
AcDbLine
 10
665.4586636701
 20
191.2222962654
 30
0.0
 11
665.4586636701
 21
205.9222992338
 31
0.0
  0
ARC
  5
100
330
1F
100
AcDbEntity
  8
0
  6
Continuous
 62
     7
370
    25
100
AcDbCircle
 10
663.4586620608
 20
255.9222982562
 30
0.0
 40
2.0
100
AcDbArc
 50
0.0
 51
180.0
  0
LINE
  5
101
330
1F
100
AcDbEntity
  8
0
  6
Continuous
 62
     7
370
    25
100
AcDbLine
 10
661.4586630144
 20
241.2223007358
 30
0.0
 11
661.4586630144
 21
255.9222962535
 31
0.0
  0
ARC
  5
102
330
1F
100
AcDbEntity
  8
0
  6
Continuous
 62
     7
370
    25
100
AcDbCircle
 10
663.4586620608
 20
241.2222982562
 30
0.0
 40
2.0
100
AcDbArc
 50
180.0
 51
0.0
  0
LINE
  5
103
330
1F
100
AcDbEntity
  8
0
  6
Continuous
 62
     7
370
    25
100
AcDbLine
 10
665.4586636701
 20
241.2223007358
 30
0.0
 11
665.4586636701
 21
255.9222962535
 31
0.0
  0
ARC
  5
104
330
1F
100
AcDbEntity
  8
0
  6
Continuous
 62
     7
370
    25
100
AcDbCircle
 10
663.4586620608
 20
305.9289966427
 30
0.0
 40
2.0
100
AcDbArc
 50
0.0
 51
180.0
  0
LINE
  5
105
330
1F
100
AcDbEntity
  8
0
  6
Continuous
 62
     7
370
    25
100
AcDbLine
 10
661.4586630144
 20
291.2290032781
 30
0.0
 11
661.4586630144
 21
305.9289987958
 31
0.0
  0
ARC
  5
106
330
1F
100
AcDbEntity
  8
0
  6
Continuous
 62
     7
370
    25
100
AcDbCircle
 10
663.4586620608
 20
291.2289966427
 30
0.0
 40
2.0
100
AcDbArc
 50
180.0
 51
0.0
  0
LINE
  5
107
330
1F
100
AcDbEntity
  8
0
  6
Continuous
 62
     7
370
    25
100
AcDbLine
 10
665.4586636701
 20
291.2290032781
 30
0.0
 11
665.4586636701
 21
305.9289987958
 31
0.0
  0
ARC
  5
108
330
1F
100
AcDbEntity
  8
0
  6
Continuous
 62
     7
370
    25
100
AcDbCircle
 10
663.4586620608
 20
355.8281493316
 30
0.0
 40
2.0
100
AcDbArc
 50
0.0
 51
180.0
  0
LINE
  5
109
330
1F
100
AcDbEntity
  8
0
  6
Continuous
 62
     7
370
    25
100
AcDbLine
 10
661.4586630144
 20
341.1281492389
 30
0.0
 11
661.4586630144
 21
355.8281447566
 31
0.0
  0
ARC
  5
10A
330
1F
100
AcDbEntity
  8
0
  6
Continuous
 62
     7
370
    25
100
AcDbCircle
 10
663.4586620608
 20
341.1281493316
 30
0.0
 40
2.0
100
AcDbArc
 50
180.0
 51
0.0
  0
LINE
  5
10B
330
1F
100
AcDbEntity
  8
0
  6
Continuous
 62
     7
370
    25
100
AcDbLine
 10
665.4586636701
 20
341.1281492389
 30
0.0
 11
665.4586636701
 21
355.8281447566
 31
0.0
  0
CIRCLE
  5
10C
330
1F
100
AcDbEntity
  8
0
  6
Continuous
 62
     7
370
    25
100
AcDbCircle
 10
719.3336620608
 20
198.5722982562
 30
0.0
 40
4.0
  0
CIRCLE
  5
10D
330
1F
100
AcDbEntity
  8
0
  6
Continuous
 62
     7
370
    25
100
AcDbCircle
 10
719.3336620608
 20
248.5722982562
 30
0.0
 40
4.0
  0
CIRCLE
  5
10E
330
1F
100
AcDbEntity
  8
0
  6
Continuous
 62
     7
370
    25
100
AcDbCircle
 10
719.3336620608
 20
298.5789966427
 30
0.0
 40
4.0
  0
CIRCLE
  5
10F
330
1F
100
AcDbEntity
  8
0
  6
Continuous
 62
     7
370
    25
100
AcDbCircle
 10
719.3336620608
 20
348.4781493316
 30
0.0
 40
4.0
  0
LINE
  5
110
330
1F
100
AcDbEntity
  8
0
  6
Continuous
 62
     7
370
    25
100
AcDbLine
 10
783.4586569348
 20
455.0722922958
 30
0.0
 11
587.4586620608
 21
455.0722922958
 31
0.0
  0
LINE
  5
111
330
1F
100
AcDbEntity
  8
0
  6
Continuous
 62
     7
370
    25
100
AcDbLine
 10
783.4586569348
 20
105.0722982562
 30
0.0
 11
783.4586569348
 21
455.0722922958
 31
0.0
  0
LINE
  5
112
330
1F
100
AcDbEntity
  8
0
  6
Continuous
 62
     7
370
    25
100
AcDbLine
 10
587.4586620608
 20
105.0722982562
 30
0.0
 11
783.4586569348
 21
105.0722982562
 31
0.0
  0
LINE
  5
113
330
1F
100
AcDbEntity
  8
0
  6
Continuous
 62
     7
370
    25
100
AcDbLine
 10
587.4586620608
 20
455.0722922958
 30
0.0
 11
587.4586620608
 21
105.0722982562
 31
0.0
  0
ARC
  5
114
330
1F
100
AcDbEntity
  8
0
  6
Continuous
 62
     7
370
    25
100
AcDbCircle
 10
707.4586620608
 20
355.8281493316
 30
0.0
 40
2.0
100
AcDbArc
 50
0.0
 51
180.0
  0
LINE
  5
115
330
1F
100
AcDbEntity
  8
0
  6
Continuous
 62
     7
370
    25
100
AcDbLine
 10
705.458662776
 20
341.1281492389
 30
0.0
 11
705.458662776
 21
355.8281447566
 31
0.0
  0
ARC
  5
116
330
1F
100
AcDbEntity
  8
0
  6
Continuous
 62
     7
370
    25
100
AcDbCircle
 10
707.4586620608
 20
341.1281493316
 30
0.0
 40
2.0
100
AcDbArc
 50
180.0
 51
0.0
  0
LINE
  5
117
330
1F
100
AcDbEntity
  8
0
  6
Continuous
 62
     7
370
    25
100
AcDbLine
 10
709.4586634317
 20
341.1281492389
 30
0.0
 11
709.4586634317
 21
355.8281447566
 31
0.0
  0
ARC
  5
118
330
1F
100
AcDbEntity
  8
0
  6
Continuous
 62
     7
370
    25
100
AcDbCircle
 10
707.4586620608
 20
305.9289966427
 30
0.0
 40
2.0
100
AcDbArc
 50
0.0
 51
180.0
  0
LINE
  5
119
330
1F
100
AcDbEntity
  8
0
  6
Continuous
 62
     7
370
    25
100
AcDbLine
 10
705.458662776
 20
291.2290032781
 30
0.0
 11
705.458662776
 21
305.9289987958
 31
0.0
  0
ARC
  5
11A
330
1F
100
AcDbEntity
  8
0
  6
Continuous
 62
     7
370
    25
100
AcDbCircle
 10
707.4586620608
 20
291.2289966427
 30
0.0
 40
2.0
100
AcDbArc
 50
180.0
 51
0.0
  0
LINE
  5
11B
330
1F
100
AcDbEntity
  8
0
  6
Continuous
 62
     7
370
    25
100
AcDbLine
 10
709.4586634317
 20
291.2290032781
 30
0.0
 11
709.4586634317
 21
305.9289987958
 31
0.0
  0
ARC
  5
11C
330
1F
100
AcDbEntity
  8
0
  6
Continuous
 62
     7
370
    25
100
AcDbCircle
 10
707.4586620608
 20
255.9222982562
 30
0.0
 40
2.0
100
AcDbArc
 50
0.0
 51
180.0
  0
LINE
  5
11D
330
1F
100
AcDbEntity
  8
0
  6
Continuous
 62
     7
370
    25
100
AcDbLine
 10
705.458662776
 20
241.2223007358
 30
0.0
 11
705.458662776
 21
255.9222962535
 31
0.0
  0
ARC
  5
11E
330
1F
100
AcDbEntity
  8
0
  6
Continuous
 62
     7
370
    25
100
AcDbCircle
 10
707.4586620608
 20
241.2222982562
 30
0.0
 40
2.0
100
AcDbArc
 50
180.0
 51
0.0
  0
LINE
  5
11F
330
1F
100
AcDbEntity
  8
0
  6
Continuous
 62
     7
370
    25
100
AcDbLine
 10
709.4586634317
 20
241.2223007358
 30
0.0
 11
709.4586634317
 21
255.9222962535
 31
0.0
  0
ARC
  5
120
330
1F
100
AcDbEntity
  8
0
  6
Continuous
 62
     7
370
    25
100
AcDbCircle
 10
707.4586620608
 20
205.9222982562
 30
0.0
 40
2.0
100
AcDbArc
 50
0.0
 51
180.0
  0
LINE
  5
121
330
1F
100
AcDbEntity
  8
0
  6
Continuous
 62
     7
370
    25
100
AcDbLine
 10
705.458662776
 20
191.2222962654
 30
0.0
 11
705.458662776
 21
205.9222992338
 31
0.0
  0
ARC
  5
122
330
1F
100
AcDbEntity
  8
0
  6
Continuous
 62
     7
370
    25
100
AcDbCircle
 10
707.4586620608
 20
191.2222982562
 30
0.0
 40
2.0
100
AcDbArc
 50
180.0
 51
0.0
  0
LINE
  5
123
330
1F
100
AcDbEntity
  8
0
  6
Continuous
 62
     7
370
    25
100
AcDbLine
 10
709.4586634317
 20
191.2222962654
 30
0.0
 11
709.4586634317
 21
205.9222992338
 31
0.0
  0
SPLINE
  5
124
330
1F
100
AcDbEntity
  8
0
  6
Continuous
 62
     7
370
    25
100
AcDbSpline
210
0.0
220
0.0
230
1.0
 70
     8
 71
     3
 72
     8
 73
     4
 74
     0
 42
0.000000001
 43
0.00000001
 40
0.0
 40
0.0
 40
0.0
 40
0.0
 40
1.0
 40
1.0
 40
1.0
 40
1.0
 10
665.3503308607551
 20
404.2781164162352
 30
0.0
 10
665.3503308607551
 20
404.2635643362351
 30
0.0
 10
665.0535593407552
 20
403.5634768962352
 30
0.0
 10
664.6906208607552
 20
402.7223664162352
 30
0.0
  0
SPLINE
  5
125
330
1F
100
AcDbEntity
  8
0
  6
Continuous
 62
     7
370
    25
100
AcDbSpline
210
0.0
220
0.0
230
1.0
 70
     8
 71
     3
 72
     8
 73
     4
 74
     0
 42
0.000000001
 43
0.00000001
 40
0.0
 40
0.0
 40
0.0
 40
0.0
 40
1.0
 40
1.0
 40
1.0
 40
1.0
 10
658.6561967807552
 20
404.3055060962351
 30
0.0
 10
663.9966590207551
 20
404.3047652962351
 30
0.0
 10
665.3501911007551
 20
404.2992259362351
 30
0.0
 10
665.3503308607551
 20
404.2781164162352
 30
0.0
  0
LINE
  5
126
330
1F
100
AcDbEntity
  8
0
  6
Continuous
 62
     7
370
    25
100
AcDbLine
 10
651.962234942
 20
404.3064500964
 30
0.0
 11
658.6561941781
 21
404.3054964221
 31
0.0
  0
LINE
  5
127
330
1F
100
AcDbEntity
  8
0
  6
Continuous
 62
     7
370
    25
100
AcDbLine
 10
651.3014205971
 20
405.0727870143
 30
0.0
 11
651.962234942
 21
404.3064500964
 31
0.0
  0
LINE
  5
128
330
1F
100
AcDbEntity
  8
0
  6
Continuous
 62
     7
370
    25
100
AcDbLine
 10
650.6406137028
 20
405.8391537345
 30
0.0
 11
651.3014205971
 21
405.0727870143
 31
0.0
  0
LINE
  5
129
330
1F
100
AcDbEntity
  8
0
  6
Continuous
 62
     7
370
    25
100
AcDbLine
 10
650.6395110169
 20
413.6073376811
 30
0.0
 11
650.6406137028
 21
405.8391537345
 31
0.0
  0
LINE
  5
12A
330
1F
100
AcDbEntity
  8
0
  6
Continuous
 62
     7
370
    25
100
AcDbLine
 10
651.9728445687
 20
415.15249869
 30
0.0
 11
650.6395110169
 21
413.6073376811
 31
0.0
  0
LINE
  5
12B
330
1F
100
AcDbEntity
  8
0
  6
Continuous
 62
     7
370
    25
100
AcDbLine
 10
665.3627150932
 20
415.1736583389
 30
0.0
 11
651.9728445687
 21
415.15249869
 31
0.0
  0
LINE
  5
12C
330
1F
100
AcDbEntity
  8
0
  6
Continuous
 62
     7
370
    25
100
AcDbLine
 10
665.0331833639
 20
415.9356441177
 30
0.0
 11
665.3627150932
 21
415.1736583389
 31
0.0
  0
SPLINE
  5
12D
330
1F
100
AcDbEntity
  8
0
  6
Continuous
 62
     7
370
    25
100
AcDbSpline
210
0.0
220
0.0
230
1.0
 70
     8
 71
     3
 72
     9
 73
     5
 74
     0
 42
0.000000001
 43
0.00000001
 40
0.0
 40
0.0
 40
0.0
 40
0.0
 40
0.5672355538494933
 40
1.0
 40
1.0
 40
1.0
 40
1.0
 10
664.3680327811417
 20
417.4755301154423
 30
0.0
 10
664.4937246558844
 20
417.1843388682915
 30
0.0
 10
664.7153113915706
 20
416.6709873246961
 30
0.0
 10
664.9371705905586
 20
416.1577534787546
 30
0.0
 10
665.033183363932
 20
415.9356441176701
 30
0.0
  0
LINE
  5
12E
330
1F
100
AcDbEntity
  8
0
  6
Continuous
 62
     7
370
    25
100
AcDbLine
 10
664.032406477
 20
418.2534005321
 30
0.0
 11
664.3680327811
 21
417.4755301154
 31
0.0
  0
LINE
  5
12F
330
1F
100
AcDbEntity
  8
0
  6
Continuous
 62
     7
370
    25
100
AcDbLine
 10
651.3021358528
 20
418.2534005321
 30
0.0
 11
664.032406477
 21
418.2534005321
 31
0.0
  0
LINE
  5
130
330
1F
100
AcDbEntity
  8
0
  6
Continuous
 62
     7
370
    25
100
AcDbLine
 10
647.9511440971
 20
414.3731977619
 30
0.0
 11
651.3021358528
 21
418.2534005321
 31
0.0
  0
LINE
  5
131
330
1F
100
AcDbEntity
  8
0
  6
Continuous
 62
     7
370
    25
100
AcDbLine
 10
647.9515687802
 20
405.0771679557
 30
0.0
 11
647.9511440971
 21
414.3731977619
 31
0.0
  0
LINE
  5
132
330
1F
100
AcDbEntity
  8
0
  6
Continuous
 62
     7
370
    25
100
AcDbLine
 10
649.6287503519
 20
403.1351294196
 30
0.0
 11
647.9515687802
 21
405.0771679557
 31
0.0
  0
LINE
  5
133
330
1F
100
AcDbEntity
  8
0
  6
Continuous
 62
     7
370
    25
100
AcDbLine
 10
651.3057642856
 20
401.1930610812
 30
0.0
 11
649.6287503519
 21
403.1351294196
 31
0.0
  0
LINE
  5
134
330
1F
100
AcDbEntity
  8
0
  6
Continuous
 62
     7
370
    25
100
AcDbLine
 10
664.0307375469
 20
401.1930610812
 30
0.0
 11
651.3057642856
 21
401.1930610812
 31
0.0
  0
LINE
  5
135
330
1F
100
AcDbEntity
  8
0
  6
Continuous
 62
     7
370
    25
100
AcDbLine
 10
664.6906205692
 20
402.7223672546
 30
0.0
 11
664.0307375469
 21
401.1930610812
 31
0.0
  0
LINE
  5
136
330
1F
100
AcDbEntity
  8
0
  6
Continuous
 62
     7
370
    25
100
AcDbLine
 10
688.1258630433
 20
401.1930610812
 30
0.0
 11
688.1256618776
 21
407.7831294215
 31
0.0
  0
LINE
  5
137
330
1F
100
AcDbEntity
  8
0
  6
Continuous
 62
     7
370
    25
100
AcDbLine
 10
690.8140250721
 20
401.1930610812
 30
0.0
 11
688.1258630433
 21
401.1930610812
 31
0.0
  0
LINE
  5
138
330
1F
100
AcDbEntity
  8
0
  6
Continuous
 62
     7
370
    25
100
AcDbLine
 10
690.8140250721
 20
413.6073376811
 30
0.0
 11
690.8140250721
 21
401.1930610812
 31
0.0
  0
LINE
  5
139
330
1F
100
AcDbEntity
  8
0
  6
Continuous
 62
     7
370
    25
100
AcDbLine
 10
692.1473660746
 20
415.15249869
 30
0.0
 11
690.8140250721
 21
413.6073376811
 31
0.0
  0
LINE
  5
13A
330
1F
100
AcDbEntity
  8
0
  6
Continuous
 62
     7
370
    25
100
AcDbLine
 10
701.5182369628
 20
415.1736583389
 30
0.0
 11
692.1473660746
 21
415.15249869
 31
0.0
  0
LINE
  5
13B
330
1F
100
AcDbEntity
  8
0
  6
Continuous
 62
     7
370
    25
100
AcDbLine
 10
700.8555152693
 20
416.7082395232
 30
0.0
 11
701.5182369628
 21
415.1736583389
 31
0.0
  0
LINE
  5
13C
330
1F
100
AcDbEntity
  8
0
  6
Continuous
 62
     7
370
    25
100
AcDbLine
 10
700.1928010264
 20
418.2428207076
 30
0.0
 11
700.8555152693
 21
416.7082395232
 31
0.0
  0
LINE
  5
13D
330
1F
100
AcDbEntity
  8
0
  6
Continuous
 62
     7
370
    25
100
AcDbLine
 10
691.4767393151
 20
418.2535197414
 30
0.0
 11
700.1928010264
 21
418.2428207076
 31
0.0
  0
LINE
  5
13E
330
1F
100
AcDbEntity
  8
0
  6
Continuous
 62
     7
370
    25
100
AcDbLine
 10
688.1256618776
 20
414.3731977619
 30
0.0
 11
691.4767393151
 21
418.2535197414
 31
0.0
  0
LINE
  5
13F
330
1F
100
AcDbEntity
  8
0
  6
Continuous
 62
     7
370
    25
100
AcDbLine
 10
688.1256618776
 20
407.7831294215
 30
0.0
 11
688.1256618776
 21
414.3731977619
 31
0.0
  0
LINE
  5
140
330
1F
100
AcDbEntity
  8
0
  6
Continuous
 62
     7
370
    25
100
AcDbLine
 10
741.4106496849
 20
422.9349281467
 30
0.0
 11
741.2392267265
 21
422.7863933719
 31
0.0
  0
SPLINE
  5
141
330
1F
100
AcDbEntity
  8
0
  6
Continuous
 62
     7
370
    25
100
AcDbSpline
210
0.0
220
0.0
230
1.0
 70
     8
 71
     3
 72
     9
 73
     5
 74
     0
 42
0.000000001
 43
0.00000001
 40
0.0
 40
0.0
 40
0.0
 40
0.0
 40
0.5615209707272649
 40
1.0
 40
1.0
 40
1.0
 40
1.0
 10
742.8626635351357
 20
423.6535515464116
 30
0.0
 10
742.5645544674541
 20
423.5701444721278
 30
0.0
 10
742.0336587694796
 20
423.4216066994855
 30
0.0
 10
741.6005561159977
 20
423.083278129583
 30
0.0
 10
741.4106496849236
 20
422.9349281466771
 30
0.0
  0
SPLINE
  5
142
330
1F
100
AcDbEntity
  8
0
  6
Continuous
 62
     7
370
    25
100
AcDbSpline
210
0.0
220
0.0
230
1.0
 70
     8
 71
     3
 72
     9
 73
     5
 74
     0
 42
0.000000001
 43
0.00000001
 40
0.0
 40
0.0
 40
0.0
 40
0.0
 40
0.6346936218033282
 40
0.9999999999999999
 40
0.9999999999999999
 40
0.9999999999999999
 40
0.9999999999999999
 10
743.476501969355
 20
423.7012650645543
 30
0.0
 10
743.3455269645847
 20
423.7027757626312
 30
0.0
 10
743.1391675491581
 20
423.7051559631328
 30
0.0
 10
742.9366459624739
 20
423.6673590132721
 30
0.0
 10
742.8626635351357
 20
423.6535515464116
 30
0.0
  0
SPLINE
  5
143
330
1F
100
AcDbEntity
  8
0
  6
Continuous
 62
     7
370
    25
100
AcDbSpline
210
0.0
220
0.0
230
1.0
 70
     8
 71
     3
 72
     9
 73
     5
 74
     0
 42
0.000000001
 43
0.00000001
 40
0.0
 40
0.0
 40
0.0
 40
0.0
 40
0.533440128102172
 40
1.0
 40
1.0
 40
1.0
 40
1.0
 10
744.4713332929787
 20
423.5534157431889
 30
0.0
 10
744.2978233656621
 20
423.6034780079156
 30
0.0
 10
743.9725573832661
 20
423.6973259621459
 30
0.0
 10
743.6343131537488
 20
423.7000119093642
 30
0.0
 10
743.476501969355
 20
423.7012650645543
 30
0.0
  0
SPLINE
  5
144
330
1F
100
AcDbEntity
  8
0
  6
Continuous
 62
     7
370
    25
100
AcDbSpline
210
0.0
220
0.0
230
1.0
 70
     8
 71
     3
 72
     8
 73
     4
 74
     0
 42
0.000000001
 43
0.00000001
 40
0.0
 40
0.0
 40
0.0
 40
0.0
 40
1.0
 40
1.0
 40
1.0
 40
1.0
 10
745.5553647007551
 20
422.9255753762351
 30
0.0
 10
745.2426357407551
 20
423.1975795362351
 30
0.0
 10
744.8363817407552
 20
423.4328688162352
 30
0.0
 10
744.4713287007552
 20
423.5534142562352
 30
0.0
  0
LINE
  5
145
330
1F
100
AcDbEntity
  8
0
  6
Continuous
 62
     7
370
    25
100
AcDbLine
 10
745.6799366751
 20
422.8172387756
 30
0.0
 11
745.5553629675
 21
422.9255702174
 31
0.0
  0
LINE
  5
146
330
1F
100
AcDbEntity
  8
0
  6
Continuous
 62
     7
370
    25
100
AcDbLine
 10
745.862967638
 20
423.0002548374
 30
0.0
 11
745.6799366751
 21
422.8172387756
 31
0.0
  0
LINE
  5
147
330
1F
100
AcDbEntity
  8
0
  6
Continuous
 62
     7
370
    25
100
AcDbLine
 10
746.0459836998
 20
423.1833007015
 30
0.0
 11
745.862967638
 21
423.0002548374
 31
0.0
  0
LINE
  5
148
330
1F
100
AcDbEntity
  8
0
  6
Continuous
 62
     7
370
    25
100
AcDbLine
 10
746.0047819891
 20
423.2292558826
 30
0.0
 11
746.0459836998
 21
423.1833007015
 31
0.0
  0
SPLINE
  5
149
330
1F
100
AcDbEntity
  8
0
  6
Continuous
 62
     7
370
    25
100
AcDbSpline
210
0.0
220
0.0
230
1.0
 70
     8
 71
     3
 72
     8
 73
     4
 74
     0
 42
0.000000001
 43
0.00000001
 40
0.0
 40
0.0
 40
0.0
 40
0.0
 40
0.9999083470814376
 40
0.9999083470814376
 40
0.9999083470814376
 40
0.9999083470814376
 10
745.8131853407551
 20
423.3984100962351
 30
0.0
 10
745.8958949594822
 20
423.3306510271208
 30
0.0
 10
745.9821048964924
 20
423.2545345301825
 30
0.0
 10
746.0047776677083
 20
423.2292520072421
 30
0.0
  0
SPLINE
  5
14A
330
1F
100
AcDbEntity
  8
0
  6
Continuous
 62
     7
370
    25
100
AcDbSpline
210
0.0
220
0.0
230
1.0
 70
     8
 71
     3
 72
     8
 73
     4
 74
     0
 42
0.000000001
 43
0.00000001
 40
0.0
 40
0.0
 40
0.0
 40
0.0
 40
1.0
 40
1.0
 40
1.0
 40
1.0
 10
743.1060787007552
 20
424.2219695362351
 30
0.0
 10
744.0543327007551
 20
424.3277872162352
 30
0.0
 10
745.0475954207552
 20
424.0256156962351
 30
0.0
 10
745.8131853407551
 20
423.3984100962351
 30
0.0
  0
SPLINE
  5
14B
330
1F
100
AcDbEntity
  8
0
  6
Continuous
 62
     7
370
    25
100
AcDbSpline
210
0.0
220
0.0
230
1.0
 70
     8
 71
     3
 72
     8
 73
     4
 74
     0
 42
0.000000001
 43
0.00000001
 40
0.0
 40
0.0
 40
0.0
 40
0.0
 40
1.0
 40
1.0
 40
1.0
 40
1.0
 10
741.0036656607551
 20
423.2790864162351
 30
0.0
 10
741.5965101407551
 20
423.8169678562351
 30
0.0
 10
742.2986677407551
 20
424.1318689762351
 30
0.0
 10
743.1060787007552
 20
424.2219695362351
 30
0.0
  0
LINE
  5
14C
330
1F
100
AcDbEntity
  8
0
  6
Continuous
 62
     7
370
    25
100
AcDbLine
 10
740.8697524347
 20
423.1575812972
 30
0.0
 11
741.0036691704
 21
423.2790853656
 31
0.0
  0
LINE
  5
14D
330
1F
100
AcDbEntity
  8
0
  6
Continuous
 62
     7
370
    25
100
AcDbLine
 10
741.0544821301
 20
422.9720022357
 30
0.0
 11
740.8697524347
 21
423.1575812972
 31
0.0
  0
LINE
  5
14E
330
1F
100
AcDbEntity
  8
0
  6
Continuous
 62
     7
370
    25
100
AcDbLine
 10
741.2392267265
 20
422.7863933719
 30
0.0
 11
741.0544821301
 21
422.9720022357
 31
0.0
  0
LINE
  5
14F
330
1F
100
AcDbEntity
  8
0
  6
Continuous
 62
     7
370
    25
100
AcDbLine
 10
724.2994972744
 20
405.0895657218
 30
0.0
 11
724.1566249409
 21
404.9200799144
 31
0.0
  0
LINE
  5
150
330
1F
100
AcDbEntity
  8
0
  6
Continuous
 62
     7
370
    25
100
AcDbLine
 10
724.2994972744
 20
409.713366238
 30
0.0
 11
724.2994972744
 21
405.0895657218
 31
0.0
  0
LINE
  5
151
330
1F
100
AcDbEntity
  8
0
  6
Continuous
 62
     7
370
    25
100
AcDbLine
 10
723.1988230028
 20
410.9875645316
 30
0.0
 11
724.2994972744
 21
409.713366238
 31
0.0
  0
SPLINE
  5
152
330
1F
100
AcDbEntity
  8
0
  6
Continuous
 62
     7
370
    25
100
AcDbSpline
210
0.0
220
0.0
230
1.0
 70
     8
 71
     3
 72
     8
 73
     4
 74
     0
 42
0.000000001
 43
0.00000001
 40
0.0
 40
0.0
 40
0.0
 40
0.0
 40
1.0
 40
1.0
 40
1.0
 40
1.0
 10
722.0981620607552
 20
412.2844496162351
 30
0.0
 10
722.0981620607552
 20
412.2719714562352
 30
0.0
 10
722.5934620607551
 20
411.6883712962351
 30
0.0
 10
723.1988287007551
 20
410.9875603362352
 30
0.0
  0
SPLINE
  5
153
330
1F
100
AcDbEntity
  8
0
  6
Continuous
 62
     7
370
    25
100
AcDbSpline
210
0.0
220
0.0
230
1.0
 70
     8
 71
     3
 72
     8
 73
     4
 74
     0
 42
0.000000001
 43
0.00000001
 40
0.0
 40
0.0
 40
0.0
 40
0.0
 40
1.0
 40
1.0
 40
1.0
 40
1.0
 10
722.9977454207551
 20
413.3484522562352
 30
0.0
 10
722.5029745407552
 20
412.7757289762351
 30
0.0
 10
722.0981620607552
 20
412.2969275362352
 30
0.0
 10
722.0981620607552
 20
412.2844496162351
 30
0.0
  0
LINE
  5
154
330
1F
100
AcDbEntity
  8
0
  6
Continuous
 62
     7
370
    25
100
AcDbLine
 10
723.897329835
 20
414.3897678531
 30
0.0
 11
722.9977467337
 21
413.3484449065
 31
0.0
  0
LINE
  5
155
330
1F
100
AcDbEntity
  8
0
  6
Continuous
 62
     7
370
    25
100
AcDbLine
 10
723.897329835
 20
419.0135981715
 30
0.0
 11
723.897329835
 21
414.3897678531
 31
0.0
  0
LINE
  5
156
330
1F
100
AcDbEntity
  8
0
  6
Continuous
 62
     7
370
    25
100
AcDbLine
 10
723.7544575014
 20
419.1831435836
 30
0.0
 11
723.897329835
 21
419.0135981715
 31
0.0
  0
SPLINE
  5
157
330
1F
100
AcDbEntity
  8
0
  6
Continuous
 62
     7
370
    25
100
AcDbSpline
210
0.0
220
0.0
230
1.0
 70
     8
 71
     3
 72
    11
 73
     7
 74
     0
 42
0.000000001
 43
0.00000001
 40
0.0
 40
0.0
 40
0.0
 40
0.0
 40
0.4021032759399478
 40
0.7333800590678019
 40
0.9139591978829193
 40
1.0
 40
1.0
 40
1.0
 40
1.0
 10
722.076989082354
 20
421.1308147586155
 30
0.0
 10
722.3020746662131
 20
420.8699724133461
 30
0.0
 10
722.712599246994
 20
420.3942325076367
 30
0.0
 10
723.2236684549322
 20
419.8008885614801
 30
0.0
 10
723.558066292301
 20
419.4127873694396
 30
0.0
 10
723.7065427349143
 20
419.2391711849921
 30
0.0
 10
723.754457501429
 20
419.1831435836125
 30
0.0
  0
LINE
  5
158
330
1F
100
AcDbEntity
  8
0
  6
Continuous
 62
     7
370
    25
100
AcDbLine
 10
720.542407898
 20
422.9089405216
 30
0.0
 11
722.0769890824
 21
421.1308147586
 31
0.0
  0
LINE
  5
159
330
1F
100
AcDbEntity
  8
0
  6
Continuous
 62
     7
370
    25
100
AcDbLine
 10
704.1911625543
 20
422.9100730098
 30
0.0
 11
720.542407898
 21
422.9089405216
 31
0.0
  0
LINE
  5
15A
330
1F
100
AcDbEntity
  8
0
  6
Continuous
 62
     7
370
    25
100
AcDbLine
 10
704.1911625543
 20
401.1930610812
 30
0.0
 11
704.1911625543
 21
422.9100730098
 31
0.0
  0
LINE
  5
15B
330
1F
100
AcDbEntity
  8
0
  6
Continuous
 62
     7
370
    25
100
AcDbLine
 10
720.9445753374
 20
401.1943127788
 30
0.0
 11
704.1911625543
 21
401.1930610812
 31
0.0
  0
LINE
  5
15C
330
1F
100
AcDbEntity
  8
0
  6
Continuous
 62
     7
370
    25
100
AcDbLine
 10
722.4791565218
 20
402.9724385417
 30
0.0
 11
720.9445753374
 21
401.1943127788
 31
0.0
  0
SPLINE
  5
15D
330
1F
100
AcDbEntity
  8
0
  6
Continuous
 62
     7
370
    25
100
AcDbSpline
210
0.0
220
0.0
230
1.0
 70
     8
 71
     3
 72
     8
 73
     4
 74
     0
 42
0.000000001
 43
0.00000001
 40
0.0
 40
0.0
 40
0.0
 40
0.0
 40
1.0
 40
1.0
 40
1.0
 40
1.0
 10
724.1566203807552
 20
404.9200760162352
 30
0.0
 10
724.0780391007551
 20
404.8268622562351
 30
0.0
 10
723.3231828607552
 20
403.9504268162352
 30
0.0
 10
722.4791620607551
 20
402.9724464162351
 30
0.0
  0
SPLINE
  5
15E
330
1F
100
AcDbEntity
  8
0
  6
Continuous
 62
     7
370
    25
100
AcDbSpline
210
0.0
220
0.0
230
1.0
 70
     8
 71
     3
 72
    13
 73
     9
 74
     0
 42
0.000000001
 43
0.00000001
 40
0.0
 40
0.0
 40
0.0
 40
0.0
 40
0.7495109324541898
 40
0.9395540544512928
 40
0.9838735835593893
 40
0.9949816331713676
 40
0.9978662340073452
 40
1.0
 40
1.0
 40
1.0
 40
1.0
 10
742.3712828436073
 20
421.8526270068455
 30
0.0
 10
742.3457148653983
 20
421.8303955588592
 30
0.0
 10
742.3136639685398
 20
421.8025271900503
 30
0.0
 10
742.2787897116332
 20
421.7749081910673
 30
0.0
 10
742.2696555252312
 20
421.7685904948439
 30
0.0
 10
742.267314749044
 20
421.7673583784019
 30
0.0
 10
742.2666219949131
 20
421.7671250435103
 30
0.0
 10
742.2663989849123
 20
421.7670825900942
 30
0.0
 10
742.2663041629967
 20
421.7670645392705
 30
0.0
  0
SPLINE
  5
15F
330
1F
100
AcDbEntity
  8
0
  6
Continuous
 62
     7
370
    25
100
AcDbSpline
210
0.0
220
0.0
230
1.0
 70
     8
 71
     3
 72
    11
 73
     7
 74
     0
 42
0.000000001
 43
0.00000001
 40
0.0
 40
0.0
 40
0.0
 40
0.0
 40
0.2830709806037937
 40
0.5618642201892582
 40
0.7801903043137578
 40
0.9999999999999999
 40
0.9999999999999999
 40
0.9999999999999999
 40
0.9999999999999999
 10
744.5309230365929
 20
421.8770649112034
 30
0.0
 10
744.3424690532864
 20
421.995992532173
 30
0.0
 10
743.9684089848674
 20
422.2320505515166
 30
0.0
 10
743.3440667225565
 20
422.2758785239122
 30
0.0
 10
742.7902917043169
 20
422.1536790109323
 30
0.0
 10
742.5112674070589
 20
421.9532039571681
 30
0.0
 10
742.3712828436073
 20
421.8526270068456
 30
0.0
  0
LINE
  5
160
330
1F
100
AcDbEntity
  8
0
  6
Continuous
 62
     7
370
    25
100
AcDbLine
 10
744.6434417048
 20
421.7854823745
 30
0.0
 11
744.5309230366
 21
421.8770649112
 31
0.0
  0
LINE
  5
161
330
1F
100
AcDbEntity
  8
0
  6
Continuous
 62
     7
370
    25
100
AcDbLine
 10
744.821972517
 20
421.9601835883
 30
0.0
 11
744.6434417048
 21
421.7854823745
 31
0.0
  0
SPLINE
  5
162
330
1F
100
AcDbEntity
  8
0
  6
Continuous
 62
     7
370
    25
100
AcDbSpline
210
0.0
220
0.0
230
1.0
 70
     8
 71
     3
 72
     8
 73
     4
 74
     0
 42
0.000000001
 43
0.00000001
 40
0.0
 40
0.0
 40
0.0
 40
0.0
 40
0.9999730328885041
 40
0.9999730328885041
 40
0.9999730328885041
 40
0.9999730328885041
 10
745.0004954207551
 20
422.1523444962352
 30
0.0
 10
745.0004954207551
 20
422.1427228357105
 30
0.0
 10
744.9201637535564
 20
422.0562482803548
 30
0.0
 10
744.8219794442499
 20
421.9601765088002
 30
0.0
  0
SPLINE
  5
163
330
1F
100
AcDbEntity
  8
0
  6
Continuous
 62
     7
370
    25
100
AcDbSpline
210
0.0
220
0.0
230
1.0
 70
     8
 71
     3
 72
     8
 73
     4
 74
     0
 42
0.000000001
 43
0.00000001
 40
0.0000228785189233
 40
0.0000228785189233
 40
0.0000228785189233
 40
0.0000228785189233
 40
1.0
 40
1.0
 40
1.0
 40
1.0
 10
744.7213344624176
 20
422.3925323684136
 30
0.0
 10
744.8740451269446
 20
422.2892671179115
 30
0.0
 10
745.0004954207551
 20
422.1804714527173
 30
0.0
 10
745.0004954207551
 20
422.1523444962352
 30
0.0
  0
SPLINE
  5
164
330
1F
100
AcDbEntity
  8
0
  6
Continuous
 62
     7
370
    25
100
AcDbSpline
210
0.0
220
0.0
230
1.0
 70
     8
 71
     3
 72
     9
 73
     5
 74
     0
 42
0.000000001
 43
0.00000001
 40
0.0
 40
0.0
 40
0.0
 40
0.0
 40
0.5665268880710493
 40
1.0
 40
1.0
 40
1.0
 40
1.0
 10
744.0100231447395
 20
422.7137949145604
 30
0.0
 10
744.1513194037316
 20
422.6681415293514
 30
0.0
 10
744.4007272640949
 20
422.5875568542545
 30
0.0
 10
744.6243818325447
 20
422.4515020002007
 30
0.0
 10
744.7213300743279
 20
422.392525879221
 30
0.0
  0
SPLINE
  5
165
330
1F
100
AcDbEntity
  8
0
  6
Continuous
 62
     7
370
    25
100
AcDbSpline
210
0.0
220
0.0
230
1.0
 70
     8
 71
     3
 72
     8
 73
     4
 74
     0
 42
0.000000001
 43
0.00000001
 40
0.0
 40
0.0
 40
0.0
 40
0.0
 40
1.0
 40
1.0
 40
1.0
 40
1.0
 10
743.465912060755
 20
422.7686048162352
 30
0.0
 10
743.7632698207551
 20
422.7686048162352
 30
0.0
 10
743.8296379007551
 20
422.7619195362352
 30
0.0
 10
744.010018140755
 20
422.7137964962351
 30
0.0
  0
SPLINE
  5
166
330
1F
100
AcDbEntity
  8
0
  6
Continuous
 62
     7
370
    25
100
AcDbSpline
210
0.0
220
0.0
230
1.0
 70
     8
 71
     3
 72
     8
 73
     4
 74
     0
 42
0.000000001
 43
0.00000001
 40
0.0
 40
0.0
 40
0.0
 40
0.0
 40
1.0
 40
1.0
 40
1.0
 40
1.0
 10
742.921805980755
 20
422.7137964962351
 30
0.0
 10
743.1021861407551
 20
422.7619195362352
 30
0.0
 10
743.1685542207551
 20
422.7686048162352
 30
0.0
 10
743.465912060755
 20
422.7686048162352
 30
0.0
  0
SPLINE
  5
167
330
1F
100
AcDbEntity
  8
0
  6
Continuous
 62
     7
370
    25
100
AcDbSpline
210
0.0
220
0.0
230
1.0
 70
     8
 71
     3
 72
     8
 73
     4
 74
     0
 42
0.000000001
 43
0.00000001
 40
0.0
 40
0.0
 40
0.0
 40
0.0
 40
1.0
 40
1.0
 40
1.0
 40
1.0
 10
742.0105343807552
 20
422.2417582562351
 30
0.0
 10
742.2682195007552
 20
422.4597220162352
 30
0.0
 10
742.5855035807551
 20
422.6240758562352
 30
0.0
 10
742.921805980755
 20
422.7137964962351
 30
0.0
  0
LINE
  5
168
330
1F
100
AcDbEntity
  8
0
  6
Continuous
 62
     7
370
    25
100
AcDbLine
 10
741.8886640349
 20
422.1386696971
 30
0.0
 11
742.0105406323
 21
422.2417559303
 31
0.0
  0
LINE
  5
169
330
1F
100
AcDbEntity
  8
0
  6
Continuous
 62
     7
370
    25
100
AcDbLine
 10
742.0735874453
 20
421.9528820194
 30
0.0
 11
741.8886640349
 21
422.1386696971
 31
0.0
  0
SPLINE
  5
16A
330
1F
100
AcDbEntity
  8
0
  6
Continuous
 62
     7
370
    25
100
AcDbSpline
210
0.0
220
0.0
230
1.0
 70
     8
 71
     3
 72
    16
 73
    12
 74
     0
 42
0.000000001
 43
0.00000001
 40
0.0
 40
0.0
 40
0.0
 40
0.0
 40
0.0005129220196561
 40
0.0011641036854623
 40
0.0025085649813718
 40
0.0061656412186218
 40
0.0161797979880557
 40
0.045115200580544
 40
0.1298236616988393
 40
0.3706799645486146
 40
1.0
 40
1.0
 40
1.0
 40
1.0
 10
742.2663041629967
 20
421.7670645392705
 30
0.0
 10
742.2662591095044
 20
421.767073248872
 30
0.0
 10
742.2661568582178
 20
421.7670930157738
 30
0.0
 10
742.2659481686454
 20
421.7671763873511
 30
0.0
 10
742.2654858056029
 20
421.7673802128321
 30
0.0
 10
742.2643967342202
 20
421.7681764705835
 30
0.0
 10
742.2613476479947
 20
421.7704373408727
 30
0.0
 10
742.2530391127268
 20
421.7777395817998
 30
0.0
 10
742.2297371101721
 20
421.7991276441692
 30
0.0
 10
742.1683742064574
 20
421.8583561076536
 30
0.0
 10
742.1133682736606
 20
421.9132106662648
 30
0.0
 10
742.0735874452766
 20
421.9528820193577
 30
0.0
  0
SPLINE
  5
16B
330
1F
100
AcDbEntity
  8
0
  6
Continuous
 62
     7
370
    25
100
AcDbSpline
210
0.0
220
0.0
230
1.0
 70
     8
 71
     3
 72
     9
 73
     5
 74
     0
 42
0.000000001
 43
0.00000001
 40
0.0
 40
0.0
 40
0.0
 40
0.0
 40
0.5561874466229798
 40
0.9999999999999999
 40
0.9999999999999999
 40
0.9999999999999999
 40
0.9999999999999999
 10
735.5460890808281
 20
408.2604434169102
 30
0.0
 10
735.3293282623662
 20
408.086846757074
 30
0.0
 10
734.9396020652395
 20
407.7747277747234
 30
0.0
 10
734.4458147653208
 20
407.7247324808453
 30
0.0
 10
734.2266657629189
 20
407.7025439418126
 30
0.0
  0
SPLINE
  5
16C
330
1F
100
AcDbEntity
  8
0
  6
Continuous
 62
     7
370
    25
100
AcDbSpline
210
0.0
220
0.0
230
1.0
 70
     8
 71
     3
 72
     8
 73
     4
 74
     0
 42
0.000000001
 43
0.00000001
 40
0.0
 40
0.0
 40
0.0
 40
0.0
 40
0.9999903056325057
 40
0.9999903056325057
 40
0.9999903056325057
 40
0.9999903056325057
 10
736.093797020755
 20
409.2088632962352
 30
0.0
 10
736.0025674251768
 20
408.8435542777094
 30
0.0
 10
735.8187376250257
 20
408.5252282682291
 30
0.0
 10
735.5460941501752
 20
408.2604381972114
 30
0.0
  0
SPLINE
  5
16D
330
1F
100
AcDbEntity
  8
0
  6
Continuous
 62
     7
370
    25
100
AcDbSpline
210
0.0
220
0.0
230
1.0
 70
     8
 71
     3
 72
     8
 73
     4
 74
     0
 42
0.000000001
 43
0.00000001
 40
0.0
 40
0.0
 40
0.0
 40
0.0
 40
1.0
 40
1.0
 40
1.0
 40
1.0
 10
736.1403213407551
 20
409.6809085762352
 30
0.0
 10
736.1403213407551
 20
409.4571950562352
 30
0.0
 10
736.1302206207552
 20
409.3547136962351
 30
0.0
 10
736.0937970207551
 20
409.2088632962352
 30
0.0
  0
SPLINE
  5
16E
330
1F
100
AcDbEntity
  8
0
  6
Continuous
 62
     7
370
    25
100
AcDbSpline
210
0.0
220
0.0
230
1.0
 70
     8
 71
     3
 72
     8
 73
     4
 74
     0
 42
0.000000001
 43
0.00000001
 40
0.0
 40
0.0
 40
0.0
 40
0.0
 40
1.0
 40
1.0
 40
1.0
 40
1.0
 10
735.8061885407552
 20
410.7986744962352
 30
0.0
 10
736.0426414207551
 20
410.4433507362352
 30
0.0
 10
736.1403213407551
 20
410.1165884162351
 30
0.0
 10
736.1403213407551
 20
409.6809085762352
 30
0.0
  0
SPLINE
  5
16F
330
1F
100
AcDbEntity
  8
0
  6
Continuous
 62
     7
370
    25
100
AcDbSpline
210
0.0
220
0.0
230
1.0
 70
     8
 71
     3
 72
     8
 73
     4
 74
     0
 42
0.000000001
 43
0.00000001
 40
0.0
 40
0.0
 40
0.0
 40
0.0
 40
1.0
 40
1.0
 40
1.0
 40
1.0
 10
735.2544455007551
 20
411.3427791362352
 30
0.0
 10
735.4249980607551
 20
411.2338700162351
 30
0.0
 10
735.691427100755
 20
410.9711309762351
 30
0.0
 10
735.8061885407552
 20
410.7986744962352
 30
0.0
  0
SPLINE
  5
170
330
1F
100
AcDbEntity
  8
0
  6
Continuous
 62
     7
370
    25
100
AcDbSpline
210
0.0
220
0.0
230
1.0
 70
     8
 71
     3
 72
     9
 73
     5
 74
     0
 42
0.000000001
 43
0.00000001
 40
0.0
 40
0.0
 40
0.0
 40
0.0
 40
0.5538889199671451
 40
1.0
 40
1.0
 40
1.0
 40
1.0
 10
733.0453911104378
 20
411.323943344431
 30
0.0
 10
733.238316806499
 20
411.4336178123067
 30
0.0
 10
733.5866279734253
 20
411.6316258675723
 30
0.0
 10
733.9853034613915
 20
411.6499033799377
 30
0.0
 10
734.1631570139107
 20
411.6580571807194
 30
0.0
  0
SPLINE
  5
171
330
1F
100
AcDbEntity
  8
0
  6
Continuous
 62
     7
370
    25
100
AcDbSpline
210
0.0
220
0.0
230
1.0
 70
     8
 71
     3
 72
     8
 73
     4
 74
     0
 42
0.000000001
 43
0.00000001
 40
0.0
 40
0.0
 40
0.0
 40
0.0
 40
1.0
 40
1.0
 40
1.0
 40
1.0
 10
732.5012908607551
 20
410.7721924162352
 30
0.0
 10
732.6101997407551
 20
410.9427453762352
 30
0.0
 10
732.8729394207552
 20
411.2091732162352
 30
0.0
 10
733.0453969407552
 20
411.3239359362352
 30
0.0
  0
SPLINE
  5
172
330
1F
100
AcDbEntity
  8
0
  6
Continuous
 62
     7
370
    25
100
AcDbSpline
210
0.0
220
0.0
230
1.0
 70
     8
 71
     3
 72
     8
 73
     4
 74
     0
 42
0.000000001
 43
0.00000001
 40
0.0
 40
0.0
 40
0.0
 40
0.0
 40
1.0
 40
1.0
 40
1.0
 40
1.0
 10
732.1860027807551
 20
409.6809085762352
 30
0.0
 10
732.1860027807551
 20
410.1054786562352
 30
0.0
 10
732.2772691807551
 20
410.4213706562352
 30
0.0
 10
732.5012908607551
 20
410.7721924162352
 30
0.0
  0
SPLINE
  5
173
330
1F
100
AcDbEntity
  8
0
  6
Continuous
 62
     7
370
    25
100
AcDbSpline
210
0.0
220
0.0
230
1.0
 70
     8
 71
     3
 72
     8
 73
     4
 74
     0
 42
0.000000001
 43
0.00000001
 40
0.0
 40
0.0
 40
0.0
 40
0.0
 40
1.0
 40
1.0
 40
1.0
 40
1.0
 10
732.2325271007552
 20
409.2088632962352
 30
0.0
 10
732.1961035007552
 20
409.3547136962351
 30
0.0
 10
732.1860027807551
 20
409.4571950562352
 30
0.0
 10
732.1860027807551
 20
409.6809085762352
 30
0.0
  0
SPLINE
  5
174
330
1F
100
AcDbEntity
  8
0
  6
Continuous
 62
     7
370
    25
100
AcDbSpline
210
0.0
220
0.0
230
1.0
 70
     8
 71
     3
 72
     9
 73
     5
 74
     0
 42
0.000000001
 43
0.00000001
 40
0.0
 40
0.0
 40
0.0
 40
0.0
 40
0.5601462771069862
 40
1.0
 40
1.0
 40
1.0
 40
1.0
 10
732.7802398481545
 20
408.2604434169102
 30
0.0
 10
732.6414045808974
 20
408.4172362759957
 30
0.0
 10
732.3935492028806
 20
408.6971504082387
 30
0.0
 10
732.281720874067
 20
409.0525490908975
 30
0.0
 10
732.2325327673134
 20
409.2088725245762
 30
0.0
  0
SPLINE
  5
175
330
1F
100
AcDbEntity
  8
0
  6
Continuous
 62
     7
370
    25
100
AcDbSpline
210
0.0
220
0.0
230
1.0
 70
     8
 71
     3
 72
     9
 73
     5
 74
     0
 42
0.000000001
 43
0.00000001
 40
0.0
 40
0.0
 40
0.0
 40
0.0
 40
0.5664068917553216
 40
0.9999999999999999
 40
0.9999999999999999
 40
0.9999999999999999
 40
0.9999999999999999
 10
733.9197465458092
 20
407.7047791159916
 30
0.0
 10
733.6789586937658
 20
407.7598692306229
 30
0.0
 10
733.2538440711362
 20
407.8571316676326
 30
0.0
 10
732.9234823944107
 20
408.1384609701789
 30
0.0
 10
732.7802398481545
 20
408.2604434169102
 30
0.0
  0
SPLINE
  5
176
330
1F
100
AcDbEntity
  8
0
  6
Continuous
 62
     7
370
    25
100
AcDbSpline
210
0.0
220
0.0
230
1.0
 70
     8
 71
     3
 72
     9
 73
     5
 74
     0
 42
0.000000001
 43
0.00000001
 40
0.0
 40
0.0
 40
0.0
 40
0.0
 40
0.6840915805397872
 40
1.0
 40
1.0
 40
1.0
 40
1.0
 10
734.2266657629189
 20
407.7025439418126
 30
0.0
 10
734.1566295104923
 20
407.7003368729306
 30
0.0
 10
734.0542510360033
 20
407.6971105960039
 30
0.0
 10
733.9520368634932
 20
407.7029381443912
 30
0.0
 10
733.9197465458092
 20
407.7047791159917
 30
0.0
  0
SPLINE
  5
177
330
1F
100
AcDbEntity
  8
0
  6
Continuous
 62
     7
370
    25
100
AcDbSpline
210
0.0
220
0.0
230
1.0
 70
     8
 71
     3
 72
     8
 73
     4
 74
     0
 42
0.000000001
 43
0.00000001
 40
0.0
 40
0.0
 40
0.0
 40
0.0
 40
0.9999887673835933
 40
0.9999887673835933
 40
0.9999887673835933
 40
0.9999887673835933
 10
743.5021303007551
 20
409.2088632962352
 30
0.0
 10
743.4109009255112
 20
408.8435548396509
 30
0.0
 10
743.2270715505829
 20
408.5252292475681
 30
0.0
 10
742.9544287683673
 20
408.2604394191628
 30
0.0
  0
SPLINE
  5
178
330
1F
100
AcDbEntity
  8
0
  6
Continuous
 62
     7
370
    25
100
AcDbSpline
210
0.0
220
0.0
230
1.0
 70
     8
 71
     3
 72
     8
 73
     4
 74
     0
 42
0.000000001
 43
0.00000001
 40
0.0
 40
0.0
 40
0.0
 40
0.0
 40
1.0
 40
1.0
 40
1.0
 40
1.0
 10
743.5486547007552
 20
409.6809085762352
 30
0.0
 10
743.5486547007552
 20
409.4571950562352
 30
0.0
 10
743.5385539007551
 20
409.3547136962351
 30
0.0
 10
743.5021303007551
 20
409.2088632962352
 30
0.0
  0
SPLINE
  5
179
330
1F
100
AcDbEntity
  8
0
  6
Continuous
 62
     7
370
    25
100
AcDbSpline
210
0.0
220
0.0
230
1.0
 70
     8
 71
     3
 72
     8
 73
     4
 74
     0
 42
0.000000001
 43
0.00000001
 40
0.000009922125008
 40
0.000009922125008
 40
0.000009922125008
 40
0.000009922125008
 40
1.0
 40
1.0
 40
1.0
 40
1.0
 10
743.23669845814
 20
410.7667596853579
 30
0.0
 10
743.4569900397986
 20
410.4223856046265
 30
0.0
 10
743.5486547007552
 20
410.1033231049437
 30
0.0
 10
743.5486547007552
 20
409.6809085762352
 30
0.0
  0
SPLINE
  5
17A
330
1F
100
AcDbEntity
  8
0
  6
Continuous
 62
     7
370
    25
100
AcDbSpline
210
0.0
220
0.0
230
1.0
 70
     8
 71
     3
 72
     9
 73
     5
 74
     0
 42
0.000000001
 43
0.00000001
 40
0.0
 40
0.0
 40
0.0
 40
0.0
 40
0.5659413917620169
 40
1.0
 40
1.0
 40
1.0
 40
1.0
 10
742.6911064663109
 20
411.3228108561802
 30
0.0
 10
742.8062860807952
 20
411.2296849902262
 30
0.0
 10
743.0098047068595
 20
411.0651346192697
 30
0.0
 10
743.1680220029307
 20
410.8570709512404
 30
0.0
 10
743.2366975822624
 20
410.7667591250706
 30
0.0
  0
SPLINE
  5
17B
330
1F
100
AcDbEntity
  8
0
  6
Continuous
 62
     7
370
    25
100
AcDbSpline
210
0.0
220
0.0
230
1.0
 70
     8
 71
     3
 72
     9
 73
     5
 74
     0
 42
0.000000001
 43
0.00000001
 40
0.0
 40
0.0
 40
0.0
 40
0.0
 40
0.558899995296428
 40
1.0
 40
1.0
 40
1.0
 40
1.0
 10
741.57149281885
 20
411.6580571807194
 30
0.0
 10
741.7954402957487
 20
411.6435870550903
 30
0.0
 10
742.1961335839635
 20
411.6176966887444
 30
0.0
 10
742.539602379142
 20
411.4130711724015
 30
0.0
 10
742.6911064663109
 20
411.3228108561802
 30
0.0
  0
SPLINE
  5
17C
330
1F
100
AcDbEntity
  8
0
  6
Continuous
 62
     7
370
    25
100
AcDbSpline
210
0.0
220
0.0
230
1.0
 70
     8
 71
     3
 72
     9
 73
     5
 74
     0
 42
0.000000001
 43
0.00000001
 40
0.0
 40
0.0
 40
0.0
 40
0.0
 40
0.5538768682723546
 40
1.0
 40
1.0
 40
1.0
 40
1.0
 10
740.453726915377
 20
411.323943344431
 30
0.0
 10
740.6466475996458
 20
411.4336177490772
 30
0.0
 10
740.9949572968363
 20
411.6316299986018
 30
0.0
 10
741.3936339443254
 20
411.6499045020226
 30
0.0
 10
741.57149281885
 20
411.6580571807195
 30
0.0
  0
SPLINE
  5
17D
330
1F
100
AcDbEntity
  8
0
  6
Continuous
 62
     7
370
    25
100
AcDbSpline
210
0.0
220
0.0
230
1.0
 70
     8
 71
     3
 72
     8
 73
     4
 74
     0
 42
0.000000001
 43
0.00000001
 40
0.0
 40
0.0
 40
0.0
 40
0.0
 40
1.0
 40
1.0
 40
1.0
 40
1.0
 10
739.9096242207552
 20
410.7721924162352
 30
0.0
 10
740.0185330207552
 20
410.9427453762352
 30
0.0
 10
740.2812727807552
 20
411.2091732162352
 30
0.0
 10
740.4537303007551
 20
411.3239359362352
 30
0.0
  0
SPLINE
  5
17E
330
1F
100
AcDbEntity
  8
0
  6
Continuous
 62
     7
370
    25
100
AcDbSpline
210
0.0
220
0.0
230
1.0
 70
     8
 71
     3
 72
     8
 73
     4
 74
     0
 42
0.000000001
 43
0.00000001
 40
0.0
 40
0.0
 40
0.0
 40
0.0
 40
1.0
 40
1.0
 40
1.0
 40
1.0
 10
739.6408604607552
 20
409.2088632962352
 30
0.0
 10
739.6044368607552
 20
409.3547136962351
 30
0.0
 10
739.5943361407551
 20
409.4571950562352
 30
0.0
 10
739.5943361407551
 20
409.6809085762352
 30
0.0
  0
SPLINE
  5
17F
330
1F
100
AcDbEntity
  8
0
  6
Continuous
 62
     7
370
    25
100
AcDbSpline
210
0.0
220
0.0
230
1.0
 70
     8
 71
     3
 72
     9
 73
     5
 74
     0
 42
0.000000001
 43
0.00000001
 40
0.0
 40
0.0
 40
0.0
 40
0.0
 40
0.5601435798036587
 40
1.0
 40
1.0
 40
1.0
 40
1.0
 10
740.1885756530937
 20
408.2604434169102
 30
0.0
 10
740.0497419995924
 20
408.4172369053892
 30
0.0
 10
739.8018883090261
 20
408.6971535091537
 30
0.0
 10
739.6900475479086
 20
409.0525493724112
 30
0.0
 10
739.6408536710915
 20
409.2088725245763
 30
0.0
  0
SPLINE
  5
180
330
1F
100
AcDbEntity
  8
0
  6
Continuous
 62
     7
370
    25
100
AcDbSpline
210
0.0
220
0.0
230
1.0
 70
     8
 71
     3
 72
     9
 73
     5
 74
     0
 42
0.000000001
 43
0.00000001
 40
0.0
 40
0.0
 40
0.0
 40
0.0
 40
0.5664068917553216
 40
0.9999999999999999
 40
0.9999999999999999
 40
0.9999999999999999
 40
0.9999999999999999
 10
741.3280823507484
 20
407.7047791159916
 30
0.0
 10
741.087294498705
 20
407.7598692306229
 30
0.0
 10
740.6621798760755
 20
407.8571316676326
 30
0.0
 10
740.33181819935
 20
408.1384609701789
 30
0.0
 10
740.1885756530937
 20
408.2604434169102
 30
0.0
  0
SPLINE
  5
181
330
1F
100
AcDbEntity
  8
0
  6
Continuous
 62
     7
370
    25
100
AcDbSpline
210
0.0
220
0.0
230
1.0
 70
     8
 71
     3
 72
     9
 73
     5
 74
     0
 42
0.000000001
 43
0.00000001
 40
0.0
 40
0.0
 40
0.0
 40
0.0
 40
0.684140073091323
 40
1.0
 40
1.0
 40
1.0
 40
1.0
 10
741.6350015678581
 20
407.7025439418126
 30
0.0
 10
741.5649603361767
 20
407.7003365168419
 30
0.0
 10
741.462581840257
 20
407.6971099481062
 30
0.0
 10
741.3603677012305
 20
407.7029382036284
 30
0.0
 10
741.3280823507484
 20
407.7047791159917
 30
0.0
  0
SPLINE
  5
182
330
1F
100
AcDbEntity
  8
0
  6
Continuous
 62
     7
370
    25
100
AcDbSpline
210
0.0
220
0.0
230
1.0
 70
     8
 71
     3
 72
     9
 73
     5
 74
     0
 42
0.000000001
 43
0.00000001
 40
0.0
 40
0.0
 40
0.0
 40
0.0
 40
0.5594619899186716
 40
1.0
 40
1.0
 40
1.0
 40
1.0
 10
734.1631570139107
 20
411.6580571807194
 30
0.0
 10
734.380691501506
 20
411.6446345698482
 30
0.0
 10
734.7695195032562
 20
411.620642571977
 30
0.0
 10
735.1061465462723
 20
411.4277534167777
 30
0.0
 10
735.2544435539421
 20
411.3427784121801
 30
0.0
  0
SPLINE
  5
183
330
1F
100
AcDbEntity
  8
0
  6
Continuous
 62
     7
370
    25
100
AcDbSpline
210
0.0
220
0.0
230
1.0
 70
     8
 71
     3
 72
     8
 73
     4
 74
     0
 42
0.000000001
 43
0.00000001
 40
0.0
 40
0.0
 40
0.0
 40
0.0
 40
1.0
 40
1.0
 40
1.0
 40
1.0
 10
730.8366404607551
 20
412.9088252162352
 30
0.0
 10
729.6161451007551
 20
411.1509335362351
 30
0.0
 10
728.6212122207552
 20
409.7028287362351
 30
0.0
 10
728.6256763007551
 20
409.6908147362352
 30
0.0
  0
LINE
  5
184
330
1F
100
AcDbEntity
  8
0
  6
Continuous
 62
     7
370
    25
100
AcDbLine
 10
733.0557176151
 20
416.1049809135
 30
0.0
 11
730.8366366902
 21
412.908830849
 31
0.0
  0
LINE
  5
185
330
1F
100
AcDbEntity
  8
0
  6
Continuous
 62
     7
370
    25
100
AcDbLine
 10
742.7001067677
 20
416.1049809135
 30
0.0
 11
733.0557176151
 21
416.1049809135
 31
0.0
  0
LINE
  5
186
330
1F
100
AcDbEntity
  8
0
  6
Continuous
 62
     7
370
    25
100
AcDbLine
 10
744.9190684834
 20
412.908830849
 30
0.0
 11
742.7001067677
 21
416.1049809135
 31
0.0
  0
SPLINE
  5
187
330
1F
100
AcDbEntity
  8
0
  6
Continuous
 62
     7
370
    25
100
AcDbSpline
210
0.0
220
0.0
230
1.0
 70
     8
 71
     3
 72
     8
 73
     4
 74
     0
 42
0.000000001
 43
0.00000001
 40
0.0
 40
0.0
 40
0.0
 40
0.0
 40
1.0
 40
1.0
 40
1.0
 40
1.0
 10
747.1380471807552
 20
409.7020752162351
 30
0.0
 10
747.1380366207552
 20
409.7078960162352
 30
0.0
 10
746.1394927807551
 20
411.1509335362351
 30
0.0
 10
744.9190651007551
 20
412.9088252162352
 30
0.0
  0
SPLINE
  5
188
330
1F
100
AcDbEntity
  8
0
  6
Continuous
 62
     7
370
    25
100
AcDbSpline
210
0.0
220
0.0
230
1.0
 70
     8
 71
     3
 72
    16
 73
    12
 74
     0
 42
0.000000001
 43
0.00000001
 40
0.0
 40
0.0
 40
0.0
 40
0.0
 40
0.3875929165883152
 40
0.7053288178901117
 40
0.9204022798640221
 40
0.994596486247189
 40
0.9996136365728426
 40
0.9999085352029762
 40
0.9999752689222835
 40
0.9999923576766964
 40
0.9999999999999999
 40
0.9999999999999999
 40
0.9999999999999999
 40
0.9999999999999999
 10
744.9190982856926
 20
406.4953114665318
 30
0.0
 10
745.2060299245837
 20
406.9093547996368
 30
0.0
 10
745.7281786662477
 20
407.6628172139266
 30
0.0
 10
746.4129592251584
 20
408.6448755304367
 30
0.0
 10
746.8546342418961
 20
409.2967476385364
 30
0.0
 10
747.0794922693558
 20
409.6086093038903
 30
0.0
 10
747.1335970870285
 20
409.6957359169884
 30
0.0
 10
747.1378298494199
 20
409.7014589237677
 30
0.0
 10
747.1379728956822
 20
409.7019274615854
 30
0.0
 10
747.1380481593102
 20
409.7020283441721
 30
0.0
 10
747.1380458223806
 20
409.7020610508507
 30
0.0
 10
747.1380451002296
 20
409.7020711577702
 30
0.0
  0
LINE
  5
189
330
1F
100
AcDbEntity
  8
0
  6
Continuous
 62
     7
370
    25
100
AcDbLine
 10
742.70013657
 20
403.2991614021
 30
0.0
 11
744.9190982857
 21
406.4953114665
 31
0.0
  0
SPLINE
  5
18A
330
1F
100
AcDbEntity
  8
0
  6
Continuous
 62
     7
370
    25
100
AcDbSpline
210
0.0
220
0.0
230
1.0
 70
     8
 71
     3
 72
     9
 73
     5
 74
     0
 42
0.000000001
 43
0.00000001
 40
0.0
 40
0.0
 40
0.0
 40
0.0
 40
0.5561874466229798
 40
0.9999999999999999
 40
0.9999999999999999
 40
0.9999999999999999
 40
0.9999999999999999
 10
742.9544248857674
 20
408.2604434169102
 30
0.0
 10
742.7376640673054
 20
408.086846757074
 30
0.0
 10
742.3479378701787
 20
407.7747277747234
 30
0.0
 10
741.8541505702601
 20
407.7247324808453
 30
0.0
 10
741.6350015678581
 20
407.7025439418126
 30
0.0
  0
LINE
  5
18B
330
1F
100
AcDbEntity
  8
0
  6
Continuous
 62
     7
370
    25
100
AcDbLine
 10
732.8762182274
 20
403.5584118045
 30
0.0
 11
733.0652543583
 21
403.2884921706
 31
0.0
  0
SPLINE
  5
18C
330
1F
100
AcDbEntity
  8
0
  6
Continuous
 62
     7
370
    25
100
AcDbSpline
210
0.0
220
0.0
230
1.0
 70
     8
 71
     3
 72
     8
 73
     4
 74
     0
 42
0.000000001
 43
0.00000001
 40
0.0
 40
0.0
 40
0.0
 40
0.0
 40
1.0
 40
1.0
 40
1.0
 40
1.0
 10
728.6256763007551
 20
409.6908147362352
 30
0.0
 10
728.6325089407552
 20
409.6724256162352
 30
0.0
 10
732.2996085407551
 20
404.3817759362352
 30
0.0
 10
732.8762244607551
 20
403.5584032162351
 30
0.0
  0
SPLINE
  5
18D
330
1F
100
AcDbEntity
  8
0
  6
Continuous
 62
     7
370
    25
100
AcDbSpline
210
0.0
220
0.0
230
1.0
 70
     8
 71
     3
 72
     8
 73
     4
 74
     0
 42
0.000000001
 43
0.00000001
 40
0.0
 40
0.0
 40
0.0
 40
0.0
 40
1.0
 40
1.0
 40
1.0
 40
1.0
 10
739.5943361407551
 20
409.6809085762352
 30
0.0
 10
739.5943361407551
 20
410.1054786562352
 30
0.0
 10
739.6856025407551
 20
410.4213706562352
 30
0.0
 10
739.9096242207552
 20
410.7721924162352
 30
0.0
  0
LINE
  5
18E
330
1F
100
AcDbEntity
  8
0
  6
Continuous
 62
     7
370
    25
100
AcDbLine
 10
737.8826954642
 20
403.2938267864
 30
0.0
 11
742.70013657
 21
403.2991614021
 31
0.0
  0
LINE
  5
18F
330
1F
100
AcDbEntity
  8
0
  6
Continuous
 62
     7
370
    25
100
AcDbLine
 10
733.0652543583
 20
403.2884921706
 30
0.0
 11
737.8826954642
 21
403.2938267864
 31
0.0
  0
LINE
  5
190
330
1F
100
AcDbEntity
  8
0
  6
Continuous
 62
     7
370
    25
100
AcDbLine
 10
706.8793320337
 20
404.3045725501
 30
0.0
 11
720.2704319039
 21
404.3045725501
 31
0.0
  0
LINE
  5
191
330
1F
100
AcDbEntity
  8
0
  6
Continuous
 62
     7
370
    25
100
AcDbLine
 10
706.8793320337
 20
419.7985615409
 30
0.0
 11
706.8793320337
 21
404.3045725501
 31
0.0
  0
LINE
  5
192
330
1F
100
AcDbEntity
  8
0
  6
Continuous
 62
     7
370
    25
100
AcDbLine
 10
719.8683836737
 20
419.7985615409
 30
0.0
 11
706.8793320337
 21
419.7985615409
 31
0.0
  0
LINE
  5
193
330
1F
100
AcDbEntity
  8
0
  6
Continuous
 62
     7
370
    25
100
AcDbLine
 10
720.5387720146
 20
419.0246846355
 30
0.0
 11
719.8683836737
 21
419.7985615409
 31
0.0
  0
LINE
  5
194
330
1F
100
AcDbEntity
  8
0
  6
Continuous
 62
     7
370
    25
100
AcDbLine
 10
721.2091603556
 20
418.2508375324
 30
0.0
 11
720.5387720146
 21
419.0246846355
 31
0.0
  0
LINE
  5
195
330
1F
100
AcDbEntity
  8
0
  6
Continuous
 62
     7
370
    25
100
AcDbLine
 10
721.2091603556
 20
415.1656713165
 30
0.0
 11
721.2091603556
 21
418.2508375324
 31
0.0
  0
LINE
  5
196
330
1F
100
AcDbEntity
  8
0
  6
Continuous
 62
     7
370
    25
100
AcDbLine
 10
720.5387720146
 20
414.391794411
 30
0.0
 11
721.2091603556
 21
415.1656713165
 31
0.0
  0
LINE
  5
197
330
1F
100
AcDbEntity
  8
0
  6
Continuous
 62
     7
370
    25
100
AcDbLine
 10
719.8683836737
 20
413.6179175056
 30
0.0
 11
720.5387720146
 21
414.391794411
 31
0.0
  0
LINE
  5
198
330
1F
100
AcDbEntity
  8
0
  6
Continuous
 62
     7
370
    25
100
AcDbLine
 10
708.2128294983
 20
413.6179175056
 30
0.0
 11
719.8683836737
 21
413.6179175056
 31
0.0
  0
LINE
  5
199
330
1F
100
AcDbEntity
  8
0
  6
Continuous
 62
     7
370
    25
100
AcDbLine
 10
708.2128294983
 20
410.5064060367
 30
0.0
 11
708.2128294983
 21
413.6179175056
 31
0.0
  0
LINE
  5
19A
330
1F
100
AcDbEntity
  8
0
  6
Continuous
 62
     7
370
    25
100
AcDbLine
 10
721.611327795
 20
408.9541222728
 30
0.0
 11
720.2704319039
 21
410.5064060367
 31
0.0
  0
LINE
  5
19B
330
1F
100
AcDbEntity
  8
0
  6
Continuous
 62
     7
370
    25
100
AcDbLine
 10
721.611327795
 20
405.856856314
 30
0.0
 11
721.611327795
 21
408.9541222728
 31
0.0
  0
LINE
  5
19C
330
1F
100
AcDbEntity
  8
0
  6
Continuous
 62
     7
370
    25
100
AcDbLine
 10
720.2704319039
 20
404.3045725501
 30
0.0
 11
721.611327795
 21
405.856856314
 31
0.0
  0
LINE
  5
19D
330
1F
100
AcDbEntity
  8
0
  6
Continuous
 62
     7
370
    25
100
AcDbLine
 10
720.2704319039
 20
410.5064060367
 30
0.0
 11
708.2128294983
 21
410.5064060367
 31
0.0
  0
CIRCLE
  5
19E
330
1F
100
AcDbEntity
  8
0
  6
Continuous
 62
     7
370
    25
100
AcDbCircle
 10
70.6304561155
 20
51.7733428143
 30
0.0
 40
5.0
  0
CIRCLE
  5
19F
330
1F
100
AcDbEntity
  8
0
  6
Continuous
 62
     7
370
    25
100
AcDbCircle
 10
60.6804561155
 20
60.7233428143
 30
0.0
 40
1.5
  0
CIRCLE
  5
1A0
330
1F
100
AcDbEntity
  8
0
  6
Continuous
 62
     7
370
    25
100
AcDbCircle
 10
80.5804561155
 20
60.7233428143
 30
0.0
 40
1.5
  0
CIRCLE
  5
1A1
330
1F
100
AcDbEntity
  8
0
  6
Continuous
 62
     7
370
    25
100
AcDbCircle
 10
80.5804561155
 20
42.8233428143
 30
0.0
 40
1.5
  0
CIRCLE
  5
1A2
330
1F
100
AcDbEntity
  8
0
  6
Continuous
 62
     7
370
    25
100
AcDbCircle
 10
60.6804561155
 20
42.8233428143
 30
0.0
 40
1.5
  0
LINE
  5
1A3
330
1F
100
AcDbEntity
  8
0
  6
Continuous
 62
     7
370
    25
100
AcDbLine
 10
110.8505148547
 20
101.7733443044
 30
0.0
 11
30.4103978085
 21
101.7733443044
 31
0.0
  0
LINE
  5
1A4
330
1F
100
AcDbEntity
  8
0
  6
Continuous
 62
     7
370
    25
100
AcDbLine
 10
140.130454685
 20
1.7733428143
 30
0.0
 11
110.8505148547
 21
101.7733443044
 31
0.0
  0
LINE
  5
1A5
330
1F
100
AcDbEntity
  8
0
  6
Continuous
 62
     7
370
    25
100
AcDbLine
 10
1.1304561155
 20
1.7733428143
 30
0.0
 11
140.130454685
 21
1.7733428143
 31
0.0
  0
LINE
  5
1A6
330
1F
100
AcDbEntity
  8
0
  6
Continuous
 62
     7
370
    25
100
AcDbLine
 10
30.4103978085
 20
101.7733443044
 30
0.0
 11
1.1304561155
 21
1.7733428143
 31
0.0
  0
LINE
  5
1A7
330
1F
100
AcDbEntity
  8
0
  6
Continuous
 62
     7
370
    25
100
AcDbLine
 10
112.7177774779
 20
101.7733428143
 30
0.0
 11
251.7177760474
 21
101.7733428143
 31
0.0
  0
LINE
  5
1A8
330
1F
100
AcDbEntity
  8
0
  6
Continuous
 62
     7
370
    25
100
AcDbLine
 10
251.7177760474
 20
101.7733428143
 30
0.0
 11
222.4378362171
 21
1.7733413242
 31
0.0
  0
LINE
  5
1A9
330
1F
100
AcDbEntity
  8
0
  6
Continuous
 62
     7
370
    25
100
AcDbLine
 10
222.4378362171
 20
1.7733413242
 30
0.0
 11
141.9977191708
 21
1.7733413242
 31
0.0
  0
LINE
  5
1AA
330
1F
100
AcDbEntity
  8
0
  6
Continuous
 62
     7
370
    25
100
AcDbLine
 10
141.9977191708
 20
1.7733413242
 30
0.0
 11
112.7177774779
 21
101.7733428143
 31
0.0
  0
CIRCLE
  5
1AB
330
1F
100
AcDbEntity
  8
0
  6
Continuous
 62
     7
370
    25
100
AcDbCircle
 10
182.2177774779
 20
51.7733428143
 30
0.0
 40
5.000000000000007
  0
CIRCLE
  5
1AC
330
1F
100
AcDbEntity
  8
0
  6
Continuous
 62
     7
370
    25
100
AcDbCircle
 10
172.2677774779
 20
42.8233428143
 30
0.0
 40
1.5
  0
CIRCLE
  5
1AD
330
1F
100
AcDbEntity
  8
0
  6
Continuous
 62
     7
370
    25
100
AcDbCircle
 10
192.1677774779
 20
42.8233428143
 30
0.0
 40
1.5
  0
CIRCLE
  5
1AE
330
1F
100
AcDbEntity
  8
0
  6
Continuous
 62
     7
370
    25
100
AcDbCircle
 10
192.1677774779
 20
60.7233428143
 30
0.0
 40
1.5
  0
CIRCLE
  5
1AF
330
1F
100
AcDbEntity
  8
0
  6
Continuous
 62
     7
370
    25
100
AcDbCircle
 10
172.2677774779
 20
60.7233428143
 30
0.0
 40
1.5
  0
LINE
  5
1B0
330
1F
100
AcDbEntity
  8
0
  6
Continuous
 62
     7
370
    25
100
AcDbLine
 10
334.6841272257
 20
101.4628605604
 30
0.0
 11
473.6841257952
 21
101.4628605604
 31
0.0
  0
LINE
  5
1B1
330
1F
100
AcDbEntity
  8
0
  6
Continuous
 62
     7
370
    25
100
AcDbLine
 10
473.6841257952
 20
101.4628605604
 30
0.0
 11
444.4041859649
 21
1.4628590703
 31
0.0
  0
LINE
  5
1B2
330
1F
100
AcDbEntity
  8
0
  6
Continuous
 62
     7
370
    25
100
AcDbLine
 10
444.4041859649
 20
1.4628590703
 30
0.0
 11
363.9640689186
 21
1.4628590703
 31
0.0
  0
LINE
  5
1B3
330
1F
100
AcDbEntity
  8
0
  6
Continuous
 62
     7
370
    25
100
AcDbLine
 10
363.9640689186
 20
1.4628590703
 30
0.0
 11
334.6841272257
 21
101.4628605604
 31
0.0
  0
CIRCLE
  5
1B4
330
1F
100
AcDbEntity
  8
0
  6
Continuous
 62
     7
370
    25
100
AcDbCircle
 10
404.1841272257
 20
51.4628605604
 30
0.0
 40
5.0
  0
CIRCLE
  5
1B5
330
1F
100
AcDbEntity
  8
0
  6
Continuous
 62
     7
370
    25
100
AcDbCircle
 10
394.2341272257
 20
42.5128605604
 30
0.0
 40
1.5
  0
CIRCLE
  5
1B6
330
1F
100
AcDbEntity
  8
0
  6
Continuous
 62
     7
370
    25
100
AcDbCircle
 10
414.1341272257
 20
42.5128605604
 30
0.0
 40
1.5
  0
CIRCLE
  5
1B7
330
1F
100
AcDbEntity
  8
0
  6
Continuous
 62
     7
370
    25
100
AcDbCircle
 10
414.1341272257
 20
60.4128605604
 30
0.0
 40
1.5
  0
CIRCLE
  5
1B8
330
1F
100
AcDbEntity
  8
0
  6
Continuous
 62
     7
370
    25
100
AcDbCircle
 10
394.2341272257
 20
60.4128605604
 30
0.0
 40
1.5
  0
CIRCLE
  5
1B9
330
1F
100
AcDbEntity
  8
0
  6
Continuous
 62
     7
370
    25
100
AcDbCircle
 10
293.3202502633
 20
51.57968574
 30
0.0
 40
5.000000000000007
  0
CIRCLE
  5
1BA
330
1F
100
AcDbEntity
  8
0
  6
Continuous
 62
     7
370
    25
100
AcDbCircle
 10
283.3702502633
 20
60.52968574
 30
0.0
 40
1.5
  0
CIRCLE
  5
1BB
330
1F
100
AcDbEntity
  8
0
  6
Continuous
 62
     7
370
    25
100
AcDbCircle
 10
303.2702502633
 20
60.52968574
 30
0.0
 40
1.5
  0
CIRCLE
  5
1BC
330
1F
100
AcDbEntity
  8
0
  6
Continuous
 62
     7
370
    25
100
AcDbCircle
 10
303.2702502633
 20
42.62968574
 30
0.0
 40
1.5
  0
CIRCLE
  5
1BD
330
1F
100
AcDbEntity
  8
0
  6
Continuous
 62
     7
370
    25
100
AcDbCircle
 10
283.3702502633
 20
42.62968574
 30
0.0
 40
1.5
  0
LINE
  5
1BE
330
1F
100
AcDbEntity
  8
0
  6
Continuous
 62
     7
370
    25
100
AcDbLine
 10
333.5403090025
 20
101.5796872302
 30
0.0
 11
253.1001919562
 21
101.5796872302
 31
0.0
  0
LINE
  5
1BF
330
1F
100
AcDbEntity
  8
0
  6
Continuous
 62
     7
370
    25
100
AcDbLine
 10
362.8202488328
 20
1.57968574
 30
0.0
 11
333.5403090025
 21
101.5796872302
 31
0.0
  0
LINE
  5
1C0
330
1F
100
AcDbEntity
  8
0
  6
Continuous
 62
     7
370
    25
100
AcDbLine
 10
223.8202502633
 20
1.57968574
 30
0.0
 11
362.8202488328
 21
1.57968574
 31
0.0
  0
LINE
  5
1C1
330
1F
100
AcDbEntity
  8
0
  6
Continuous
 62
     7
370
    25
100
AcDbLine
 10
253.1001919562
 20
101.5796872302
 30
0.0
 11
223.8202502633
 21
1.57968574
 31
0.0
  0
LINE
  5
1C2
330
1F
100
AcDbEntity
  8
0
  6
Continuous
 62
     7
370
    25
100
AcDbLine
 10
609.9012299583
 20
101.1710409914
 30
0.0
 11
475.2611118511
 21
101.1710409914
 31
0.0
  0
LINE
  5
1C3
330
1F
100
AcDbEntity
  8
0
  6
Continuous
 62
     7
370
    25
100
AcDbLine
 10
639.1811772392
 20
1.1710395012
 30
0.0
 11
609.9012299583
 21
101.1710409914
 31
0.0
  0
LINE
  5
1C4
330
1F
100
AcDbEntity
  8
0
  6
Continuous
 62
     7
370
    25
100
AcDbLine
 10
445.9811701582
 20
1.1710395012
 30
0.0
 11
639.1811772392
 21
1.1710395012
 31
0.0
  0
LINE
  5
1C5
330
1F
100
AcDbEntity
  8
0
  6
Continuous
 62
     7
370
    25
100
AcDbLine
 10
475.2611118511
 20
101.1710409914
 30
0.0
 11
445.9811701582
 21
1.1710395012
 31
0.0
  0
CIRCLE
  5
1C6
330
1F
100
AcDbEntity
  8
0
  6
Continuous
 62
     7
370
    25
100
AcDbCircle
 10
542.5811700867
 20
51.1710395012
 30
0.0
 40
5.000000000000007
  0
CIRCLE
  5
1C7
330
1F
100
AcDbEntity
  8
0
  6
Continuous
 62
     7
370
    25
100
AcDbCircle
 10
532.6311700867
 20
42.2210395012
 30
0.0
 40
1.5
  0
CIRCLE
  5
1C8
330
1F
100
AcDbEntity
  8
0
  6
Continuous
 62
     7
370
    25
100
AcDbCircle
 10
552.5311700867
 20
60.1210395012
 30
0.0
 40
1.5
  0
CIRCLE
  5
1C9
330
1F
100
AcDbEntity
  8
0
  6
Continuous
 62
     7
370
    25
100
AcDbCircle
 10
552.5311700867
 20
42.2210395012
 30
0.0
 40
1.5
  0
CIRCLE
  5
1CA
330
1F
100
AcDbEntity
  8
0
  6
Continuous
 62
     7
370
    25
100
AcDbCircle
 10
532.6311700867
 20
60.1210395012
 30
0.0
 40
1.5
  0
ARC
  5
1CB
330
1F
100
AcDbEntity
  8
0
  6
Continuous
 62
     7
370
    25
100
AcDbCircle
 10
697.7515707041
 20
6.5909253856
 30
0.0
 40
1.50000000000002
100
AcDbArc
 50
41.9704543181
 51
221.9723622363
  0
ARC
  5
1CC
330
1F
100
AcDbEntity
  8
0
  6
Continuous
 62
     7
370
    25
100
AcDbCircle
 10
697.7516041083
 20
6.5908882492
 30
0.0
 40
1.49999999999998
100
AcDbArc
 50
221.9704543022
 51
41.9723622522
  0
ARC
  5
1CD
330
1F
100
AcDbEntity
  8
0
  6
Continuous
 62
     7
370
    25
100
AcDbCircle
 10
697.7515707041
 20
24.4909253856
 30
0.0
 40
1.500000000000062
100
AcDbArc
 50
318.027851655
 51
138.0297595733
  0
ARC
  5
1CE
330
1F
100
AcDbEntity
  8
0
  6
Continuous
 62
     7
370
    25
100
AcDbCircle
 10
697.7515372999
 20
24.4908882491
 30
0.0
 40
1.500000000000083
100
AcDbArc
 50
138.0278516391
 51
318.0297595892
  0
ELLIPSE
  5
1CF
330
1F
100
AcDbEntity
  8
0
  6
Continuous
 62
     7
370
    25
100
AcDbEllipse
 10
675.2015707041
 20
53.2803247843
 30
0.0
 11
0.0
 21
20.51559542880148
 31
1.554312234475219E-15
210
0.0
220
-7.576247249900182E-17
230
1.0
 40
0.7067793889
 41
0.0
 42
1.570796326794897
  0
LINE
  5
1D0
330
1F
100
AcDbEntity
  8
0
  6
Continuous
 62
     7
370
    25
100
AcDbLine
 10
740.2015656019
 20
73.7959220206
 30
0.0
 11
675.2015679861
 21
73.7959220206
 31
0.0
  0
ELLIPSE
  5
1D1
330
1F
100
AcDbEntity
  8
0
  6
Continuous
 62
     7
370
    25
100
AcDbEllipse
 10
740.2015707041
 20
53.2803247843
 30
0.0
 11
-1.136868377216160E-13
 21
-20.51559542880144
 31
0.0
210
0.0
220
0.0
230
1.0
 40
0.7067793889
 41
1.570796326794901
 42
3.141592653589821
  0
ELLIPSE
  5
1D2
330
1F
100
AcDbEntity
  8
0
  6
Continuous
 62
     7
370
    25
100
AcDbEllipse
 10
740.2015707041
 20
53.2803247843
 30
0.0
 11
0.0
 21
20.51559542880147
 31
1.776356839400250E-15
210
0.0
220
-8.658568285600211E-17
230
1.0
 40
0.7067793889
 41
4.639140668047617
 42
4.7123889803847
  0
ELLIPSE
  5
1D3
330
1F
100
AcDbEntity
  8
0
  6
Continuous
 62
     7
370
    25
100
AcDbEllipse
 10
740.2015707041
 20
50.2775461249
 30
0.0
 11
0.0
 21
-20.51559542880148
 31
0.0
210
0.0
220
0.0
230
1.0
 40
0.7067793889
 41
0.0
 42
1.644044639132148
  0
LINE
  5
1D4
330
1F
100
AcDbEntity
  8
0
  6
Continuous
 62
     7
370
    25
100
AcDbLine
 10
675.2015679861
 20
29.7619513368
 30
0.0
 11
740.2015656019
 21
29.7619513368
 31
0.0
  0
ELLIPSE
  5
1D5
330
1F
100
AcDbEntity
  8
0
  6
Continuous
 62
     7
370
    25
100
AcDbEllipse
 10
675.2015707041
 20
50.2775461249
 30
0.0
 11
1.136868377216160E-13
 21
-20.51559542880147
 31
0.0
210
0.0
220
0.0
230
1.0
 40
0.7067793889
 41
4.639140668047531
 42
6.283185307179586
  0
ELLIPSE
  5
1D6
330
1F
100
AcDbEntity
  8
0
  6
Continuous
 62
     7
370
    25
100
AcDbEllipse
 10
675.2015707041
 20
53.2803247843
 30
0.0
 11
0.0
 21
20.51559542880148
 31
1.554312234475219E-15
210
0.0
220
-7.576247249900182E-17
230
1.0
 40
0.7067793889
 41
1.570796326794897
 42
1.644044639132064
  0
CIRCLE
  5
1D7
330
1F
100
AcDbEntity
  8
0
  6
Continuous
 62
     7
370
    25
100
AcDbCircle
 10
707.7015707041
 20
15.5409253856
 30
0.0
 40
5.000000000000004
  0
LINE
  5
1D8
330
1F
100
AcDbEntity
  8
0
  6
Continuous
 62
     7
370
    25
100
AcDbLine
 10
640.381512397
 20
1.3199000752
 30
0.0
 11
611.1015707041
 21
101.3199015653
 31
0.0
  0
LINE
  5
1D9
330
1F
100
AcDbEntity
  8
0
  6
Continuous
 62
     7
370
    25
100
AcDbLine
 10
775.0216305042
 20
1.3199000752
 30
0.0
 11
640.381512397
 21
1.3199000752
 31
0.0
  0
LINE
  5
1DA
330
1F
100
AcDbEntity
  8
0
  6
Continuous
 62
     7
370
    25
100
AcDbLine
 10
804.3015777851
 20
101.3199015653
 30
0.0
 11
775.0216305042
 21
1.3199000752
 31
0.0
  0
LINE
  5
1DB
330
1F
100
AcDbEntity
  8
0
  6
Continuous
 62
     7
370
    25
100
AcDbLine
 10
611.1015707041
 20
101.3199015653
 30
0.0
 11
804.3015777851
 21
101.3199015653
 31
0.0
  0
ARC
  5
1DC
330
1F
100
AcDbEntity
  8
0
  6
Continuous
 62
     7
370
    25
100
AcDbCircle
 10
717.6515707041
 20
6.5909253856
 30
0.0
 40
1.500000000000012
100
AcDbArc
 50
138.0278513853
 51
318.0297593035
  0
ARC
  5
1DD
330
1F
100
AcDbEntity
  8
0
  6
Continuous
 62
     7
370
    25
100
AcDbCircle
 10
717.6516041082
 20
6.5909625222
 30
0.0
 40
1.499999999999983
100
AcDbArc
 50
318.0278513694
 51
138.0297593195
  0
ARC
  5
1DE
330
1F
100
AcDbEntity
  8
0
  6
Continuous
 62
     7
370
    25
100
AcDbCircle
 10
717.6515707041
 20
24.4909253856
 30
0.0
 40
1.500000000000077
100
AcDbArc
 50
221.9704544174
 51
41.9723623356
  0
ARC
  5
1DF
330
1F
100
AcDbEntity
  8
0
  6
Continuous
 62
     7
370
    25
100
AcDbCircle
 10
717.6515372998
 20
24.4909625221
 30
0.0
 40
1.500000000000037
100
AcDbArc
 50
41.9704544015
 51
221.9723623516
  0
MTEXT
  5
1E1
330
1F
100
AcDbEntity
  8
0
  6
Continuous
 62
     7
100
AcDbMText
 10
0.0
 20
22.0602986318
 30
0.0
 40
7.90956
 41
0.0
 71
     1
 72
     1
  1
SOLIDWORKS Educational Product.
  7
SLDTEXTSTYLE0
 73
     1
 44
1.0
  0
MTEXT
  5
1E2
330
1F
100
AcDbEntity
  8
0
  6
Continuous
 62
     7
100
AcDbMText
 10
0.0
 20
10.1959586318
 30
0.0
 40
7.90956
 41
0.0
 71
     1
 72
     1
  1
For Instructional Use Only.
  7
SLDTEXTSTYLE0
 73
     1
 44
1.0
  0
ENDSEC
  0
SECTION
  2
OBJECTS
  0
DICTIONARY
  5
C
330
0
100
AcDbDictionary
281
     1
  3
ACAD_GROUP
350
D
  3
ACAD_LAYOUT
350
1A
  3
ACAD_MLINESTYLE
350
17
  3
ACAD_PLOTSETTINGS
350
19
  3
ACAD_PLOTSTYLENAME
350
E
  3
ACAD_SCALELIST
350
47
  0
DICTIONARY
  5
D
102
{ACAD_REACTORS
330
C
102
}
330
C
100
AcDbDictionary
281
     1
  0
DICTIONARY
  5
1A
102
{ACAD_REACTORS
330
C
102
}
330
C
100
AcDbDictionary
281
     1
  3
Layout1
350
1E
  3
Layout2
350
26
  3
Model
350
22
  0
DICTIONARY
  5
17
102
{ACAD_REACTORS
330
C
102
}
330
C
100
AcDbDictionary
281
     1
  3
Standard
350
18
  0
DICTIONARY
  5
19
102
{ACAD_REACTORS
330
C
102
}
330
C
100
AcDbDictionary
281
     1
  0
ACDBDICTIONARYWDFLT
  5
E
102
{ACAD_REACTORS
330
C
102
}
330
C
100
AcDbDictionary
281
     1
  3
Normal
350
F
100
AcDbDictionaryWithDefault
340
F
  0
DICTIONARY
  5
47
102
{ACAD_REACTORS
330
C
102
}
330
C
100
AcDbDictionary
281
     1
  3
A0
350
48
  3
A1
350
49
  3
A2
350
4A
  3
A3
350
4B
  3
A4
350
4C
  3
A5
350
4D
  3
A6
350
4E
  3
A7
350
4F
  3
A8
350
50
  3
A9
350
51
  3
B0
350
52
  3
B1
350
53
  3
B2
350
54
  3
B3
350
55
  3
B4
350
56
  3
B5
350
57
  3
B6
350
58
  3
B7
350
59
  3
B8
350
5A
  3
B9
350
5B
  3
C0
350
5C
  3
C1
350
5D
  3
C2
350
5E
  3
C3
350
5F
  3
C4
350
60
  3
C5
350
61
  3
C6
350
62
  3
C7
350
63
  3
C8
350
64
  3
C9
350
65
  3
D0
350
66
  3
D1
350
67
  3
D2
350
68
  0
LAYOUT
  5
1E
102
{ACAD_REACTORS
330
1A
102
}
330
1A
100
AcDbPlotSettings
  1

  2
none_device
  4

  6

 40
0.0
 41
0.0
 42
0.0
 43
0.0
 44
0.0
 45
0.0
 46
0.0
 47
0.0
 48
0.0
 49
0.0
140
0.0
141
0.0
142
1.0
143
1.0
 70
   688
 72
     1
 73
     0
 74
     5
  7

 75
    16
147
1.0
148
0.0
149
0.0
100
AcDbLayout
  1
Layout1
 70
     1
 71
     1
 10
0.0
 20
0.0
 11
420.0
 21
297.0
 12
0.0
 22
0.0
 32
0.0
 14
1.0000000000E+20
 24
1.0000000000E+20
 34
1.0000000000E+20
 15
-1.0000000000E+20
 25
-1.0000000000E+20
 35
-1.0000000000E+20
146
0.0
 13
0.0
 23
0.0
 33
0.0
 16
1.0
 26
0.0
 36
0.0
 17
0.0
 27
1.0
 37
0.0
 76
     0
330
1B
  0
LAYOUT
  5
26
102
{ACAD_REACTORS
330
1A
102
}
330
1A
100
AcDbPlotSettings
  1

  2
none_device
  4

  6

 40
0.0
 41
0.0
 42
0.0
 43
0.0
 44
0.0
 45
0.0
 46
0.0
 47
0.0
 48
0.0
 49
0.0
140
0.0
141
0.0
142
1.0
143
1.0
 70
   688
 72
     1
 73
     0
 74
     5
  7

 75
    16
147
1.0
148
0.0
149
0.0
100
AcDbLayout
  1
Layout2
 70
     1
 71
     2
 10
0.0
 20
0.0
 11
0.0
 21
0.0
 12
0.0
 22
0.0
 32
0.0
 14
0.0
 24
0.0
 34
0.0
 15
0.0
 25
0.0
 35
0.0
146
0.0
 13
0.0
 23
0.0
 33
0.0
 16
1.0
 26
0.0
 36
0.0
 17
0.0
 27
1.0
 37
0.0
 76
     0
330
23
  0
LAYOUT
  5
22
102
{ACAD_REACTORS
330
1A
102
}
330
1A
100
AcDbPlotSettings
  1

  2
none_device
  4
Letter_(8.50_x_11.00_Inches)
  6

 40
6.35
 41
6.35
 42
6.35000508
 43
6.35000508
 44
215.9
 45
279.4
 46
0.0
 47
0.0
 48
0.0
 49
0.0
140
0.0
141
0.0
142
1.0
143
1.0
 70
  1712
 72
     1
 73
     0
 74
     0
  7

 75
     0
147
1.0
148
0.0
149
0.0
100
AcDbLayout
  1
Model
 70
     1
 71
     0
 10
0.0
 20
0.0
 11
812.8
 21
457.2
 12
0.0
 22
0.0
 32
0.0
 14
0.0
 24
0.0
 34
0.0
 15
812.8
 25
457.2
 35
0.0
146
0.0
 13
0.0
 23
0.0
 33
0.0
 16
1.0
 26
0.0
 36
0.0
 17
0.0
 27
1.0
 37
0.0
 76
     0
330
1F
331
29
  0
MLINESTYLE
  5
18
102
{ACAD_REACTORS
330
17
102
}
330
17
100
AcDbMlineStyle
  2
Standard
 70
     0
  3

 62
   256
 51
90.0
 52
90.0
 71
     2
 49
0.5
 62
   256
  6
BYLAYER
 49
-0.5
 62
   256
  6
BYLAYER
  0
ACDBPLACEHOLDER
  5
F
102
{ACAD_REACTORS
330
E
102
}
330
E
  0
SCALE
  5
48
102
{ACAD_REACTORS
330
47
102
}
330
47
100
AcDbScale
 70
     0
300
1:1
140
1.0
141
1.0
290
     1
  0
SCALE
  5
49
102
{ACAD_REACTORS
330
47
102
}
330
47
100
AcDbScale
 70
     0
300
1:2
140
1.0
141
2.0
290
     0
  0
SCALE
  5
4A
102
{ACAD_REACTORS
330
47
102
}
330
47
100
AcDbScale
 70
     0
300
1:4
140
1.0
141
4.0
290
     0
  0
SCALE
  5
4B
102
{ACAD_REACTORS
330
47
102
}
330
47
100
AcDbScale
 70
     0
300
1:5
140
1.0
141
5.0
290
     0
  0
SCALE
  5
4C
102
{ACAD_REACTORS
330
47
102
}
330
47
100
AcDbScale
 70
     0
300
1:8
140
1.0
141
8.0
290
     0
  0
SCALE
  5
4D
102
{ACAD_REACTORS
330
47
102
}
330
47
100
AcDbScale
 70
     0
300
1:10
140
1.0
141
10.0
290
     0
  0
SCALE
  5
4E
102
{ACAD_REACTORS
330
47
102
}
330
47
100
AcDbScale
 70
     0
300
1:16
140
1.0
141
16.0
290
     0
  0
SCALE
  5
4F
102
{ACAD_REACTORS
330
47
102
}
330
47
100
AcDbScale
 70
     0
300
1:20
140
1.0
141
20.0
290
     0
  0
SCALE
  5
50
102
{ACAD_REACTORS
330
47
102
}
330
47
100
AcDbScale
 70
     0
300
1:30
140
1.0
141
30.0
290
     0
  0
SCALE
  5
51
102
{ACAD_REACTORS
330
47
102
}
330
47
100
AcDbScale
 70
     0
300
1:40
140
1.0
141
40.0
290
     0
  0
SCALE
  5
52
102
{ACAD_REACTORS
330
47
102
}
330
47
100
AcDbScale
 70
     0
300
1:50
140
1.0
141
50.0
290
     0
  0
SCALE
  5
53
102
{ACAD_REACTORS
330
47
102
}
330
47
100
AcDbScale
 70
     0
300
1:100
140
1.0
141
100.0
290
     0
  0
SCALE
  5
54
102
{ACAD_REACTORS
330
47
102
}
330
47
100
AcDbScale
 70
     0
300
2:1
140
2.0
141
1.0
290
     0
  0
SCALE
  5
55
102
{ACAD_REACTORS
330
47
102
}
330
47
100
AcDbScale
 70
     0
300
4:1
140
4.0
141
1.0
290
     0
  0
SCALE
  5
56
102
{ACAD_REACTORS
330
47
102
}
330
47
100
AcDbScale
 70
     0
300
8:1
140
8.0
141
1.0
290
     0
  0
SCALE
  5
57
102
{ACAD_REACTORS
330
47
102
}
330
47
100
AcDbScale
 70
     0
300
10:1
140
10.0
141
1.0
290
     0
  0
SCALE
  5
58
102
{ACAD_REACTORS
330
47
102
}
330
47
100
AcDbScale
 70
     0
300
100:1
140
100.0
141
1.0
290
     0
  0
SCALE
  5
59
102
{ACAD_REACTORS
330
47
102
}
330
47
100
AcDbScale
 70
     0
300
1/128" = 1'-0"
140
0.0078125
141
12.0
290
     0
  0
SCALE
  5
5A
102
{ACAD_REACTORS
330
47
102
}
330
47
100
AcDbScale
 70
     0
300
1/64" = 1'-0"
140
0.015625
141
12.0
290
     0
  0
SCALE
  5
5B
102
{ACAD_REACTORS
330
47
102
}
330
47
100
AcDbScale
 70
     0
300
1/32" = 1'-0"
140
0.03125
141
12.0
290
     0
  0
SCALE
  5
5C
102
{ACAD_REACTORS
330
47
102
}
330
47
100
AcDbScale
 70
     0
300
1/16" = 1'-0"
140
0.0625
141
12.0
290
     0
  0
SCALE
  5
5D
102
{ACAD_REACTORS
330
47
102
}
330
47
100
AcDbScale
 70
     0
300
3/32" = 1'-0"
140
0.09375
141
12.0
290
     0
  0
SCALE
  5
5E
102
{ACAD_REACTORS
330
47
102
}
330
47
100
AcDbScale
 70
     0
300
1/8" = 1'-0"
140
0.125
141
12.0
290
     0
  0
SCALE
  5
5F
102
{ACAD_REACTORS
330
47
102
}
330
47
100
AcDbScale
 70
     0
300
3/16" = 1'-0"
140
0.1875
141
12.0
290
     0
  0
SCALE
  5
60
102
{ACAD_REACTORS
330
47
102
}
330
47
100
AcDbScale
 70
     0
300
1/4" = 1'-0"
140
0.25
141
12.0
290
     0
  0
SCALE
  5
61
102
{ACAD_REACTORS
330
47
102
}
330
47
100
AcDbScale
 70
     0
300
3/8" = 1'-0"
140
0.375
141
12.0
290
     0
  0
SCALE
  5
62
102
{ACAD_REACTORS
330
47
102
}
330
47
100
AcDbScale
 70
     0
300
1/2" = 1'-0"
140
0.5
141
12.0
290
     0
  0
SCALE
  5
63
102
{ACAD_REACTORS
330
47
102
}
330
47
100
AcDbScale
 70
     0
300
3/4" = 1'-0"
140
0.75
141
12.0
290
     0
  0
SCALE
  5
64
102
{ACAD_REACTORS
330
47
102
}
330
47
100
AcDbScale
 70
     0
300
1" = 1'-0"
140
1.0
141
12.0
290
     0
  0
SCALE
  5
65
102
{ACAD_REACTORS
330
47
102
}
330
47
100
AcDbScale
 70
     0
300
1-1/2" = 1'-0"
140
1.5
141
12.0
290
     0
  0
SCALE
  5
66
102
{ACAD_REACTORS
330
47
102
}
330
47
100
AcDbScale
 70
     0
300
3" = 1'-0"
140
3.0
141
12.0
290
     0
  0
SCALE
  5
67
102
{ACAD_REACTORS
330
47
102
}
330
47
100
AcDbScale
 70
     0
300
6" = 1'-0"
140
6.0
141
12.0
290
     0
  0
SCALE
  5
68
102
{ACAD_REACTORS
330
47
102
}
330
47
100
AcDbScale
 70
     0
300
1'-0" = 1'-0"
140
12.0
141
12.0
290
     0
  0
ENDSEC
  0
EOF
