  0
SECTION
  2
HEADER
  9
$ACADVER
  1
AC1014
  9
$HANDSEED
  5
FFFF
  9
$MEASUREMENT
 70
     1
  0
ENDSEC
  0
SECTION
  2
TABLES
  0
TABLE
  2
VPORT
  5
8
330
0
100
AcDbSymbolTable
 70
     4
  0
VPORT
  5
2E
330
8
100
AcDbSymbolTableRecord
100
AcDbViewportTableRecord
  2
*ACTIVE
 70
     0
 10
0.0
 20
0.0
 11
1.0
 21
1.0
 12
210.0
 22
148.5
 13
0.0
 23
0.0
 14
10.0
 24
10.0
 15
10.0
 25
10.0
 16
0.0
 26
0.0
 36
1.0
 17
0.0
 27
0.0
 37
0.0
 40
341.0
 41
1.24
 42
50.0
 43
0.0
 44
0.0
 50
0.0
 51
0.0
 71
     0
 72
   100
 73
     1
 74
     3
 75
     0
 76
     0
 77
     0
 78
     0
  0
ENDTAB
  0
TABLE
  2
LTYPE
  5
5
330
0
100
AcDbSymbolTable
 70
     1
  0
LTYPE
  5
14
330
5
100
AcDbSymbolTableRecord
100
AcDbLinetypeTableRecord
  2
BYBLOCK
 70
     0
  3

 72
    65
 73
     0
 40
0.0
  0
LTYPE
  5
15
330
5
100
AcDbSymbolTableRecord
100
AcDbLinetypeTableRecord
  2
BYLAYER
 70
     0
  3

 72
    65
 73
     0
 40
0.0
  0
LTYPE
  5
16
330
5
100
AcDbSymbolTableRecord
100
AcDbLinetypeTableRecord
  2
CONTINUOUS
 70
     0
  3
Solid line
 72
    65
 73
     0
 40
0.0
  0
ENDTAB
  0
TABLE
  2
LAYER
  5
2
100
AcDbSymbolTable
 70
1
  0
LAYER
  5
50
100
AcDbSymbolTableRecord
100
AcDbLayerTableRecord
  2
0
 70
0
  6
CONTINUOUS
  0
ENDTAB
  0
TABLE
  2
STYLE
  5
3
330
0
100
AcDbSymbolTable
 70
     1
  0
STYLE
  5
11
330
3
100
AcDbSymbolTableRecord
100
AcDbTextStyleTableRecord
  2
STANDARD
 70
     0
 40
0.0
 41
1.0
 50
0.0
 71
     0
 42
2.5
  3
txt
  4

  0
ENDTAB
  0
TABLE
  2
VIEW
  5
6
330
0
100
AcDbSymbolTable
 70
     0
  0
ENDTAB
  0
TABLE
  2
UCS
  5
7
330
0
100
AcDbSymbolTable
 70
     0
  0
ENDTAB
  0
TABLE
  2
APPID
  5
9
330
0
100
AcDbSymbolTable
 70
     2
  0
APPID
  5
12
330
9
100
AcDbSymbolTableRecord
100
AcDbRegAppTableRecord
  2
ACAD
 70
     0
  0
ENDTAB
  0
TABLE
  2
DIMSTYLE
  5
A
330
0
100
AcDbSymbolTable
 70
     1
  0
DIMSTYLE
105
27
330
A
100
AcDbSymbolTableRecord
100
AcDbDimStyleTableRecord
  2
ISO-25
 70
     0
  3

  4

  5

  6

  7

 40
1.0
 41
2.5
 42
0.625
 43
3.75
 44
1.25
 45
0.0
 46
0.0
 47
0.0
 48
0.0
140
2.5
141
2.5
142
0.0
143
0.03937007874016
144
1.0
145
0.0
146
1.0
147
0.625
 71
     0
 72
     0
 73
     0
 74
     0
 75
     0
 76
     0
 77
     1
 78
     8
170
     0
171
     3
172
     1
173
     0
174
     0
175
     0
176
     0
177
     0
178
     0
270
     2
271
     2
272
     2
273
     2
274
     3
340
11
275
     0
280
     0
281
     0
282
     0
283
     0
284
     8
285
     0
286
     0
287
     3
288
     0
  0
ENDTAB
  0
TABLE
  2
BLOCK_RECORD
  5
1
330
0
100
AcDbSymbolTable
 70
     1
  0
BLOCK_RECORD
  5
1F
330
1
100
AcDbSymbolTableRecord
100
AcDbBlockTableRecord
  2
*MODEL_SPACE
  0
BLOCK_RECORD
  5
1B
330
1
100
AcDbSymbolTableRecord
100
AcDbBlockTableRecord
  2
*PAPER_SPACE
  0
ENDTAB
  0
ENDSEC
  0
SECTION
  2
BLOCKS
  0
BLOCK
  5
20
330
1F
100
AcDbEntity
  8
0
100
AcDbBlockBegin
  2
*MODEL_SPACE
 70
     0
 10
0.0
 20
0.0
 30
0.0
  3
*MODEL_SPACE
  1

  0
ENDBLK
  5
21
330
1F
100
AcDbEntity
  8
0
100
AcDbBlockEnd
  0
BLOCK
  5
1C
330
1B
100
AcDbEntity
 67
     1
  8
0
100
AcDbBlockBegin
  2
*PAPER_SPACE
  1

  0
ENDBLK
  5
1D
330
1B
100
AcDbEntity
 67
     1
  8
0
100
AcDbBlockEnd
  0
ENDSEC
  0
SECTION
  2
ENTITIES
  0
SPLINE
  5
100
100
AcDbEntity
  8
0
 62
7
100
AcDbSpline
 70
8
 71
3
 72
8
 73
4
 74
0
 40
0
 40
0
 40
0
 40
0
 40
1
 40
1
 40
1
 40
1
 10
1820.291212
 20
274.645186
 30
0.0
 10
1817.343356
 20
276.532525
 30
0.0
 10
1815.305456
 20
280.203190
 30
0.0
 10
1815.305456
 20
283.625528
 30
0.0
  0
SPLINE
  5
101
100
AcDbEntity
  8
0
 62
7
100
AcDbSpline
 70
8
 71
3
 72
8
 73
4
 74
0
 40
0
 40
0
 40
0
 40
0
 40
1
 40
1
 40
1
 40
1
 10
1815.305456
 20
283.625528
 30
0.0
 10
1815.305456
 20
290.603855
 30
0.0
 10
1822.343055
 20
295.871500
 30
0.0
 10
1828.974943
 20
293.857130
 30
0.0
  0
SPLINE
  5
102
100
AcDbEntity
  8
0
 62
7
100
AcDbSpline
 70
8
 71
3
 72
8
 73
4
 74
0
 40
0
 40
0
 40
0
 40
0
 40
1
 40
1
 40
1
 40
1
 10
1828.974943
 20
293.857130
 30
0.0
 10
1833.492782
 20
292.484873
 30
0.0
 10
1836.736706
 20
288.210527
 30
0.0
 10
1836.736706
 20
283.629825
 30
0.0
  0
SPLINE
  5
103
100
AcDbEntity
  8
0
 62
7
100
AcDbSpline
 70
8
 71
3
 72
8
 73
4
 74
0
 40
0
 40
0
 40
0
 40
0
 40
1
 40
1
 40
1
 40
1
 10
1836.736706
 20
283.629825
 30
0.0
 10
1836.736706
 20
280.267317
 30
0.0
 10
1834.681238
 20
276.503074
 30
0.0
 10
1831.894381
 20
274.761986
 30
0.0
  0
LWPOLYLINE
  5
104
100
AcDbEntity
  8
0
 62
7
100
AcDbPolyline
 90
9
 70
0
 10
1644.854047
 20
93.403526
 30
0.0
 10
1607.884902
 20
146.703582
 30
0.0
 10
1644.854047
 20
200.003241
 30
0.0
 10
1681.823165
 20
253.302902
 30
0.0
 10
1751.871602
 20
253.316819
 30
0.0
 10
1821.920040
 20
253.330736
 30
0.0
 10
1821.920040
 20
263.466540
 30
0.0
 10
1821.920040
 20
273.602344
 30
0.0
 10
1820.291212
 20
274.645186
 30
0.0
  0
SPLINE
  5
105
100
AcDbEntity
  8
0
 62
7
100
AcDbSpline
 70
8
 71
3
 72
8
 73
4
 74
0
 40
0
 40
0
 40
0
 40
0
 40
1
 40
1
 40
1
 40
1
 10
1843.921387
 20
106.619252
 30
0.0
 10
1859.176786
 20
128.592903
 30
0.0
 10
1871.658346
 20
146.630872
 30
0.0
 10
1871.658187
 20
146.703632
 30
0.0
  0
SPLINE
  5
106
100
AcDbEntity
  8
0
 62
7
100
AcDbSpline
 70
8
 71
3
 72
8
 73
4
 74
0
 40
0
 40
0
 40
0
 40
0
 40
1
 40
1
 40
1
 40
1
 10
1871.658187
 20
146.703632
 30
0.0
 10
1871.658055
 20
146.776392
 30
0.0
 10
1859.176257
 20
164.814361
 30
0.0
 10
1843.920911
 20
186.788007
 30
0.0
  0
LWPOLYLINE
  5
107
100
AcDbEntity
  8
0
 62
7
100
AcDbPolyline
 90
12
 70
0
 10
1831.894381
 20
274.761986
 30
0.0
 10
1830.412133
 20
273.835945
 30
0.0
 10
1830.399433
 20
263.239988
 30
0.0
 10
1830.386733
 20
252.644032
 30
0.0
 10
1867.157651
 20
199.673885
 30
0.0
 10
1903.928596
 20
146.703738
 30
0.0
 10
1866.959214
 20
93.403896
 30
0.0
 10
1829.989858
 20
40.104086
 30
0.0
 10
1755.906524
 20
40.104086
 30
0.0
 10
1681.823191
 20
40.104086
 30
0.0
 10
1644.854073
 20
93.404134
 30
0.0
 10
1644.854047
 20
93.403526
 30
0.0
  0
SPLINE
  5
108
100
AcDbEntity
  8
0
 62
7
100
AcDbSpline
 70
8
 71
3
 72
8
 73
4
 74
0
 40
0
 40
0
 40
0
 40
0
 40
1
 40
1
 40
1
 40
1
 10
1667.890603
 20
186.788007
 30
0.0
 10
1652.634411
 20
164.814361
 30
0.0
 10
1640.197750
 20
146.713051
 30
0.0
 10
1640.253551
 20
146.562876
 30
0.0
  0
SPLINE
  5
109
100
AcDbEntity
  8
0
 62
7
100
AcDbSpline
 70
8
 71
3
 72
8
 73
4
 74
0
 40
0
 40
0
 40
0
 40
0
 40
1
 40
1
 40
1
 40
1
 10
1640.253551
 20
146.562876
 30
0.0
 10
1640.338959
 20
146.333012
 30
0.0
 10
1686.177704
 20
80.199891
 30
0.0
 10
1693.385403
 20
69.907732
 30
0.0
  0
LWPOLYLINE
  5
10a
100
AcDbEntity
  8
0
 62
7
100
AcDbPolyline
 90
5
 70
0
 10
1843.920911
 20
186.788007
 30
0.0
 10
1816.183873
 20
226.740090
 30
0.0
 10
1755.906498
 20
226.740090
 30
0.0
 10
1695.629123
 20
226.740090
 30
0.0
 10
1667.890603
 20
186.788007
 30
0.0
  0
SPLINE
  5
10b
100
AcDbEntity
  8
0
 62
7
100
AcDbSpline
 70
8
 71
3
 72
8
 73
4
 74
0
 40
0
 40
0
 40
0
 40
0
 40
1
 40
1
 40
1
 40
1
 10
1706.429415
 20
121.737266
 30
0.0
 10
1700.622419
 20
122.656814
 30
0.0
 10
1696.140007
 20
124.842606
 30
0.0
 10
1692.185571
 20
128.683073
 30
0.0
  0
SPLINE
  5
10c
100
AcDbEntity
  8
0
 62
7
100
AcDbSpline
 70
8
 71
3
 72
8
 73
4
 74
0
 40
0
 40
0
 40
0
 40
0
 40
1
 40
1
 40
1
 40
1
 10
1692.185571
 20
128.683073
 30
0.0
 10
1688.777473
 20
131.992968
 30
0.0
 10
1686.479567
 20
135.972076
 30
0.0
 10
1685.339186
 20
140.538483
 30
0.0
  0
SPLINE
  5
10d
100
AcDbEntity
  8
0
 62
7
100
AcDbSpline
 70
8
 71
3
 72
8
 73
4
 74
0
 40
0
 40
0
 40
0
 40
0
 40
1
 40
1
 40
1
 40
1
 10
1685.339186
 20
140.538483
 30
0.0
 10
1684.883891
 20
142.361613
 30
0.0
 10
1684.757632
 20
143.642630
 30
0.0
 10
1684.757632
 20
146.439049
 30
0.0
  0
SPLINE
  5
10e
100
AcDbEntity
  8
0
 62
7
100
AcDbSpline
 70
8
 71
3
 72
8
 73
4
 74
0
 40
0
 40
0
 40
0
 40
0
 40
1
 40
1
 40
1
 40
1
 10
1684.757632
 20
146.439049
 30
0.0
 10
1684.757632
 20
151.746175
 30
0.0
 10
1685.898462
 20
155.694825
 30
0.0
 10
1688.698733
 20
160.080097
 30
0.0
  0
SPLINE
  5
10f
100
AcDbEntity
  8
0
 62
7
100
AcDbSpline
 70
8
 71
3
 72
8
 73
4
 74
0
 40
0
 40
0
 40
0
 40
0
 40
1
 40
1
 40
1
 40
1
 10
1688.698733
 20
160.080097
 30
0.0
 10
1690.060094
 20
162.212009
 30
0.0
 10
1693.344340
 20
165.542357
 30
0.0
 10
1695.500059
 20
166.976891
 30
0.0
  0
SPLINE
  5
110
100
AcDbEntity
  8
0
 62
7
100
AcDbSpline
 70
8
 71
3
 72
8
 73
4
 74
0
 40
0
 40
0
 40
0
 40
0
 40
1
 40
1
 40
1
 40
1
 10
1695.500059
 20
166.976891
 30
0.0
 10
1699.941593
 20
169.932554
 30
0.0
 10
1704.026125
 20
171.153532
 30
0.0
 10
1709.472123
 20
171.153532
 30
0.0
  0
SPLINE
  5
111
100
AcDbEntity
  8
0
 62
7
100
AcDbSpline
 70
8
 71
3
 72
8
 73
4
 74
0
 40
0
 40
0
 40
0
 40
0
 40
1
 40
1
 40
1
 40
1
 10
1709.472123
 20
171.153532
 30
0.0
 10
1714.779241
 20
171.153532
 30
0.0
 10
1718.727909
 20
170.012709
 30
0.0
 10
1723.113166
 20
167.212431
 30
0.0
  0
SPLINE
  5
112
100
AcDbEntity
  8
0
 62
7
100
AcDbSpline
 70
8
 71
3
 72
8
 73
4
 74
0
 40
0
 40
0
 40
0
 40
0
 40
1
 40
1
 40
1
 40
1
 10
1723.113166
 20
167.212431
 30
0.0
 10
1725.245073
 20
165.851067
 30
0.0
 10
1728.575436
 20
162.566829
 30
0.0
 10
1730.009954
 20
160.411123
 30
0.0
  0
SPLINE
  5
113
100
AcDbEntity
  8
0
 62
7
100
AcDbSpline
 70
8
 71
3
 72
8
 73
4
 74
0
 40
0
 40
0
 40
0
 40
0
 40
1
 40
1
 40
1
 40
1
 10
1730.009954
 20
160.411123
 30
0.0
 10
1732.965615
 20
155.969576
 30
0.0
 10
1734.186614
 20
151.885047
 30
0.0
 10
1734.186614
 20
146.439049
 30
0.0
  0
SPLINE
  5
114
100
AcDbEntity
  8
0
 62
7
100
AcDbSpline
 70
8
 71
3
 72
8
 73
4
 74
0
 40
0
 40
0
 40
0
 40
0
 40
1
 40
1
 40
1
 40
1
 10
1734.186614
 20
146.439049
 30
0.0
 10
1734.186614
 20
143.642630
 30
0.0
 10
1734.060355
 20
142.361613
 30
0.0
 10
1733.605060
 20
140.538483
 30
0.0
  0
SPLINE
  5
115
100
AcDbEntity
  8
0
 62
7
100
AcDbSpline
 70
8
 71
3
 72
8
 73
4
 74
0
 40
0
 40
0
 40
0
 40
0
 40
1
 40
1
 40
1
 40
1
 10
1733.605060
 20
140.538483
 30
0.0
 10
1732.464679
 20
135.972076
 30
0.0
 10
1730.166773
 20
131.992968
 30
0.0
 10
1726.758675
 20
128.683073
 30
0.0
  0
SPLINE
  5
116
100
AcDbEntity
  8
0
 62
7
100
AcDbSpline
 70
8
 71
3
 72
8
 73
4
 74
0
 40
0
 40
0
 40
0
 40
0
 40
1
 40
1
 40
1
 40
1
 10
1726.758675
 20
128.683073
 30
0.0
 10
1722.098384
 20
124.157092
 30
0.0
 10
1716.808939
 20
121.920632
 30
0.0
 10
1710.265873
 20
121.709675
 30
0.0
  0
SPLINE
  5
117
100
AcDbEntity
  8
0
 62
7
100
AcDbSpline
 70
8
 71
3
 72
8
 73
4
 74
0
 40
0
 40
0
 40
0
 40
0
 40
1
 40
1
 40
1
 40
1
 10
1710.265873
 20
121.709675
 30
0.0
 10
1708.592383
 20
121.655721
 30
0.0
 10
1706.865977
 20
121.668135
 30
0.0
 10
1706.429415
 20
121.737266
 30
0.0
  0
LWPOLYLINE
  5
118
100
AcDbEntity
  8
0
 62
7
100
AcDbPolyline
 90
5
 70
0
 10
1693.385403
 20
69.907732
 30
0.0
 10
1695.748238
 20
66.533739
 30
0.0
 10
1755.966294
 20
66.600440
 30
0.0
 10
1816.184323
 20
66.667168
 30
0.0
 10
1843.921387
 20
106.619252
 30
0.0
  0
SPLINE
  5
119
100
AcDbEntity
  8
0
 62
7
100
AcDbSpline
 70
8
 71
3
 72
8
 73
4
 74
0
 40
0
 40
0
 40
0
 40
0
 40
1
 40
1
 40
1
 40
1
 10
1799.033581
 20
121.737266
 30
0.0
 10
1793.226586
 20
122.656814
 30
0.0
 10
1788.744174
 20
124.842606
 30
0.0
 10
1784.789738
 20
128.683073
 30
0.0
  0
SPLINE
  5
11a
100
AcDbEntity
  8
0
 62
7
100
AcDbSpline
 70
8
 71
3
 72
8
 73
4
 74
0
 40
0
 40
0
 40
0
 40
0
 40
1
 40
1
 40
1
 40
1
 10
1784.789738
 20
128.683073
 30
0.0
 10
1781.381640
 20
131.992968
 30
0.0
 10
1779.083733
 20
135.972076
 30
0.0
 10
1777.943353
 20
140.538483
 30
0.0
  0
SPLINE
  5
11b
100
AcDbEntity
  8
0
 62
7
100
AcDbSpline
 70
8
 71
3
 72
8
 73
4
 74
0
 40
0
 40
0
 40
0
 40
0
 40
1
 40
1
 40
1
 40
1
 10
1777.943353
 20
140.538483
 30
0.0
 10
1777.488058
 20
142.361613
 30
0.0
 10
1777.361799
 20
143.642630
 30
0.0
 10
1777.361799
 20
146.439049
 30
0.0
  0
SPLINE
  5
11c
100
AcDbEntity
  8
0
 62
7
100
AcDbSpline
 70
8
 71
3
 72
8
 73
4
 74
0
 40
0
 40
0
 40
0
 40
0
 40
1
 40
1
 40
1
 40
1
 10
1777.361799
 20
146.439049
 30
0.0
 10
1777.361799
 20
151.746175
 30
0.0
 10
1778.502629
 20
155.694825
 30
0.0
 10
1781.302900
 20
160.080097
 30
0.0
  0
SPLINE
  5
11d
100
AcDbEntity
  8
0
 62
7
100
AcDbSpline
 70
8
 71
3
 72
8
 73
4
 74
0
 40
0
 40
0
 40
0
 40
0
 40
1
 40
1
 40
1
 40
1
 10
1781.302900
 20
160.080097
 30
0.0
 10
1782.664260
 20
162.212009
 30
0.0
 10
1785.948507
 20
165.542357
 30
0.0
 10
1788.104226
 20
166.976891
 30
0.0
  0
SPLINE
  5
11e
100
AcDbEntity
  8
0
 62
7
100
AcDbSpline
 70
8
 71
3
 72
8
 73
4
 74
0
 40
0
 40
0
 40
0
 40
0
 40
1
 40
1
 40
1
 40
1
 10
1788.104226
 20
166.976891
 30
0.0
 10
1792.545760
 20
169.932554
 30
0.0
 10
1796.630291
 20
171.153532
 30
0.0
 10
1802.076290
 20
171.153532
 30
0.0
  0
SPLINE
  5
11f
100
AcDbEntity
  8
0
 62
7
100
AcDbSpline
 70
8
 71
3
 72
8
 73
4
 74
0
 40
0
 40
0
 40
0
 40
0
 40
1
 40
1
 40
1
 40
1
 10
1802.076290
 20
171.153532
 30
0.0
 10
1807.530728
 20
171.153532
 30
0.0
 10
1811.600919
 20
169.934718
 30
0.0
 10
1816.071504
 20
166.962680
 30
0.0
  0
SPLINE
  5
120
100
AcDbEntity
  8
0
 62
7
100
AcDbSpline
 70
8
 71
3
 72
8
 73
4
 74
0
 40
0
 40
0
 40
0
 40
0
 40
1
 40
1
 40
1
 40
1
 10
1816.071504
 20
166.962680
 30
0.0
 10
1818.173751
 20
165.565100
 30
0.0
 10
1821.522133
 20
162.152595
 30
0.0
 10
1822.891246
 20
160.012316
 30
0.0
  0
SPLINE
  5
121
100
AcDbEntity
  8
0
 62
7
100
AcDbSpline
 70
8
 71
3
 72
8
 73
4
 74
0
 40
0
 40
0
 40
0
 40
0
 40
1
 40
1
 40
1
 40
1
 10
1822.891246
 20
160.012316
 30
0.0
 10
1825.644950
 20
155.707591
 30
0.0
 10
1826.790781
 20
151.719283
 30
0.0
 10
1826.790781
 20
146.439049
 30
0.0
  0
SPLINE
  5
122
100
AcDbEntity
  8
0
 62
7
100
AcDbSpline
 70
8
 71
3
 72
8
 73
4
 74
0
 40
0
 40
0
 40
0
 40
0
 40
1
 40
1
 40
1
 40
1
 10
1826.790781
 20
146.439049
 30
0.0
 10
1826.790781
 20
143.642630
 30
0.0
 10
1826.664521
 20
142.361613
 30
0.0
 10
1826.209226
 20
140.538483
 30
0.0
  0
SPLINE
  5
123
100
AcDbEntity
  8
0
 62
7
100
AcDbSpline
 70
8
 71
3
 72
8
 73
4
 74
0
 40
0
 40
0
 40
0
 40
0
 40
1
 40
1
 40
1
 40
1
 10
1826.209226
 20
140.538483
 30
0.0
 10
1825.068846
 20
135.972076
 30
0.0
 10
1822.770940
 20
131.992968
 30
0.0
 10
1819.362842
 20
128.683073
 30
0.0
  0
SPLINE
  5
124
100
AcDbEntity
  8
0
 62
7
100
AcDbSpline
 70
8
 71
3
 72
8
 73
4
 74
0
 40
0
 40
0
 40
0
 40
0
 40
1
 40
1
 40
1
 40
1
 10
1819.362842
 20
128.683073
 30
0.0
 10
1814.702550
 20
124.157092
 30
0.0
 10
1809.413106
 20
121.920632
 30
0.0
 10
1802.870040
 20
121.709675
 30
0.0
  0
SPLINE
  5
125
100
AcDbEntity
  8
0
 62
7
100
AcDbSpline
 70
8
 71
3
 72
8
 73
4
 74
0
 40
0
 40
0
 40
0
 40
0
 40
1
 40
1
 40
1
 40
1
 10
1802.870040
 20
121.709675
 30
0.0
 10
1801.196550
 20
121.655721
 30
0.0
 10
1799.470144
 20
121.668135
 30
0.0
 10
1799.033581
 20
121.737266
 30
0.0
  0
LWPOLYLINE
  5
126
100
AcDbEntity
  8
0
 62
7
100
AcDbPolyline
 90
1
 70
1
 10
1706.429415
 20
121.737266
 30
0.0
  0
SPLINE
  5
127
100
AcDbEntity
  8
0
 62
7
100
AcDbSpline
 70
8
 71
3
 72
8
 73
4
 74
0
 40
0
 40
0
 40
0
 40
0
 40
1
 40
1
 40
1
 40
1
 10
104.681377
 20
59.268148
 30
0.0
 10
100.191935
 20
69.675798
 30
0.0
 10
96.457386
 20
78.425834
 30
0.0
 10
96.382380
 20
78.712669
 30
0.0
  0
SPLINE
  5
128
100
AcDbEntity
  8
0
 62
7
100
AcDbSpline
 70
8
 71
3
 72
8
 73
4
 74
0
 40
0
 40
0
 40
0
 40
0
 40
1
 40
1
 40
1
 40
1
 10
96.382380
 20
78.712669
 30
0.0
 10
96.246865
 20
79.230881
 30
0.0
 10
96.884511
 20
79.234612
 30
0.0
 10
196.736539
 20
79.300679
 30
0.0
  0
LWPOLYLINE
  5
129
100
AcDbEntity
  8
0
 62
7
100
AcDbPolyline
 90
1
 70
1
 10
1799.033581
 20
121.737266
 30
0.0
  0
SPLINE
  5
12a
100
AcDbEntity
  8
0
 62
7
100
AcDbSpline
 70
8
 71
3
 72
8
 73
4
 74
0
 40
0
 40
0
 40
0
 40
0
 40
1
 40
1
 40
1
 40
1
 10
338.859495
 20
292.511491
 30
0.0
 10
343.409667
 20
281.973570
 30
0.0
 10
347.132540
 20
273.252242
 30
0.0
 10
347.132540
 20
273.130761
 30
0.0
  0
SPLINE
  5
12b
100
AcDbEntity
  8
0
 62
7
100
AcDbSpline
 70
8
 71
3
 72
8
 73
4
 74
0
 40
0
 40
0
 40
0
 40
0
 40
1
 40
1
 40
1
 40
1
 10
347.132540
 20
273.130761
 30
0.0
 10
347.132540
 20
273.009281
 30
0.0
 10
301.918555
 20
272.905352
 30
0.0
 10
246.657008
 20
272.899807
 30
0.0
  0
LWPOLYLINE
  5
12c
100
AcDbEntity
  8
0
 62
7
100
AcDbPolyline
 90
19
 70
0
 10
196.736539
 20
79.300679
 30
0.0
 10
297.227069
 20
79.367168
 30
0.0
 10
305.494716
 20
88.892168
 30
0.0
 10
313.762364
 20
98.417168
 30
0.0
 10
313.772682
 20
117.864049
 30
0.0
 10
313.783001
 20
137.310924
 30
0.0
 10
305.388380
 20
147.030951
 30
0.0
 10
296.993998
 20
156.750978
 30
0.0
 10
217.455978
 20
156.754391
 30
0.0
 10
137.917976
 20
156.757804
 30
0.0
 10
116.980465
 20
181.002951
 30
0.0
 10
96.042954
 20
205.248097
 30
0.0
 10
96.042954
 20
234.252325
 30
0.0
 10
96.042954
 20
263.256551
 30
0.0
 10
116.996623
 20
287.530453
 30
0.0
 10
137.950295
 20
311.804354
 30
0.0
 10
234.268370
 20
311.737851
 30
0.0
 10
330.586477
 20
311.671346
 30
0.0
 10
338.859495
 20
292.511491
 30
0.0
  0
SPLINE
  5
12d
100
AcDbEntity
  8
0
 62
7
100
AcDbSpline
 70
8
 71
3
 72
8
 73
4
 74
0
 40
0
 40
0
 40
0
 40
0
 40
1
 40
1
 40
1
 40
1
 10
345.611185
 20
86.928590
 30
0.0
 10
344.628920
 20
85.763365
 30
0.0
 10
335.193217
 20
74.808212
 30
0.0
 10
324.642956
 20
62.583774
 30
0.0
  0
LWPOLYLINE
  5
12e
100
AcDbEntity
  8
0
 62
7
100
AcDbPolyline
 90
15
 70
0
 10
246.657008
 20
272.899807
 30
0.0
 10
146.181495
 20
272.889726
 30
0.0
 10
137.918971
 20
263.308658
 30
0.0
 10
129.656443
 20
253.727593
 30
0.0
 10
129.650728
 20
234.279824
 30
0.0
 10
129.645013
 20
214.832057
 30
0.0
 10
138.029220
 20
205.109511
 30
0.0
 10
146.413426
 20
195.386968
 30
0.0
 10
225.951378
 20
195.386968
 30
0.0
 10
305.489319
 20
195.386968
 30
0.0
 10
326.443234
 20
171.112378
 30
0.0
 10
347.397123
 20
146.837789
 30
0.0
 10
347.397123
 20
117.942476
 30
0.0
 10
347.397123
 20
89.047161
 30
0.0
 10
345.611185
 20
86.928590
 30
0.0
  0
LWPOLYLINE
  5
12f
100
AcDbEntity
  8
0
 62
7
100
AcDbPolyline
 90
6
 70
0
 10
324.642956
 20
62.583774
 30
0.0
 10
305.460665
 20
40.357531
 30
0.0
 10
209.152329
 20
40.351445
 30
0.0
 10
112.843995
 20
40.345360
 30
0.0
 10
104.681377
 20
59.268386
 30
0.0
 10
104.681377
 20
59.268148
 30
0.0
  0
SPLINE
  5
130
100
AcDbEntity
  8
0
 62
7
100
AcDbSpline
 70
8
 71
3
 72
8
 73
4
 74
0
 40
0
 40
0
 40
0
 40
0
 40
1
 40
1
 40
1
 40
1
 10
505.979747
 20
79.246518
 30
0.0
 10
578.002347
 20
79.235406
 30
0.0
 10
581.345278
 20
79.214028
 30
0.0
 10
581.228041
 20
78.765744
 30
0.0
  0
SPLINE
  5
131
100
AcDbEntity
  8
0
 62
7
100
AcDbSpline
 70
8
 71
3
 72
8
 73
4
 74
0
 40
0
 40
0
 40
0
 40
0
 40
1
 40
1
 40
1
 40
1
 10
581.228041
 20
78.765744
 30
0.0
 10
581.160572
 20
78.507722
 30
0.0
 10
577.425979
 20
69.759116
 30
0.0
 10
572.928962
 20
59.324425
 30
0.0
  0
LWPOLYLINE
  5
132
100
AcDbEntity
  8
0
 62
7
100
AcDbPolyline
 90
35
 70
0
 10
401.437819
 20
64.616647
 30
0.0
 10
380.473029
 20
88.892168
 30
0.0
 10
380.470384
 20
146.992380
 30
0.0
 10
380.467738
 20
205.092586
 30
0.0
 10
401.411414
 20
229.343942
 30
0.0
 10
422.355089
 20
253.595299
 30
0.0
 10
489.374841
 20
253.595299
 30
0.0
 10
556.394594
 20
253.595299
 30
0.0
 10
577.307207
 20
229.374745
 30
0.0
 10
598.219821
 20
205.154191
 30
0.0
 10
598.219821
 20
190.626579
 30
0.0
 10
598.219821
 20
176.098965
 30
0.0
 10
577.307578
 20
151.876300
 30
0.0
 10
556.397663
 20
127.653632
 30
0.0
 10
493.569255
 20
127.653632
 30
0.0
 10
430.740873
 20
127.653632
 30
0.0
 10
430.740873
 20
146.968215
 30
0.0
 10
430.740873
 20
166.282799
 30
0.0
 10
489.311633
 20
166.282799
 30
0.0
 10
547.882392
 20
166.282799
 30
0.0
 10
556.251216
 20
175.977304
 30
0.0
 10
564.620040
 20
185.671809
 30
0.0
 10
564.620040
 20
190.621806
 30
0.0
 10
564.620040
 20
195.571803
 30
0.0
 10
556.260688
 20
205.268968
 30
0.0
 10
547.901363
 20
214.966132
 30
0.0
 10
489.376746
 20
214.966132
 30
0.0
 10
430.852104
 20
214.966132
 30
0.0
 10
422.463648
 20
205.242694
 30
0.0
 10
414.075219
 20
195.519257
 30
0.0
 10
414.081833
 20
146.968215
 30
0.0
 10
414.088448
 20
98.417168
 30
0.0
 10
422.348607
 20
88.837664
 30
0.0
 10
430.608793
 20
79.258160
 30
0.0
 10
505.979747
 20
79.246518
 30
0.0
  0
LWPOLYLINE
  5
133
100
AcDbEntity
  8
0
 62
7
100
AcDbPolyline
 90
6
 70
0
 10
572.928962
 20
59.324425
 30
0.0
 10
564.752543
 20
40.352266
 30
0.0
 10
493.577695
 20
40.346709
 30
0.0
 10
422.402820
 20
40.341153
 30
0.0
 10
401.438031
 20
64.616674
 30
0.0
 10
401.437819
 20
64.616647
 30
0.0
  0
SPLINE
  5
134
100
AcDbEntity
  8
0
 62
7
100
AcDbSpline
 70
8
 71
3
 72
8
 73
4
 74
0
 40
0
 40
0
 40
0
 40
0
 40
1
 40
1
 40
1
 40
1
 10
837.033002
 20
243.871861
 30
0.0
 10
839.340407
 20
238.523970
 30
0.0
 10
843.081906
 20
229.862174
 30
0.0
 10
845.347428
 20
224.623424
 30
0.0
  0
LWPOLYLINE
  5
135
100
AcDbEntity
  8
0
 62
7
100
AcDbPolyline
 90
9
 70
0
 10
652.791986
 20
64.616647
 30
0.0
 10
631.827196
 20
88.892168
 30
0.0
 10
631.824550
 20
146.992380
 30
0.0
 10
631.821904
 20
205.092586
 30
0.0
 10
652.765580
 20
229.343942
 30
0.0
 10
673.709256
 20
253.595299
 30
0.0
 10
753.273486
 20
253.595299
 30
0.0
 10
832.837690
 20
253.595299
 30
0.0
 10
837.033002
 20
243.871861
 30
0.0
  0
SPLINE
  5
136
100
AcDbEntity
  8
0
 62
7
100
AcDbSpline
 70
8
 71
3
 72
8
 73
4
 74
0
 40
0
 40
0
 40
0
 40
0
 40
1
 40
1
 40
1
 40
1
 10
765.635057
 20
79.246518
 30
0.0
 10
832.390835
 20
79.237258
 30
0.0
 10
849.309986
 20
79.168016
 30
0.0
 10
849.311733
 20
78.904147
 30
0.0
  0
SPLINE
  5
137
100
AcDbEntity
  8
0
 62
7
100
AcDbSpline
 70
8
 71
3
 72
8
 73
4
 74
0
 40
0
 40
0
 40
0
 40
0
 40
1
 40
1
 40
1
 40
1
 10
849.311733
 20
78.904147
 30
0.0
 10
849.311733
 20
78.722246
 30
0.0
 10
845.602089
 20
69.971153
 30
0.0
 10
841.065358
 20
59.457272
 30
0.0
  0
LWPOLYLINE
  5
138
100
AcDbEntity
  8
0
 62
7
100
AcDbPolyline
 90
11
 70
0
 10
845.347428
 20
224.623424
 30
0.0
 10
849.466514
 20
215.098424
 30
0.0
 10
765.779837
 20
214.966132
 30
0.0
 10
682.093161
 20
214.833840
 30
0.0
 10
673.759818
 20
205.176549
 30
0.0
 10
665.426475
 20
195.519257
 30
0.0
 10
665.433354
 20
146.968215
 30
0.0
 10
665.440233
 20
98.417168
 30
0.0
 10
673.700392
 20
88.837664
 30
0.0
 10
681.960578
 20
79.258160
 30
0.0
 10
765.635057
 20
79.246518
 30
0.0
  0
LWPOLYLINE
  5
139
100
AcDbEntity
  8
0
 62
7
100
AcDbPolyline
 90
6
 70
0
 10
841.065358
 20
59.457272
 30
0.0
 10
832.816814
 20
40.341127
 30
0.0
 10
753.285710
 20
40.341127
 30
0.0
 10
673.754606
 20
40.341127
 30
0.0
 10
652.789816
 20
64.616647
 30
0.0
 10
652.791986
 20
64.616647
 30
0.0
  0
LWPOLYLINE
  5
13a
100
AcDbEntity
  8
0
 62
7
100
AcDbPolyline
 90
25
 70
1
 10
903.875007
 20
64.614002
 30
0.0
 10
882.913790
 20
88.886665
 30
0.0
 10
882.913790
 20
171.240990
 30
0.0
 10
882.913790
 20
253.595299
 30
0.0
 10
899.714831
 20
253.595299
 30
0.0
 10
916.515873
 20
253.595299
 30
0.0
 10
916.515873
 20
176.072438
 30
0.0
 10
916.515873
 20
98.549566
 30
0.0
 10
924.874113
 20
88.891639
 30
0.0
 10
933.232380
 20
79.233712
 30
0.0
 10
991.874577
 20
79.300440
 30
0.0
 10
1050.516801
 20
79.367168
 30
0.0
 10
1058.778124
 20
88.892168
 30
0.0
 10
1067.039448
 20
98.417168
 30
0.0
 10
1067.051619
 20
176.006236
 30
0.0
 10
1067.063790
 20
253.595299
 30
0.0
 10
1083.864831
 20
253.595299
 30
0.0
 10
1100.665873
 20
253.595299
 30
0.0
 10
1100.665873
 20
171.213362
 30
0.0
 10
1100.665873
 20
88.831420
 30
0.0
 10
1079.728362
 20
64.586273
 30
0.0
 10
1058.790851
 20
40.341127
 30
0.0
 10
991.813538
 20
40.341127
 30
0.0
 10
924.836251
 20
40.341127
 30
0.0
 10
903.875007
 20
64.613896
 30
0.0
  0
LWPOLYLINE
  5
13b
100
AcDbEntity
  8
0
 62
7
100
AcDbPolyline
 90
17
 70
1
 10
1134.003373
 20
122.716859
 30
0.0
 10
1134.003373
 20
205.092586
 30
0.0
 10
1154.947604
 20
229.344569
 30
0.0
 10
1175.891836
 20
253.596555
 30
0.0
 10
1230.367216
 20
253.529783
 30
0.0
 10
1284.842596
 20
253.463007
 30
0.0
 10
1293.126568
 20
234.280715
 30
0.0
 10
1301.410566
 20
215.098424
 30
0.0
 10
1242.842585
 20
214.966132
 30
0.0
 10
1184.274630
 20
214.833840
 30
0.0
 10
1175.941286
 20
205.176549
 30
0.0
 10
1167.607943
 20
195.519257
 30
0.0
 10
1167.607943
 20
117.930194
 30
0.0
 10
1167.607943
 20
40.341127
 30
0.0
 10
1150.806902
 20
40.341127
 30
0.0
 10
1134.005860
 20
40.341127
 30
0.0
 10
1134.005860
 20
122.716859
 30
0.0
  0
SPLINE
  5
13c
100
AcDbEntity
  8
0
 62
7
100
AcDbSpline
 70
8
 71
3
 72
8
 73
4
 74
0
 40
0
 40
0
 40
0
 40
0
 40
1
 40
1
 40
1
 40
1
 10
1558.395040
 20
289.563051
 30
0.0
 10
1568.945300
 20
277.338560
 30
0.0
 10
1578.381003
 20
266.382910
 30
0.0
 10
1579.363269
 20
265.217164
 30
0.0
  0
LWPOLYLINE
  5
13d
100
AcDbEntity
  8
0
 62
7
100
AcDbPolyline
 90
5
 70
0
 10
1334.822123
 20
176.072382
 30
0.0
 10
1334.822123
 20
311.803632
 30
0.0
 10
1437.017435
 20
311.796515
 30
0.0
 10
1539.212748
 20
311.789397
 30
0.0
 10
1558.395040
 20
289.563051
 30
0.0
  0
SPLINE
  5
13e
100
AcDbEntity
  8
0
 62
7
100
AcDbSpline
 70
8
 71
3
 72
8
 73
4
 74
0
 40
0
 40
0
 40
0
 40
0
 40
1
 40
1
 40
1
 40
1
 10
1569.904415
 20
192.283345
 30
0.0
 10
1563.719779
 20
185.124304
 30
0.0
 10
1558.659623
 20
179.139286
 30
0.0
 10
1558.659623
 20
178.983312
 30
0.0
  0
SPLINE
  5
13f
100
AcDbEntity
  8
0
 62
7
100
AcDbSpline
 70
8
 71
3
 72
8
 73
4
 74
0
 40
0
 40
0
 40
0
 40
0
 40
1
 40
1
 40
1
 40
1
 10
1558.659623
 20
178.983312
 30
0.0
 10
1558.659623
 20
178.827335
 30
0.0
 10
1564.850873
 20
171.532333
 30
0.0
 10
1572.417956
 20
162.772196
 30
0.0
  0
LWPOLYLINE
  5
140
100
AcDbEntity
  8
0
 62
7
100
AcDbPolyline
 90
5
 70
0
 10
1579.363269
 20
265.217164
 30
0.0
 10
1581.149206
 20
263.097624
 30
0.0
 10
1581.149206
 20
234.198705
 30
0.0
 10
1581.149206
 20
205.299786
 30
0.0
 10
1569.904415
 20
192.283345
 30
0.0
  0
SPLINE
  5
141
100
AcDbEntity
  8
0
 62
7
100
AcDbSpline
 70
8
 71
3
 72
8
 73
4
 74
0
 40
0
 40
0
 40
0
 40
0
 40
1
 40
1
 40
1
 40
1
 10
1584.390352
 20
86.928642
 30
0.0
 10
1583.408086
 20
85.763470
 30
0.0
 10
1573.972383
 20
74.808027
 30
0.0
 10
1563.422123
 20
62.583272
 30
0.0
  0
LWPOLYLINE
  5
142
100
AcDbEntity
  8
0
 62
7
100
AcDbPolyline
 90
5
 70
0
 10
1572.417956
 20
162.772196
 30
0.0
 10
1586.176290
 20
146.844673
 30
0.0
 10
1586.176290
 20
117.945932
 30
0.0
 10
1586.176290
 20
89.047188
 30
0.0
 10
1584.390352
 20
86.928642
 30
0.0
  0
LWPOLYLINE
  5
143
100
AcDbEntity
  8
0
 62
7
100
AcDbPolyline
 90
6
 70
0
 10
1563.422123
 20
62.583272
 30
0.0
 10
1544.239831
 20
40.356420
 30
0.0
 10
1439.530977
 20
40.348747
 30
0.0
 10
1334.822123
 20
40.341074
 30
0.0
 10
1334.822123
 20
176.072326
 30
0.0
 10
1334.822123
 20
176.072382
 30
0.0
  0
LWPOLYLINE
  5
144
100
AcDbEntity
  8
0
 62
7
100
AcDbPolyline
 90
24
 70
1
 10
1544.193635
 20
88.936618
 30
0.0
 10
1552.574206
 20
98.638360
 30
0.0
 10
1552.574206
 20
117.996340
 30
0.0
 10
1552.574206
 20
137.354321
 30
0.0
 10
1544.193635
 20
147.056060
 30
0.0
 10
1535.813064
 20
156.757799
 30
0.0
 10
1460.453010
 20
156.757799
 30
0.0
 10
1385.092956
 20
156.757799
 30
0.0
 10
1385.092956
 20
176.204674
 30
0.0
 10
1385.092956
 20
195.651549
 30
0.0
 10
1457.940183
 20
195.651549
 30
0.0
 10
1530.787436
 20
195.651549
 30
0.0
 10
1539.167266
 20
205.324996
 30
0.0
 10
1547.547123
 20
214.998443
 30
0.0
 10
1547.547123
 20
234.280715
 30
0.0
 10
1547.547123
 20
253.562988
 30
0.0
 10
1539.167266
 20
263.236435
 30
0.0
 10
1530.787436
 20
272.909882
 30
0.0
 10
1449.605808
 20
272.909882
 30
0.0
 10
1368.424206
 20
272.909882
 30
0.0
 10
1368.424206
 20
176.072382
 30
0.0
 10
1368.424206
 20
79.234877
 30
0.0
 10
1452.118635
 20
79.234877
 30
0.0
 10
1535.813064
 20
79.234877
 30
0.0
  0
SPLINE
  5
145
100
AcDbEntity
  8
0
 62
7
100
AcDbSpline
 70
8
 71
3
 72
8
 73
4
 74
0
 40
0
 40
0
 40
0
 40
0
 40
1
 40
1
 40
1
 40
1
 10
2051.514132
 20
79.234877
 30
0.0
 10
2084.947967
 20
79.234877
 30
0.0
 10
2093.412490
 20
79.167884
 30
0.0
 10
2093.307504
 20
78.904148
 30
0.0
  0
SPLINE
  5
146
100
AcDbEntity
  8
0
 62
7
100
AcDbSpline
 70
8
 71
3
 72
8
 73
4
 74
0
 40
0
 40
0
 40
0
 40
0
 40
1
 40
1
 40
1
 40
1
 10
2093.307504
 20
78.904148
 30
0.0
 10
2093.078533
 20
78.328970
 30
0.0
 10
2077.310504
 20
41.830651
 30
0.0
 10
2076.961836
 20
41.068731
 30
0.0
  0
LWPOLYLINE
  5
147
100
AcDbEntity
  8
0
 62
7
100
AcDbPolyline
 90
27
 70
0
 10
1980.411859
 20
64.553095
 30
0.0
 10
1959.503373
 20
88.765089
 30
0.0
 10
1959.503373
 20
151.865608
 30
0.0
 10
1959.503373
 20
214.966132
 30
0.0
 10
1942.702331
 20
214.966132
 30
0.0
 10
1925.901290
 20
214.966132
 30
0.0
 10
1925.901290
 20
234.280715
 30
0.0
 10
1925.901290
 20
253.595299
 30
0.0
 10
1942.700638
 20
253.595299
 30
0.0
 10
1959.499960
 20
253.595299
 30
0.0
 10
1959.567825
 20
273.060110
 30
0.0
 10
1959.635665
 20
292.524921
 30
0.0
 10
1976.172123
 20
302.106282
 30
0.0
 10
1992.708581
 20
311.687644
 30
0.0
 10
1992.840873
 20
282.707617
 30
0.0
 10
1992.973165
 20
253.727590
 30
0.0
 10
2043.177852
 20
253.660762
 30
0.0
 10
2093.382540
 20
253.593931
 30
0.0
 10
2093.382540
 20
234.280715
 30
0.0
 10
2093.382540
 20
214.967500
 30
0.0
 10
2043.177852
 20
214.900669
 30
0.0
 10
1992.973165
 20
214.833840
 30
0.0
 10
1992.906437
 20
156.744257
 30
0.0
 10
1992.839682
 20
98.654658
 30
0.0
 10
2001.214406
 20
88.944768
 30
0.0
 10
2009.589130
 20
79.234877
 30
0.0
 10
2051.514132
 20
79.234877
 30
0.0
  0
LWPOLYLINE
  5
148
100
AcDbEntity
  8
0
 62
7
100
AcDbPolyline
 90
5
 70
0
 10
2076.961836
 20
41.068731
 30
0.0
 10
2076.628858
 20
40.341127
 30
0.0
 10
2038.974602
 20
40.341127
 30
0.0
 10
2001.320345
 20
40.341127
 30
0.0
 10
1980.411859
 20
64.553095
 30
0.0
  0
SPLINE
  5
149
100
AcDbEntity
  8
0
 62
7
100
AcDbSpline
 70
8
 71
3
 72
8
 73
4
 74
0
 40
0
 40
0
 40
0
 40
0
 40
1
 40
1
 40
1
 40
1
 10
1807.564277
 20
303.449670
 30
0.0
 10
1810.785341
 20
306.174217
 30
0.0
 10
1814.751392
 20
308.228640
 30
0.0
 10
1818.955172
 20
309.350148
 30
0.0
  0
SPLINE
  5
14a
100
AcDbEntity
  8
0
 62
7
100
AcDbSpline
 70
8
 71
3
 72
8
 73
4
 74
0
 40
0
 40
0
 40
0
 40
0
 40
1
 40
1
 40
1
 40
1
 10
1818.955172
 20
309.350148
 30
0.0
 10
1821.209924
 20
309.951686
 30
0.0
 10
1822.039525
 20
310.035252
 30
0.0
 10
1825.756498
 20
310.035252
 30
0.0
  0
SPLINE
  5
14b
100
AcDbEntity
  8
0
 62
7
100
AcDbSpline
 70
8
 71
3
 72
8
 73
4
 74
0
 40
0
 40
0
 40
0
 40
0
 40
1
 40
1
 40
1
 40
1
 10
1825.756498
 20
310.035252
 30
0.0
 10
1829.473470
 20
310.035252
 30
0.0
 10
1830.303071
 20
309.951686
 30
0.0
 10
1832.557824
 20
309.350148
 30
0.0
  0
SPLINE
  5
14c
100
AcDbEntity
  8
0
 62
7
100
AcDbSpline
 70
8
 71
3
 72
8
 73
4
 74
0
 40
0
 40
0
 40
0
 40
0
 40
1
 40
1
 40
1
 40
1
 10
1832.557824
 20
309.350148
 30
0.0
 10
1835.571084
 20
308.546254
 30
0.0
 10
1838.968625
 20
307.011782
 30
0.0
 10
1841.449147
 20
305.334435
 30
0.0
  0
SPLINE
  5
14d
100
AcDbEntity
  8
0
 62
7
100
AcDbSpline
 70
8
 71
3
 72
8
 73
4
 74
0
 40
0
 40
0
 40
0
 40
0
 40
1
 40
1
 40
1
 40
1
 10
1841.449147
 20
305.334435
 30
0.0
 10
1843.358089
 20
304.043593
 30
0.0
 10
1844.938790
 20
302.683593
 30
0.0
 10
1844.938790
 20
302.331998
 30
0.0
  0
SPLINE
  5
14e
100
AcDbEntity
  8
0
 62
7
100
AcDbSpline
 70
8
 71
3
 72
8
 73
4
 74
0
 40
0
 40
0
 40
0
 40
0
 40
1
 40
1
 40
1
 40
1
 10
1844.938790
 20
302.331998
 30
0.0
 10
1844.938790
 20
302.211724
 30
0.0
 10
1843.934590
 20
301.130737
 30
0.0
 10
1842.707241
 20
299.929801
 30
0.0
  0
LWPOLYLINE
  5
14f
100
AcDbEntity
  8
0
 62
7
100
AcDbPolyline
 90
3
 70
0
 10
1808.352524
 20
299.838584
 30
0.0
 10
1806.040833
 20
302.161035
 30
0.0
 10
1807.564277
 20
303.449670
 30
0.0
  0
SPLINE
  5
150
100
AcDbEntity
  8
0
 62
7
100
AcDbSpline
 70
8
 71
3
 72
8
 73
4
 74
0
 40
0
 40
0
 40
0
 40
0
 40
1
 40
1
 40
1
 40
1
 10
1839.069220
 20
298.890952
 30
0.0
 10
1831.267292
 20
305.240661
 30
0.0
 10
1819.482751
 20
305.107393
 30
0.0
 10
1812.073677
 20
298.585668
 30
0.0
  0
SPLINE
  5
151
100
AcDbEntity
  8
0
 62
7
100
AcDbSpline
 70
8
 71
3
 72
8
 73
4
 74
0
 40
0
 40
0
 40
0
 40
0
 40
1
 40
1
 40
1
 40
1
 10
1812.073677
 20
298.585668
 30
0.0
 10
1811.405419
 20
297.997425
 30
0.0
 10
1810.814895
 20
297.516132
 30
0.0
 10
1810.761423
 20
297.516132
 30
0.0
  0
SPLINE
  5
152
100
AcDbEntity
  8
0
 62
7
100
AcDbSpline
 70
8
 71
3
 72
8
 73
4
 74
0
 40
0
 40
0
 40
0
 40
0
 40
1
 40
1
 40
1
 40
1
 10
1810.761423
 20
297.516132
 30
0.0
 10
1810.707950
 20
297.516132
 30
0.0
 10
1809.623952
 20
298.561236
 30
0.0
 10
1808.352524
 20
299.838584
 30
0.0
  0
LWPOLYLINE
  5
153
100
AcDbEntity
  8
0
 62
7
100
AcDbPolyline
 90
3
 70
0
 10
1842.707241
 20
299.929801
 30
0.0
 10
1840.475666
 20
297.746282
 30
0.0
 10
1839.069220
 20
298.890952
 30
0.0
  0
LWPOLYLINE
  5
154
100
AcDbEntity
  8
0
 62
7
100
AcDbPolyline
 90
1
 70
1
 10
1808.352524
 20
299.838584
 30
0.0
  0
SPLINE
  5
155
100
AcDbEntity
  8
0
 62
7
100
AcDbSpline
 70
8
 71
3
 72
8
 73
4
 74
0
 40
0
 40
0
 40
0
 40
0
 40
1
 40
1
 40
1
 40
1
 10
1794.978418
 20
316.416272
 30
0.0
 10
1802.388974
 20
323.139790
 30
0.0
 10
1811.165944
 20
327.076054
 30
0.0
 10
1821.258581
 20
328.202311
 30
0.0
  0
SPLINE
  5
156
100
AcDbEntity
  8
0
 62
7
100
AcDbSpline
 70
8
 71
3
 72
8
 73
4
 74
0
 40
0
 40
0
 40
0
 40
0
 40
1
 40
1
 40
1
 40
1
 10
1821.258581
 20
328.202311
 30
0.0
 10
1833.111756
 20
329.525032
 30
0.0
 10
1845.527540
 20
325.747888
 30
0.0
 10
1855.097414
 20
317.907818
 30
0.0
  0
SPLINE
  5
157
100
AcDbEntity
  8
0
 62
7
100
AcDbSpline
 70
8
 71
3
 72
8
 73
4
 74
0
 40
0
 40
0
 40
0
 40
0
 40
1
 40
1
 40
1
 40
1
 10
1855.097414
 20
317.907818
 30
0.0
 10
1856.131379
 20
317.060752
 30
0.0
 10
1857.209106
 20
316.109199
 30
0.0
 10
1857.492396
 20
315.793255
 30
0.0
  0
LWPOLYLINE
  5
158
100
AcDbEntity
  8
0
 62
7
100
AcDbPolyline
 90
3
 70
0
 10
1795.613709
 20
312.577565
 30
0.0
 10
1793.304505
 20
314.897542
 30
0.0
 10
1794.978418
 20
316.416272
 30
0.0
  0
SPLINE
  5
159
100
AcDbEntity
  8
0
 62
7
100
AcDbSpline
 70
8
 71
3
 72
8
 73
4
 74
0
 40
0
 40
0
 40
0
 40
0
 40
1
 40
1
 40
1
 40
1
 10
1851.874656
 20
311.997384
 30
0.0
 10
1847.965544
 20
315.397436
 30
0.0
 10
1842.887369
 20
318.338552
 30
0.0
 10
1838.324206
 20
319.845370
 30
0.0
  0
SPLINE
  5
15a
100
AcDbEntity
  8
0
 62
7
100
AcDbSpline
 70
8
 71
3
 72
8
 73
4
 74
0
 40
0
 40
0
 40
0
 40
0
 40
1
 40
1
 40
1
 40
1
 10
1838.324206
 20
319.845370
 30
0.0
 10
1834.009328
 20
321.270201
 30
0.0
 10
1831.160401
 20
321.693635
 30
0.0
 10
1825.888790
 20
321.693635
 30
0.0
  0
SPLINE
  5
15b
100
AcDbEntity
  8
0
 62
7
100
AcDbSpline
 70
8
 71
3
 72
8
 73
4
 74
0
 40
0
 40
0
 40
0
 40
0
 40
1
 40
1
 40
1
 40
1
 10
1825.888790
 20
321.693635
 30
0.0
 10
1821.807724
 20
321.693635
 30
0.0
 10
1820.532141
 20
321.594472
 30
0.0
 10
1818.215873
 20
321.097137
 30
0.0
  0
SPLINE
  5
15c
100
AcDbEntity
  8
0
 62
7
100
AcDbSpline
 70
8
 71
3
 72
8
 73
4
 74
0
 40
0
 40
0
 40
0
 40
0
 40
1
 40
1
 40
1
 40
1
 10
1818.215873
 20
321.097137
 30
0.0
 10
1811.136655
 20
319.577143
 30
0.0
 10
1805.403372
 20
316.739659
 30
0.0
 10
1800.065774
 20
312.114422
 30
0.0
  0
LWPOLYLINE
  5
15d
100
AcDbEntity
  8
0
 62
7
100
AcDbPolyline
 90
5
 70
0
 10
1857.492396
 20
315.793255
 30
0.0
 10
1858.007486
 20
315.218807
 30
0.0
 10
1855.719608
 20
312.930942
 30
0.0
 10
1853.431756
 20
310.643074
 30
0.0
 10
1851.874656
 20
311.997384
 30
0.0
  0
LWPOLYLINE
  5
15e
100
AcDbEntity
  8
0
 62
7
100
AcDbPolyline
 90
3
 70
0
 10
1800.065774
 20
312.114422
 30
0.0
 10
1797.922940
 20
310.257590
 30
0.0
 10
1795.613709
 20
312.577565
 30
0.0
  0
SPLINE
  5
15f
100
AcDbEntity
  8
0
 62
7
100
AcDbSpline
 70
8
 71
3
 72
8
 73
4
 74
0
 40
0
 40
0
 40
0
 40
0
 40
1
 40
1
 40
1
 40
1
 10
1782.376182
 20
327.437036
 30
0.0
 10
1782.806500
 20
327.892325
 30
0.0
 10
1784.289675
 20
329.215861
 30
0.0
 10
1785.672123
 20
330.378223
 30
0.0
  0
SPLINE
  5
160
100
AcDbEntity
  8
0
 62
7
100
AcDbSpline
 70
8
 71
3
 72
8
 73
4
 74
0
 40
0
 40
0
 40
0
 40
0
 40
1
 40
1
 40
1
 40
1
 10
1785.672123
 20
330.378223
 30
0.0
 10
1796.819601
 20
339.751038
 30
0.0
 10
1811.548294
 20
345.139330
 30
0.0
 10
1826.021081
 20
345.139330
 30
0.0
  0
SPLINE
  5
161
100
AcDbEntity
  8
0
 62
7
100
AcDbSpline
 70
8
 71
3
 72
8
 73
4
 74
0
 40
0
 40
0
 40
0
 40
0
 40
1
 40
1
 40
1
 40
1
 10
1826.021081
 20
345.139330
 30
0.0
 10
1840.490218
 20
345.139330
 30
0.0
 10
1855.186737
 20
339.764558
 30
0.0
 10
1866.370040
 20
330.383033
 30
0.0
  0
SPLINE
  5
162
100
AcDbEntity
  8
0
 62
7
100
AcDbSpline
 70
8
 71
3
 72
8
 73
4
 74
0
 40
0
 40
0
 40
0
 40
0
 40
1
 40
1
 40
1
 40
1
 10
1866.370040
 20
330.383033
 30
0.0
 10
1867.752487
 20
329.223317
 30
0.0
 10
1869.114536
 20
328.016762
 30
0.0
 10
1869.396794
 20
327.701804
 30
0.0
  0
LWPOLYLINE
  5
163
100
AcDbEntity
  8
0
 62
7
100
AcDbPolyline
 90
3
 70
0
 10
1783.825543
 20
324.365808
 30
0.0
 10
1781.593782
 20
326.609234
 30
0.0
 10
1782.376182
 20
327.437036
 30
0.0
  0
SPLINE
  5
164
100
AcDbEntity
  8
0
 62
7
100
AcDbSpline
 70
8
 71
3
 72
8
 73
4
 74
0
 40
0
 40
0
 40
0
 40
0
 40
1
 40
1
 40
1
 40
1
 10
1867.682849
 20
324.890350
 30
0.0
 10
1866.457908
 20
323.659008
 30
0.0
 10
1865.393515
 20
322.655777
 30
0.0
 10
1865.317554
 20
322.660941
 30
0.0
  0
SPLINE
  5
165
100
AcDbEntity
  8
0
 62
7
100
AcDbSpline
 70
8
 71
3
 72
8
 73
4
 74
0
 40
0
 40
0
 40
0
 40
0
 40
1
 40
1
 40
1
 40
1
 10
1865.317554
 20
322.660941
 30
0.0
 10
1865.241565
 20
322.666101
 30
0.0
 10
1863.947991
 20
323.732731
 30
0.0
 10
1862.442935
 20
325.031214
 30
0.0
  0
SPLINE
  5
166
100
AcDbEntity
  8
0
 62
7
100
AcDbSpline
 70
8
 71
3
 72
8
 73
4
 74
0
 40
0
 40
0
 40
0
 40
0
 40
1
 40
1
 40
1
 40
1
 10
1862.442935
 20
325.031214
 30
0.0
 10
1849.426017
 20
336.261485
 30
0.0
 10
1832.077209
 20
340.798893
 30
0.0
 10
1815.040873
 20
337.428763
 30
0.0
  0
SPLINE
  5
167
100
AcDbEntity
  8
0
 62
7
100
AcDbSpline
 70
8
 71
3
 72
8
 73
4
 74
0
 40
0
 40
0
 40
0
 40
0
 40
1
 40
1
 40
1
 40
1
 10
1815.040873
 20
337.428763
 30
0.0
 10
1805.375617
 20
335.516776
 30
0.0
 10
1796.939087
 20
331.367215
 30
0.0
 10
1789.229314
 20
324.733203
 30
0.0
  0
SPLINE
  5
168
100
AcDbEntity
  8
0
 62
7
100
AcDbSpline
 70
8
 71
3
 72
8
 73
4
 74
0
 40
0
 40
0
 40
0
 40
0
 40
1
 40
1
 40
1
 40
1
 10
1789.229314
 20
324.733203
 30
0.0
 10
1787.560507
 20
323.297251
 30
0.0
 10
1786.164116
 20
322.122382
 30
0.0
 10
1786.126227
 20
322.122382
 30
0.0
  0
SPLINE
  5
169
100
AcDbEntity
  8
0
 62
7
100
AcDbSpline
 70
8
 71
3
 72
8
 73
4
 74
0
 40
0
 40
0
 40
0
 40
0
 40
1
 40
1
 40
1
 40
1
 10
1786.126227
 20
322.122382
 30
0.0
 10
1786.088312
 20
322.122382
 30
0.0
 10
1785.053024
 20
323.131923
 30
0.0
 10
1783.825543
 20
324.365808
 30
0.0
  0
LWPOLYLINE
  5
16a
100
AcDbEntity
  8
0
 62
7
100
AcDbPolyline
 90
3
 70
0
 10
1869.396794
 20
327.701804
 30
0.0
 10
1869.910032
 20
327.129151
 30
0.0
 10
1867.682849
 20
324.890350
 30
0.0
  0
LWPOLYLINE
  5
16b
100
AcDbEntity
  8
0
 62
7
100
AcDbPolyline
 90
1
 70
1
 10
1783.825543
 20
324.365808
 30
0.0
  0
ENDSEC
  0
SECTION
  2
OBJECTS
  0
DICTIONARY
  5
C
330
0
100
AcDbDictionary
  3
ACAD_GROUP
350
D
  3
ACAD_MLINESTYLE
350
17
  0
DICTIONARY
  5
D
330
C
100
AcDbDictionary
  0
DICTIONARY
  5
1A
330
C
100
AcDbDictionary
  0
DICTIONARY
  5
17
330
C
100
AcDbDictionary
  3
STANDARD
350
18
  0
DICTIONARY
  5
19
330
C
100
AcDbDictionary
  0
ENDSEC
  0
EOF
