  0
SECTION
  2
HEADER
  9
$ACADVER
  1
AC1014
  9
$HANDSEED
  5
FFFF
  9
$MEASUREMENT
 70
     1
  0
ENDSEC
  0
SECTION
  2
TABLES
  0
TABLE
  2
VPORT
  5
8
330
0
100
AcDbSymbolTable
 70
     4
  0
VPORT
  5
2E
330
8
100
AcDbSymbolTableRecord
100
AcDbViewportTableRecord
  2
*ACTIVE
 70
     0
 10
0.0
 20
0.0
 11
1.0
 21
1.0
 12
210.0
 22
148.5
 13
0.0
 23
0.0
 14
10.0
 24
10.0
 15
10.0
 25
10.0
 16
0.0
 26
0.0
 36
1.0
 17
0.0
 27
0.0
 37
0.0
 40
341.0
 41
1.24
 42
50.0
 43
0.0
 44
0.0
 50
0.0
 51
0.0
 71
     0
 72
   100
 73
     1
 74
     3
 75
     0
 76
     0
 77
     0
 78
     0
  0
ENDTAB
  0
TABLE
  2
LTYPE
  5
5
330
0
100
AcDbSymbolTable
 70
     1
  0
LTYPE
  5
14
330
5
100
AcDbSymbolTableRecord
100
AcDbLinetypeTableRecord
  2
BYBLOCK
 70
     0
  3

 72
    65
 73
     0
 40
0.0
  0
LTYPE
  5
15
330
5
100
AcDbSymbolTableRecord
100
AcDbLinetypeTableRecord
  2
BYLAYER
 70
     0
  3

 72
    65
 73
     0
 40
0.0
  0
LTYPE
  5
16
330
5
100
AcDbSymbolTableRecord
100
AcDbLinetypeTableRecord
  2
CONTINUOUS
 70
     0
  3
Solid line
 72
    65
 73
     0
 40
0.0
  0
ENDTAB
  0
TABLE
  2
LAYER
  5
2
100
AcDbSymbolTable
 70
1
  0
LAYER
  5
50
100
AcDbSymbolTableRecord
100
AcDbLayerTableRecord
  2
0
 70
0
  6
CONTINUOUS
  0
ENDTAB
  0
TABLE
  2
STYLE
  5
3
330
0
100
AcDbSymbolTable
 70
     1
  0
STYLE
  5
11
330
3
100
AcDbSymbolTableRecord
100
AcDbTextStyleTableRecord
  2
STANDARD
 70
     0
 40
0.0
 41
1.0
 50
0.0
 71
     0
 42
2.5
  3
txt
  4

  0
ENDTAB
  0
TABLE
  2
VIEW
  5
6
330
0
100
AcDbSymbolTable
 70
     0
  0
ENDTAB
  0
TABLE
  2
UCS
  5
7
330
0
100
AcDbSymbolTable
 70
     0
  0
ENDTAB
  0
TABLE
  2
APPID
  5
9
330
0
100
AcDbSymbolTable
 70
     2
  0
APPID
  5
12
330
9
100
AcDbSymbolTableRecord
100
AcDbRegAppTableRecord
  2
ACAD
 70
     0
  0
ENDTAB
  0
TABLE
  2
DIMSTYLE
  5
A
330
0
100
AcDbSymbolTable
 70
     1
  0
DIMSTYLE
105
27
330
A
100
AcDbSymbolTableRecord
100
AcDbDimStyleTableRecord
  2
ISO-25
 70
     0
  3

  4

  5

  6

  7

 40
1.0
 41
2.5
 42
0.625
 43
3.75
 44
1.25
 45
0.0
 46
0.0
 47
0.0
 48
0.0
140
2.5
141
2.5
142
0.0
143
0.03937007874016
144
1.0
145
0.0
146
1.0
147
0.625
 71
     0
 72
     0
 73
     0
 74
     0
 75
     0
 76
     0
 77
     1
 78
     8
170
     0
171
     3
172
     1
173
     0
174
     0
175
     0
176
     0
177
     0
178
     0
270
     2
271
     2
272
     2
273
     2
274
     3
340
11
275
     0
280
     0
281
     0
282
     0
283
     0
284
     8
285
     0
286
     0
287
     3
288
     0
  0
ENDTAB
  0
TABLE
  2
BLOCK_RECORD
  5
1
330
0
100
AcDbSymbolTable
 70
     1
  0
BLOCK_RECORD
  5
1F
330
1
100
AcDbSymbolTableRecord
100
AcDbBlockTableRecord
  2
*MODEL_SPACE
  0
BLOCK_RECORD
  5
1B
330
1
100
AcDbSymbolTableRecord
100
AcDbBlockTableRecord
  2
*PAPER_SPACE
  0
ENDTAB
  0
ENDSEC
  0
SECTION
  2
BLOCKS
  0
BLOCK
  5
20
330
1F
100
AcDbEntity
  8
0
100
AcDbBlockBegin
  2
*MODEL_SPACE
 70
     0
 10
0.0
 20
0.0
 30
0.0
  3
*MODEL_SPACE
  1

  0
ENDBLK
  5
21
330
1F
100
AcDbEntity
  8
0
100
AcDbBlockEnd
  0
BLOCK
  5
1C
330
1B
100
AcDbEntity
 67
     1
  8
0
100
AcDbBlockBegin
  2
*PAPER_SPACE
  1

  0
ENDBLK
  5
1D
330
1B
100
AcDbEntity
 67
     1
  8
0
100
AcDbBlockEnd
  0
ENDSEC
  0
SECTION
  2
ENTITIES
  0
SPLINE
  5
100
100
AcDbEntity
  8
0
 62
7
100
AcDbSpline
 70
8
 71
3
 72
8
 73
4
 74
0
 40
0
 40
0
 40
0
 40
0
 40
1
 40
1
 40
1
 40
1
 10
338.443491
 20
342.052029
 30
0.0
 10
334.513026
 20
344.568481
 30
0.0
 10
331.795834
 20
349.462701
 30
0.0
 10
331.795834
 20
354.025816
 30
0.0
  0
SPLINE
  5
101
100
AcDbEntity
  8
0
 62
7
100
AcDbSpline
 70
8
 71
3
 72
8
 73
4
 74
0
 40
0
 40
0
 40
0
 40
0
 40
1
 40
1
 40
1
 40
1
 10
331.795834
 20
354.025816
 30
0.0
 10
331.795834
 20
363.330255
 30
0.0
 10
341.179309
 20
370.353781
 30
0.0
 10
350.021816
 20
367.667953
 30
0.0
  0
SPLINE
  5
102
100
AcDbEntity
  8
0
 62
7
100
AcDbSpline
 70
8
 71
3
 72
8
 73
4
 74
0
 40
0
 40
0
 40
0
 40
0
 40
1
 40
1
 40
1
 40
1
 10
350.021816
 20
367.667953
 30
0.0
 10
356.045585
 20
365.838277
 30
0.0
 10
360.370834
 20
360.139149
 30
0.0
 10
360.370834
 20
354.031547
 30
0.0
  0
SPLINE
  5
103
100
AcDbEntity
  8
0
 62
7
100
AcDbSpline
 70
8
 71
3
 72
8
 73
4
 74
0
 40
0
 40
0
 40
0
 40
0
 40
1
 40
1
 40
1
 40
1
 10
360.370834
 20
354.031547
 30
0.0
 10
360.370834
 20
349.548204
 30
0.0
 10
357.630201
 20
344.529212
 30
0.0
 10
353.914393
 20
342.207763
 30
0.0
  0
LWPOLYLINE
  5
104
100
AcDbEntity
  8
0
 62
7
100
AcDbPolyline
 90
9
 70
0
 10
104.527260
 20
100.396516
 30
0.0
 10
55.235089
 20
171.463229
 30
0.0
 10
104.527260
 20
242.529455
 30
0.0
 10
153.819429
 20
313.595668
 30
0.0
 10
247.217351
 20
313.614215
 30
0.0
 10
340.615270
 20
313.632763
 30
0.0
 10
340.615270
 20
327.147169
 30
0.0
 10
340.615270
 20
340.661572
 30
0.0
 10
338.443491
 20
342.052029
 30
0.0
  0
SPLINE
  5
105
100
AcDbEntity
  8
0
 62
7
100
AcDbSpline
 70
8
 71
3
 72
8
 73
4
 74
0
 40
0
 40
0
 40
0
 40
0
 40
1
 40
1
 40
1
 40
1
 10
369.950391
 20
118.017475
 30
0.0
 10
390.290923
 20
147.315661
 30
0.0
 10
406.933003
 20
171.366286
 30
0.0
 10
406.932791
 20
171.463309
 30
0.0
  0
SPLINE
  5
106
100
AcDbEntity
  8
0
 62
7
100
AcDbSpline
 70
8
 71
3
 72
8
 73
4
 74
0
 40
0
 40
0
 40
0
 40
0
 40
1
 40
1
 40
1
 40
1
 10
406.932791
 20
171.463309
 30
0.0
 10
406.932633
 20
171.560331
 30
0.0
 10
390.290235
 20
195.610948
 30
0.0
 10
369.949756
 20
224.909142
 30
0.0
  0
LWPOLYLINE
  5
107
100
AcDbEntity
  8
0
 62
7
100
AcDbPolyline
 90
12
 70
0
 10
353.914393
 20
342.207763
 30
0.0
 10
351.938061
 20
340.973040
 30
0.0
 10
351.921128
 20
326.845099
 30
0.0
 10
351.904194
 20
312.717156
 30
0.0
 10
400.932094
 20
242.090295
 30
0.0
 10
449.960021
 20
171.463414
 30
0.0
 10
400.667511
 20
100.396966
 30
0.0
 10
351.375027
 20
29.330544
 30
0.0
 10
252.597229
 20
29.330544
 30
0.0
 10
153.819466
 20
29.330544
 30
0.0
 10
104.527294
 20
100.397310
 30
0.0
 10
104.527260
 20
100.396516
 30
0.0
  0
SPLINE
  5
108
100
AcDbEntity
  8
0
 62
7
100
AcDbSpline
 70
8
 71
3
 72
8
 73
4
 74
0
 40
0
 40
0
 40
0
 40
0
 40
1
 40
1
 40
1
 40
1
 10
135.242678
 20
224.909142
 30
0.0
 10
114.901102
 20
195.610948
 30
0.0
 10
98.318868
 20
171.475876
 30
0.0
 10
98.393266
 20
171.275640
 30
0.0
  0
SPLINE
  5
109
100
AcDbEntity
  8
0
 62
7
100
AcDbSpline
 70
8
 71
3
 72
8
 73
4
 74
0
 40
0
 40
0
 40
0
 40
0
 40
1
 40
1
 40
1
 40
1
 10
98.393266
 20
171.275640
 30
0.0
 10
98.507145
 20
170.969146
 30
0.0
 10
159.625467
 20
82.791670
 30
0.0
 10
169.235734
 20
69.068791
 30
0.0
  0
LWPOLYLINE
  5
10a
100
AcDbEntity
  8
0
 62
7
100
AcDbPolyline
 90
5
 70
0
 10
369.949756
 20
224.909142
 30
0.0
 10
332.967065
 20
278.178585
 30
0.0
 10
252.597203
 20
278.178585
 30
0.0
 10
172.227359
 20
278.178585
 30
0.0
 10
135.242678
 20
224.909142
 30
0.0
  0
SPLINE
  5
10b
100
AcDbEntity
  8
0
 62
7
100
AcDbSpline
 70
8
 71
3
 72
8
 73
4
 74
0
 40
0
 40
0
 40
0
 40
0
 40
1
 40
1
 40
1
 40
1
 10
186.627762
 20
138.174809
 30
0.0
 10
178.885109
 20
139.400889
 30
0.0
 10
172.908539
 20
142.315274
 30
0.0
 10
167.635976
 20
147.435888
 30
0.0
  0
SPLINE
  5
10c
100
AcDbEntity
  8
0
 62
7
100
AcDbSpline
 70
8
 71
3
 72
8
 73
4
 74
0
 40
0
 40
0
 40
0
 40
0
 40
1
 40
1
 40
1
 40
1
 10
167.635976
 20
147.435888
 30
0.0
 10
163.091826
 20
151.849085
 30
0.0
 10
160.027967
 20
157.154563
 30
0.0
 10
158.507462
 20
163.243101
 30
0.0
  0
SPLINE
  5
10d
100
AcDbEntity
  8
0
 62
7
100
AcDbSpline
 70
8
 71
3
 72
8
 73
4
 74
0
 40
0
 40
0
 40
0
 40
0
 40
1
 40
1
 40
1
 40
1
 10
158.507462
 20
163.243101
 30
0.0
 10
157.413449
 20
167.623860
 30
0.0
 10
157.413449
 20
174.597219
 30
0.0
 10
158.507462
 20
178.977951
 30
0.0
  0
SPLINE
  5
10e
100
AcDbEntity
  8
0
 62
7
100
AcDbSpline
 70
8
 71
3
 72
8
 73
4
 74
0
 40
0
 40
0
 40
0
 40
0
 40
1
 40
1
 40
1
 40
1
 10
158.507462
 20
178.977951
 30
0.0
 10
159.970375
 20
184.835879
 30
0.0
 10
162.715488
 20
189.737238
 30
0.0
 10
167.010072
 20
194.159264
 30
0.0
  0
SPLINE
  5
10f
100
AcDbEntity
  8
0
 62
7
100
AcDbSpline
 70
8
 71
3
 72
8
 73
4
 74
0
 40
0
 40
0
 40
0
 40
0
 40
1
 40
1
 40
1
 40
1
 10
167.010072
 20
194.159264
 30
0.0
 10
171.423266
 20
198.703414
 30
0.0
 10
176.728744
 20
201.767273
 30
0.0
 10
182.817286
 20
203.287778
 30
0.0
  0
SPLINE
  5
110
100
AcDbEntity
  8
0
 62
7
100
AcDbSpline
 70
8
 71
3
 72
8
 73
4
 74
0
 40
0
 40
0
 40
0
 40
0
 40
1
 40
1
 40
1
 40
1
 10
182.817286
 20
203.287778
 30
0.0
 10
185.248127
 20
203.894838
 30
0.0
 10
186.956150
 20
204.063177
 30
0.0
 10
190.684706
 20
204.063177
 30
0.0
  0
SPLINE
  5
111
100
AcDbEntity
  8
0
 62
7
100
AcDbSpline
 70
8
 71
3
 72
8
 73
4
 74
0
 40
0
 40
0
 40
0
 40
0
 40
1
 40
1
 40
1
 40
1
 10
190.684706
 20
204.063177
 30
0.0
 10
194.413264
 20
204.063177
 30
0.0
 10
196.121287
 20
203.894838
 30
0.0
 10
198.552128
 20
203.287778
 30
0.0
  0
SPLINE
  5
112
100
AcDbEntity
  8
0
 62
7
100
AcDbSpline
 70
8
 71
3
 72
8
 73
4
 74
0
 40
0
 40
0
 40
0
 40
0
 40
1
 40
1
 40
1
 40
1
 10
198.552128
 20
203.287778
 30
0.0
 10
204.706657
 20
201.750795
 30
0.0
 10
210.062321
 20
198.637906
 30
0.0
 10
214.445633
 20
194.049944
 30
0.0
  0
SPLINE
  5
113
100
AcDbEntity
  8
0
 62
7
100
AcDbSpline
 70
8
 71
3
 72
8
 73
4
 74
0
 40
0
 40
0
 40
0
 40
0
 40
1
 40
1
 40
1
 40
1
 10
214.445633
 20
194.049944
 30
0.0
 10
218.776743
 20
189.516628
 30
0.0
 10
221.405947
 20
184.808230
 30
0.0
 10
222.861952
 20
178.977951
 30
0.0
  0
SPLINE
  5
114
100
AcDbEntity
  8
0
 62
7
100
AcDbSpline
 70
8
 71
3
 72
8
 73
4
 74
0
 40
0
 40
0
 40
0
 40
0
 40
1
 40
1
 40
1
 40
1
 10
222.861952
 20
178.977951
 30
0.0
 10
223.955965
 20
174.597219
 30
0.0
 10
223.955965
 20
167.623860
 30
0.0
 10
222.861952
 20
163.243101
 30
0.0
  0
SPLINE
  5
115
100
AcDbEntity
  8
0
 62
7
100
AcDbSpline
 70
8
 71
3
 72
8
 73
4
 74
0
 40
0
 40
0
 40
0
 40
0
 40
1
 40
1
 40
1
 40
1
 10
222.861952
 20
163.243101
 30
0.0
 10
221.341447
 20
157.154563
 30
0.0
 10
218.277588
 20
151.849085
 30
0.0
 10
213.733438
 20
147.435888
 30
0.0
  0
SPLINE
  5
116
100
AcDbEntity
  8
0
 62
7
100
AcDbSpline
 70
8
 71
3
 72
8
 73
4
 74
0
 40
0
 40
0
 40
0
 40
0
 40
1
 40
1
 40
1
 40
1
 10
213.733438
 20
147.435888
 30
0.0
 10
207.519736
 20
141.401244
 30
0.0
 10
200.467121
 20
138.419311
 30
0.0
 10
191.743039
 20
138.138032
 30
0.0
  0
SPLINE
  5
117
100
AcDbEntity
  8
0
 62
7
100
AcDbSpline
 70
8
 71
3
 72
8
 73
4
 74
0
 40
0
 40
0
 40
0
 40
0
 40
1
 40
1
 40
1
 40
1
 10
191.743039
 20
138.138032
 30
0.0
 10
189.511720
 20
138.066092
 30
0.0
 10
187.209845
 20
138.082655
 30
0.0
 10
186.627762
 20
138.174809
 30
0.0
  0
LWPOLYLINE
  5
118
100
AcDbEntity
  8
0
 62
7
100
AcDbPolyline
 90
5
 70
0
 10
169.235734
 20
69.068791
 30
0.0
 10
172.386204
 20
64.570134
 30
0.0
 10
252.676922
 20
64.659060
 30
0.0
 10
332.967647
 20
64.748040
 30
0.0
 10
369.950391
 20
118.017475
 30
0.0
  0
SPLINE
  5
119
100
AcDbEntity
  8
0
 62
7
100
AcDbSpline
 70
8
 71
3
 72
8
 73
4
 74
0
 40
0
 40
0
 40
0
 40
0
 40
1
 40
1
 40
1
 40
1
 10
310.100001
 20
138.174809
 30
0.0
 10
302.357340
 20
139.400889
 30
0.0
 10
296.380773
 20
142.315274
 30
0.0
 10
291.108209
 20
147.435888
 30
0.0
  0
SPLINE
  5
11a
100
AcDbEntity
  8
0
 62
7
100
AcDbSpline
 70
8
 71
3
 72
8
 73
4
 74
0
 40
0
 40
0
 40
0
 40
0
 40
1
 40
1
 40
1
 40
1
 10
291.108209
 20
147.435888
 30
0.0
 10
286.564070
 20
151.849085
 30
0.0
 10
283.500195
 20
157.154563
 30
0.0
 10
281.979687
 20
163.243101
 30
0.0
  0
SPLINE
  5
11b
100
AcDbEntity
  8
0
 62
7
100
AcDbSpline
 70
8
 71
3
 72
8
 73
4
 74
0
 40
0
 40
0
 40
0
 40
0
 40
1
 40
1
 40
1
 40
1
 10
281.979687
 20
163.243101
 30
0.0
 10
280.885688
 20
167.623860
 30
0.0
 10
280.885688
 20
174.597219
 30
0.0
 10
281.979687
 20
178.977951
 30
0.0
  0
SPLINE
  5
11c
100
AcDbEntity
  8
0
 62
7
100
AcDbSpline
 70
8
 71
3
 72
8
 73
4
 74
0
 40
0
 40
0
 40
0
 40
0
 40
1
 40
1
 40
1
 40
1
 10
281.979687
 20
178.977951
 30
0.0
 10
283.442595
 20
184.835879
 30
0.0
 10
286.187727
 20
189.737238
 30
0.0
 10
290.482311
 20
194.159264
 30
0.0
  0
SPLINE
  5
11d
100
AcDbEntity
  8
0
 62
7
100
AcDbSpline
 70
8
 71
3
 72
8
 73
4
 74
0
 40
0
 40
0
 40
0
 40
0
 40
1
 40
1
 40
1
 40
1
 10
290.482311
 20
194.159264
 30
0.0
 10
294.895508
 20
198.703414
 30
0.0
 10
300.200986
 20
201.767273
 30
0.0
 10
306.289525
 20
203.287778
 30
0.0
  0
SPLINE
  5
11e
100
AcDbEntity
  8
0
 62
7
100
AcDbSpline
 70
8
 71
3
 72
8
 73
4
 74
0
 40
0
 40
0
 40
0
 40
0
 40
1
 40
1
 40
1
 40
1
 10
306.289525
 20
203.287778
 30
0.0
 10
308.720358
 20
203.894838
 30
0.0
 10
310.428375
 20
204.063177
 30
0.0
 10
314.156937
 20
204.063177
 30
0.0
  0
SPLINE
  5
11f
100
AcDbEntity
  8
0
 62
7
100
AcDbSpline
 70
8
 71
3
 72
8
 73
4
 74
0
 40
0
 40
0
 40
0
 40
0
 40
1
 40
1
 40
1
 40
1
 10
314.156937
 20
204.063177
 30
0.0
 10
317.885498
 20
204.063177
 30
0.0
 10
319.593516
 20
203.894838
 30
0.0
 10
322.024349
 20
203.287778
 30
0.0
  0
SPLINE
  5
120
100
AcDbEntity
  8
0
 62
7
100
AcDbSpline
 70
8
 71
3
 72
8
 73
4
 74
0
 40
0
 40
0
 40
0
 40
0
 40
1
 40
1
 40
1
 40
1
 10
322.024349
 20
203.287778
 30
0.0
 10
328.178901
 20
201.750795
 30
0.0
 10
333.534544
 20
198.637906
 30
0.0
 10
337.917869
 20
194.049944
 30
0.0
  0
SPLINE
  5
121
100
AcDbEntity
  8
0
 62
7
100
AcDbSpline
 70
8
 71
3
 72
8
 73
4
 74
0
 40
0
 40
0
 40
0
 40
0
 40
1
 40
1
 40
1
 40
1
 10
337.917869
 20
194.049944
 30
0.0
 10
342.248966
 20
189.516628
 30
0.0
 10
344.878184
 20
184.808230
 30
0.0
 10
346.334186
 20
178.977951
 30
0.0
  0
SPLINE
  5
122
100
AcDbEntity
  8
0
 62
7
100
AcDbSpline
 70
8
 71
3
 72
8
 73
4
 74
0
 40
0
 40
0
 40
0
 40
0
 40
1
 40
1
 40
1
 40
1
 10
346.334186
 20
178.977951
 30
0.0
 10
347.428211
 20
174.597219
 30
0.0
 10
347.428211
 20
167.623860
 30
0.0
 10
346.334186
 20
163.243101
 30
0.0
  0
SPLINE
  5
123
100
AcDbEntity
  8
0
 62
7
100
AcDbSpline
 70
8
 71
3
 72
8
 73
4
 74
0
 40
0
 40
0
 40
0
 40
0
 40
1
 40
1
 40
1
 40
1
 10
346.334186
 20
163.243101
 30
0.0
 10
344.813678
 20
157.154563
 30
0.0
 10
341.749830
 20
151.849085
 30
0.0
 10
337.205664
 20
147.435888
 30
0.0
  0
SPLINE
  5
124
100
AcDbEntity
  8
0
 62
7
100
AcDbSpline
 70
8
 71
3
 72
8
 73
4
 74
0
 40
0
 40
0
 40
0
 40
0
 40
1
 40
1
 40
1
 40
1
 10
337.205664
 20
147.435888
 30
0.0
 10
330.991977
 20
141.401244
 30
0.0
 10
323.939350
 20
138.419311
 30
0.0
 10
315.215270
 20
138.138032
 30
0.0
  0
SPLINE
  5
125
100
AcDbEntity
  8
0
 62
7
100
AcDbSpline
 70
8
 71
3
 72
8
 73
4
 74
0
 40
0
 40
0
 40
0
 40
0
 40
1
 40
1
 40
1
 40
1
 10
315.215270
 20
138.138032
 30
0.0
 10
312.983959
 20
138.066092
 30
0.0
 10
310.682084
 20
138.082655
 30
0.0
 10
310.100001
 20
138.174809
 30
0.0
  0
LWPOLYLINE
  5
126
100
AcDbEntity
  8
0
 62
7
100
AcDbPolyline
 90
1
 70
1
 10
186.627762
 20
138.174809
 30
0.0
  0
LWPOLYLINE
  5
127
100
AcDbEntity
  8
0
 62
7
100
AcDbPolyline
 90
1
 70
1
 10
310.100001
 20
138.174809
 30
0.0
  0
SPLINE
  5
128
100
AcDbEntity
  8
0
 62
7
100
AcDbSpline
 70
8
 71
3
 72
8
 73
4
 74
0
 40
0
 40
0
 40
0
 40
0
 40
1
 40
1
 40
1
 40
1
 10
321.474280
 20
380.458025
 30
0.0
 10
325.768996
 20
384.090754
 30
0.0
 10
331.057091
 20
386.829985
 30
0.0
 10
336.662104
 20
388.325328
 30
0.0
  0
SPLINE
  5
129
100
AcDbEntity
  8
0
 62
7
100
AcDbSpline
 70
8
 71
3
 72
8
 73
4
 74
0
 40
0
 40
0
 40
0
 40
0
 40
1
 40
1
 40
1
 40
1
 10
336.662104
 20
388.325328
 30
0.0
 10
339.668459
 20
389.127378
 30
0.0
 10
340.774602
 20
389.238800
 30
0.0
 10
345.730539
 20
389.238800
 30
0.0
  0
SPLINE
  5
12a
100
AcDbEntity
  8
0
 62
7
100
AcDbSpline
 70
8
 71
3
 72
8
 73
4
 74
0
 40
0
 40
0
 40
0
 40
0
 40
1
 40
1
 40
1
 40
1
 10
345.730539
 20
389.238800
 30
0.0
 10
350.686502
 20
389.238800
 30
0.0
 10
351.792646
 20
389.127378
 30
0.0
 10
354.799000
 20
388.325328
 30
0.0
  0
SPLINE
  5
12b
100
AcDbEntity
  8
0
 62
7
100
AcDbSpline
 70
8
 71
3
 72
8
 73
4
 74
0
 40
0
 40
0
 40
0
 40
0
 40
1
 40
1
 40
1
 40
1
 10
354.799000
 20
388.325328
 30
0.0
 10
358.816672
 20
387.253469
 30
0.0
 10
363.346709
 20
385.207507
 30
0.0
 10
366.654080
 20
382.971043
 30
0.0
  0
SPLINE
  5
12c
100
AcDbEntity
  8
0
 62
7
100
AcDbSpline
 70
8
 71
3
 72
8
 73
4
 74
0
 40
0
 40
0
 40
0
 40
0
 40
1
 40
1
 40
1
 40
1
 10
366.654080
 20
382.971043
 30
0.0
 10
369.199345
 20
381.249923
 30
0.0
 10
371.306937
 20
379.436588
 30
0.0
 10
371.306937
 20
378.967796
 30
0.0
  0
SPLINE
  5
12d
100
AcDbEntity
  8
0
 62
7
100
AcDbSpline
 70
8
 71
3
 72
8
 73
4
 74
0
 40
0
 40
0
 40
0
 40
0
 40
1
 40
1
 40
1
 40
1
 10
371.306937
 20
378.967796
 30
0.0
 10
371.306937
 20
378.807430
 30
0.0
 10
369.968013
 20
377.366115
 30
0.0
 10
368.331538
 20
375.764867
 30
0.0
  0
LWPOLYLINE
  5
12e
100
AcDbEntity
  8
0
 62
7
100
AcDbPolyline
 90
3
 70
0
 10
322.525258
 20
375.643243
 30
0.0
 10
319.442994
 20
378.739845
 30
0.0
 10
321.474280
 20
380.458025
 30
0.0
  0
SPLINE
  5
12f
100
AcDbEntity
  8
0
 62
7
100
AcDbSpline
 70
8
 71
3
 72
8
 73
4
 74
0
 40
0
 40
0
 40
0
 40
0
 40
1
 40
1
 40
1
 40
1
 10
363.480853
 20
374.379733
 30
0.0
 10
353.078283
 20
382.846011
 30
0.0
 10
337.365578
 20
382.668322
 30
0.0
 10
327.486804
 20
373.972688
 30
0.0
  0
SPLINE
  5
130
100
AcDbEntity
  8
0
 62
7
100
AcDbSpline
 70
8
 71
3
 72
8
 73
4
 74
0
 40
0
 40
0
 40
0
 40
0
 40
1
 40
1
 40
1
 40
1
 10
327.486804
 20
373.972688
 30
0.0
 10
326.595766
 20
373.188365
 30
0.0
 10
325.808393
 20
372.546639
 30
0.0
 10
325.737114
 20
372.546639
 30
0.0
  0
SPLINE
  5
131
100
AcDbEntity
  8
0
 62
7
100
AcDbSpline
 70
8
 71
3
 72
8
 73
4
 74
0
 40
0
 40
0
 40
0
 40
0
 40
1
 40
1
 40
1
 40
1
 10
325.737114
 20
372.546639
 30
0.0
 10
325.665835
 20
372.546639
 30
0.0
 10
324.220496
 20
373.940112
 30
0.0
 10
322.525258
 20
375.643243
 30
0.0
  0
LWPOLYLINE
  5
132
100
AcDbEntity
  8
0
 62
7
100
AcDbPolyline
 90
3
 70
0
 10
368.331538
 20
375.764867
 30
0.0
 10
365.356114
 20
372.853508
 30
0.0
 10
363.480853
 20
374.379733
 30
0.0
  0
LWPOLYLINE
  5
133
100
AcDbEntity
  8
0
 62
7
100
AcDbPolyline
 90
1
 70
1
 10
322.525258
 20
375.643243
 30
0.0
  0
SPLINE
  5
134
100
AcDbEntity
  8
0
 62
7
100
AcDbSpline
 70
8
 71
3
 72
8
 73
4
 74
0
 40
0
 40
0
 40
0
 40
0
 40
1
 40
1
 40
1
 40
1
 10
304.693108
 20
397.746826
 30
0.0
 10
314.573841
 20
406.711515
 30
0.0
 10
326.276467
 20
411.959870
 30
0.0
 10
339.733334
 20
413.461544
 30
0.0
  0
SPLINE
  5
135
100
AcDbEntity
  8
0
 62
7
100
AcDbSpline
 70
8
 71
3
 72
8
 73
4
 74
0
 40
0
 40
0
 40
0
 40
0
 40
1
 40
1
 40
1
 40
1
 10
339.733334
 20
413.461544
 30
0.0
 10
355.537558
 20
415.225172
 30
0.0
 10
372.091929
 20
410.188982
 30
0.0
 10
384.851778
 20
399.735553
 30
0.0
  0
SPLINE
  5
136
100
AcDbEntity
  8
0
 62
7
100
AcDbSpline
 70
8
 71
3
 72
8
 73
4
 74
0
 40
0
 40
0
 40
0
 40
0
 40
1
 40
1
 40
1
 40
1
 10
384.851778
 20
399.735553
 30
0.0
 10
386.230389
 20
398.606132
 30
0.0
 10
387.667368
 20
397.337396
 30
0.0
 10
388.045087
 20
396.916137
 30
0.0
  0
LWPOLYLINE
  5
137
100
AcDbEntity
  8
0
 62
7
100
AcDbPolyline
 90
3
 70
0
 10
305.540172
 20
392.628549
 30
0.0
 10
302.461216
 20
395.721853
 30
0.0
 10
304.693108
 20
397.746826
 30
0.0
  0
SPLINE
  5
138
100
AcDbEntity
  8
0
 62
7
100
AcDbSpline
 70
8
 71
3
 72
8
 73
4
 74
0
 40
0
 40
0
 40
0
 40
0
 40
1
 40
1
 40
1
 40
1
 10
380.554759
 20
391.854976
 30
0.0
 10
375.342600
 20
396.388378
 30
0.0
 10
368.571701
 20
400.309866
 30
0.0
 10
362.487501
 20
402.318956
 30
0.0
  0
SPLINE
  5
139
100
AcDbEntity
  8
0
 62
7
100
AcDbSpline
 70
8
 71
3
 72
8
 73
4
 74
0
 40
0
 40
0
 40
0
 40
0
 40
1
 40
1
 40
1
 40
1
 10
362.487501
 20
402.318956
 30
0.0
 10
356.734322
 20
404.218733
 30
0.0
 10
352.935752
 20
404.783311
 30
0.0
 10
345.906937
 20
404.783311
 30
0.0
  0
SPLINE
  5
13a
100
AcDbEntity
  8
0
 62
7
100
AcDbSpline
 70
8
 71
3
 72
8
 73
4
 74
0
 40
0
 40
0
 40
0
 40
0
 40
1
 40
1
 40
1
 40
1
 10
345.906937
 20
404.783311
 30
0.0
 10
340.465516
 20
404.783311
 30
0.0
 10
338.764748
 20
404.651094
 30
0.0
 10
335.676372
 20
403.987979
 30
0.0
  0
SPLINE
  5
13b
100
AcDbEntity
  8
0
 62
7
100
AcDbSpline
 70
8
 71
3
 72
8
 73
4
 74
0
 40
0
 40
0
 40
0
 40
0
 40
1
 40
1
 40
1
 40
1
 10
335.676372
 20
403.987979
 30
0.0
 10
326.237441
 20
401.961321
 30
0.0
 10
318.593047
 20
398.178009
 30
0.0
 10
311.476231
 20
392.011027
 30
0.0
  0
LWPOLYLINE
  5
13c
100
AcDbEntity
  8
0
 62
7
100
AcDbPolyline
 90
5
 70
0
 10
388.045087
 20
396.916137
 30
0.0
 10
388.731866
 20
396.150206
 30
0.0
 10
385.681352
 20
393.099719
 30
0.0
 10
382.630892
 20
390.049229
 30
0.0
 10
380.554759
 20
391.854976
 30
0.0
  0
LWPOLYLINE
  5
13d
100
AcDbEntity
  8
0
 62
7
100
AcDbPolyline
 90
3
 70
0
 10
311.476231
 20
392.011027
 30
0.0
 10
308.619155
 20
389.535249
 30
0.0
 10
305.540172
 20
392.628549
 30
0.0
  0
SPLINE
  5
13e
100
AcDbEntity
  8
0
 62
7
100
AcDbSpline
 70
8
 71
3
 72
8
 73
4
 74
0
 40
0
 40
0
 40
0
 40
0
 40
1
 40
1
 40
1
 40
1
 10
287.890135
 20
412.441178
 30
0.0
 10
288.463884
 20
413.048230
 30
0.0
 10
290.441459
 20
414.812946
 30
0.0
 10
292.284706
 20
416.362761
 30
0.0
  0
SPLINE
  5
13f
100
AcDbEntity
  8
0
 62
7
100
AcDbSpline
 70
8
 71
3
 72
8
 73
4
 74
0
 40
0
 40
0
 40
0
 40
0
 40
1
 40
1
 40
1
 40
1
 10
292.284706
 20
416.362761
 30
0.0
 10
307.148045
 20
428.859844
 30
0.0
 10
326.786293
 20
436.044226
 30
0.0
 10
346.083334
 20
436.044226
 30
0.0
  0
SPLINE
  5
140
100
AcDbEntity
  8
0
 62
7
100
AcDbSpline
 70
8
 71
3
 72
8
 73
4
 74
0
 40
0
 40
0
 40
0
 40
0
 40
1
 40
1
 40
1
 40
1
 10
346.083334
 20
436.044226
 30
0.0
 10
365.375508
 20
436.044226
 30
0.0
 10
384.970867
 20
428.877886
 30
0.0
 10
399.881937
 20
416.369175
 30
0.0
  0
SPLINE
  5
141
100
AcDbEntity
  8
0
 62
7
100
AcDbSpline
 70
8
 71
3
 72
8
 73
4
 74
0
 40
0
 40
0
 40
0
 40
0
 40
1
 40
1
 40
1
 40
1
 10
399.881937
 20
416.369175
 30
0.0
 10
401.725209
 20
414.822886
 30
0.0
 10
403.541256
 20
413.214145
 30
0.0
 10
403.917600
 20
412.794201
 30
0.0
  0
LWPOLYLINE
  5
142
100
AcDbEntity
  8
0
 62
7
100
AcDbPolyline
 90
3
 70
0
 10
289.822599
 20
408.346206
 30
0.0
 10
286.846910
 20
411.337443
 30
0.0
 10
287.890135
 20
412.441178
 30
0.0
  0
SPLINE
  5
143
100
AcDbEntity
  8
0
 62
7
100
AcDbSpline
 70
8
 71
3
 72
8
 73
4
 74
0
 40
0
 40
0
 40
0
 40
0
 40
1
 40
1
 40
1
 40
1
 10
401.632341
 20
409.045595
 30
0.0
 10
399.999094
 20
407.403808
 30
0.0
 10
398.579896
 20
406.066165
 30
0.0
 10
398.478613
 20
406.073052
 30
0.0
  0
SPLINE
  5
144
100
AcDbEntity
  8
0
 62
7
100
AcDbSpline
 70
8
 71
3
 72
8
 73
4
 74
0
 40
0
 40
0
 40
0
 40
0
 40
1
 40
1
 40
1
 40
1
 10
398.478613
 20
406.073052
 30
0.0
 10
398.377304
 20
406.079931
 30
0.0
 10
396.652538
 20
407.502106
 30
0.0
 10
394.645806
 20
409.233415
 30
0.0
  0
SPLINE
  5
145
100
AcDbEntity
  8
0
 62
7
100
AcDbSpline
 70
8
 71
3
 72
8
 73
4
 74
0
 40
0
 40
0
 40
0
 40
0
 40
1
 40
1
 40
1
 40
1
 10
394.645806
 20
409.233415
 30
0.0
 10
377.289907
 20
424.207111
 30
0.0
 10
354.158153
 20
430.256992
 30
0.0
 10
331.443039
 20
425.763477
 30
0.0
  0
SPLINE
  5
146
100
AcDbEntity
  8
0
 62
7
100
AcDbSpline
 70
8
 71
3
 72
8
 73
4
 74
0
 40
0
 40
0
 40
0
 40
0
 40
1
 40
1
 40
1
 40
1
 10
331.443039
 20
425.763477
 30
0.0
 10
318.556058
 20
423.214165
 30
0.0
 10
307.307324
 20
417.681415
 30
0.0
 10
297.027626
 20
408.836066
 30
0.0
  0
SPLINE
  5
147
100
AcDbEntity
  8
0
 62
7
100
AcDbSpline
 70
8
 71
3
 72
8
 73
4
 74
0
 40
0
 40
0
 40
0
 40
0
 40
1
 40
1
 40
1
 40
1
 10
297.027626
 20
408.836066
 30
0.0
 10
294.802560
 20
406.921465
 30
0.0
 10
292.940714
 20
405.354973
 30
0.0
 10
292.890178
 20
405.354973
 30
0.0
  0
SPLINE
  5
148
100
AcDbEntity
  8
0
 62
7
100
AcDbSpline
 70
8
 71
3
 72
8
 73
4
 74
0
 40
0
 40
0
 40
0
 40
0
 40
1
 40
1
 40
1
 40
1
 10
292.890178
 20
405.354973
 30
0.0
 10
292.839643
 20
405.354973
 30
0.0
 10
291.459232
 20
406.701027
 30
0.0
 10
289.822599
 20
408.346206
 30
0.0
  0
LWPOLYLINE
  5
149
100
AcDbEntity
  8
0
 62
7
100
AcDbPolyline
 90
3
 70
0
 10
403.917600
 20
412.794201
 30
0.0
 10
404.601918
 20
412.030664
 30
0.0
 10
401.632341
 20
409.045595
 30
0.0
  0
LWPOLYLINE
  5
14a
100
AcDbEntity
  8
0
 62
7
100
AcDbPolyline
 90
1
 70
1
 10
289.822599
 20
408.346206
 30
0.0
  0
ENDSEC
  0
SECTION
  2
OBJECTS
  0
DICTIONARY
  5
C
330
0
100
AcDbDictionary
  3
ACAD_GROUP
350
D
  3
ACAD_MLINESTYLE
350
17
  0
DICTIONARY
  5
D
330
C
100
AcDbDictionary
  0
DICTIONARY
  5
1A
330
C
100
AcDbDictionary
  0
DICTIONARY
  5
17
330
C
100
AcDbDictionary
  3
STANDARD
350
18
  0
DICTIONARY
  5
19
330
C
100
AcDbDictionary
  0
ENDSEC
  0
EOF
