G04 Layer_Physical_Order=1*
G04 Layer_Color=255*
%FSLAX44Y44*%
%MOMM*%
G71*
G01*
G75*
G04:AMPARAMS|DCode=10|XSize=1.397mm|YSize=1.0922mm|CornerRadius=0.2021mm|HoleSize=0mm|Usage=FLASHONLY|Rotation=0.000|XOffset=0mm|YOffset=0mm|HoleType=Round|Shape=RoundedRectangle|*
%AMROUNDEDRECTD10*
21,1,1.3970,0.6881,0,0,0.0*
21,1,0.9929,1.0922,0,0,0.0*
1,1,0.4041,0.4964,-0.3440*
1,1,0.4041,-0.4964,-0.3440*
1,1,0.4041,-0.4964,0.3440*
1,1,0.4041,0.4964,0.3440*
%
%ADD10ROUNDEDRECTD10*%
%ADD11R,1.9000X2.5000*%
%ADD12R,3.5000X1.7800*%
%ADD13R,3.0000X3.0000*%
%ADD14R,3.0000X3.0000*%
G04:AMPARAMS|DCode=15|XSize=1.397mm|YSize=1.0922mm|CornerRadius=0.2021mm|HoleSize=0mm|Usage=FLASHONLY|Rotation=270.000|XOffset=0mm|YOffset=0mm|HoleType=Round|Shape=RoundedRectangle|*
%AMROUNDEDRECTD15*
21,1,1.3970,0.6881,0,0,270.0*
21,1,0.9929,1.0922,0,0,270.0*
1,1,0.4041,-0.3440,-0.4964*
1,1,0.4041,-0.3440,0.4964*
1,1,0.4041,0.3440,0.4964*
1,1,0.4041,0.3440,-0.4964*
%
%ADD15ROUNDEDRECTD15*%
%ADD16R,3.0000X2.7000*%
%ADD17R,0.7600X1.5000*%
%ADD18R,3.2000X1.6000*%
%ADD19R,1.6000X3.2000*%
%ADD20R,5.4000X2.9000*%
%ADD21R,2.9000X5.4000*%
%ADD22R,1.0000X3.1500*%
%ADD23R,3.1500X1.0000*%
%ADD24R,2.5000X1.9000*%
G04:AMPARAMS|DCode=25|XSize=1.8034mm|YSize=1.1938mm|CornerRadius=0.2029mm|HoleSize=0mm|Usage=FLASHONLY|Rotation=90.000|XOffset=0mm|YOffset=0mm|HoleType=Round|Shape=RoundedRectangle|*
%AMROUNDEDRECTD25*
21,1,1.8034,0.7879,0,0,90.0*
21,1,1.3975,1.1938,0,0,90.0*
1,1,0.4059,0.3940,0.6987*
1,1,0.4059,0.3940,-0.6987*
1,1,0.4059,-0.3940,-0.6987*
1,1,0.4059,-0.3940,0.6987*
%
%ADD25ROUNDEDRECTD25*%
G04:AMPARAMS|DCode=26|XSize=1.8034mm|YSize=1.1938mm|CornerRadius=0.2029mm|HoleSize=0mm|Usage=FLASHONLY|Rotation=0.000|XOffset=0mm|YOffset=0mm|HoleType=Round|Shape=RoundedRectangle|*
%AMROUNDEDRECTD26*
21,1,1.8034,0.7879,0,0,0.0*
21,1,1.3975,1.1938,0,0,0.0*
1,1,0.4059,0.6987,-0.3940*
1,1,0.4059,-0.6987,-0.3940*
1,1,0.4059,-0.6987,0.3940*
1,1,0.4059,0.6987,0.3940*
%
%ADD26ROUNDEDRECTD26*%
%ADD27R,0.2500X1.5500*%
%ADD28O,0.2500X1.5500*%
%ADD29R,5.0000X3.4000*%
%ADD30R,4.8000X4.3000*%
%ADD31R,1.3000X1.6000*%
%ADD32R,4.3000X4.8000*%
%ADD33R,1.6000X1.3000*%
%ADD34R,1.1900X3.3000*%
%ADD35C,0.5080*%
%ADD36C,0.2540*%
%ADD37C,0.7620*%
%ADD38C,2.0320*%
%ADD39C,1.2700*%
%ADD40C,1.0160*%
%ADD41C,1.7800*%
%ADD42C,7.0000*%
%ADD43C,1.0000*%
%ADD44C,2.0000*%
%ADD45C,2.5000*%
%ADD46C,1.2700*%
%ADD47C,0.6000*%
G36*
X1750060Y1249680D02*
X1752600Y1247140D01*
Y1202690D01*
Y1176020D01*
X1751330Y1174750D01*
X1748790Y1172210D01*
X1732280D01*
X1728470Y1176020D01*
Y1200150D01*
X1727200Y1201420D01*
X1677670D01*
X1675130Y1203960D01*
Y1229360D01*
X1676400Y1230630D01*
X1725930D01*
X1727200Y1231900D01*
Y1249680D01*
X1728470Y1250950D01*
X1748790D01*
X1750060Y1249680D01*
D02*
G37*
G36*
X1605280D02*
X1607820Y1247140D01*
Y1202690D01*
Y1176020D01*
X1606550Y1174750D01*
X1604010Y1172210D01*
X1587500D01*
X1583690Y1176020D01*
Y1200150D01*
X1582420Y1201420D01*
X1532890D01*
X1530350Y1203960D01*
Y1229360D01*
X1531620Y1230630D01*
X1581150D01*
X1582420Y1231900D01*
Y1249680D01*
X1583690Y1250950D01*
X1604010D01*
X1605280Y1249680D01*
D02*
G37*
G36*
X1457960D02*
X1460500Y1247140D01*
Y1202690D01*
Y1176020D01*
X1459230Y1174750D01*
X1456690Y1172210D01*
X1440180D01*
X1436370Y1176020D01*
Y1200150D01*
X1435100Y1201420D01*
X1385570D01*
X1383030Y1203960D01*
Y1229360D01*
X1384300Y1230630D01*
X1433830D01*
X1435100Y1231900D01*
Y1249680D01*
X1436370Y1250950D01*
X1456690D01*
X1457960Y1249680D01*
D02*
G37*
G36*
X1310640D02*
X1313180Y1247140D01*
Y1202690D01*
Y1176020D01*
X1311910Y1174750D01*
X1309370Y1172210D01*
X1292860D01*
X1289050Y1176020D01*
Y1200150D01*
X1287780Y1201420D01*
X1238250D01*
X1235710Y1203960D01*
Y1229360D01*
X1236980Y1230630D01*
X1286510D01*
X1287780Y1231900D01*
Y1249680D01*
X1289050Y1250950D01*
X1309370D01*
X1310640Y1249680D01*
D02*
G37*
G36*
X1163320D02*
X1165860Y1247140D01*
Y1202690D01*
Y1176020D01*
X1164590Y1174750D01*
X1162050Y1172210D01*
X1145540D01*
X1141730Y1176020D01*
Y1200150D01*
X1140460Y1201420D01*
X1090930D01*
X1088390Y1203960D01*
Y1229360D01*
X1089660Y1230630D01*
X1139190D01*
X1140460Y1231900D01*
Y1249680D01*
X1141730Y1250950D01*
X1162050D01*
X1163320Y1249680D01*
D02*
G37*
G36*
X1017270D02*
X1019810Y1247140D01*
Y1202690D01*
Y1176020D01*
X1018540Y1174750D01*
X1016000Y1172210D01*
X999490D01*
X995680Y1176020D01*
Y1200150D01*
X994410Y1201420D01*
X944880D01*
X942340Y1203960D01*
Y1229360D01*
X943610Y1230630D01*
X993140D01*
X994410Y1231900D01*
Y1249680D01*
X995680Y1250950D01*
X1016000D01*
X1017270Y1249680D01*
D02*
G37*
G36*
X869950Y1248410D02*
X872490Y1245870D01*
Y1201420D01*
Y1174750D01*
X871220Y1173480D01*
X869950Y1172210D01*
X850900D01*
X848360Y1174750D01*
Y1198880D01*
X847090Y1200150D01*
X797560D01*
X795020Y1202690D01*
Y1228090D01*
X796290Y1229360D01*
X845820D01*
X847090Y1230630D01*
Y1248410D01*
X848360Y1249680D01*
X868680D01*
X869950Y1248410D01*
D02*
G37*
G36*
X448310D02*
X449580Y1247140D01*
Y1162050D01*
Y1137920D01*
X433070Y1121410D01*
X416560Y1104900D01*
Y1060450D01*
X415290Y1059180D01*
X392430D01*
X391160Y1060450D01*
Y1090930D01*
X373380Y1108710D01*
Y1130300D01*
X374650Y1131570D01*
X401320D01*
X408940Y1139190D01*
Y1233170D01*
X425450Y1249680D01*
X447040D01*
X448310Y1248410D01*
D02*
G37*
G36*
X1179830Y1076960D02*
X1182370Y1074420D01*
X1182370Y1009650D01*
X1182370Y981710D01*
Y922020D01*
X1122680Y922020D01*
X1120140Y924560D01*
X1120140Y1012190D01*
X1125220Y1017270D01*
X1164590Y1017270D01*
X1165860Y1018540D01*
X1165860Y1043042D01*
X1166758Y1043940D01*
X1167130D01*
X1167130Y1075690D01*
X1168400Y1076960D01*
X1179830Y1076960D01*
D02*
G37*
G36*
X1033780Y1076960D02*
X1036320Y1074420D01*
X1036320Y1009650D01*
X1036320Y981710D01*
Y922020D01*
X976630Y922020D01*
X974090Y924560D01*
X974090Y1012190D01*
X979170Y1017270D01*
X1018540Y1017270D01*
X1019810Y1018540D01*
X1019810Y1043042D01*
X1020708Y1043940D01*
X1021080D01*
X1021080Y1075690D01*
X1022350Y1076960D01*
X1033780Y1076960D01*
D02*
G37*
G36*
X875030D02*
X877570Y1074420D01*
X877570Y1009650D01*
X877570Y981710D01*
Y922020D01*
X817880Y922020D01*
X815340Y924560D01*
X815340Y1012190D01*
X820420Y1017270D01*
X859790Y1017270D01*
X861060Y1018540D01*
X861060Y1043042D01*
X861958Y1043940D01*
X862330D01*
X862330Y1075690D01*
X863600Y1076960D01*
X875030Y1076960D01*
D02*
G37*
G36*
X1766570Y1075690D02*
X1769110Y1073150D01*
X1769110Y1008380D01*
X1769110Y980440D01*
Y920750D01*
X1709420Y920750D01*
X1706880Y923290D01*
X1706880Y1010920D01*
X1711960Y1016000D01*
X1751330Y1016000D01*
X1752600Y1017270D01*
X1752600Y1041772D01*
X1753498Y1042670D01*
X1753870D01*
X1753870Y1074420D01*
X1755140Y1075690D01*
X1766570Y1075690D01*
D02*
G37*
G36*
X1620520D02*
X1623060Y1073150D01*
X1623060Y1008380D01*
X1623060Y980440D01*
Y920750D01*
X1563370Y920750D01*
X1560830Y923290D01*
X1560830Y1010920D01*
X1565910Y1016000D01*
X1605280Y1016000D01*
X1606550Y1017270D01*
X1606550Y1041772D01*
X1607448Y1042670D01*
X1607820D01*
X1607820Y1074420D01*
X1609090Y1075690D01*
X1620520Y1075690D01*
D02*
G37*
G36*
X1473200D02*
X1475740Y1073150D01*
X1475740Y1008380D01*
X1475740Y980440D01*
Y920750D01*
X1416050Y920750D01*
X1413510Y923290D01*
X1413510Y1010920D01*
X1418590Y1016000D01*
X1457960Y1016000D01*
X1459230Y1017270D01*
X1459230Y1041772D01*
X1460128Y1042670D01*
X1460500D01*
X1460500Y1074420D01*
X1461770Y1075690D01*
X1473200Y1075690D01*
D02*
G37*
G36*
X1325880D02*
X1328420Y1073150D01*
X1328420Y1008380D01*
X1328420Y980440D01*
Y920750D01*
X1268730Y920750D01*
X1266190Y923290D01*
X1266190Y1010920D01*
X1271270Y1016000D01*
X1310640Y1016000D01*
X1311910Y1017270D01*
X1311910Y1041772D01*
X1312808Y1042670D01*
X1313180D01*
X1313180Y1074420D01*
X1314450Y1075690D01*
X1325880Y1075690D01*
D02*
G37*
G36*
X568960Y1088390D02*
Y1032510D01*
X567690Y1031240D01*
X557530D01*
X556260Y1029970D01*
Y969010D01*
X554990Y967740D01*
X538480D01*
X537210Y966470D01*
X518160D01*
X516890Y965200D01*
Y944880D01*
X515620Y943610D01*
X497840D01*
X496570Y942340D01*
Y918210D01*
X494030Y915670D01*
X483870D01*
X481330Y918210D01*
Y930910D01*
X482600Y932180D01*
Y933450D01*
Y980440D01*
X480060Y982980D01*
Y1033780D01*
X481330Y1035050D01*
X483870D01*
X485140Y1036320D01*
Y1069747D01*
X485285Y1069937D01*
X486181Y1072099D01*
X486487Y1074420D01*
X486181Y1076741D01*
X485285Y1078903D01*
X485140Y1079093D01*
Y1084580D01*
X486410Y1085850D01*
X532130D01*
X534670Y1088390D01*
X535940Y1089660D01*
X567690D01*
X568960Y1088390D01*
D02*
G37*
G36*
X478790Y977900D02*
Y944880D01*
X477520Y943610D01*
Y933450D01*
X478790Y932180D01*
Y931160D01*
X478740Y930910D01*
Y918210D01*
X478790Y917960D01*
Y916940D01*
X477520Y915670D01*
X464820D01*
X463550Y916940D01*
Y923290D01*
X462280Y924560D01*
X396240D01*
X394970Y925830D01*
Y946150D01*
X396240Y947420D01*
X443230D01*
X444500Y948690D01*
Y977900D01*
X445770Y979170D01*
X477520D01*
X478790Y977900D01*
D02*
G37*
G36*
X624840Y1139190D02*
X706120D01*
X717550Y1127760D01*
Y756920D01*
X716280Y755650D01*
X619760D01*
X618490Y756920D01*
Y770890D01*
X624840Y777240D01*
X643890Y777240D01*
X643890Y834390D01*
X669290Y859790D01*
X669290Y965200D01*
X637540D01*
X636270Y966470D01*
X633730Y969010D01*
Y989330D01*
X664210D01*
X670560Y995680D01*
Y996950D01*
X670560Y1102360D01*
X657860Y1115060D01*
X577850Y1115060D01*
Y1155700D01*
X608330D01*
X624840Y1139190D01*
D02*
G37*
G36*
X270706Y988992D02*
X271474Y987138D01*
X272695Y985546D01*
X274287Y984325D01*
X276141Y983557D01*
X278130Y983295D01*
X287020D01*
Y982980D01*
X289560Y980440D01*
X295910D01*
X297180Y979170D01*
Y977900D01*
Y930910D01*
X295910Y929640D01*
X288290D01*
X287020Y928370D01*
Y901700D01*
X288290Y900430D01*
X306070D01*
X307340Y899160D01*
Y826770D01*
X306070Y825500D01*
X292100D01*
X290830Y824230D01*
Y758190D01*
X289560Y756920D01*
X261620D01*
Y779780D01*
X267970D01*
X269240Y781050D01*
Y875030D01*
X261620D01*
X259080Y877570D01*
Y979170D01*
X260350Y980440D01*
X267970D01*
X269240Y981710D01*
Y990398D01*
X270510Y990481D01*
X270706Y988992D01*
D02*
G37*
G36*
X300990Y1149350D02*
X308610Y1141730D01*
X355600D01*
X363220Y1134110D01*
Y1111250D01*
X364490Y1109980D01*
X379730Y1094740D01*
Y932180D01*
X391160Y920750D01*
X436880D01*
X441960Y915670D01*
X485140Y872490D01*
Y754380D01*
X494030Y745490D01*
X538480D01*
Y702310D01*
X533400Y697230D01*
X495883D01*
X495300Y697307D01*
X494717Y697230D01*
X435610D01*
Y637540D01*
X434340Y636270D01*
X398780D01*
Y698500D01*
Y727710D01*
X337820D01*
Y737870D01*
Y818720D01*
X341630D01*
Y737870D01*
X403860D01*
Y786130D01*
X410210Y792480D01*
X439420Y821690D01*
X439420Y873760D01*
X417830Y873760D01*
X387350Y904240D01*
X367030D01*
X365760Y905510D01*
X350520Y920750D01*
Y985520D01*
Y1071880D01*
X334010Y1088390D01*
X313690Y1108710D01*
X290830D01*
X273050Y1126490D01*
Y1250873D01*
X300990D01*
Y1149350D01*
D02*
G37*
G36*
X335230Y737870D02*
Y727710D01*
X335280Y727460D01*
Y641350D01*
X334010Y640080D01*
X302260D01*
X300990Y641350D01*
Y779780D01*
X322580Y801370D01*
Y818720D01*
X335230D01*
Y737870D01*
D02*
G37*
G36*
X1079500Y615950D02*
X1033780D01*
Y642620D01*
Y643890D01*
X1035050Y645160D01*
X1055370D01*
X1056640Y646430D01*
Y762814D01*
X1056857Y763903D01*
Y771781D01*
X1056640Y772870D01*
Y787400D01*
X1055370Y788670D01*
X1054100Y789940D01*
X1035127D01*
X1034821Y792261D01*
X1033925Y794423D01*
X1033780Y794613D01*
Y801370D01*
Y802640D01*
X1035050Y803910D01*
X1036320Y805180D01*
X1079500D01*
Y615950D01*
D02*
G37*
G36*
X1814830Y615950D02*
X1814830D01*
X1814830Y584200D01*
X711200Y584200D01*
X542290D01*
Y701040D01*
Y744220D01*
X544830Y746760D01*
X549910Y751840D01*
X692150D01*
Y615950D01*
X872490D01*
X872490Y646430D01*
X875030Y648970D01*
X891540Y648970D01*
X892810Y650240D01*
X892810Y760730D01*
X892810Y791210D01*
X867410Y791210D01*
Y805180D01*
X910590Y805180D01*
X910590Y615950D01*
X1181100D01*
X1181100Y642848D01*
Y644118D01*
X1182370Y645388D01*
X1202690D01*
X1203960Y646658D01*
Y787628D01*
X1202690Y788898D01*
X1201420Y790168D01*
X1182370D01*
X1181100Y791438D01*
Y801598D01*
Y802868D01*
X1182370Y804138D01*
X1183640Y805408D01*
X1226820D01*
X1226820Y615950D01*
X1325880D01*
X1325880Y642848D01*
Y644118D01*
X1327150Y645388D01*
X1347470D01*
X1348740Y646658D01*
Y787628D01*
X1347470Y788898D01*
X1346200Y790168D01*
X1327150D01*
X1325880Y791438D01*
Y801598D01*
Y802868D01*
X1327150Y804138D01*
X1328420Y805408D01*
X1371600D01*
X1371600Y615950D01*
X1477010D01*
X1477010Y642848D01*
Y644118D01*
X1478280Y645388D01*
X1498600D01*
X1499870Y646658D01*
Y787628D01*
X1498600Y788898D01*
X1497330Y790168D01*
X1478280D01*
X1477010Y791438D01*
Y801598D01*
Y802868D01*
X1478280Y804138D01*
X1479550Y805408D01*
X1522730D01*
X1522730Y615950D01*
X1623060D01*
X1623060Y642848D01*
Y644118D01*
X1624330Y645388D01*
X1644650D01*
X1645920Y646658D01*
Y787628D01*
X1644650Y788898D01*
X1643380Y790168D01*
X1624330D01*
X1623060Y791438D01*
Y801598D01*
Y802868D01*
X1624330Y804138D01*
X1625600Y805408D01*
X1668780D01*
X1668780Y615950D01*
X1769110D01*
X1769110Y642848D01*
Y644118D01*
X1770380Y645388D01*
X1790700D01*
X1791970Y646658D01*
Y787628D01*
X1790700Y788898D01*
X1789430Y790168D01*
X1770380D01*
X1769110Y791438D01*
Y801598D01*
Y802868D01*
X1770380Y804138D01*
X1771650Y805408D01*
X1814830D01*
X1814830Y615950D01*
D02*
G37*
%LPC*%
G36*
X435610Y1194789D02*
X432624Y1194396D01*
X429841Y1193243D01*
X427451Y1191409D01*
X425617Y1189019D01*
X424464Y1186236D01*
X424071Y1183250D01*
X424464Y1180264D01*
X425617Y1177481D01*
X427451Y1175091D01*
X429841Y1173257D01*
X432624Y1172104D01*
X435610Y1171711D01*
X438596Y1172104D01*
X441379Y1173257D01*
X443769Y1175091D01*
X445603Y1177481D01*
X446755Y1180264D01*
X447149Y1183250D01*
X446755Y1186236D01*
X445603Y1189019D01*
X443769Y1191409D01*
X441379Y1193243D01*
X438596Y1194396D01*
X435610Y1194789D01*
D02*
G37*
%LPD*%
D10*
X1680210Y731901D02*
D03*
Y748919D02*
D03*
X1778000Y731139D02*
D03*
Y714121D02*
D03*
X1780540Y654939D02*
D03*
Y637921D02*
D03*
X800100Y685419D02*
D03*
Y668401D02*
D03*
X781050Y759079D02*
D03*
Y742061D02*
D03*
X753110D02*
D03*
Y759079D02*
D03*
X880110Y658749D02*
D03*
Y641731D02*
D03*
X547370Y917321D02*
D03*
Y934339D02*
D03*
X548640Y832231D02*
D03*
Y849249D02*
D03*
X547370Y957961D02*
D03*
Y974979D02*
D03*
X1094740Y731901D02*
D03*
Y748919D02*
D03*
X1097280Y650621D02*
D03*
Y667639D02*
D03*
X1094740Y781431D02*
D03*
Y798449D02*
D03*
X1189990Y637921D02*
D03*
Y654939D02*
D03*
X951230Y731901D02*
D03*
Y748919D02*
D03*
Y649351D02*
D03*
Y666369D02*
D03*
Y781050D02*
D03*
Y798068D02*
D03*
X1042670Y637921D02*
D03*
Y654939D02*
D03*
X1680210Y650621D02*
D03*
Y667639D02*
D03*
Y781431D02*
D03*
Y798449D02*
D03*
X1534160Y731901D02*
D03*
Y748919D02*
D03*
Y650621D02*
D03*
Y667639D02*
D03*
Y781431D02*
D03*
Y798449D02*
D03*
X1634490Y654939D02*
D03*
Y637921D02*
D03*
X1388110Y731901D02*
D03*
Y748919D02*
D03*
X1389380Y650621D02*
D03*
Y667639D02*
D03*
X1388110Y781431D02*
D03*
Y798449D02*
D03*
X1485900Y654939D02*
D03*
Y637921D02*
D03*
X1239520Y731901D02*
D03*
Y748919D02*
D03*
Y650621D02*
D03*
Y667639D02*
D03*
Y781431D02*
D03*
Y798449D02*
D03*
X1334770Y654939D02*
D03*
Y637921D02*
D03*
X298450Y910209D02*
D03*
Y893191D02*
D03*
X278130Y1007999D02*
D03*
Y990981D02*
D03*
X824230Y685419D02*
D03*
Y668401D02*
D03*
X877570Y733679D02*
D03*
Y716661D02*
D03*
X574040Y887349D02*
D03*
Y870331D02*
D03*
X548640Y887349D02*
D03*
Y870331D02*
D03*
X1122680Y667639D02*
D03*
Y650621D02*
D03*
X1188720Y731139D02*
D03*
Y714121D02*
D03*
X976630Y666369D02*
D03*
Y649351D02*
D03*
X1041400Y731139D02*
D03*
Y714121D02*
D03*
X1705610Y667639D02*
D03*
Y650621D02*
D03*
X1560830Y667639D02*
D03*
Y650621D02*
D03*
X1631950Y731139D02*
D03*
Y714121D02*
D03*
X1414780Y667639D02*
D03*
Y650621D02*
D03*
X1483360Y731139D02*
D03*
Y714121D02*
D03*
X1264920Y667639D02*
D03*
Y650621D02*
D03*
X1333500Y731139D02*
D03*
Y714121D02*
D03*
X424180Y836041D02*
D03*
Y853059D02*
D03*
D11*
X1394460Y1176340D02*
D03*
Y1216340D02*
D03*
X1541780Y1176340D02*
D03*
Y1216340D02*
D03*
X1687830Y1176340D02*
D03*
Y1216340D02*
D03*
X807720Y1175070D02*
D03*
Y1215070D02*
D03*
X403860Y1034100D02*
D03*
Y1074100D02*
D03*
X1101090Y1176340D02*
D03*
Y1216340D02*
D03*
X955040Y1176340D02*
D03*
Y1216340D02*
D03*
X1247140Y1176340D02*
D03*
Y1216340D02*
D03*
X228600Y1097600D02*
D03*
Y1137600D02*
D03*
D12*
X1694180Y1069860D02*
D03*
Y1122160D02*
D03*
X807720Y1069860D02*
D03*
Y1122160D02*
D03*
X415290Y936510D02*
D03*
Y988810D02*
D03*
X1108710Y1069860D02*
D03*
Y1122160D02*
D03*
X963930Y1069860D02*
D03*
Y1122160D02*
D03*
X1549400Y1069860D02*
D03*
Y1122160D02*
D03*
X1402080Y1069860D02*
D03*
Y1122160D02*
D03*
X1254760Y1069860D02*
D03*
Y1122160D02*
D03*
X278130Y1038110D02*
D03*
Y1090410D02*
D03*
D13*
X1785620Y1109980D02*
D03*
X895350Y1111250D02*
D03*
X1639570Y1109980D02*
D03*
X1450340Y1111250D02*
D03*
X1492250D02*
D03*
X1303020D02*
D03*
X1344930D02*
D03*
X482600Y584200D02*
D03*
X326390Y1036320D02*
D03*
Y998220D02*
D03*
X1910080Y1112520D02*
D03*
D14*
X1744091Y1109599D02*
D03*
X855980Y1111250D02*
D03*
X462280Y961390D02*
D03*
X499110D02*
D03*
X750570Y1064260D02*
D03*
X1156970Y1111250D02*
D03*
X1197610D02*
D03*
X1010920D02*
D03*
X1052830D02*
D03*
X106680Y1164590D02*
D03*
X1597660Y1109980D02*
D03*
D15*
X1550289Y694690D02*
D03*
X1533271D02*
D03*
X851281Y1068070D02*
D03*
X868299D02*
D03*
X471551Y924560D02*
D03*
X488569D02*
D03*
X651129Y828040D02*
D03*
X634111D02*
D03*
X1157351Y1068070D02*
D03*
X1174369D02*
D03*
X1011301D02*
D03*
X1028319D02*
D03*
X1744091D02*
D03*
X1761109D02*
D03*
X1598041D02*
D03*
X1615059D02*
D03*
X1450721D02*
D03*
X1467739D02*
D03*
X1303401D02*
D03*
X1320419D02*
D03*
X321691Y890270D02*
D03*
X338709D02*
D03*
X402209Y833120D02*
D03*
X385191D02*
D03*
X375539Y890270D02*
D03*
X358521D02*
D03*
X338709Y913130D02*
D03*
X321691D02*
D03*
X817499Y708660D02*
D03*
X800481D02*
D03*
X626491Y920750D02*
D03*
X643509D02*
D03*
X1112139Y692150D02*
D03*
X1095121D02*
D03*
X966089Y689610D02*
D03*
X949071D02*
D03*
X1697609Y692150D02*
D03*
X1680591D02*
D03*
X1404239D02*
D03*
X1387221D02*
D03*
X1254379D02*
D03*
X1237361D02*
D03*
X385191Y857250D02*
D03*
X402209D02*
D03*
X366141Y788670D02*
D03*
X383159D02*
D03*
D16*
X824230Y762710D02*
D03*
X588010Y949400D02*
D03*
X1140460Y760170D02*
D03*
X994410D02*
D03*
X1725930D02*
D03*
X1579880D02*
D03*
X1433830D02*
D03*
X1285240D02*
D03*
D17*
X805180Y734210D02*
D03*
X817880D02*
D03*
X830580D02*
D03*
X843280D02*
D03*
X805180Y791210D02*
D03*
X817880D02*
D03*
X830580D02*
D03*
X843280D02*
D03*
X607060Y977900D02*
D03*
X594360D02*
D03*
X581660D02*
D03*
X568960D02*
D03*
X607060Y920900D02*
D03*
X594360D02*
D03*
X581660D02*
D03*
X568960D02*
D03*
X1121410Y731670D02*
D03*
X1134110D02*
D03*
X1146810D02*
D03*
X1159510D02*
D03*
X1121410Y788670D02*
D03*
X1134110D02*
D03*
X1146810D02*
D03*
X1159510D02*
D03*
X1013460D02*
D03*
X1000760D02*
D03*
X988060D02*
D03*
X975360D02*
D03*
X1013460Y731670D02*
D03*
X1000760D02*
D03*
X988060D02*
D03*
X975360D02*
D03*
X1706880D02*
D03*
X1719580D02*
D03*
X1732280D02*
D03*
X1744980D02*
D03*
X1706880Y788670D02*
D03*
X1719580D02*
D03*
X1732280D02*
D03*
X1744980D02*
D03*
X1598930D02*
D03*
X1586230D02*
D03*
X1573530D02*
D03*
X1560830D02*
D03*
X1598930Y731670D02*
D03*
X1586230D02*
D03*
X1573530D02*
D03*
X1560830D02*
D03*
X1414780D02*
D03*
X1427480D02*
D03*
X1440180D02*
D03*
X1452880D02*
D03*
X1414780Y788670D02*
D03*
X1427480D02*
D03*
X1440180D02*
D03*
X1452880D02*
D03*
X1304290D02*
D03*
X1291590D02*
D03*
X1278890D02*
D03*
X1266190D02*
D03*
X1304290Y731670D02*
D03*
X1291590D02*
D03*
X1278890D02*
D03*
X1266190D02*
D03*
D18*
X787800Y1007110D02*
D03*
X837800D02*
D03*
X453790Y1075690D02*
D03*
X503790D02*
D03*
X1091330Y1005840D02*
D03*
X1141330D02*
D03*
X946550Y1007110D02*
D03*
X996550D02*
D03*
X1679340Y1005840D02*
D03*
X1729340D02*
D03*
X1533290D02*
D03*
X1583290D02*
D03*
X1385970D02*
D03*
X1435970D02*
D03*
X1237380D02*
D03*
X1287380D02*
D03*
X237890Y835660D02*
D03*
X287890D02*
D03*
D19*
X478790Y670960D02*
D03*
Y720960D02*
D03*
D20*
X844550Y938770D02*
D03*
Y841770D02*
D03*
X1149350Y938770D02*
D03*
Y841770D02*
D03*
X1003300Y938770D02*
D03*
Y841770D02*
D03*
X1734820Y938770D02*
D03*
Y841770D02*
D03*
X1588770Y938770D02*
D03*
Y841770D02*
D03*
X1442720Y938770D02*
D03*
Y841770D02*
D03*
X1295400Y938770D02*
D03*
Y841770D02*
D03*
D21*
X552210Y1060450D02*
D03*
X649210D02*
D03*
X318530Y669290D02*
D03*
X415530D02*
D03*
D22*
X852170Y644040D02*
D03*
Y694540D02*
D03*
X605790Y826920D02*
D03*
Y877420D02*
D03*
X1160780Y640230D02*
D03*
Y690730D02*
D03*
X1013460Y640230D02*
D03*
Y690730D02*
D03*
X1748790Y640230D02*
D03*
Y690730D02*
D03*
X1602740Y640230D02*
D03*
Y690730D02*
D03*
X1456690Y640230D02*
D03*
Y690730D02*
D03*
X1305560Y640230D02*
D03*
Y690730D02*
D03*
D23*
X421490Y755650D02*
D03*
X370990D02*
D03*
D24*
X700090Y1116330D02*
D03*
X740090D02*
D03*
X348300Y1120140D02*
D03*
X388300D02*
D03*
X315910Y768350D02*
D03*
X275910D02*
D03*
D25*
X899668Y974090D02*
D03*
X870712D02*
D03*
X899668Y1033780D02*
D03*
X870712D02*
D03*
X459232Y994410D02*
D03*
X488188D02*
D03*
X459232Y1023620D02*
D03*
X488188D02*
D03*
X1204468Y1033780D02*
D03*
X1175512D02*
D03*
X1204468Y972820D02*
D03*
X1175512D02*
D03*
X1057148D02*
D03*
X1028192D02*
D03*
X1057148Y1033780D02*
D03*
X1028192D02*
D03*
X1789938D02*
D03*
X1760982D02*
D03*
X1789938Y974090D02*
D03*
X1760982D02*
D03*
X1643888D02*
D03*
X1614932D02*
D03*
X1643888Y1033780D02*
D03*
X1614932D02*
D03*
X1496568D02*
D03*
X1467612D02*
D03*
X1497838Y974090D02*
D03*
X1468882D02*
D03*
X1350518D02*
D03*
X1321562D02*
D03*
X1350518Y1033780D02*
D03*
X1321562D02*
D03*
X507238Y762000D02*
D03*
X478282D02*
D03*
X318008Y967740D02*
D03*
X289052D02*
D03*
X318008Y941070D02*
D03*
X289052D02*
D03*
X238252Y967740D02*
D03*
X267208D02*
D03*
X238252Y941070D02*
D03*
X267208D02*
D03*
X238252Y914400D02*
D03*
X267208D02*
D03*
X238252Y887730D02*
D03*
X267208D02*
D03*
D26*
X877570Y769112D02*
D03*
Y798068D02*
D03*
X646430Y948182D02*
D03*
Y977138D02*
D03*
X1191260Y767842D02*
D03*
Y796798D02*
D03*
X1045210Y767842D02*
D03*
Y796798D02*
D03*
X1779270Y767842D02*
D03*
Y796798D02*
D03*
X1633220Y767842D02*
D03*
Y796798D02*
D03*
X1487170Y767842D02*
D03*
Y796798D02*
D03*
X1336040Y767842D02*
D03*
Y796798D02*
D03*
D27*
X326390Y810260D02*
D03*
D28*
X332890D02*
D03*
X339390D02*
D03*
X345890D02*
D03*
X352390D02*
D03*
X358890D02*
D03*
X365390D02*
D03*
X326390Y866260D02*
D03*
X332890D02*
D03*
X339390D02*
D03*
X345890D02*
D03*
X352390D02*
D03*
X358890D02*
D03*
X365390D02*
D03*
D29*
X345890Y838260D02*
D03*
D30*
X568960Y722630D02*
D03*
D31*
X531460Y712630D02*
D03*
Y732630D02*
D03*
D32*
X638810Y726440D02*
D03*
D33*
X628810Y763940D02*
D03*
X648810D02*
D03*
D34*
X706120Y651260D02*
D03*
X756920D02*
D03*
X731520Y715260D02*
D03*
D35*
X1680210Y667639D02*
Y691769D01*
X1791208Y1012952D02*
Y1032510D01*
X1791970Y973582D02*
Y993140D01*
X1679340Y1001630D02*
X1691640Y989330D01*
X1645158Y1012952D02*
Y1032510D01*
X1645920Y973582D02*
Y993140D01*
X1533290Y1001630D02*
X1545590Y989330D01*
X1497838Y1012952D02*
Y1032510D01*
X1498600Y973582D02*
Y993140D01*
X1385970Y1001630D02*
X1398270Y989330D01*
X1349248Y1012952D02*
Y1032510D01*
X1350010Y973582D02*
Y993140D01*
X1237380Y1001630D02*
X1249680Y989330D01*
X1203198Y1012952D02*
Y1032510D01*
X1203960Y973582D02*
Y993140D01*
X1091330Y1001630D02*
X1103630Y989330D01*
X1058418Y1014222D02*
Y1033780D01*
X1059180Y974852D02*
Y994410D01*
X946550Y1002900D02*
X958850Y990600D01*
X1024890Y788670D02*
X1026160Y789940D01*
X1013460Y788670D02*
X1024890D01*
X1159510D02*
X1160780Y789940D01*
X1172210D01*
X1756410Y788670D02*
X1757680Y789940D01*
X1744980Y788670D02*
X1756410D01*
X1598930D02*
X1600200Y789940D01*
X1611630D01*
X1464310Y788670D02*
X1465580Y789940D01*
X1452880Y788670D02*
X1464310D01*
X1315720D02*
X1316990Y789940D01*
X1304290Y788670D02*
X1315720D01*
X1706880Y779220D02*
Y788670D01*
Y779220D02*
X1725930Y760170D01*
X1560830Y779220D02*
Y788670D01*
Y779220D02*
X1579880Y760170D01*
X1414780Y779220D02*
Y788670D01*
Y779220D02*
X1433830Y760170D01*
X1266190Y779220D02*
Y788670D01*
Y779220D02*
X1285240Y760170D01*
X1121410Y779220D02*
Y788670D01*
Y779220D02*
X1140460Y760170D01*
X975360Y779220D02*
X994410Y760170D01*
X975360Y779220D02*
Y788670D01*
X781050Y759079D02*
Y782320D01*
X1631950Y699770D02*
Y709041D01*
X1628140Y712851D02*
X1631950Y709041D01*
X1705610Y647700D02*
Y650621D01*
X1694180Y636270D02*
X1705610Y647700D01*
X1680210Y650240D02*
X1694180Y636270D01*
X1680210Y650240D02*
Y650621D01*
X1774190Y712851D02*
X1778000Y709041D01*
Y699770D02*
Y709041D01*
X1759712Y767842D02*
X1776730D01*
X1680210Y717550D02*
Y729361D01*
X1613662Y767842D02*
X1630680D01*
X1534160Y717550D02*
Y729361D01*
X1536700Y646430D02*
X1546860Y636270D01*
X1548130D02*
X1558290Y646430D01*
X1467612Y767842D02*
X1484630D01*
X1388110Y717550D02*
Y729361D01*
X1482090Y699770D02*
Y712851D01*
X1390650Y646430D02*
X1400810Y636270D01*
X1402080D02*
X1412240Y646430D01*
X1188720Y699770D02*
Y712851D01*
X1187450Y714121D02*
X1188720Y712851D01*
X1094740Y718820D02*
Y729361D01*
X1097280Y731901D01*
X1263650Y646430D02*
X1267460D01*
X1253490Y636270D02*
X1263650Y646430D01*
X1252220Y636270D02*
X1253490D01*
X1242060Y646430D02*
X1252220Y636270D01*
X1333500Y699770D02*
Y712851D01*
X1332230Y714121D02*
X1333500Y712851D01*
X1239520Y717550D02*
Y729361D01*
X1242060Y731901D01*
X1319022Y767842D02*
X1336040D01*
X1097280Y646430D02*
X1109980Y633730D01*
X1122680Y646430D01*
X1174242Y767842D02*
X1191260D01*
X1041400Y698500D02*
Y714121D01*
X1027430Y767080D02*
X1028192Y767842D01*
X1045210D01*
X951230Y717550D02*
Y731901D01*
X976630Y646430D02*
Y649351D01*
X963930Y633730D02*
X976630Y646430D01*
X951230D02*
X963930Y633730D01*
X951230Y646430D02*
Y649351D01*
X824230Y668020D02*
Y668401D01*
X811530Y655320D02*
X824230Y668020D01*
X800100Y666750D02*
X811530Y655320D01*
X800100Y666750D02*
Y668401D01*
X877570Y701040D02*
Y716661D01*
X865632Y769112D02*
X877570D01*
X857250Y760730D02*
X865632Y769112D01*
X787800Y1002900D02*
X800100Y990600D01*
X787800Y1002900D02*
Y1007110D01*
X899668Y974090D02*
X900430Y974852D01*
Y994410D01*
X899668Y1014222D02*
X900430Y1013460D01*
X899668Y1014222D02*
Y1033780D01*
X750570Y1064260D02*
Y1075690D01*
X763270Y1088390D01*
X1910080Y1085850D02*
Y1112520D01*
X499110Y584200D02*
X506730Y591820D01*
X482600Y584200D02*
X499110D01*
X106680Y1164590D02*
X132080D01*
X455060Y1074420D02*
X477520D01*
X453790Y1075690D02*
X455060Y1074420D01*
X458470Y1042670D02*
X459232Y1041908D01*
Y1023620D02*
Y1041908D01*
X447802Y1005840D02*
X459232Y994410D01*
X444500Y1005840D02*
X447802D01*
X643509Y920750D02*
X650240D01*
X660400Y930910D01*
X646430Y944880D02*
X660400Y930910D01*
X646430Y944880D02*
Y948182D01*
X568960Y968450D02*
X588010Y949400D01*
X568960Y968450D02*
Y977900D01*
X540639Y917321D02*
X547370D01*
X527050Y930910D02*
X540639Y917321D01*
X626341Y920900D02*
X626491Y920750D01*
X607060Y920900D02*
X626341D01*
X548640Y832231D02*
X551561D01*
X574040Y854710D01*
Y870331D01*
X507238Y762000D02*
X508000Y762762D01*
Y782320D01*
X495300Y687470D02*
Y688340D01*
X478790Y670960D02*
X495300Y687470D01*
X316230Y866140D02*
Y884809D01*
X321691Y890270D01*
X237890Y835660D02*
X242570Y840340D01*
Y852170D01*
X233680Y887730D02*
X238252D01*
X220980Y900430D02*
X233680Y887730D01*
X220980Y900430D02*
X234950Y914400D01*
X238252D01*
X234950Y941070D02*
X238252D01*
X220980Y955040D02*
X234950Y941070D01*
X220980Y955040D02*
X233680Y967740D01*
X238252D01*
X318008Y941070D02*
Y941578D01*
X331470Y955040D01*
X318770Y967740D02*
X331470Y955040D01*
X318008Y967740D02*
X318770D01*
X383159Y788670D02*
Y804291D01*
X377190Y810260D02*
X383159Y804291D01*
X402209Y857250D02*
X402590Y857631D01*
Y873760D01*
X398780Y877570D02*
X402590Y873760D01*
X387350Y877570D02*
X398780D01*
X419989Y857250D02*
X424180Y853059D01*
X402209Y857250D02*
X419989D01*
X375539Y889381D02*
X387350Y877570D01*
X375539Y889381D02*
Y890270D01*
X1704340Y807720D02*
X1718310D01*
X1558290D02*
X1572260D01*
X1570990D02*
X1573530Y805180D01*
X1558290Y807720D02*
X1570990D01*
X1412240D02*
X1426210D01*
X1263650D02*
X1277620D01*
X1118870D02*
X1132840D01*
X972820D02*
X986790D01*
X843280Y791210D02*
X844550Y792480D01*
X855980D01*
X816610Y810260D02*
X817880Y808990D01*
X802640Y810260D02*
X816610D01*
D36*
X365390D02*
X377190D01*
X358890D02*
X365390D01*
X326270Y866140D02*
X326390Y866260D01*
X316230Y866140D02*
X326270D01*
X339390Y866260D02*
X345890D01*
X332890D02*
X339390D01*
X326390D02*
X332890D01*
X298450Y910209D02*
X301371Y913130D01*
X321691D01*
X358521Y890270D02*
Y902589D01*
X347980Y913130D02*
X358521Y902589D01*
X338709Y913130D02*
X347980D01*
X421259Y833120D02*
X424180Y836041D01*
X402209Y833120D02*
X421259D01*
X385191D02*
Y857250D01*
X376181Y866260D02*
X385191Y857250D01*
X365390Y866260D02*
X376181D01*
X338709Y890270D02*
X352390Y876589D01*
Y866260D02*
Y876589D01*
X358890Y866260D02*
Y889901D01*
X369570Y755650D02*
X370990D01*
X345890Y779330D02*
X369570Y755650D01*
X345890Y779330D02*
Y810260D01*
X355600Y788670D02*
X366141D01*
X352390Y791880D02*
X355600Y788670D01*
X352390Y791880D02*
Y810260D01*
D37*
X1719580Y788670D02*
Y806450D01*
X1734820Y821690D01*
Y841770D01*
X1573530Y806450D02*
X1588770Y821690D01*
Y841770D01*
X1586230Y788670D02*
Y802640D01*
X1598930Y815340D01*
X1573530Y788670D02*
Y805180D01*
X1442720Y821690D02*
Y841770D01*
X1427480Y806450D02*
X1442720Y821690D01*
X1427480Y788670D02*
Y806450D01*
X1440180Y802640D02*
X1452880Y815340D01*
X1440180Y788670D02*
Y802640D01*
X1295400Y822960D02*
Y841770D01*
X1278890Y806450D02*
X1295400Y822960D01*
X1278890Y788670D02*
Y806450D01*
X817880Y808990D02*
Y815100D01*
Y791210D02*
Y808990D01*
X1748790Y640230D02*
X1763499Y654939D01*
X1778000D01*
X1689631Y748919D02*
X1706880Y731670D01*
X1680210Y748919D02*
X1689631D01*
X1680210D02*
Y781431D01*
X1706880Y667639D02*
Y681609D01*
X1696339Y692150D02*
X1706880Y681609D01*
X1696339Y692150D02*
X1719580Y715391D01*
Y731670D01*
X1732280Y726440D02*
Y734210D01*
X1748790Y690730D02*
Y707390D01*
X1732280Y723900D02*
X1748790Y707390D01*
X1732280Y723900D02*
Y731670D01*
X1744980D02*
X1774929D01*
X1769110Y815340D02*
X1779270Y805180D01*
Y798068D02*
Y805180D01*
X1776730Y795528D02*
X1779270Y798068D01*
X1744980Y815340D02*
X1769110D01*
X1732280Y802640D02*
X1744980Y815340D01*
X1732280Y788670D02*
Y802640D01*
X1680210Y798449D02*
Y918210D01*
X1700770Y938770D01*
X1734820D01*
X1744091Y1068070D02*
Y1109599D01*
X1761109Y1068070D02*
X1785620Y1092581D01*
Y1109980D01*
X1694180Y1068070D02*
X1741031D01*
X1694180Y1122160D02*
Y1154430D01*
X1686560Y1162050D02*
X1694180Y1154430D01*
X1686560Y1162050D02*
Y1176340D01*
X1534160Y748919D02*
Y781431D01*
Y748919D02*
X1543581D01*
X1560830Y731670D01*
X1598930Y815340D02*
X1623060D01*
X1586230Y723900D02*
Y731670D01*
Y723900D02*
X1602740Y707390D01*
Y690730D02*
Y707390D01*
X1573530Y715391D02*
Y731670D01*
X1550289Y692150D02*
X1573530Y715391D01*
X1550289Y692150D02*
X1560830Y681609D01*
Y667639D02*
Y681609D01*
X1533271Y669798D02*
Y692150D01*
X1617449Y654939D02*
X1631950D01*
X1602740Y640230D02*
X1617449Y654939D01*
X1630680Y795528D02*
X1633220Y798068D01*
Y805180D01*
X1623060Y815340D02*
X1633220Y805180D01*
X1598930Y731670D02*
X1628879D01*
X1629410Y731139D01*
X1482829Y731670D02*
X1483360Y731139D01*
X1452880Y731670D02*
X1482829D01*
X1554720Y938770D02*
X1588770D01*
X1534160Y918210D02*
X1554720Y938770D01*
X1534160Y798449D02*
Y918210D01*
X1639570Y1092581D02*
Y1109980D01*
X1615059Y1068070D02*
X1639570Y1092581D01*
X1541780Y1162050D02*
Y1176340D01*
Y1162050D02*
X1549400Y1154430D01*
Y1122160D02*
Y1154430D01*
X1551190Y1068070D02*
X1598041D01*
Y1109599D01*
X1477010Y815340D02*
X1487170Y805180D01*
Y798068D02*
Y805180D01*
X1484630Y795528D02*
X1487170Y798068D01*
X1456690Y640230D02*
X1471399Y654939D01*
X1485900D01*
X1387221Y669798D02*
Y692150D01*
X1414780Y667639D02*
Y681609D01*
X1404239Y692150D02*
X1414780Y681609D01*
X1404239Y692150D02*
X1427480Y715391D01*
Y731670D01*
X1456690Y690730D02*
Y707390D01*
X1440180Y723900D02*
X1456690Y707390D01*
X1440180Y723900D02*
Y731670D01*
X1452880Y815340D02*
X1477010D01*
X1441690Y939800D02*
X1442720Y938770D01*
X1407160Y939800D02*
X1441690D01*
X1388110Y920750D02*
X1407160Y939800D01*
X1388110Y798449D02*
Y920750D01*
X1397531Y748919D02*
X1414780Y731670D01*
X1388110Y748919D02*
X1397531D01*
X1388110D02*
Y781431D01*
X1492250Y1092581D02*
Y1111250D01*
X1467739Y1068070D02*
X1492250Y1092581D01*
X1450721Y1068070D02*
Y1110869D01*
X1403870Y1068070D02*
X1450721D01*
X1394460Y1158240D02*
Y1176340D01*
Y1158240D02*
X1402080Y1150620D01*
Y1122160D02*
Y1150620D01*
X1040869Y731670D02*
X1041400Y731139D01*
X1013460Y731670D02*
X1040869D01*
X1013460Y640230D02*
X1017420D01*
X1032129Y654939D01*
X1042670D01*
X1000760Y716280D02*
Y731670D01*
Y716280D02*
X1013460Y703580D01*
Y690730D02*
Y703580D01*
X960501Y750189D02*
X975360Y735330D01*
Y731670D02*
Y735330D01*
X1017270Y835420D02*
X1022350Y840500D01*
X955040Y1160780D02*
Y1176340D01*
Y1160780D02*
X963930Y1151890D01*
Y1122160D02*
Y1151890D01*
X632991Y826920D02*
X634111Y828040D01*
X605790Y826920D02*
X632991D01*
X547370Y934339D02*
Y957961D01*
X555521Y934339D02*
X568960Y920900D01*
X547370Y934339D02*
X555521D01*
X548640Y849249D02*
Y870331D01*
Y887349D02*
X574040D01*
Y896620D01*
X581660Y904240D01*
Y920900D01*
X605790Y877420D02*
Y895350D01*
X594360Y906780D02*
X605790Y895350D01*
X594360Y906780D02*
Y920900D01*
X646430Y979170D02*
Y993140D01*
X627380Y1012190D02*
X646430Y993140D01*
X606880Y1012190D02*
X627380D01*
X594360Y999670D02*
X606880Y1012190D01*
X594360Y977900D02*
Y999670D01*
X607060Y977900D02*
Y994410D01*
X609600Y996950D01*
X640080Y1060450D02*
X649210D01*
X581660Y1002030D02*
X640080Y1060450D01*
X581660Y977900D02*
Y1002030D01*
X853440Y837960D02*
X857250Y841770D01*
X844700Y732790D02*
X874141D01*
X830580Y721360D02*
Y734210D01*
Y721360D02*
X852170Y699770D01*
Y694540D02*
Y699770D01*
Y644040D02*
X866879Y658749D01*
X880110D01*
X824230Y685419D02*
Y701929D01*
X817499Y708660D02*
X824230Y701929D01*
X817880Y709041D02*
Y734210D01*
X817499Y708660D02*
X817880Y709041D01*
X800100Y685419D02*
Y708279D01*
X800481Y708660D01*
X807720Y1128510D02*
Y1175070D01*
X805180Y781760D02*
Y791210D01*
Y781760D02*
X824230Y762710D01*
X817880Y815100D02*
X844550Y841770D01*
X753110Y759079D02*
Y819150D01*
X844550Y910590D01*
Y938770D01*
X850251Y945769D02*
X857250Y938770D01*
X753110Y736850D02*
Y742061D01*
X731520Y715260D02*
X753110Y736850D01*
X706120Y651260D02*
Y689860D01*
X731520Y715260D01*
X756920Y651260D02*
Y701040D01*
X781050Y725170D01*
Y742061D01*
X788901Y734210D01*
X805180D01*
X1028319Y1068070D02*
X1052830Y1092581D01*
Y1111250D01*
X1011301Y1068070D02*
Y1110869D01*
X1010920Y1111250D02*
X1011301Y1110869D01*
X965720Y1068070D02*
X1011301D01*
X963930Y1069860D02*
X965720Y1068070D01*
X868299D02*
X895350Y1095121D01*
Y1111250D01*
X851281Y1068070D02*
Y1105281D01*
X855980Y1109980D01*
X809510Y1068070D02*
X851281D01*
X807720Y1069860D02*
X809510Y1068070D01*
X988060Y788670D02*
Y807720D01*
X1003300Y822960D01*
Y841770D01*
X1000760Y788670D02*
Y805180D01*
X1045210Y796798D02*
Y808990D01*
X1000760Y805180D02*
X1010920Y815340D01*
X1038860D01*
X1045210Y808990D01*
X1173099Y1068070D02*
X1197610Y1092581D01*
Y1111250D01*
X1108710Y1122160D02*
Y1151890D01*
X1101090Y1159510D02*
X1108710Y1151890D01*
X1101090Y1159510D02*
Y1176340D01*
X951230Y748919D02*
Y750189D01*
Y781050D01*
Y750189D02*
X960501D01*
X951230Y798068D02*
Y924560D01*
X965440Y938770D01*
X1003300D01*
X988060Y711581D02*
Y731670D01*
X966089Y689610D02*
X988060Y711581D01*
X966089Y689610D02*
X976630Y679069D01*
Y666369D02*
Y679069D01*
X949071Y668528D02*
Y689610D01*
X1094740Y798449D02*
Y916940D01*
X1116570Y938770D01*
X1149350D01*
X1094740Y748919D02*
Y781431D01*
X830580Y791210D02*
Y806450D01*
X835660Y811530D01*
X864108D01*
X877570Y798068D01*
X1160041Y731139D02*
X1188720D01*
X1146810Y721360D02*
Y731670D01*
Y721360D02*
X1160780Y707390D01*
Y690730D02*
Y707390D01*
X1134110Y714121D02*
Y731670D01*
X1112139Y692150D02*
X1134110Y714121D01*
X1112139Y692150D02*
X1122680Y681609D01*
Y667639D02*
Y681609D01*
X1095121Y669798D02*
Y692150D01*
X1160780Y640230D02*
X1175489Y654939D01*
X1189990D01*
X1146810Y788670D02*
Y803910D01*
X1158240Y815340D01*
X1184910D01*
X1191260Y808990D01*
Y796798D02*
Y808990D01*
X1134110Y788670D02*
Y807720D01*
X1149350Y822960D01*
Y841770D01*
X1094740Y748919D02*
X1107821D01*
X1121410Y735330D01*
Y731670D02*
Y735330D01*
X1110500Y1068070D02*
X1156081D01*
X1157351D02*
Y1110869D01*
X1156970Y1111250D02*
X1157351Y1110869D01*
X1320419Y1068070D02*
X1344930Y1092581D01*
Y1111250D01*
X1254760Y1069860D02*
X1256550Y1068070D01*
X1303401D01*
Y1110869D01*
X1254760Y1122160D02*
Y1153160D01*
X1247140Y1160780D02*
X1254760Y1153160D01*
X1247140Y1160780D02*
Y1176340D01*
X1239520Y798449D02*
Y918210D01*
X1260080Y938770D01*
X1295400D01*
X1304290Y731670D02*
X1332969D01*
X1278890Y716661D02*
Y731670D01*
X1254379Y692150D02*
X1278890Y716661D01*
X1239520Y748919D02*
Y781431D01*
Y748919D02*
X1248941D01*
X1266190Y731670D01*
X1254379Y692150D02*
X1264920Y681609D01*
Y667639D02*
Y681609D01*
X1237361Y669798D02*
Y692150D01*
Y669798D02*
X1239520Y667639D01*
X1291590Y721360D02*
Y731670D01*
Y721360D02*
X1305560Y707390D01*
Y690730D02*
Y707390D01*
X1320269Y654939D02*
X1334770D01*
X1305560Y640230D02*
X1320269Y654939D01*
X1291590Y788670D02*
Y801370D01*
X1305560Y815340D01*
X1329690D01*
X1336040Y808990D01*
Y796798D02*
Y808990D01*
X1586230Y726440D02*
Y734210D01*
D38*
X403860Y1000240D02*
X415290Y988810D01*
X403860Y1000240D02*
Y1034100D01*
D39*
X740090Y1116330D02*
Y1147130D01*
X711200Y1176020D02*
X740090Y1147130D01*
X711200Y1176020D02*
Y1183250D01*
X713150Y1210750D02*
Y1236300D01*
Y1185200D02*
Y1210750D01*
X711200Y1238250D02*
X713150Y1236300D01*
X689610Y1259840D02*
X711200Y1238250D01*
Y1183250D02*
X713150Y1185200D01*
X260350Y1259840D02*
X689610D01*
X228600Y1228090D02*
X260350Y1259840D01*
X228600Y1137600D02*
Y1228090D01*
D40*
Y1097600D02*
X235790Y1090410D01*
X278130D01*
Y990981D02*
X319151D01*
X278130Y1038110D02*
X324600D01*
X278130Y1007999D02*
Y1038110D01*
D41*
X327020Y1210750D02*
D03*
X288970D02*
D03*
X287020Y1183250D02*
D03*
X329020D02*
D03*
Y1238250D02*
D03*
X287020D02*
D03*
X751200Y1210750D02*
D03*
X713150D02*
D03*
X711200Y1183250D02*
D03*
X753200D02*
D03*
Y1238250D02*
D03*
X711200D02*
D03*
X899790Y1210750D02*
D03*
X861740D02*
D03*
X859790Y1183250D02*
D03*
X901790D02*
D03*
Y1238250D02*
D03*
X859790D02*
D03*
X1778630Y1210750D02*
D03*
X1740580D02*
D03*
X1738630Y1183250D02*
D03*
X1780630D02*
D03*
Y1238250D02*
D03*
X1738630D02*
D03*
X1635120Y1210750D02*
D03*
X1597070D02*
D03*
X1595120Y1183250D02*
D03*
X1637120D02*
D03*
Y1238250D02*
D03*
X1595120D02*
D03*
X1487800Y1210750D02*
D03*
X1449750D02*
D03*
X1447800Y1183250D02*
D03*
X1489800D02*
D03*
Y1238250D02*
D03*
X1447800D02*
D03*
X1340480Y1210750D02*
D03*
X1302430D02*
D03*
X1300480Y1183250D02*
D03*
X1342480D02*
D03*
Y1238250D02*
D03*
X1300480D02*
D03*
X475610Y1210750D02*
D03*
X437560D02*
D03*
X435610Y1183250D02*
D03*
X477610D02*
D03*
Y1238250D02*
D03*
X435610D02*
D03*
X1193160Y1210750D02*
D03*
X1155110D02*
D03*
X1153160Y1183250D02*
D03*
X1195160D02*
D03*
Y1238250D02*
D03*
X1153160D02*
D03*
X1047110Y1210750D02*
D03*
X1009060D02*
D03*
X1007110Y1183250D02*
D03*
X1049110D02*
D03*
Y1238250D02*
D03*
X1007110D02*
D03*
D42*
X1884680Y612140D02*
D03*
X132080D02*
D03*
X1884680Y1245870D02*
D03*
X132080D02*
D03*
D43*
X177800Y670560D02*
D03*
X1847850D02*
D03*
X1856740Y1189990D02*
D03*
D44*
X595630Y1236150D02*
D03*
Y1143650D02*
D03*
D45*
Y1203650D02*
D03*
X643130Y1208650D02*
D03*
Y1161650D02*
D03*
X548130Y1208650D02*
D03*
Y1161650D02*
D03*
D46*
X1791970Y1012190D02*
D03*
Y993140D02*
D03*
X1691640Y989330D02*
D03*
X1645920Y1012190D02*
D03*
Y993140D02*
D03*
X1545590Y989330D02*
D03*
X1498600Y1012190D02*
D03*
Y993140D02*
D03*
X1398270Y989330D02*
D03*
X1350010Y1012190D02*
D03*
Y993140D02*
D03*
X1249680Y989330D02*
D03*
X1203960Y1012190D02*
D03*
Y993140D02*
D03*
X1103630Y989330D02*
D03*
X1059180Y1013460D02*
D03*
Y994410D02*
D03*
X958850Y990600D02*
D03*
X781050Y782320D02*
D03*
X1631950Y699770D02*
D03*
X1778000D02*
D03*
X1758950Y767080D02*
D03*
X1680210Y717550D02*
D03*
X1694180Y636270D02*
D03*
X1612900Y767080D02*
D03*
X1534160Y717550D02*
D03*
X1548130Y636270D02*
D03*
X1466850Y767080D02*
D03*
X1388110Y717550D02*
D03*
X1482090Y699770D02*
D03*
X1402080Y636270D02*
D03*
X1188720Y699770D02*
D03*
X1094740Y718820D02*
D03*
X1253490Y636270D02*
D03*
X1333500Y699770D02*
D03*
X1239520Y717550D02*
D03*
X1318260Y767080D02*
D03*
X1173480D02*
D03*
X1109980Y633730D02*
D03*
X1041400Y698500D02*
D03*
X963930Y633730D02*
D03*
X1027430Y767080D02*
D03*
X951230Y717550D02*
D03*
X811530Y655320D02*
D03*
X877570Y701040D02*
D03*
X857250Y760730D02*
D03*
X800100Y990600D02*
D03*
X900430Y994410D02*
D03*
Y1013460D02*
D03*
X763270Y1088390D02*
D03*
X1910080Y1085850D02*
D03*
X506730Y591820D02*
D03*
X132080Y1164590D02*
D03*
X477520Y1074420D02*
D03*
X444500Y1005840D02*
D03*
X458470Y1042670D02*
D03*
X660400Y930910D02*
D03*
X527050D02*
D03*
X574040Y854710D02*
D03*
X508000Y782320D02*
D03*
X495300Y688340D02*
D03*
X242570Y852170D02*
D03*
X220980Y900430D02*
D03*
Y955040D02*
D03*
X331470D02*
D03*
X377190Y810260D02*
D03*
X387350Y877570D02*
D03*
X316230Y866140D02*
D03*
X1704340Y807720D02*
D03*
X1757680Y789940D02*
D03*
X1558290Y807720D02*
D03*
X1611630Y789940D02*
D03*
X1412240Y807720D02*
D03*
X1465580Y789940D02*
D03*
X1263650Y807720D02*
D03*
X1316990Y789940D02*
D03*
X1118870Y807720D02*
D03*
X1172210Y789940D02*
D03*
X972820Y807720D02*
D03*
X1026160Y789940D02*
D03*
X855980Y792480D02*
D03*
X802640Y810260D02*
D03*
X609600Y996950D02*
D03*
X581660Y1002030D02*
D03*
D47*
X824230Y762710D02*
D03*
X834780Y773210D02*
D03*
Y752210D02*
D03*
X814030D02*
D03*
Y773210D02*
D03*
X577810Y959900D02*
D03*
Y938900D02*
D03*
X598560D02*
D03*
Y959900D02*
D03*
X588010Y949400D02*
D03*
X1140460Y760170D02*
D03*
X1151010Y770670D02*
D03*
Y749670D02*
D03*
X1130260D02*
D03*
Y770670D02*
D03*
X984210D02*
D03*
Y749670D02*
D03*
X1004960D02*
D03*
Y770670D02*
D03*
X994410Y760170D02*
D03*
X1725930D02*
D03*
X1736480Y770670D02*
D03*
Y749670D02*
D03*
X1715730D02*
D03*
Y770670D02*
D03*
X1569680D02*
D03*
Y749670D02*
D03*
X1590430D02*
D03*
Y770670D02*
D03*
X1579880Y760170D02*
D03*
X1433830D02*
D03*
X1444380Y770670D02*
D03*
Y749670D02*
D03*
X1423630D02*
D03*
Y770670D02*
D03*
X1275040D02*
D03*
Y749670D02*
D03*
X1295790D02*
D03*
Y770670D02*
D03*
X1285240Y760170D02*
D03*
X345890Y845760D02*
D03*
Y830760D02*
D03*
X330890Y845760D02*
D03*
Y830760D02*
D03*
X360890Y845760D02*
D03*
Y830760D02*
D03*
M02*
