G04 Layer_Color=16711935*
%FSLAX44Y44*%
%MOMM*%
G71*
G01*
G75*
G04:AMPARAMS|DCode=52|XSize=1.6002mm|YSize=1.2954mm|CornerRadius=0.3037mm|HoleSize=0mm|Usage=FLASHONLY|Rotation=0.000|XOffset=0mm|YOffset=0mm|HoleType=Round|Shape=RoundedRectangle|*
%AMROUNDEDRECTD52*
21,1,1.6002,0.6881,0,0,0.0*
21,1,0.9929,1.2954,0,0,0.0*
1,1,0.6073,0.4964,-0.3440*
1,1,0.6073,-0.4964,-0.3440*
1,1,0.6073,-0.4964,0.3440*
1,1,0.6073,0.4964,0.3440*
%
%ADD52ROUNDEDRECTD52*%
G04:AMPARAMS|DCode=57|XSize=1.6002mm|YSize=1.2954mm|CornerRadius=0.3037mm|HoleSize=0mm|Usage=FLASHONLY|Rotation=270.000|XOffset=0mm|YOffset=0mm|HoleType=Round|Shape=RoundedRectangle|*
%AMROUNDEDRECTD57*
21,1,1.6002,0.6881,0,0,270.0*
21,1,0.9929,1.2954,0,0,270.0*
1,1,0.6073,-0.3440,-0.4964*
1,1,0.6073,-0.3440,0.4964*
1,1,0.6073,0.3440,0.4964*
1,1,0.6073,0.3440,-0.4964*
%
%ADD57ROUNDEDRECTD57*%
%ADD76C,1.9832*%
%ADD77C,7.2032*%
%ADD78C,2.0000*%
%ADD79C,2.2032*%
%ADD80C,2.7032*%
%ADD81C,1.4732*%
%ADD82C,0.8032*%
D52*
X500380Y1210691D02*
D03*
Y1227709D02*
D03*
D57*
X839089Y791210D02*
D03*
X822071D02*
D03*
X602869Y976630D02*
D03*
X585851D02*
D03*
X1155319Y788670D02*
D03*
X1138301D02*
D03*
X1009269D02*
D03*
X992251D02*
D03*
X1740789D02*
D03*
X1723771D02*
D03*
X1594739D02*
D03*
X1577721D02*
D03*
X1448689D02*
D03*
X1431671D02*
D03*
X1300099D02*
D03*
X1283081D02*
D03*
D76*
X327020Y1210750D02*
D03*
X288970D02*
D03*
X287020Y1183250D02*
D03*
X329020D02*
D03*
Y1238250D02*
D03*
X287020D02*
D03*
X751200Y1210750D02*
D03*
X713150D02*
D03*
X711200Y1183250D02*
D03*
X753200D02*
D03*
Y1238250D02*
D03*
X711200D02*
D03*
X899790Y1210750D02*
D03*
X861740D02*
D03*
X859790Y1183250D02*
D03*
X901790D02*
D03*
Y1238250D02*
D03*
X859790D02*
D03*
X1778630Y1210750D02*
D03*
X1740580D02*
D03*
X1738630Y1183250D02*
D03*
X1780630D02*
D03*
Y1238250D02*
D03*
X1738630D02*
D03*
X1635120Y1210750D02*
D03*
X1597070D02*
D03*
X1595120Y1183250D02*
D03*
X1637120D02*
D03*
Y1238250D02*
D03*
X1595120D02*
D03*
X1487800Y1210750D02*
D03*
X1449750D02*
D03*
X1447800Y1183250D02*
D03*
X1489800D02*
D03*
Y1238250D02*
D03*
X1447800D02*
D03*
X1340480Y1210750D02*
D03*
X1302430D02*
D03*
X1300480Y1183250D02*
D03*
X1342480D02*
D03*
Y1238250D02*
D03*
X1300480D02*
D03*
X475610Y1210750D02*
D03*
X437560D02*
D03*
X435610Y1183250D02*
D03*
X477610D02*
D03*
Y1238250D02*
D03*
X435610D02*
D03*
X1193160Y1210750D02*
D03*
X1155110D02*
D03*
X1153160Y1183250D02*
D03*
X1195160D02*
D03*
Y1238250D02*
D03*
X1153160D02*
D03*
X1047110Y1210750D02*
D03*
X1009060D02*
D03*
X1007110Y1183250D02*
D03*
X1049110D02*
D03*
Y1238250D02*
D03*
X1007110D02*
D03*
D77*
X1884680Y612140D02*
D03*
X132080D02*
D03*
X1884680Y1245870D02*
D03*
X132080D02*
D03*
D78*
X177800Y670560D02*
D03*
X1847850D02*
D03*
X1856740Y1189990D02*
D03*
D79*
X595630Y1236150D02*
D03*
Y1143650D02*
D03*
D80*
Y1203650D02*
D03*
X643130Y1208650D02*
D03*
Y1161650D02*
D03*
X548130Y1208650D02*
D03*
Y1161650D02*
D03*
D81*
X1791970Y1012190D02*
D03*
Y993140D02*
D03*
X1691640Y989330D02*
D03*
X1645920Y1012190D02*
D03*
Y993140D02*
D03*
X1545590Y989330D02*
D03*
X1498600Y1012190D02*
D03*
Y993140D02*
D03*
X1398270Y989330D02*
D03*
X1350010Y1012190D02*
D03*
Y993140D02*
D03*
X1249680Y989330D02*
D03*
X1203960Y1012190D02*
D03*
Y993140D02*
D03*
X1103630Y989330D02*
D03*
X1059180Y1013460D02*
D03*
Y994410D02*
D03*
X958850Y990600D02*
D03*
X781050Y782320D02*
D03*
X1631950Y699770D02*
D03*
X1778000D02*
D03*
X1758950Y767080D02*
D03*
X1680210Y717550D02*
D03*
X1694180Y636270D02*
D03*
X1612900Y767080D02*
D03*
X1534160Y717550D02*
D03*
X1548130Y636270D02*
D03*
X1466850Y767080D02*
D03*
X1388110Y717550D02*
D03*
X1482090Y699770D02*
D03*
X1402080Y636270D02*
D03*
X1188720Y699770D02*
D03*
X1094740Y718820D02*
D03*
X1253490Y636270D02*
D03*
X1333500Y699770D02*
D03*
X1239520Y717550D02*
D03*
X1318260Y767080D02*
D03*
X1173480D02*
D03*
X1109980Y633730D02*
D03*
X1041400Y698500D02*
D03*
X963930Y633730D02*
D03*
X1027430Y767080D02*
D03*
X951230Y717550D02*
D03*
X811530Y655320D02*
D03*
X877570Y701040D02*
D03*
X857250Y760730D02*
D03*
X800100Y990600D02*
D03*
X900430Y994410D02*
D03*
Y1013460D02*
D03*
X763270Y1088390D02*
D03*
X1910080Y1085850D02*
D03*
X506730Y591820D02*
D03*
X132080Y1164590D02*
D03*
X477520Y1074420D02*
D03*
X444500Y1005840D02*
D03*
X458470Y1042670D02*
D03*
X660400Y930910D02*
D03*
X527050D02*
D03*
X574040Y854710D02*
D03*
X508000Y782320D02*
D03*
X495300Y688340D02*
D03*
X242570Y852170D02*
D03*
X220980Y900430D02*
D03*
Y955040D02*
D03*
X331470D02*
D03*
X377190Y810260D02*
D03*
X387350Y877570D02*
D03*
X316230Y866140D02*
D03*
X1704340Y807720D02*
D03*
X1757680Y789940D02*
D03*
X1558290Y807720D02*
D03*
X1611630Y789940D02*
D03*
X1412240Y807720D02*
D03*
X1465580Y789940D02*
D03*
X1263650Y807720D02*
D03*
X1316990Y789940D02*
D03*
X1118870Y807720D02*
D03*
X1172210Y789940D02*
D03*
X972820Y807720D02*
D03*
X1026160Y789940D02*
D03*
X855980Y792480D02*
D03*
X802640Y810260D02*
D03*
X609600Y996950D02*
D03*
X581660Y1002030D02*
D03*
D82*
X824230Y762710D02*
D03*
X834780Y773210D02*
D03*
Y752210D02*
D03*
X814030D02*
D03*
Y773210D02*
D03*
X577810Y959900D02*
D03*
Y938900D02*
D03*
X598560D02*
D03*
Y959900D02*
D03*
X588010Y949400D02*
D03*
X1140460Y760170D02*
D03*
X1151010Y770670D02*
D03*
Y749670D02*
D03*
X1130260D02*
D03*
Y770670D02*
D03*
X984210D02*
D03*
Y749670D02*
D03*
X1004960D02*
D03*
Y770670D02*
D03*
X994410Y760170D02*
D03*
X1725930D02*
D03*
X1736480Y770670D02*
D03*
Y749670D02*
D03*
X1715730D02*
D03*
Y770670D02*
D03*
X1569680D02*
D03*
Y749670D02*
D03*
X1590430D02*
D03*
Y770670D02*
D03*
X1579880Y760170D02*
D03*
X1433830D02*
D03*
X1444380Y770670D02*
D03*
Y749670D02*
D03*
X1423630D02*
D03*
Y770670D02*
D03*
X1275040D02*
D03*
Y749670D02*
D03*
X1295790D02*
D03*
Y770670D02*
D03*
X1285240Y760170D02*
D03*
X345890Y845760D02*
D03*
Y830760D02*
D03*
X330890Y845760D02*
D03*
Y830760D02*
D03*
X360890Y845760D02*
D03*
Y830760D02*
D03*
M02*
